<?xml version="1.0" encoding="UTF-8" standalone="no"?><svg xmlns="http://www.w3.org/2000/svg" xmlns:xlink="http://www.w3.org/1999/xlink" height="234px" viewBox="0.00 0.00 127.69 233.80" width="128px">
<g class="graph" id="graph0" transform="scale(1.0 1.0) rotate(0.0) translate(4.0 229.8)">
<title>tableaux</title>
<polygon fill="white" points="-4,4 -4,-229.8 123.69,-229.8 123.69,4 -4,4" stroke="transparent"/>
<!-- 19 -->
<g class="node" id="node1">
<title>19</title>
<ellipse cx="77" cy="-179.8" fill="none" rx="27" ry="18" stroke="black"/>
<text font-family="Times,serif" font-size="14.00" text-anchor="start" x="70" y="-176.6">x</text>
<text baseline-shift="sub" font-family="Times,serif" font-size="14.00" text-anchor="start" x="77" y="-176.6">0</text>
<g id="a_node1_13"><a onclick="renderLabelOnTheSide('prova')" target="_blank" xlink:href="C:\Users\turco\OneDrive\Desktop\ProgettoIntelligentWeb\Progetto\graph\lazy\19.txt" xlink:title="Clicca per visualizzare Lx">
<polygon fill="none" points="1,-198.8 1,-224.8 49,-224.8 49,-198.8 1,-198.8" stroke="green"/>
<text font-family="Times,serif" font-size="14.00" text-anchor="start" x="5.56" y="-207.2"> Label </text>
</a>
</g>
<polygon fill="none" points="0,-197.8 0,-225.8 50,-225.8 50,-197.8 0,-197.8" stroke="green"/>
</g>
<!-- 20 -->
<g class="node" id="node2">
<title>20</title>
<ellipse cx="77" cy="-91" fill="none" rx="27" ry="18" stroke="black"/>
<text font-family="Times,serif" font-size="14.00" text-anchor="start" x="66.5" y="-87.8">x</text>
<text baseline-shift="sub" font-family="Times,serif" font-size="14.00" text-anchor="start" x="73.5" y="-87.8">01</text>
<g id="a_node2_14"><a onclick="renderLabelOnTheSide('prova')" target="_blank" xlink:href="C:\Users\turco\OneDrive\Desktop\ProgettoIntelligentWeb\Progetto\graph\lazy\20.txt" xlink:title="Clicca per visualizzare Lx">
<polygon fill="none" points="1,-110 1,-136 49,-136 49,-110 1,-110" stroke="green"/>
<text font-family="Times,serif" font-size="14.00" text-anchor="start" x="5.56" y="-118.4"> Label </text>
</a>
</g>
<polygon fill="none" points="0,-109 0,-137 50,-137 50,-109 0,-109" stroke="green"/>
</g>
<!-- 19&#45;&gt;20 -->
<g class="edge" id="edge1">
<title>19-&gt;20</title>
<path d="M77,-161.65C77,-149.52 77,-133.02 77,-119.12" fill="none" stroke="black"/>
<polygon fill="black" points="80.5,-119.11 77,-109.11 73.5,-119.11 80.5,-119.11" stroke="black"/>
<text font-family="Times,serif" font-size="14.00" text-anchor="middle" x="81.67" y="-131.2">R</text>
</g>
<!-- 21 -->
<g class="node" id="node3">
<title>21</title>
<ellipse cx="77" cy="-18" fill="none" rx="42.88" ry="18" stroke="black"/>
<text font-family="Times,serif" font-size="14.00" text-anchor="start" x="54.06" y="-13.8">CLASH</text>
</g>
<!-- 20&#45;&gt;21 -->
<g class="edge" id="edge2">
<title>20-&gt;21</title>
<path d="M77,-72.81C77,-64.79 77,-55.05 77,-46.07" fill="none" stroke="red"/>
<polygon fill="red" points="80.5,-46.03 77,-36.03 73.5,-46.03 80.5,-46.03" stroke="red"/>
</g>
</g>
</svg>