<svg width="366px" height="146px"
 viewBox="0.00 0.00 366.11 145.82" xmlns="http://www.w3.org/2000/svg" xmlns:xlink="http://www.w3.org/1999/xlink">
<g id="graph0" class="graph" transform="scale(1.0 1.0) rotate(0.0) translate(4.0 141.82)">
<title>example1</title>
<polygon fill="white" stroke="transparent" points="-4,4 -4,-141.82 362.11,-141.82 362.11,4 -4,4"/>
<!-- A  -->
<g id="node1" class="node">
<title>A </title>
<ellipse fill="none" stroke="red" cx="27" cy="-112.37" rx="27" ry="18"/>
<text text-anchor="middle" x="27" y="-108.17" font-family="Times,serif" font-size="14.00">A </text>
</g>
<!-- C  -->
<g id="node2" class="node">
<title>C </title>
<ellipse fill="none" stroke="red" cx="99" cy="-112.37" rx="27" ry="18"/>
<text text-anchor="middle" x="99" y="-108.17" font-family="Times,serif" font-size="14.00">C </text>
</g>
<!-- B  -->
<g id="node3" class="node">
<title>B </title>
<ellipse fill="none" stroke="red" cx="171" cy="-112.37" rx="27" ry="18"/>
<text text-anchor="middle" x="171" y="-108.17" font-family="Times,serif" font-size="14.00">B </text>
</g>
<!-- main -->
<g id="node4" class="node">
<title>main</title>
<ellipse fill="none" stroke="aquamarine" cx="247" cy="-112.37" rx="31.22" ry="25.41"/>
<text text-anchor="start" x="233" y="-114.77" font-family="Times,serif" font-weight="bold" font-size="14.00">main</text>
<text text-anchor="start" x="234.95" y="-100.77" font-family="Times,serif" font-size="14.00">start</text>
</g>
<!-- second -->
<g id="node5" class="node">
<title>second</title>
<ellipse fill="none" stroke="aquamarine" cx="247" cy="-25.46" rx="38.6" ry="25.41"/>
<text text-anchor="start" x="227.56" y="-27.86" font-family="Times,serif" font-weight="bold" font-size="14.00">second</text>
<text text-anchor="start" x="236.89" y="-13.86" font-family="Times,serif" font-size="14.00">end</text>
</g>
<!-- main&#45;&gt;second -->
<g id="edge1" class="edge">
<title>main&#45;&gt;second</title>
<path fill="none" stroke="black" d="M247,-86.81C247,-78.8 247,-69.75 247,-61.14"/>
<polygon fill="black" stroke="black" points="250.5,-60.96 247,-50.96 243.5,-60.96 250.5,-60.96"/>
</g>
<!-- a -->
<g id="node6" class="node">
<title>a</title>
<ellipse fill="none" stroke="black" cx="327" cy="-112.37" rx="31.22" ry="25.41"/>
<text text-anchor="start" x="313" y="-114.77" font-family="Times,serif" font-weight="bold" font-size="14.00" fill="#1020d0">main</text>
<text text-anchor="start" x="314.95" y="-100.77" font-family="Times,serif" font-size="14.00" fill="#1020d0">start</text>
</g>
</g>
</svg>
