<svg width="2327px" height="1111px"
 viewBox="0.00 0.00 2327.10 1110.60" xmlns="http://www.w3.org/2000/svg" xmlns:xlink="http://www.w3.org/1999/xlink">
<g id="graph0" class="graph" transform="scale(1.0 1.0) rotate(0.0) translate(4.0 1106.6)">
<title>tableaux</title>
<polygon fill="white" stroke="transparent" points="-4,4 -4,-1106.6 2323.1,-1106.6 2323.1,4 -4,4"/>
<!-- 0 -->
<g id="node1" class="node">
<title>0</title>
<ellipse fill="none" stroke="black" cx="1259.17" cy="-1067.8" rx="27" ry="18"/>
<text text-anchor="start" x="1252.17" y="-1063.6" font-family="Times,serif" font-size="14.00">x0</text>
<text text-anchor="start" x="841.13" y="-1090" font-family="Times,serif" font-size="14.00">(¬A ⊔ ¬B ); ((K ⊔ (A ⊔ (¬B ⊓ ¬K )))⊓ (((B ⊔ K )⊓ ¬A )⊔ ¬K )); </text>
</g>
<!-- 1 -->
<g id="node2" class="node">
<title>1</title>
<ellipse fill="none" stroke="black" cx="1259.17" cy="-979" rx="27" ry="18"/>
<text text-anchor="start" x="1252.17" y="-974.8" font-family="Times,serif" font-size="14.00">x0</text>
<text text-anchor="start" x="541.83" y="-1001.2" font-family="Times,serif" font-size="14.00">(¬A ⊔ ¬B ); (K ⊔ (A ⊔ (¬B ⊓ ¬K ))); ((K ⊔ (A ⊔ (¬B ⊓ ¬K )))⊓ (((B ⊔ K )⊓ ¬A )⊔ ¬K )); (((B ⊔ K )⊓ ¬A )⊔ ¬K ); </text>
</g>
<!-- 0&#45;&gt;1 -->
<g id="edge1" class="edge">
<title>0&#45;&gt;1</title>
<path fill="none" stroke="black" d="M1259.17,-1049.65C1259.17,-1037.52 1259.17,-1021.02 1259.17,-1007.12"/>
<polygon fill="black" stroke="black" points="1262.67,-1007.11 1259.17,-997.11 1255.67,-1007.11 1262.67,-1007.11"/>
<text text-anchor="middle" x="1293.37" y="-1019.2" font-family="Times,serif" font-size="14.00">Intersezione</text>
</g>
<!-- 2 -->
<g id="node3" class="node">
<title>2</title>
<ellipse fill="none" stroke="black" cx="1259.17" cy="-890.2" rx="27" ry="18"/>
<text text-anchor="start" x="1252.17" y="-886" font-family="Times,serif" font-size="14.00">x0</text>
<text text-anchor="start" x="511.51" y="-912.4" font-family="Times,serif" font-size="14.00">(¬A ⊔ ¬B ); (K ⊔ (A ⊔ (¬B ⊓ ¬K ))); ¬A ; ((K ⊔ (A ⊔ (¬B ⊓ ¬K )))⊓ (((B ⊔ K )⊓ ¬A )⊔ ¬K )); (((B ⊔ K )⊓ ¬A )⊔ ¬K ); </text>
</g>
<!-- 1&#45;&gt;2 -->
<g id="edge2" class="edge">
<title>1&#45;&gt;2</title>
<path fill="none" stroke="black" d="M1259.17,-960.85C1259.17,-948.72 1259.17,-932.22 1259.17,-918.32"/>
<polygon fill="black" stroke="black" points="1262.67,-918.31 1259.17,-908.31 1255.67,-918.31 1262.67,-918.31"/>
<text text-anchor="middle" x="1276.67" y="-930.4" font-family="Times,serif" font-size="14.00">Union</text>
</g>
<!-- 3 -->
<g id="node4" class="node">
<title>3</title>
<ellipse fill="none" stroke="black" cx="1259.17" cy="-801.4" rx="27" ry="18"/>
<text text-anchor="start" x="1252.17" y="-797.2" font-family="Times,serif" font-size="14.00">x0</text>
<text text-anchor="start" x="511.51" y="-823.6" font-family="Times,serif" font-size="14.00">(¬A ⊔ ¬B ); (K ⊔ (A ⊔ (¬B ⊓ ¬K ))); ¬A ; ((K ⊔ (A ⊔ (¬B ⊓ ¬K )))⊓ (((B ⊔ K )⊓ ¬A )⊔ ¬K )); (((B ⊔ K )⊓ ¬A )⊔ ¬K ); </text>
</g>
<!-- 2&#45;&gt;3 -->
<g id="edge3" class="edge">
<title>2&#45;&gt;3</title>
<path fill="none" stroke="black" d="M1259.17,-872.05C1259.17,-859.92 1259.17,-843.42 1259.17,-829.52"/>
<polygon fill="black" stroke="black" points="1262.67,-829.51 1259.17,-819.51 1255.67,-829.51 1262.67,-829.51"/>
<text text-anchor="middle" x="1293.37" y="-841.6" font-family="Times,serif" font-size="14.00">Intersezione</text>
</g>
<!-- 4 -->
<g id="node5" class="node">
<title>4</title>
<ellipse fill="none" stroke="black" cx="1259.17" cy="-712.6" rx="27" ry="18"/>
<text text-anchor="start" x="1252.17" y="-708.4" font-family="Times,serif" font-size="14.00">x0</text>
<text text-anchor="start" x="398.78" y="-734.8" font-family="Times,serif" font-size="14.00">(¬A ⊔ ¬B ); (A ⊔ (¬B ⊓ ¬K )); (K ⊔ (A ⊔ (¬B ⊓ ¬K ))); ¬A ; ((K ⊔ (A ⊔ (¬B ⊓ ¬K )))⊓ (((B ⊔ K )⊓ ¬A )⊔ ¬K )); (((B ⊔ K )⊓ ¬A )⊔ ¬K ); </text>
</g>
<!-- 3&#45;&gt;4 -->
<g id="edge4" class="edge">
<title>3&#45;&gt;4</title>
<path fill="none" stroke="black" d="M1259.17,-783.25C1259.17,-771.12 1259.17,-754.62 1259.17,-740.72"/>
<polygon fill="black" stroke="black" points="1262.67,-740.71 1259.17,-730.71 1255.67,-740.71 1262.67,-740.71"/>
<text text-anchor="middle" x="1276.67" y="-752.8" font-family="Times,serif" font-size="14.00">Union</text>
</g>
<!-- 5 -->
<g id="node6" class="node">
<title>5</title>
<ellipse fill="none" stroke="black" cx="1259.17" cy="-623.8" rx="27" ry="18"/>
<text text-anchor="start" x="1252.17" y="-619.6" font-family="Times,serif" font-size="14.00">x0</text>
<text text-anchor="start" x="398.78" y="-646" font-family="Times,serif" font-size="14.00">(¬A ⊔ ¬B ); (A ⊔ (¬B ⊓ ¬K )); (K ⊔ (A ⊔ (¬B ⊓ ¬K ))); ¬A ; ((K ⊔ (A ⊔ (¬B ⊓ ¬K )))⊓ (((B ⊔ K )⊓ ¬A )⊔ ¬K )); (((B ⊔ K )⊓ ¬A )⊔ ¬K ); </text>
</g>
<!-- 4&#45;&gt;5 -->
<g id="edge5" class="edge">
<title>4&#45;&gt;5</title>
<path fill="none" stroke="black" d="M1259.17,-694.45C1259.17,-682.32 1259.17,-665.82 1259.17,-651.92"/>
<polygon fill="black" stroke="black" points="1262.67,-651.91 1259.17,-641.91 1255.67,-651.91 1262.67,-651.91"/>
<text text-anchor="middle" x="1293.37" y="-664" font-family="Times,serif" font-size="14.00">Intersezione</text>
</g>
<!-- 6 -->
<g id="node7" class="node">
<title>6</title>
<ellipse fill="none" stroke="black" cx="1223.17" cy="-535" rx="27" ry="18"/>
<text text-anchor="start" x="1216.17" y="-530.8" font-family="Times,serif" font-size="14.00">x0</text>
<text text-anchor="start" x="341.79" y="-557.2" font-family="Times,serif" font-size="14.00">A ; (¬A ⊔ ¬B ); (A ⊔ (¬B ⊓ ¬K )); (K ⊔ (A ⊔ (¬B ⊓ ¬K ))); ¬A ; ((K ⊔ (A ⊔ (¬B ⊓ ¬K )))⊓ (((B ⊔ K )⊓ ¬A )⊔ ¬K )); (((B ⊔ K )⊓ ¬A )⊔ ¬K ); </text>
</g>
<!-- 5&#45;&gt;6 -->
<g id="edge7" class="edge">
<title>5&#45;&gt;6</title>
<path fill="none" stroke="black" d="M1246.85,-607.51C1242.62,-601.63 1238.2,-594.68 1235.17,-587.8 1231.77,-580.08 1229.27,-571.26 1227.46,-563.13"/>
<polygon fill="black" stroke="black" points="1230.89,-562.44 1225.52,-553.31 1224.02,-563.8 1230.89,-562.44"/>
<text text-anchor="middle" x="1253.67" y="-575.2" font-family="Times,serif" font-size="14.00">Union</text>
</g>
<!-- 19 -->
<g id="node20" class="node">
<title>19</title>
<ellipse fill="none" stroke="black" cx="1295.17" cy="-535" rx="27" ry="18"/>
<text text-anchor="start" x="1288.17" y="-530.8" font-family="Times,serif" font-size="14.00">x0</text>
<text text-anchor="start" x="358.99" y="-504.4" font-family="Times,serif" font-size="14.00">(¬A ⊔ ¬B ); (A ⊔ (¬B ⊓ ¬K )); (K ⊔ (A ⊔ (¬B ⊓ ¬K ))); ¬A ; ((K ⊔ (A ⊔ (¬B ⊓ ¬K )))⊓ (((B ⊔ K )⊓ ¬A )⊔ ¬K )); (((B ⊔ K )⊓ ¬A )⊔ ¬K ); (¬B ⊓ ¬K ); </text>
</g>
<!-- 5&#45;&gt;19 -->
<g id="edge6" class="edge">
<title>5&#45;&gt;19</title>
<path fill="none" stroke="black" d="M1266.11,-606.06C1271.29,-593.58 1278.46,-576.28 1284.39,-562"/>
<polygon fill="black" stroke="black" points="1287.65,-563.26 1288.25,-552.68 1281.18,-560.58 1287.65,-563.26"/>
<text text-anchor="middle" x="1298.67" y="-575.2" font-family="Times,serif" font-size="14.00">Union</text>
</g>
<!-- 7 -->
<g id="node8" class="node">
<title>7</title>
<ellipse fill="none" stroke="black" cx="1223.17" cy="-446.2" rx="27" ry="18"/>
<text text-anchor="start" x="1216.17" y="-442" font-family="Times,serif" font-size="14.00">x0</text>
<text text-anchor="start" x="341.79" y="-468.4" font-family="Times,serif" font-size="14.00">A ; (¬A ⊔ ¬B ); (A ⊔ (¬B ⊓ ¬K )); (K ⊔ (A ⊔ (¬B ⊓ ¬K ))); ¬A ; ((K ⊔ (A ⊔ (¬B ⊓ ¬K )))⊓ (((B ⊔ K )⊓ ¬A )⊔ ¬K )); (((B ⊔ K )⊓ ¬A )⊔ ¬K ); </text>
</g>
<!-- 6&#45;&gt;7 -->
<g id="edge8" class="edge">
<title>6&#45;&gt;7</title>
<path fill="none" stroke="black" d="M1223.17,-516.85C1223.17,-504.72 1223.17,-488.22 1223.17,-474.32"/>
<polygon fill="black" stroke="black" points="1226.67,-474.31 1223.17,-464.31 1219.67,-474.31 1226.67,-474.31"/>
<text text-anchor="middle" x="1257.37" y="-486.4" font-family="Times,serif" font-size="14.00">Intersezione</text>
</g>
<!-- 8 -->
<g id="node9" class="node">
<title>8</title>
<ellipse fill="none" stroke="black" cx="1187.17" cy="-357.4" rx="27" ry="18"/>
<text text-anchor="start" x="1180.17" y="-353.2" font-family="Times,serif" font-size="14.00">x0</text>
<text text-anchor="start" x="275.47" y="-379.6" font-family="Times,serif" font-size="14.00">A ; (¬A ⊔ ¬B ); ¬K ; (A ⊔ (¬B ⊓ ¬K )); (K ⊔ (A ⊔ (¬B ⊓ ¬K ))); ¬A ; ((K ⊔ (A ⊔ (¬B ⊓ ¬K )))⊓ (((B ⊔ K )⊓ ¬A )⊔ ¬K )); (((B ⊔ K )⊓ ¬A )⊔ ¬K ); </text>
</g>
<!-- 7&#45;&gt;8 -->
<g id="edge10" class="edge">
<title>7&#45;&gt;8</title>
<path fill="none" stroke="black" d="M1210.24,-430.01C1205.83,-424.14 1201.24,-417.17 1198.17,-410.2 1194.82,-402.59 1192.47,-393.9 1190.82,-385.84"/>
<polygon fill="black" stroke="black" points="1194.22,-384.98 1189.04,-375.74 1187.33,-386.2 1194.22,-384.98"/>
<text text-anchor="middle" x="1216.67" y="-397.6" font-family="Times,serif" font-size="14.00">Union</text>
</g>
<!-- 11 -->
<g id="node12" class="node">
<title>11</title>
<ellipse fill="none" stroke="black" cx="1268.17" cy="-357.4" rx="27" ry="18"/>
<text text-anchor="start" x="1261.17" y="-353.2" font-family="Times,serif" font-size="14.00">x0</text>
<text text-anchor="start" x="283.38" y="-326.8" font-family="Times,serif" font-size="14.00">A ; (¬A ⊔ ¬B ); ((B ⊔ K )⊓ ¬A ); (A ⊔ (¬B ⊓ ¬K )); (K ⊔ (A ⊔ (¬B ⊓ ¬K ))); ¬A ; ((K ⊔ (A ⊔ (¬B ⊓ ¬K )))⊓ (((B ⊔ K )⊓ ¬A )⊔ ¬K )); (((B ⊔ K )⊓ ¬A )⊔ ¬K ); </text>
</g>
<!-- 7&#45;&gt;11 -->
<g id="edge9" class="edge">
<title>7&#45;&gt;11</title>
<path fill="none" stroke="black" d="M1231.63,-428.87C1238.23,-416.14 1247.51,-398.24 1255.07,-383.66"/>
<polygon fill="black" stroke="black" points="1258.25,-385.14 1259.74,-374.65 1252.03,-381.92 1258.25,-385.14"/>
<text text-anchor="middle" x="1267.67" y="-397.6" font-family="Times,serif" font-size="14.00">Union</text>
</g>
<!-- 9 -->
<g id="node10" class="node">
<title>9</title>
<ellipse fill="none" stroke="black" cx="1177.17" cy="-268.6" rx="27" ry="18"/>
<text text-anchor="start" x="1170.17" y="-264.4" font-family="Times,serif" font-size="14.00">x0</text>
<text text-anchor="start" x="265.47" y="-290.8" font-family="Times,serif" font-size="14.00">A ; (¬A ⊔ ¬B ); ¬K ; (A ⊔ (¬B ⊓ ¬K )); (K ⊔ (A ⊔ (¬B ⊓ ¬K ))); ¬A ; ((K ⊔ (A ⊔ (¬B ⊓ ¬K )))⊓ (((B ⊔ K )⊓ ¬A )⊔ ¬K )); (((B ⊔ K )⊓ ¬A )⊔ ¬K ); </text>
</g>
<!-- 8&#45;&gt;9 -->
<g id="edge11" class="edge">
<title>8&#45;&gt;9</title>
<path fill="none" stroke="black" d="M1185.19,-339.25C1183.79,-327.12 1181.89,-310.62 1180.29,-296.72"/>
<polygon fill="black" stroke="black" points="1183.76,-296.25 1179.14,-286.71 1176.81,-297.05 1183.76,-296.25"/>
<text text-anchor="middle" x="1217.37" y="-308.8" font-family="Times,serif" font-size="14.00">Intersezione</text>
</g>
<!-- 10 -->
<g id="node11" class="node">
<title>10</title>
<ellipse fill="none" stroke="black" cx="1134.17" cy="-179.8" rx="42.88" ry="18"/>
<text text-anchor="start" x="1111.22" y="-175.6" font-family="Times,serif" font-size="14.00">CLASH</text>
</g>
<!-- 9&#45;&gt;10 -->
<g id="edge13" class="edge">
<title>9&#45;&gt;10</title>
<path fill="none" stroke="black" d="M1169.08,-251.27C1162.85,-238.7 1154.13,-221.09 1146.96,-206.62"/>
<polygon fill="black" stroke="black" points="1150.09,-205.05 1142.51,-197.65 1143.81,-208.16 1150.09,-205.05"/>
</g>
<!-- 12 -->
<g id="node13" class="node">
<title>12</title>
<ellipse fill="none" stroke="black" cx="1222.17" cy="-179.8" rx="27" ry="18"/>
<text text-anchor="start" x="1215.17" y="-175.6" font-family="Times,serif" font-size="14.00">x0</text>
<text text-anchor="start" x="180.23" y="-202" font-family="Times,serif" font-size="14.00">A ; (¬A ⊔ ¬B ); ((B ⊔ K )⊓ ¬A ); (A ⊔ (¬B ⊓ ¬K )); (K ⊔ (A ⊔ (¬B ⊓ ¬K ))); ¬A ; (B ⊔ K ); ((K ⊔ (A ⊔ (¬B ⊓ ¬K )))⊓ (((B ⊔ K )⊓ ¬A )⊔ ¬K )); (((B ⊔ K )⊓ ¬A )⊔ ¬K ); </text>
</g>
<!-- 9&#45;&gt;12 -->
<g id="edge12" class="edge">
<title>9&#45;&gt;12</title>
<path fill="none" stroke="black" d="M1185.63,-251.27C1192.23,-238.54 1201.51,-220.64 1209.07,-206.06"/>
<polygon fill="black" stroke="black" points="1212.25,-207.54 1213.74,-197.05 1206.03,-204.32 1212.25,-207.54"/>
<text text-anchor="middle" x="1238.37" y="-220" font-family="Times,serif" font-size="14.00">Intersezione</text>
</g>
<!-- 13 -->
<g id="node14" class="node">
<title>13</title>
<ellipse fill="none" stroke="black" cx="1062.17" cy="-91" rx="27" ry="18"/>
<text text-anchor="start" x="1055.17" y="-86.8" font-family="Times,serif" font-size="14.00">x0</text>
<text text-anchor="start" x="0" y="-113.2" font-family="Times,serif" font-size="14.00">A ; (¬A ⊔ ¬B ); ((B ⊔ K )⊓ ¬A ); B ; (A ⊔ (¬B ⊓ ¬K )); (K ⊔ (A ⊔ (¬B ⊓ ¬K ))); ¬A ; (B ⊔ K ); ((K ⊔ (A ⊔ (¬B ⊓ ¬K )))⊓ (((B ⊔ K )⊓ ¬A )⊔ ¬K )); (((B ⊔ K )⊓ ¬A )⊔ ¬K ); </text>
</g>
<!-- 10&#45;&gt;13 -->
<g id="edge15" class="edge">
<title>10&#45;&gt;13</title>
<path fill="none" stroke="black" d="M1114.93,-163.38C1108.29,-157.6 1101.05,-150.74 1095.17,-143.8 1088.21,-135.59 1081.61,-125.8 1076.16,-116.96"/>
<polygon fill="black" stroke="black" points="1079.06,-114.99 1070.94,-108.18 1073.05,-118.57 1079.06,-114.99"/>
<text text-anchor="middle" x="1113.67" y="-131.2" font-family="Times,serif" font-size="14.00">Union</text>
</g>
<!-- 16 -->
<g id="node17" class="node">
<title>16</title>
<ellipse fill="none" stroke="black" cx="1134.17" cy="-91" rx="27" ry="18"/>
<text text-anchor="start" x="1127.17" y="-86.8" font-family="Times,serif" font-size="14.00">x0</text>
<text text-anchor="start" x="71.23" y="-60.4" font-family="Times,serif" font-size="14.00">A ; (¬A ⊔ ¬B ); ((B ⊔ K )⊓ ¬A ); (A ⊔ (¬B ⊓ ¬K )); (K ⊔ (A ⊔ (¬B ⊓ ¬K ))); ¬A ; K ; (B ⊔ K ); ((K ⊔ (A ⊔ (¬B ⊓ ¬K )))⊓ (((B ⊔ K )⊓ ¬A )⊔ ¬K )); (((B ⊔ K )⊓ ¬A )⊔ ¬K ); </text>
</g>
<!-- 10&#45;&gt;16 -->
<g id="edge14" class="edge">
<title>10&#45;&gt;16</title>
<path fill="none" stroke="black" d="M1134.17,-161.65C1134.17,-149.52 1134.17,-133.02 1134.17,-119.12"/>
<polygon fill="black" stroke="black" points="1137.67,-119.11 1134.17,-109.11 1130.67,-119.11 1137.67,-119.11"/>
<text text-anchor="middle" x="1151.67" y="-131.2" font-family="Times,serif" font-size="14.00">Union</text>
</g>
<!-- 14 -->
<g id="node15" class="node">
<title>14</title>
<ellipse fill="none" stroke="black" cx="1268.17" cy="-268.6" rx="27" ry="18"/>
<text text-anchor="start" x="1261.17" y="-264.4" font-family="Times,serif" font-size="14.00">x0</text>
<text text-anchor="start" x="206" y="-238" font-family="Times,serif" font-size="14.00">A ; (¬A ⊔ ¬B ); ((B ⊔ K )⊓ ¬A ); B ; (A ⊔ (¬B ⊓ ¬K )); (K ⊔ (A ⊔ (¬B ⊓ ¬K ))); ¬A ; (B ⊔ K ); ((K ⊔ (A ⊔ (¬B ⊓ ¬K )))⊓ (((B ⊔ K )⊓ ¬A )⊔ ¬K )); (((B ⊔ K )⊓ ¬A )⊔ ¬K ); </text>
</g>
<!-- 11&#45;&gt;14 -->
<g id="edge17" class="edge">
<title>11&#45;&gt;14</title>
<path fill="none" stroke="black" d="M1268.17,-339.25C1268.17,-327.12 1268.17,-310.62 1268.17,-296.72"/>
<polygon fill="black" stroke="black" points="1271.67,-296.71 1268.17,-286.71 1264.67,-296.71 1271.67,-296.71"/>
<text text-anchor="middle" x="1302.37" y="-308.8" font-family="Times,serif" font-size="14.00">Intersezione</text>
</g>
<!-- 20 -->
<g id="node21" class="node">
<title>20</title>
<ellipse fill="none" stroke="black" cx="1359.17" cy="-268.6" rx="27" ry="18"/>
<text text-anchor="start" x="1352.17" y="-264.4" font-family="Times,serif" font-size="14.00">x0</text>
<text text-anchor="start" x="1332.17" y="-290.8" font-family="Times,serif" font-size="14.00">(¬A ⊔ ¬B ); ¬K ; (A ⊔ (¬B ⊓ ¬K )); (K ⊔ (A ⊔ (¬B ⊓ ¬K ))); ¬A ; ¬B ; ((K ⊔ (A ⊔ (¬B ⊓ ¬K )))⊓ (((B ⊔ K )⊓ ¬A )⊔ ¬K )); (((B ⊔ K )⊓ ¬A )⊔ ¬K ); (¬B ⊓ ¬K ); </text>
</g>
<!-- 11&#45;&gt;20 -->
<g id="edge16" class="edge">
<title>11&#45;&gt;20</title>
<path fill="none" stroke="black" d="M1292.2,-348.96C1306.82,-343.39 1324.97,-334.45 1337.17,-321.4 1343.76,-314.35 1348.54,-305.02 1351.92,-296.23"/>
<polygon fill="black" stroke="black" points="1355.27,-297.27 1355.18,-286.68 1348.64,-295.01 1355.27,-297.27"/>
<text text-anchor="middle" x="1382.37" y="-308.8" font-family="Times,serif" font-size="14.00">Intersezione</text>
</g>
<!-- 15 -->
<g id="node16" class="node">
<title>15</title>
<ellipse fill="none" stroke="black" cx="1222.17" cy="-91" rx="42.88" ry="18"/>
<text text-anchor="start" x="1199.22" y="-86.8" font-family="Times,serif" font-size="14.00">CLASH</text>
</g>
<!-- 12&#45;&gt;15 -->
<g id="edge19" class="edge">
<title>12&#45;&gt;15</title>
<path fill="none" stroke="black" d="M1222.17,-161.65C1222.17,-149.52 1222.17,-133.02 1222.17,-119.12"/>
<polygon fill="black" stroke="black" points="1225.67,-119.11 1222.17,-109.11 1218.67,-119.11 1225.67,-119.11"/>
</g>
<!-- 17 -->
<g id="node18" class="node">
<title>17</title>
<ellipse fill="none" stroke="black" cx="1310.17" cy="-91" rx="27" ry="18"/>
<text text-anchor="start" x="1303.17" y="-86.8" font-family="Times,serif" font-size="14.00">x0</text>
<text text-anchor="start" x="1283.17" y="-113.2" font-family="Times,serif" font-size="14.00">A ; (¬A ⊔ ¬B ); ((B ⊔ K )⊓ ¬A ); (A ⊔ (¬B ⊓ ¬K )); (K ⊔ (A ⊔ (¬B ⊓ ¬K ))); ¬A ; K ; (B ⊔ K ); ((K ⊔ (A ⊔ (¬B ⊓ ¬K )))⊓ (((B ⊔ K )⊓ ¬A )⊔ ¬K )); (((B ⊔ K )⊓ ¬A )⊔ ¬K ); </text>
</g>
<!-- 12&#45;&gt;17 -->
<g id="edge18" class="edge">
<title>12&#45;&gt;17</title>
<path fill="none" stroke="black" d="M1236.7,-164.47C1250.71,-150.65 1272.1,-129.55 1288.19,-113.67"/>
<polygon fill="black" stroke="black" points="1290.95,-115.87 1295.61,-106.35 1286.04,-110.89 1290.95,-115.87"/>
<text text-anchor="middle" x="1308.37" y="-131.2" font-family="Times,serif" font-size="14.00">Intersezione</text>
</g>
<!-- 18 -->
<g id="node19" class="node">
<title>18</title>
<ellipse fill="none" stroke="black" cx="1062.17" cy="-18" rx="42.88" ry="18"/>
<text text-anchor="start" x="1039.22" y="-13.8" font-family="Times,serif" font-size="14.00">CLASH</text>
</g>
<!-- 13&#45;&gt;18 -->
<g id="edge20" class="edge">
<title>13&#45;&gt;18</title>
<path fill="none" stroke="black" d="M1062.17,-72.81C1062.17,-64.79 1062.17,-55.05 1062.17,-46.07"/>
<polygon fill="black" stroke="black" points="1065.67,-46.03 1062.17,-36.03 1058.67,-46.03 1065.67,-46.03"/>
</g>
</g>
</svg>
