<svg width="1158px" height="393px"
 viewBox="0.00 0.00 1157.64 393.00" xmlns="http://www.w3.org/2000/svg" xmlns:xlink="http://www.w3.org/1999/xlink">
<g id="graph0" class="graph" transform="scale(1.0 1.0) rotate(0.0) translate(4.0 389.0)">
<title>tableaux</title>
<polygon fill="white" stroke="transparent" points="-4,4 -4,-389 1153.64,-389 1153.64,4 -4,4"/>
<!-- 0 -->
<g id="node1" class="node">
<title>0</title>
<ellipse fill="none" stroke="black" cx="1008" cy="-352" rx="27" ry="18"/>
<text text-anchor="start" x="1001" y="-348.3" font-family="Times New Roman,serif" font-size="14.00">x0</text>
<text text-anchor="start" x="209" y="-373.8" font-family="Times New Roman,serif" font-size="14.00">(¬A ⊔ ¬B ); (K ⊔ (A ⊔ (¬B ⊓ ¬K ))); ((K ⊔ (A ⊔ (¬B ⊓ ¬K )))⊓ (((B ⊔ K )⊓ ¬A )⊔ ¬K )); (((B ⊔ K )⊓ ¬A )⊔ ¬K ); </text>
</g>
<!-- 1 -->
<g id="node2" class="node">
<title>1</title>
<ellipse fill="none" stroke="black" cx="1008" cy="-265" rx="27" ry="18"/>
<text text-anchor="start" x="1001" y="-261.3" font-family="Times New Roman,serif" font-size="14.00">x0</text>
<text text-anchor="start" x="179" y="-286.8" font-family="Times New Roman,serif" font-size="14.00">(¬A ⊔ ¬B ); (K ⊔ (A ⊔ (¬B ⊓ ¬K ))); ¬A ; ((K ⊔ (A ⊔ (¬B ⊓ ¬K )))⊓ (((B ⊔ K )⊓ ¬A )⊔ ¬K )); (((B ⊔ K )⊓ ¬A )⊔ ¬K ); </text>
</g>
<!-- 0&#45;&gt;1 -->
<g id="edge1" class="edge">
<title>0&#45;&gt;1</title>
<path fill="none" stroke="black" d="M1008,-333.8C1008,-322.16 1008,-306.55 1008,-293.24"/>
<polygon fill="black" stroke="black" points="1011.5,-293.18 1008,-283.18 1004.5,-293.18 1011.5,-293.18"/>
<text text-anchor="middle" x="1025" y="-304.8" font-family="Times New Roman,serif" font-size="14.00">Union</text>
</g>
<!-- 2 -->
<g id="node3" class="node">
<title>2</title>
<ellipse fill="none" stroke="black" cx="1008" cy="-178" rx="27" ry="18"/>
<text text-anchor="start" x="1001" y="-174.3" font-family="Times New Roman,serif" font-size="14.00">x0</text>
<text text-anchor="start" x="56" y="-199.8" font-family="Times New Roman,serif" font-size="14.00">(¬A ⊔ ¬B ); (A ⊔ (¬B ⊓ ¬K )); (K ⊔ (A ⊔ (¬B ⊓ ¬K ))); ¬A ; ((K ⊔ (A ⊔ (¬B ⊓ ¬K )))⊓ (((B ⊔ K )⊓ ¬A )⊔ ¬K )); (((B ⊔ K )⊓ ¬A )⊔ ¬K ); </text>
</g>
<!-- 1&#45;&gt;2 -->
<g id="edge2" class="edge">
<title>1&#45;&gt;2</title>
<path fill="none" stroke="black" d="M1008,-246.8C1008,-235.16 1008,-219.55 1008,-206.24"/>
<polygon fill="black" stroke="black" points="1011.5,-206.18 1008,-196.18 1004.5,-206.18 1011.5,-206.18"/>
<text text-anchor="middle" x="1025" y="-217.8" font-family="Times New Roman,serif" font-size="14.00">Union</text>
</g>
<!-- 3 -->
<g id="node4" class="node">
<title>3</title>
<ellipse fill="none" stroke="black" cx="973" cy="-91" rx="27" ry="18"/>
<text text-anchor="start" x="966" y="-87.3" font-family="Times New Roman,serif" font-size="14.00">x0</text>
<text text-anchor="start" x="0" y="-112.8" font-family="Times New Roman,serif" font-size="14.00">A ; (¬A ⊔ ¬B ); (A ⊔ (¬B ⊓ ¬K )); (K ⊔ (A ⊔ (¬B ⊓ ¬K ))); ¬A ; ((K ⊔ (A ⊔ (¬B ⊓ ¬K )))⊓ (((B ⊔ K )⊓ ¬A )⊔ ¬K )); (((B ⊔ K )⊓ ¬A )⊔ ¬K ); </text>
</g>
<!-- 2&#45;&gt;3 -->
<g id="edge4" class="edge">
<title>2&#45;&gt;3</title>
<path fill="none" stroke="black" d="M996.24,-161.63C992.2,-155.75 987.95,-148.81 985,-142 981.88,-134.79 979.49,-126.63 977.69,-119.02"/>
<polygon fill="black" stroke="black" points="981.09,-118.19 975.6,-109.14 974.24,-119.64 981.09,-118.19"/>
<text text-anchor="middle" x="1002" y="-130.8" font-family="Times New Roman,serif" font-size="14.00">Union</text>
</g>
<!-- 5 -->
<g id="node6" class="node">
<title>5</title>
<ellipse fill="none" stroke="black" cx="1071" cy="-91" rx="27" ry="18"/>
<text text-anchor="start" x="1064" y="-87.3" font-family="Times New Roman,serif" font-size="14.00">x0</text>
<text text-anchor="start" x="38" y="-61.8" font-family="Times New Roman,serif" font-size="14.00">(¬A ⊔ ¬B ); (A ⊔ (¬B ⊓ ¬K )); (K ⊔ (A ⊔ (¬B ⊓ ¬K ))); ¬A ; ((K ⊔ (A ⊔ (¬B ⊓ ¬K )))⊓ (((B ⊔ K )⊓ ¬A )⊔ ¬K )); (((B ⊔ K )⊓ ¬A )⊔ ¬K ); (¬B ⊓ ¬K ); </text>
</g>
<!-- 2&#45;&gt;5 -->
<g id="edge3" class="edge">
<title>2&#45;&gt;5</title>
<path fill="none" stroke="black" d="M1019.56,-161.41C1029.06,-148.59 1042.67,-130.22 1053.51,-115.6"/>
<polygon fill="black" stroke="black" points="1056.38,-117.61 1059.52,-107.49 1050.75,-113.44 1056.38,-117.61"/>
<text text-anchor="middle" x="1061" y="-130.8" font-family="Times New Roman,serif" font-size="14.00">Union</text>
</g>
<!-- 4 -->
<g id="node5" class="node">
<title>4</title>
<ellipse fill="none" stroke="black" cx="960" cy="-18" rx="40.09" ry="18"/>
<text text-anchor="start" x="937" y="-14.3" font-family="Times New Roman,serif" font-size="14.00">CLASH</text>
</g>
<!-- 3&#45;&gt;4 -->
<g id="edge5" class="edge">
<title>3&#45;&gt;4</title>
<path fill="none" stroke="black" d="M969.85,-72.81C968.38,-64.79 966.6,-55.05 964.96,-46.07"/>
<polygon fill="black" stroke="black" points="968.36,-45.23 963.12,-36.03 961.48,-46.5 968.36,-45.23"/>
</g>
<!-- 6 -->
<g id="node7" class="node">
<title>6</title>
<ellipse fill="none" stroke="black" cx="1084" cy="-18" rx="65.79" ry="18"/>
<text text-anchor="start" x="1041.5" y="-14.3" font-family="Times New Roman,serif" font-size="14.00">CLASH&#45;FREE</text>
</g>
<!-- 5&#45;&gt;6 -->
<g id="edge6" class="edge">
<title>5&#45;&gt;6</title>
<path fill="none" stroke="black" d="M1074.15,-72.81C1075.62,-64.79 1077.4,-55.05 1079.04,-46.07"/>
<polygon fill="black" stroke="black" points="1082.52,-46.5 1080.88,-36.03 1075.64,-45.23 1082.52,-46.5"/>
</g>
</g>
</svg>
