<svg width="2278px" height="558px"
 viewBox="0.00 0.00 2278.47 557.60" xmlns="http://www.w3.org/2000/svg" xmlns:xlink="http://www.w3.org/1999/xlink">
<g id="graph0" class="graph" transform="scale(1.0 1.0) rotate(0.0) translate(4.0 553.6)">
<title>tableaux</title>
<polygon fill="white" stroke="transparent" points="-4,4 -4,-553.6 2274.47,-553.6 2274.47,4 -4,4"/>
<!-- 1 -->
<g id="node1" class="node">
<title>1</title>
<ellipse fill="none" stroke="black" cx="342.24" cy="-380.4" rx="27" ry="18"/>
<text text-anchor="middle" x="342.24" y="-376.2" font-family="Times,serif" font-size="14.00">x0</text>
<text text-anchor="middle" x="157.62" y="-469.8" font-family="Times,serif" font-size="14.00">(¬A ⊔ ¬B );</text>
<text text-anchor="middle" x="157.62" y="-453" font-family="Times,serif" font-size="14.00"> (K ⊔ (A ⊔ (¬B ⊓ ¬K )));</text>
<text text-anchor="middle" x="157.62" y="-436.2" font-family="Times,serif" font-size="14.00"> ((K ⊔ (A ⊔ (¬B ⊓ ¬K )))⊓ (((B ⊔ K )⊓ ¬A )⊔ ¬K ));</text>
<text text-anchor="middle" x="157.62" y="-419.4" font-family="Times,serif" font-size="14.00"> (((B ⊔ K )⊓ ¬A )⊔ ¬K );</text>
<text text-anchor="middle" x="157.62" y="-402.6" font-family="Times,serif" font-size="14.00"> </text>
</g>
<!-- 1&#45;&gt;1 -->
<g id="edge1" class="edge">
<title>1&#45;&gt;1</title>
<path fill="none" stroke="black" d="M366.77,-388.52C377.74,-389.29 387.24,-386.59 387.24,-380.4 387.24,-376.24 382.95,-373.66 376.81,-372.64"/>
<polygon fill="black" stroke="black" points="376.89,-369.14 366.77,-372.28 376.64,-376.14 376.89,-369.14"/>
<text text-anchor="middle" x="421.44" y="-376.2" font-family="Times,serif" font-size="14.00">Intersezione</text>
</g>
<!-- 2 -->
<g id="node2" class="node">
<title>2</title>
<ellipse fill="none" stroke="black" cx="500.24" cy="-380.4" rx="27" ry="18"/>
<text text-anchor="middle" x="500.24" y="-376.2" font-family="Times,serif" font-size="14.00">x0</text>
<text text-anchor="middle" x="315.62" y="-349.8" font-family="Times,serif" font-size="14.00">(¬A ⊔ ¬B );</text>
<text text-anchor="middle" x="315.62" y="-333" font-family="Times,serif" font-size="14.00"> (K ⊔ (A ⊔ (¬B ⊓ ¬K )));</text>
<text text-anchor="middle" x="315.62" y="-316.2" font-family="Times,serif" font-size="14.00"> ¬A ;</text>
<text text-anchor="middle" x="315.62" y="-299.4" font-family="Times,serif" font-size="14.00"> ((K ⊔ (A ⊔ (¬B ⊓ ¬K )))⊓ (((B ⊔ K )⊓ ¬A )⊔ ¬K ));</text>
<text text-anchor="middle" x="315.62" y="-282.6" font-family="Times,serif" font-size="14.00"> (((B ⊔ K )⊓ ¬A )⊔ ¬K );</text>
<text text-anchor="middle" x="315.62" y="-265.8" font-family="Times,serif" font-size="14.00"> </text>
</g>
<!-- 2&#45;&gt;2 -->
<g id="edge2" class="edge">
<title>2&#45;&gt;2</title>
<path fill="none" stroke="black" d="M524.77,-388.52C535.74,-389.29 545.24,-386.59 545.24,-380.4 545.24,-376.24 540.95,-373.66 534.81,-372.64"/>
<polygon fill="black" stroke="black" points="534.89,-369.14 524.77,-372.28 534.64,-376.14 534.89,-369.14"/>
<text text-anchor="middle" x="562.74" y="-376.2" font-family="Times,serif" font-size="14.00">Union</text>
</g>
<!-- 3 -->
<g id="node3" class="node">
<title>3</title>
<ellipse fill="none" stroke="black" cx="624.24" cy="-380.4" rx="27" ry="18"/>
<text text-anchor="middle" x="624.24" y="-376.2" font-family="Times,serif" font-size="14.00">x0</text>
<text text-anchor="middle" x="754.85" y="-486.6" font-family="Times,serif" font-size="14.00">(¬A ⊔ ¬B );</text>
<text text-anchor="middle" x="754.85" y="-469.8" font-family="Times,serif" font-size="14.00"> (K ⊔ (A ⊔ (¬B ⊓ ¬K )));</text>
<text text-anchor="middle" x="754.85" y="-453" font-family="Times,serif" font-size="14.00"> ¬A ;</text>
<text text-anchor="middle" x="754.85" y="-436.2" font-family="Times,serif" font-size="14.00"> ((K ⊔ (A ⊔ (¬B ⊓ ¬K )))⊓ (((B ⊔ K )⊓ ¬A )⊔ ¬K ));</text>
<text text-anchor="middle" x="754.85" y="-419.4" font-family="Times,serif" font-size="14.00"> (((B ⊔ K )⊓ ¬A )⊔ ¬K );</text>
<text text-anchor="middle" x="754.85" y="-402.6" font-family="Times,serif" font-size="14.00"> </text>
</g>
<!-- 3&#45;&gt;3 -->
<g id="edge3" class="edge">
<title>3&#45;&gt;3</title>
<path fill="none" stroke="black" d="M648.77,-388.52C659.74,-389.29 669.24,-386.59 669.24,-380.4 669.24,-376.24 664.95,-373.66 658.81,-372.64"/>
<polygon fill="black" stroke="black" points="658.89,-369.14 648.77,-372.28 658.64,-376.14 658.89,-369.14"/>
<text text-anchor="middle" x="703.44" y="-376.2" font-family="Times,serif" font-size="14.00">Intersezione</text>
</g>
<!-- 4 -->
<g id="node4" class="node">
<title>4</title>
<ellipse fill="none" stroke="black" cx="782.24" cy="-380.4" rx="27" ry="18"/>
<text text-anchor="middle" x="782.24" y="-376.2" font-family="Times,serif" font-size="14.00">x0</text>
<text text-anchor="middle" x="912.85" y="-349.8" font-family="Times,serif" font-size="14.00">(¬A ⊔ ¬B );</text>
<text text-anchor="middle" x="912.85" y="-333" font-family="Times,serif" font-size="14.00"> (A ⊔ (¬B ⊓ ¬K ));</text>
<text text-anchor="middle" x="912.85" y="-316.2" font-family="Times,serif" font-size="14.00"> (K ⊔ (A ⊔ (¬B ⊓ ¬K )));</text>
<text text-anchor="middle" x="912.85" y="-299.4" font-family="Times,serif" font-size="14.00"> ¬A ;</text>
<text text-anchor="middle" x="912.85" y="-282.6" font-family="Times,serif" font-size="14.00"> ((K ⊔ (A ⊔ (¬B ⊓ ¬K )))⊓ (((B ⊔ K )⊓ ¬A )⊔ ¬K ));</text>
<text text-anchor="middle" x="912.85" y="-265.8" font-family="Times,serif" font-size="14.00"> (((B ⊔ K )⊓ ¬A )⊔ ¬K );</text>
<text text-anchor="middle" x="912.85" y="-249" font-family="Times,serif" font-size="14.00"> </text>
</g>
<!-- 4&#45;&gt;4 -->
<g id="edge4" class="edge">
<title>4&#45;&gt;4</title>
<path fill="none" stroke="black" d="M806.77,-388.52C817.74,-389.29 827.24,-386.59 827.24,-380.4 827.24,-376.24 822.95,-373.66 816.81,-372.64"/>
<polygon fill="black" stroke="black" points="816.89,-369.14 806.77,-372.28 816.64,-376.14 816.89,-369.14"/>
<text text-anchor="middle" x="844.74" y="-376.2" font-family="Times,serif" font-size="14.00">Union</text>
</g>
<!-- 5 -->
<g id="node5" class="node">
<title>5</title>
<ellipse fill="none" stroke="black" cx="906.24" cy="-380.4" rx="27" ry="18"/>
<text text-anchor="middle" x="906.24" y="-376.2" font-family="Times,serif" font-size="14.00">x0</text>
<text text-anchor="middle" x="1090.85" y="-503.4" font-family="Times,serif" font-size="14.00">(¬A ⊔ ¬B );</text>
<text text-anchor="middle" x="1090.85" y="-486.6" font-family="Times,serif" font-size="14.00"> (A ⊔ (¬B ⊓ ¬K ));</text>
<text text-anchor="middle" x="1090.85" y="-469.8" font-family="Times,serif" font-size="14.00"> (K ⊔ (A ⊔ (¬B ⊓ ¬K )));</text>
<text text-anchor="middle" x="1090.85" y="-453" font-family="Times,serif" font-size="14.00"> ¬A ;</text>
<text text-anchor="middle" x="1090.85" y="-436.2" font-family="Times,serif" font-size="14.00"> ((K ⊔ (A ⊔ (¬B ⊓ ¬K )))⊓ (((B ⊔ K )⊓ ¬A )⊔ ¬K ));</text>
<text text-anchor="middle" x="1090.85" y="-419.4" font-family="Times,serif" font-size="14.00"> (((B ⊔ K )⊓ ¬A )⊔ ¬K );</text>
<text text-anchor="middle" x="1090.85" y="-402.6" font-family="Times,serif" font-size="14.00"> </text>
</g>
<!-- 5&#45;&gt;5 -->
<g id="edge5" class="edge">
<title>5&#45;&gt;5</title>
<path fill="none" stroke="black" d="M930.77,-388.52C941.74,-389.29 951.24,-386.59 951.24,-380.4 951.24,-376.24 946.95,-373.66 940.81,-372.64"/>
<polygon fill="black" stroke="black" points="940.89,-369.14 930.77,-372.28 940.64,-376.14 940.89,-369.14"/>
<text text-anchor="middle" x="985.44" y="-376.2" font-family="Times,serif" font-size="14.00">Intersezione</text>
</g>
<!-- 6 -->
<g id="node6" class="node">
<title>6</title>
<ellipse fill="none" stroke="black" cx="1064.24" cy="-380.4" rx="27" ry="18"/>
<text text-anchor="middle" x="1064.24" y="-376.2" font-family="Times,serif" font-size="14.00">x0</text>
<text text-anchor="middle" x="1248.85" y="-349.8" font-family="Times,serif" font-size="14.00">A ;</text>
<text text-anchor="middle" x="1248.85" y="-333" font-family="Times,serif" font-size="14.00"> (¬A ⊔ ¬B );</text>
<text text-anchor="middle" x="1248.85" y="-316.2" font-family="Times,serif" font-size="14.00"> (A ⊔ (¬B ⊓ ¬K ));</text>
<text text-anchor="middle" x="1248.85" y="-299.4" font-family="Times,serif" font-size="14.00"> (K ⊔ (A ⊔ (¬B ⊓ ¬K )));</text>
<text text-anchor="middle" x="1248.85" y="-282.6" font-family="Times,serif" font-size="14.00"> ¬A ;</text>
<text text-anchor="middle" x="1248.85" y="-265.8" font-family="Times,serif" font-size="14.00"> ((K ⊔ (A ⊔ (¬B ⊓ ¬K )))⊓ (((B ⊔ K )⊓ ¬A )⊔ ¬K ));</text>
<text text-anchor="middle" x="1248.85" y="-249" font-family="Times,serif" font-size="14.00"> (((B ⊔ K )⊓ ¬A )⊔ ¬K );</text>
<text text-anchor="middle" x="1248.85" y="-232.2" font-family="Times,serif" font-size="14.00"> </text>
</g>
<!-- 6&#45;&gt;6 -->
<g id="edge6" class="edge">
<title>6&#45;&gt;6</title>
<path fill="none" stroke="black" d="M1088.77,-388.52C1099.74,-389.29 1109.24,-386.59 1109.24,-380.4 1109.24,-376.24 1104.95,-373.66 1098.81,-372.64"/>
<polygon fill="black" stroke="black" points="1098.89,-369.14 1088.77,-372.28 1098.64,-376.14 1098.89,-369.14"/>
<text text-anchor="middle" x="1126.74" y="-376.2" font-family="Times,serif" font-size="14.00">Union</text>
</g>
<!-- 7 -->
<g id="node7" class="node">
<title>7</title>
<ellipse fill="none" stroke="black" cx="1188.24" cy="-380.4" rx="27" ry="18"/>
<text text-anchor="middle" x="1188.24" y="-376.2" font-family="Times,serif" font-size="14.00">x0</text>
<text text-anchor="middle" x="1372.85" y="-520.2" font-family="Times,serif" font-size="14.00">A ;</text>
<text text-anchor="middle" x="1372.85" y="-503.4" font-family="Times,serif" font-size="14.00"> (¬A ⊔ ¬B );</text>
<text text-anchor="middle" x="1372.85" y="-486.6" font-family="Times,serif" font-size="14.00"> (A ⊔ (¬B ⊓ ¬K ));</text>
<text text-anchor="middle" x="1372.85" y="-469.8" font-family="Times,serif" font-size="14.00"> (K ⊔ (A ⊔ (¬B ⊓ ¬K )));</text>
<text text-anchor="middle" x="1372.85" y="-453" font-family="Times,serif" font-size="14.00"> ¬A ;</text>
<text text-anchor="middle" x="1372.85" y="-436.2" font-family="Times,serif" font-size="14.00"> ((K ⊔ (A ⊔ (¬B ⊓ ¬K )))⊓ (((B ⊔ K )⊓ ¬A )⊔ ¬K ));</text>
<text text-anchor="middle" x="1372.85" y="-419.4" font-family="Times,serif" font-size="14.00"> (((B ⊔ K )⊓ ¬A )⊔ ¬K );</text>
<text text-anchor="middle" x="1372.85" y="-402.6" font-family="Times,serif" font-size="14.00"> </text>
</g>
<!-- 7&#45;&gt;7 -->
<g id="edge7" class="edge">
<title>7&#45;&gt;7</title>
<path fill="none" stroke="black" d="M1212.77,-388.52C1223.74,-389.29 1233.24,-386.59 1233.24,-380.4 1233.24,-376.24 1228.95,-373.66 1222.81,-372.64"/>
<polygon fill="black" stroke="black" points="1222.89,-369.14 1212.77,-372.28 1222.64,-376.14 1222.89,-369.14"/>
<text text-anchor="middle" x="1267.44" y="-376.2" font-family="Times,serif" font-size="14.00">Intersezione</text>
</g>
<!-- 8 -->
<g id="node8" class="node">
<title>8</title>
<ellipse fill="none" stroke="black" cx="1346.24" cy="-380.4" rx="27" ry="18"/>
<text text-anchor="middle" x="1346.24" y="-376.2" font-family="Times,serif" font-size="14.00">x0</text>
<text text-anchor="middle" x="1530.85" y="-537" font-family="Times,serif" font-size="14.00">A ;</text>
<text text-anchor="middle" x="1530.85" y="-520.2" font-family="Times,serif" font-size="14.00"> (¬A ⊔ ¬B );</text>
<text text-anchor="middle" x="1530.85" y="-503.4" font-family="Times,serif" font-size="14.00"> ¬K ;</text>
<text text-anchor="middle" x="1530.85" y="-486.6" font-family="Times,serif" font-size="14.00"> (A ⊔ (¬B ⊓ ¬K ));</text>
<text text-anchor="middle" x="1530.85" y="-469.8" font-family="Times,serif" font-size="14.00"> (K ⊔ (A ⊔ (¬B ⊓ ¬K )));</text>
<text text-anchor="middle" x="1530.85" y="-453" font-family="Times,serif" font-size="14.00"> ¬A ;</text>
<text text-anchor="middle" x="1530.85" y="-436.2" font-family="Times,serif" font-size="14.00"> ((K ⊔ (A ⊔ (¬B ⊓ ¬K )))⊓ (((B ⊔ K )⊓ ¬A )⊔ ¬K ));</text>
<text text-anchor="middle" x="1530.85" y="-419.4" font-family="Times,serif" font-size="14.00"> (((B ⊔ K )⊓ ¬A )⊔ ¬K );</text>
<text text-anchor="middle" x="1530.85" y="-402.6" font-family="Times,serif" font-size="14.00"> </text>
</g>
<!-- 8&#45;&gt;8 -->
<g id="edge9" class="edge">
<title>8&#45;&gt;8</title>
<path fill="none" stroke="black" d="M1370.77,-388.52C1381.74,-389.29 1391.24,-386.59 1391.24,-380.4 1391.24,-376.24 1386.95,-373.66 1380.81,-372.64"/>
<polygon fill="black" stroke="black" points="1380.89,-369.14 1370.77,-372.28 1380.64,-376.14 1380.89,-369.14"/>
<text text-anchor="middle" x="1408.74" y="-376.2" font-family="Times,serif" font-size="14.00">Union</text>
</g>
<!-- 11 -->
<g id="node11" class="node">
<title>11</title>
<ellipse fill="none" stroke="black" cx="1346.24" cy="-291.6" rx="27" ry="18"/>
<text text-anchor="middle" x="1346.24" y="-287.4" font-family="Times,serif" font-size="14.00">x0</text>
<text text-anchor="middle" x="1530.85" y="-261" font-family="Times,serif" font-size="14.00">A ;</text>
<text text-anchor="middle" x="1530.85" y="-244.2" font-family="Times,serif" font-size="14.00"> (¬A ⊔ ¬B );</text>
<text text-anchor="middle" x="1530.85" y="-227.4" font-family="Times,serif" font-size="14.00"> ((B ⊔ K )⊓ ¬A );</text>
<text text-anchor="middle" x="1530.85" y="-210.6" font-family="Times,serif" font-size="14.00"> (A ⊔ (¬B ⊓ ¬K ));</text>
<text text-anchor="middle" x="1530.85" y="-193.8" font-family="Times,serif" font-size="14.00"> (K ⊔ (A ⊔ (¬B ⊓ ¬K )));</text>
<text text-anchor="middle" x="1530.85" y="-177" font-family="Times,serif" font-size="14.00"> ¬A ;</text>
<text text-anchor="middle" x="1530.85" y="-160.2" font-family="Times,serif" font-size="14.00"> ((K ⊔ (A ⊔ (¬B ⊓ ¬K )))⊓ (((B ⊔ K )⊓ ¬A )⊔ ¬K ));</text>
<text text-anchor="middle" x="1530.85" y="-143.4" font-family="Times,serif" font-size="14.00"> (((B ⊔ K )⊓ ¬A )⊔ ¬K );</text>
<text text-anchor="middle" x="1530.85" y="-126.6" font-family="Times,serif" font-size="14.00"> </text>
</g>
<!-- 8&#45;&gt;11 -->
<g id="edge8" class="edge">
<title>8&#45;&gt;11</title>
<path fill="none" stroke="black" d="M1346.24,-362.25C1346.24,-350.12 1346.24,-333.62 1346.24,-319.72"/>
<polygon fill="black" stroke="black" points="1349.74,-319.71 1346.24,-309.71 1342.74,-319.71 1349.74,-319.71"/>
<text text-anchor="middle" x="1363.74" y="-331.8" font-family="Times,serif" font-size="14.00">Union</text>
</g>
<!-- 9 -->
<g id="node9" class="node">
<title>9</title>
<ellipse fill="none" stroke="black" cx="1576.24" cy="-380.4" rx="27" ry="18"/>
<text text-anchor="middle" x="1576.24" y="-376.2" font-family="Times,serif" font-size="14.00">x0</text>
<text text-anchor="middle" x="1760.85" y="-537" font-family="Times,serif" font-size="14.00">A ;</text>
<text text-anchor="middle" x="1760.85" y="-520.2" font-family="Times,serif" font-size="14.00"> (¬A ⊔ ¬B );</text>
<text text-anchor="middle" x="1760.85" y="-503.4" font-family="Times,serif" font-size="14.00"> ¬K ;</text>
<text text-anchor="middle" x="1760.85" y="-486.6" font-family="Times,serif" font-size="14.00"> (A ⊔ (¬B ⊓ ¬K ));</text>
<text text-anchor="middle" x="1760.85" y="-469.8" font-family="Times,serif" font-size="14.00"> (K ⊔ (A ⊔ (¬B ⊓ ¬K )));</text>
<text text-anchor="middle" x="1760.85" y="-453" font-family="Times,serif" font-size="14.00"> ¬A ;</text>
<text text-anchor="middle" x="1760.85" y="-436.2" font-family="Times,serif" font-size="14.00"> ((K ⊔ (A ⊔ (¬B ⊓ ¬K )))⊓ (((B ⊔ K )⊓ ¬A )⊔ ¬K ));</text>
<text text-anchor="middle" x="1760.85" y="-419.4" font-family="Times,serif" font-size="14.00"> (((B ⊔ K )⊓ ¬A )⊔ ¬K );</text>
<text text-anchor="middle" x="1760.85" y="-402.6" font-family="Times,serif" font-size="14.00"> </text>
</g>
<!-- 9&#45;&gt;9 -->
<g id="edge11" class="edge">
<title>9&#45;&gt;9</title>
<path fill="none" stroke="black" d="M1600.77,-388.52C1611.74,-389.29 1621.24,-386.59 1621.24,-380.4 1621.24,-376.24 1616.95,-373.66 1610.81,-372.64"/>
<polygon fill="black" stroke="black" points="1610.89,-369.14 1600.77,-372.28 1610.64,-376.14 1610.89,-369.14"/>
<text text-anchor="middle" x="1655.44" y="-376.2" font-family="Times,serif" font-size="14.00">Intersezione</text>
</g>
<!-- 12 -->
<g id="node12" class="node">
<title>12</title>
<ellipse fill="none" stroke="black" cx="1576.24" cy="-291.6" rx="27" ry="18"/>
<text text-anchor="middle" x="1576.24" y="-287.4" font-family="Times,serif" font-size="14.00">x0</text>
<text text-anchor="middle" x="1760.85" y="-261" font-family="Times,serif" font-size="14.00">A ;</text>
<text text-anchor="middle" x="1760.85" y="-244.2" font-family="Times,serif" font-size="14.00"> (¬A ⊔ ¬B );</text>
<text text-anchor="middle" x="1760.85" y="-227.4" font-family="Times,serif" font-size="14.00"> ((B ⊔ K )⊓ ¬A );</text>
<text text-anchor="middle" x="1760.85" y="-210.6" font-family="Times,serif" font-size="14.00"> (A ⊔ (¬B ⊓ ¬K ));</text>
<text text-anchor="middle" x="1760.85" y="-193.8" font-family="Times,serif" font-size="14.00"> (K ⊔ (A ⊔ (¬B ⊓ ¬K )));</text>
<text text-anchor="middle" x="1760.85" y="-177" font-family="Times,serif" font-size="14.00"> ¬A ;</text>
<text text-anchor="middle" x="1760.85" y="-160.2" font-family="Times,serif" font-size="14.00"> (B ⊔ K );</text>
<text text-anchor="middle" x="1760.85" y="-143.4" font-family="Times,serif" font-size="14.00"> ((K ⊔ (A ⊔ (¬B ⊓ ¬K )))⊓ (((B ⊔ K )⊓ ¬A )⊔ ¬K ));</text>
<text text-anchor="middle" x="1760.85" y="-126.6" font-family="Times,serif" font-size="14.00"> (((B ⊔ K )⊓ ¬A )⊔ ¬K );</text>
<text text-anchor="middle" x="1760.85" y="-109.8" font-family="Times,serif" font-size="14.00"> </text>
</g>
<!-- 9&#45;&gt;12 -->
<g id="edge10" class="edge">
<title>9&#45;&gt;12</title>
<path fill="none" stroke="black" d="M1576.24,-362.25C1576.24,-350.12 1576.24,-333.62 1576.24,-319.72"/>
<polygon fill="black" stroke="black" points="1579.74,-319.71 1576.24,-309.71 1572.74,-319.71 1579.74,-319.71"/>
<text text-anchor="middle" x="1610.44" y="-331.8" font-family="Times,serif" font-size="14.00">Intersezione</text>
</g>
<!-- 10 -->
<g id="node10" class="node">
<title>10</title>
<ellipse fill="none" stroke="black" cx="1750.24" cy="-380.4" rx="42.88" ry="18"/>
<text text-anchor="middle" x="1750.24" y="-376.2" font-family="Times,serif" font-size="14.00">CLASH</text>
</g>
<!-- 10&#45;&gt;10 -->
<g id="edge15" class="edge">
<title>10&#45;&gt;10</title>
<path fill="none" stroke="black" d="M1788.46,-388.65C1800.97,-388.61 1810.92,-385.86 1810.92,-380.4 1810.92,-376.56 1806,-374.06 1798.73,-372.9"/>
<polygon fill="black" stroke="black" points="1798.69,-369.39 1788.46,-372.15 1798.18,-376.37 1798.69,-369.39"/>
</g>
<!-- 13 -->
<g id="node13" class="node">
<title>13</title>
<ellipse fill="none" stroke="black" cx="1678.24" cy="-291.6" rx="27" ry="18"/>
<text text-anchor="middle" x="1678.24" y="-287.4" font-family="Times,serif" font-size="14.00">x0</text>
<text text-anchor="middle" x="1862.85" y="-261" font-family="Times,serif" font-size="14.00">A ;</text>
<text text-anchor="middle" x="1862.85" y="-244.2" font-family="Times,serif" font-size="14.00"> (¬A ⊔ ¬B );</text>
<text text-anchor="middle" x="1862.85" y="-227.4" font-family="Times,serif" font-size="14.00"> ((B ⊔ K )⊓ ¬A );</text>
<text text-anchor="middle" x="1862.85" y="-210.6" font-family="Times,serif" font-size="14.00"> B ;</text>
<text text-anchor="middle" x="1862.85" y="-193.8" font-family="Times,serif" font-size="14.00"> (A ⊔ (¬B ⊓ ¬K ));</text>
<text text-anchor="middle" x="1862.85" y="-177" font-family="Times,serif" font-size="14.00"> (K ⊔ (A ⊔ (¬B ⊓ ¬K )));</text>
<text text-anchor="middle" x="1862.85" y="-160.2" font-family="Times,serif" font-size="14.00"> ¬A ;</text>
<text text-anchor="middle" x="1862.85" y="-143.4" font-family="Times,serif" font-size="14.00"> (B ⊔ K );</text>
<text text-anchor="middle" x="1862.85" y="-126.6" font-family="Times,serif" font-size="14.00"> ((K ⊔ (A ⊔ (¬B ⊓ ¬K )))⊓ (((B ⊔ K )⊓ ¬A )⊔ ¬K ));</text>
<text text-anchor="middle" x="1862.85" y="-109.8" font-family="Times,serif" font-size="14.00"> (((B ⊔ K )⊓ ¬A )⊔ ¬K );</text>
<text text-anchor="middle" x="1862.85" y="-93" font-family="Times,serif" font-size="14.00"> </text>
</g>
<!-- 10&#45;&gt;13 -->
<g id="edge14" class="edge">
<title>10&#45;&gt;13</title>
<path fill="none" stroke="black" d="M1731,-363.98C1724.36,-358.2 1717.12,-351.34 1711.24,-344.4 1704.28,-336.19 1697.68,-326.4 1692.23,-317.56"/>
<polygon fill="black" stroke="black" points="1695.13,-315.59 1687.01,-308.78 1689.12,-319.17 1695.13,-315.59"/>
<text text-anchor="middle" x="1729.74" y="-331.8" font-family="Times,serif" font-size="14.00">Union</text>
</g>
<!-- 16 -->
<g id="node16" class="node">
<title>16</title>
<ellipse fill="none" stroke="black" cx="1750.24" cy="-291.6" rx="27" ry="18"/>
<text text-anchor="middle" x="1750.24" y="-287.4" font-family="Times,serif" font-size="14.00">x0</text>
<text text-anchor="middle" x="1934.85" y="-481.8" font-family="Times,serif" font-size="14.00">A ;</text>
<text text-anchor="middle" x="1934.85" y="-465" font-family="Times,serif" font-size="14.00"> (¬A ⊔ ¬B );</text>
<text text-anchor="middle" x="1934.85" y="-448.2" font-family="Times,serif" font-size="14.00"> ((B ⊔ K )⊓ ¬A );</text>
<text text-anchor="middle" x="1934.85" y="-431.4" font-family="Times,serif" font-size="14.00"> (A ⊔ (¬B ⊓ ¬K ));</text>
<text text-anchor="middle" x="1934.85" y="-414.6" font-family="Times,serif" font-size="14.00"> (K ⊔ (A ⊔ (¬B ⊓ ¬K )));</text>
<text text-anchor="middle" x="1934.85" y="-397.8" font-family="Times,serif" font-size="14.00"> ¬A ;</text>
<text text-anchor="middle" x="1934.85" y="-381" font-family="Times,serif" font-size="14.00"> K ;</text>
<text text-anchor="middle" x="1934.85" y="-364.2" font-family="Times,serif" font-size="14.00"> (B ⊔ K );</text>
<text text-anchor="middle" x="1934.85" y="-347.4" font-family="Times,serif" font-size="14.00"> ((K ⊔ (A ⊔ (¬B ⊓ ¬K )))⊓ (((B ⊔ K )⊓ ¬A )⊔ ¬K ));</text>
<text text-anchor="middle" x="1934.85" y="-330.6" font-family="Times,serif" font-size="14.00"> (((B ⊔ K )⊓ ¬A )⊔ ¬K );</text>
<text text-anchor="middle" x="1934.85" y="-313.8" font-family="Times,serif" font-size="14.00"> </text>
</g>
<!-- 10&#45;&gt;16 -->
<g id="edge13" class="edge">
<title>10&#45;&gt;16</title>
<path fill="none" stroke="black" d="M1750.24,-362.25C1750.24,-350.12 1750.24,-333.62 1750.24,-319.72"/>
<polygon fill="black" stroke="black" points="1753.74,-319.71 1750.24,-309.71 1746.74,-319.71 1753.74,-319.71"/>
<text text-anchor="middle" x="1767.74" y="-331.8" font-family="Times,serif" font-size="14.00">Union</text>
</g>
<!-- 19 -->
<g id="node19" class="node">
<title>19</title>
<ellipse fill="none" stroke="black" cx="1822.24" cy="-291.6" rx="27" ry="18"/>
<text text-anchor="middle" x="1822.24" y="-287.4" font-family="Times,serif" font-size="14.00">x0</text>
<text text-anchor="middle" x="1637.62" y="-395.4" font-family="Times,serif" font-size="14.00">(¬A ⊔ ¬B );</text>
<text text-anchor="middle" x="1637.62" y="-378.6" font-family="Times,serif" font-size="14.00"> (A ⊔ (¬B ⊓ ¬K ));</text>
<text text-anchor="middle" x="1637.62" y="-361.8" font-family="Times,serif" font-size="14.00"> (K ⊔ (A ⊔ (¬B ⊓ ¬K )));</text>
<text text-anchor="middle" x="1637.62" y="-345" font-family="Times,serif" font-size="14.00"> ¬A ;</text>
<text text-anchor="middle" x="1637.62" y="-328.2" font-family="Times,serif" font-size="14.00"> ((K ⊔ (A ⊔ (¬B ⊓ ¬K )))⊓ (((B ⊔ K )⊓ ¬A )⊔ ¬K ));</text>
<text text-anchor="middle" x="1637.62" y="-311.4" font-family="Times,serif" font-size="14.00"> (((B ⊔ K )⊓ ¬A )⊔ ¬K );</text>
<text text-anchor="middle" x="1637.62" y="-294.6" font-family="Times,serif" font-size="14.00"> (¬B ⊓ ¬K );</text>
<text text-anchor="middle" x="1637.62" y="-277.8" font-family="Times,serif" font-size="14.00"> </text>
</g>
<!-- 10&#45;&gt;19 -->
<g id="edge12" class="edge">
<title>10&#45;&gt;19</title>
<path fill="none" stroke="black" d="M1769.48,-363.98C1776.11,-358.2 1783.35,-351.34 1789.24,-344.4 1796.2,-336.19 1802.8,-326.4 1808.24,-317.56"/>
<polygon fill="black" stroke="black" points="1811.36,-319.17 1813.46,-308.78 1805.34,-315.59 1811.36,-319.17"/>
<text text-anchor="middle" x="1819.74" y="-331.8" font-family="Times,serif" font-size="14.00">Union</text>
</g>
<!-- 14 -->
<g id="node14" class="node">
<title>14</title>
<ellipse fill="none" stroke="black" cx="1255.24" cy="-202.8" rx="27" ry="18"/>
<text text-anchor="middle" x="1255.24" y="-198.6" font-family="Times,serif" font-size="14.00">x0</text>
<text text-anchor="middle" x="1070.62" y="-172.2" font-family="Times,serif" font-size="14.00">A ;</text>
<text text-anchor="middle" x="1070.62" y="-155.4" font-family="Times,serif" font-size="14.00"> (¬A ⊔ ¬B );</text>
<text text-anchor="middle" x="1070.62" y="-138.6" font-family="Times,serif" font-size="14.00"> ((B ⊔ K )⊓ ¬A );</text>
<text text-anchor="middle" x="1070.62" y="-121.8" font-family="Times,serif" font-size="14.00"> B ;</text>
<text text-anchor="middle" x="1070.62" y="-105" font-family="Times,serif" font-size="14.00"> (A ⊔ (¬B ⊓ ¬K ));</text>
<text text-anchor="middle" x="1070.62" y="-88.2" font-family="Times,serif" font-size="14.00"> (K ⊔ (A ⊔ (¬B ⊓ ¬K )));</text>
<text text-anchor="middle" x="1070.62" y="-71.4" font-family="Times,serif" font-size="14.00"> ¬A ;</text>
<text text-anchor="middle" x="1070.62" y="-54.6" font-family="Times,serif" font-size="14.00"> (B ⊔ K );</text>
<text text-anchor="middle" x="1070.62" y="-37.8" font-family="Times,serif" font-size="14.00"> ((K ⊔ (A ⊔ (¬B ⊓ ¬K )))⊓ (((B ⊔ K )⊓ ¬A )⊔ ¬K ));</text>
<text text-anchor="middle" x="1070.62" y="-21" font-family="Times,serif" font-size="14.00"> (((B ⊔ K )⊓ ¬A )⊔ ¬K );</text>
<text text-anchor="middle" x="1070.62" y="-4.2" font-family="Times,serif" font-size="14.00"> </text>
</g>
<!-- 11&#45;&gt;14 -->
<g id="edge18" class="edge">
<title>11&#45;&gt;14</title>
<path fill="none" stroke="black" d="M1321.45,-283.93C1305.88,-278.58 1286.44,-269.61 1273.83,-255.6 1267.58,-248.66 1263.4,-239.46 1260.61,-230.75"/>
<polygon fill="black" stroke="black" points="1263.93,-229.64 1257.93,-220.91 1257.18,-231.47 1263.93,-229.64"/>
<text text-anchor="middle" x="1308.44" y="-243" font-family="Times,serif" font-size="14.00">Intersezione</text>
</g>
<!-- 17 -->
<g id="node17" class="node">
<title>17</title>
<ellipse fill="none" stroke="black" cx="1346.24" cy="-202.8" rx="27" ry="18"/>
<text text-anchor="middle" x="1346.24" y="-198.6" font-family="Times,serif" font-size="14.00">x0</text>
<text text-anchor="middle" x="1445.3" y="-172.2" font-family="Times,serif" font-size="14.00">A ;</text>
<text text-anchor="middle" x="1445.3" y="-155.4" font-family="Times,serif" font-size="14.00"> (¬A ⊔ ¬B );</text>
<text text-anchor="middle" x="1445.3" y="-138.6" font-family="Times,serif" font-size="14.00"> ((B ⊔ K )⊓ ¬A );</text>
<text text-anchor="middle" x="1445.3" y="-121.8" font-family="Times,serif" font-size="14.00"> (A ⊔ (¬B ⊓ ¬K ));</text>
<text text-anchor="middle" x="1445.3" y="-105" font-family="Times,serif" font-size="14.00"> (K ⊔ (A ⊔ (¬B ⊓ ¬K )));</text>
<text text-anchor="middle" x="1445.3" y="-88.2" font-family="Times,serif" font-size="14.00"> ¬A ;</text>
<text text-anchor="middle" x="1445.3" y="-71.4" font-family="Times,serif" font-size="14.00"> K ;</text>
<text text-anchor="middle" x="1445.3" y="-54.6" font-family="Times,serif" font-size="14.00"> (B ⊔ K );</text>
<text text-anchor="middle" x="1445.3" y="-37.8" font-family="Times,serif" font-size="14.00"> ((K ⊔ (A ⊔ (¬B ⊓ ¬K )))⊓ (((B ⊔ K )⊓ ¬A )⊔ ¬K ));</text>
<text text-anchor="middle" x="1445.3" y="-21" font-family="Times,serif" font-size="14.00"> (((B ⊔ K )⊓ ¬A )⊔ ¬K );</text>
<text text-anchor="middle" x="1445.3" y="-4.2" font-family="Times,serif" font-size="14.00"> </text>
</g>
<!-- 11&#45;&gt;17 -->
<g id="edge17" class="edge">
<title>11&#45;&gt;17</title>
<path fill="none" stroke="black" d="M1346.24,-273.45C1346.24,-261.32 1346.24,-244.82 1346.24,-230.92"/>
<polygon fill="black" stroke="black" points="1349.74,-230.91 1346.24,-220.91 1342.74,-230.91 1349.74,-230.91"/>
<text text-anchor="middle" x="1380.44" y="-243" font-family="Times,serif" font-size="14.00">Intersezione</text>
</g>
<!-- 20 -->
<g id="node20" class="node">
<title>20</title>
<ellipse fill="none" stroke="black" cx="1437.24" cy="-202.8" rx="27" ry="18"/>
<text text-anchor="middle" x="1437.24" y="-198.6" font-family="Times,serif" font-size="14.00">x0</text>
<text text-anchor="middle" x="1252.62" y="-172.2" font-family="Times,serif" font-size="14.00">(¬A ⊔ ¬B );</text>
<text text-anchor="middle" x="1252.62" y="-155.4" font-family="Times,serif" font-size="14.00"> ¬K ;</text>
<text text-anchor="middle" x="1252.62" y="-138.6" font-family="Times,serif" font-size="14.00"> (A ⊔ (¬B ⊓ ¬K ));</text>
<text text-anchor="middle" x="1252.62" y="-121.8" font-family="Times,serif" font-size="14.00"> (K ⊔ (A ⊔ (¬B ⊓ ¬K )));</text>
<text text-anchor="middle" x="1252.62" y="-105" font-family="Times,serif" font-size="14.00"> ¬A ;</text>
<text text-anchor="middle" x="1252.62" y="-88.2" font-family="Times,serif" font-size="14.00"> ¬B ;</text>
<text text-anchor="middle" x="1252.62" y="-71.4" font-family="Times,serif" font-size="14.00"> ((K ⊔ (A ⊔ (¬B ⊓ ¬K )))⊓ (((B ⊔ K )⊓ ¬A )⊔ ¬K ));</text>
<text text-anchor="middle" x="1252.62" y="-54.6" font-family="Times,serif" font-size="14.00"> (((B ⊔ K )⊓ ¬A )⊔ ¬K );</text>
<text text-anchor="middle" x="1252.62" y="-37.8" font-family="Times,serif" font-size="14.00"> (¬B ⊓ ¬K );</text>
<text text-anchor="middle" x="1252.62" y="-21" font-family="Times,serif" font-size="14.00"> </text>
</g>
<!-- 11&#45;&gt;20 -->
<g id="edge16" class="edge">
<title>11&#45;&gt;20</title>
<path fill="none" stroke="black" d="M1370.27,-283.16C1384.89,-277.59 1403.04,-268.65 1415.24,-255.6 1421.83,-248.55 1426.61,-239.22 1429.99,-230.43"/>
<polygon fill="black" stroke="black" points="1433.34,-231.47 1433.25,-220.88 1426.71,-229.21 1433.34,-231.47"/>
<text text-anchor="middle" x="1460.44" y="-243" font-family="Times,serif" font-size="14.00">Intersezione</text>
</g>
<!-- 15 -->
<g id="node15" class="node">
<title>15</title>
<ellipse fill="none" stroke="black" cx="1525.24" cy="-202.8" rx="42.88" ry="18"/>
<text text-anchor="middle" x="1525.24" y="-198.6" font-family="Times,serif" font-size="14.00">CLASH</text>
</g>
<!-- 12&#45;&gt;15 -->
<g id="edge20" class="edge">
<title>12&#45;&gt;15</title>
<path fill="none" stroke="black" d="M1566.88,-274.68C1559.4,-261.95 1548.78,-243.87 1540.13,-229.16"/>
<polygon fill="black" stroke="black" points="1543.14,-227.36 1535.05,-220.51 1537.1,-230.9 1543.14,-227.36"/>
</g>
<!-- 18 -->
<g id="node18" class="node">
<title>18</title>
<ellipse fill="none" stroke="black" cx="1628.24" cy="-202.8" rx="42.88" ry="18"/>
<text text-anchor="middle" x="1628.24" y="-198.6" font-family="Times,serif" font-size="14.00">CLASH</text>
</g>
<!-- 12&#45;&gt;18 -->
<g id="edge19" class="edge">
<title>12&#45;&gt;18</title>
<path fill="none" stroke="black" d="M1585.77,-274.68C1593.4,-261.95 1604.23,-243.87 1613.05,-229.16"/>
<polygon fill="black" stroke="black" points="1616.09,-230.88 1618.23,-220.51 1610.09,-227.29 1616.09,-230.88"/>
</g>
<!-- 0 -->
<g id="node21" class="node">
<title>0</title>
<ellipse fill="none" stroke="black" cx="1856.24" cy="-380.4" rx="27" ry="18"/>
<text text-anchor="middle" x="1856.24" y="-376.2" font-family="Times,serif" font-size="14.00">x0</text>
<text text-anchor="middle" x="2040.85" y="-349.8" font-family="Times,serif" font-size="14.00">(¬A ⊔ ¬B );</text>
<text text-anchor="middle" x="2040.85" y="-333" font-family="Times,serif" font-size="14.00"> ((K ⊔ (A ⊔ (¬B ⊓ ¬K )))⊓ (((B ⊔ K )⊓ ¬A )⊔ ¬K ));</text>
<text text-anchor="middle" x="2040.85" y="-316.2" font-family="Times,serif" font-size="14.00"> </text>
</g>
<!-- 21 -->
<g id="node22" class="node">
<title>21</title>
<ellipse fill="none" stroke="black" cx="1928.24" cy="-380.4" rx="27" ry="18"/>
<text text-anchor="middle" x="1928.24" y="-376.2" font-family="Times,serif" font-size="14.00">x21</text>
<text text-anchor="middle" x="2112.85" y="-436.2" font-family="Times,serif" font-size="14.00">(¬A ⊔ ¬B );</text>
<text text-anchor="middle" x="2112.85" y="-419.4" font-family="Times,serif" font-size="14.00"> ((K ⊔ (A ⊔ (¬B ⊓ ¬K )))⊓ (((B ⊔ K )⊓ ¬A )⊔ ¬K ));</text>
<text text-anchor="middle" x="2112.85" y="-402.6" font-family="Times,serif" font-size="14.00"> </text>
</g>
<!-- 123213321 -->
<g id="node23" class="node">
<title>123213321</title>
<ellipse fill="none" stroke="black" cx="2005.24" cy="-380.4" rx="31.9" ry="18"/>
<text text-anchor="middle" x="2005.24" y="-376.2" font-family="Times,serif" font-size="14.00">AOO</text>
</g>
<!-- 134543254 -->
<g id="node24" class="node">
<title>134543254</title>
<ellipse fill="none" stroke="black" cx="2005.24" cy="-291.6" rx="27" ry="18"/>
<text text-anchor="middle" x="2005.24" y="-287.4" font-family="Times,serif" font-size="14.00">1</text>
</g>
<!-- 123213321&#45;&gt;134543254 -->
<g id="edge21" class="edge">
<title>123213321&#45;&gt;134543254</title>
<path fill="none" stroke="black" d="M2005.24,-362.25C2005.24,-350.12 2005.24,-333.62 2005.24,-319.72"/>
<polygon fill="black" stroke="black" points="2008.74,-319.71 2005.24,-309.71 2001.74,-319.71 2008.74,-319.71"/>
</g>
</g>
</svg>
