<svg width="556px" height="678px"
 viewBox="0.00 0.00 555.53 677.80" xmlns="http://www.w3.org/2000/svg" xmlns:xlink="http://www.w3.org/1999/xlink">
<g id="graph0" class="graph" transform="scale(1.0 1.0) rotate(0.0) translate(4.0 673.8)">
<title>tableaux</title>
<polygon fill="white" stroke="transparent" points="-4,4 -4,-673.8 551.53,-673.8 551.53,4 -4,4"/>
<!-- 0 -->
<g id="node1" class="node">
<title>0</title>
<ellipse fill="none" stroke="black" cx="270" cy="-623.8" rx="27" ry="18"/>
<text text-anchor="start" x="263" y="-620.6" font-family="Times,serif" font-size="14.00">x</text>
<text text-anchor="start" x="270" y="-620.6" font-family="Times,serif" baseline-shift="sub" font-size="14.00">0</text>
<g id="a_node1_43"><a xlink:href="C:\Users\checc\Desktop\ProgettoIntelligentWeb\Progetto\graph\lazy\0.txt" xlink:title="Nodo 0: ∃haSpecchio.Specchio , &#160;∀ haSpecchio.¬Specchio , ((MacchinaFotografica ⊔ ¬Mirrorless )⊓ (MacchinaFotografica ⊔ ¬Reflex )⊓ (MacchinaFotografica ⊔ &#160;∀ haSensore.owl:Nothing )⊓ (MacchinaFotografica ⊔ &#160;∀ haSpecchio.owl:Nothing )⊓ (owl:Nothing ⊔ &#160;∀ haSensore.Sensore )⊓ (owl:Nothing ⊔ &#160;∀ haSpecchio.Specchio )⊓ (¬APSC ⊔ ¬FullFrame )⊓ (¬Mirrorless ⊔ ¬Reflex )), (MacchinaFotografica ⊔ ¬Mirrorless ), (MacchinaFotografica ⊔ &#160;∀ haSpecchio.owl:Nothing ), Mirrorless , (¬Mirrorless ⊔ ¬Reflex ), (¬APSC ⊔ ¬FullFrame ), (MacchinaFotografica ⊔ &#160;∀ haSensore.owl:Nothing ), (Mirrorless ⊓ ∃haSpecchio.Specchio ), (MacchinaFotografica ⊔ ¬Reflex ), (owl:Nothing ⊔ &#160;∀ haSpecchio.Specchio ), (owl:Nothing ⊔ &#160;∀ haSensore.Sensore )" target="_blank">
<polygon fill="none" stroke="green" points="194,-642.8 194,-668.8 242,-668.8 242,-642.8 194,-642.8"/>
<text text-anchor="start" x="198.56" y="-651.2" font-family="Times,serif" font-size="14.00"> Label </text>
</a>
</g>
<polygon fill="none" stroke="green" points="193,-641.8 193,-669.8 243,-669.8 243,-641.8 193,-641.8"/>
</g>
<!-- 1 -->
<g id="node2" class="node">
<title>1</title>
<ellipse fill="none" stroke="black" cx="234" cy="-535" rx="27" ry="18"/>
<text text-anchor="start" x="227" y="-531.8" font-family="Times,serif" font-size="14.00">x</text>
<text text-anchor="start" x="234" y="-531.8" font-family="Times,serif" baseline-shift="sub" font-size="14.00">0</text>
<g id="a_node2_44"><a xlink:href="C:\Users\checc\Desktop\ProgettoIntelligentWeb\Progetto\graph\lazy\1.txt" xlink:title="Nodo 1: ∃haSpecchio.Specchio , &#160;∀ haSpecchio.¬Specchio , ((MacchinaFotografica ⊔ ¬Mirrorless )⊓ (MacchinaFotografica ⊔ ¬Reflex )⊓ (MacchinaFotografica ⊔ &#160;∀ haSensore.owl:Nothing )⊓ (MacchinaFotografica ⊔ &#160;∀ haSpecchio.owl:Nothing )⊓ (owl:Nothing ⊔ &#160;∀ haSensore.Sensore )⊓ (owl:Nothing ⊔ &#160;∀ haSpecchio.Specchio )⊓ (¬APSC ⊔ ¬FullFrame )⊓ (¬Mirrorless ⊔ ¬Reflex )), ¬Mirrorless , (MacchinaFotografica ⊔ ¬Mirrorless ), (MacchinaFotografica ⊔ &#160;∀ haSpecchio.owl:Nothing ), Mirrorless , (¬Mirrorless ⊔ ¬Reflex ), (¬APSC ⊔ ¬FullFrame ), (MacchinaFotografica ⊔ &#160;∀ haSensore.owl:Nothing ), (Mirrorless ⊓ ∃haSpecchio.Specchio ), (MacchinaFotografica ⊔ ¬Reflex ), (owl:Nothing ⊔ &#160;∀ haSpecchio.Specchio ), (owl:Nothing ⊔ &#160;∀ haSensore.Sensore )" target="_blank">
<polygon fill="none" stroke="green" points="158,-554 158,-580 206,-580 206,-554 158,-554"/>
<text text-anchor="start" x="162.56" y="-562.4" font-family="Times,serif" font-size="14.00"> Label </text>
</a>
</g>
<polygon fill="none" stroke="green" points="157,-553 157,-581 207,-581 207,-553 157,-553"/>
</g>
<!-- 0&#45;&gt;1 -->
<g id="edge2" class="edge">
<title>0&#45;&gt;1</title>
<path fill="none" stroke="black" d="M263.06,-606.06C257.88,-593.58 250.71,-576.28 244.78,-562"/>
<polygon fill="black" stroke="black" points="247.98,-560.58 240.92,-552.68 241.52,-563.26 247.98,-560.58"/>
<text text-anchor="middle" x="261.25" y="-575.2" font-family="Times,serif" font-size="14.00">⊔</text>
</g>
<!-- 3 -->
<g id="node4" class="node">
<title>3</title>
<ellipse fill="none" stroke="black" cx="314" cy="-535" rx="27" ry="18"/>
<text text-anchor="start" x="307" y="-531.8" font-family="Times,serif" font-size="14.00">x</text>
<text text-anchor="start" x="314" y="-531.8" font-family="Times,serif" baseline-shift="sub" font-size="14.00">0</text>
<g id="a_node4_45"><a xlink:href="C:\Users\checc\Desktop\ProgettoIntelligentWeb\Progetto\graph\lazy\3.txt" xlink:title="Nodo 3: ∃haSpecchio.Specchio , &#160;∀ haSpecchio.¬Specchio , ((MacchinaFotografica ⊔ ¬Mirrorless )⊓ (MacchinaFotografica ⊔ ¬Reflex )⊓ (MacchinaFotografica ⊔ &#160;∀ haSensore.owl:Nothing )⊓ (MacchinaFotografica ⊔ &#160;∀ haSpecchio.owl:Nothing )⊓ (owl:Nothing ⊔ &#160;∀ haSensore.Sensore )⊓ (owl:Nothing ⊔ &#160;∀ haSpecchio.Specchio )⊓ (¬APSC ⊔ ¬FullFrame )⊓ (¬Mirrorless ⊔ ¬Reflex )), (MacchinaFotografica ⊔ ¬Mirrorless ), (MacchinaFotografica ⊔ &#160;∀ haSpecchio.owl:Nothing ), Mirrorless , (¬Mirrorless ⊔ ¬Reflex ), (¬APSC ⊔ ¬FullFrame ), (MacchinaFotografica ⊔ &#160;∀ haSensore.owl:Nothing ), MacchinaFotografica , (Mirrorless ⊓ ∃haSpecchio.Specchio ), (MacchinaFotografica ⊔ ¬Reflex ), (owl:Nothing ⊔ &#160;∀ haSpecchio.Specchio ), (owl:Nothing ⊔ &#160;∀ haSensore.Sensore )" target="_blank">
<polygon fill="none" stroke="green" points="238,-490 238,-516 286,-516 286,-490 238,-490"/>
<text text-anchor="start" x="242.56" y="-498.4" font-family="Times,serif" font-size="14.00"> Label </text>
</a>
</g>
<polygon fill="none" stroke="green" points="237,-489 237,-517 287,-517 287,-489 237,-489"/>
</g>
<!-- 0&#45;&gt;3 -->
<g id="edge1" class="edge">
<title>0&#45;&gt;3</title>
<path fill="none" stroke="black" d="M278.28,-606.47C284.73,-593.74 293.8,-575.84 301.19,-561.26"/>
<polygon fill="black" stroke="black" points="304.36,-562.76 305.76,-552.25 298.12,-559.59 304.36,-562.76"/>
<text text-anchor="middle" x="301.25" y="-575.2" font-family="Times,serif" font-size="14.00">⊔</text>
</g>
<!-- 2 -->
<g id="node3" class="node">
<title>2</title>
<ellipse fill="none" stroke="black" cx="226" cy="-446.2" rx="42.88" ry="18"/>
<text text-anchor="start" x="203.06" y="-442" font-family="Times,serif" font-size="14.00">CLASH</text>
</g>
<!-- 1&#45;&gt;2 -->
<g id="edge3" class="edge">
<title>1&#45;&gt;2</title>
<path fill="none" stroke="red" d="M232.42,-516.85C231.3,-504.72 229.78,-488.22 228.5,-474.32"/>
<polygon fill="red" stroke="red" points="231.98,-473.95 227.58,-464.31 225.01,-474.59 231.98,-473.95"/>
</g>
<!-- 4 -->
<g id="node5" class="node">
<title>4</title>
<ellipse fill="none" stroke="black" cx="314" cy="-446.2" rx="27" ry="18"/>
<text text-anchor="start" x="307" y="-443" font-family="Times,serif" font-size="14.00">x</text>
<text text-anchor="start" x="314" y="-443" font-family="Times,serif" baseline-shift="sub" font-size="14.00">0</text>
<g id="a_node5_46"><a xlink:href="C:\Users\checc\Desktop\ProgettoIntelligentWeb\Progetto\graph\lazy\4.txt" xlink:title="Nodo 4: ∃haSpecchio.Specchio , &#160;∀ haSpecchio.¬Specchio , ((MacchinaFotografica ⊔ ¬Mirrorless )⊓ (MacchinaFotografica ⊔ ¬Reflex )⊓ (MacchinaFotografica ⊔ &#160;∀ haSensore.owl:Nothing )⊓ (MacchinaFotografica ⊔ &#160;∀ haSpecchio.owl:Nothing )⊓ (owl:Nothing ⊔ &#160;∀ haSensore.Sensore )⊓ (owl:Nothing ⊔ &#160;∀ haSpecchio.Specchio )⊓ (¬APSC ⊔ ¬FullFrame )⊓ (¬Mirrorless ⊔ ¬Reflex )), (MacchinaFotografica ⊔ ¬Mirrorless ), (MacchinaFotografica ⊔ &#160;∀ haSpecchio.owl:Nothing ), Mirrorless , ¬Reflex , (¬Mirrorless ⊔ ¬Reflex ), (¬APSC ⊔ ¬FullFrame ), (MacchinaFotografica ⊔ &#160;∀ haSensore.owl:Nothing ), ∃haSensore.Sensore , MacchinaFotografica , (Mirrorless ⊓ ∃haSpecchio.Specchio ), (MacchinaFotografica ⊔ ¬Reflex ), (owl:Nothing ⊔ &#160;∀ haSpecchio.Specchio ), (owl:Nothing ⊔ &#160;∀ haSensore.Sensore )" target="_blank">
<polygon fill="none" stroke="green" points="342,-401.2 342,-427.2 390,-427.2 390,-401.2 342,-401.2"/>
<text text-anchor="start" x="346.56" y="-409.6" font-family="Times,serif" font-size="14.00"> Label </text>
</a>
</g>
<polygon fill="none" stroke="green" points="341,-400.2 341,-428.2 391,-428.2 391,-400.2 341,-400.2"/>
</g>
<!-- 3&#45;&gt;4 -->
<g id="edge5" class="edge">
<title>3&#45;&gt;4</title>
<path fill="none" stroke="black" d="M314,-516.85C314,-504.72 314,-488.22 314,-474.32"/>
<polygon fill="black" stroke="black" points="317.5,-474.31 314,-464.31 310.5,-474.31 317.5,-474.31"/>
<text text-anchor="middle" x="319.25" y="-486.4" font-family="Times,serif" font-size="14.00">⊔</text>
</g>
<!-- 23 -->
<g id="node24" class="node">
<title>23</title>
<ellipse fill="none" stroke="black" cx="394" cy="-446.2" rx="27" ry="18"/>
<text text-anchor="start" x="387" y="-443" font-family="Times,serif" font-size="14.00">x</text>
<text text-anchor="start" x="394" y="-443" font-family="Times,serif" baseline-shift="sub" font-size="14.00">0</text>
<g id="a_node24_47"><a xlink:href="C:\Users\checc\Desktop\ProgettoIntelligentWeb\Progetto\graph\lazy\23.txt" xlink:title="Nodo 23: ∃haSpecchio.Specchio , &#160;∀ haSpecchio.¬Specchio , ((MacchinaFotografica ⊔ ¬Mirrorless )⊓ (MacchinaFotografica ⊔ ¬Reflex )⊓ (MacchinaFotografica ⊔ &#160;∀ haSensore.owl:Nothing )⊓ (MacchinaFotografica ⊔ &#160;∀ haSpecchio.owl:Nothing )⊓ (owl:Nothing ⊔ &#160;∀ haSensore.Sensore )⊓ (owl:Nothing ⊔ &#160;∀ haSpecchio.Specchio )⊓ (¬APSC ⊔ ¬FullFrame )⊓ (¬Mirrorless ⊔ ¬Reflex )), ¬Mirrorless , (MacchinaFotografica ⊔ ¬Mirrorless ), (MacchinaFotografica ⊔ &#160;∀ haSpecchio.owl:Nothing ), Mirrorless , (¬Mirrorless ⊔ ¬Reflex ), (¬APSC ⊔ ¬FullFrame ), (MacchinaFotografica ⊔ &#160;∀ haSensore.owl:Nothing ), ∃haSensore.Sensore , MacchinaFotografica , (Mirrorless ⊓ ∃haSpecchio.Specchio ), (MacchinaFotografica ⊔ ¬Reflex ), (owl:Nothing ⊔ &#160;∀ haSpecchio.Specchio ), (owl:Nothing ⊔ &#160;∀ haSensore.Sensore )" target="_blank">
<polygon fill="none" stroke="green" points="422,-465.2 422,-491.2 470,-491.2 470,-465.2 422,-465.2"/>
<text text-anchor="start" x="426.56" y="-473.6" font-family="Times,serif" font-size="14.00"> Label </text>
</a>
</g>
<polygon fill="none" stroke="green" points="421,-464.2 421,-492.2 471,-492.2 471,-464.2 421,-464.2"/>
</g>
<!-- 3&#45;&gt;23 -->
<g id="edge4" class="edge">
<title>3&#45;&gt;23</title>
<path fill="none" stroke="black" d="M327.57,-519.28C340.1,-505.68 358.89,-485.3 373.29,-469.67"/>
<polygon fill="black" stroke="black" points="376.16,-471.72 380.36,-462 371.01,-466.98 376.16,-471.72"/>
<text text-anchor="middle" x="367.25" y="-486.4" font-family="Times,serif" font-size="14.00">⊔</text>
</g>
<!-- 5 -->
<g id="node6" class="node">
<title>5</title>
<ellipse fill="none" stroke="black" cx="193" cy="-357.4" rx="27" ry="18"/>
<text text-anchor="start" x="186" y="-354.2" font-family="Times,serif" font-size="14.00">x</text>
<text text-anchor="start" x="193" y="-354.2" font-family="Times,serif" baseline-shift="sub" font-size="14.00">0</text>
<g id="a_node6_48"><a xlink:href="C:\Users\checc\Desktop\ProgettoIntelligentWeb\Progetto\graph\lazy\5.txt" xlink:title="Nodo 5: ∃haSpecchio.Specchio , &#160;∀ haSpecchio.¬Specchio , ((MacchinaFotografica ⊔ ¬Mirrorless )⊓ (MacchinaFotografica ⊔ ¬Reflex )⊓ (MacchinaFotografica ⊔ &#160;∀ haSensore.owl:Nothing )⊓ (MacchinaFotografica ⊔ &#160;∀ haSpecchio.owl:Nothing )⊓ (owl:Nothing ⊔ &#160;∀ haSensore.Sensore )⊓ (owl:Nothing ⊔ &#160;∀ haSpecchio.Specchio )⊓ (¬APSC ⊔ ¬FullFrame )⊓ (¬Mirrorless ⊔ ¬Reflex )), (MacchinaFotografica ⊔ ¬Mirrorless ), (MacchinaFotografica ⊔ &#160;∀ haSpecchio.owl:Nothing ), ¬FullFrame , Mirrorless , ¬Reflex , (¬Mirrorless ⊔ ¬Reflex ), (¬APSC ⊔ ¬FullFrame ), (MacchinaFotografica ⊔ &#160;∀ haSensore.owl:Nothing ), ∃haSensore.Sensore , MacchinaFotografica , (Mirrorless ⊓ ∃haSpecchio.Specchio ), (MacchinaFotografica ⊔ ¬Reflex ), (owl:Nothing ⊔ &#160;∀ haSpecchio.Specchio ), (owl:Nothing ⊔ &#160;∀ haSensore.Sensore )" target="_blank">
<polygon fill="none" stroke="green" points="117,-376.4 117,-402.4 165,-402.4 165,-376.4 117,-376.4"/>
<text text-anchor="start" x="121.56" y="-384.8" font-family="Times,serif" font-size="14.00"> Label </text>
</a>
</g>
<polygon fill="none" stroke="green" points="116,-375.4 116,-403.4 166,-403.4 166,-375.4 116,-375.4"/>
</g>
<!-- 4&#45;&gt;5 -->
<g id="edge7" class="edge">
<title>4&#45;&gt;5</title>
<path fill="none" stroke="black" d="M296.15,-432.39C275.86,-417.84 242.56,-393.95 219.3,-377.27"/>
<polygon fill="black" stroke="black" points="221.09,-374.25 210.93,-371.26 217.01,-379.93 221.09,-374.25"/>
<text text-anchor="middle" x="270.25" y="-397.6" font-family="Times,serif" font-size="14.00">⊔</text>
</g>
<!-- 14 -->
<g id="node15" class="node">
<title>14</title>
<ellipse fill="none" stroke="black" cx="314" cy="-357.4" rx="27" ry="18"/>
<text text-anchor="start" x="307" y="-354.2" font-family="Times,serif" font-size="14.00">x</text>
<text text-anchor="start" x="314" y="-354.2" font-family="Times,serif" baseline-shift="sub" font-size="14.00">0</text>
<g id="a_node15_49"><a xlink:href="C:\Users\checc\Desktop\ProgettoIntelligentWeb\Progetto\graph\lazy\14.txt" xlink:title="Nodo 14: ∃haSpecchio.Specchio , &#160;∀ haSpecchio.¬Specchio , ¬APSC , ((MacchinaFotografica ⊔ ¬Mirrorless )⊓ (MacchinaFotografica ⊔ ¬Reflex )⊓ (MacchinaFotografica ⊔ &#160;∀ haSensore.owl:Nothing )⊓ (MacchinaFotografica ⊔ &#160;∀ haSpecchio.owl:Nothing )⊓ (owl:Nothing ⊔ &#160;∀ haSensore.Sensore )⊓ (owl:Nothing ⊔ &#160;∀ haSpecchio.Specchio )⊓ (¬APSC ⊔ ¬FullFrame )⊓ (¬Mirrorless ⊔ ¬Reflex )), (MacchinaFotografica ⊔ ¬Mirrorless ), (MacchinaFotografica ⊔ &#160;∀ haSpecchio.owl:Nothing ), Mirrorless , ¬Reflex , (¬Mirrorless ⊔ ¬Reflex ), (¬APSC ⊔ ¬FullFrame ), (MacchinaFotografica ⊔ &#160;∀ haSensore.owl:Nothing ), ∃haSensore.Sensore , MacchinaFotografica , (Mirrorless ⊓ ∃haSpecchio.Specchio ), (MacchinaFotografica ⊔ ¬Reflex ), (owl:Nothing ⊔ &#160;∀ haSpecchio.Specchio ), (owl:Nothing ⊔ &#160;∀ haSensore.Sensore )" target="_blank">
<polygon fill="none" stroke="green" points="238,-340.4 238,-366.4 286,-366.4 286,-340.4 238,-340.4"/>
<text text-anchor="start" x="242.56" y="-348.8" font-family="Times,serif" font-size="14.00"> Label </text>
</a>
</g>
<polygon fill="none" stroke="green" points="237,-339.4 237,-367.4 287,-367.4 287,-339.4 237,-339.4"/>
</g>
<!-- 4&#45;&gt;14 -->
<g id="edge6" class="edge">
<title>4&#45;&gt;14</title>
<path fill="none" stroke="black" d="M314,-428.05C314,-415.92 314,-399.42 314,-385.52"/>
<polygon fill="black" stroke="black" points="317.5,-385.51 314,-375.51 310.5,-385.51 317.5,-385.51"/>
<text text-anchor="middle" x="319.25" y="-397.6" font-family="Times,serif" font-size="14.00">⊔</text>
</g>
<!-- 6 -->
<g id="node7" class="node">
<title>6</title>
<ellipse fill="none" stroke="black" cx="77" cy="-268.6" rx="27" ry="18"/>
<text text-anchor="start" x="70" y="-265.4" font-family="Times,serif" font-size="14.00">x</text>
<text text-anchor="start" x="77" y="-265.4" font-family="Times,serif" baseline-shift="sub" font-size="14.00">0</text>
<g id="a_node7_50"><a xlink:href="C:\Users\checc\Desktop\ProgettoIntelligentWeb\Progetto\graph\lazy\6.txt" xlink:title="Nodo 6: ∃haSpecchio.Specchio , &#160;∀ haSpecchio.¬Specchio , ((MacchinaFotografica ⊔ ¬Mirrorless )⊓ (MacchinaFotografica ⊔ ¬Reflex )⊓ (MacchinaFotografica ⊔ &#160;∀ haSensore.owl:Nothing )⊓ (MacchinaFotografica ⊔ &#160;∀ haSpecchio.owl:Nothing )⊓ (owl:Nothing ⊔ &#160;∀ haSensore.Sensore )⊓ (owl:Nothing ⊔ &#160;∀ haSpecchio.Specchio )⊓ (¬APSC ⊔ ¬FullFrame )⊓ (¬Mirrorless ⊔ ¬Reflex )), (MacchinaFotografica ⊔ ¬Mirrorless ), (MacchinaFotografica ⊔ &#160;∀ haSpecchio.owl:Nothing ), ¬FullFrame , Mirrorless , ¬Reflex , (¬Mirrorless ⊔ ¬Reflex ), (¬APSC ⊔ ¬FullFrame ), (MacchinaFotografica ⊔ &#160;∀ haSensore.owl:Nothing ), ∃haSensore.Sensore , owl:Nothing , MacchinaFotografica , (Mirrorless ⊓ ∃haSpecchio.Specchio ), (MacchinaFotografica ⊔ ¬Reflex ), (owl:Nothing ⊔ &#160;∀ haSpecchio.Specchio ), (owl:Nothing ⊔ &#160;∀ haSensore.Sensore )" target="_blank">
<polygon fill="none" stroke="green" points="1,-287.6 1,-313.6 49,-313.6 49,-287.6 1,-287.6"/>
<text text-anchor="start" x="5.56" y="-296" font-family="Times,serif" font-size="14.00"> Label </text>
</a>
</g>
<polygon fill="none" stroke="green" points="0,-286.6 0,-314.6 50,-314.6 50,-286.6 0,-286.6"/>
</g>
<!-- 5&#45;&gt;6 -->
<g id="edge9" class="edge">
<title>5&#45;&gt;6</title>
<path fill="none" stroke="black" d="M175.63,-343.41C156.33,-328.96 124.95,-305.48 102.78,-288.89"/>
<polygon fill="black" stroke="black" points="104.59,-285.87 94.49,-282.68 100.39,-291.48 104.59,-285.87"/>
<text text-anchor="middle" x="151.25" y="-308.8" font-family="Times,serif" font-size="14.00">⊔</text>
</g>
<!-- 8 -->
<g id="node9" class="node">
<title>8</title>
<ellipse fill="none" stroke="black" cx="193" cy="-268.6" rx="27" ry="18"/>
<text text-anchor="start" x="186" y="-265.4" font-family="Times,serif" font-size="14.00">x</text>
<text text-anchor="start" x="193" y="-265.4" font-family="Times,serif" baseline-shift="sub" font-size="14.00">0</text>
<g id="a_node9_51"><a xlink:href="C:\Users\checc\Desktop\ProgettoIntelligentWeb\Progetto\graph\lazy\8.txt" xlink:title="Nodo 8: ∃haSpecchio.Specchio , &#160;∀ haSpecchio.¬Specchio , ((MacchinaFotografica ⊔ ¬Mirrorless )⊓ (MacchinaFotografica ⊔ ¬Reflex )⊓ (MacchinaFotografica ⊔ &#160;∀ haSensore.owl:Nothing )⊓ (MacchinaFotografica ⊔ &#160;∀ haSpecchio.owl:Nothing )⊓ (owl:Nothing ⊔ &#160;∀ haSensore.Sensore )⊓ (owl:Nothing ⊔ &#160;∀ haSpecchio.Specchio )⊓ (¬APSC ⊔ ¬FullFrame )⊓ (¬Mirrorless ⊔ ¬Reflex )), (MacchinaFotografica ⊔ ¬Mirrorless ), (MacchinaFotografica ⊔ &#160;∀ haSpecchio.owl:Nothing ), ¬FullFrame , Mirrorless , ¬Reflex , (¬Mirrorless ⊔ ¬Reflex ), (¬APSC ⊔ ¬FullFrame ), (MacchinaFotografica ⊔ &#160;∀ haSensore.owl:Nothing ), ∃haSensore.Sensore , MacchinaFotografica , (Mirrorless ⊓ ∃haSpecchio.Specchio ), (MacchinaFotografica ⊔ ¬Reflex ), (owl:Nothing ⊔ &#160;∀ haSpecchio.Specchio ), &#160;∀ haSpecchio.Specchio , (owl:Nothing ⊔ &#160;∀ haSensore.Sensore )" target="_blank">
<polygon fill="none" stroke="green" points="117,-251.6 117,-277.6 165,-277.6 165,-251.6 117,-251.6"/>
<text text-anchor="start" x="121.56" y="-260" font-family="Times,serif" font-size="14.00"> Label </text>
</a>
</g>
<polygon fill="none" stroke="green" points="116,-250.6 116,-278.6 166,-278.6 166,-250.6 116,-250.6"/>
</g>
<!-- 5&#45;&gt;8 -->
<g id="edge8" class="edge">
<title>5&#45;&gt;8</title>
<path fill="none" stroke="black" d="M193,-339.25C193,-327.12 193,-310.62 193,-296.72"/>
<polygon fill="black" stroke="black" points="196.5,-296.71 193,-286.71 189.5,-296.71 196.5,-296.71"/>
<text text-anchor="middle" x="198.25" y="-308.8" font-family="Times,serif" font-size="14.00">⊔</text>
</g>
<!-- 7 -->
<g id="node8" class="node">
<title>7</title>
<ellipse fill="none" stroke="black" cx="66" cy="-179.8" rx="42.88" ry="18"/>
<text text-anchor="start" x="43.06" y="-175.6" font-family="Times,serif" font-size="14.00">CLASH</text>
</g>
<!-- 6&#45;&gt;7 -->
<g id="edge10" class="edge">
<title>6&#45;&gt;7</title>
<path fill="none" stroke="red" d="M74.83,-250.45C73.29,-238.32 71.2,-221.82 69.44,-207.92"/>
<polygon fill="red" stroke="red" points="72.9,-207.39 68.17,-197.91 65.95,-208.27 72.9,-207.39"/>
</g>
<!-- 9 -->
<g id="node10" class="node">
<title>9</title>
<ellipse fill="none" stroke="black" cx="154" cy="-179.8" rx="27" ry="18"/>
<text text-anchor="start" x="147" y="-176.6" font-family="Times,serif" font-size="14.00">x</text>
<text text-anchor="start" x="154" y="-176.6" font-family="Times,serif" baseline-shift="sub" font-size="14.00">0</text>
<g id="a_node10_52"><a xlink:href="C:\Users\checc\Desktop\ProgettoIntelligentWeb\Progetto\graph\lazy\9.txt" xlink:title="Nodo 9: ∃haSpecchio.Specchio , &#160;∀ haSpecchio.¬Specchio , ((MacchinaFotografica ⊔ ¬Mirrorless )⊓ (MacchinaFotografica ⊔ ¬Reflex )⊓ (MacchinaFotografica ⊔ &#160;∀ haSensore.owl:Nothing )⊓ (MacchinaFotografica ⊔ &#160;∀ haSpecchio.owl:Nothing )⊓ (owl:Nothing ⊔ &#160;∀ haSensore.Sensore )⊓ (owl:Nothing ⊔ &#160;∀ haSpecchio.Specchio )⊓ (¬APSC ⊔ ¬FullFrame )⊓ (¬Mirrorless ⊔ ¬Reflex )), (MacchinaFotografica ⊔ ¬Mirrorless ), (MacchinaFotografica ⊔ &#160;∀ haSpecchio.owl:Nothing ), ¬FullFrame , Mirrorless , ¬Reflex , (¬Mirrorless ⊔ ¬Reflex ), (¬APSC ⊔ ¬FullFrame ), (MacchinaFotografica ⊔ &#160;∀ haSensore.owl:Nothing ), ∃haSensore.Sensore , owl:Nothing , MacchinaFotografica , (Mirrorless ⊓ ∃haSpecchio.Specchio ), (MacchinaFotografica ⊔ ¬Reflex ), (owl:Nothing ⊔ &#160;∀ haSpecchio.Specchio ), &#160;∀ haSpecchio.Specchio , (owl:Nothing ⊔ &#160;∀ haSensore.Sensore )" target="_blank">
<polygon fill="none" stroke="green" points="78,-198.8 78,-224.8 126,-224.8 126,-198.8 78,-198.8"/>
<text text-anchor="start" x="82.56" y="-207.2" font-family="Times,serif" font-size="14.00"> Label </text>
</a>
</g>
<polygon fill="none" stroke="green" points="77,-197.8 77,-225.8 127,-225.8 127,-197.8 77,-197.8"/>
</g>
<!-- 8&#45;&gt;9 -->
<g id="edge12" class="edge">
<title>8&#45;&gt;9</title>
<path fill="none" stroke="black" d="M185.66,-251.27C180.04,-238.74 172.15,-221.2 165.66,-206.76"/>
<polygon fill="black" stroke="black" points="168.73,-205.04 161.44,-197.35 162.34,-207.9 168.73,-205.04"/>
<text text-anchor="middle" x="182.25" y="-220" font-family="Times,serif" font-size="14.00">⊔</text>
</g>
<!-- 11 -->
<g id="node12" class="node">
<title>11</title>
<ellipse fill="none" stroke="black" cx="226" cy="-179.8" rx="27" ry="18"/>
<text text-anchor="start" x="219" y="-176.6" font-family="Times,serif" font-size="14.00">x</text>
<text text-anchor="start" x="226" y="-176.6" font-family="Times,serif" baseline-shift="sub" font-size="14.00">0</text>
<g id="a_node12_53"><a xlink:href="C:\Users\checc\Desktop\ProgettoIntelligentWeb\Progetto\graph\lazy\11.txt" xlink:title="Nodo 11: ∃haSpecchio.Specchio , &#160;∀ haSpecchio.¬Specchio , ((MacchinaFotografica ⊔ ¬Mirrorless )⊓ (MacchinaFotografica ⊔ ¬Reflex )⊓ (MacchinaFotografica ⊔ &#160;∀ haSensore.owl:Nothing )⊓ (MacchinaFotografica ⊔ &#160;∀ haSpecchio.owl:Nothing )⊓ (owl:Nothing ⊔ &#160;∀ haSensore.Sensore )⊓ (owl:Nothing ⊔ &#160;∀ haSpecchio.Specchio )⊓ (¬APSC ⊔ ¬FullFrame )⊓ (¬Mirrorless ⊔ ¬Reflex )), (MacchinaFotografica ⊔ ¬Mirrorless ), (MacchinaFotografica ⊔ &#160;∀ haSpecchio.owl:Nothing ), ¬FullFrame , Mirrorless , ¬Reflex , (¬Mirrorless ⊔ ¬Reflex ), (¬APSC ⊔ ¬FullFrame ), (MacchinaFotografica ⊔ &#160;∀ haSensore.owl:Nothing ), ∃haSensore.Sensore , MacchinaFotografica , &#160;∀ haSensore.Sensore , (Mirrorless ⊓ ∃haSpecchio.Specchio ), (MacchinaFotografica ⊔ ¬Reflex ), (owl:Nothing ⊔ &#160;∀ haSpecchio.Specchio ), &#160;∀ haSpecchio.Specchio , (owl:Nothing ⊔ &#160;∀ haSensore.Sensore )" target="_blank">
<polygon fill="none" stroke="green" points="150,-134.8 150,-160.8 198,-160.8 198,-134.8 150,-134.8"/>
<text text-anchor="start" x="154.56" y="-143.2" font-family="Times,serif" font-size="14.00"> Label </text>
</a>
</g>
<polygon fill="none" stroke="green" points="149,-133.8 149,-161.8 199,-161.8 199,-133.8 149,-133.8"/>
</g>
<!-- 8&#45;&gt;11 -->
<g id="edge11" class="edge">
<title>8&#45;&gt;11</title>
<path fill="none" stroke="black" d="M199.36,-250.86C204.06,-238.5 210.56,-221.41 215.96,-207.21"/>
<polygon fill="black" stroke="black" points="219.37,-208.08 219.66,-197.48 212.83,-205.59 219.37,-208.08"/>
<text text-anchor="middle" x="218.25" y="-220" font-family="Times,serif" font-size="14.00">⊔</text>
</g>
<!-- 10 -->
<g id="node11" class="node">
<title>10</title>
<ellipse fill="none" stroke="black" cx="150" cy="-91" rx="42.88" ry="18"/>
<text text-anchor="start" x="127.06" y="-86.8" font-family="Times,serif" font-size="14.00">CLASH</text>
</g>
<!-- 9&#45;&gt;10 -->
<g id="edge13" class="edge">
<title>9&#45;&gt;10</title>
<path fill="none" stroke="red" d="M153.21,-161.65C152.65,-149.52 151.89,-133.02 151.25,-119.12"/>
<polygon fill="red" stroke="red" points="154.75,-118.94 150.79,-109.11 147.75,-119.26 154.75,-118.94"/>
</g>
<!-- 12 -->
<g id="node13" class="node">
<title>12</title>
<ellipse fill="none" stroke="black" cx="238" cy="-91" rx="27" ry="18"/>
<text text-anchor="start" x="231" y="-87.8" font-family="Times,serif" font-size="14.00">x</text>
<text text-anchor="start" x="238" y="-87.8" font-family="Times,serif" baseline-shift="sub" font-size="14.00">1</text>
<g id="a_node13_54"><a xlink:href="C:\Users\checc\Desktop\ProgettoIntelligentWeb\Progetto\graph\lazy\12.txt" xlink:title="Nodo 12: ((MacchinaFotografica ⊔ ¬Mirrorless )⊓ (MacchinaFotografica ⊔ ¬Reflex )⊓ (MacchinaFotografica ⊔ &#160;∀ haSensore.owl:Nothing )⊓ (MacchinaFotografica ⊔ &#160;∀ haSpecchio.owl:Nothing )⊓ (owl:Nothing ⊔ &#160;∀ haSensore.Sensore )⊓ (owl:Nothing ⊔ &#160;∀ haSpecchio.Specchio )⊓ (¬APSC ⊔ ¬FullFrame )⊓ (¬Mirrorless ⊔ ¬Reflex )), Specchio " target="_blank">
<polygon fill="none" stroke="green" points="162,-46 162,-72 210,-72 210,-46 162,-46"/>
<text text-anchor="start" x="166.56" y="-54.4" font-family="Times,serif" font-size="14.00"> Label </text>
</a>
</g>
<polygon fill="none" stroke="green" points="161,-45 161,-73 211,-73 211,-45 161,-45"/>
</g>
<!-- 11&#45;&gt;12 -->
<g id="edge14" class="edge">
<title>11&#45;&gt;12</title>
<path fill="none" stroke="black" d="M228.37,-161.65C230.05,-149.52 232.33,-133.02 234.25,-119.12"/>
<polygon fill="black" stroke="black" points="237.73,-119.5 235.63,-109.11 230.8,-118.54 237.73,-119.5"/>
<text text-anchor="middle" x="266.27" y="-131.2" font-family="Times,serif" font-size="14.00">haSpecchio</text>
</g>
<!-- 13 -->
<g id="node14" class="node">
<title>13</title>
<ellipse fill="none" stroke="black" cx="238" cy="-18" rx="42.88" ry="18"/>
<text text-anchor="start" x="215.06" y="-13.8" font-family="Times,serif" font-size="14.00">CLASH</text>
</g>
<!-- 12&#45;&gt;13 -->
<g id="edge15" class="edge">
<title>12&#45;&gt;13</title>
<path fill="none" stroke="red" d="M238,-72.81C238,-64.79 238,-55.05 238,-46.07"/>
<polygon fill="red" stroke="red" points="241.5,-46.03 238,-36.03 234.5,-46.03 241.5,-46.03"/>
</g>
<!-- 15 -->
<g id="node16" class="node">
<title>15</title>
<ellipse fill="none" stroke="black" cx="314" cy="-268.6" rx="27" ry="18"/>
<text text-anchor="start" x="307" y="-265.4" font-family="Times,serif" font-size="14.00">x</text>
<text text-anchor="start" x="314" y="-265.4" font-family="Times,serif" baseline-shift="sub" font-size="14.00">0</text>
<g id="a_node16_55"><a xlink:href="C:\Users\checc\Desktop\ProgettoIntelligentWeb\Progetto\graph\lazy\15.txt" xlink:title="Nodo 15: ∃haSpecchio.Specchio , &#160;∀ haSpecchio.¬Specchio , ¬APSC , ((MacchinaFotografica ⊔ ¬Mirrorless )⊓ (MacchinaFotografica ⊔ ¬Reflex )⊓ (MacchinaFotografica ⊔ &#160;∀ haSensore.owl:Nothing )⊓ (MacchinaFotografica ⊔ &#160;∀ haSpecchio.owl:Nothing )⊓ (owl:Nothing ⊔ &#160;∀ haSensore.Sensore )⊓ (owl:Nothing ⊔ &#160;∀ haSpecchio.Specchio )⊓ (¬APSC ⊔ ¬FullFrame )⊓ (¬Mirrorless ⊔ ¬Reflex )), (MacchinaFotografica ⊔ ¬Mirrorless ), (MacchinaFotografica ⊔ &#160;∀ haSpecchio.owl:Nothing ), Mirrorless , ¬Reflex , (¬Mirrorless ⊔ ¬Reflex ), (¬APSC ⊔ ¬FullFrame ), (MacchinaFotografica ⊔ &#160;∀ haSensore.owl:Nothing ), ∃haSensore.Sensore , owl:Nothing , MacchinaFotografica , (Mirrorless ⊓ ∃haSpecchio.Specchio ), (MacchinaFotografica ⊔ ¬Reflex ), (owl:Nothing ⊔ &#160;∀ haSpecchio.Specchio ), (owl:Nothing ⊔ &#160;∀ haSensore.Sensore )" target="_blank">
<polygon fill="none" stroke="green" points="238,-287.6 238,-313.6 286,-313.6 286,-287.6 238,-287.6"/>
<text text-anchor="start" x="242.56" y="-296" font-family="Times,serif" font-size="14.00"> Label </text>
</a>
</g>
<polygon fill="none" stroke="green" points="237,-286.6 237,-314.6 287,-314.6 287,-286.6 237,-286.6"/>
</g>
<!-- 14&#45;&gt;15 -->
<g id="edge17" class="edge">
<title>14&#45;&gt;15</title>
<path fill="none" stroke="black" d="M314,-339.25C314,-327.12 314,-310.62 314,-296.72"/>
<polygon fill="black" stroke="black" points="317.5,-296.71 314,-286.71 310.5,-296.71 317.5,-296.71"/>
<text text-anchor="middle" x="319.25" y="-308.8" font-family="Times,serif" font-size="14.00">⊔</text>
</g>
<!-- 17 -->
<g id="node18" class="node">
<title>17</title>
<ellipse fill="none" stroke="black" cx="402" cy="-268.6" rx="27" ry="18"/>
<text text-anchor="start" x="395" y="-265.4" font-family="Times,serif" font-size="14.00">x</text>
<text text-anchor="start" x="402" y="-265.4" font-family="Times,serif" baseline-shift="sub" font-size="14.00">0</text>
<g id="a_node18_56"><a xlink:href="C:\Users\checc\Desktop\ProgettoIntelligentWeb\Progetto\graph\lazy\17.txt" xlink:title="Nodo 17: ∃haSpecchio.Specchio , &#160;∀ haSpecchio.¬Specchio , ¬APSC , ((MacchinaFotografica ⊔ ¬Mirrorless )⊓ (MacchinaFotografica ⊔ ¬Reflex )⊓ (MacchinaFotografica ⊔ &#160;∀ haSensore.owl:Nothing )⊓ (MacchinaFotografica ⊔ &#160;∀ haSpecchio.owl:Nothing )⊓ (owl:Nothing ⊔ &#160;∀ haSensore.Sensore )⊓ (owl:Nothing ⊔ &#160;∀ haSpecchio.Specchio )⊓ (¬APSC ⊔ ¬FullFrame )⊓ (¬Mirrorless ⊔ ¬Reflex )), (MacchinaFotografica ⊔ ¬Mirrorless ), (MacchinaFotografica ⊔ &#160;∀ haSpecchio.owl:Nothing ), Mirrorless , ¬Reflex , (¬Mirrorless ⊔ ¬Reflex ), (¬APSC ⊔ ¬FullFrame ), (MacchinaFotografica ⊔ &#160;∀ haSensore.owl:Nothing ), ∃haSensore.Sensore , MacchinaFotografica , (Mirrorless ⊓ ∃haSpecchio.Specchio ), (MacchinaFotografica ⊔ ¬Reflex ), (owl:Nothing ⊔ &#160;∀ haSpecchio.Specchio ), &#160;∀ haSpecchio.Specchio , (owl:Nothing ⊔ &#160;∀ haSensore.Sensore )" target="_blank">
<polygon fill="none" stroke="green" points="326,-223.6 326,-249.6 374,-249.6 374,-223.6 326,-223.6"/>
<text text-anchor="start" x="330.56" y="-232" font-family="Times,serif" font-size="14.00"> Label </text>
</a>
</g>
<polygon fill="none" stroke="green" points="325,-222.6 325,-250.6 375,-250.6 375,-222.6 325,-222.6"/>
</g>
<!-- 14&#45;&gt;17 -->
<g id="edge16" class="edge">
<title>14&#45;&gt;17</title>
<path fill="none" stroke="black" d="M328.53,-342.07C342.54,-328.25 363.93,-307.15 380.03,-291.27"/>
<polygon fill="black" stroke="black" points="382.79,-293.47 387.45,-283.95 377.87,-288.49 382.79,-293.47"/>
<text text-anchor="middle" x="371.25" y="-308.8" font-family="Times,serif" font-size="14.00">⊔</text>
</g>
<!-- 16 -->
<g id="node17" class="node">
<title>16</title>
<ellipse fill="none" stroke="black" cx="314" cy="-179.8" rx="42.88" ry="18"/>
<text text-anchor="start" x="291.06" y="-175.6" font-family="Times,serif" font-size="14.00">CLASH</text>
</g>
<!-- 15&#45;&gt;16 -->
<g id="edge18" class="edge">
<title>15&#45;&gt;16</title>
<path fill="none" stroke="red" d="M314,-250.45C314,-238.32 314,-221.82 314,-207.92"/>
<polygon fill="red" stroke="red" points="317.5,-207.91 314,-197.91 310.5,-207.91 317.5,-207.91"/>
</g>
<!-- 18 -->
<g id="node19" class="node">
<title>18</title>
<ellipse fill="none" stroke="black" cx="402" cy="-179.8" rx="27" ry="18"/>
<text text-anchor="start" x="395" y="-176.6" font-family="Times,serif" font-size="14.00">x</text>
<text text-anchor="start" x="402" y="-176.6" font-family="Times,serif" baseline-shift="sub" font-size="14.00">0</text>
<g id="a_node19_57"><a xlink:href="C:\Users\checc\Desktop\ProgettoIntelligentWeb\Progetto\graph\lazy\18.txt" xlink:title="Nodo 18: ∃haSpecchio.Specchio , &#160;∀ haSpecchio.¬Specchio , ¬APSC , ((MacchinaFotografica ⊔ ¬Mirrorless )⊓ (MacchinaFotografica ⊔ ¬Reflex )⊓ (MacchinaFotografica ⊔ &#160;∀ haSensore.owl:Nothing )⊓ (MacchinaFotografica ⊔ &#160;∀ haSpecchio.owl:Nothing )⊓ (owl:Nothing ⊔ &#160;∀ haSensore.Sensore )⊓ (owl:Nothing ⊔ &#160;∀ haSpecchio.Specchio )⊓ (¬APSC ⊔ ¬FullFrame )⊓ (¬Mirrorless ⊔ ¬Reflex )), (MacchinaFotografica ⊔ ¬Mirrorless ), (MacchinaFotografica ⊔ &#160;∀ haSpecchio.owl:Nothing ), Mirrorless , ¬Reflex , (¬Mirrorless ⊔ ¬Reflex ), (¬APSC ⊔ ¬FullFrame ), (MacchinaFotografica ⊔ &#160;∀ haSensore.owl:Nothing ), ∃haSensore.Sensore , owl:Nothing , MacchinaFotografica , (Mirrorless ⊓ ∃haSpecchio.Specchio ), (MacchinaFotografica ⊔ ¬Reflex ), (owl:Nothing ⊔ &#160;∀ haSpecchio.Specchio ), &#160;∀ haSpecchio.Specchio , (owl:Nothing ⊔ &#160;∀ haSensore.Sensore )" target="_blank">
<polygon fill="none" stroke="green" points="326,-134.8 326,-160.8 374,-160.8 374,-134.8 326,-134.8"/>
<text text-anchor="start" x="330.56" y="-143.2" font-family="Times,serif" font-size="14.00"> Label </text>
</a>
</g>
<polygon fill="none" stroke="green" points="325,-133.8 325,-161.8 375,-161.8 375,-133.8 325,-133.8"/>
</g>
<!-- 17&#45;&gt;18 -->
<g id="edge20" class="edge">
<title>17&#45;&gt;18</title>
<path fill="none" stroke="black" d="M402,-250.45C402,-238.32 402,-221.82 402,-207.92"/>
<polygon fill="black" stroke="black" points="405.5,-207.91 402,-197.91 398.5,-207.91 405.5,-207.91"/>
<text text-anchor="middle" x="407.25" y="-220" font-family="Times,serif" font-size="14.00">⊔</text>
</g>
<!-- 20 -->
<g id="node21" class="node">
<title>20</title>
<ellipse fill="none" stroke="black" cx="478" cy="-179.8" rx="27" ry="18"/>
<text text-anchor="start" x="471" y="-176.6" font-family="Times,serif" font-size="14.00">x</text>
<text text-anchor="start" x="478" y="-176.6" font-family="Times,serif" baseline-shift="sub" font-size="14.00">0</text>
<g id="a_node21_58"><a xlink:href="C:\Users\checc\Desktop\ProgettoIntelligentWeb\Progetto\graph\lazy\20.txt" xlink:title="Nodo 20: ∃haSpecchio.Specchio , &#160;∀ haSpecchio.¬Specchio , ¬APSC , ((MacchinaFotografica ⊔ ¬Mirrorless )⊓ (MacchinaFotografica ⊔ ¬Reflex )⊓ (MacchinaFotografica ⊔ &#160;∀ haSensore.owl:Nothing )⊓ (MacchinaFotografica ⊔ &#160;∀ haSpecchio.owl:Nothing )⊓ (owl:Nothing ⊔ &#160;∀ haSensore.Sensore )⊓ (owl:Nothing ⊔ &#160;∀ haSpecchio.Specchio )⊓ (¬APSC ⊔ ¬FullFrame )⊓ (¬Mirrorless ⊔ ¬Reflex )), (MacchinaFotografica ⊔ ¬Mirrorless ), (MacchinaFotografica ⊔ &#160;∀ haSpecchio.owl:Nothing ), Mirrorless , ¬Reflex , (¬Mirrorless ⊔ ¬Reflex ), (¬APSC ⊔ ¬FullFrame ), (MacchinaFotografica ⊔ &#160;∀ haSensore.owl:Nothing ), ∃haSensore.Sensore , MacchinaFotografica , &#160;∀ haSensore.Sensore , (Mirrorless ⊓ ∃haSpecchio.Specchio ), (MacchinaFotografica ⊔ ¬Reflex ), (owl:Nothing ⊔ &#160;∀ haSpecchio.Specchio ), &#160;∀ haSpecchio.Specchio , (owl:Nothing ⊔ &#160;∀ haSensore.Sensore )" target="_blank">
<polygon fill="none" stroke="green" points="402,-134.8 402,-160.8 450,-160.8 450,-134.8 402,-134.8"/>
<text text-anchor="start" x="406.56" y="-143.2" font-family="Times,serif" font-size="14.00"> Label </text>
</a>
</g>
<polygon fill="none" stroke="green" points="401,-133.8 401,-161.8 451,-161.8 451,-133.8 401,-133.8"/>
</g>
<!-- 17&#45;&gt;20 -->
<g id="edge19" class="edge">
<title>17&#45;&gt;20</title>
<path fill="none" stroke="black" d="M415.24,-252.48C427.12,-238.91 444.71,-218.82 458.25,-203.35"/>
<polygon fill="black" stroke="black" points="460.96,-205.58 464.91,-195.75 455.69,-200.96 460.96,-205.58"/>
<text text-anchor="middle" x="451.25" y="-220" font-family="Times,serif" font-size="14.00">⊔</text>
</g>
<!-- 19 -->
<g id="node20" class="node">
<title>19</title>
<ellipse fill="none" stroke="black" cx="400" cy="-91" rx="42.88" ry="18"/>
<text text-anchor="start" x="377.06" y="-86.8" font-family="Times,serif" font-size="14.00">CLASH</text>
</g>
<!-- 18&#45;&gt;19 -->
<g id="edge21" class="edge">
<title>18&#45;&gt;19</title>
<path fill="none" stroke="red" d="M401.6,-161.65C401.33,-149.52 400.95,-133.02 400.62,-119.12"/>
<polygon fill="red" stroke="red" points="404.12,-119.03 400.39,-109.11 397.13,-119.19 404.12,-119.03"/>
</g>
<!-- 21 -->
<g id="node22" class="node">
<title>21</title>
<ellipse fill="none" stroke="black" cx="488" cy="-91" rx="27" ry="18"/>
<text text-anchor="start" x="481" y="-87.8" font-family="Times,serif" font-size="14.00">x</text>
<text text-anchor="start" x="488" y="-87.8" font-family="Times,serif" baseline-shift="sub" font-size="14.00">2</text>
<g id="a_node22_59"><a xlink:href="C:\Users\checc\Desktop\ProgettoIntelligentWeb\Progetto\graph\lazy\21.txt" xlink:title="Nodo 21: ((MacchinaFotografica ⊔ ¬Mirrorless )⊓ (MacchinaFotografica ⊔ ¬Reflex )⊓ (MacchinaFotografica ⊔ &#160;∀ haSensore.owl:Nothing )⊓ (MacchinaFotografica ⊔ &#160;∀ haSpecchio.owl:Nothing )⊓ (owl:Nothing ⊔ &#160;∀ haSensore.Sensore )⊓ (owl:Nothing ⊔ &#160;∀ haSpecchio.Specchio )⊓ (¬APSC ⊔ ¬FullFrame )⊓ (¬Mirrorless ⊔ ¬Reflex )), Specchio " target="_blank">
<polygon fill="none" stroke="green" points="412,-46 412,-72 460,-72 460,-46 412,-46"/>
<text text-anchor="start" x="416.56" y="-54.4" font-family="Times,serif" font-size="14.00"> Label </text>
</a>
</g>
<polygon fill="none" stroke="green" points="411,-45 411,-73 461,-73 461,-45 411,-45"/>
</g>
<!-- 20&#45;&gt;21 -->
<g id="edge22" class="edge">
<title>20&#45;&gt;21</title>
<path fill="none" stroke="black" d="M479.98,-161.65C481.37,-149.52 483.27,-133.02 484.88,-119.12"/>
<polygon fill="black" stroke="black" points="488.36,-119.45 486.03,-109.11 481.41,-118.65 488.36,-119.45"/>
<text text-anchor="middle" x="515.27" y="-131.2" font-family="Times,serif" font-size="14.00">haSpecchio</text>
</g>
<!-- 22 -->
<g id="node23" class="node">
<title>22</title>
<ellipse fill="none" stroke="black" cx="488" cy="-18" rx="42.88" ry="18"/>
<text text-anchor="start" x="465.06" y="-13.8" font-family="Times,serif" font-size="14.00">CLASH</text>
</g>
<!-- 21&#45;&gt;22 -->
<g id="edge23" class="edge">
<title>21&#45;&gt;22</title>
<path fill="none" stroke="red" d="M488,-72.81C488,-64.79 488,-55.05 488,-46.07"/>
<polygon fill="red" stroke="red" points="491.5,-46.03 488,-36.03 484.5,-46.03 491.5,-46.03"/>
</g>
<!-- 24 -->
<g id="node25" class="node">
<title>24</title>
<ellipse fill="none" stroke="black" cx="402" cy="-357.4" rx="42.88" ry="18"/>
<text text-anchor="start" x="379.06" y="-353.2" font-family="Times,serif" font-size="14.00">CLASH</text>
</g>
<!-- 23&#45;&gt;24 -->
<g id="edge24" class="edge">
<title>23&#45;&gt;24</title>
<path fill="none" stroke="red" d="M395.58,-428.05C396.7,-415.92 398.22,-399.42 399.5,-385.52"/>
<polygon fill="red" stroke="red" points="402.99,-385.79 400.42,-375.51 396.02,-385.15 402.99,-385.79"/>
</g>
</g>
</svg>
