<svg width="329px" height="182px"
 viewBox="0.00 0.00 328.51 181.60" xmlns="http://www.w3.org/2000/svg" xmlns:xlink="http://www.w3.org/1999/xlink">
<g id="graph0" class="graph" transform="scale(1.0 1.0) rotate(0.0) translate(4.0 177.6)">
<title>tableaux</title>
<polygon fill="white" stroke="transparent" points="-4,4 -4,-177.6 324.51,-177.6 324.51,4 -4,4"/>
<!-- 19 -->
<g id="node1" class="node">
<title>19</title>
<ellipse fill="none" stroke="black" cx="193" cy="-106.8" rx="27" ry="18"/>
<text text-anchor="middle" x="193" y="-102.6" font-family="Times,serif" font-size="14.00">x0</text>
<text text-anchor="middle" x="121.09" y="-129" font-family="Times,serif" font-size="14.00">∃R.(A ⊓ ¬B ); </text>
</g>
<!-- 20 -->
<g id="node2" class="node">
<title>20</title>
<ellipse fill="none" stroke="black" cx="136" cy="-18" rx="27" ry="18"/>
<text text-anchor="start" x="125.5" y="-13.8" font-family="Times,serif" font-size="14.00">x01</text>
<polygon fill="none" stroke="black" points="3.5,-39 3.5,-61 106.5,-61 106.5,-39 3.5,-39"/>
<text text-anchor="start" x="6.4" y="-45.4" font-family="Times,serif" font-size="14.00">∃R.(A ⊓ ¬B ); ; </text>
<polygon fill="none" stroke="black" points="0,-36 0,-64 109,-64 109,-36 0,-36"/>
</g>
<!-- 19&#45;&gt;20 -->
<g id="edge2" class="edge">
<title>19&#45;&gt;20</title>
<path fill="none" stroke="black" d="M182.55,-89.88C174.03,-76.91 161.86,-58.38 152.1,-43.52"/>
<polygon fill="black" stroke="black" points="154.8,-41.26 146.39,-34.82 148.95,-45.1 154.8,-41.26"/>
<text text-anchor="middle" x="174.67" y="-58.2" font-family="Times,serif" font-size="14.00">R</text>
</g>
<!-- 21 -->
<g id="node3" class="node">
<title>21</title>
<ellipse fill="none" stroke="black" cx="251" cy="-18" rx="69.52" ry="18"/>
<text text-anchor="start" x="208.62" y="-13.8" font-family="Times,serif" font-size="14.00">CLASH&#45;FREE</text>
<polygon fill="none" stroke="black" points="172.49,-39 172.49,-45 178.49,-45 178.49,-39 172.49,-39"/>
<polygon fill="none" stroke="black" points="169.49,-36 169.49,-48 181.49,-48 181.49,-36 169.49,-36"/>
</g>
<!-- 19&#45;&gt;21 -->
<g id="edge1" class="edge">
<title>19&#45;&gt;21</title>
<path fill="none" stroke="black" d="M203.64,-89.88C212.09,-77.23 224.07,-59.3 233.87,-44.64"/>
<polygon fill="black" stroke="black" points="236.99,-46.27 239.64,-36.01 231.17,-42.38 236.99,-46.27"/>
</g>
</g>
</svg>
