<svg width="167px" height="255px"
 viewBox="0.00 0.00 167.11 254.60" xmlns="http://www.w3.org/2000/svg" xmlns:xlink="http://www.w3.org/1999/xlink">
<g id="graph0" class="graph" transform="scale(1.0 1.0) rotate(0.0) translate(4.0 250.6)">
<title>tableaux</title>
<polygon fill="white" stroke="transparent" points="-4,4 -4,-250.6 163.11,-250.6 163.11,4 -4,4"/>
<!-- 19 -->
<g id="node1" class="node">
<title>19</title>
<ellipse fill="none" stroke="black" cx="116.42" cy="-179.8" rx="27" ry="18"/>
<text text-anchor="middle" x="116.42" y="-175.6" font-family="Times,serif" font-size="14.00">x0</text>
<text text-anchor="middle" x="44.71" y="-202" font-family="Times,serif" font-size="14.00">∃R.(A ⊓ ¬B ), </text>
</g>
<!-- 20 -->
<g id="node2" class="node">
<title>20</title>
<ellipse fill="none" stroke="black" cx="116.42" cy="-91" rx="27" ry="18"/>
<text text-anchor="middle" x="116.42" y="-86.8" font-family="Times,serif" font-size="14.00">x01</text>
</g>
<!-- 19&#45;&gt;20 -->
<g id="edge1" class="edge">
<title>19&#45;&gt;20</title>
<path fill="none" stroke="black" d="M116.42,-161.65C116.42,-149.52 116.42,-133.02 116.42,-119.12"/>
<polygon fill="black" stroke="black" points="119.92,-119.11 116.42,-109.11 112.92,-119.11 119.92,-119.11"/>
<text text-anchor="middle" x="121.09" y="-131.2" font-family="Times,serif" font-size="14.00">R</text>
</g>
<!-- 21 -->
<g id="node3" class="node">
<title>21</title>
<ellipse fill="none" stroke="black" cx="116.42" cy="-18" rx="42.88" ry="18"/>
<text text-anchor="middle" x="116.42" y="-13.8" font-family="Times,serif" font-size="14.00">CLASH</text>
</g>
<!-- 20&#45;&gt;21 -->
<g id="edge2" class="edge">
<title>20&#45;&gt;21</title>
<path fill="none" stroke="black" d="M116.42,-72.81C116.42,-64.79 116.42,-55.05 116.42,-46.07"/>
<polygon fill="black" stroke="black" points="119.92,-46.03 116.42,-36.03 112.92,-46.03 119.92,-46.03"/>
</g>
</g>
</svg>
