<svg width="194px" height="255px"
 viewBox="0.00 0.00 194.32 254.60" xmlns="http://www.w3.org/2000/svg" xmlns:xlink="http://www.w3.org/1999/xlink">
<g id="graph0" class="graph" transform="scale(1.0 1.0) rotate(0.0) translate(4.0 250.6)">
<title>tableaux</title>
<polygon fill="white" stroke="transparent" points="-4,4 -4,-250.6 190.32,-250.6 190.32,4 -4,4"/>
<!-- 19 -->
<g id="node1" class="node">
<title>19</title>
<ellipse fill="none" stroke="black" cx="116.81" cy="-179.8" rx="27" ry="18"/>
<text text-anchor="middle" x="116.81" y="-175.6" font-family="Times,serif" font-size="14.00">x0</text>
<text text-anchor="middle" x="44.91" y="-202" font-family="Times,serif" font-size="14.00">∃R.(A ⊓ ¬B ); </text>
</g>
<!-- 20 -->
<g id="node2" class="node">
<title>20</title>
<ellipse fill="none" stroke="black" cx="116.81" cy="-91" rx="27" ry="18"/>
<text text-anchor="middle" x="116.81" y="-86.8" font-family="Times,serif" font-size="14.00">x01</text>
</g>
<!-- 19&#45;&gt;20 -->
<g id="edge1" class="edge">
<title>19&#45;&gt;20</title>
<path fill="none" stroke="black" d="M116.81,-161.65C116.81,-149.52 116.81,-133.02 116.81,-119.12"/>
<polygon fill="black" stroke="black" points="120.31,-119.11 116.81,-109.11 113.31,-119.11 120.31,-119.11"/>
<text text-anchor="middle" x="132.88" y="-131.2" font-family="Times,serif" font-size="14.00">&lt;#R&gt;</text>
</g>
<!-- 21 -->
<g id="node3" class="node">
<title>21</title>
<ellipse fill="none" stroke="black" cx="116.81" cy="-18" rx="69.52" ry="18"/>
<text text-anchor="middle" x="116.81" y="-13.8" font-family="Times,serif" font-size="14.00">CLASH&#45;FREE</text>
</g>
<!-- 20&#45;&gt;21 -->
<g id="edge2" class="edge">
<title>20&#45;&gt;21</title>
<path fill="none" stroke="black" d="M116.81,-72.81C116.81,-64.79 116.81,-55.05 116.81,-46.07"/>
<polygon fill="black" stroke="black" points="120.31,-46.03 116.81,-36.03 113.31,-46.03 120.31,-46.03"/>
</g>
</g>
</svg>
