<svg width="322px" height="1033px"
 viewBox="0.00 0.00 322.00 1033.00" xmlns="http://www.w3.org/2000/svg" xmlns:xlink="http://www.w3.org/1999/xlink">
<g id="graph0" class="graph" transform="scale(1.0 1.0) rotate(0.0) translate(4.0 1029.0)">
<title>tableaux</title>
<polygon fill="white" stroke="transparent" points="-4,4 -4,-1029 318,-1029 318,4 -4,4"/>
<!-- 17 -->
<g id="node1" class="node">
<title>17</title>
<ellipse fill="none" stroke="black" cx="113" cy="-979" rx="27" ry="18"/>
<text text-anchor="start" x="106" y="-975.8" font-family="Times,serif" font-size="14.00">x</text>
<text text-anchor="start" x="113" y="-975.8" font-family="Times,serif" baseline-shift="sub" font-size="14.00">0</text>
<g id="a_node1_14"><a xlink:href="C:\Users\checc\Desktop\ProgettoIntelligentWeb\Progetto\graph\lazy\17.txt" xlink:title="Clicca per visualizzare Lx" target="_blank">
<polygon fill="none" stroke="green" points="37,-998 37,-1024 85,-1024 85,-998 37,-998"/>
<text text-anchor="start" x="41.56" y="-1006.4" font-family="Times,serif" font-size="14.00"> Label </text>
</a>
</g>
<polygon fill="none" stroke="green" points="36,-997 36,-1025 86,-1025 86,-997 36,-997"/>
</g>
<!-- 18 -->
<g id="node2" class="node">
<title>18</title>
<ellipse fill="none" stroke="black" cx="113" cy="-890.2" rx="27" ry="18"/>
<text text-anchor="start" x="106" y="-887" font-family="Times,serif" font-size="14.00">x</text>
<text text-anchor="start" x="113" y="-887" font-family="Times,serif" baseline-shift="sub" font-size="14.00">0</text>
<g id="a_node2_15"><a xlink:href="C:\Users\checc\Desktop\ProgettoIntelligentWeb\Progetto\graph\lazy\18.txt" xlink:title="Clicca per visualizzare Lx" target="_blank">
<polygon fill="none" stroke="green" points="37,-909.2 37,-935.2 85,-935.2 85,-909.2 37,-909.2"/>
<text text-anchor="start" x="41.56" y="-917.6" font-family="Times,serif" font-size="14.00"> Label </text>
</a>
</g>
<polygon fill="none" stroke="green" points="36,-908.2 36,-936.2 86,-936.2 86,-908.2 36,-908.2"/>
</g>
<!-- 17&#45;&gt;18 -->
<g id="edge1" class="edge">
<title>17&#45;&gt;18</title>
<path fill="none" stroke="black" d="M113,-960.85C113,-948.72 113,-932.22 113,-918.32"/>
<polygon fill="black" stroke="black" points="116.5,-918.31 113,-908.31 109.5,-918.31 116.5,-918.31"/>
<text text-anchor="middle" x="130.5" y="-930.4" font-family="Times,serif" font-size="14.00">Union</text>
</g>
<!-- 19 -->
<g id="node3" class="node">
<title>19</title>
<ellipse fill="none" stroke="black" cx="113" cy="-801.4" rx="27" ry="18"/>
<text text-anchor="start" x="106" y="-798.2" font-family="Times,serif" font-size="14.00">x</text>
<text text-anchor="start" x="113" y="-798.2" font-family="Times,serif" baseline-shift="sub" font-size="14.00">0</text>
<g id="a_node3_16"><a xlink:href="C:\Users\checc\Desktop\ProgettoIntelligentWeb\Progetto\graph\lazy\19.txt" xlink:title="Clicca per visualizzare Lx" target="_blank">
<polygon fill="none" stroke="green" points="37,-820.4 37,-846.4 85,-846.4 85,-820.4 37,-820.4"/>
<text text-anchor="start" x="41.56" y="-828.8" font-family="Times,serif" font-size="14.00"> Label </text>
</a>
</g>
<polygon fill="none" stroke="green" points="36,-819.4 36,-847.4 86,-847.4 86,-819.4 36,-819.4"/>
</g>
<!-- 18&#45;&gt;19 -->
<g id="edge2" class="edge">
<title>18&#45;&gt;19</title>
<path fill="none" stroke="black" d="M113,-872.05C113,-859.92 113,-843.42 113,-829.52"/>
<polygon fill="black" stroke="black" points="116.5,-829.51 113,-819.51 109.5,-829.51 116.5,-829.51"/>
<text text-anchor="middle" x="130.5" y="-841.6" font-family="Times,serif" font-size="14.00">Union</text>
</g>
<!-- 20 -->
<g id="node4" class="node">
<title>20</title>
<ellipse fill="none" stroke="black" cx="77" cy="-712.6" rx="27" ry="18"/>
<text text-anchor="start" x="70" y="-709.4" font-family="Times,serif" font-size="14.00">x</text>
<text text-anchor="start" x="77" y="-709.4" font-family="Times,serif" baseline-shift="sub" font-size="14.00">0</text>
<g id="a_node4_17"><a xlink:href="C:\Users\checc\Desktop\ProgettoIntelligentWeb\Progetto\graph\lazy\20.txt" xlink:title="Clicca per visualizzare Lx" target="_blank">
<polygon fill="none" stroke="green" points="1,-731.6 1,-757.6 49,-757.6 49,-731.6 1,-731.6"/>
<text text-anchor="start" x="5.56" y="-740" font-family="Times,serif" font-size="14.00"> Label </text>
</a>
</g>
<polygon fill="none" stroke="green" points="0,-730.6 0,-758.6 50,-758.6 50,-730.6 0,-730.6"/>
</g>
<!-- 19&#45;&gt;20 -->
<g id="edge4" class="edge">
<title>19&#45;&gt;20</title>
<path fill="none" stroke="black" d="M100.08,-785.21C95.66,-779.34 91.07,-772.37 88,-765.4 84.65,-757.79 82.3,-749.1 80.65,-741.04"/>
<polygon fill="black" stroke="black" points="84.06,-740.18 78.87,-730.94 77.16,-741.4 84.06,-740.18"/>
<text text-anchor="middle" x="106.5" y="-752.8" font-family="Times,serif" font-size="14.00">Union</text>
</g>
<!-- 22 -->
<g id="node6" class="node">
<title>22</title>
<ellipse fill="none" stroke="black" cx="153" cy="-712.6" rx="27" ry="18"/>
<text text-anchor="start" x="146" y="-709.4" font-family="Times,serif" font-size="14.00">x</text>
<text text-anchor="start" x="153" y="-709.4" font-family="Times,serif" baseline-shift="sub" font-size="14.00">0</text>
<g id="a_node6_18"><a xlink:href="C:\Users\checc\Desktop\ProgettoIntelligentWeb\Progetto\graph\lazy\22.txt" xlink:title="Clicca per visualizzare Lx" target="_blank">
<polygon fill="none" stroke="green" points="77,-667.6 77,-693.6 125,-693.6 125,-667.6 77,-667.6"/>
<text text-anchor="start" x="81.56" y="-676" font-family="Times,serif" font-size="14.00"> Label </text>
</a>
</g>
<polygon fill="none" stroke="green" points="76,-666.6 76,-694.6 126,-694.6 126,-666.6 76,-666.6"/>
</g>
<!-- 19&#45;&gt;22 -->
<g id="edge3" class="edge">
<title>19&#45;&gt;22</title>
<path fill="none" stroke="black" d="M120.52,-784.07C126.3,-771.54 134.38,-754 141.04,-739.56"/>
<polygon fill="black" stroke="black" points="144.37,-740.7 145.37,-730.15 138.01,-737.77 144.37,-740.7"/>
<text text-anchor="middle" x="154.5" y="-752.8" font-family="Times,serif" font-size="14.00">Union</text>
</g>
<!-- 21 -->
<g id="node5" class="node">
<title>21</title>
<ellipse fill="none" stroke="black" cx="69" cy="-623.8" rx="42.88" ry="18"/>
<text text-anchor="start" x="46.06" y="-619.6" font-family="Times,serif" font-size="14.00">CLASH</text>
</g>
<!-- 20&#45;&gt;21 -->
<g id="edge5" class="edge">
<title>20&#45;&gt;21</title>
<path fill="none" stroke="red" d="M75.42,-694.45C74.3,-682.32 72.78,-665.82 71.5,-651.92"/>
<polygon fill="red" stroke="red" points="74.98,-651.55 70.58,-641.91 68.01,-652.19 74.98,-651.55"/>
</g>
<!-- 23 -->
<g id="node7" class="node">
<title>23</title>
<ellipse fill="none" stroke="black" cx="157" cy="-623.8" rx="27" ry="18"/>
<text text-anchor="start" x="150" y="-620.6" font-family="Times,serif" font-size="14.00">x</text>
<text text-anchor="start" x="157" y="-620.6" font-family="Times,serif" baseline-shift="sub" font-size="14.00">0</text>
<g id="a_node7_19"><a xlink:href="C:\Users\checc\Desktop\ProgettoIntelligentWeb\Progetto\graph\lazy\23.txt" xlink:title="Clicca per visualizzare Lx" target="_blank">
<polygon fill="none" stroke="green" points="81,-578.8 81,-604.8 129,-604.8 129,-578.8 81,-578.8"/>
<text text-anchor="start" x="85.56" y="-587.2" font-family="Times,serif" font-size="14.00"> Label </text>
</a>
</g>
<polygon fill="none" stroke="green" points="80,-577.8 80,-605.8 130,-605.8 130,-577.8 80,-577.8"/>
</g>
<!-- 22&#45;&gt;23 -->
<g id="edge6" class="edge">
<title>22&#45;&gt;23</title>
<path fill="none" stroke="black" d="M153.79,-694.45C154.35,-682.32 155.11,-665.82 155.75,-651.92"/>
<polygon fill="black" stroke="black" points="159.25,-652.06 156.21,-641.91 152.25,-651.74 159.25,-652.06"/>
<text text-anchor="middle" x="173.5" y="-664" font-family="Times,serif" font-size="14.00">Union</text>
</g>
<!-- 24 -->
<g id="node8" class="node">
<title>24</title>
<ellipse fill="none" stroke="black" cx="157" cy="-535" rx="27" ry="18"/>
<text text-anchor="start" x="146.5" y="-531.8" font-family="Times,serif" font-size="14.00">x</text>
<text text-anchor="start" x="153.5" y="-531.8" font-family="Times,serif" baseline-shift="sub" font-size="14.00">01</text>
<g id="a_node8_20"><a xlink:href="C:\Users\checc\Desktop\ProgettoIntelligentWeb\Progetto\graph\lazy\24.txt" xlink:title="Clicca per visualizzare Lx" target="_blank">
<polygon fill="none" stroke="green" points="81,-518 81,-544 129,-544 129,-518 81,-518"/>
<text text-anchor="start" x="85.56" y="-526.4" font-family="Times,serif" font-size="14.00"> Label </text>
</a>
</g>
<polygon fill="none" stroke="green" points="80,-517 80,-545 130,-545 130,-517 80,-517"/>
</g>
<!-- 23&#45;&gt;24 -->
<g id="edge7" class="edge">
<title>23&#45;&gt;24</title>
<path fill="none" stroke="black" d="M157,-605.65C157,-593.52 157,-577.02 157,-563.12"/>
<polygon fill="black" stroke="black" points="160.5,-563.11 157,-553.11 153.5,-563.11 160.5,-563.11"/>
<text text-anchor="middle" x="161.67" y="-575.2" font-family="Times,serif" font-size="14.00">R</text>
</g>
<!-- 25 -->
<g id="node9" class="node">
<title>25</title>
<ellipse fill="none" stroke="black" cx="157" cy="-446.2" rx="27" ry="18"/>
<text text-anchor="start" x="146.5" y="-443" font-family="Times,serif" font-size="14.00">x</text>
<text text-anchor="start" x="153.5" y="-443" font-family="Times,serif" baseline-shift="sub" font-size="14.00">01</text>
<g id="a_node9_21"><a xlink:href="C:\Users\checc\Desktop\ProgettoIntelligentWeb\Progetto\graph\lazy\25.txt" xlink:title="Clicca per visualizzare Lx" target="_blank">
<polygon fill="none" stroke="green" points="81,-465.2 81,-491.2 129,-491.2 129,-465.2 81,-465.2"/>
<text text-anchor="start" x="85.56" y="-473.6" font-family="Times,serif" font-size="14.00"> Label </text>
</a>
</g>
<polygon fill="none" stroke="green" points="80,-464.2 80,-492.2 130,-492.2 130,-464.2 80,-464.2"/>
</g>
<!-- 24&#45;&gt;25 -->
<g id="edge8" class="edge">
<title>24&#45;&gt;25</title>
<path fill="none" stroke="black" d="M157,-516.85C157,-504.72 157,-488.22 157,-474.32"/>
<polygon fill="black" stroke="black" points="160.5,-474.31 157,-464.31 153.5,-474.31 160.5,-474.31"/>
<text text-anchor="middle" x="174.5" y="-486.4" font-family="Times,serif" font-size="14.00">Union</text>
</g>
<!-- 26 -->
<g id="node10" class="node">
<title>26</title>
<ellipse fill="none" stroke="black" cx="157" cy="-357.4" rx="27" ry="18"/>
<text text-anchor="start" x="146.5" y="-354.2" font-family="Times,serif" font-size="14.00">x</text>
<text text-anchor="start" x="153.5" y="-354.2" font-family="Times,serif" baseline-shift="sub" font-size="14.00">01</text>
<g id="a_node10_22"><a xlink:href="C:\Users\checc\Desktop\ProgettoIntelligentWeb\Progetto\graph\lazy\26.txt" xlink:title="Clicca per visualizzare Lx" target="_blank">
<polygon fill="none" stroke="green" points="81,-376.4 81,-402.4 129,-402.4 129,-376.4 81,-376.4"/>
<text text-anchor="start" x="85.56" y="-384.8" font-family="Times,serif" font-size="14.00"> Label </text>
</a>
</g>
<polygon fill="none" stroke="green" points="80,-375.4 80,-403.4 130,-403.4 130,-375.4 80,-375.4"/>
</g>
<!-- 25&#45;&gt;26 -->
<g id="edge9" class="edge">
<title>25&#45;&gt;26</title>
<path fill="none" stroke="black" d="M157,-428.05C157,-415.92 157,-399.42 157,-385.52"/>
<polygon fill="black" stroke="black" points="160.5,-385.51 157,-375.51 153.5,-385.51 160.5,-385.51"/>
<text text-anchor="middle" x="174.5" y="-397.6" font-family="Times,serif" font-size="14.00">Union</text>
</g>
<!-- 27 -->
<g id="node11" class="node">
<title>27</title>
<ellipse fill="none" stroke="black" cx="121" cy="-268.6" rx="27" ry="18"/>
<text text-anchor="start" x="110.5" y="-265.4" font-family="Times,serif" font-size="14.00">x</text>
<text text-anchor="start" x="117.5" y="-265.4" font-family="Times,serif" baseline-shift="sub" font-size="14.00">01</text>
<g id="a_node11_23"><a xlink:href="C:\Users\checc\Desktop\ProgettoIntelligentWeb\Progetto\graph\lazy\27.txt" xlink:title="Clicca per visualizzare Lx" target="_blank">
<polygon fill="none" stroke="green" points="45,-287.6 45,-313.6 93,-313.6 93,-287.6 45,-287.6"/>
<text text-anchor="start" x="49.56" y="-296" font-family="Times,serif" font-size="14.00"> Label </text>
</a>
</g>
<polygon fill="none" stroke="green" points="44,-286.6 44,-314.6 94,-314.6 94,-286.6 44,-286.6"/>
</g>
<!-- 26&#45;&gt;27 -->
<g id="edge11" class="edge">
<title>26&#45;&gt;27</title>
<path fill="none" stroke="black" d="M144.08,-341.21C139.66,-335.34 135.07,-328.37 132,-321.4 128.65,-313.79 126.3,-305.1 124.65,-297.04"/>
<polygon fill="black" stroke="black" points="128.06,-296.18 122.87,-286.94 121.16,-297.4 128.06,-296.18"/>
<text text-anchor="middle" x="150.5" y="-308.8" font-family="Times,serif" font-size="14.00">Union</text>
</g>
<!-- 29 -->
<g id="node13" class="node">
<title>29</title>
<ellipse fill="none" stroke="black" cx="201" cy="-268.6" rx="27" ry="18"/>
<text text-anchor="start" x="190.5" y="-265.4" font-family="Times,serif" font-size="14.00">x</text>
<text text-anchor="start" x="197.5" y="-265.4" font-family="Times,serif" baseline-shift="sub" font-size="14.00">01</text>
<g id="a_node13_24"><a xlink:href="C:\Users\checc\Desktop\ProgettoIntelligentWeb\Progetto\graph\lazy\29.txt" xlink:title="Clicca per visualizzare Lx" target="_blank">
<polygon fill="none" stroke="green" points="125,-223.6 125,-249.6 173,-249.6 173,-223.6 125,-223.6"/>
<text text-anchor="start" x="129.56" y="-232" font-family="Times,serif" font-size="14.00"> Label </text>
</a>
</g>
<polygon fill="none" stroke="green" points="124,-222.6 124,-250.6 174,-250.6 174,-222.6 124,-222.6"/>
</g>
<!-- 26&#45;&gt;29 -->
<g id="edge10" class="edge">
<title>26&#45;&gt;29</title>
<path fill="none" stroke="black" d="M165.28,-340.07C171.73,-327.34 180.8,-309.44 188.19,-294.86"/>
<polygon fill="black" stroke="black" points="191.36,-296.36 192.76,-285.85 185.12,-293.19 191.36,-296.36"/>
<text text-anchor="middle" x="200.5" y="-308.8" font-family="Times,serif" font-size="14.00">Union</text>
</g>
<!-- 28 -->
<g id="node12" class="node">
<title>28</title>
<ellipse fill="none" stroke="black" cx="113" cy="-179.8" rx="42.88" ry="18"/>
<text text-anchor="start" x="90.06" y="-175.6" font-family="Times,serif" font-size="14.00">CLASH</text>
</g>
<!-- 27&#45;&gt;28 -->
<g id="edge12" class="edge">
<title>27&#45;&gt;28</title>
<path fill="none" stroke="red" d="M119.42,-250.45C118.3,-238.32 116.78,-221.82 115.5,-207.92"/>
<polygon fill="red" stroke="red" points="118.98,-207.55 114.58,-197.91 112.01,-208.19 118.98,-207.55"/>
</g>
<!-- 30 -->
<g id="node14" class="node">
<title>30</title>
<ellipse fill="none" stroke="black" cx="201" cy="-179.8" rx="27" ry="18"/>
<text text-anchor="start" x="190.5" y="-176.6" font-family="Times,serif" font-size="14.00">x</text>
<text text-anchor="start" x="197.5" y="-176.6" font-family="Times,serif" baseline-shift="sub" font-size="14.00">01</text>
<g id="a_node14_25"><a xlink:href="C:\Users\checc\Desktop\ProgettoIntelligentWeb\Progetto\graph\lazy\30.txt" xlink:title="Clicca per visualizzare Lx" target="_blank">
<polygon fill="none" stroke="green" points="125,-134.8 125,-160.8 173,-160.8 173,-134.8 125,-134.8"/>
<text text-anchor="start" x="129.56" y="-143.2" font-family="Times,serif" font-size="14.00"> Label </text>
</a>
</g>
<polygon fill="none" stroke="green" points="124,-133.8 124,-161.8 174,-161.8 174,-133.8 124,-133.8"/>
</g>
<!-- 29&#45;&gt;30 -->
<g id="edge14" class="edge">
<title>29&#45;&gt;30</title>
<path fill="none" stroke="black" d="M201,-250.45C201,-238.32 201,-221.82 201,-207.92"/>
<polygon fill="black" stroke="black" points="204.5,-207.91 201,-197.91 197.5,-207.91 204.5,-207.91"/>
<text text-anchor="middle" x="218.5" y="-220" font-family="Times,serif" font-size="14.00">Union</text>
</g>
<!-- 32 -->
<g id="node16" class="node">
<title>32</title>
<ellipse fill="none" stroke="black" cx="281" cy="-179.8" rx="27" ry="18"/>
<text text-anchor="start" x="270.5" y="-176.6" font-family="Times,serif" font-size="14.00">x</text>
<text text-anchor="start" x="277.5" y="-176.6" font-family="Times,serif" baseline-shift="sub" font-size="14.00">01</text>
<g id="a_node16_26"><a xlink:href="C:\Users\checc\Desktop\ProgettoIntelligentWeb\Progetto\graph\lazy\32.txt" xlink:title="Clicca per visualizzare Lx" target="_blank">
<polygon fill="none" stroke="green" points="205,-134.8 205,-160.8 253,-160.8 253,-134.8 205,-134.8"/>
<text text-anchor="start" x="209.56" y="-143.2" font-family="Times,serif" font-size="14.00"> Label </text>
</a>
</g>
<polygon fill="none" stroke="green" points="204,-133.8 204,-161.8 254,-161.8 254,-133.8 204,-133.8"/>
</g>
<!-- 29&#45;&gt;32 -->
<g id="edge13" class="edge">
<title>29&#45;&gt;32</title>
<path fill="none" stroke="black" d="M217.51,-253.88C224.68,-247.65 233.02,-240.02 240,-232.6 248.21,-223.86 256.56,-213.62 263.56,-204.56"/>
<polygon fill="black" stroke="black" points="266.55,-206.4 269.81,-196.32 260.97,-202.17 266.55,-206.4"/>
<text text-anchor="middle" x="271.5" y="-220" font-family="Times,serif" font-size="14.00">Union</text>
</g>
<!-- 31 -->
<g id="node15" class="node">
<title>31</title>
<ellipse fill="none" stroke="black" cx="199" cy="-91" rx="42.88" ry="18"/>
<text text-anchor="start" x="176.06" y="-86.8" font-family="Times,serif" font-size="14.00">CLASH</text>
</g>
<!-- 30&#45;&gt;31 -->
<g id="edge15" class="edge">
<title>30&#45;&gt;31</title>
<path fill="none" stroke="red" d="M200.6,-161.65C200.33,-149.52 199.95,-133.02 199.62,-119.12"/>
<polygon fill="red" stroke="red" points="203.12,-119.03 199.39,-109.11 196.13,-119.19 203.12,-119.03"/>
</g>
<!-- 33 -->
<g id="node17" class="node">
<title>33</title>
<ellipse fill="none" stroke="black" cx="287" cy="-91" rx="27" ry="18"/>
<text text-anchor="start" x="276.5" y="-87.8" font-family="Times,serif" font-size="14.00">x</text>
<text text-anchor="start" x="283.5" y="-87.8" font-family="Times,serif" baseline-shift="sub" font-size="14.00">01</text>
<g id="a_node17_27"><a xlink:href="C:\Users\checc\Desktop\ProgettoIntelligentWeb\Progetto\graph\lazy\33.txt" xlink:title="Clicca per visualizzare Lx" target="_blank">
<polygon fill="none" stroke="green" points="211,-46 211,-72 259,-72 259,-46 211,-46"/>
<text text-anchor="start" x="215.56" y="-54.4" font-family="Times,serif" font-size="14.00"> Label </text>
</a>
</g>
<polygon fill="none" stroke="green" points="210,-45 210,-73 260,-73 260,-45 210,-45"/>
</g>
<!-- 32&#45;&gt;33 -->
<g id="edge16" class="edge">
<title>32&#45;&gt;33</title>
<path fill="none" stroke="black" d="M282.19,-161.65C283.02,-149.52 284.16,-133.02 285.13,-119.12"/>
<polygon fill="black" stroke="black" points="288.62,-119.33 285.82,-109.11 281.64,-118.85 288.62,-119.33"/>
<text text-anchor="middle" x="288.67" y="-131.2" font-family="Times,serif" font-size="14.00">R</text>
</g>
<!-- 34 -->
<g id="node18" class="node">
<title>34</title>
<ellipse fill="none" stroke="black" cx="287" cy="-18" rx="27" ry="18"/>
<text text-anchor="start" x="276.5" y="-14.8" font-family="Times,serif" font-size="14.00">x</text>
<text text-anchor="start" x="283.5" y="-14.8" font-family="Times,serif" text-decoration="underline" font-size="14.00">_</text>
<text text-anchor="start" x="290.5" y="-14.8" font-family="Times,serif" font-size="14.00">_</text>
<text text-anchor="start" x="187.69" y="-4.2" font-family="Times,serif" font-size="14.00">BLOCKING</text>
</g>
<!-- 33&#45;&gt;34 -->
<g id="edge17" class="edge">
<title>33&#45;&gt;34</title>
<path fill="none" stroke="yellow" d="M287,-72.81C287,-64.79 287,-55.05 287,-46.07"/>
<polygon fill="yellow" stroke="yellow" points="290.5,-46.03 287,-36.03 283.5,-46.03 290.5,-46.03"/>
</g>
</g>
</svg>
