<svg width="402px" height="500px"
 viewBox="0.00 0.00 401.92 500.20" xmlns="http://www.w3.org/2000/svg" xmlns:xlink="http://www.w3.org/1999/xlink">
<g id="graph0" class="graph" transform="scale(1.0 1.0) rotate(0.0) translate(4.0 496.2)">
<title>tableaux</title>
<polygon fill="white" stroke="transparent" points="-4,4 -4,-496.2 397.92,-496.2 397.92,4 -4,4"/>
<!-- 0 -->
<g id="node1" class="node">
<title>0</title>
<ellipse fill="none" stroke="black" cx="200" cy="-446.2" rx="27" ry="18"/>
<text text-anchor="start" x="193" y="-443" font-family="Times,serif" font-size="14.00">x</text>
<text text-anchor="start" x="200" y="-443" font-family="Times,serif" baseline-shift="sub" font-size="14.00">0</text>
<g id="a_node1_19"><a xlink:href="C:\Users\turco\OneDrive\Desktop\ProgettoIntelligentWeb\Progetto\graph\lazy\0.txt" xlink:title="Nodo 0: B , C , (¬A ⊔ ∃S.A ), ∃R.A " target="_blank">
<polygon fill="none" stroke="green" points="124,-465.2 124,-491.2 172,-491.2 172,-465.2 124,-465.2"/>
<text text-anchor="start" x="128.56" y="-473.6" font-family="Times,serif" font-size="14.00"> Label </text>
</a>
</g>
<polygon fill="none" stroke="green" points="123,-464.2 123,-492.2 173,-492.2 173,-464.2 123,-464.2"/>
</g>
<!-- 1 -->
<g id="node2" class="node">
<title>1</title>
<ellipse fill="none" stroke="black" cx="200" cy="-357.4" rx="27" ry="18"/>
<text text-anchor="start" x="193" y="-354.2" font-family="Times,serif" font-size="14.00">x</text>
<text text-anchor="start" x="200" y="-354.2" font-family="Times,serif" baseline-shift="sub" font-size="14.00">0</text>
<g id="a_node2_20"><a xlink:href="C:\Users\turco\OneDrive\Desktop\ProgettoIntelligentWeb\Progetto\graph\lazy\1.txt" xlink:title="Nodo 1: B , C , ∃S.A , (¬A ⊔ ∃S.A ), ∃R.A " target="_blank">
<polygon fill="none" stroke="green" points="124,-376.4 124,-402.4 172,-402.4 172,-376.4 124,-376.4"/>
<text text-anchor="start" x="128.56" y="-384.8" font-family="Times,serif" font-size="14.00"> Label </text>
</a>
</g>
<polygon fill="none" stroke="green" points="123,-375.4 123,-403.4 173,-403.4 173,-375.4 123,-375.4"/>
</g>
<!-- 0&#45;&gt;1 -->
<g id="edge1" class="edge">
<title>0&#45;&gt;1</title>
<path fill="none" stroke="black" d="M200,-428.05C200,-415.92 200,-399.42 200,-385.52"/>
<polygon fill="black" stroke="black" points="203.5,-385.51 200,-375.51 196.5,-385.51 203.5,-385.51"/>
<text text-anchor="middle" x="205.25" y="-397.6" font-family="Times,serif" font-size="14.00">⊔</text>
</g>
<!-- 2 -->
<g id="node3" class="node">
<title>2</title>
<ellipse fill="none" stroke="black" cx="157" cy="-268.6" rx="27" ry="18"/>
<text text-anchor="start" x="150" y="-265.4" font-family="Times,serif" font-size="14.00">x</text>
<text text-anchor="start" x="157" y="-265.4" font-family="Times,serif" baseline-shift="sub" font-size="14.00">1</text>
<g id="a_node3_21"><a xlink:href="C:\Users\turco\OneDrive\Desktop\ProgettoIntelligentWeb\Progetto\graph\lazy\2.txt" xlink:title="Nodo 2: A , (¬A ⊔ ∃S.A )" target="_blank">
<polygon fill="none" stroke="green" points="81,-287.6 81,-313.6 129,-313.6 129,-287.6 81,-287.6"/>
<text text-anchor="start" x="85.56" y="-296" font-family="Times,serif" font-size="14.00"> Label </text>
</a>
</g>
<polygon fill="none" stroke="green" points="80,-286.6 80,-314.6 130,-314.6 130,-286.6 80,-286.6"/>
</g>
<!-- 1&#45;&gt;2 -->
<g id="edge3" class="edge">
<title>1&#45;&gt;2</title>
<path fill="none" stroke="black" d="M191.91,-340.07C185.61,-327.34 176.74,-309.44 169.52,-294.86"/>
<polygon fill="black" stroke="black" points="172.63,-293.26 165.05,-285.85 166.35,-296.37 172.63,-293.26"/>
<text text-anchor="middle" x="186.89" y="-308.8" font-family="Times,serif" font-size="14.00">S</text>
</g>
<!-- 8 -->
<g id="node9" class="node">
<title>8</title>
<ellipse fill="none" stroke="black" cx="245" cy="-268.6" rx="27" ry="18"/>
<text text-anchor="start" x="238" y="-265.4" font-family="Times,serif" font-size="14.00">x</text>
<text text-anchor="start" x="245" y="-265.4" font-family="Times,serif" baseline-shift="sub" font-size="14.00">3</text>
<g id="a_node9_22"><a xlink:href="C:\Users\turco\OneDrive\Desktop\ProgettoIntelligentWeb\Progetto\graph\lazy\8.txt" xlink:title="Nodo 8: A , (¬A ⊔ ∃S.A )" target="_blank">
<polygon fill="none" stroke="green" points="169,-223.6 169,-249.6 217,-249.6 217,-223.6 169,-223.6"/>
<text text-anchor="start" x="173.56" y="-232" font-family="Times,serif" font-size="14.00"> Label </text>
</a>
</g>
<polygon fill="none" stroke="green" points="168,-222.6 168,-250.6 218,-250.6 218,-222.6 168,-222.6"/>
</g>
<!-- 1&#45;&gt;8 -->
<g id="edge2" class="edge">
<title>1&#45;&gt;8</title>
<path fill="none" stroke="black" d="M208.46,-340.07C215.06,-327.34 224.35,-309.44 231.9,-294.86"/>
<polygon fill="black" stroke="black" points="235.08,-296.34 236.57,-285.85 228.86,-293.12 235.08,-296.34"/>
<text text-anchor="middle" x="231.67" y="-308.8" font-family="Times,serif" font-size="14.00">R</text>
</g>
<!-- 3 -->
<g id="node4" class="node">
<title>3</title>
<ellipse fill="none" stroke="black" cx="77" cy="-179.8" rx="27" ry="18"/>
<text text-anchor="start" x="70" y="-176.6" font-family="Times,serif" font-size="14.00">x</text>
<text text-anchor="start" x="77" y="-176.6" font-family="Times,serif" baseline-shift="sub" font-size="14.00">1</text>
<g id="a_node4_23"><a xlink:href="C:\Users\turco\OneDrive\Desktop\ProgettoIntelligentWeb\Progetto\graph\lazy\3.txt" xlink:title="Nodo 3: A , ¬A , (¬A ⊔ ∃S.A )" target="_blank">
<polygon fill="none" stroke="green" points="1,-198.8 1,-224.8 49,-224.8 49,-198.8 1,-198.8"/>
<text text-anchor="start" x="5.56" y="-207.2" font-family="Times,serif" font-size="14.00"> Label </text>
</a>
</g>
<polygon fill="none" stroke="green" points="0,-197.8 0,-225.8 50,-225.8 50,-197.8 0,-197.8"/>
</g>
<!-- 2&#45;&gt;3 -->
<g id="edge5" class="edge">
<title>2&#45;&gt;3</title>
<path fill="none" stroke="black" d="M143.43,-252.88C130.9,-239.28 112.11,-218.9 97.71,-203.27"/>
<polygon fill="black" stroke="black" points="99.99,-200.58 90.64,-195.6 94.84,-205.32 99.99,-200.58"/>
<text text-anchor="middle" x="130.25" y="-220" font-family="Times,serif" font-size="14.00">⊔</text>
</g>
<!-- 5 -->
<g id="node6" class="node">
<title>5</title>
<ellipse fill="none" stroke="black" cx="157" cy="-179.8" rx="27" ry="18"/>
<text text-anchor="start" x="150" y="-176.6" font-family="Times,serif" font-size="14.00">x</text>
<text text-anchor="start" x="157" y="-176.6" font-family="Times,serif" baseline-shift="sub" font-size="14.00">1</text>
<g id="a_node6_24"><a xlink:href="C:\Users\turco\OneDrive\Desktop\ProgettoIntelligentWeb\Progetto\graph\lazy\5.txt" xlink:title="Nodo 5: A , ∃S.A , (¬A ⊔ ∃S.A )" target="_blank">
<polygon fill="none" stroke="green" points="81,-134.8 81,-160.8 129,-160.8 129,-134.8 81,-134.8"/>
<text text-anchor="start" x="85.56" y="-143.2" font-family="Times,serif" font-size="14.00"> Label </text>
</a>
</g>
<polygon fill="none" stroke="green" points="80,-133.8 80,-161.8 130,-161.8 130,-133.8 80,-133.8"/>
</g>
<!-- 2&#45;&gt;5 -->
<g id="edge4" class="edge">
<title>2&#45;&gt;5</title>
<path fill="none" stroke="black" d="M157,-250.45C157,-238.32 157,-221.82 157,-207.92"/>
<polygon fill="black" stroke="black" points="160.5,-207.91 157,-197.91 153.5,-207.91 160.5,-207.91"/>
<text text-anchor="middle" x="162.25" y="-220" font-family="Times,serif" font-size="14.00">⊔</text>
</g>
<!-- 4 -->
<g id="node5" class="node">
<title>4</title>
<ellipse fill="none" stroke="black" cx="69" cy="-91" rx="42.88" ry="18"/>
<text text-anchor="start" x="46.06" y="-86.8" font-family="Times,serif" font-size="14.00">CLASH</text>
</g>
<!-- 3&#45;&gt;4 -->
<g id="edge6" class="edge">
<title>3&#45;&gt;4</title>
<path fill="none" stroke="red" d="M75.42,-161.65C74.3,-149.52 72.78,-133.02 71.5,-119.12"/>
<polygon fill="red" stroke="red" points="74.98,-118.75 70.58,-109.11 68.01,-119.39 74.98,-118.75"/>
</g>
<!-- 6 -->
<g id="node7" class="node">
<title>6</title>
<ellipse fill="none" stroke="black" cx="157" cy="-91" rx="27" ry="18"/>
<text text-anchor="start" x="150" y="-87.8" font-family="Times,serif" font-size="14.00">x</text>
<text text-anchor="start" x="157" y="-87.8" font-family="Times,serif" baseline-shift="sub" font-size="14.00">2</text>
<g id="a_node7_25"><a xlink:href="C:\Users\turco\OneDrive\Desktop\ProgettoIntelligentWeb\Progetto\graph\lazy\6.txt" xlink:title="Nodo 6: A , (¬A ⊔ ∃S.A )" target="_blank">
<polygon fill="none" stroke="green" points="81,-46 81,-72 129,-72 129,-46 81,-46"/>
<text text-anchor="start" x="85.56" y="-54.4" font-family="Times,serif" font-size="14.00"> Label </text>
</a>
</g>
<polygon fill="none" stroke="green" points="80,-45 80,-73 130,-73 130,-45 80,-45"/>
</g>
<!-- 5&#45;&gt;6 -->
<g id="edge7" class="edge">
<title>5&#45;&gt;6</title>
<path fill="none" stroke="black" d="M157,-161.65C157,-149.52 157,-133.02 157,-119.12"/>
<polygon fill="black" stroke="black" points="160.5,-119.11 157,-109.11 153.5,-119.11 160.5,-119.11"/>
<text text-anchor="middle" x="160.89" y="-131.2" font-family="Times,serif" font-size="14.00">S</text>
</g>
<!-- 7 -->
<g id="node8" class="node">
<title>7</title>
<ellipse fill="none" stroke="black" cx="157" cy="-18" rx="60.83" ry="18"/>
<text text-anchor="start" x="120.84" y="-13.8" font-family="Times,serif" font-size="14.00">BLOCKING</text>
</g>
<!-- 6&#45;&gt;7 -->
<g id="edge8" class="edge">
<title>6&#45;&gt;7</title>
<path fill="none" stroke="orange" d="M157,-72.81C157,-64.79 157,-55.05 157,-46.07"/>
<polygon fill="orange" stroke="orange" points="160.5,-46.03 157,-36.03 153.5,-46.03 160.5,-46.03"/>
</g>
<!-- 9 -->
<g id="node10" class="node">
<title>9</title>
<ellipse fill="none" stroke="black" cx="245" cy="-179.8" rx="27" ry="18"/>
<text text-anchor="start" x="238" y="-176.6" font-family="Times,serif" font-size="14.00">x</text>
<text text-anchor="start" x="245" y="-176.6" font-family="Times,serif" baseline-shift="sub" font-size="14.00">3</text>
<g id="a_node10_26"><a xlink:href="C:\Users\turco\OneDrive\Desktop\ProgettoIntelligentWeb\Progetto\graph\lazy\9.txt" xlink:title="Nodo 9: A , ¬A , (¬A ⊔ ∃S.A )" target="_blank">
<polygon fill="none" stroke="green" points="169,-134.8 169,-160.8 217,-160.8 217,-134.8 169,-134.8"/>
<text text-anchor="start" x="173.56" y="-143.2" font-family="Times,serif" font-size="14.00"> Label </text>
</a>
</g>
<polygon fill="none" stroke="green" points="168,-133.8 168,-161.8 218,-161.8 218,-133.8 168,-133.8"/>
</g>
<!-- 8&#45;&gt;9 -->
<g id="edge10" class="edge">
<title>8&#45;&gt;9</title>
<path fill="none" stroke="black" d="M245,-250.45C245,-238.32 245,-221.82 245,-207.92"/>
<polygon fill="black" stroke="black" points="248.5,-207.91 245,-197.91 241.5,-207.91 248.5,-207.91"/>
<text text-anchor="middle" x="250.25" y="-220" font-family="Times,serif" font-size="14.00">⊔</text>
</g>
<!-- 11 -->
<g id="node12" class="node">
<title>11</title>
<ellipse fill="none" stroke="black" cx="325" cy="-179.8" rx="27" ry="18"/>
<text text-anchor="start" x="318" y="-176.6" font-family="Times,serif" font-size="14.00">x</text>
<text text-anchor="start" x="325" y="-176.6" font-family="Times,serif" baseline-shift="sub" font-size="14.00">3</text>
<g id="a_node12_27"><a xlink:href="C:\Users\turco\OneDrive\Desktop\ProgettoIntelligentWeb\Progetto\graph\lazy\11.txt" xlink:title="Nodo 11: A , ∃S.A , (¬A ⊔ ∃S.A )" target="_blank">
<polygon fill="none" stroke="green" points="249,-134.8 249,-160.8 297,-160.8 297,-134.8 249,-134.8"/>
<text text-anchor="start" x="253.56" y="-143.2" font-family="Times,serif" font-size="14.00"> Label </text>
</a>
</g>
<polygon fill="none" stroke="green" points="248,-133.8 248,-161.8 298,-161.8 298,-133.8 248,-133.8"/>
</g>
<!-- 8&#45;&gt;11 -->
<g id="edge9" class="edge">
<title>8&#45;&gt;11</title>
<path fill="none" stroke="black" d="M258.57,-252.88C271.1,-239.28 289.89,-218.9 304.29,-203.27"/>
<polygon fill="black" stroke="black" points="307.16,-205.32 311.36,-195.6 302.01,-200.58 307.16,-205.32"/>
<text text-anchor="middle" x="298.25" y="-220" font-family="Times,serif" font-size="14.00">⊔</text>
</g>
<!-- 10 -->
<g id="node11" class="node">
<title>10</title>
<ellipse fill="none" stroke="black" cx="245" cy="-91" rx="42.88" ry="18"/>
<text text-anchor="start" x="222.06" y="-86.8" font-family="Times,serif" font-size="14.00">CLASH</text>
</g>
<!-- 9&#45;&gt;10 -->
<g id="edge11" class="edge">
<title>9&#45;&gt;10</title>
<path fill="none" stroke="red" d="M245,-161.65C245,-149.52 245,-133.02 245,-119.12"/>
<polygon fill="red" stroke="red" points="248.5,-119.11 245,-109.11 241.5,-119.11 248.5,-119.11"/>
</g>
<!-- 12 -->
<g id="node13" class="node">
<title>12</title>
<ellipse fill="none" stroke="black" cx="333" cy="-91" rx="27" ry="18"/>
<text text-anchor="start" x="326" y="-87.8" font-family="Times,serif" font-size="14.00">x</text>
<text text-anchor="start" x="333" y="-87.8" font-family="Times,serif" baseline-shift="sub" font-size="14.00">4</text>
<g id="a_node13_28"><a xlink:href="C:\Users\turco\OneDrive\Desktop\ProgettoIntelligentWeb\Progetto\graph\lazy\12.txt" xlink:title="Nodo 12: A , (¬A ⊔ ∃S.A )" target="_blank">
<polygon fill="none" stroke="green" points="257,-46 257,-72 305,-72 305,-46 257,-46"/>
<text text-anchor="start" x="261.56" y="-54.4" font-family="Times,serif" font-size="14.00"> Label </text>
</a>
</g>
<polygon fill="none" stroke="green" points="256,-45 256,-73 306,-73 306,-45 256,-45"/>
</g>
<!-- 11&#45;&gt;12 -->
<g id="edge12" class="edge">
<title>11&#45;&gt;12</title>
<path fill="none" stroke="black" d="M326.58,-161.65C327.7,-149.52 329.22,-133.02 330.5,-119.12"/>
<polygon fill="black" stroke="black" points="333.99,-119.39 331.42,-109.11 327.02,-118.75 333.99,-119.39"/>
<text text-anchor="middle" x="333.89" y="-131.2" font-family="Times,serif" font-size="14.00">S</text>
</g>
<!-- 13 -->
<g id="node14" class="node">
<title>13</title>
<ellipse fill="none" stroke="black" cx="333" cy="-18" rx="60.83" ry="18"/>
<text text-anchor="start" x="296.84" y="-13.8" font-family="Times,serif" font-size="14.00">BLOCKING</text>
</g>
<!-- 12&#45;&gt;13 -->
<g id="edge13" class="edge">
<title>12&#45;&gt;13</title>
<path fill="none" stroke="orange" d="M333,-72.81C333,-64.79 333,-55.05 333,-46.07"/>
<polygon fill="orange" stroke="orange" points="336.5,-46.03 333,-36.03 329.5,-46.03 336.5,-46.03"/>
</g>
</g>
</svg>
