<svg width="235px" height="855px"
 viewBox="0.00 0.00 234.51 855.40" xmlns="http://www.w3.org/2000/svg" xmlns:xlink="http://www.w3.org/1999/xlink">
<g id="graph0" class="graph" transform="scale(1.0 1.0) rotate(0.0) translate(4.0 851.4)">
<title>tableaux</title>
<polygon fill="white" stroke="transparent" points="-4,4 -4,-851.4 230.51,-851.4 230.51,4 -4,4"/>
<!-- 0 -->
<g id="node1" class="node">
<title>0</title>
<ellipse fill="none" stroke="black" cx="113" cy="-801.4" rx="27" ry="18"/>
<text text-anchor="start" x="106" y="-798.2" font-family="Times,serif" font-size="14.00">x</text>
<text text-anchor="start" x="113" y="-798.2" font-family="Times,serif" baseline-shift="sub" font-size="14.00">0</text>
<g id="a_node1_42"><a xlink:href="C:\Users\turco\OneDrive\Desktop\ProgettoIntelligentWeb\Progetto\graph\lazy\0.txt" xlink:title="Nodo 0: ((Veicolo ⊔ ¬Auto )⊓ (Veicolo ⊔ ¬Bicicletta )⊓ (¬Auto ⊔ &#160;∀ haComponente.Sterzo )⊓ (¬Manubrio ⊔ ¬Sterzo )), (Veicolo ⊔ ¬Auto ), (Veicolo ⊔ ¬Bicicletta ), (¬Auto ⊔ &#160;∀ haComponente.Sterzo ), (∃haComponente.Bicicletta ⊔ &#160;∀ haComponente.Auto ), (¬Manubrio ⊔ ¬Sterzo )" target="_blank">
<polygon fill="none" stroke="green" points="37,-820.4 37,-846.4 85,-846.4 85,-820.4 37,-820.4"/>
<text text-anchor="start" x="41.56" y="-828.8" font-family="Times,serif" font-size="14.00"> Label </text>
</a>
</g>
<polygon fill="none" stroke="green" points="36,-819.4 36,-847.4 86,-847.4 86,-819.4 36,-819.4"/>
</g>
<!-- 1 -->
<g id="node2" class="node">
<title>1</title>
<ellipse fill="none" stroke="black" cx="113" cy="-712.6" rx="27" ry="18"/>
<text text-anchor="start" x="106" y="-709.4" font-family="Times,serif" font-size="14.00">x</text>
<text text-anchor="start" x="113" y="-709.4" font-family="Times,serif" baseline-shift="sub" font-size="14.00">0</text>
<g id="a_node2_43"><a xlink:href="C:\Users\turco\OneDrive\Desktop\ProgettoIntelligentWeb\Progetto\graph\lazy\1.txt" xlink:title="Nodo 1: ((Veicolo ⊔ ¬Auto )⊓ (Veicolo ⊔ ¬Bicicletta )⊓ (¬Auto ⊔ &#160;∀ haComponente.Sterzo )⊓ (¬Manubrio ⊔ ¬Sterzo )), (Veicolo ⊔ ¬Auto ), (Veicolo ⊔ ¬Bicicletta ), ¬Auto , (¬Auto ⊔ &#160;∀ haComponente.Sterzo ), (∃haComponente.Bicicletta ⊔ &#160;∀ haComponente.Auto ), (¬Manubrio ⊔ ¬Sterzo )" target="_blank">
<polygon fill="none" stroke="green" points="37,-731.6 37,-757.6 85,-757.6 85,-731.6 37,-731.6"/>
<text text-anchor="start" x="41.56" y="-740" font-family="Times,serif" font-size="14.00"> Label </text>
</a>
</g>
<polygon fill="none" stroke="green" points="36,-730.6 36,-758.6 86,-758.6 86,-730.6 36,-730.6"/>
</g>
<!-- 0&#45;&gt;1 -->
<g id="edge1" class="edge">
<title>0&#45;&gt;1</title>
<path fill="none" stroke="black" d="M113,-783.25C113,-771.12 113,-754.62 113,-740.72"/>
<polygon fill="black" stroke="black" points="116.5,-740.71 113,-730.71 109.5,-740.71 116.5,-740.71"/>
<text text-anchor="middle" x="118.25" y="-752.8" font-family="Times,serif" font-size="14.00">⊔</text>
</g>
<!-- 2 -->
<g id="node3" class="node">
<title>2</title>
<ellipse fill="none" stroke="black" cx="113" cy="-623.8" rx="27" ry="18"/>
<text text-anchor="start" x="106" y="-620.6" font-family="Times,serif" font-size="14.00">x</text>
<text text-anchor="start" x="113" y="-620.6" font-family="Times,serif" baseline-shift="sub" font-size="14.00">0</text>
<g id="a_node3_44"><a xlink:href="C:\Users\turco\OneDrive\Desktop\ProgettoIntelligentWeb\Progetto\graph\lazy\2.txt" xlink:title="Nodo 2: Veicolo , ((Veicolo ⊔ ¬Auto )⊓ (Veicolo ⊔ ¬Bicicletta )⊓ (¬Auto ⊔ &#160;∀ haComponente.Sterzo )⊓ (¬Manubrio ⊔ ¬Sterzo )), (Veicolo ⊔ ¬Auto ), (Veicolo ⊔ ¬Bicicletta ), ¬Auto , (¬Auto ⊔ &#160;∀ haComponente.Sterzo ), (∃haComponente.Bicicletta ⊔ &#160;∀ haComponente.Auto ), (¬Manubrio ⊔ ¬Sterzo )" target="_blank">
<polygon fill="none" stroke="green" points="37,-642.8 37,-668.8 85,-668.8 85,-642.8 37,-642.8"/>
<text text-anchor="start" x="41.56" y="-651.2" font-family="Times,serif" font-size="14.00"> Label </text>
</a>
</g>
<polygon fill="none" stroke="green" points="36,-641.8 36,-669.8 86,-669.8 86,-641.8 36,-641.8"/>
</g>
<!-- 1&#45;&gt;2 -->
<g id="edge2" class="edge">
<title>1&#45;&gt;2</title>
<path fill="none" stroke="black" d="M113,-694.45C113,-682.32 113,-665.82 113,-651.92"/>
<polygon fill="black" stroke="black" points="116.5,-651.91 113,-641.91 109.5,-651.91 116.5,-651.91"/>
<text text-anchor="middle" x="118.25" y="-664" font-family="Times,serif" font-size="14.00">⊔</text>
</g>
<!-- 3 -->
<g id="node4" class="node">
<title>3</title>
<ellipse fill="none" stroke="black" cx="113" cy="-535" rx="27" ry="18"/>
<text text-anchor="start" x="106" y="-531.8" font-family="Times,serif" font-size="14.00">x</text>
<text text-anchor="start" x="113" y="-531.8" font-family="Times,serif" baseline-shift="sub" font-size="14.00">0</text>
<g id="a_node4_45"><a xlink:href="C:\Users\turco\OneDrive\Desktop\ProgettoIntelligentWeb\Progetto\graph\lazy\3.txt" xlink:title="Nodo 3: Veicolo , ((Veicolo ⊔ ¬Auto )⊓ (Veicolo ⊔ ¬Bicicletta )⊓ (¬Auto ⊔ &#160;∀ haComponente.Sterzo )⊓ (¬Manubrio ⊔ ¬Sterzo )), (Veicolo ⊔ ¬Auto ), (Veicolo ⊔ ¬Bicicletta ), ∃haComponente.Bicicletta , ¬Auto , (¬Auto ⊔ &#160;∀ haComponente.Sterzo ), (∃haComponente.Bicicletta ⊔ &#160;∀ haComponente.Auto ), (¬Manubrio ⊔ ¬Sterzo )" target="_blank">
<polygon fill="none" stroke="green" points="37,-554 37,-580 85,-580 85,-554 37,-554"/>
<text text-anchor="start" x="41.56" y="-562.4" font-family="Times,serif" font-size="14.00"> Label </text>
</a>
</g>
<polygon fill="none" stroke="green" points="36,-553 36,-581 86,-581 86,-553 36,-553"/>
</g>
<!-- 2&#45;&gt;3 -->
<g id="edge3" class="edge">
<title>2&#45;&gt;3</title>
<path fill="none" stroke="black" d="M113,-605.65C113,-593.52 113,-577.02 113,-563.12"/>
<polygon fill="black" stroke="black" points="116.5,-563.11 113,-553.11 109.5,-563.11 116.5,-563.11"/>
<text text-anchor="middle" x="118.25" y="-575.2" font-family="Times,serif" font-size="14.00">⊔</text>
</g>
<!-- 4 -->
<g id="node5" class="node">
<title>4</title>
<ellipse fill="none" stroke="black" cx="113" cy="-446.2" rx="27" ry="18"/>
<text text-anchor="start" x="106" y="-443" font-family="Times,serif" font-size="14.00">x</text>
<text text-anchor="start" x="113" y="-443" font-family="Times,serif" baseline-shift="sub" font-size="14.00">0</text>
<g id="a_node5_46"><a xlink:href="C:\Users\turco\OneDrive\Desktop\ProgettoIntelligentWeb\Progetto\graph\lazy\4.txt" xlink:title="Nodo 4: Veicolo , ((Veicolo ⊔ ¬Auto )⊓ (Veicolo ⊔ ¬Bicicletta )⊓ (¬Auto ⊔ &#160;∀ haComponente.Sterzo )⊓ (¬Manubrio ⊔ ¬Sterzo )), (Veicolo ⊔ ¬Auto ), (Veicolo ⊔ ¬Bicicletta ), ∃haComponente.Bicicletta , ¬Auto , (¬Auto ⊔ &#160;∀ haComponente.Sterzo ), (∃haComponente.Bicicletta ⊔ &#160;∀ haComponente.Auto ), (¬Manubrio ⊔ ¬Sterzo ), ¬Sterzo " target="_blank">
<polygon fill="none" stroke="green" points="37,-465.2 37,-491.2 85,-491.2 85,-465.2 37,-465.2"/>
<text text-anchor="start" x="41.56" y="-473.6" font-family="Times,serif" font-size="14.00"> Label </text>
</a>
</g>
<polygon fill="none" stroke="green" points="36,-464.2 36,-492.2 86,-492.2 86,-464.2 36,-464.2"/>
</g>
<!-- 3&#45;&gt;4 -->
<g id="edge4" class="edge">
<title>3&#45;&gt;4</title>
<path fill="none" stroke="black" d="M113,-516.85C113,-504.72 113,-488.22 113,-474.32"/>
<polygon fill="black" stroke="black" points="116.5,-474.31 113,-464.31 109.5,-474.31 116.5,-474.31"/>
<text text-anchor="middle" x="118.25" y="-486.4" font-family="Times,serif" font-size="14.00">⊔</text>
</g>
<!-- 5 -->
<g id="node6" class="node">
<title>5</title>
<ellipse fill="none" stroke="black" cx="113" cy="-357.4" rx="27" ry="18"/>
<text text-anchor="start" x="106" y="-354.2" font-family="Times,serif" font-size="14.00">x</text>
<text text-anchor="start" x="113" y="-354.2" font-family="Times,serif" baseline-shift="sub" font-size="14.00">1</text>
<g id="a_node6_47"><a xlink:href="C:\Users\turco\OneDrive\Desktop\ProgettoIntelligentWeb\Progetto\graph\lazy\5.txt" xlink:title="Nodo 5: ((Veicolo ⊔ ¬Auto )⊓ (Veicolo ⊔ ¬Bicicletta )⊓ (¬Auto ⊔ &#160;∀ haComponente.Sterzo )⊓ (¬Manubrio ⊔ ¬Sterzo )), Bicicletta " target="_blank">
<polygon fill="none" stroke="green" points="37,-376.4 37,-402.4 85,-402.4 85,-376.4 37,-376.4"/>
<text text-anchor="start" x="41.56" y="-384.8" font-family="Times,serif" font-size="14.00"> Label </text>
</a>
</g>
<polygon fill="none" stroke="green" points="36,-375.4 36,-403.4 86,-403.4 86,-375.4 36,-375.4"/>
</g>
<!-- 4&#45;&gt;5 -->
<g id="edge5" class="edge">
<title>4&#45;&gt;5</title>
<path fill="none" stroke="black" d="M113,-428.05C113,-415.92 113,-399.42 113,-385.52"/>
<polygon fill="black" stroke="black" points="116.5,-385.51 113,-375.51 109.5,-385.51 116.5,-385.51"/>
<text text-anchor="middle" x="155.38" y="-397.6" font-family="Times,serif" font-size="14.00">haComponente</text>
</g>
<!-- 6 -->
<g id="node7" class="node">
<title>6</title>
<ellipse fill="none" stroke="black" cx="77" cy="-268.6" rx="27" ry="18"/>
<text text-anchor="start" x="70" y="-265.4" font-family="Times,serif" font-size="14.00">x</text>
<text text-anchor="start" x="77" y="-265.4" font-family="Times,serif" baseline-shift="sub" font-size="14.00">1</text>
<g id="a_node7_48"><a xlink:href="C:\Users\turco\OneDrive\Desktop\ProgettoIntelligentWeb\Progetto\graph\lazy\6.txt" xlink:title="Nodo 6: ((Veicolo ⊔ ¬Auto )⊓ (Veicolo ⊔ ¬Bicicletta )⊓ (¬Auto ⊔ &#160;∀ haComponente.Sterzo )⊓ (¬Manubrio ⊔ ¬Sterzo )), (Veicolo ⊔ ¬Bicicletta ), (Veicolo ⊔ ¬Auto ), Bicicletta , &#160;∀ haComponente.Manubrio , (¬Auto ⊔ &#160;∀ haComponente.Sterzo ), ¬Bicicletta , (¬Manubrio ⊔ ¬Sterzo )" target="_blank">
<polygon fill="none" stroke="green" points="1,-287.6 1,-313.6 49,-313.6 49,-287.6 1,-287.6"/>
<text text-anchor="start" x="5.56" y="-296" font-family="Times,serif" font-size="14.00"> Label </text>
</a>
</g>
<polygon fill="none" stroke="green" points="0,-286.6 0,-314.6 50,-314.6 50,-286.6 0,-286.6"/>
</g>
<!-- 5&#45;&gt;6 -->
<g id="edge7" class="edge">
<title>5&#45;&gt;6</title>
<path fill="none" stroke="black" d="M106.06,-339.66C100.88,-327.18 93.71,-309.88 87.78,-295.6"/>
<polygon fill="black" stroke="black" points="90.98,-294.18 83.92,-286.28 84.52,-296.86 90.98,-294.18"/>
<text text-anchor="middle" x="104.25" y="-308.8" font-family="Times,serif" font-size="14.00">⊔</text>
</g>
<!-- 8 -->
<g id="node9" class="node">
<title>8</title>
<ellipse fill="none" stroke="black" cx="153" cy="-268.6" rx="27" ry="18"/>
<text text-anchor="start" x="146" y="-265.4" font-family="Times,serif" font-size="14.00">x</text>
<text text-anchor="start" x="153" y="-265.4" font-family="Times,serif" baseline-shift="sub" font-size="14.00">1</text>
<g id="a_node9_49"><a xlink:href="C:\Users\turco\OneDrive\Desktop\ProgettoIntelligentWeb\Progetto\graph\lazy\8.txt" xlink:title="Nodo 8: Veicolo , ((Veicolo ⊔ ¬Auto )⊓ (Veicolo ⊔ ¬Bicicletta )⊓ (¬Auto ⊔ &#160;∀ haComponente.Sterzo )⊓ (¬Manubrio ⊔ ¬Sterzo )), (Veicolo ⊔ ¬Bicicletta ), (Veicolo ⊔ ¬Auto ), Bicicletta , &#160;∀ haComponente.Manubrio , (¬Auto ⊔ &#160;∀ haComponente.Sterzo ), (¬Manubrio ⊔ ¬Sterzo )" target="_blank">
<polygon fill="none" stroke="green" points="77,-223.6 77,-249.6 125,-249.6 125,-223.6 77,-223.6"/>
<text text-anchor="start" x="81.56" y="-232" font-family="Times,serif" font-size="14.00"> Label </text>
</a>
</g>
<polygon fill="none" stroke="green" points="76,-222.6 76,-250.6 126,-250.6 126,-222.6 76,-222.6"/>
</g>
<!-- 5&#45;&gt;8 -->
<g id="edge6" class="edge">
<title>5&#45;&gt;8</title>
<path fill="none" stroke="black" d="M120.52,-340.07C126.3,-327.54 134.38,-310 141.04,-295.56"/>
<polygon fill="black" stroke="black" points="144.37,-296.7 145.37,-286.15 138.01,-293.77 144.37,-296.7"/>
<text text-anchor="middle" x="141.25" y="-308.8" font-family="Times,serif" font-size="14.00">⊔</text>
</g>
<!-- 7 -->
<g id="node8" class="node">
<title>7</title>
<ellipse fill="none" stroke="black" cx="69" cy="-179.8" rx="42.88" ry="18"/>
<text text-anchor="start" x="46.06" y="-175.6" font-family="Times,serif" font-size="14.00">CLASH</text>
</g>
<!-- 6&#45;&gt;7 -->
<g id="edge8" class="edge">
<title>6&#45;&gt;7</title>
<path fill="none" stroke="red" d="M75.42,-250.45C74.3,-238.32 72.78,-221.82 71.5,-207.92"/>
<polygon fill="red" stroke="red" points="74.98,-207.55 70.58,-197.91 68.01,-208.19 74.98,-207.55"/>
</g>
<!-- 9 -->
<g id="node10" class="node">
<title>9</title>
<ellipse fill="none" stroke="black" cx="157" cy="-179.8" rx="27" ry="18"/>
<text text-anchor="start" x="150" y="-176.6" font-family="Times,serif" font-size="14.00">x</text>
<text text-anchor="start" x="157" y="-176.6" font-family="Times,serif" baseline-shift="sub" font-size="14.00">1</text>
<g id="a_node10_50"><a xlink:href="C:\Users\turco\OneDrive\Desktop\ProgettoIntelligentWeb\Progetto\graph\lazy\9.txt" xlink:title="Nodo 9: Veicolo , ((Veicolo ⊔ ¬Auto )⊓ (Veicolo ⊔ ¬Bicicletta )⊓ (¬Auto ⊔ &#160;∀ haComponente.Sterzo )⊓ (¬Manubrio ⊔ ¬Sterzo )), (Veicolo ⊔ ¬Bicicletta ), (Veicolo ⊔ ¬Auto ), Bicicletta , ¬Auto , &#160;∀ haComponente.Manubrio , (¬Auto ⊔ &#160;∀ haComponente.Sterzo ), (¬Manubrio ⊔ ¬Sterzo )" target="_blank">
<polygon fill="none" stroke="green" points="81,-134.8 81,-160.8 129,-160.8 129,-134.8 81,-134.8"/>
<text text-anchor="start" x="85.56" y="-143.2" font-family="Times,serif" font-size="14.00"> Label </text>
</a>
</g>
<polygon fill="none" stroke="green" points="80,-133.8 80,-161.8 130,-161.8 130,-133.8 80,-133.8"/>
</g>
<!-- 8&#45;&gt;9 -->
<g id="edge9" class="edge">
<title>8&#45;&gt;9</title>
<path fill="none" stroke="black" d="M153.79,-250.45C154.35,-238.32 155.11,-221.82 155.75,-207.92"/>
<polygon fill="black" stroke="black" points="159.25,-208.06 156.21,-197.91 152.25,-207.74 159.25,-208.06"/>
<text text-anchor="middle" x="160.25" y="-220" font-family="Times,serif" font-size="14.00">⊔</text>
</g>
<!-- 10 -->
<g id="node11" class="node">
<title>10</title>
<ellipse fill="none" stroke="black" cx="157" cy="-91" rx="27" ry="18"/>
<text text-anchor="start" x="150" y="-87.8" font-family="Times,serif" font-size="14.00">x</text>
<text text-anchor="start" x="157" y="-87.8" font-family="Times,serif" baseline-shift="sub" font-size="14.00">1</text>
<g id="a_node11_51"><a xlink:href="C:\Users\turco\OneDrive\Desktop\ProgettoIntelligentWeb\Progetto\graph\lazy\10.txt" xlink:title="Nodo 10: Veicolo , ((Veicolo ⊔ ¬Auto )⊓ (Veicolo ⊔ ¬Bicicletta )⊓ (¬Auto ⊔ &#160;∀ haComponente.Sterzo )⊓ (¬Manubrio ⊔ ¬Sterzo )), (Veicolo ⊔ ¬Bicicletta ), (Veicolo ⊔ ¬Auto ), Bicicletta , ¬Manubrio , ¬Auto , &#160;∀ haComponente.Manubrio , (¬Auto ⊔ &#160;∀ haComponente.Sterzo ), (¬Manubrio ⊔ ¬Sterzo )" target="_blank">
<polygon fill="none" stroke="green" points="81,-74 81,-100 129,-100 129,-74 81,-74"/>
<text text-anchor="start" x="85.56" y="-82.4" font-family="Times,serif" font-size="14.00"> Label </text>
</a>
</g>
<polygon fill="none" stroke="green" points="80,-73 80,-101 130,-101 130,-73 80,-73"/>
</g>
<!-- 9&#45;&gt;10 -->
<g id="edge10" class="edge">
<title>9&#45;&gt;10</title>
<path fill="none" stroke="black" d="M157,-161.65C157,-149.52 157,-133.02 157,-119.12"/>
<polygon fill="black" stroke="black" points="160.5,-119.11 157,-109.11 153.5,-119.11 160.5,-119.11"/>
<text text-anchor="middle" x="162.25" y="-131.2" font-family="Times,serif" font-size="14.00">⊔</text>
</g>
<!-- 11 -->
<g id="node12" class="node">
<title>11</title>
<ellipse fill="none" stroke="black" cx="157" cy="-18" rx="69.52" ry="18"/>
<text text-anchor="start" x="114.62" y="-13.8" font-family="Times,serif" font-size="14.00">CLASH&#45;FREE</text>
</g>
<!-- 10&#45;&gt;11 -->
<g id="edge11" class="edge">
<title>10&#45;&gt;11</title>
<path fill="none" stroke="green" d="M157,-72.81C157,-64.79 157,-55.05 157,-46.07"/>
<polygon fill="green" stroke="green" points="160.5,-46.03 157,-36.03 153.5,-46.03 160.5,-46.03"/>
</g>
</g>
</svg>
