<svg width="413px" height="500px"
 viewBox="0.00 0.00 412.76 500.20" xmlns="http://www.w3.org/2000/svg" xmlns:xlink="http://www.w3.org/1999/xlink">
<g id="graph0" class="graph" transform="scale(1.0 1.0) rotate(0.0) translate(4.0 496.2)">
<title>tableaux</title>
<polygon fill="white" stroke="transparent" points="-4,4 -4,-496.2 408.76,-496.2 408.76,4 -4,4"/>
<!-- 118 -->
<g id="node1" class="node">
<title>118</title>
<ellipse fill="none" stroke="black" cx="113" cy="-446.2" rx="27" ry="18"/>
<text text-anchor="start" x="106" y="-443" font-family="Times,serif" font-size="14.00">x</text>
<text text-anchor="start" x="113" y="-443" font-family="Times,serif" baseline-shift="sub" font-size="14.00">0</text>
<g id="a_node1_79"><a xlink:href="C:\Users\checc\Desktop\ProgettoIntelligentWeb\Progetto\graph\lazy\118.txt" xlink:title="Clicca per visualizzare Lx" target="_blank">
<polygon fill="none" stroke="green" points="37,-465.2 37,-491.2 85,-491.2 85,-465.2 37,-465.2"/>
<text text-anchor="start" x="41.56" y="-473.6" font-family="Times,serif" font-size="14.00"> Label </text>
</a>
</g>
<polygon fill="none" stroke="green" points="36,-464.2 36,-492.2 86,-492.2 86,-464.2 36,-464.2"/>
</g>
<!-- 119 -->
<g id="node2" class="node">
<title>119</title>
<ellipse fill="none" stroke="black" cx="77" cy="-357.4" rx="27" ry="18"/>
<text text-anchor="start" x="70" y="-354.2" font-family="Times,serif" font-size="14.00">x</text>
<text text-anchor="start" x="77" y="-354.2" font-family="Times,serif" baseline-shift="sub" font-size="14.00">0</text>
<g id="a_node2_80"><a xlink:href="C:\Users\checc\Desktop\ProgettoIntelligentWeb\Progetto\graph\lazy\119.txt" xlink:title="Clicca per visualizzare Lx" target="_blank">
<polygon fill="none" stroke="green" points="1,-376.4 1,-402.4 49,-402.4 49,-376.4 1,-376.4"/>
<text text-anchor="start" x="5.56" y="-384.8" font-family="Times,serif" font-size="14.00"> Label </text>
</a>
</g>
<polygon fill="none" stroke="green" points="0,-375.4 0,-403.4 50,-403.4 50,-375.4 0,-375.4"/>
</g>
<!-- 118&#45;&gt;119 -->
<g id="edge2" class="edge">
<title>118&#45;&gt;119</title>
<path fill="none" stroke="black" d="M100.08,-430.01C95.66,-424.14 91.07,-417.17 88,-410.2 84.65,-402.59 82.3,-393.9 80.65,-385.84"/>
<polygon fill="black" stroke="black" points="84.06,-384.98 78.87,-375.74 77.16,-386.2 84.06,-384.98"/>
<text text-anchor="middle" x="106.5" y="-397.6" font-family="Times,serif" font-size="14.00">Union</text>
</g>
<!-- 121 -->
<g id="node4" class="node">
<title>121</title>
<ellipse fill="none" stroke="black" cx="157" cy="-357.4" rx="27" ry="18"/>
<text text-anchor="start" x="150" y="-354.2" font-family="Times,serif" font-size="14.00">x</text>
<text text-anchor="start" x="157" y="-354.2" font-family="Times,serif" baseline-shift="sub" font-size="14.00">0</text>
<g id="a_node4_81"><a xlink:href="C:\Users\checc\Desktop\ProgettoIntelligentWeb\Progetto\graph\lazy\121.txt" xlink:title="Clicca per visualizzare Lx" target="_blank">
<polygon fill="none" stroke="green" points="81,-312.4 81,-338.4 129,-338.4 129,-312.4 81,-312.4"/>
<text text-anchor="start" x="85.56" y="-320.8" font-family="Times,serif" font-size="14.00"> Label </text>
</a>
</g>
<polygon fill="none" stroke="green" points="80,-311.4 80,-339.4 130,-339.4 130,-311.4 80,-311.4"/>
</g>
<!-- 118&#45;&gt;121 -->
<g id="edge1" class="edge">
<title>118&#45;&gt;121</title>
<path fill="none" stroke="black" d="M121.28,-428.87C127.73,-416.14 136.8,-398.24 144.19,-383.66"/>
<polygon fill="black" stroke="black" points="147.36,-385.16 148.76,-374.65 141.12,-381.99 147.36,-385.16"/>
<text text-anchor="middle" x="156.5" y="-397.6" font-family="Times,serif" font-size="14.00">Union</text>
</g>
<!-- 120 -->
<g id="node3" class="node">
<title>120</title>
<ellipse fill="none" stroke="black" cx="69" cy="-268.6" rx="42.88" ry="18"/>
<text text-anchor="start" x="46.06" y="-264.4" font-family="Times,serif" font-size="14.00">CLASH</text>
</g>
<!-- 119&#45;&gt;120 -->
<g id="edge3" class="edge">
<title>119&#45;&gt;120</title>
<path fill="none" stroke="red" d="M75.42,-339.25C74.3,-327.12 72.78,-310.62 71.5,-296.72"/>
<polygon fill="red" stroke="red" points="74.98,-296.35 70.58,-286.71 68.01,-296.99 74.98,-296.35"/>
</g>
<!-- 122 -->
<g id="node5" class="node">
<title>122</title>
<ellipse fill="none" stroke="black" cx="157" cy="-268.6" rx="27" ry="18"/>
<text text-anchor="start" x="150" y="-265.4" font-family="Times,serif" font-size="14.00">x</text>
<text text-anchor="start" x="157" y="-265.4" font-family="Times,serif" baseline-shift="sub" font-size="14.00">0</text>
<g id="a_node5_82"><a xlink:href="C:\Users\checc\Desktop\ProgettoIntelligentWeb\Progetto\graph\lazy\122.txt" xlink:title="Clicca per visualizzare Lx" target="_blank">
<polygon fill="none" stroke="green" points="81,-223.6 81,-249.6 129,-249.6 129,-223.6 81,-223.6"/>
<text text-anchor="start" x="85.56" y="-232" font-family="Times,serif" font-size="14.00"> Label </text>
</a>
</g>
<polygon fill="none" stroke="green" points="80,-222.6 80,-250.6 130,-250.6 130,-222.6 80,-222.6"/>
</g>
<!-- 121&#45;&gt;122 -->
<g id="edge5" class="edge">
<title>121&#45;&gt;122</title>
<path fill="none" stroke="black" d="M157,-339.25C157,-327.12 157,-310.62 157,-296.72"/>
<polygon fill="black" stroke="black" points="160.5,-296.71 157,-286.71 153.5,-296.71 160.5,-296.71"/>
<text text-anchor="middle" x="174.5" y="-308.8" font-family="Times,serif" font-size="14.00">Union</text>
</g>
<!-- 124 -->
<g id="node7" class="node">
<title>124</title>
<ellipse fill="none" stroke="black" cx="237" cy="-268.6" rx="27" ry="18"/>
<text text-anchor="start" x="230" y="-265.4" font-family="Times,serif" font-size="14.00">x</text>
<text text-anchor="start" x="237" y="-265.4" font-family="Times,serif" baseline-shift="sub" font-size="14.00">0</text>
<g id="a_node7_83"><a xlink:href="C:\Users\checc\Desktop\ProgettoIntelligentWeb\Progetto\graph\lazy\124.txt" xlink:title="Clicca per visualizzare Lx" target="_blank">
<polygon fill="none" stroke="green" points="161,-223.6 161,-249.6 209,-249.6 209,-223.6 161,-223.6"/>
<text text-anchor="start" x="165.56" y="-232" font-family="Times,serif" font-size="14.00"> Label </text>
</a>
</g>
<polygon fill="none" stroke="green" points="160,-222.6 160,-250.6 210,-250.6 210,-222.6 160,-222.6"/>
</g>
<!-- 121&#45;&gt;124 -->
<g id="edge4" class="edge">
<title>121&#45;&gt;124</title>
<path fill="none" stroke="black" d="M173.51,-342.68C180.68,-336.45 189.02,-328.82 196,-321.4 204.21,-312.66 212.56,-302.42 219.56,-293.36"/>
<polygon fill="black" stroke="black" points="222.55,-295.2 225.81,-285.12 216.97,-290.97 222.55,-295.2"/>
<text text-anchor="middle" x="228.5" y="-308.8" font-family="Times,serif" font-size="14.00">Union</text>
</g>
<!-- 123 -->
<g id="node6" class="node">
<title>123</title>
<ellipse fill="none" stroke="black" cx="149" cy="-179.8" rx="42.88" ry="18"/>
<text text-anchor="start" x="126.06" y="-175.6" font-family="Times,serif" font-size="14.00">CLASH</text>
</g>
<!-- 122&#45;&gt;123 -->
<g id="edge6" class="edge">
<title>122&#45;&gt;123</title>
<path fill="none" stroke="red" d="M155.42,-250.45C154.3,-238.32 152.78,-221.82 151.5,-207.92"/>
<polygon fill="red" stroke="red" points="154.98,-207.55 150.58,-197.91 148.01,-208.19 154.98,-207.55"/>
</g>
<!-- 125 -->
<g id="node8" class="node">
<title>125</title>
<ellipse fill="none" stroke="black" cx="237" cy="-179.8" rx="27" ry="18"/>
<text text-anchor="start" x="230" y="-176.6" font-family="Times,serif" font-size="14.00">x</text>
<text text-anchor="start" x="237" y="-176.6" font-family="Times,serif" baseline-shift="sub" font-size="14.00">0</text>
<g id="a_node8_84"><a xlink:href="C:\Users\checc\Desktop\ProgettoIntelligentWeb\Progetto\graph\lazy\125.txt" xlink:title="Clicca per visualizzare Lx" target="_blank">
<polygon fill="none" stroke="green" points="161,-134.8 161,-160.8 209,-160.8 209,-134.8 161,-134.8"/>
<text text-anchor="start" x="165.56" y="-143.2" font-family="Times,serif" font-size="14.00"> Label </text>
</a>
</g>
<polygon fill="none" stroke="green" points="160,-133.8 160,-161.8 210,-161.8 210,-133.8 160,-133.8"/>
</g>
<!-- 124&#45;&gt;125 -->
<g id="edge8" class="edge">
<title>124&#45;&gt;125</title>
<path fill="none" stroke="black" d="M237,-250.45C237,-238.32 237,-221.82 237,-207.92"/>
<polygon fill="black" stroke="black" points="240.5,-207.91 237,-197.91 233.5,-207.91 240.5,-207.91"/>
<text text-anchor="middle" x="254.5" y="-220" font-family="Times,serif" font-size="14.00">Union</text>
</g>
<!-- 127 -->
<g id="node10" class="node">
<title>127</title>
<ellipse fill="none" stroke="black" cx="317" cy="-179.8" rx="27" ry="18"/>
<text text-anchor="start" x="310" y="-176.6" font-family="Times,serif" font-size="14.00">x</text>
<text text-anchor="start" x="317" y="-176.6" font-family="Times,serif" baseline-shift="sub" font-size="14.00">0</text>
<g id="a_node10_85"><a xlink:href="C:\Users\checc\Desktop\ProgettoIntelligentWeb\Progetto\graph\lazy\127.txt" xlink:title="Clicca per visualizzare Lx" target="_blank">
<polygon fill="none" stroke="green" points="241,-134.8 241,-160.8 289,-160.8 289,-134.8 241,-134.8"/>
<text text-anchor="start" x="245.56" y="-143.2" font-family="Times,serif" font-size="14.00"> Label </text>
</a>
</g>
<polygon fill="none" stroke="green" points="240,-133.8 240,-161.8 290,-161.8 290,-133.8 240,-133.8"/>
</g>
<!-- 124&#45;&gt;127 -->
<g id="edge7" class="edge">
<title>124&#45;&gt;127</title>
<path fill="none" stroke="black" d="M253.51,-253.88C260.68,-247.65 269.02,-240.02 276,-232.6 284.21,-223.86 292.56,-213.62 299.56,-204.56"/>
<polygon fill="black" stroke="black" points="302.55,-206.4 305.81,-196.32 296.97,-202.17 302.55,-206.4"/>
<text text-anchor="middle" x="307.5" y="-220" font-family="Times,serif" font-size="14.00">Union</text>
</g>
<!-- 126 -->
<g id="node9" class="node">
<title>126</title>
<ellipse fill="none" stroke="black" cx="235" cy="-91" rx="42.88" ry="18"/>
<text text-anchor="start" x="212.06" y="-86.8" font-family="Times,serif" font-size="14.00">CLASH</text>
</g>
<!-- 125&#45;&gt;126 -->
<g id="edge9" class="edge">
<title>125&#45;&gt;126</title>
<path fill="none" stroke="red" d="M236.6,-161.65C236.33,-149.52 235.95,-133.02 235.62,-119.12"/>
<polygon fill="red" stroke="red" points="239.12,-119.03 235.39,-109.11 232.13,-119.19 239.12,-119.03"/>
</g>
<!-- 128 -->
<g id="node11" class="node">
<title>128</title>
<ellipse fill="none" stroke="black" cx="323" cy="-91" rx="27" ry="18"/>
<text text-anchor="start" x="316" y="-87.8" font-family="Times,serif" font-size="14.00">x</text>
<text text-anchor="start" x="323" y="-87.8" font-family="Times,serif" baseline-shift="sub" font-size="14.00">1</text>
<g id="a_node11_86"><a xlink:href="C:\Users\checc\Desktop\ProgettoIntelligentWeb\Progetto\graph\lazy\128.txt" xlink:title="Clicca per visualizzare Lx" target="_blank">
<polygon fill="none" stroke="green" points="247,-46 247,-72 295,-72 295,-46 247,-46"/>
<text text-anchor="start" x="251.56" y="-54.4" font-family="Times,serif" font-size="14.00"> Label </text>
</a>
</g>
<polygon fill="none" stroke="green" points="246,-45 246,-73 296,-73 296,-45 246,-45"/>
</g>
<!-- 127&#45;&gt;128 -->
<g id="edge10" class="edge">
<title>127&#45;&gt;128</title>
<path fill="none" stroke="black" d="M318.19,-161.65C319.02,-149.52 320.16,-133.02 321.13,-119.12"/>
<polygon fill="black" stroke="black" points="324.62,-119.33 321.82,-109.11 317.64,-118.85 324.62,-119.33"/>
<text text-anchor="middle" x="362.38" y="-131.2" font-family="Times,serif" font-size="14.00">haComponente</text>
</g>
<!-- 129 -->
<g id="node12" class="node">
<title>129</title>
<ellipse fill="none" stroke="black" cx="323" cy="-18" rx="42.88" ry="18"/>
<text text-anchor="start" x="300.06" y="-13.8" font-family="Times,serif" font-size="14.00">CLASH</text>
</g>
<!-- 128&#45;&gt;129 -->
<g id="edge11" class="edge">
<title>128&#45;&gt;129</title>
<path fill="none" stroke="red" d="M323,-72.81C323,-64.79 323,-55.05 323,-46.07"/>
<polygon fill="red" stroke="red" points="326.5,-46.03 323,-36.03 319.5,-46.03 326.5,-46.03"/>
</g>
</g>
</svg>
