<svg width="105px" height="238px"
 viewBox="0.00 0.00 105.37 237.80" xmlns="http://www.w3.org/2000/svg" xmlns:xlink="http://www.w3.org/1999/xlink">
<g id="graph0" class="graph" transform="scale(1.0 1.0) rotate(0.0) translate(4.0 233.8)">
<title>tableaux</title>
<polygon fill="white" stroke="transparent" points="-4,4 -4,-233.8 101.37,-233.8 101.37,4 -4,4"/>
<!-- 0 -->
<g id="node1" class="node">
<title>0</title>
<ellipse fill="none" stroke="black" cx="54.69" cy="-179.8" rx="27" ry="18"/>
<text text-anchor="middle" x="54.69" y="-175.6" font-family="Times,serif" font-size="14.00">x0</text>
</g>
<!-- 1 -->
<g id="node2" class="node">
<title>1</title>
<ellipse fill="none" stroke="black" cx="54.69" cy="-91" rx="27" ry="18"/>
<text text-anchor="start" x="44.19" y="-86.8" font-family="Times,serif" font-size="14.00">x01</text>
<polygon fill="none" stroke="black" points="18.69,-112 18.69,-118 24.69,-118 24.69,-112 18.69,-112"/>
<polygon fill="none" stroke="black" points="15.69,-109 15.69,-121 27.69,-121 27.69,-109 15.69,-109"/>
</g>
<!-- 0&#45;&gt;1 -->
<g id="edge1" class="edge">
<title>0&#45;&gt;1</title>
<path fill="none" stroke="black" d="M54.69,-161.65C54.69,-149.52 54.69,-133.02 54.69,-119.12"/>
<polygon fill="black" stroke="black" points="58.19,-119.11 54.69,-109.11 51.19,-119.11 58.19,-119.11"/>
<text text-anchor="middle" x="59.36" y="-131.2" font-family="Times,serif" font-size="14.00">R</text>
</g>
<!-- 2 -->
<g id="node3" class="node">
<title>2</title>
<ellipse fill="none" stroke="black" cx="54.69" cy="-18" rx="42.88" ry="18"/>
<text text-anchor="start" x="31.74" y="-13.8" font-family="Times,serif" font-size="14.00">CLASH</text>
<polygon fill="none" stroke="black" points="3,-39 3,-45 9,-45 9,-39 3,-39"/>
<polygon fill="none" stroke="black" points="0,-36 0,-48 12,-48 12,-36 0,-36"/>
</g>
<!-- 1&#45;&gt;2 -->
<g id="edge2" class="edge">
<title>1&#45;&gt;2</title>
<path fill="none" stroke="black" d="M54.69,-72.81C54.69,-64.79 54.69,-55.05 54.69,-46.07"/>
<polygon fill="black" stroke="black" points="58.19,-46.03 54.69,-36.03 51.19,-46.03 58.19,-46.03"/>
</g>
</g>
</svg>
