<svg width="318px" height="1014px"
 viewBox="0.00 0.00 318.00 1014.00" xmlns="http://www.w3.org/2000/svg" xmlns:xlink="http://www.w3.org/1999/xlink">
<g id="graph0" class="graph" transform="scale(1.0 1.0) rotate(0.0) translate(4.0 1010.0)">
<title>tableaux</title>
<polygon fill="white" stroke="transparent" points="-4,4 -4,-1010 314,-1010 314,4 -4,4"/>
<!-- 17 -->
<g id="node1" class="node">
<title>17</title>
<ellipse fill="none" stroke="black" cx="113" cy="-961" rx="27" ry="18"/>
<text text-anchor="start" x="106" y="-958.3" font-family="Times New Roman,serif" font-size="14.00">x</text>
<text text-anchor="start" x="113" y="-958.3" font-family="Times New Roman,serif" baseline-shift="sub" font-size="14.00">0</text>
<g id="a_node1_0"><a xlink:href="C:\Users\Mario\Desktop\ProgettoIntelligentWeb\Progetto\graph\lazy\17.txt" xlink:title="Clicca per visualizzare Lx" target="_blank">
<polygon fill="none" stroke="green" points="36.5,-979.5 36.5,-1004.5 85.5,-1004.5 85.5,-979.5 36.5,-979.5"/>
<text text-anchor="start" x="41.5" y="-988.3" font-family="Times New Roman,serif" font-size="14.00"> Label </text>
</a>
</g>
<polygon fill="none" stroke="green" points="35,-979 35,-1006 86,-1006 86,-979 35,-979"/>
</g>
<!-- 18 -->
<g id="node2" class="node">
<title>18</title>
<ellipse fill="none" stroke="black" cx="113" cy="-874" rx="27" ry="18"/>
<text text-anchor="start" x="106" y="-871.3" font-family="Times New Roman,serif" font-size="14.00">x</text>
<text text-anchor="start" x="113" y="-871.3" font-family="Times New Roman,serif" baseline-shift="sub" font-size="14.00">0</text>
<g id="a_node2_1"><a xlink:href="C:\Users\Mario\Desktop\ProgettoIntelligentWeb\Progetto\graph\lazy\18.txt" xlink:title="Clicca per visualizzare Lx" target="_blank">
<polygon fill="none" stroke="green" points="36.5,-892.5 36.5,-917.5 85.5,-917.5 85.5,-892.5 36.5,-892.5"/>
<text text-anchor="start" x="41.5" y="-901.3" font-family="Times New Roman,serif" font-size="14.00"> Label </text>
</a>
</g>
<polygon fill="none" stroke="green" points="35,-892 35,-919 86,-919 86,-892 35,-892"/>
</g>
<!-- 17&#45;&gt;18 -->
<g id="edge1" class="edge">
<title>17&#45;&gt;18</title>
<path fill="none" stroke="black" d="M113,-942.8C113,-931.16 113,-915.55 113,-902.24"/>
<polygon fill="black" stroke="black" points="116.5,-902.18 113,-892.18 109.5,-902.18 116.5,-902.18"/>
<text text-anchor="middle" x="130" y="-913.8" font-family="Times New Roman,serif" font-size="14.00">Union</text>
</g>
<!-- 19 -->
<g id="node3" class="node">
<title>19</title>
<ellipse fill="none" stroke="black" cx="113" cy="-787" rx="27" ry="18"/>
<text text-anchor="start" x="106" y="-784.3" font-family="Times New Roman,serif" font-size="14.00">x</text>
<text text-anchor="start" x="113" y="-784.3" font-family="Times New Roman,serif" baseline-shift="sub" font-size="14.00">0</text>
<g id="a_node3_2"><a xlink:href="C:\Users\Mario\Desktop\ProgettoIntelligentWeb\Progetto\graph\lazy\19.txt" xlink:title="Clicca per visualizzare Lx" target="_blank">
<polygon fill="none" stroke="green" points="36.5,-805.5 36.5,-830.5 85.5,-830.5 85.5,-805.5 36.5,-805.5"/>
<text text-anchor="start" x="41.5" y="-814.3" font-family="Times New Roman,serif" font-size="14.00"> Label </text>
</a>
</g>
<polygon fill="none" stroke="green" points="35,-805 35,-832 86,-832 86,-805 35,-805"/>
</g>
<!-- 18&#45;&gt;19 -->
<g id="edge2" class="edge">
<title>18&#45;&gt;19</title>
<path fill="none" stroke="black" d="M113,-855.8C113,-844.16 113,-828.55 113,-815.24"/>
<polygon fill="black" stroke="black" points="116.5,-815.18 113,-805.18 109.5,-815.18 116.5,-815.18"/>
<text text-anchor="middle" x="130" y="-826.8" font-family="Times New Roman,serif" font-size="14.00">Union</text>
</g>
<!-- 20 -->
<g id="node4" class="node">
<title>20</title>
<ellipse fill="none" stroke="black" cx="78" cy="-700" rx="27" ry="18"/>
<text text-anchor="start" x="71" y="-697.3" font-family="Times New Roman,serif" font-size="14.00">x</text>
<text text-anchor="start" x="78" y="-697.3" font-family="Times New Roman,serif" baseline-shift="sub" font-size="14.00">0</text>
<g id="a_node4_3"><a xlink:href="C:\Users\Mario\Desktop\ProgettoIntelligentWeb\Progetto\graph\lazy\20.txt" xlink:title="Clicca per visualizzare Lx" target="_blank">
<polygon fill="none" stroke="green" points="1.5,-718.5 1.5,-743.5 50.5,-743.5 50.5,-718.5 1.5,-718.5"/>
<text text-anchor="start" x="6.5" y="-727.3" font-family="Times New Roman,serif" font-size="14.00"> Label </text>
</a>
</g>
<polygon fill="none" stroke="green" points="0,-718 0,-745 51,-745 51,-718 0,-718"/>
</g>
<!-- 19&#45;&gt;20 -->
<g id="edge4" class="edge">
<title>19&#45;&gt;20</title>
<path fill="none" stroke="black" d="M101.24,-770.63C97.2,-764.75 92.95,-757.81 90,-751 86.88,-743.79 84.49,-735.63 82.69,-728.02"/>
<polygon fill="black" stroke="black" points="86.09,-727.19 80.6,-718.14 79.24,-728.64 86.09,-727.19"/>
<text text-anchor="middle" x="107" y="-739.8" font-family="Times New Roman,serif" font-size="14.00">Union</text>
</g>
<!-- 22 -->
<g id="node6" class="node">
<title>22</title>
<ellipse fill="none" stroke="black" cx="153" cy="-700" rx="27" ry="18"/>
<text text-anchor="start" x="146" y="-697.3" font-family="Times New Roman,serif" font-size="14.00">x</text>
<text text-anchor="start" x="153" y="-697.3" font-family="Times New Roman,serif" baseline-shift="sub" font-size="14.00">0</text>
<g id="a_node6_4"><a xlink:href="C:\Users\Mario\Desktop\ProgettoIntelligentWeb\Progetto\graph\lazy\22.txt" xlink:title="Clicca per visualizzare Lx" target="_blank">
<polygon fill="none" stroke="green" points="76.5,-655.5 76.5,-680.5 125.5,-680.5 125.5,-655.5 76.5,-655.5"/>
<text text-anchor="start" x="81.5" y="-664.3" font-family="Times New Roman,serif" font-size="14.00"> Label </text>
</a>
</g>
<polygon fill="none" stroke="green" points="75,-655 75,-682 126,-682 126,-655 75,-655"/>
</g>
<!-- 19&#45;&gt;22 -->
<g id="edge3" class="edge">
<title>19&#45;&gt;22</title>
<path fill="none" stroke="black" d="M120.71,-769.61C126.47,-757.38 134.44,-740.44 141.02,-726.46"/>
<polygon fill="black" stroke="black" points="144.22,-727.88 145.31,-717.34 137.89,-724.9 144.22,-727.88"/>
<text text-anchor="middle" x="153" y="-739.8" font-family="Times New Roman,serif" font-size="14.00">Union</text>
</g>
<!-- 21 -->
<g id="node5" class="node">
<title>21</title>
<ellipse fill="none" stroke="black" cx="72" cy="-613" rx="40.09" ry="18"/>
<text text-anchor="start" x="49" y="-609.3" font-family="Times New Roman,serif" font-size="14.00">CLASH</text>
</g>
<!-- 20&#45;&gt;21 -->
<g id="edge5" class="edge">
<title>20&#45;&gt;21</title>
<path fill="none" stroke="red" d="M76.79,-681.8C75.96,-670.16 74.86,-654.55 73.92,-641.24"/>
<polygon fill="red" stroke="red" points="77.41,-640.9 73.21,-631.18 70.43,-641.4 77.41,-640.9"/>
</g>
<!-- 23 -->
<g id="node7" class="node">
<title>23</title>
<ellipse fill="none" stroke="black" cx="157" cy="-613" rx="27" ry="18"/>
<text text-anchor="start" x="150" y="-610.3" font-family="Times New Roman,serif" font-size="14.00">x</text>
<text text-anchor="start" x="157" y="-610.3" font-family="Times New Roman,serif" baseline-shift="sub" font-size="14.00">0</text>
<g id="a_node7_5"><a xlink:href="C:\Users\Mario\Desktop\ProgettoIntelligentWeb\Progetto\graph\lazy\23.txt" xlink:title="Clicca per visualizzare Lx" target="_blank">
<polygon fill="none" stroke="green" points="80.5,-568.5 80.5,-593.5 129.5,-593.5 129.5,-568.5 80.5,-568.5"/>
<text text-anchor="start" x="85.5" y="-577.3" font-family="Times New Roman,serif" font-size="14.00"> Label </text>
</a>
</g>
<polygon fill="none" stroke="green" points="79,-568 79,-595 130,-595 130,-568 79,-568"/>
</g>
<!-- 22&#45;&gt;23 -->
<g id="edge6" class="edge">
<title>22&#45;&gt;23</title>
<path fill="none" stroke="black" d="M153.81,-681.8C154.36,-670.16 155.09,-654.55 155.72,-641.24"/>
<polygon fill="black" stroke="black" points="159.22,-641.33 156.19,-631.18 152.23,-641 159.22,-641.33"/>
<text text-anchor="middle" x="173" y="-652.8" font-family="Times New Roman,serif" font-size="14.00">Union</text>
</g>
<!-- 24 -->
<g id="node8" class="node">
<title>24</title>
<ellipse fill="none" stroke="black" cx="157" cy="-526" rx="27" ry="18"/>
<text text-anchor="start" x="147" y="-523.3" font-family="Times New Roman,serif" font-size="14.00">x</text>
<text text-anchor="start" x="154" y="-523.3" font-family="Times New Roman,serif" baseline-shift="sub" font-size="14.00">01</text>
<g id="a_node8_6"><a xlink:href="C:\Users\Mario\Desktop\ProgettoIntelligentWeb\Progetto\graph\lazy\24.txt" xlink:title="Clicca per visualizzare Lx" target="_blank">
<polygon fill="none" stroke="green" points="80.5,-508.5 80.5,-533.5 129.5,-533.5 129.5,-508.5 80.5,-508.5"/>
<text text-anchor="start" x="85.5" y="-517.3" font-family="Times New Roman,serif" font-size="14.00"> Label </text>
</a>
</g>
<polygon fill="none" stroke="green" points="79,-508 79,-535 130,-535 130,-508 79,-508"/>
</g>
<!-- 23&#45;&gt;24 -->
<g id="edge7" class="edge">
<title>23&#45;&gt;24</title>
<path fill="none" stroke="black" d="M157,-594.8C157,-583.16 157,-567.55 157,-554.24"/>
<polygon fill="black" stroke="black" points="160.5,-554.18 157,-544.18 153.5,-554.18 160.5,-554.18"/>
<text text-anchor="middle" x="162" y="-565.8" font-family="Times New Roman,serif" font-size="14.00">R</text>
</g>
<!-- 25 -->
<g id="node9" class="node">
<title>25</title>
<ellipse fill="none" stroke="black" cx="157" cy="-439" rx="27" ry="18"/>
<text text-anchor="start" x="147" y="-436.3" font-family="Times New Roman,serif" font-size="14.00">x</text>
<text text-anchor="start" x="154" y="-436.3" font-family="Times New Roman,serif" baseline-shift="sub" font-size="14.00">01</text>
<g id="a_node9_7"><a xlink:href="C:\Users\Mario\Desktop\ProgettoIntelligentWeb\Progetto\graph\lazy\25.txt" xlink:title="Clicca per visualizzare Lx" target="_blank">
<polygon fill="none" stroke="green" points="80.5,-457.5 80.5,-482.5 129.5,-482.5 129.5,-457.5 80.5,-457.5"/>
<text text-anchor="start" x="85.5" y="-466.3" font-family="Times New Roman,serif" font-size="14.00"> Label </text>
</a>
</g>
<polygon fill="none" stroke="green" points="79,-457 79,-484 130,-484 130,-457 79,-457"/>
</g>
<!-- 24&#45;&gt;25 -->
<g id="edge8" class="edge">
<title>24&#45;&gt;25</title>
<path fill="none" stroke="black" d="M157,-507.8C157,-496.16 157,-480.55 157,-467.24"/>
<polygon fill="black" stroke="black" points="160.5,-467.18 157,-457.18 153.5,-467.18 160.5,-467.18"/>
<text text-anchor="middle" x="174" y="-478.8" font-family="Times New Roman,serif" font-size="14.00">Union</text>
</g>
<!-- 26 -->
<g id="node10" class="node">
<title>26</title>
<ellipse fill="none" stroke="black" cx="157" cy="-352" rx="27" ry="18"/>
<text text-anchor="start" x="147" y="-349.3" font-family="Times New Roman,serif" font-size="14.00">x</text>
<text text-anchor="start" x="154" y="-349.3" font-family="Times New Roman,serif" baseline-shift="sub" font-size="14.00">01</text>
<g id="a_node10_8"><a xlink:href="C:\Users\Mario\Desktop\ProgettoIntelligentWeb\Progetto\graph\lazy\26.txt" xlink:title="Clicca per visualizzare Lx" target="_blank">
<polygon fill="none" stroke="green" points="80.5,-370.5 80.5,-395.5 129.5,-395.5 129.5,-370.5 80.5,-370.5"/>
<text text-anchor="start" x="85.5" y="-379.3" font-family="Times New Roman,serif" font-size="14.00"> Label </text>
</a>
</g>
<polygon fill="none" stroke="green" points="79,-370 79,-397 130,-397 130,-370 79,-370"/>
</g>
<!-- 25&#45;&gt;26 -->
<g id="edge9" class="edge">
<title>25&#45;&gt;26</title>
<path fill="none" stroke="black" d="M157,-420.8C157,-409.16 157,-393.55 157,-380.24"/>
<polygon fill="black" stroke="black" points="160.5,-380.18 157,-370.18 153.5,-380.18 160.5,-380.18"/>
<text text-anchor="middle" x="174" y="-391.8" font-family="Times New Roman,serif" font-size="14.00">Union</text>
</g>
<!-- 27 -->
<g id="node11" class="node">
<title>27</title>
<ellipse fill="none" stroke="black" cx="122" cy="-265" rx="27" ry="18"/>
<text text-anchor="start" x="112" y="-262.3" font-family="Times New Roman,serif" font-size="14.00">x</text>
<text text-anchor="start" x="119" y="-262.3" font-family="Times New Roman,serif" baseline-shift="sub" font-size="14.00">01</text>
<g id="a_node11_9"><a xlink:href="C:\Users\Mario\Desktop\ProgettoIntelligentWeb\Progetto\graph\lazy\27.txt" xlink:title="Clicca per visualizzare Lx" target="_blank">
<polygon fill="none" stroke="green" points="45.5,-283.5 45.5,-308.5 94.5,-308.5 94.5,-283.5 45.5,-283.5"/>
<text text-anchor="start" x="50.5" y="-292.3" font-family="Times New Roman,serif" font-size="14.00"> Label </text>
</a>
</g>
<polygon fill="none" stroke="green" points="44,-283 44,-310 95,-310 95,-283 44,-283"/>
</g>
<!-- 26&#45;&gt;27 -->
<g id="edge11" class="edge">
<title>26&#45;&gt;27</title>
<path fill="none" stroke="black" d="M145.24,-335.63C141.2,-329.75 136.95,-322.81 134,-316 130.88,-308.79 128.49,-300.63 126.69,-293.02"/>
<polygon fill="black" stroke="black" points="130.09,-292.19 124.6,-283.14 123.24,-293.64 130.09,-292.19"/>
<text text-anchor="middle" x="151" y="-304.8" font-family="Times New Roman,serif" font-size="14.00">Union</text>
</g>
<!-- 29 -->
<g id="node13" class="node">
<title>29</title>
<ellipse fill="none" stroke="black" cx="200" cy="-265" rx="27" ry="18"/>
<text text-anchor="start" x="190" y="-262.3" font-family="Times New Roman,serif" font-size="14.00">x</text>
<text text-anchor="start" x="197" y="-262.3" font-family="Times New Roman,serif" baseline-shift="sub" font-size="14.00">01</text>
<g id="a_node13_10"><a xlink:href="C:\Users\Mario\Desktop\ProgettoIntelligentWeb\Progetto\graph\lazy\29.txt" xlink:title="Clicca per visualizzare Lx" target="_blank">
<polygon fill="none" stroke="green" points="123.5,-220.5 123.5,-245.5 172.5,-245.5 172.5,-220.5 123.5,-220.5"/>
<text text-anchor="start" x="128.5" y="-229.3" font-family="Times New Roman,serif" font-size="14.00"> Label </text>
</a>
</g>
<polygon fill="none" stroke="green" points="122,-220 122,-247 173,-247 173,-220 122,-220"/>
</g>
<!-- 26&#45;&gt;29 -->
<g id="edge10" class="edge">
<title>26&#45;&gt;29</title>
<path fill="none" stroke="black" d="M165.29,-334.61C171.48,-322.38 180.05,-305.44 187.12,-291.46"/>
<polygon fill="black" stroke="black" points="190.34,-292.84 191.73,-282.34 184.1,-289.68 190.34,-292.84"/>
<text text-anchor="middle" x="199" y="-304.8" font-family="Times New Roman,serif" font-size="14.00">Union</text>
</g>
<!-- 28 -->
<g id="node12" class="node">
<title>28</title>
<ellipse fill="none" stroke="black" cx="115" cy="-178" rx="40.09" ry="18"/>
<text text-anchor="start" x="92" y="-174.3" font-family="Times New Roman,serif" font-size="14.00">CLASH</text>
</g>
<!-- 27&#45;&gt;28 -->
<g id="edge12" class="edge">
<title>27&#45;&gt;28</title>
<path fill="none" stroke="red" d="M120.58,-246.8C119.63,-235.16 118.34,-219.55 117.24,-206.24"/>
<polygon fill="red" stroke="red" points="120.72,-205.85 116.41,-196.18 113.75,-206.43 120.72,-205.85"/>
</g>
<!-- 30 -->
<g id="node14" class="node">
<title>30</title>
<ellipse fill="none" stroke="black" cx="200" cy="-178" rx="27" ry="18"/>
<text text-anchor="start" x="190" y="-175.3" font-family="Times New Roman,serif" font-size="14.00">x</text>
<text text-anchor="start" x="197" y="-175.3" font-family="Times New Roman,serif" baseline-shift="sub" font-size="14.00">01</text>
<g id="a_node14_11"><a xlink:href="C:\Users\Mario\Desktop\ProgettoIntelligentWeb\Progetto\graph\lazy\30.txt" xlink:title="Clicca per visualizzare Lx" target="_blank">
<polygon fill="none" stroke="green" points="123.5,-133.5 123.5,-158.5 172.5,-158.5 172.5,-133.5 123.5,-133.5"/>
<text text-anchor="start" x="128.5" y="-142.3" font-family="Times New Roman,serif" font-size="14.00"> Label </text>
</a>
</g>
<polygon fill="none" stroke="green" points="122,-133 122,-160 173,-160 173,-133 122,-133"/>
</g>
<!-- 29&#45;&gt;30 -->
<g id="edge14" class="edge">
<title>29&#45;&gt;30</title>
<path fill="none" stroke="black" d="M200,-246.8C200,-235.16 200,-219.55 200,-206.24"/>
<polygon fill="black" stroke="black" points="203.5,-206.18 200,-196.18 196.5,-206.18 203.5,-206.18"/>
<text text-anchor="middle" x="217" y="-217.8" font-family="Times New Roman,serif" font-size="14.00">Union</text>
</g>
<!-- 32 -->
<g id="node16" class="node">
<title>32</title>
<ellipse fill="none" stroke="black" cx="275" cy="-178" rx="27" ry="18"/>
<text text-anchor="start" x="265" y="-175.3" font-family="Times New Roman,serif" font-size="14.00">x</text>
<text text-anchor="start" x="272" y="-175.3" font-family="Times New Roman,serif" baseline-shift="sub" font-size="14.00">01</text>
<g id="a_node16_12"><a xlink:href="C:\Users\Mario\Desktop\ProgettoIntelligentWeb\Progetto\graph\lazy\32.txt" xlink:title="Clicca per visualizzare Lx" target="_blank">
<polygon fill="none" stroke="green" points="198.5,-133.5 198.5,-158.5 247.5,-158.5 247.5,-133.5 198.5,-133.5"/>
<text text-anchor="start" x="203.5" y="-142.3" font-family="Times New Roman,serif" font-size="14.00"> Label </text>
</a>
</g>
<polygon fill="none" stroke="green" points="197,-133 197,-160 248,-160 248,-133 197,-133"/>
</g>
<!-- 29&#45;&gt;32 -->
<g id="edge13" class="edge">
<title>29&#45;&gt;32</title>
<path fill="none" stroke="black" d="M216.17,-250.33C223.18,-244.11 231.29,-236.47 238,-229 245.18,-221.01 252.36,-211.68 258.46,-203.26"/>
<polygon fill="black" stroke="black" points="261.46,-205.09 264.39,-194.91 255.75,-201.04 261.46,-205.09"/>
<text text-anchor="middle" x="267" y="-217.8" font-family="Times New Roman,serif" font-size="14.00">Union</text>
</g>
<!-- 31 -->
<g id="node15" class="node">
<title>31</title>
<ellipse fill="none" stroke="black" cx="198" cy="-91" rx="40.09" ry="18"/>
<text text-anchor="start" x="175" y="-87.3" font-family="Times New Roman,serif" font-size="14.00">CLASH</text>
</g>
<!-- 30&#45;&gt;31 -->
<g id="edge15" class="edge">
<title>30&#45;&gt;31</title>
<path fill="none" stroke="red" d="M199.6,-159.8C199.32,-148.16 198.95,-132.55 198.64,-119.24"/>
<polygon fill="red" stroke="red" points="202.14,-119.09 198.4,-109.18 195.14,-119.26 202.14,-119.09"/>
</g>
<!-- 33 -->
<g id="node17" class="node">
<title>33</title>
<ellipse fill="none" stroke="black" cx="283" cy="-91" rx="27" ry="18"/>
<text text-anchor="start" x="273" y="-88.3" font-family="Times New Roman,serif" font-size="14.00">x</text>
<text text-anchor="start" x="280" y="-88.3" font-family="Times New Roman,serif" baseline-shift="sub" font-size="14.00">01</text>
<g id="a_node17_13"><a xlink:href="C:\Users\Mario\Desktop\ProgettoIntelligentWeb\Progetto\graph\lazy\33.txt" xlink:title="Clicca per visualizzare Lx" target="_blank">
<polygon fill="none" stroke="green" points="206.5,-46.5 206.5,-71.5 255.5,-71.5 255.5,-46.5 206.5,-46.5"/>
<text text-anchor="start" x="211.5" y="-55.3" font-family="Times New Roman,serif" font-size="14.00"> Label </text>
</a>
</g>
<polygon fill="none" stroke="green" points="205,-46 205,-73 256,-73 256,-46 205,-46"/>
</g>
<!-- 32&#45;&gt;33 -->
<g id="edge16" class="edge">
<title>32&#45;&gt;33</title>
<path fill="none" stroke="black" d="M276.62,-159.8C277.71,-148.16 279.18,-132.55 280.44,-119.24"/>
<polygon fill="black" stroke="black" points="283.93,-119.46 281.38,-109.18 276.96,-118.8 283.93,-119.46"/>
<text text-anchor="middle" x="284" y="-130.8" font-family="Times New Roman,serif" font-size="14.00">R</text>
</g>
<!-- 34 -->
<g id="node18" class="node">
<title>34</title>
<ellipse fill="none" stroke="black" cx="283" cy="-18" rx="27" ry="18"/>
<text text-anchor="start" x="271.5" y="-15.3" font-family="Times New Roman,serif" font-size="14.00">x</text>
<text text-anchor="start" x="278.5" y="-15.3" font-family="Times New Roman,serif" text-decoration="underline" font-size="14.00">_</text>
<text text-anchor="start" x="286.5" y="-15.3" font-family="Times New Roman,serif" font-size="14.00">_</text>
<text text-anchor="start" x="183" y="-3.8" font-family="Times New Roman,serif" font-size="14.00">BLOCKING</text>
</g>
<!-- 33&#45;&gt;34 -->
<g id="edge17" class="edge">
<title>33&#45;&gt;34</title>
<path fill="none" stroke="yellow" d="M283,-72.81C283,-64.79 283,-55.05 283,-46.07"/>
<polygon fill="yellow" stroke="yellow" points="286.5,-46.03 283,-36.03 279.5,-46.03 286.5,-46.03"/>
</g>
</g>
</svg>
