<svg width="347px" height="500px"
 viewBox="0.00 0.00 346.51 500.20" xmlns="http://www.w3.org/2000/svg" xmlns:xlink="http://www.w3.org/1999/xlink">
<g id="graph0" class="graph" transform="scale(1.0 1.0) rotate(0.0) translate(4.0 496.2)">
<title>tableaux</title>
<polygon fill="white" stroke="transparent" points="-4,4 -4,-496.2 342.51,-496.2 342.51,4 -4,4"/>
<!-- 10 -->
<g id="node1" class="node">
<title>10</title>
<ellipse fill="none" stroke="black" cx="113" cy="-446.2" rx="27" ry="18"/>
<text text-anchor="start" x="106" y="-443" font-family="Times,serif" font-size="14.00">x</text>
<text text-anchor="start" x="113" y="-443" font-family="Times,serif" baseline-shift="sub" font-size="14.00">0</text>
<g id="a_node1_7"><a xlink:href="C:\Users\turco\OneDrive\Desktop\ProgettoIntelligentWeb\Progetto\graph\lazy\10.txt" xlink:title="Clicca per visualizzare Lx" target="_blank">
<polygon fill="none" stroke="green" points="37,-465.2 37,-491.2 85,-491.2 85,-465.2 37,-465.2"/>
<text text-anchor="start" x="41.56" y="-473.6" font-family="Times,serif" font-size="14.00"> Label </text>
</a>
</g>
<polygon fill="none" stroke="green" points="36,-464.2 36,-492.2 86,-492.2 86,-464.2 36,-464.2"/>
</g>
<!-- 11 -->
<g id="node2" class="node">
<title>11</title>
<ellipse fill="none" stroke="black" cx="113" cy="-357.4" rx="27" ry="18"/>
<text text-anchor="start" x="106" y="-354.2" font-family="Times,serif" font-size="14.00">x</text>
<text text-anchor="start" x="113" y="-354.2" font-family="Times,serif" baseline-shift="sub" font-size="14.00">0</text>
<g id="a_node2_8"><a xlink:href="C:\Users\turco\OneDrive\Desktop\ProgettoIntelligentWeb\Progetto\graph\lazy\11.txt" xlink:title="Clicca per visualizzare Lx" target="_blank">
<polygon fill="none" stroke="green" points="37,-376.4 37,-402.4 85,-402.4 85,-376.4 37,-376.4"/>
<text text-anchor="start" x="41.56" y="-384.8" font-family="Times,serif" font-size="14.00"> Label </text>
</a>
</g>
<polygon fill="none" stroke="green" points="36,-375.4 36,-403.4 86,-403.4 86,-375.4 36,-375.4"/>
</g>
<!-- 10&#45;&gt;11 -->
<g id="edge1" class="edge">
<title>10&#45;&gt;11</title>
<path fill="none" stroke="black" d="M113,-428.05C113,-415.92 113,-399.42 113,-385.52"/>
<polygon fill="black" stroke="black" points="116.5,-385.51 113,-375.51 109.5,-385.51 116.5,-385.51"/>
<text text-anchor="middle" x="130.5" y="-397.6" font-family="Times,serif" font-size="14.00">Union</text>
</g>
<!-- 12 -->
<g id="node3" class="node">
<title>12</title>
<ellipse fill="none" stroke="black" cx="113" cy="-268.6" rx="27" ry="18"/>
<text text-anchor="start" x="106" y="-265.4" font-family="Times,serif" font-size="14.00">x</text>
<text text-anchor="start" x="113" y="-265.4" font-family="Times,serif" baseline-shift="sub" font-size="14.00">0</text>
<g id="a_node3_9"><a xlink:href="C:\Users\turco\OneDrive\Desktop\ProgettoIntelligentWeb\Progetto\graph\lazy\12.txt" xlink:title="Clicca per visualizzare Lx" target="_blank">
<polygon fill="none" stroke="green" points="37,-287.6 37,-313.6 85,-313.6 85,-287.6 37,-287.6"/>
<text text-anchor="start" x="41.56" y="-296" font-family="Times,serif" font-size="14.00"> Label </text>
</a>
</g>
<polygon fill="none" stroke="green" points="36,-286.6 36,-314.6 86,-314.6 86,-286.6 36,-286.6"/>
</g>
<!-- 11&#45;&gt;12 -->
<g id="edge2" class="edge">
<title>11&#45;&gt;12</title>
<path fill="none" stroke="black" d="M113,-339.25C113,-327.12 113,-310.62 113,-296.72"/>
<polygon fill="black" stroke="black" points="116.5,-296.71 113,-286.71 109.5,-296.71 116.5,-296.71"/>
<text text-anchor="middle" x="130.5" y="-308.8" font-family="Times,serif" font-size="14.00">Union</text>
</g>
<!-- 13 -->
<g id="node4" class="node">
<title>13</title>
<ellipse fill="none" stroke="black" cx="77" cy="-179.8" rx="27" ry="18"/>
<text text-anchor="start" x="70" y="-176.6" font-family="Times,serif" font-size="14.00">x</text>
<text text-anchor="start" x="77" y="-176.6" font-family="Times,serif" baseline-shift="sub" font-size="14.00">0</text>
<g id="a_node4_10"><a xlink:href="C:\Users\turco\OneDrive\Desktop\ProgettoIntelligentWeb\Progetto\graph\lazy\13.txt" xlink:title="Clicca per visualizzare Lx" target="_blank">
<polygon fill="none" stroke="green" points="1,-198.8 1,-224.8 49,-224.8 49,-198.8 1,-198.8"/>
<text text-anchor="start" x="5.56" y="-207.2" font-family="Times,serif" font-size="14.00"> Label </text>
</a>
</g>
<polygon fill="none" stroke="green" points="0,-197.8 0,-225.8 50,-225.8 50,-197.8 0,-197.8"/>
</g>
<!-- 12&#45;&gt;13 -->
<g id="edge4" class="edge">
<title>12&#45;&gt;13</title>
<path fill="none" stroke="black" d="M100.08,-252.41C95.66,-246.54 91.07,-239.57 88,-232.6 84.65,-224.99 82.3,-216.3 80.65,-208.24"/>
<polygon fill="black" stroke="black" points="84.06,-207.38 78.87,-198.14 77.16,-208.6 84.06,-207.38"/>
<text text-anchor="middle" x="106.5" y="-220" font-family="Times,serif" font-size="14.00">Union</text>
</g>
<!-- 15 -->
<g id="node6" class="node">
<title>15</title>
<ellipse fill="none" stroke="black" cx="157" cy="-179.8" rx="27" ry="18"/>
<text text-anchor="start" x="150" y="-176.6" font-family="Times,serif" font-size="14.00">x</text>
<text text-anchor="start" x="157" y="-176.6" font-family="Times,serif" baseline-shift="sub" font-size="14.00">0</text>
<g id="a_node6_11"><a xlink:href="C:\Users\turco\OneDrive\Desktop\ProgettoIntelligentWeb\Progetto\graph\lazy\15.txt" xlink:title="Clicca per visualizzare Lx" target="_blank">
<polygon fill="none" stroke="green" points="81,-134.8 81,-160.8 129,-160.8 129,-134.8 81,-134.8"/>
<text text-anchor="start" x="85.56" y="-143.2" font-family="Times,serif" font-size="14.00"> Label </text>
</a>
</g>
<polygon fill="none" stroke="green" points="80,-133.8 80,-161.8 130,-161.8 130,-133.8 80,-133.8"/>
</g>
<!-- 12&#45;&gt;15 -->
<g id="edge3" class="edge">
<title>12&#45;&gt;15</title>
<path fill="none" stroke="black" d="M121.28,-251.27C127.73,-238.54 136.8,-220.64 144.19,-206.06"/>
<polygon fill="black" stroke="black" points="147.36,-207.56 148.76,-197.05 141.12,-204.39 147.36,-207.56"/>
<text text-anchor="middle" x="156.5" y="-220" font-family="Times,serif" font-size="14.00">Union</text>
</g>
<!-- 14 -->
<g id="node5" class="node">
<title>14</title>
<ellipse fill="none" stroke="black" cx="69" cy="-91" rx="42.88" ry="18"/>
<text text-anchor="start" x="46.06" y="-86.8" font-family="Times,serif" font-size="14.00">CLASH</text>
</g>
<!-- 13&#45;&gt;14 -->
<g id="edge5" class="edge">
<title>13&#45;&gt;14</title>
<path fill="none" stroke="red" d="M75.42,-161.65C74.3,-149.52 72.78,-133.02 71.5,-119.12"/>
<polygon fill="red" stroke="red" points="74.98,-118.75 70.58,-109.11 68.01,-119.39 74.98,-118.75"/>
</g>
<!-- 16 -->
<g id="node7" class="node">
<title>16</title>
<ellipse fill="none" stroke="black" cx="157" cy="-91" rx="27" ry="18"/>
<text text-anchor="start" x="150" y="-87.8" font-family="Times,serif" font-size="14.00">x</text>
<text text-anchor="start" x="157" y="-87.8" font-family="Times,serif" baseline-shift="sub" font-size="14.00">0</text>
<g id="a_node7_12"><a xlink:href="C:\Users\turco\OneDrive\Desktop\ProgettoIntelligentWeb\Progetto\graph\lazy\16.txt" xlink:title="Clicca per visualizzare Lx" target="_blank">
<polygon fill="none" stroke="green" points="81,-46 81,-72 129,-72 129,-46 81,-46"/>
<text text-anchor="start" x="85.56" y="-54.4" font-family="Times,serif" font-size="14.00"> Label </text>
</a>
</g>
<polygon fill="none" stroke="green" points="80,-45 80,-73 130,-73 130,-45 80,-45"/>
</g>
<!-- 15&#45;&gt;16 -->
<g id="edge7" class="edge">
<title>15&#45;&gt;16</title>
<path fill="none" stroke="black" d="M157,-161.65C157,-149.52 157,-133.02 157,-119.12"/>
<polygon fill="black" stroke="black" points="160.5,-119.11 157,-109.11 153.5,-119.11 160.5,-119.11"/>
<text text-anchor="middle" x="174.5" y="-131.2" font-family="Times,serif" font-size="14.00">Union</text>
</g>
<!-- 18 -->
<g id="node9" class="node">
<title>18</title>
<ellipse fill="none" stroke="black" cx="260" cy="-91" rx="27" ry="18"/>
<text text-anchor="start" x="253" y="-87.8" font-family="Times,serif" font-size="14.00">x</text>
<text text-anchor="start" x="260" y="-87.8" font-family="Times,serif" baseline-shift="sub" font-size="14.00">0</text>
<g id="a_node9_13"><a xlink:href="C:\Users\turco\OneDrive\Desktop\ProgettoIntelligentWeb\Progetto\graph\lazy\18.txt" xlink:title="Clicca per visualizzare Lx" target="_blank">
<polygon fill="none" stroke="green" points="184,-46 184,-72 232,-72 232,-46 184,-46"/>
<text text-anchor="start" x="188.56" y="-54.4" font-family="Times,serif" font-size="14.00"> Label </text>
</a>
</g>
<polygon fill="none" stroke="green" points="183,-45 183,-73 233,-73 233,-45 183,-45"/>
</g>
<!-- 15&#45;&gt;18 -->
<g id="edge6" class="edge">
<title>15&#45;&gt;18</title>
<path fill="none" stroke="black" d="M173.09,-165.24C189.93,-151.05 216.54,-128.63 235.88,-112.32"/>
<polygon fill="black" stroke="black" points="238.29,-114.87 243.68,-105.75 233.78,-109.52 238.29,-114.87"/>
<text text-anchor="middle" x="235.5" y="-131.2" font-family="Times,serif" font-size="14.00">Union</text>
</g>
<!-- 17 -->
<g id="node8" class="node">
<title>17</title>
<ellipse fill="none" stroke="black" cx="139" cy="-18" rx="42.88" ry="18"/>
<text text-anchor="start" x="116.06" y="-13.8" font-family="Times,serif" font-size="14.00">CLASH</text>
</g>
<!-- 16&#45;&gt;17 -->
<g id="edge8" class="edge">
<title>16&#45;&gt;17</title>
<path fill="none" stroke="red" d="M152.73,-73.17C150.68,-65.07 148.17,-55.15 145.85,-46.03"/>
<polygon fill="red" stroke="red" points="149.21,-45.03 143.36,-36.2 142.43,-46.75 149.21,-45.03"/>
</g>
<!-- 19 -->
<g id="node10" class="node">
<title>19</title>
<ellipse fill="none" stroke="black" cx="269" cy="-18" rx="69.52" ry="18"/>
<text text-anchor="start" x="226.62" y="-13.8" font-family="Times,serif" font-size="14.00">CLASH&#45;FREE</text>
</g>
<!-- 18&#45;&gt;19 -->
<g id="edge9" class="edge">
<title>18&#45;&gt;19</title>
<path fill="none" stroke="green" d="M262.18,-72.81C263.2,-64.79 264.43,-55.05 265.57,-46.07"/>
<polygon fill="green" stroke="green" points="269.06,-46.39 266.84,-36.03 262.11,-45.51 269.06,-46.39"/>
</g>
</g>
</svg>
