<svg width="272px" height="366px"
 viewBox="0.00 0.00 272.00 366.40" xmlns="http://www.w3.org/2000/svg" xmlns:xlink="http://www.w3.org/1999/xlink">
<g id="graph0" class="graph" transform="scale(1.0 1.0) rotate(0.0) translate(4.0 362.4)">
<title>tableaux</title>
<polygon fill="white" stroke="transparent" points="-4,4 -4,-362.4 268,-362.4 268,4 -4,4"/>
<!-- 0 -->
<g id="node1" class="node">
<title>0</title>
<ellipse fill="none" stroke="black" cx="113" cy="-312.4" rx="27" ry="18"/>
<text text-anchor="start" x="106" y="-309.2" font-family="Times,serif" font-size="14.00">x</text>
<text text-anchor="start" x="113" y="-309.2" font-family="Times,serif" baseline-shift="sub" font-size="14.00">0</text>
<g id="a_node1_21"><a xlink:href="C:\Users\checc\Desktop\ProgettoIntelligentWeb\Progetto\graph\lazy\0.txt" xlink:title="Clicca per visualizzare Lx" target="_blank">
<polygon fill="none" stroke="green" points="37,-331.4 37,-357.4 85,-357.4 85,-331.4 37,-331.4"/>
<text text-anchor="start" x="41.56" y="-339.8" font-family="Times,serif" font-size="14.00"> Label </text>
</a>
</g>
<polygon fill="none" stroke="green" points="36,-330.4 36,-358.4 86,-358.4 86,-330.4 36,-330.4"/>
</g>
<!-- 1 -->
<g id="node2" class="node">
<title>1</title>
<ellipse fill="none" stroke="black" cx="77" cy="-223.6" rx="27" ry="18"/>
<text text-anchor="start" x="70" y="-220.4" font-family="Times,serif" font-size="14.00">x</text>
<text text-anchor="start" x="77" y="-220.4" font-family="Times,serif" baseline-shift="sub" font-size="14.00">0</text>
<g id="a_node2_22"><a xlink:href="C:\Users\checc\Desktop\ProgettoIntelligentWeb\Progetto\graph\lazy\1.txt" xlink:title="Clicca per visualizzare Lx" target="_blank">
<polygon fill="none" stroke="green" points="1,-242.6 1,-268.6 49,-268.6 49,-242.6 1,-242.6"/>
<text text-anchor="start" x="5.56" y="-251" font-family="Times,serif" font-size="14.00"> Label </text>
</a>
</g>
<polygon fill="none" stroke="green" points="0,-241.6 0,-269.6 50,-269.6 50,-241.6 0,-241.6"/>
</g>
<!-- 0&#45;&gt;1 -->
<g id="edge2" class="edge">
<title>0&#45;&gt;1</title>
<path fill="none" stroke="black" d="M106.06,-294.66C100.88,-282.18 93.71,-264.88 87.78,-250.6"/>
<polygon fill="black" stroke="black" points="90.98,-249.18 83.92,-241.28 84.52,-251.86 90.98,-249.18"/>
<text text-anchor="middle" x="104.25" y="-263.8" font-family="Times,serif" font-size="14.00">⊔</text>
</g>
<!-- 3 -->
<g id="node4" class="node">
<title>3</title>
<ellipse fill="none" stroke="black" cx="157" cy="-223.6" rx="27" ry="18"/>
<text text-anchor="start" x="150" y="-220.4" font-family="Times,serif" font-size="14.00">x</text>
<text text-anchor="start" x="157" y="-220.4" font-family="Times,serif" baseline-shift="sub" font-size="14.00">0</text>
<g id="a_node4_23"><a xlink:href="C:\Users\checc\Desktop\ProgettoIntelligentWeb\Progetto\graph\lazy\3.txt" xlink:title="Clicca per visualizzare Lx" target="_blank">
<polygon fill="none" stroke="green" points="81,-178.6 81,-204.6 129,-204.6 129,-178.6 81,-178.6"/>
<text text-anchor="start" x="85.56" y="-187" font-family="Times,serif" font-size="14.00"> Label </text>
</a>
</g>
<polygon fill="none" stroke="green" points="80,-177.6 80,-205.6 130,-205.6 130,-177.6 80,-177.6"/>
</g>
<!-- 0&#45;&gt;3 -->
<g id="edge1" class="edge">
<title>0&#45;&gt;3</title>
<path fill="none" stroke="black" d="M121.28,-295.07C127.73,-282.34 136.8,-264.44 144.19,-249.86"/>
<polygon fill="black" stroke="black" points="147.36,-251.36 148.76,-240.85 141.12,-248.19 147.36,-251.36"/>
<text text-anchor="middle" x="144.25" y="-263.8" font-family="Times,serif" font-size="14.00">⊔</text>
</g>
<!-- 2 -->
<g id="node3" class="node">
<title>2</title>
<ellipse fill="none" stroke="black" cx="69" cy="-134.8" rx="42.88" ry="18"/>
<text text-anchor="start" x="46.06" y="-130.6" font-family="Times,serif" font-size="14.00">CLASH</text>
</g>
<!-- 1&#45;&gt;2 -->
<g id="edge3" class="edge">
<title>1&#45;&gt;2</title>
<path fill="none" stroke="red" d="M75.42,-205.45C74.3,-193.32 72.78,-176.82 71.5,-162.92"/>
<polygon fill="red" stroke="red" points="74.98,-162.55 70.58,-152.91 68.01,-163.19 74.98,-162.55"/>
</g>
<!-- 4 -->
<g id="node5" class="node">
<title>4</title>
<ellipse fill="none" stroke="black" cx="157" cy="-134.8" rx="27" ry="18"/>
<text text-anchor="start" x="150" y="-131.6" font-family="Times,serif" font-size="14.00">x</text>
<text text-anchor="start" x="157" y="-131.6" font-family="Times,serif" baseline-shift="sub" font-size="14.00">0</text>
<g id="a_node5_24"><a xlink:href="C:\Users\checc\Desktop\ProgettoIntelligentWeb\Progetto\graph\lazy\4.txt" xlink:title="Clicca per visualizzare Lx" target="_blank">
<polygon fill="none" stroke="green" points="81,-89.8 81,-115.8 129,-115.8 129,-89.8 81,-89.8"/>
<text text-anchor="start" x="85.56" y="-98.2" font-family="Times,serif" font-size="14.00"> Label </text>
</a>
</g>
<polygon fill="none" stroke="green" points="80,-88.8 80,-116.8 130,-116.8 130,-88.8 80,-88.8"/>
</g>
<!-- 3&#45;&gt;4 -->
<g id="edge5" class="edge">
<title>3&#45;&gt;4</title>
<path fill="none" stroke="black" d="M157,-205.45C157,-193.32 157,-176.82 157,-162.92"/>
<polygon fill="black" stroke="black" points="160.5,-162.91 157,-152.91 153.5,-162.91 160.5,-162.91"/>
<text text-anchor="middle" x="162.25" y="-175" font-family="Times,serif" font-size="14.00">⊔</text>
</g>
<!-- 6 -->
<g id="node7" class="node">
<title>6</title>
<ellipse fill="none" stroke="black" cx="233" cy="-134.8" rx="27" ry="18"/>
<text text-anchor="start" x="226" y="-131.6" font-family="Times,serif" font-size="14.00">x</text>
<text text-anchor="start" x="233" y="-131.6" font-family="Times,serif" baseline-shift="sub" font-size="14.00">0</text>
<g id="a_node7_25"><a xlink:href="C:\Users\checc\Desktop\ProgettoIntelligentWeb\Progetto\graph\lazy\6.txt" xlink:title="Clicca per visualizzare Lx" target="_blank">
<polygon fill="none" stroke="green" points="157,-89.8 157,-115.8 205,-115.8 205,-89.8 157,-89.8"/>
<text text-anchor="start" x="161.56" y="-98.2" font-family="Times,serif" font-size="14.00"> Label </text>
</a>
</g>
<polygon fill="none" stroke="green" points="156,-88.8 156,-116.8 206,-116.8 206,-88.8 156,-88.8"/>
</g>
<!-- 3&#45;&gt;6 -->
<g id="edge4" class="edge">
<title>3&#45;&gt;6</title>
<path fill="none" stroke="black" d="M170.24,-207.48C182.12,-193.91 199.71,-173.82 213.25,-158.35"/>
<polygon fill="black" stroke="black" points="215.96,-160.58 219.91,-150.75 210.69,-155.96 215.96,-160.58"/>
<text text-anchor="middle" x="207.25" y="-175" font-family="Times,serif" font-size="14.00">⊔</text>
</g>
<!-- 5 -->
<g id="node6" class="node">
<title>5</title>
<ellipse fill="none" stroke="black" cx="149" cy="-46" rx="42.88" ry="18"/>
<text text-anchor="start" x="126.06" y="-41.8" font-family="Times,serif" font-size="14.00">CLASH</text>
</g>
<!-- 4&#45;&gt;5 -->
<g id="edge6" class="edge">
<title>4&#45;&gt;5</title>
<path fill="none" stroke="red" d="M155.42,-116.65C154.3,-104.52 152.78,-88.02 151.5,-74.12"/>
<polygon fill="red" stroke="red" points="154.98,-73.75 150.58,-64.11 148.01,-74.39 154.98,-73.75"/>
</g>
<!-- 7 -->
<g id="node8" class="node">
<title>7</title>
<ellipse fill="none" stroke="black" cx="237" cy="-46" rx="27" ry="18"/>
<text text-anchor="start" x="230" y="-42.8" font-family="Times,serif" font-size="14.00">x</text>
<text text-anchor="start" x="237" y="-42.8" font-family="Times,serif" baseline-shift="sub" font-size="14.00">0</text>
<g id="a_node8_26"><a xlink:href="C:\Users\checc\Desktop\ProgettoIntelligentWeb\Progetto\graph\lazy\7.txt" xlink:title="Clicca per visualizzare Lx" target="_blank">
<polygon fill="none" stroke="green" points="161,-1 161,-27 209,-27 209,-1 161,-1"/>
<text text-anchor="start" x="165.56" y="-9.4" font-family="Times,serif" font-size="14.00"> Label </text>
</a>
</g>
<polygon fill="none" stroke="green" points="160,0 160,-28 210,-28 210,0 160,0"/>
</g>
<!-- 6&#45;&gt;7 -->
<g id="edge7" class="edge">
<title>6&#45;&gt;7</title>
<path fill="none" stroke="black" d="M233.79,-116.65C234.35,-104.52 235.11,-88.02 235.75,-74.12"/>
<polygon fill="black" stroke="black" points="239.25,-74.26 236.21,-64.11 232.25,-73.94 239.25,-74.26"/>
<text text-anchor="middle" x="241.25" y="-86.2" font-family="Times,serif" font-size="14.00">⊔</text>
</g>
</g>
</svg>
