<svg width="314px" height="767px"
 viewBox="0.00 0.00 313.51 766.60" xmlns="http://www.w3.org/2000/svg" xmlns:xlink="http://www.w3.org/1999/xlink">
<g id="graph0" class="graph" transform="scale(1.0 1.0) rotate(0.0) translate(4.0 762.6)">
<title>tableaux</title>
<polygon fill="white" stroke="transparent" points="-4,4 -4,-762.6 309.51,-762.6 309.51,4 -4,4"/>
<!-- 0 -->
<g id="node1" class="node">
<title>0</title>
<ellipse fill="none" stroke="black" cx="113" cy="-712.6" rx="27" ry="18"/>
<text text-anchor="start" x="106" y="-709.4" font-family="Times,serif" font-size="14.00">x</text>
<text text-anchor="start" x="113" y="-709.4" font-family="Times,serif" baseline-shift="sub" font-size="14.00">0</text>
<g id="a_node1_219"><a xlink:href="C:\Users\checc\Desktop\ProgettoIntelligentWeb\Progetto\graph\lazy\0.txt" xlink:title="Nodo 0: (Componente ⊔ ¬Manubrio ), (¬Auto ⊔ ¬Bicicletta ), ∃haComponente.Auto , (Veicolo ⊔ ¬Auto ), (Veicolo ⊔ ¬Bicicletta ), ((Componente ⊔ ¬Manubrio )⊓ (Veicolo ⊔ ¬Auto )⊓ (Veicolo ⊔ ¬Bicicletta )⊓ (¬Auto ⊔ ¬Bicicletta ))" target="_blank">
<polygon fill="none" stroke="green" points="37,-731.6 37,-757.6 85,-757.6 85,-731.6 37,-731.6"/>
<text text-anchor="start" x="41.56" y="-740" font-family="Times,serif" font-size="14.00"> Label </text>
</a>
</g>
<polygon fill="none" stroke="green" points="36,-730.6 36,-758.6 86,-758.6 86,-730.6 36,-730.6"/>
</g>
<!-- 1 -->
<g id="node2" class="node">
<title>1</title>
<ellipse fill="none" stroke="black" cx="113" cy="-623.8" rx="27" ry="18"/>
<text text-anchor="start" x="106" y="-620.6" font-family="Times,serif" font-size="14.00">x</text>
<text text-anchor="start" x="113" y="-620.6" font-family="Times,serif" baseline-shift="sub" font-size="14.00">0</text>
<g id="a_node2_220"><a xlink:href="C:\Users\checc\Desktop\ProgettoIntelligentWeb\Progetto\graph\lazy\1.txt" xlink:title="Nodo 1: Componente , (Componente ⊔ ¬Manubrio ), (¬Auto ⊔ ¬Bicicletta ), ∃haComponente.Auto , (Veicolo ⊔ ¬Auto ), (Veicolo ⊔ ¬Bicicletta ), ((Componente ⊔ ¬Manubrio )⊓ (Veicolo ⊔ ¬Auto )⊓ (Veicolo ⊔ ¬Bicicletta )⊓ (¬Auto ⊔ ¬Bicicletta ))" target="_blank">
<polygon fill="none" stroke="green" points="37,-642.8 37,-668.8 85,-668.8 85,-642.8 37,-642.8"/>
<text text-anchor="start" x="41.56" y="-651.2" font-family="Times,serif" font-size="14.00"> Label </text>
</a>
</g>
<polygon fill="none" stroke="green" points="36,-641.8 36,-669.8 86,-669.8 86,-641.8 36,-641.8"/>
</g>
<!-- 0&#45;&gt;1 -->
<g id="edge1" class="edge">
<title>0&#45;&gt;1</title>
<path fill="none" stroke="black" d="M113,-694.45C113,-682.32 113,-665.82 113,-651.92"/>
<polygon fill="black" stroke="black" points="116.5,-651.91 113,-641.91 109.5,-651.91 116.5,-651.91"/>
<text text-anchor="middle" x="118.25" y="-664" font-family="Times,serif" font-size="14.00">⊔</text>
</g>
<!-- 2 -->
<g id="node3" class="node">
<title>2</title>
<ellipse fill="none" stroke="black" cx="113" cy="-535" rx="27" ry="18"/>
<text text-anchor="start" x="106" y="-531.8" font-family="Times,serif" font-size="14.00">x</text>
<text text-anchor="start" x="113" y="-531.8" font-family="Times,serif" baseline-shift="sub" font-size="14.00">0</text>
<g id="a_node3_221"><a xlink:href="C:\Users\checc\Desktop\ProgettoIntelligentWeb\Progetto\graph\lazy\2.txt" xlink:title="Nodo 2: Componente , (Componente ⊔ ¬Manubrio ), (¬Auto ⊔ ¬Bicicletta ), ∃haComponente.Auto , (Veicolo ⊔ ¬Auto ), (Veicolo ⊔ ¬Bicicletta ), ((Componente ⊔ ¬Manubrio )⊓ (Veicolo ⊔ ¬Auto )⊓ (Veicolo ⊔ ¬Bicicletta )⊓ (¬Auto ⊔ ¬Bicicletta )), ¬Auto , ¬Veicolo " target="_blank">
<polygon fill="none" stroke="green" points="37,-554 37,-580 85,-580 85,-554 37,-554"/>
<text text-anchor="start" x="41.56" y="-562.4" font-family="Times,serif" font-size="14.00"> Label </text>
</a>
</g>
<polygon fill="none" stroke="green" points="36,-553 36,-581 86,-581 86,-553 36,-553"/>
</g>
<!-- 1&#45;&gt;2 -->
<g id="edge2" class="edge">
<title>1&#45;&gt;2</title>
<path fill="none" stroke="black" d="M113,-605.65C113,-593.52 113,-577.02 113,-563.12"/>
<polygon fill="black" stroke="black" points="116.5,-563.11 113,-553.11 109.5,-563.11 116.5,-563.11"/>
<text text-anchor="middle" x="118.25" y="-575.2" font-family="Times,serif" font-size="14.00">⊔</text>
</g>
<!-- 3 -->
<g id="node4" class="node">
<title>3</title>
<ellipse fill="none" stroke="black" cx="77" cy="-446.2" rx="27" ry="18"/>
<text text-anchor="start" x="70" y="-443" font-family="Times,serif" font-size="14.00">x</text>
<text text-anchor="start" x="77" y="-443" font-family="Times,serif" baseline-shift="sub" font-size="14.00">0</text>
<g id="a_node4_222"><a xlink:href="C:\Users\checc\Desktop\ProgettoIntelligentWeb\Progetto\graph\lazy\3.txt" xlink:title="Nodo 3: Componente , Veicolo , (Componente ⊔ ¬Manubrio ), (¬Auto ⊔ ¬Bicicletta ), ∃haComponente.Auto , (Veicolo ⊔ ¬Auto ), (Veicolo ⊔ ¬Bicicletta ), ((Componente ⊔ ¬Manubrio )⊓ (Veicolo ⊔ ¬Auto )⊓ (Veicolo ⊔ ¬Bicicletta )⊓ (¬Auto ⊔ ¬Bicicletta )), ¬Auto , ¬Veicolo " target="_blank">
<polygon fill="none" stroke="green" points="1,-465.2 1,-491.2 49,-491.2 49,-465.2 1,-465.2"/>
<text text-anchor="start" x="5.56" y="-473.6" font-family="Times,serif" font-size="14.00"> Label </text>
</a>
</g>
<polygon fill="none" stroke="green" points="0,-464.2 0,-492.2 50,-492.2 50,-464.2 0,-464.2"/>
</g>
<!-- 2&#45;&gt;3 -->
<g id="edge4" class="edge">
<title>2&#45;&gt;3</title>
<path fill="none" stroke="black" d="M106.06,-517.26C100.88,-504.78 93.71,-487.48 87.78,-473.2"/>
<polygon fill="black" stroke="black" points="90.98,-471.78 83.92,-463.88 84.52,-474.46 90.98,-471.78"/>
<text text-anchor="middle" x="104.25" y="-486.4" font-family="Times,serif" font-size="14.00">⊔</text>
</g>
<!-- 5 -->
<g id="node6" class="node">
<title>5</title>
<ellipse fill="none" stroke="black" cx="153" cy="-446.2" rx="27" ry="18"/>
<text text-anchor="start" x="146" y="-443" font-family="Times,serif" font-size="14.00">x</text>
<text text-anchor="start" x="153" y="-443" font-family="Times,serif" baseline-shift="sub" font-size="14.00">0</text>
<g id="a_node6_223"><a xlink:href="C:\Users\checc\Desktop\ProgettoIntelligentWeb\Progetto\graph\lazy\5.txt" xlink:title="Nodo 5: Componente , (Componente ⊔ ¬Manubrio ), (¬Auto ⊔ ¬Bicicletta ), ∃haComponente.Auto , (Veicolo ⊔ ¬Auto ), (Veicolo ⊔ ¬Bicicletta ), ((Componente ⊔ ¬Manubrio )⊓ (Veicolo ⊔ ¬Auto )⊓ (Veicolo ⊔ ¬Bicicletta )⊓ (¬Auto ⊔ ¬Bicicletta )), ¬Auto , ¬Veicolo , ¬Bicicletta " target="_blank">
<polygon fill="none" stroke="green" points="77,-401.2 77,-427.2 125,-427.2 125,-401.2 77,-401.2"/>
<text text-anchor="start" x="81.56" y="-409.6" font-family="Times,serif" font-size="14.00"> Label </text>
</a>
</g>
<polygon fill="none" stroke="green" points="76,-400.2 76,-428.2 126,-428.2 126,-400.2 76,-400.2"/>
</g>
<!-- 2&#45;&gt;5 -->
<g id="edge3" class="edge">
<title>2&#45;&gt;5</title>
<path fill="none" stroke="black" d="M120.52,-517.67C126.3,-505.14 134.38,-487.6 141.04,-473.16"/>
<polygon fill="black" stroke="black" points="144.37,-474.3 145.37,-463.75 138.01,-471.37 144.37,-474.3"/>
<text text-anchor="middle" x="142.25" y="-486.4" font-family="Times,serif" font-size="14.00">⊔</text>
</g>
<!-- 4 -->
<g id="node5" class="node">
<title>4</title>
<ellipse fill="none" stroke="black" cx="69" cy="-357.4" rx="42.88" ry="18"/>
<text text-anchor="start" x="46.06" y="-353.2" font-family="Times,serif" font-size="14.00">CLASH</text>
</g>
<!-- 3&#45;&gt;4 -->
<g id="edge5" class="edge">
<title>3&#45;&gt;4</title>
<path fill="none" stroke="red" d="M75.42,-428.05C74.3,-415.92 72.78,-399.42 71.5,-385.52"/>
<polygon fill="red" stroke="red" points="74.98,-385.15 70.58,-375.51 68.01,-385.79 74.98,-385.15"/>
</g>
<!-- 6 -->
<g id="node7" class="node">
<title>6</title>
<ellipse fill="none" stroke="black" cx="157" cy="-357.4" rx="27" ry="18"/>
<text text-anchor="start" x="150" y="-354.2" font-family="Times,serif" font-size="14.00">x</text>
<text text-anchor="start" x="157" y="-354.2" font-family="Times,serif" baseline-shift="sub" font-size="14.00">1</text>
<g id="a_node7_224"><a xlink:href="C:\Users\checc\Desktop\ProgettoIntelligentWeb\Progetto\graph\lazy\6.txt" xlink:title="Nodo 6: ((Componente ⊔ ¬Manubrio )⊓ (Veicolo ⊔ ¬Auto )⊓ (Veicolo ⊔ ¬Bicicletta )⊓ (¬Auto ⊔ ¬Bicicletta )), Auto " target="_blank">
<polygon fill="none" stroke="green" points="81,-312.4 81,-338.4 129,-338.4 129,-312.4 81,-312.4"/>
<text text-anchor="start" x="85.56" y="-320.8" font-family="Times,serif" font-size="14.00"> Label </text>
</a>
</g>
<polygon fill="none" stroke="green" points="80,-311.4 80,-339.4 130,-339.4 130,-311.4 80,-311.4"/>
</g>
<!-- 5&#45;&gt;6 -->
<g id="edge6" class="edge">
<title>5&#45;&gt;6</title>
<path fill="none" stroke="black" d="M153.79,-428.05C154.35,-415.92 155.11,-399.42 155.75,-385.52"/>
<polygon fill="black" stroke="black" points="159.25,-385.66 156.21,-375.51 152.25,-385.34 159.25,-385.66"/>
<text text-anchor="middle" x="198.38" y="-397.6" font-family="Times,serif" font-size="14.00">haComponente</text>
</g>
<!-- 7 -->
<g id="node8" class="node">
<title>7</title>
<ellipse fill="none" stroke="black" cx="157" cy="-268.6" rx="27" ry="18"/>
<text text-anchor="start" x="150" y="-265.4" font-family="Times,serif" font-size="14.00">x</text>
<text text-anchor="start" x="157" y="-265.4" font-family="Times,serif" baseline-shift="sub" font-size="14.00">1</text>
<g id="a_node8_225"><a xlink:href="C:\Users\checc\Desktop\ProgettoIntelligentWeb\Progetto\graph\lazy\7.txt" xlink:title="Nodo 7: &#160;∀ haComponente.Sterzo , (Componente ⊔ ¬Manubrio ), (¬Auto ⊔ ¬Bicicletta ), (Veicolo ⊔ ¬Bicicletta ), (Veicolo ⊔ ¬Auto ), ¬Manubrio , ((Componente ⊔ ¬Manubrio )⊓ (Veicolo ⊔ ¬Auto )⊓ (Veicolo ⊔ ¬Bicicletta )⊓ (¬Auto ⊔ ¬Bicicletta )), Auto " target="_blank">
<polygon fill="none" stroke="green" points="81,-251.6 81,-277.6 129,-277.6 129,-251.6 81,-251.6"/>
<text text-anchor="start" x="85.56" y="-260" font-family="Times,serif" font-size="14.00"> Label </text>
</a>
</g>
<polygon fill="none" stroke="green" points="80,-250.6 80,-278.6 130,-278.6 130,-250.6 80,-250.6"/>
</g>
<!-- 6&#45;&gt;7 -->
<g id="edge7" class="edge">
<title>6&#45;&gt;7</title>
<path fill="none" stroke="black" d="M157,-339.25C157,-327.12 157,-310.62 157,-296.72"/>
<polygon fill="black" stroke="black" points="160.5,-296.71 157,-286.71 153.5,-296.71 160.5,-296.71"/>
<text text-anchor="middle" x="162.25" y="-308.8" font-family="Times,serif" font-size="14.00">⊔</text>
</g>
<!-- 8 -->
<g id="node9" class="node">
<title>8</title>
<ellipse fill="none" stroke="black" cx="157" cy="-179.8" rx="27" ry="18"/>
<text text-anchor="start" x="150" y="-176.6" font-family="Times,serif" font-size="14.00">x</text>
<text text-anchor="start" x="157" y="-176.6" font-family="Times,serif" baseline-shift="sub" font-size="14.00">1</text>
<g id="a_node9_226"><a xlink:href="C:\Users\checc\Desktop\ProgettoIntelligentWeb\Progetto\graph\lazy\8.txt" xlink:title="Nodo 8: &#160;∀ haComponente.Sterzo , (Componente ⊔ ¬Manubrio ), (¬Auto ⊔ ¬Bicicletta ), (Veicolo ⊔ ¬Bicicletta ), (Veicolo ⊔ ¬Auto ), ¬Manubrio , ((Componente ⊔ ¬Manubrio )⊓ (Veicolo ⊔ ¬Auto )⊓ (Veicolo ⊔ ¬Bicicletta )⊓ (¬Auto ⊔ ¬Bicicletta )), ¬Bicicletta , Auto " target="_blank">
<polygon fill="none" stroke="green" points="81,-198.8 81,-224.8 129,-224.8 129,-198.8 81,-198.8"/>
<text text-anchor="start" x="85.56" y="-207.2" font-family="Times,serif" font-size="14.00"> Label </text>
</a>
</g>
<polygon fill="none" stroke="green" points="80,-197.8 80,-225.8 130,-225.8 130,-197.8 80,-197.8"/>
</g>
<!-- 7&#45;&gt;8 -->
<g id="edge8" class="edge">
<title>7&#45;&gt;8</title>
<path fill="none" stroke="black" d="M157,-250.45C157,-238.32 157,-221.82 157,-207.92"/>
<polygon fill="black" stroke="black" points="160.5,-207.91 157,-197.91 153.5,-207.91 160.5,-207.91"/>
<text text-anchor="middle" x="162.25" y="-220" font-family="Times,serif" font-size="14.00">⊔</text>
</g>
<!-- 9 -->
<g id="node10" class="node">
<title>9</title>
<ellipse fill="none" stroke="black" cx="121" cy="-91" rx="27" ry="18"/>
<text text-anchor="start" x="114" y="-87.8" font-family="Times,serif" font-size="14.00">x</text>
<text text-anchor="start" x="121" y="-87.8" font-family="Times,serif" baseline-shift="sub" font-size="14.00">1</text>
<g id="a_node10_227"><a xlink:href="C:\Users\checc\Desktop\ProgettoIntelligentWeb\Progetto\graph\lazy\9.txt" xlink:title="Nodo 9: &#160;∀ haComponente.Sterzo , (Componente ⊔ ¬Manubrio ), (¬Auto ⊔ ¬Bicicletta ), (Veicolo ⊔ ¬Bicicletta ), (Veicolo ⊔ ¬Auto ), ¬Manubrio , ((Componente ⊔ ¬Manubrio )⊓ (Veicolo ⊔ ¬Auto )⊓ (Veicolo ⊔ ¬Bicicletta )⊓ (¬Auto ⊔ ¬Bicicletta )), ¬Auto , ¬Bicicletta , Auto " target="_blank">
<polygon fill="none" stroke="green" points="45,-110 45,-136 93,-136 93,-110 45,-110"/>
<text text-anchor="start" x="49.56" y="-118.4" font-family="Times,serif" font-size="14.00"> Label </text>
</a>
</g>
<polygon fill="none" stroke="green" points="44,-109 44,-137 94,-137 94,-109 44,-109"/>
</g>
<!-- 8&#45;&gt;9 -->
<g id="edge10" class="edge">
<title>8&#45;&gt;9</title>
<path fill="none" stroke="black" d="M150.06,-162.06C144.88,-149.58 137.71,-132.28 131.78,-118"/>
<polygon fill="black" stroke="black" points="134.98,-116.58 127.92,-108.68 128.52,-119.26 134.98,-116.58"/>
<text text-anchor="middle" x="148.25" y="-131.2" font-family="Times,serif" font-size="14.00">⊔</text>
</g>
<!-- 11 -->
<g id="node12" class="node">
<title>11</title>
<ellipse fill="none" stroke="black" cx="222" cy="-91" rx="27" ry="18"/>
<text text-anchor="start" x="215" y="-87.8" font-family="Times,serif" font-size="14.00">x</text>
<text text-anchor="start" x="222" y="-87.8" font-family="Times,serif" baseline-shift="sub" font-size="14.00">1</text>
<g id="a_node12_228"><a xlink:href="C:\Users\checc\Desktop\ProgettoIntelligentWeb\Progetto\graph\lazy\11.txt" xlink:title="Nodo 11: Veicolo , &#160;∀ haComponente.Sterzo , (Componente ⊔ ¬Manubrio ), (¬Auto ⊔ ¬Bicicletta ), (Veicolo ⊔ ¬Bicicletta ), (Veicolo ⊔ ¬Auto ), ¬Manubrio , ((Componente ⊔ ¬Manubrio )⊓ (Veicolo ⊔ ¬Auto )⊓ (Veicolo ⊔ ¬Bicicletta )⊓ (¬Auto ⊔ ¬Bicicletta )), ¬Bicicletta , Auto " target="_blank">
<polygon fill="none" stroke="green" points="146,-46 146,-72 194,-72 194,-46 146,-46"/>
<text text-anchor="start" x="150.56" y="-54.4" font-family="Times,serif" font-size="14.00"> Label </text>
</a>
</g>
<polygon fill="none" stroke="green" points="145,-45 145,-73 195,-73 195,-45 145,-45"/>
</g>
<!-- 8&#45;&gt;11 -->
<g id="edge9" class="edge">
<title>8&#45;&gt;11</title>
<path fill="none" stroke="black" d="M168.62,-163.28C178.51,-150.07 192.87,-130.89 204.21,-115.75"/>
<polygon fill="black" stroke="black" points="207.29,-117.49 210.48,-107.38 201.68,-113.29 207.29,-117.49"/>
<text text-anchor="middle" x="201.25" y="-131.2" font-family="Times,serif" font-size="14.00">⊔</text>
</g>
<!-- 10 -->
<g id="node11" class="node">
<title>10</title>
<ellipse fill="none" stroke="black" cx="106" cy="-18" rx="42.88" ry="18"/>
<text text-anchor="start" x="83.06" y="-13.8" font-family="Times,serif" font-size="14.00">CLASH</text>
</g>
<!-- 9&#45;&gt;10 -->
<g id="edge11" class="edge">
<title>9&#45;&gt;10</title>
<path fill="none" stroke="red" d="M117.37,-72.81C115.67,-64.79 113.62,-55.05 111.72,-46.07"/>
<polygon fill="red" stroke="red" points="115.09,-45.09 109.6,-36.03 108.24,-46.54 115.09,-45.09"/>
</g>
<!-- 12 -->
<g id="node13" class="node">
<title>12</title>
<ellipse fill="none" stroke="black" cx="236" cy="-18" rx="69.52" ry="18"/>
<text text-anchor="start" x="193.62" y="-13.8" font-family="Times,serif" font-size="14.00">CLASH&#45;FREE</text>
</g>
<!-- 11&#45;&gt;12 -->
<g id="edge12" class="edge">
<title>11&#45;&gt;12</title>
<path fill="none" stroke="green" d="M225.39,-72.81C226.97,-64.79 228.89,-55.05 230.66,-46.07"/>
<polygon fill="green" stroke="green" points="234.14,-46.52 232.64,-36.03 227.27,-45.16 234.14,-46.52"/>
</g>
</g>
</svg>
