<svg width="619px" height="500px"
 viewBox="0.00 0.00 618.51 500.20" xmlns="http://www.w3.org/2000/svg" xmlns:xlink="http://www.w3.org/1999/xlink">
<g id="graph0" class="graph" transform="scale(1.0 1.0) rotate(0.0) translate(4.0 496.2)">
<title>tableaux</title>
<polygon fill="white" stroke="transparent" points="-4,4 -4,-496.2 614.51,-496.2 614.51,4 -4,4"/>
<!-- 0 -->
<g id="node1" class="node">
<title>0</title>
<ellipse fill="none" stroke="black" cx="215" cy="-446.2" rx="27" ry="18"/>
<text text-anchor="start" x="208" y="-443" font-family="Times,serif" font-size="14.00">x</text>
<text text-anchor="start" x="215" y="-443" font-family="Times,serif" baseline-shift="sub" font-size="14.00">0</text>
<g id="a_node1_21"><a xlink:href="C:\Users\turco\OneDrive\Desktop\ProgettoIntelligentWeb\Progetto\graph\lazy\0.txt" xlink:title="Clicca per visualizzare Lx" target="_blank">
<polygon fill="none" stroke="green" points="139,-465.2 139,-491.2 187,-491.2 187,-465.2 139,-465.2"/>
<text text-anchor="start" x="143.56" y="-473.6" font-family="Times,serif" font-size="14.00"> Label </text>
</a>
</g>
<polygon fill="none" stroke="green" points="138,-464.2 138,-492.2 188,-492.2 188,-464.2 138,-464.2"/>
</g>
<!-- 1 -->
<g id="node2" class="node">
<title>1</title>
<ellipse fill="none" stroke="black" cx="164" cy="-357.4" rx="27" ry="18"/>
<text text-anchor="start" x="157" y="-354.2" font-family="Times,serif" font-size="14.00">x</text>
<text text-anchor="start" x="164" y="-354.2" font-family="Times,serif" baseline-shift="sub" font-size="14.00">0</text>
<g id="a_node2_22"><a xlink:href="C:\Users\turco\OneDrive\Desktop\ProgettoIntelligentWeb\Progetto\graph\lazy\1.txt" xlink:title="Clicca per visualizzare Lx" target="_blank">
<polygon fill="none" stroke="green" points="88,-376.4 88,-402.4 136,-402.4 136,-376.4 88,-376.4"/>
<text text-anchor="start" x="92.56" y="-384.8" font-family="Times,serif" font-size="14.00"> Label </text>
</a>
</g>
<polygon fill="none" stroke="green" points="87,-375.4 87,-403.4 137,-403.4 137,-375.4 87,-375.4"/>
</g>
<!-- 0&#45;&gt;1 -->
<g id="edge2" class="edge">
<title>0&#45;&gt;1</title>
<path fill="none" stroke="black" d="M205.65,-429.28C198.07,-416.39 187.27,-398.01 178.57,-383.2"/>
<polygon fill="black" stroke="black" points="181.55,-381.36 173.47,-374.51 175.52,-384.91 181.55,-381.36"/>
<text text-anchor="middle" x="200.25" y="-397.6" font-family="Times,serif" font-size="14.00">⊔</text>
</g>
<!-- 6 -->
<g id="node7" class="node">
<title>6</title>
<ellipse fill="none" stroke="black" cx="267" cy="-357.4" rx="27" ry="18"/>
<text text-anchor="start" x="260" y="-354.2" font-family="Times,serif" font-size="14.00">x</text>
<text text-anchor="start" x="267" y="-354.2" font-family="Times,serif" baseline-shift="sub" font-size="14.00">0</text>
<g id="a_node7_23"><a xlink:href="C:\Users\turco\OneDrive\Desktop\ProgettoIntelligentWeb\Progetto\graph\lazy\6.txt" xlink:title="Clicca per visualizzare Lx" target="_blank">
<polygon fill="none" stroke="green" points="191,-312.4 191,-338.4 239,-338.4 239,-312.4 191,-312.4"/>
<text text-anchor="start" x="195.56" y="-320.8" font-family="Times,serif" font-size="14.00"> Label </text>
</a>
</g>
<polygon fill="none" stroke="green" points="190,-311.4 190,-339.4 240,-339.4 240,-311.4 190,-311.4"/>
</g>
<!-- 0&#45;&gt;6 -->
<g id="edge1" class="edge">
<title>0&#45;&gt;6</title>
<path fill="none" stroke="black" d="M224.54,-429.28C232.26,-416.39 243.27,-398.01 252.15,-383.2"/>
<polygon fill="black" stroke="black" points="255.21,-384.89 257.35,-374.51 249.21,-381.29 255.21,-384.89"/>
<text text-anchor="middle" x="251.25" y="-397.6" font-family="Times,serif" font-size="14.00">⊔</text>
</g>
<!-- 2 -->
<g id="node3" class="node">
<title>2</title>
<ellipse fill="none" stroke="black" cx="77" cy="-268.6" rx="27" ry="18"/>
<text text-anchor="start" x="70" y="-265.4" font-family="Times,serif" font-size="14.00">x</text>
<text text-anchor="start" x="77" y="-265.4" font-family="Times,serif" baseline-shift="sub" font-size="14.00">0</text>
<g id="a_node3_24"><a xlink:href="C:\Users\turco\OneDrive\Desktop\ProgettoIntelligentWeb\Progetto\graph\lazy\2.txt" xlink:title="Clicca per visualizzare Lx" target="_blank">
<polygon fill="none" stroke="green" points="1,-287.6 1,-313.6 49,-313.6 49,-287.6 1,-287.6"/>
<text text-anchor="start" x="5.56" y="-296" font-family="Times,serif" font-size="14.00"> Label </text>
</a>
</g>
<polygon fill="none" stroke="green" points="0,-286.6 0,-314.6 50,-314.6 50,-286.6 0,-286.6"/>
</g>
<!-- 1&#45;&gt;2 -->
<g id="edge4" class="edge">
<title>1&#45;&gt;2</title>
<path fill="none" stroke="black" d="M149.63,-342.07C135.78,-328.25 114.63,-307.15 98.72,-291.27"/>
<polygon fill="black" stroke="black" points="100.94,-288.54 91.39,-283.95 95.99,-293.5 100.94,-288.54"/>
<text text-anchor="middle" x="134.25" y="-308.8" font-family="Times,serif" font-size="14.00">⊔</text>
</g>
<!-- 4 -->
<g id="node5" class="node">
<title>4</title>
<ellipse fill="none" stroke="black" cx="164" cy="-268.6" rx="27" ry="18"/>
<text text-anchor="start" x="157" y="-265.4" font-family="Times,serif" font-size="14.00">x</text>
<text text-anchor="start" x="164" y="-265.4" font-family="Times,serif" baseline-shift="sub" font-size="14.00">0</text>
<g id="a_node5_25"><a xlink:href="C:\Users\turco\OneDrive\Desktop\ProgettoIntelligentWeb\Progetto\graph\lazy\4.txt" xlink:title="Clicca per visualizzare Lx" target="_blank">
<polygon fill="none" stroke="green" points="88,-223.6 88,-249.6 136,-249.6 136,-223.6 88,-223.6"/>
<text text-anchor="start" x="92.56" y="-232" font-family="Times,serif" font-size="14.00"> Label </text>
</a>
</g>
<polygon fill="none" stroke="green" points="87,-222.6 87,-250.6 137,-250.6 137,-222.6 87,-222.6"/>
</g>
<!-- 1&#45;&gt;4 -->
<g id="edge3" class="edge">
<title>1&#45;&gt;4</title>
<path fill="none" stroke="black" d="M164,-339.25C164,-327.12 164,-310.62 164,-296.72"/>
<polygon fill="black" stroke="black" points="167.5,-296.71 164,-286.71 160.5,-296.71 167.5,-296.71"/>
<text text-anchor="middle" x="169.25" y="-308.8" font-family="Times,serif" font-size="14.00">⊔</text>
</g>
<!-- 3 -->
<g id="node4" class="node">
<title>3</title>
<ellipse fill="none" stroke="black" cx="61" cy="-179.8" rx="42.88" ry="18"/>
<text text-anchor="start" x="38.06" y="-175.6" font-family="Times,serif" font-size="14.00">CLASH</text>
</g>
<!-- 2&#45;&gt;3 -->
<g id="edge5" class="edge">
<title>2&#45;&gt;3</title>
<path fill="none" stroke="red" d="M73.84,-250.45C71.6,-238.32 68.56,-221.82 66,-207.92"/>
<polygon fill="red" stroke="red" points="69.41,-207.11 64.15,-197.91 62.53,-208.38 69.41,-207.11"/>
</g>
<!-- 5 -->
<g id="node6" class="node">
<title>5</title>
<ellipse fill="none" stroke="black" cx="164" cy="-179.8" rx="42.88" ry="18"/>
<text text-anchor="start" x="141.06" y="-175.6" font-family="Times,serif" font-size="14.00">CLASH</text>
</g>
<!-- 4&#45;&gt;5 -->
<g id="edge6" class="edge">
<title>4&#45;&gt;5</title>
<path fill="none" stroke="red" d="M164,-250.45C164,-238.32 164,-221.82 164,-207.92"/>
<polygon fill="red" stroke="red" points="167.5,-207.91 164,-197.91 160.5,-207.91 167.5,-207.91"/>
</g>
<!-- 7 -->
<g id="node8" class="node">
<title>7</title>
<ellipse fill="none" stroke="black" cx="267" cy="-268.6" rx="27" ry="18"/>
<text text-anchor="start" x="260" y="-265.4" font-family="Times,serif" font-size="14.00">x</text>
<text text-anchor="start" x="267" y="-265.4" font-family="Times,serif" baseline-shift="sub" font-size="14.00">0</text>
<g id="a_node8_26"><a xlink:href="C:\Users\turco\OneDrive\Desktop\ProgettoIntelligentWeb\Progetto\graph\lazy\7.txt" xlink:title="Clicca per visualizzare Lx" target="_blank">
<polygon fill="none" stroke="green" points="191,-223.6 191,-249.6 239,-249.6 239,-223.6 191,-223.6"/>
<text text-anchor="start" x="195.56" y="-232" font-family="Times,serif" font-size="14.00"> Label </text>
</a>
</g>
<polygon fill="none" stroke="green" points="190,-222.6 190,-250.6 240,-250.6 240,-222.6 190,-222.6"/>
</g>
<!-- 6&#45;&gt;7 -->
<g id="edge8" class="edge">
<title>6&#45;&gt;7</title>
<path fill="none" stroke="black" d="M267,-339.25C267,-327.12 267,-310.62 267,-296.72"/>
<polygon fill="black" stroke="black" points="270.5,-296.71 267,-286.71 263.5,-296.71 270.5,-296.71"/>
<text text-anchor="middle" x="272.25" y="-308.8" font-family="Times,serif" font-size="14.00">⊔</text>
</g>
<!-- 9 -->
<g id="node10" class="node">
<title>9</title>
<ellipse fill="none" stroke="black" cx="355" cy="-268.6" rx="27" ry="18"/>
<text text-anchor="start" x="348" y="-265.4" font-family="Times,serif" font-size="14.00">x</text>
<text text-anchor="start" x="355" y="-265.4" font-family="Times,serif" baseline-shift="sub" font-size="14.00">0</text>
<g id="a_node10_27"><a xlink:href="C:\Users\turco\OneDrive\Desktop\ProgettoIntelligentWeb\Progetto\graph\lazy\9.txt" xlink:title="Clicca per visualizzare Lx" target="_blank">
<polygon fill="none" stroke="green" points="279,-223.6 279,-249.6 327,-249.6 327,-223.6 279,-223.6"/>
<text text-anchor="start" x="283.56" y="-232" font-family="Times,serif" font-size="14.00"> Label </text>
</a>
</g>
<polygon fill="none" stroke="green" points="278,-222.6 278,-250.6 328,-250.6 328,-222.6 278,-222.6"/>
</g>
<!-- 6&#45;&gt;9 -->
<g id="edge7" class="edge">
<title>6&#45;&gt;9</title>
<path fill="none" stroke="black" d="M281.53,-342.07C295.54,-328.25 316.93,-307.15 333.03,-291.27"/>
<polygon fill="black" stroke="black" points="335.79,-293.47 340.45,-283.95 330.87,-288.49 335.79,-293.47"/>
<text text-anchor="middle" x="324.25" y="-308.8" font-family="Times,serif" font-size="14.00">⊔</text>
</g>
<!-- 8 -->
<g id="node9" class="node">
<title>8</title>
<ellipse fill="none" stroke="black" cx="267" cy="-179.8" rx="42.88" ry="18"/>
<text text-anchor="start" x="244.06" y="-175.6" font-family="Times,serif" font-size="14.00">CLASH</text>
</g>
<!-- 7&#45;&gt;8 -->
<g id="edge9" class="edge">
<title>7&#45;&gt;8</title>
<path fill="none" stroke="red" d="M267,-250.45C267,-238.32 267,-221.82 267,-207.92"/>
<polygon fill="red" stroke="red" points="270.5,-207.91 267,-197.91 263.5,-207.91 270.5,-207.91"/>
</g>
<!-- 10 -->
<g id="node11" class="node">
<title>10</title>
<ellipse fill="none" stroke="black" cx="355" cy="-179.8" rx="27" ry="18"/>
<text text-anchor="start" x="348" y="-176.6" font-family="Times,serif" font-size="14.00">x</text>
<text text-anchor="start" x="355" y="-176.6" font-family="Times,serif" baseline-shift="sub" font-size="14.00">0</text>
<g id="a_node11_28"><a xlink:href="C:\Users\turco\OneDrive\Desktop\ProgettoIntelligentWeb\Progetto\graph\lazy\10.txt" xlink:title="Clicca per visualizzare Lx" target="_blank">
<polygon fill="none" stroke="green" points="279,-134.8 279,-160.8 327,-160.8 327,-134.8 279,-134.8"/>
<text text-anchor="start" x="283.56" y="-143.2" font-family="Times,serif" font-size="14.00"> Label </text>
</a>
</g>
<polygon fill="none" stroke="green" points="278,-133.8 278,-161.8 328,-161.8 328,-133.8 278,-133.8"/>
</g>
<!-- 9&#45;&gt;10 -->
<g id="edge11" class="edge">
<title>9&#45;&gt;10</title>
<path fill="none" stroke="black" d="M355,-250.45C355,-238.32 355,-221.82 355,-207.92"/>
<polygon fill="black" stroke="black" points="358.5,-207.91 355,-197.91 351.5,-207.91 358.5,-207.91"/>
<text text-anchor="middle" x="360.25" y="-220" font-family="Times,serif" font-size="14.00">⊔</text>
</g>
<!-- 12 -->
<g id="node13" class="node">
<title>12</title>
<ellipse fill="none" stroke="black" cx="435" cy="-179.8" rx="27" ry="18"/>
<text text-anchor="start" x="428" y="-176.6" font-family="Times,serif" font-size="14.00">x</text>
<text text-anchor="start" x="435" y="-176.6" font-family="Times,serif" baseline-shift="sub" font-size="14.00">0</text>
<g id="a_node13_29"><a xlink:href="C:\Users\turco\OneDrive\Desktop\ProgettoIntelligentWeb\Progetto\graph\lazy\12.txt" xlink:title="Clicca per visualizzare Lx" target="_blank">
<polygon fill="none" stroke="green" points="359,-134.8 359,-160.8 407,-160.8 407,-134.8 359,-134.8"/>
<text text-anchor="start" x="363.56" y="-143.2" font-family="Times,serif" font-size="14.00"> Label </text>
</a>
</g>
<polygon fill="none" stroke="green" points="358,-133.8 358,-161.8 408,-161.8 408,-133.8 358,-133.8"/>
</g>
<!-- 9&#45;&gt;12 -->
<g id="edge10" class="edge">
<title>9&#45;&gt;12</title>
<path fill="none" stroke="black" d="M368.57,-252.88C381.1,-239.28 399.89,-218.9 414.29,-203.27"/>
<polygon fill="black" stroke="black" points="417.16,-205.32 421.36,-195.6 412.01,-200.58 417.16,-205.32"/>
<text text-anchor="middle" x="408.25" y="-220" font-family="Times,serif" font-size="14.00">⊔</text>
</g>
<!-- 11 -->
<g id="node12" class="node">
<title>11</title>
<ellipse fill="none" stroke="black" cx="347" cy="-91" rx="42.88" ry="18"/>
<text text-anchor="start" x="324.06" y="-86.8" font-family="Times,serif" font-size="14.00">CLASH</text>
</g>
<!-- 10&#45;&gt;11 -->
<g id="edge12" class="edge">
<title>10&#45;&gt;11</title>
<path fill="none" stroke="red" d="M353.42,-161.65C352.3,-149.52 350.78,-133.02 349.5,-119.12"/>
<polygon fill="red" stroke="red" points="352.98,-118.75 348.58,-109.11 346.01,-119.39 352.98,-118.75"/>
</g>
<!-- 13 -->
<g id="node14" class="node">
<title>13</title>
<ellipse fill="none" stroke="black" cx="435" cy="-91" rx="27" ry="18"/>
<text text-anchor="start" x="428" y="-87.8" font-family="Times,serif" font-size="14.00">x</text>
<text text-anchor="start" x="435" y="-87.8" font-family="Times,serif" baseline-shift="sub" font-size="14.00">0</text>
<g id="a_node14_30"><a xlink:href="C:\Users\turco\OneDrive\Desktop\ProgettoIntelligentWeb\Progetto\graph\lazy\13.txt" xlink:title="Clicca per visualizzare Lx" target="_blank">
<polygon fill="none" stroke="green" points="359,-46 359,-72 407,-72 407,-46 359,-46"/>
<text text-anchor="start" x="363.56" y="-54.4" font-family="Times,serif" font-size="14.00"> Label </text>
</a>
</g>
<polygon fill="none" stroke="green" points="358,-45 358,-73 408,-73 408,-45 358,-45"/>
</g>
<!-- 12&#45;&gt;13 -->
<g id="edge14" class="edge">
<title>12&#45;&gt;13</title>
<path fill="none" stroke="black" d="M435,-161.65C435,-149.52 435,-133.02 435,-119.12"/>
<polygon fill="black" stroke="black" points="438.5,-119.11 435,-109.11 431.5,-119.11 438.5,-119.11"/>
<text text-anchor="middle" x="440.25" y="-131.2" font-family="Times,serif" font-size="14.00">⊔</text>
</g>
<!-- 15 -->
<g id="node16" class="node">
<title>15</title>
<ellipse fill="none" stroke="black" cx="529" cy="-91" rx="27" ry="18"/>
<text text-anchor="start" x="522" y="-87.8" font-family="Times,serif" font-size="14.00">x</text>
<text text-anchor="start" x="529" y="-87.8" font-family="Times,serif" baseline-shift="sub" font-size="14.00">0</text>
<g id="a_node16_31"><a xlink:href="C:\Users\turco\OneDrive\Desktop\ProgettoIntelligentWeb\Progetto\graph\lazy\15.txt" xlink:title="Clicca per visualizzare Lx" target="_blank">
<polygon fill="none" stroke="green" points="453,-46 453,-72 501,-72 501,-46 453,-46"/>
<text text-anchor="start" x="457.56" y="-54.4" font-family="Times,serif" font-size="14.00"> Label </text>
</a>
</g>
<polygon fill="none" stroke="green" points="452,-45 452,-73 502,-73 502,-45 452,-45"/>
</g>
<!-- 12&#45;&gt;15 -->
<g id="edge13" class="edge">
<title>12&#45;&gt;15</title>
<path fill="none" stroke="black" d="M450.1,-164.85C465.22,-150.89 488.69,-129.23 506.1,-113.15"/>
<polygon fill="black" stroke="black" points="508.65,-115.56 513.62,-106.2 503.9,-110.41 508.65,-115.56"/>
<text text-anchor="middle" x="496.25" y="-131.2" font-family="Times,serif" font-size="14.00">⊔</text>
</g>
<!-- 14 -->
<g id="node15" class="node">
<title>14</title>
<ellipse fill="none" stroke="black" cx="411" cy="-18" rx="42.88" ry="18"/>
<text text-anchor="start" x="388.06" y="-13.8" font-family="Times,serif" font-size="14.00">CLASH</text>
</g>
<!-- 13&#45;&gt;14 -->
<g id="edge15" class="edge">
<title>13&#45;&gt;14</title>
<path fill="none" stroke="red" d="M429.31,-73.17C426.54,-64.98 423.15,-54.94 420.04,-45.73"/>
<polygon fill="red" stroke="red" points="423.33,-44.55 416.81,-36.2 416.7,-46.79 423.33,-44.55"/>
</g>
<!-- 16 -->
<g id="node17" class="node">
<title>16</title>
<ellipse fill="none" stroke="black" cx="541" cy="-18" rx="69.52" ry="18"/>
<text text-anchor="start" x="498.62" y="-13.8" font-family="Times,serif" font-size="14.00">CLASH&#45;FREE</text>
</g>
<!-- 15&#45;&gt;16 -->
<g id="edge16" class="edge">
<title>15&#45;&gt;16</title>
<path fill="none" stroke="green" d="M531.9,-72.81C533.26,-64.79 534.91,-55.05 536.42,-46.07"/>
<polygon fill="green" stroke="green" points="539.91,-46.47 538.12,-36.03 533,-45.31 539.91,-46.47"/>
</g>
</g>
</svg>
