<svg width="122px" height="227px"
 viewBox="0.00 0.00 122.30 227.00" xmlns="http://www.w3.org/2000/svg" xmlns:xlink="http://www.w3.org/1999/xlink">
<g id="graph0" class="graph" transform="scale(1.0 1.0) rotate(0.0) translate(4.0 223.0)">
<title>tableaux</title>
<polygon fill="white" stroke="transparent" points="-4,4 -4,-223 118.3,-223 118.3,4 -4,4"/>
<!-- 19 -->
<g id="node1" class="node">
<title>19</title>
<ellipse fill="none" stroke="black" cx="74" cy="-178" rx="27" ry="18"/>
<text text-anchor="middle" x="74" y="-174.3" font-family="Times New Roman,serif" font-size="14.00">x0</text>
<g id="a_node1_0"><a xlink:href="C:\Users\Mario\Desktop\ProgettoIntelligentWeb\Progetto\lazy\19.txt" xlink:title="x0">
<text text-anchor="start" x="4.5" y="-203.3" font-family="Times New Roman,serif" font-size="14.00"> Label </text>
</a>
</g>
</g>
<!-- 20 -->
<g id="node2" class="node">
<title>20</title>
<ellipse fill="none" stroke="black" cx="74" cy="-91" rx="27" ry="18"/>
<text text-anchor="middle" x="74" y="-87.3" font-family="Times New Roman,serif" font-size="14.00">x01</text>
<g id="a_node2_1"><a xlink:href="C:\Users\Mario\Desktop\ProgettoIntelligentWeb\Progetto\lazy\20.txt" xlink:title="x01">
<text text-anchor="start" x="4.5" y="-116.3" font-family="Times New Roman,serif" font-size="14.00"> Label </text>
</a>
</g>
</g>
<!-- 19&#45;&gt;20 -->
<g id="edge1" class="edge">
<title>19&#45;&gt;20</title>
<path fill="none" stroke="black" d="M74,-159.8C74,-148.16 74,-132.55 74,-119.24"/>
<polygon fill="black" stroke="black" points="77.5,-119.18 74,-109.18 70.5,-119.18 77.5,-119.18"/>
<text text-anchor="middle" x="79" y="-130.8" font-family="Times New Roman,serif" font-size="14.00">R</text>
</g>
<!-- 21 -->
<g id="node3" class="node">
<title>21</title>
<ellipse fill="none" stroke="black" cx="74" cy="-18" rx="40.09" ry="18"/>
<text text-anchor="middle" x="74" y="-14.3" font-family="Times New Roman,serif" font-size="14.00">CLASH</text>
</g>
<!-- 20&#45;&gt;21 -->
<g id="edge2" class="edge">
<title>20&#45;&gt;21</title>
<path fill="none" stroke="black" d="M74,-72.81C74,-64.79 74,-55.05 74,-46.07"/>
<polygon fill="black" stroke="black" points="77.5,-46.03 74,-36.03 70.5,-46.03 77.5,-46.03"/>
</g>
</g>
</svg>
