<svg width="155px" height="144px"
 viewBox="0.00 0.00 154.51 144.00" xmlns="http://www.w3.org/2000/svg" xmlns:xlink="http://www.w3.org/1999/xlink">
<g id="graph0" class="graph" transform="scale(1.0 1.0) rotate(0.0) translate(4.0 140.0)">
<title>tableaux</title>
<polygon fill="white" stroke="transparent" points="-4,4 -4,-140 150.51,-140 150.51,4 -4,4"/>
<!-- 0 -->
<g id="node1" class="node">
<title>0</title>
<ellipse fill="none" stroke="black" cx="77" cy="-90" rx="27" ry="18"/>
<text text-anchor="start" x="70" y="-86.8" font-family="Times,serif" font-size="14.00">x</text>
<text text-anchor="start" x="77" y="-86.8" font-family="Times,serif" baseline-shift="sub" font-size="14.00">0</text>
<g id="a_node1_1"><a xlink:href="C:\Users\turco\OneDrive\Desktop\ProgettoIntelligentWeb\Progetto\graph\lazy\0.txt" xlink:title="Nodo 0: (A ⊓ B ), A , B " target="_blank">
<polygon fill="none" stroke="green" points="1,-109 1,-135 49,-135 49,-109 1,-109"/>
<text text-anchor="start" x="5.56" y="-117.4" font-family="Times,serif" font-size="14.00"> Label </text>
</a>
</g>
<polygon fill="none" stroke="green" points="0,-108 0,-136 50,-136 50,-108 0,-108"/>
</g>
<!-- 1 -->
<g id="node2" class="node">
<title>1</title>
<ellipse fill="none" stroke="black" cx="77" cy="-18" rx="69.52" ry="18"/>
<text text-anchor="start" x="34.62" y="-13.8" font-family="Times,serif" font-size="14.00">CLASH&#45;FREE</text>
</g>
<!-- 0&#45;&gt;1 -->
<g id="edge1" class="edge">
<title>0&#45;&gt;1</title>
<path fill="none" stroke="green" d="M77,-71.7C77,-63.98 77,-54.71 77,-46.11"/>
<polygon fill="green" stroke="green" points="80.5,-46.1 77,-36.1 73.5,-46.1 80.5,-46.1"/>
</g>
</g>
</svg>
