<svg width="144px" height="238px"
 viewBox="0.00 0.00 143.77 237.80" xmlns="http://www.w3.org/2000/svg" xmlns:xlink="http://www.w3.org/1999/xlink">
<g id="graph0" class="graph" transform="scale(1.0 1.0) rotate(0.0) translate(4.0 233.8)">
<title>tableaux</title>
<polygon fill="white" stroke="transparent" points="-4,4 -4,-233.8 139.77,-233.8 139.77,4 -4,4"/>
<!-- 19 -->
<g id="node1" class="node">
<title>19</title>
<ellipse fill="none" stroke="black" cx="93.09" cy="-179.8" rx="27" ry="18"/>
<text text-anchor="middle" x="93.09" y="-175.6" font-family="Times,serif" font-size="14.00">x0</text>
</g>
<!-- 20 -->
<g id="node2" class="node">
<title>20</title>
<ellipse fill="none" stroke="black" cx="93.09" cy="-91" rx="27" ry="18"/>
<text text-anchor="middle" x="93.09" y="-86.8" font-family="Times,serif" font-size="14.00">x01</text>
<text text-anchor="middle" x="33.04" y="-113.2" font-family="Times,serif" font-size="14.00">(A ⊓ ¬B ), </text>
</g>
<!-- 19&#45;&gt;20 -->
<g id="edge1" class="edge">
<title>19&#45;&gt;20</title>
<path fill="none" stroke="black" d="M93.09,-161.65C93.09,-149.52 93.09,-133.02 93.09,-119.12"/>
<polygon fill="black" stroke="black" points="96.59,-119.11 93.09,-109.11 89.59,-119.11 96.59,-119.11"/>
<text text-anchor="middle" x="97.75" y="-131.2" font-family="Times,serif" font-size="14.00">R</text>
</g>
<!-- 21 -->
<g id="node3" class="node">
<title>21</title>
<ellipse fill="none" stroke="black" cx="93.09" cy="-18" rx="42.88" ry="18"/>
<text text-anchor="middle" x="93.09" y="-13.8" font-family="Times,serif" font-size="14.00">CLASH</text>
</g>
<!-- 20&#45;&gt;21 -->
<g id="edge2" class="edge">
<title>20&#45;&gt;21</title>
<path fill="none" stroke="black" d="M93.09,-72.81C93.09,-64.79 93.09,-55.05 93.09,-46.07"/>
<polygon fill="black" stroke="black" points="96.59,-46.03 93.09,-36.03 89.59,-46.03 96.59,-46.03"/>
</g>
</g>
</svg>
