<svg width="354px" height="1211px"
 viewBox="0.00 0.00 353.92 1210.60" xmlns="http://www.w3.org/2000/svg" xmlns:xlink="http://www.w3.org/1999/xlink">
<g id="graph0" class="graph" transform="scale(1.0 1.0) rotate(0.0) translate(4.0 1206.6)">
<title>tableaux</title>
<polygon fill="white" stroke="transparent" points="-4,4 -4,-1206.6 349.92,-1206.6 349.92,4 -4,4"/>
<!-- 0 -->
<g id="node1" class="node">
<title>0</title>
<ellipse fill="none" stroke="black" cx="113" cy="-1156.6" rx="27" ry="18"/>
<text text-anchor="start" x="106" y="-1153.4" font-family="Times,serif" font-size="14.00">x</text>
<text text-anchor="start" x="113" y="-1153.4" font-family="Times,serif" baseline-shift="sub" font-size="14.00">0</text>
<g id="a_node1_15"><a xlink:href="C:\Users\checc\Desktop\ProgettoIntelligentWeb\Progetto\graph\lazy\0.txt" xlink:title="Nodo 0: ((MacchinaFotografica ⊔ ¬Mirrorless )⊓ (MacchinaFotografica ⊔ ¬Reflex )⊓ (MacchinaFotografica ⊔ &#160;∀ haSensore.owl:Nothing )⊓ (MacchinaFotografica ⊔ &#160;∀ haSpecchio.owl:Nothing )⊓ (owl:Nothing ⊔ &#160;∀ haSensore.Sensore )⊓ (owl:Nothing ⊔ &#160;∀ haSpecchio.Specchio )⊓ (¬APSC ⊔ ¬FullFrame )⊓ (¬Mirrorless ⊔ &#160;∀ haSpecchio.¬Specchio )), (¬APSC ⊔ ¬FullFrame ), (¬Mirrorless ⊔ &#160;∀ haSpecchio.¬Specchio ), (MacchinaFotografica ⊔ &#160;∀ haSensore.owl:Nothing ), Query , (MacchinaFotografica ⊔ ¬Mirrorless ), (MacchinaFotografica ⊔ &#160;∀ haSpecchio.owl:Nothing ), (MacchinaFotografica ⊔ ¬Reflex ), (owl:Nothing ⊔ &#160;∀ haSpecchio.Specchio ), (owl:Nothing ⊔ &#160;∀ haSensore.Sensore )" target="_blank">
<polygon fill="none" stroke="green" points="37,-1175.6 37,-1201.6 85,-1201.6 85,-1175.6 37,-1175.6"/>
<text text-anchor="start" x="41.56" y="-1184" font-family="Times,serif" font-size="14.00"> Label </text>
</a>
</g>
<polygon fill="none" stroke="green" points="36,-1174.6 36,-1202.6 86,-1202.6 86,-1174.6 36,-1174.6"/>
</g>
<!-- 1 -->
<g id="node2" class="node">
<title>1</title>
<ellipse fill="none" stroke="black" cx="113" cy="-1067.8" rx="27" ry="18"/>
<text text-anchor="start" x="106" y="-1064.6" font-family="Times,serif" font-size="14.00">x</text>
<text text-anchor="start" x="113" y="-1064.6" font-family="Times,serif" baseline-shift="sub" font-size="14.00">0</text>
<g id="a_node2_16"><a xlink:href="C:\Users\checc\Desktop\ProgettoIntelligentWeb\Progetto\graph\lazy\1.txt" xlink:title="Nodo 1: ((MacchinaFotografica ⊔ ¬Mirrorless )⊓ (MacchinaFotografica ⊔ ¬Reflex )⊓ (MacchinaFotografica ⊔ &#160;∀ haSensore.owl:Nothing )⊓ (MacchinaFotografica ⊔ &#160;∀ haSpecchio.owl:Nothing )⊓ (owl:Nothing ⊔ &#160;∀ haSensore.Sensore )⊓ (owl:Nothing ⊔ &#160;∀ haSpecchio.Specchio )⊓ (¬APSC ⊔ ¬FullFrame )⊓ (¬Mirrorless ⊔ &#160;∀ haSpecchio.¬Specchio )), (¬APSC ⊔ ¬FullFrame ), (¬Mirrorless ⊔ &#160;∀ haSpecchio.¬Specchio ), (MacchinaFotografica ⊔ &#160;∀ haSensore.owl:Nothing ), Query , (MacchinaFotografica ⊔ ¬Mirrorless ), (MacchinaFotografica ⊔ &#160;∀ haSpecchio.owl:Nothing ), (MacchinaFotografica ⊔ ¬Reflex ), ¬FullFrame , (owl:Nothing ⊔ &#160;∀ haSpecchio.Specchio ), (owl:Nothing ⊔ &#160;∀ haSensore.Sensore )" target="_blank">
<polygon fill="none" stroke="green" points="37,-1086.8 37,-1112.8 85,-1112.8 85,-1086.8 37,-1086.8"/>
<text text-anchor="start" x="41.56" y="-1095.2" font-family="Times,serif" font-size="14.00"> Label </text>
</a>
</g>
<polygon fill="none" stroke="green" points="36,-1085.8 36,-1113.8 86,-1113.8 86,-1085.8 36,-1085.8"/>
</g>
<!-- 0&#45;&gt;1 -->
<g id="edge1" class="edge">
<title>0&#45;&gt;1</title>
<path fill="none" stroke="black" d="M113,-1138.45C113,-1126.32 113,-1109.82 113,-1095.92"/>
<polygon fill="black" stroke="black" points="116.5,-1095.91 113,-1085.91 109.5,-1095.91 116.5,-1095.91"/>
<text text-anchor="middle" x="118.25" y="-1108" font-family="Times,serif" font-size="14.00">⊔</text>
</g>
<!-- 2 -->
<g id="node3" class="node">
<title>2</title>
<ellipse fill="none" stroke="black" cx="113" cy="-979" rx="27" ry="18"/>
<text text-anchor="start" x="106" y="-975.8" font-family="Times,serif" font-size="14.00">x</text>
<text text-anchor="start" x="113" y="-975.8" font-family="Times,serif" baseline-shift="sub" font-size="14.00">0</text>
<g id="a_node3_17"><a xlink:href="C:\Users\checc\Desktop\ProgettoIntelligentWeb\Progetto\graph\lazy\2.txt" xlink:title="Nodo 2: ((MacchinaFotografica ⊔ ¬Mirrorless )⊓ (MacchinaFotografica ⊔ ¬Reflex )⊓ (MacchinaFotografica ⊔ &#160;∀ haSensore.owl:Nothing )⊓ (MacchinaFotografica ⊔ &#160;∀ haSpecchio.owl:Nothing )⊓ (owl:Nothing ⊔ &#160;∀ haSensore.Sensore )⊓ (owl:Nothing ⊔ &#160;∀ haSpecchio.Specchio )⊓ (¬APSC ⊔ ¬FullFrame )⊓ (¬Mirrorless ⊔ &#160;∀ haSpecchio.¬Specchio )), (¬APSC ⊔ ¬FullFrame ), (¬Mirrorless ⊔ &#160;∀ haSpecchio.¬Specchio ), (MacchinaFotografica ⊔ &#160;∀ haSensore.owl:Nothing ), &#160;∀ haSpecchio.¬Specchio , Query , (MacchinaFotografica ⊔ ¬Mirrorless ), (MacchinaFotografica ⊔ &#160;∀ haSpecchio.owl:Nothing ), (MacchinaFotografica ⊔ ¬Reflex ), ¬FullFrame , (owl:Nothing ⊔ &#160;∀ haSpecchio.Specchio ), (owl:Nothing ⊔ &#160;∀ haSensore.Sensore )" target="_blank">
<polygon fill="none" stroke="green" points="37,-998 37,-1024 85,-1024 85,-998 37,-998"/>
<text text-anchor="start" x="41.56" y="-1006.4" font-family="Times,serif" font-size="14.00"> Label </text>
</a>
</g>
<polygon fill="none" stroke="green" points="36,-997 36,-1025 86,-1025 86,-997 36,-997"/>
</g>
<!-- 1&#45;&gt;2 -->
<g id="edge2" class="edge">
<title>1&#45;&gt;2</title>
<path fill="none" stroke="black" d="M113,-1049.65C113,-1037.52 113,-1021.02 113,-1007.12"/>
<polygon fill="black" stroke="black" points="116.5,-1007.11 113,-997.11 109.5,-1007.11 116.5,-1007.11"/>
<text text-anchor="middle" x="118.25" y="-1019.2" font-family="Times,serif" font-size="14.00">⊔</text>
</g>
<!-- 3 -->
<g id="node4" class="node">
<title>3</title>
<ellipse fill="none" stroke="black" cx="113" cy="-890.2" rx="27" ry="18"/>
<text text-anchor="start" x="106" y="-887" font-family="Times,serif" font-size="14.00">x</text>
<text text-anchor="start" x="113" y="-887" font-family="Times,serif" baseline-shift="sub" font-size="14.00">0</text>
<g id="a_node4_18"><a xlink:href="C:\Users\checc\Desktop\ProgettoIntelligentWeb\Progetto\graph\lazy\3.txt" xlink:title="Nodo 3: ((MacchinaFotografica ⊔ ¬Mirrorless )⊓ (MacchinaFotografica ⊔ ¬Reflex )⊓ (MacchinaFotografica ⊔ &#160;∀ haSensore.owl:Nothing )⊓ (MacchinaFotografica ⊔ &#160;∀ haSpecchio.owl:Nothing )⊓ (owl:Nothing ⊔ &#160;∀ haSensore.Sensore )⊓ (owl:Nothing ⊔ &#160;∀ haSpecchio.Specchio )⊓ (¬APSC ⊔ ¬FullFrame )⊓ (¬Mirrorless ⊔ &#160;∀ haSpecchio.¬Specchio )), (¬Mirrorless ⊔ &#160;∀ haSpecchio.¬Specchio ), &#160;∀ haSpecchio.¬Specchio , Query , (MacchinaFotografica ⊔ ¬Mirrorless ), (MacchinaFotografica ⊔ &#160;∀ haSpecchio.owl:Nothing ), ¬FullFrame , (¬APSC ⊔ ¬FullFrame ), (MacchinaFotografica ⊔ &#160;∀ haSensore.owl:Nothing ), MacchinaFotografica , (MacchinaFotografica ⊔ ¬Reflex ), (owl:Nothing ⊔ &#160;∀ haSpecchio.Specchio ), (owl:Nothing ⊔ &#160;∀ haSensore.Sensore )" target="_blank">
<polygon fill="none" stroke="green" points="37,-909.2 37,-935.2 85,-935.2 85,-909.2 37,-909.2"/>
<text text-anchor="start" x="41.56" y="-917.6" font-family="Times,serif" font-size="14.00"> Label </text>
</a>
</g>
<polygon fill="none" stroke="green" points="36,-908.2 36,-936.2 86,-936.2 86,-908.2 36,-908.2"/>
</g>
<!-- 2&#45;&gt;3 -->
<g id="edge3" class="edge">
<title>2&#45;&gt;3</title>
<path fill="none" stroke="black" d="M113,-960.85C113,-948.72 113,-932.22 113,-918.32"/>
<polygon fill="black" stroke="black" points="116.5,-918.31 113,-908.31 109.5,-918.31 116.5,-918.31"/>
<text text-anchor="middle" x="118.25" y="-930.4" font-family="Times,serif" font-size="14.00">⊔</text>
</g>
<!-- 4 -->
<g id="node5" class="node">
<title>4</title>
<ellipse fill="none" stroke="black" cx="77" cy="-801.4" rx="27" ry="18"/>
<text text-anchor="start" x="70" y="-798.2" font-family="Times,serif" font-size="14.00">x</text>
<text text-anchor="start" x="77" y="-798.2" font-family="Times,serif" baseline-shift="sub" font-size="14.00">0</text>
<g id="a_node5_19"><a xlink:href="C:\Users\checc\Desktop\ProgettoIntelligentWeb\Progetto\graph\lazy\4.txt" xlink:title="Nodo 4: ((MacchinaFotografica ⊔ ¬Mirrorless )⊓ (MacchinaFotografica ⊔ ¬Reflex )⊓ (MacchinaFotografica ⊔ &#160;∀ haSensore.owl:Nothing )⊓ (MacchinaFotografica ⊔ &#160;∀ haSpecchio.owl:Nothing )⊓ (owl:Nothing ⊔ &#160;∀ haSensore.Sensore )⊓ (owl:Nothing ⊔ &#160;∀ haSpecchio.Specchio )⊓ (¬APSC ⊔ ¬FullFrame )⊓ (¬Mirrorless ⊔ &#160;∀ haSpecchio.¬Specchio )), (¬Mirrorless ⊔ &#160;∀ haSpecchio.¬Specchio ), &#160;∀ haSpecchio.¬Specchio , Query , (MacchinaFotografica ⊔ ¬Mirrorless ), (MacchinaFotografica ⊔ &#160;∀ haSpecchio.owl:Nothing ), ¬FullFrame , (¬APSC ⊔ ¬FullFrame ), (MacchinaFotografica ⊔ &#160;∀ haSensore.owl:Nothing ), ∃haSensore.Sensore , owl:Nothing , MacchinaFotografica , (MacchinaFotografica ⊔ ¬Reflex ), (owl:Nothing ⊔ &#160;∀ haSpecchio.Specchio ), (owl:Nothing ⊔ &#160;∀ haSensore.Sensore )" target="_blank">
<polygon fill="none" stroke="green" points="1,-820.4 1,-846.4 49,-846.4 49,-820.4 1,-820.4"/>
<text text-anchor="start" x="5.56" y="-828.8" font-family="Times,serif" font-size="14.00"> Label </text>
</a>
</g>
<polygon fill="none" stroke="green" points="0,-819.4 0,-847.4 50,-847.4 50,-819.4 0,-819.4"/>
</g>
<!-- 3&#45;&gt;4 -->
<g id="edge5" class="edge">
<title>3&#45;&gt;4</title>
<path fill="none" stroke="black" d="M106.06,-872.46C100.88,-859.98 93.71,-842.68 87.78,-828.4"/>
<polygon fill="black" stroke="black" points="90.98,-826.98 83.92,-819.08 84.52,-829.66 90.98,-826.98"/>
<text text-anchor="middle" x="104.25" y="-841.6" font-family="Times,serif" font-size="14.00">⊔</text>
</g>
<!-- 6 -->
<g id="node7" class="node">
<title>6</title>
<ellipse fill="none" stroke="black" cx="157" cy="-801.4" rx="27" ry="18"/>
<text text-anchor="start" x="150" y="-798.2" font-family="Times,serif" font-size="14.00">x</text>
<text text-anchor="start" x="157" y="-798.2" font-family="Times,serif" baseline-shift="sub" font-size="14.00">0</text>
<g id="a_node7_20"><a xlink:href="C:\Users\checc\Desktop\ProgettoIntelligentWeb\Progetto\graph\lazy\6.txt" xlink:title="Nodo 6: ((MacchinaFotografica ⊔ ¬Mirrorless )⊓ (MacchinaFotografica ⊔ ¬Reflex )⊓ (MacchinaFotografica ⊔ &#160;∀ haSensore.owl:Nothing )⊓ (MacchinaFotografica ⊔ &#160;∀ haSpecchio.owl:Nothing )⊓ (owl:Nothing ⊔ &#160;∀ haSensore.Sensore )⊓ (owl:Nothing ⊔ &#160;∀ haSpecchio.Specchio )⊓ (¬APSC ⊔ ¬FullFrame )⊓ (¬Mirrorless ⊔ &#160;∀ haSpecchio.¬Specchio )), (¬Mirrorless ⊔ &#160;∀ haSpecchio.¬Specchio ), &#160;∀ haSpecchio.¬Specchio , Query , (MacchinaFotografica ⊔ ¬Mirrorless ), (MacchinaFotografica ⊔ &#160;∀ haSpecchio.owl:Nothing ), ¬FullFrame , (¬APSC ⊔ ¬FullFrame ), (MacchinaFotografica ⊔ &#160;∀ haSensore.owl:Nothing ), ∃haSensore.Sensore , MacchinaFotografica , (MacchinaFotografica ⊔ ¬Reflex ), (owl:Nothing ⊔ &#160;∀ haSpecchio.Specchio ), &#160;∀ haSpecchio.Specchio , (owl:Nothing ⊔ &#160;∀ haSensore.Sensore )" target="_blank">
<polygon fill="none" stroke="green" points="81,-756.4 81,-782.4 129,-782.4 129,-756.4 81,-756.4"/>
<text text-anchor="start" x="85.56" y="-764.8" font-family="Times,serif" font-size="14.00"> Label </text>
</a>
</g>
<polygon fill="none" stroke="green" points="80,-755.4 80,-783.4 130,-783.4 130,-755.4 80,-755.4"/>
</g>
<!-- 3&#45;&gt;6 -->
<g id="edge4" class="edge">
<title>3&#45;&gt;6</title>
<path fill="none" stroke="black" d="M121.28,-872.87C127.73,-860.14 136.8,-842.24 144.19,-827.66"/>
<polygon fill="black" stroke="black" points="147.36,-829.16 148.76,-818.65 141.12,-825.99 147.36,-829.16"/>
<text text-anchor="middle" x="144.25" y="-841.6" font-family="Times,serif" font-size="14.00">⊔</text>
</g>
<!-- 5 -->
<g id="node6" class="node">
<title>5</title>
<ellipse fill="none" stroke="black" cx="69" cy="-712.6" rx="42.88" ry="18"/>
<text text-anchor="start" x="46.06" y="-708.4" font-family="Times,serif" font-size="14.00">CLASH</text>
</g>
<!-- 4&#45;&gt;5 -->
<g id="edge6" class="edge">
<title>4&#45;&gt;5</title>
<path fill="none" stroke="red" d="M75.42,-783.25C74.3,-771.12 72.78,-754.62 71.5,-740.72"/>
<polygon fill="red" stroke="red" points="74.98,-740.35 70.58,-730.71 68.01,-740.99 74.98,-740.35"/>
</g>
<!-- 7 -->
<g id="node8" class="node">
<title>7</title>
<ellipse fill="none" stroke="black" cx="157" cy="-712.6" rx="27" ry="18"/>
<text text-anchor="start" x="150" y="-709.4" font-family="Times,serif" font-size="14.00">x</text>
<text text-anchor="start" x="157" y="-709.4" font-family="Times,serif" baseline-shift="sub" font-size="14.00">0</text>
<g id="a_node8_21"><a xlink:href="C:\Users\checc\Desktop\ProgettoIntelligentWeb\Progetto\graph\lazy\7.txt" xlink:title="Nodo 7: ((MacchinaFotografica ⊔ ¬Mirrorless )⊓ (MacchinaFotografica ⊔ ¬Reflex )⊓ (MacchinaFotografica ⊔ &#160;∀ haSensore.owl:Nothing )⊓ (MacchinaFotografica ⊔ &#160;∀ haSpecchio.owl:Nothing )⊓ (owl:Nothing ⊔ &#160;∀ haSensore.Sensore )⊓ (owl:Nothing ⊔ &#160;∀ haSpecchio.Specchio )⊓ (¬APSC ⊔ ¬FullFrame )⊓ (¬Mirrorless ⊔ &#160;∀ haSpecchio.¬Specchio )), (¬Mirrorless ⊔ &#160;∀ haSpecchio.¬Specchio ), &#160;∀ haSpecchio.¬Specchio , Query , (MacchinaFotografica ⊔ ¬Mirrorless ), (MacchinaFotografica ⊔ &#160;∀ haSpecchio.owl:Nothing ), ¬FullFrame , (¬APSC ⊔ ¬FullFrame ), (MacchinaFotografica ⊔ &#160;∀ haSensore.owl:Nothing ), ∃haSensore.Sensore , owl:Nothing , MacchinaFotografica , (MacchinaFotografica ⊔ ¬Reflex ), (owl:Nothing ⊔ &#160;∀ haSpecchio.Specchio ), &#160;∀ haSpecchio.Specchio , (owl:Nothing ⊔ &#160;∀ haSensore.Sensore )" target="_blank">
<polygon fill="none" stroke="green" points="81,-667.6 81,-693.6 129,-693.6 129,-667.6 81,-667.6"/>
<text text-anchor="start" x="85.56" y="-676" font-family="Times,serif" font-size="14.00"> Label </text>
</a>
</g>
<polygon fill="none" stroke="green" points="80,-666.6 80,-694.6 130,-694.6 130,-666.6 80,-666.6"/>
</g>
<!-- 6&#45;&gt;7 -->
<g id="edge8" class="edge">
<title>6&#45;&gt;7</title>
<path fill="none" stroke="black" d="M157,-783.25C157,-771.12 157,-754.62 157,-740.72"/>
<polygon fill="black" stroke="black" points="160.5,-740.71 157,-730.71 153.5,-740.71 160.5,-740.71"/>
<text text-anchor="middle" x="162.25" y="-752.8" font-family="Times,serif" font-size="14.00">⊔</text>
</g>
<!-- 9 -->
<g id="node10" class="node">
<title>9</title>
<ellipse fill="none" stroke="black" cx="237" cy="-712.6" rx="27" ry="18"/>
<text text-anchor="start" x="230" y="-709.4" font-family="Times,serif" font-size="14.00">x</text>
<text text-anchor="start" x="237" y="-709.4" font-family="Times,serif" baseline-shift="sub" font-size="14.00">0</text>
<g id="a_node10_22"><a xlink:href="C:\Users\checc\Desktop\ProgettoIntelligentWeb\Progetto\graph\lazy\9.txt" xlink:title="Nodo 9: ((MacchinaFotografica ⊔ ¬Mirrorless )⊓ (MacchinaFotografica ⊔ ¬Reflex )⊓ (MacchinaFotografica ⊔ &#160;∀ haSensore.owl:Nothing )⊓ (MacchinaFotografica ⊔ &#160;∀ haSpecchio.owl:Nothing )⊓ (owl:Nothing ⊔ &#160;∀ haSensore.Sensore )⊓ (owl:Nothing ⊔ &#160;∀ haSpecchio.Specchio )⊓ (¬APSC ⊔ ¬FullFrame )⊓ (¬Mirrorless ⊔ &#160;∀ haSpecchio.¬Specchio )), (¬Mirrorless ⊔ &#160;∀ haSpecchio.¬Specchio ), &#160;∀ haSpecchio.¬Specchio , Query , (MacchinaFotografica ⊔ ¬Mirrorless ), (MacchinaFotografica ⊔ &#160;∀ haSpecchio.owl:Nothing ), ¬FullFrame , (¬APSC ⊔ ¬FullFrame ), (MacchinaFotografica ⊔ &#160;∀ haSensore.owl:Nothing ), ∃haSensore.Sensore , MacchinaFotografica , &#160;∀ haSensore.Sensore , (MacchinaFotografica ⊔ ¬Reflex ), (owl:Nothing ⊔ &#160;∀ haSpecchio.Specchio ), &#160;∀ haSpecchio.Specchio , (owl:Nothing ⊔ &#160;∀ haSensore.Sensore )" target="_blank">
<polygon fill="none" stroke="green" points="161,-667.6 161,-693.6 209,-693.6 209,-667.6 161,-667.6"/>
<text text-anchor="start" x="165.56" y="-676" font-family="Times,serif" font-size="14.00"> Label </text>
</a>
</g>
<polygon fill="none" stroke="green" points="160,-666.6 160,-694.6 210,-694.6 210,-666.6 160,-666.6"/>
</g>
<!-- 6&#45;&gt;9 -->
<g id="edge7" class="edge">
<title>6&#45;&gt;9</title>
<path fill="none" stroke="black" d="M170.57,-785.68C183.1,-772.08 201.89,-751.7 216.29,-736.07"/>
<polygon fill="black" stroke="black" points="219.16,-738.12 223.36,-728.4 214.01,-733.38 219.16,-738.12"/>
<text text-anchor="middle" x="210.25" y="-752.8" font-family="Times,serif" font-size="14.00">⊔</text>
</g>
<!-- 8 -->
<g id="node9" class="node">
<title>8</title>
<ellipse fill="none" stroke="black" cx="153" cy="-623.8" rx="42.88" ry="18"/>
<text text-anchor="start" x="130.06" y="-619.6" font-family="Times,serif" font-size="14.00">CLASH</text>
</g>
<!-- 7&#45;&gt;8 -->
<g id="edge9" class="edge">
<title>7&#45;&gt;8</title>
<path fill="none" stroke="red" d="M156.21,-694.45C155.65,-682.32 154.89,-665.82 154.25,-651.92"/>
<polygon fill="red" stroke="red" points="157.75,-651.74 153.79,-641.91 150.75,-652.06 157.75,-651.74"/>
</g>
<!-- 10 -->
<g id="node11" class="node">
<title>10</title>
<ellipse fill="none" stroke="black" cx="241" cy="-623.8" rx="27" ry="18"/>
<text text-anchor="start" x="234" y="-620.6" font-family="Times,serif" font-size="14.00">x</text>
<text text-anchor="start" x="241" y="-620.6" font-family="Times,serif" baseline-shift="sub" font-size="14.00">1</text>
<g id="a_node11_23"><a xlink:href="C:\Users\checc\Desktop\ProgettoIntelligentWeb\Progetto\graph\lazy\10.txt" xlink:title="Nodo 10: ((MacchinaFotografica ⊔ ¬Mirrorless )⊓ (MacchinaFotografica ⊔ ¬Reflex )⊓ (MacchinaFotografica ⊔ &#160;∀ haSensore.owl:Nothing )⊓ (MacchinaFotografica ⊔ &#160;∀ haSpecchio.owl:Nothing )⊓ (owl:Nothing ⊔ &#160;∀ haSensore.Sensore )⊓ (owl:Nothing ⊔ &#160;∀ haSpecchio.Specchio )⊓ (¬APSC ⊔ ¬FullFrame )⊓ (¬Mirrorless ⊔ &#160;∀ haSpecchio.¬Specchio )), Sensore " target="_blank">
<polygon fill="none" stroke="green" points="165,-578.8 165,-604.8 213,-604.8 213,-578.8 165,-578.8"/>
<text text-anchor="start" x="169.56" y="-587.2" font-family="Times,serif" font-size="14.00"> Label </text>
</a>
</g>
<polygon fill="none" stroke="green" points="164,-577.8 164,-605.8 214,-605.8 214,-577.8 164,-577.8"/>
</g>
<!-- 9&#45;&gt;10 -->
<g id="edge10" class="edge">
<title>9&#45;&gt;10</title>
<path fill="none" stroke="black" d="M237.79,-694.45C238.35,-682.32 239.11,-665.82 239.75,-651.92"/>
<polygon fill="black" stroke="black" points="243.25,-652.06 240.21,-641.91 236.25,-651.74 243.25,-652.06"/>
<text text-anchor="middle" x="267.77" y="-664" font-family="Times,serif" font-size="14.00">haSensore</text>
</g>
<!-- 11 -->
<g id="node12" class="node">
<title>11</title>
<ellipse fill="none" stroke="black" cx="241" cy="-535" rx="27" ry="18"/>
<text text-anchor="start" x="234" y="-531.8" font-family="Times,serif" font-size="14.00">x</text>
<text text-anchor="start" x="241" y="-531.8" font-family="Times,serif" baseline-shift="sub" font-size="14.00">1</text>
<g id="a_node12_24"><a xlink:href="C:\Users\checc\Desktop\ProgettoIntelligentWeb\Progetto\graph\lazy\11.txt" xlink:title="Nodo 11: ((MacchinaFotografica ⊔ ¬Mirrorless )⊓ (MacchinaFotografica ⊔ ¬Reflex )⊓ (MacchinaFotografica ⊔ &#160;∀ haSensore.owl:Nothing )⊓ (MacchinaFotografica ⊔ &#160;∀ haSpecchio.owl:Nothing )⊓ (owl:Nothing ⊔ &#160;∀ haSensore.Sensore )⊓ (owl:Nothing ⊔ &#160;∀ haSpecchio.Specchio )⊓ (¬APSC ⊔ ¬FullFrame )⊓ (¬Mirrorless ⊔ &#160;∀ haSpecchio.¬Specchio )), (¬Mirrorless ⊔ &#160;∀ haSpecchio.¬Specchio ), (¬APSC ⊔ ¬FullFrame ), (MacchinaFotografica ⊔ &#160;∀ haSensore.owl:Nothing ), &#160;∀ haSpecchio.¬Specchio , (MacchinaFotografica ⊔ ¬Mirrorless ), (MacchinaFotografica ⊔ ¬Reflex ), (MacchinaFotografica ⊔ &#160;∀ haSpecchio.owl:Nothing ), (owl:Nothing ⊔ &#160;∀ haSpecchio.Specchio ), Sensore , (owl:Nothing ⊔ &#160;∀ haSensore.Sensore )" target="_blank">
<polygon fill="none" stroke="green" points="165,-518 165,-544 213,-544 213,-518 165,-518"/>
<text text-anchor="start" x="169.56" y="-526.4" font-family="Times,serif" font-size="14.00"> Label </text>
</a>
</g>
<polygon fill="none" stroke="green" points="164,-517 164,-545 214,-545 214,-517 164,-517"/>
</g>
<!-- 10&#45;&gt;11 -->
<g id="edge11" class="edge">
<title>10&#45;&gt;11</title>
<path fill="none" stroke="black" d="M241,-605.65C241,-593.52 241,-577.02 241,-563.12"/>
<polygon fill="black" stroke="black" points="244.5,-563.11 241,-553.11 237.5,-563.11 244.5,-563.11"/>
<text text-anchor="middle" x="246.25" y="-575.2" font-family="Times,serif" font-size="14.00">⊔</text>
</g>
<!-- 12 -->
<g id="node13" class="node">
<title>12</title>
<ellipse fill="none" stroke="black" cx="241" cy="-446.2" rx="27" ry="18"/>
<text text-anchor="start" x="234" y="-443" font-family="Times,serif" font-size="14.00">x</text>
<text text-anchor="start" x="241" y="-443" font-family="Times,serif" baseline-shift="sub" font-size="14.00">1</text>
<g id="a_node13_25"><a xlink:href="C:\Users\checc\Desktop\ProgettoIntelligentWeb\Progetto\graph\lazy\12.txt" xlink:title="Nodo 12: ((MacchinaFotografica ⊔ ¬Mirrorless )⊓ (MacchinaFotografica ⊔ ¬Reflex )⊓ (MacchinaFotografica ⊔ &#160;∀ haSensore.owl:Nothing )⊓ (MacchinaFotografica ⊔ &#160;∀ haSpecchio.owl:Nothing )⊓ (owl:Nothing ⊔ &#160;∀ haSensore.Sensore )⊓ (owl:Nothing ⊔ &#160;∀ haSpecchio.Specchio )⊓ (¬APSC ⊔ ¬FullFrame )⊓ (¬Mirrorless ⊔ &#160;∀ haSpecchio.¬Specchio )), (¬Mirrorless ⊔ &#160;∀ haSpecchio.¬Specchio ), (¬APSC ⊔ ¬FullFrame ), (MacchinaFotografica ⊔ &#160;∀ haSensore.owl:Nothing ), &#160;∀ haSpecchio.¬Specchio , (MacchinaFotografica ⊔ ¬Mirrorless ), (MacchinaFotografica ⊔ ¬Reflex ), (MacchinaFotografica ⊔ &#160;∀ haSpecchio.owl:Nothing ), ¬FullFrame , (owl:Nothing ⊔ &#160;∀ haSpecchio.Specchio ), Sensore , (owl:Nothing ⊔ &#160;∀ haSensore.Sensore )" target="_blank">
<polygon fill="none" stroke="green" points="165,-465.2 165,-491.2 213,-491.2 213,-465.2 165,-465.2"/>
<text text-anchor="start" x="169.56" y="-473.6" font-family="Times,serif" font-size="14.00"> Label </text>
</a>
</g>
<polygon fill="none" stroke="green" points="164,-464.2 164,-492.2 214,-492.2 214,-464.2 164,-464.2"/>
</g>
<!-- 11&#45;&gt;12 -->
<g id="edge12" class="edge">
<title>11&#45;&gt;12</title>
<path fill="none" stroke="black" d="M241,-516.85C241,-504.72 241,-488.22 241,-474.32"/>
<polygon fill="black" stroke="black" points="244.5,-474.31 241,-464.31 237.5,-474.31 244.5,-474.31"/>
<text text-anchor="middle" x="246.25" y="-486.4" font-family="Times,serif" font-size="14.00">⊔</text>
</g>
<!-- 13 -->
<g id="node14" class="node">
<title>13</title>
<ellipse fill="none" stroke="black" cx="241" cy="-357.4" rx="27" ry="18"/>
<text text-anchor="start" x="234" y="-354.2" font-family="Times,serif" font-size="14.00">x</text>
<text text-anchor="start" x="241" y="-354.2" font-family="Times,serif" baseline-shift="sub" font-size="14.00">1</text>
<g id="a_node14_26"><a xlink:href="C:\Users\checc\Desktop\ProgettoIntelligentWeb\Progetto\graph\lazy\13.txt" xlink:title="Nodo 13: ((MacchinaFotografica ⊔ ¬Mirrorless )⊓ (MacchinaFotografica ⊔ ¬Reflex )⊓ (MacchinaFotografica ⊔ &#160;∀ haSensore.owl:Nothing )⊓ (MacchinaFotografica ⊔ &#160;∀ haSpecchio.owl:Nothing )⊓ (owl:Nothing ⊔ &#160;∀ haSensore.Sensore )⊓ (owl:Nothing ⊔ &#160;∀ haSpecchio.Specchio )⊓ (¬APSC ⊔ ¬FullFrame )⊓ (¬Mirrorless ⊔ &#160;∀ haSpecchio.¬Specchio )), (¬Mirrorless ⊔ &#160;∀ haSpecchio.¬Specchio ), &#160;∀ haSpecchio.¬Specchio , (MacchinaFotografica ⊔ ¬Mirrorless ), (MacchinaFotografica ⊔ &#160;∀ haSpecchio.owl:Nothing ), ¬FullFrame , Sensore , (¬APSC ⊔ ¬FullFrame ), (MacchinaFotografica ⊔ &#160;∀ haSensore.owl:Nothing ), MacchinaFotografica , (MacchinaFotografica ⊔ ¬Reflex ), (owl:Nothing ⊔ &#160;∀ haSpecchio.Specchio ), (owl:Nothing ⊔ &#160;∀ haSensore.Sensore )" target="_blank">
<polygon fill="none" stroke="green" points="165,-376.4 165,-402.4 213,-402.4 213,-376.4 165,-376.4"/>
<text text-anchor="start" x="169.56" y="-384.8" font-family="Times,serif" font-size="14.00"> Label </text>
</a>
</g>
<polygon fill="none" stroke="green" points="164,-375.4 164,-403.4 214,-403.4 214,-375.4 164,-375.4"/>
</g>
<!-- 12&#45;&gt;13 -->
<g id="edge13" class="edge">
<title>12&#45;&gt;13</title>
<path fill="none" stroke="black" d="M241,-428.05C241,-415.92 241,-399.42 241,-385.52"/>
<polygon fill="black" stroke="black" points="244.5,-385.51 241,-375.51 237.5,-385.51 244.5,-385.51"/>
<text text-anchor="middle" x="246.25" y="-397.6" font-family="Times,serif" font-size="14.00">⊔</text>
</g>
<!-- 14 -->
<g id="node15" class="node">
<title>14</title>
<ellipse fill="none" stroke="black" cx="205" cy="-268.6" rx="27" ry="18"/>
<text text-anchor="start" x="198" y="-265.4" font-family="Times,serif" font-size="14.00">x</text>
<text text-anchor="start" x="205" y="-265.4" font-family="Times,serif" baseline-shift="sub" font-size="14.00">1</text>
<g id="a_node15_27"><a xlink:href="C:\Users\checc\Desktop\ProgettoIntelligentWeb\Progetto\graph\lazy\14.txt" xlink:title="Nodo 14: ((MacchinaFotografica ⊔ ¬Mirrorless )⊓ (MacchinaFotografica ⊔ ¬Reflex )⊓ (MacchinaFotografica ⊔ &#160;∀ haSensore.owl:Nothing )⊓ (MacchinaFotografica ⊔ &#160;∀ haSpecchio.owl:Nothing )⊓ (owl:Nothing ⊔ &#160;∀ haSensore.Sensore )⊓ (owl:Nothing ⊔ &#160;∀ haSpecchio.Specchio )⊓ (¬APSC ⊔ ¬FullFrame )⊓ (¬Mirrorless ⊔ &#160;∀ haSpecchio.¬Specchio )), (¬Mirrorless ⊔ &#160;∀ haSpecchio.¬Specchio ), &#160;∀ haSpecchio.¬Specchio , (MacchinaFotografica ⊔ ¬Mirrorless ), (MacchinaFotografica ⊔ &#160;∀ haSpecchio.owl:Nothing ), ¬FullFrame , Sensore , (¬APSC ⊔ ¬FullFrame ), (MacchinaFotografica ⊔ &#160;∀ haSensore.owl:Nothing ), ∃haSensore.Sensore , owl:Nothing , MacchinaFotografica , (MacchinaFotografica ⊔ ¬Reflex ), (owl:Nothing ⊔ &#160;∀ haSpecchio.Specchio ), (owl:Nothing ⊔ &#160;∀ haSensore.Sensore )" target="_blank">
<polygon fill="none" stroke="green" points="129,-287.6 129,-313.6 177,-313.6 177,-287.6 129,-287.6"/>
<text text-anchor="start" x="133.56" y="-296" font-family="Times,serif" font-size="14.00"> Label </text>
</a>
</g>
<polygon fill="none" stroke="green" points="128,-286.6 128,-314.6 178,-314.6 178,-286.6 128,-286.6"/>
</g>
<!-- 13&#45;&gt;14 -->
<g id="edge15" class="edge">
<title>13&#45;&gt;14</title>
<path fill="none" stroke="black" d="M234.06,-339.66C228.88,-327.18 221.71,-309.88 215.78,-295.6"/>
<polygon fill="black" stroke="black" points="218.98,-294.18 211.92,-286.28 212.52,-296.86 218.98,-294.18"/>
<text text-anchor="middle" x="232.25" y="-308.8" font-family="Times,serif" font-size="14.00">⊔</text>
</g>
<!-- 16 -->
<g id="node17" class="node">
<title>16</title>
<ellipse fill="none" stroke="black" cx="281" cy="-268.6" rx="27" ry="18"/>
<text text-anchor="start" x="274" y="-265.4" font-family="Times,serif" font-size="14.00">x</text>
<text text-anchor="start" x="281" y="-265.4" font-family="Times,serif" baseline-shift="sub" font-size="14.00">1</text>
<g id="a_node17_28"><a xlink:href="C:\Users\checc\Desktop\ProgettoIntelligentWeb\Progetto\graph\lazy\16.txt" xlink:title="Nodo 16: ((MacchinaFotografica ⊔ ¬Mirrorless )⊓ (MacchinaFotografica ⊔ ¬Reflex )⊓ (MacchinaFotografica ⊔ &#160;∀ haSensore.owl:Nothing )⊓ (MacchinaFotografica ⊔ &#160;∀ haSpecchio.owl:Nothing )⊓ (owl:Nothing ⊔ &#160;∀ haSensore.Sensore )⊓ (owl:Nothing ⊔ &#160;∀ haSpecchio.Specchio )⊓ (¬APSC ⊔ ¬FullFrame )⊓ (¬Mirrorless ⊔ &#160;∀ haSpecchio.¬Specchio )), (¬Mirrorless ⊔ &#160;∀ haSpecchio.¬Specchio ), &#160;∀ haSpecchio.¬Specchio , (MacchinaFotografica ⊔ ¬Mirrorless ), (MacchinaFotografica ⊔ &#160;∀ haSpecchio.owl:Nothing ), ¬FullFrame , Sensore , (¬APSC ⊔ ¬FullFrame ), (MacchinaFotografica ⊔ &#160;∀ haSensore.owl:Nothing ), ∃haSensore.Sensore , MacchinaFotografica , (MacchinaFotografica ⊔ ¬Reflex ), (owl:Nothing ⊔ &#160;∀ haSpecchio.Specchio ), &#160;∀ haSpecchio.Specchio , (owl:Nothing ⊔ &#160;∀ haSensore.Sensore )" target="_blank">
<polygon fill="none" stroke="green" points="205,-223.6 205,-249.6 253,-249.6 253,-223.6 205,-223.6"/>
<text text-anchor="start" x="209.56" y="-232" font-family="Times,serif" font-size="14.00"> Label </text>
</a>
</g>
<polygon fill="none" stroke="green" points="204,-222.6 204,-250.6 254,-250.6 254,-222.6 204,-222.6"/>
</g>
<!-- 13&#45;&gt;16 -->
<g id="edge14" class="edge">
<title>13&#45;&gt;16</title>
<path fill="none" stroke="black" d="M248.52,-340.07C254.3,-327.54 262.38,-310 269.04,-295.56"/>
<polygon fill="black" stroke="black" points="272.37,-296.7 273.37,-286.15 266.01,-293.77 272.37,-296.7"/>
<text text-anchor="middle" x="269.25" y="-308.8" font-family="Times,serif" font-size="14.00">⊔</text>
</g>
<!-- 15 -->
<g id="node16" class="node">
<title>15</title>
<ellipse fill="none" stroke="black" cx="197" cy="-179.8" rx="42.88" ry="18"/>
<text text-anchor="start" x="174.06" y="-175.6" font-family="Times,serif" font-size="14.00">CLASH</text>
</g>
<!-- 14&#45;&gt;15 -->
<g id="edge16" class="edge">
<title>14&#45;&gt;15</title>
<path fill="none" stroke="red" d="M203.42,-250.45C202.3,-238.32 200.78,-221.82 199.5,-207.92"/>
<polygon fill="red" stroke="red" points="202.98,-207.55 198.58,-197.91 196.01,-208.19 202.98,-207.55"/>
</g>
<!-- 17 -->
<g id="node18" class="node">
<title>17</title>
<ellipse fill="none" stroke="black" cx="285" cy="-179.8" rx="27" ry="18"/>
<text text-anchor="start" x="278" y="-176.6" font-family="Times,serif" font-size="14.00">x</text>
<text text-anchor="start" x="285" y="-176.6" font-family="Times,serif" baseline-shift="sub" font-size="14.00">1</text>
<g id="a_node18_29"><a xlink:href="C:\Users\checc\Desktop\ProgettoIntelligentWeb\Progetto\graph\lazy\17.txt" xlink:title="Nodo 17: ((MacchinaFotografica ⊔ ¬Mirrorless )⊓ (MacchinaFotografica ⊔ ¬Reflex )⊓ (MacchinaFotografica ⊔ &#160;∀ haSensore.owl:Nothing )⊓ (MacchinaFotografica ⊔ &#160;∀ haSpecchio.owl:Nothing )⊓ (owl:Nothing ⊔ &#160;∀ haSensore.Sensore )⊓ (owl:Nothing ⊔ &#160;∀ haSpecchio.Specchio )⊓ (¬APSC ⊔ ¬FullFrame )⊓ (¬Mirrorless ⊔ &#160;∀ haSpecchio.¬Specchio )), (¬Mirrorless ⊔ &#160;∀ haSpecchio.¬Specchio ), &#160;∀ haSpecchio.¬Specchio , (MacchinaFotografica ⊔ ¬Mirrorless ), (MacchinaFotografica ⊔ &#160;∀ haSpecchio.owl:Nothing ), ¬FullFrame , Sensore , (¬APSC ⊔ ¬FullFrame ), (MacchinaFotografica ⊔ &#160;∀ haSensore.owl:Nothing ), ∃haSensore.Sensore , MacchinaFotografica , &#160;∀ haSensore.Sensore , (MacchinaFotografica ⊔ ¬Reflex ), (owl:Nothing ⊔ &#160;∀ haSpecchio.Specchio ), &#160;∀ haSpecchio.Specchio , (owl:Nothing ⊔ &#160;∀ haSensore.Sensore )" target="_blank">
<polygon fill="none" stroke="green" points="209,-134.8 209,-160.8 257,-160.8 257,-134.8 209,-134.8"/>
<text text-anchor="start" x="213.56" y="-143.2" font-family="Times,serif" font-size="14.00"> Label </text>
</a>
</g>
<polygon fill="none" stroke="green" points="208,-133.8 208,-161.8 258,-161.8 258,-133.8 208,-133.8"/>
</g>
<!-- 16&#45;&gt;17 -->
<g id="edge17" class="edge">
<title>16&#45;&gt;17</title>
<path fill="none" stroke="black" d="M281.79,-250.45C282.35,-238.32 283.11,-221.82 283.75,-207.92"/>
<polygon fill="black" stroke="black" points="287.25,-208.06 284.21,-197.91 280.25,-207.74 287.25,-208.06"/>
<text text-anchor="middle" x="288.25" y="-220" font-family="Times,serif" font-size="14.00">⊔</text>
</g>
<!-- 18 -->
<g id="node19" class="node">
<title>18</title>
<ellipse fill="none" stroke="black" cx="285" cy="-91" rx="27" ry="18"/>
<text text-anchor="start" x="278" y="-87.8" font-family="Times,serif" font-size="14.00">x</text>
<text text-anchor="start" x="285" y="-87.8" font-family="Times,serif" baseline-shift="sub" font-size="14.00">2</text>
<g id="a_node19_30"><a xlink:href="C:\Users\checc\Desktop\ProgettoIntelligentWeb\Progetto\graph\lazy\18.txt" xlink:title="Nodo 18: ((MacchinaFotografica ⊔ ¬Mirrorless )⊓ (MacchinaFotografica ⊔ ¬Reflex )⊓ (MacchinaFotografica ⊔ &#160;∀ haSensore.owl:Nothing )⊓ (MacchinaFotografica ⊔ &#160;∀ haSpecchio.owl:Nothing )⊓ (owl:Nothing ⊔ &#160;∀ haSensore.Sensore )⊓ (owl:Nothing ⊔ &#160;∀ haSpecchio.Specchio )⊓ (¬APSC ⊔ ¬FullFrame )⊓ (¬Mirrorless ⊔ &#160;∀ haSpecchio.¬Specchio )), Sensore " target="_blank">
<polygon fill="none" stroke="green" points="209,-74 209,-100 257,-100 257,-74 209,-74"/>
<text text-anchor="start" x="213.56" y="-82.4" font-family="Times,serif" font-size="14.00"> Label </text>
</a>
</g>
<polygon fill="none" stroke="green" points="208,-73 208,-101 258,-101 258,-73 208,-73"/>
</g>
<!-- 17&#45;&gt;18 -->
<g id="edge18" class="edge">
<title>17&#45;&gt;18</title>
<path fill="none" stroke="black" d="M285,-161.65C285,-149.52 285,-133.02 285,-119.12"/>
<polygon fill="black" stroke="black" points="288.5,-119.11 285,-109.11 281.5,-119.11 288.5,-119.11"/>
<text text-anchor="middle" x="313.77" y="-131.2" font-family="Times,serif" font-size="14.00">haSensore</text>
</g>
<!-- 19 -->
<g id="node20" class="node">
<title>19</title>
<ellipse fill="none" stroke="black" cx="285" cy="-18" rx="60.83" ry="18"/>
<text text-anchor="start" x="248.84" y="-13.8" font-family="Times,serif" font-size="14.00">BLOCKING</text>
</g>
<!-- 18&#45;&gt;19 -->
<g id="edge19" class="edge">
<title>18&#45;&gt;19</title>
<path fill="none" stroke="orange" d="M285,-72.81C285,-64.79 285,-55.05 285,-46.07"/>
<polygon fill="orange" stroke="orange" points="288.5,-46.03 285,-36.03 281.5,-46.03 288.5,-46.03"/>
</g>
</g>
</svg>
