<svg width="128px" height="234px"
 viewBox="0.00 0.00 127.69 233.80" xmlns="http://www.w3.org/2000/svg" xmlns:xlink="http://www.w3.org/1999/xlink">
<g id="graph0" class="graph" transform="scale(1.0 1.0) rotate(0.0) translate(4.0 229.8)">
<title>tableaux</title>
<polygon fill="white" stroke="transparent" points="-4,4 -4,-229.8 123.69,-229.8 123.69,4 -4,4"/>
<!-- 19 -->
<g id="node1" class="node">
<title>19</title>
<ellipse fill="none" stroke="black" cx="77" cy="-179.8" rx="27" ry="18"/>
<text text-anchor="start" x="70" y="-176.6" font-family="Times,serif" font-size="14.00">x</text>
<text text-anchor="start" x="77" y="-176.6" font-family="Times,serif" baseline-shift="sub" font-size="14.00">0</text>
<g id="a_node1_13"><a xlink:href="C:\Users\turco\OneDrive\Desktop\ProgettoIntelligentWeb\Progetto\graph\lazy\19.txt" xlink:title="Clicca per visualizzare Lx" target="_blank">
<polygon fill="none" stroke="green" points="1,-198.8 1,-224.8 49,-224.8 49,-198.8 1,-198.8"/>
<text text-anchor="start" x="5.56" y="-207.2" font-family="Times,serif" font-size="14.00"> Label </text>
</a>
</g>
<polygon fill="none" stroke="green" points="0,-197.8 0,-225.8 50,-225.8 50,-197.8 0,-197.8"/>
</g>
<!-- 20 -->
<g id="node2" class="node">
<title>20</title>
<ellipse fill="none" stroke="black" cx="77" cy="-91" rx="27" ry="18"/>
<text text-anchor="start" x="66.5" y="-87.8" font-family="Times,serif" font-size="14.00">x</text>
<text text-anchor="start" x="73.5" y="-87.8" font-family="Times,serif" baseline-shift="sub" font-size="14.00">01</text>
<g id="a_node2_14"><a xlink:href="C:\Users\turco\OneDrive\Desktop\ProgettoIntelligentWeb\Progetto\graph\lazy\20.txt" xlink:title="Clicca per visualizzare Lx" target="_blank">
<polygon fill="none" stroke="green" points="1,-110 1,-136 49,-136 49,-110 1,-110"/>
<text text-anchor="start" x="5.56" y="-118.4" font-family="Times,serif" font-size="14.00"> Label </text>
</a>
</g>
<polygon fill="none" stroke="green" points="0,-109 0,-137 50,-137 50,-109 0,-109"/>
</g>
<!-- 19&#45;&gt;20 -->
<g id="edge1" class="edge">
<title>19&#45;&gt;20</title>
<path fill="none" stroke="black" d="M77,-161.65C77,-149.52 77,-133.02 77,-119.12"/>
<polygon fill="black" stroke="black" points="80.5,-119.11 77,-109.11 73.5,-119.11 80.5,-119.11"/>
<text text-anchor="middle" x="81.67" y="-131.2" font-family="Times,serif" font-size="14.00">R</text>
</g>
<!-- 21 -->
<g id="node3" class="node">
<title>21</title>
<ellipse fill="none" stroke="black" cx="77" cy="-18" rx="42.88" ry="18"/>
<text text-anchor="start" x="54.06" y="-13.8" font-family="Times,serif" font-size="14.00">CLASH</text>
</g>
<!-- 20&#45;&gt;21 -->
<g id="edge2" class="edge">
<title>20&#45;&gt;21</title>
<path fill="none" stroke="red" d="M77,-72.81C77,-64.79 77,-55.05 77,-46.07"/>
<polygon fill="red" stroke="red" points="80.5,-46.03 77,-36.03 73.5,-46.03 80.5,-46.03"/>
</g>
</g>
</svg>
