<svg width="155px" height="589px"
 viewBox="0.00 0.00 154.51 589.00" xmlns="http://www.w3.org/2000/svg" xmlns:xlink="http://www.w3.org/1999/xlink">
<g id="graph0" class="graph" transform="scale(1.0 1.0) rotate(0.0) translate(4.0 585.0)">
<title>tableaux</title>
<polygon fill="white" stroke="transparent" points="-4,4 -4,-585 150.51,-585 150.51,4 -4,4"/>
<!-- 0 -->
<g id="node1" class="node">
<title>0</title>
<ellipse fill="none" stroke="black" cx="77" cy="-535" rx="27" ry="18"/>
<text text-anchor="start" x="70" y="-531.8" font-family="Times,serif" font-size="14.00">x</text>
<text text-anchor="start" x="77" y="-531.8" font-family="Times,serif" baseline-shift="sub" font-size="14.00">0</text>
<g id="a_node1_12"><a xlink:href="C:\Users\checc\Desktop\ProgettoIntelligentWeb\Progetto\graph\lazy\0.txt" xlink:title="Nodo 0: &#160;∀ useInCombat.Sword , (¬Human ⊔ ¬Orc ), (Creature ⊔ &#160;∀ useInCombat.owl:Nothing ), (owl:Nothing ⊔ &#160;∀ useInCombat.Weapon ), (Creature ⊔ ¬Orc ), ((Creature ⊔ ¬Orc )⊓ (Creature ⊔ &#160;∀ useInCombat.owl:Nothing )⊓ (owl:Nothing ⊔ &#160;∀ useInCombat.Weapon )⊓ (¬Elf ⊔ ¬Orc )⊓ (¬Human ⊔ ¬Orc )⊓ (¬Human ⊔ &#160;∀ useInCombat.Sword )⊓ (¬Magic ⊔ ¬Sword )), (¬Magic ⊔ ¬Sword ), (¬Human ⊔ &#160;∀ useInCombat.Sword ), Orc , (¬Elf ⊔ ¬Orc )" target="_blank">
<polygon fill="none" stroke="green" points="1,-554 1,-580 49,-580 49,-554 1,-554"/>
<text text-anchor="start" x="5.56" y="-562.4" font-family="Times,serif" font-size="14.00"> Label </text>
</a>
</g>
<polygon fill="none" stroke="green" points="0,-553 0,-581 50,-581 50,-553 0,-553"/>
</g>
<!-- 1 -->
<g id="node2" class="node">
<title>1</title>
<ellipse fill="none" stroke="black" cx="77" cy="-446.2" rx="27" ry="18"/>
<text text-anchor="start" x="70" y="-443" font-family="Times,serif" font-size="14.00">x</text>
<text text-anchor="start" x="77" y="-443" font-family="Times,serif" baseline-shift="sub" font-size="14.00">0</text>
<g id="a_node2_13"><a xlink:href="C:\Users\checc\Desktop\ProgettoIntelligentWeb\Progetto\graph\lazy\1.txt" xlink:title="Nodo 1: &#160;∀ useInCombat.Sword , (¬Human ⊔ ¬Orc ), (Creature ⊔ &#160;∀ useInCombat.owl:Nothing ), (owl:Nothing ⊔ &#160;∀ useInCombat.Weapon ), (Creature ⊔ ¬Orc ), ((Creature ⊔ ¬Orc )⊓ (Creature ⊔ &#160;∀ useInCombat.owl:Nothing )⊓ (owl:Nothing ⊔ &#160;∀ useInCombat.Weapon )⊓ (¬Elf ⊔ ¬Orc )⊓ (¬Human ⊔ ¬Orc )⊓ (¬Human ⊔ &#160;∀ useInCombat.Sword )⊓ (¬Magic ⊔ ¬Sword )), (¬Magic ⊔ ¬Sword ), (¬Human ⊔ &#160;∀ useInCombat.Sword ), ¬Human , Orc , (¬Elf ⊔ ¬Orc )" target="_blank">
<polygon fill="none" stroke="green" points="1,-465.2 1,-491.2 49,-491.2 49,-465.2 1,-465.2"/>
<text text-anchor="start" x="5.56" y="-473.6" font-family="Times,serif" font-size="14.00"> Label </text>
</a>
</g>
<polygon fill="none" stroke="green" points="0,-464.2 0,-492.2 50,-492.2 50,-464.2 0,-464.2"/>
</g>
<!-- 0&#45;&gt;1 -->
<g id="edge1" class="edge">
<title>0&#45;&gt;1</title>
<path fill="none" stroke="black" d="M77,-516.85C77,-504.72 77,-488.22 77,-474.32"/>
<polygon fill="black" stroke="black" points="80.5,-474.31 77,-464.31 73.5,-474.31 80.5,-474.31"/>
<text text-anchor="middle" x="82.25" y="-486.4" font-family="Times,serif" font-size="14.00">⊔</text>
</g>
<!-- 2 -->
<g id="node3" class="node">
<title>2</title>
<ellipse fill="none" stroke="black" cx="77" cy="-357.4" rx="27" ry="18"/>
<text text-anchor="start" x="70" y="-354.2" font-family="Times,serif" font-size="14.00">x</text>
<text text-anchor="start" x="77" y="-354.2" font-family="Times,serif" baseline-shift="sub" font-size="14.00">0</text>
<g id="a_node3_14"><a xlink:href="C:\Users\checc\Desktop\ProgettoIntelligentWeb\Progetto\graph\lazy\2.txt" xlink:title="Nodo 2: &#160;∀ useInCombat.Sword , (¬Human ⊔ ¬Orc ), (Creature ⊔ &#160;∀ useInCombat.owl:Nothing ), (owl:Nothing ⊔ &#160;∀ useInCombat.Weapon ), (Creature ⊔ ¬Orc ), Creature , ((Creature ⊔ ¬Orc )⊓ (Creature ⊔ &#160;∀ useInCombat.owl:Nothing )⊓ (owl:Nothing ⊔ &#160;∀ useInCombat.Weapon )⊓ (¬Elf ⊔ ¬Orc )⊓ (¬Human ⊔ ¬Orc )⊓ (¬Human ⊔ &#160;∀ useInCombat.Sword )⊓ (¬Magic ⊔ ¬Sword )), (¬Magic ⊔ ¬Sword ), (¬Human ⊔ &#160;∀ useInCombat.Sword ), ¬Human , Orc , (¬Elf ⊔ ¬Orc )" target="_blank">
<polygon fill="none" stroke="green" points="1,-376.4 1,-402.4 49,-402.4 49,-376.4 1,-376.4"/>
<text text-anchor="start" x="5.56" y="-384.8" font-family="Times,serif" font-size="14.00"> Label </text>
</a>
</g>
<polygon fill="none" stroke="green" points="0,-375.4 0,-403.4 50,-403.4 50,-375.4 0,-375.4"/>
</g>
<!-- 1&#45;&gt;2 -->
<g id="edge2" class="edge">
<title>1&#45;&gt;2</title>
<path fill="none" stroke="black" d="M77,-428.05C77,-415.92 77,-399.42 77,-385.52"/>
<polygon fill="black" stroke="black" points="80.5,-385.51 77,-375.51 73.5,-385.51 80.5,-385.51"/>
<text text-anchor="middle" x="82.25" y="-397.6" font-family="Times,serif" font-size="14.00">⊔</text>
</g>
<!-- 3 -->
<g id="node4" class="node">
<title>3</title>
<ellipse fill="none" stroke="black" cx="77" cy="-268.6" rx="27" ry="18"/>
<text text-anchor="start" x="70" y="-265.4" font-family="Times,serif" font-size="14.00">x</text>
<text text-anchor="start" x="77" y="-265.4" font-family="Times,serif" baseline-shift="sub" font-size="14.00">0</text>
<g id="a_node4_15"><a xlink:href="C:\Users\checc\Desktop\ProgettoIntelligentWeb\Progetto\graph\lazy\3.txt" xlink:title="Nodo 3: &#160;∀ useInCombat.Sword , (¬Human ⊔ ¬Orc ), (Creature ⊔ &#160;∀ useInCombat.owl:Nothing ), (owl:Nothing ⊔ &#160;∀ useInCombat.Weapon ), Creature , ¬Weapon , (¬Human ⊔ &#160;∀ useInCombat.Sword ), &#160;∀ useInCombat.Weapon , Orc , (Creature ⊔ ¬Orc ), ((Creature ⊔ ¬Orc )⊓ (Creature ⊔ &#160;∀ useInCombat.owl:Nothing )⊓ (owl:Nothing ⊔ &#160;∀ useInCombat.Weapon )⊓ (¬Elf ⊔ ¬Orc )⊓ (¬Human ⊔ ¬Orc )⊓ (¬Human ⊔ &#160;∀ useInCombat.Sword )⊓ (¬Magic ⊔ ¬Sword )), (¬Magic ⊔ ¬Sword ), ¬Human , (¬Elf ⊔ ¬Orc )" target="_blank">
<polygon fill="none" stroke="green" points="1,-287.6 1,-313.6 49,-313.6 49,-287.6 1,-287.6"/>
<text text-anchor="start" x="5.56" y="-296" font-family="Times,serif" font-size="14.00"> Label </text>
</a>
</g>
<polygon fill="none" stroke="green" points="0,-286.6 0,-314.6 50,-314.6 50,-286.6 0,-286.6"/>
</g>
<!-- 2&#45;&gt;3 -->
<g id="edge3" class="edge">
<title>2&#45;&gt;3</title>
<path fill="none" stroke="black" d="M77,-339.25C77,-327.12 77,-310.62 77,-296.72"/>
<polygon fill="black" stroke="black" points="80.5,-296.71 77,-286.71 73.5,-296.71 80.5,-296.71"/>
<text text-anchor="middle" x="82.25" y="-308.8" font-family="Times,serif" font-size="14.00">⊔</text>
</g>
<!-- 4 -->
<g id="node5" class="node">
<title>4</title>
<ellipse fill="none" stroke="black" cx="77" cy="-179.8" rx="27" ry="18"/>
<text text-anchor="start" x="70" y="-176.6" font-family="Times,serif" font-size="14.00">x</text>
<text text-anchor="start" x="77" y="-176.6" font-family="Times,serif" baseline-shift="sub" font-size="14.00">0</text>
<g id="a_node5_16"><a xlink:href="C:\Users\checc\Desktop\ProgettoIntelligentWeb\Progetto\graph\lazy\4.txt" xlink:title="Nodo 4: ¬Magic , &#160;∀ useInCombat.Sword , (¬Human ⊔ ¬Orc ), (Creature ⊔ &#160;∀ useInCombat.owl:Nothing ), (owl:Nothing ⊔ &#160;∀ useInCombat.Weapon ), Creature , ¬Weapon , (¬Human ⊔ &#160;∀ useInCombat.Sword ), &#160;∀ useInCombat.Weapon , Orc , (Creature ⊔ ¬Orc ), ((Creature ⊔ ¬Orc )⊓ (Creature ⊔ &#160;∀ useInCombat.owl:Nothing )⊓ (owl:Nothing ⊔ &#160;∀ useInCombat.Weapon )⊓ (¬Elf ⊔ ¬Orc )⊓ (¬Human ⊔ ¬Orc )⊓ (¬Human ⊔ &#160;∀ useInCombat.Sword )⊓ (¬Magic ⊔ ¬Sword )), (¬Magic ⊔ ¬Sword ), ¬Human , (¬Elf ⊔ ¬Orc )" target="_blank">
<polygon fill="none" stroke="green" points="1,-198.8 1,-224.8 49,-224.8 49,-198.8 1,-198.8"/>
<text text-anchor="start" x="5.56" y="-207.2" font-family="Times,serif" font-size="14.00"> Label </text>
</a>
</g>
<polygon fill="none" stroke="green" points="0,-197.8 0,-225.8 50,-225.8 50,-197.8 0,-197.8"/>
</g>
<!-- 3&#45;&gt;4 -->
<g id="edge4" class="edge">
<title>3&#45;&gt;4</title>
<path fill="none" stroke="black" d="M77,-250.45C77,-238.32 77,-221.82 77,-207.92"/>
<polygon fill="black" stroke="black" points="80.5,-207.91 77,-197.91 73.5,-207.91 80.5,-207.91"/>
<text text-anchor="middle" x="82.25" y="-220" font-family="Times,serif" font-size="14.00">⊔</text>
</g>
<!-- 5 -->
<g id="node6" class="node">
<title>5</title>
<ellipse fill="none" stroke="black" cx="77" cy="-91" rx="27" ry="18"/>
<text text-anchor="start" x="70" y="-87.8" font-family="Times,serif" font-size="14.00">x</text>
<text text-anchor="start" x="77" y="-87.8" font-family="Times,serif" baseline-shift="sub" font-size="14.00">0</text>
<g id="a_node6_17"><a xlink:href="C:\Users\checc\Desktop\ProgettoIntelligentWeb\Progetto\graph\lazy\5.txt" xlink:title="Nodo 5: ¬Magic , &#160;∀ useInCombat.Sword , (¬Human ⊔ ¬Orc ), (Creature ⊔ &#160;∀ useInCombat.owl:Nothing ), (owl:Nothing ⊔ &#160;∀ useInCombat.Weapon ), ¬Elf , Creature , ¬Weapon , (¬Human ⊔ &#160;∀ useInCombat.Sword ), &#160;∀ useInCombat.Weapon , Orc , (Creature ⊔ ¬Orc ), ((Creature ⊔ ¬Orc )⊓ (Creature ⊔ &#160;∀ useInCombat.owl:Nothing )⊓ (owl:Nothing ⊔ &#160;∀ useInCombat.Weapon )⊓ (¬Elf ⊔ ¬Orc )⊓ (¬Human ⊔ ¬Orc )⊓ (¬Human ⊔ &#160;∀ useInCombat.Sword )⊓ (¬Magic ⊔ ¬Sword )), (¬Magic ⊔ ¬Sword ), ¬Human , (¬Elf ⊔ ¬Orc )" target="_blank">
<polygon fill="none" stroke="green" points="1,-110 1,-136 49,-136 49,-110 1,-110"/>
<text text-anchor="start" x="5.56" y="-118.4" font-family="Times,serif" font-size="14.00"> Label </text>
</a>
</g>
<polygon fill="none" stroke="green" points="0,-109 0,-137 50,-137 50,-109 0,-109"/>
</g>
<!-- 4&#45;&gt;5 -->
<g id="edge5" class="edge">
<title>4&#45;&gt;5</title>
<path fill="none" stroke="black" d="M77,-161.65C77,-149.52 77,-133.02 77,-119.12"/>
<polygon fill="black" stroke="black" points="80.5,-119.11 77,-109.11 73.5,-119.11 80.5,-119.11"/>
<text text-anchor="middle" x="82.25" y="-131.2" font-family="Times,serif" font-size="14.00">⊔</text>
</g>
<!-- 6 -->
<g id="node7" class="node">
<title>6</title>
<ellipse fill="none" stroke="black" cx="77" cy="-18" rx="69.52" ry="18"/>
<text text-anchor="start" x="34.62" y="-13.8" font-family="Times,serif" font-size="14.00">CLASH&#45;FREE</text>
</g>
<!-- 5&#45;&gt;6 -->
<g id="edge6" class="edge">
<title>5&#45;&gt;6</title>
<path fill="none" stroke="green" d="M77,-72.81C77,-64.79 77,-55.05 77,-46.07"/>
<polygon fill="green" stroke="green" points="80.5,-46.03 77,-36.03 73.5,-46.03 80.5,-46.03"/>
</g>
</g>
</svg>
