<svg width="317px" height="182px"
 viewBox="0.00 0.00 316.71 181.60" xmlns="http://www.w3.org/2000/svg" xmlns:xlink="http://www.w3.org/1999/xlink">
<g id="graph0" class="graph" transform="scale(1.0 1.0) rotate(0.0) translate(4.0 177.6)">
<title>tableaux</title>
<polygon fill="white" stroke="transparent" points="-4,4 -4,-177.6 312.71,-177.6 312.71,4 -4,4"/>
<!-- 7 -->
<g id="node1" class="node">
<title>7</title>
<ellipse fill="none" stroke="black" cx="181.2" cy="-106.8" rx="27" ry="18"/>
<text text-anchor="middle" x="181.2" y="-102.6" font-family="Times,serif" font-size="14.00">x0</text>
<text text-anchor="middle" x="109.3" y="-129" font-family="Times,serif" font-size="14.00">∃R.(A ⊓ ¬B ); </text>
</g>
<!-- 8 -->
<g id="node2" class="node">
<title>8</title>
<ellipse fill="none" stroke="black" cx="124.2" cy="-18" rx="27" ry="18"/>
<text text-anchor="middle" x="124.2" y="-13.8" font-family="Times,serif" font-size="14.00">x01</text>
<text text-anchor="middle" x="48.6" y="-40.2" font-family="Times,serif" font-size="14.00">∃R.(A ⊓ ¬B ); ; </text>
</g>
<!-- 7&#45;&gt;8 -->
<g id="edge2" class="edge">
<title>7&#45;&gt;8</title>
<path fill="none" stroke="black" d="M170.75,-89.88C162.23,-76.91 150.06,-58.38 140.3,-43.52"/>
<polygon fill="black" stroke="black" points="143.01,-41.26 134.59,-34.82 137.16,-45.1 143.01,-41.26"/>
<text text-anchor="middle" x="174.27" y="-58.2" font-family="Times,serif" font-size="14.00">&lt;#R&gt;</text>
</g>
<!-- 9 -->
<g id="node3" class="node">
<title>9</title>
<ellipse fill="none" stroke="black" cx="239.2" cy="-18" rx="69.52" ry="18"/>
<text text-anchor="middle" x="239.2" y="-13.8" font-family="Times,serif" font-size="14.00">CLASH&#45;FREE</text>
</g>
<!-- 7&#45;&gt;9 -->
<g id="edge1" class="edge">
<title>7&#45;&gt;9</title>
<path fill="none" stroke="black" d="M191.84,-89.88C200.29,-77.23 212.27,-59.3 222.07,-44.64"/>
<polygon fill="black" stroke="black" points="225.19,-46.27 227.84,-36.01 219.37,-42.38 225.19,-46.27"/>
</g>
</g>
</svg>
