<svg width="126px" height="231px"
 viewBox="0.00 0.00 126.30 231.00" xmlns="http://www.w3.org/2000/svg" xmlns:xlink="http://www.w3.org/1999/xlink">
<g id="graph0" class="graph" transform="scale(1.0 1.0) rotate(0.0) translate(4.0 227.0)">
<title>tableaux</title>
<polygon fill="white" stroke="transparent" points="-4,4 -4,-227 122.3,-227 122.3,4 -4,4"/>
<!-- 19 -->
<g id="node1" class="node">
<title>19</title>
<ellipse fill="none" stroke="black" cx="78" cy="-178" rx="27" ry="18"/>
<text text-anchor="start" x="71" y="-175.3" font-family="Times New Roman,serif" font-size="14.00">x</text>
<text text-anchor="start" x="78" y="-175.3" font-family="Times New Roman,serif" baseline-shift="sub" font-size="14.00">0</text>
<g id="a_node1_0"><a xlink:href="C:\Users\Mario\Desktop\ProgettoIntelligentWeb\Progetto\graph\lazy\19.txt" xlink:title="Clicca per visualizzare Lx" target="_blank">
<polygon fill="none" stroke="green" points="1.5,-196.5 1.5,-221.5 50.5,-221.5 50.5,-196.5 1.5,-196.5"/>
<text text-anchor="start" x="6.5" y="-205.3" font-family="Times New Roman,serif" font-size="14.00"> Label </text>
</a>
</g>
<polygon fill="none" stroke="green" points="0,-196 0,-223 51,-223 51,-196 0,-196"/>
</g>
<!-- 20 -->
<g id="node2" class="node">
<title>20</title>
<ellipse fill="none" stroke="black" cx="78" cy="-91" rx="27" ry="18"/>
<text text-anchor="start" x="68" y="-88.3" font-family="Times New Roman,serif" font-size="14.00">x</text>
<text text-anchor="start" x="75" y="-88.3" font-family="Times New Roman,serif" baseline-shift="sub" font-size="14.00">01</text>
<g id="a_node2_1"><a xlink:href="C:\Users\Mario\Desktop\ProgettoIntelligentWeb\Progetto\graph\lazy\20.txt" xlink:title="Clicca per visualizzare Lx" target="_blank">
<polygon fill="none" stroke="green" points="1.5,-109.5 1.5,-134.5 50.5,-134.5 50.5,-109.5 1.5,-109.5"/>
<text text-anchor="start" x="6.5" y="-118.3" font-family="Times New Roman,serif" font-size="14.00"> Label </text>
</a>
</g>
<polygon fill="none" stroke="green" points="0,-109 0,-136 51,-136 51,-109 0,-109"/>
</g>
<!-- 19&#45;&gt;20 -->
<g id="edge1" class="edge">
<title>19&#45;&gt;20</title>
<path fill="none" stroke="black" d="M78,-159.8C78,-148.16 78,-132.55 78,-119.24"/>
<polygon fill="black" stroke="black" points="81.5,-119.18 78,-109.18 74.5,-119.18 81.5,-119.18"/>
<text text-anchor="middle" x="83" y="-130.8" font-family="Times New Roman,serif" font-size="14.00">R</text>
</g>
<!-- 21 -->
<g id="node3" class="node">
<title>21</title>
<ellipse fill="none" stroke="black" cx="78" cy="-18" rx="40.09" ry="18"/>
<text text-anchor="start" x="55" y="-14.3" font-family="Times New Roman,serif" font-size="14.00">CLASH</text>
</g>
<!-- 20&#45;&gt;21 -->
<g id="edge2" class="edge">
<title>20&#45;&gt;21</title>
<path fill="none" stroke="red" d="M78,-72.81C78,-64.79 78,-55.05 78,-46.07"/>
<polygon fill="red" stroke="red" points="81.5,-46.03 78,-36.03 74.5,-46.03 81.5,-46.03"/>
</g>
</g>
</svg>
