<svg width="753px" height="1299px"
 viewBox="0.00 0.00 753.00 1299.40" xmlns="http://www.w3.org/2000/svg" xmlns:xlink="http://www.w3.org/1999/xlink">
<g id="graph0" class="graph" transform="scale(1.0 1.0) rotate(0.0) translate(4.0 1295.4)">
<title>tableaux</title>
<polygon fill="white" stroke="transparent" points="-4,4 -4,-1295.4 749,-1295.4 749,4 -4,4"/>
<!-- 42 -->
<g id="node1" class="node">
<title>42</title>
<ellipse fill="none" stroke="black" cx="509" cy="-1245.4" rx="27" ry="18"/>
<text text-anchor="start" x="502" y="-1242.2" font-family="Times,serif" font-size="14.00">x</text>
<text text-anchor="start" x="509" y="-1242.2" font-family="Times,serif" baseline-shift="sub" font-size="14.00">0</text>
<g id="a_node1_32"><a xlink:href="C:\Users\checc\Desktop\ProgettoIntelligentWeb\Progetto\graph\lazy\42.txt" xlink:title="Clicca per visualizzare Lx" target="_blank">
<polygon fill="none" stroke="green" points="433,-1264.4 433,-1290.4 481,-1290.4 481,-1264.4 433,-1264.4"/>
<text text-anchor="start" x="437.56" y="-1272.8" font-family="Times,serif" font-size="14.00"> Label </text>
</a>
</g>
<polygon fill="none" stroke="green" points="432,-1263.4 432,-1291.4 482,-1291.4 482,-1263.4 432,-1263.4"/>
</g>
<!-- 43 -->
<g id="node2" class="node">
<title>43</title>
<ellipse fill="none" stroke="black" cx="509" cy="-1156.6" rx="27" ry="18"/>
<text text-anchor="start" x="502" y="-1153.4" font-family="Times,serif" font-size="14.00">x</text>
<text text-anchor="start" x="509" y="-1153.4" font-family="Times,serif" baseline-shift="sub" font-size="14.00">0</text>
<g id="a_node2_33"><a xlink:href="C:\Users\checc\Desktop\ProgettoIntelligentWeb\Progetto\graph\lazy\43.txt" xlink:title="Clicca per visualizzare Lx" target="_blank">
<polygon fill="none" stroke="green" points="433,-1175.6 433,-1201.6 481,-1201.6 481,-1175.6 433,-1175.6"/>
<text text-anchor="start" x="437.56" y="-1184" font-family="Times,serif" font-size="14.00"> Label </text>
</a>
</g>
<polygon fill="none" stroke="green" points="432,-1174.6 432,-1202.6 482,-1202.6 482,-1174.6 432,-1174.6"/>
</g>
<!-- 42&#45;&gt;43 -->
<g id="edge1" class="edge">
<title>42&#45;&gt;43</title>
<path fill="none" stroke="black" d="M509,-1227.25C509,-1215.12 509,-1198.62 509,-1184.72"/>
<polygon fill="black" stroke="black" points="512.5,-1184.71 509,-1174.71 505.5,-1184.71 512.5,-1184.71"/>
<text text-anchor="middle" x="526.5" y="-1196.8" font-family="Times,serif" font-size="14.00">Union</text>
</g>
<!-- 44 -->
<g id="node3" class="node">
<title>44</title>
<ellipse fill="none" stroke="black" cx="473" cy="-1067.8" rx="27" ry="18"/>
<text text-anchor="start" x="466" y="-1064.6" font-family="Times,serif" font-size="14.00">x</text>
<text text-anchor="start" x="473" y="-1064.6" font-family="Times,serif" baseline-shift="sub" font-size="14.00">0</text>
<g id="a_node3_34"><a xlink:href="C:\Users\checc\Desktop\ProgettoIntelligentWeb\Progetto\graph\lazy\44.txt" xlink:title="Clicca per visualizzare Lx" target="_blank">
<polygon fill="none" stroke="green" points="397,-1086.8 397,-1112.8 445,-1112.8 445,-1086.8 397,-1086.8"/>
<text text-anchor="start" x="401.56" y="-1095.2" font-family="Times,serif" font-size="14.00"> Label </text>
</a>
</g>
<polygon fill="none" stroke="green" points="396,-1085.8 396,-1113.8 446,-1113.8 446,-1085.8 396,-1085.8"/>
</g>
<!-- 43&#45;&gt;44 -->
<g id="edge3" class="edge">
<title>43&#45;&gt;44</title>
<path fill="none" stroke="black" d="M496.08,-1140.41C491.66,-1134.54 487.07,-1127.57 484,-1120.6 480.65,-1112.99 478.3,-1104.3 476.65,-1096.24"/>
<polygon fill="black" stroke="black" points="480.06,-1095.38 474.87,-1086.14 473.16,-1096.6 480.06,-1095.38"/>
<text text-anchor="middle" x="502.5" y="-1108" font-family="Times,serif" font-size="14.00">Union</text>
</g>
<!-- 46 -->
<g id="node5" class="node">
<title>46</title>
<ellipse fill="none" stroke="black" cx="549" cy="-1067.8" rx="27" ry="18"/>
<text text-anchor="start" x="542" y="-1064.6" font-family="Times,serif" font-size="14.00">x</text>
<text text-anchor="start" x="549" y="-1064.6" font-family="Times,serif" baseline-shift="sub" font-size="14.00">0</text>
<g id="a_node5_35"><a xlink:href="C:\Users\checc\Desktop\ProgettoIntelligentWeb\Progetto\graph\lazy\46.txt" xlink:title="Clicca per visualizzare Lx" target="_blank">
<polygon fill="none" stroke="green" points="473,-1022.8 473,-1048.8 521,-1048.8 521,-1022.8 473,-1022.8"/>
<text text-anchor="start" x="477.56" y="-1031.2" font-family="Times,serif" font-size="14.00"> Label </text>
</a>
</g>
<polygon fill="none" stroke="green" points="472,-1021.8 472,-1049.8 522,-1049.8 522,-1021.8 472,-1021.8"/>
</g>
<!-- 43&#45;&gt;46 -->
<g id="edge2" class="edge">
<title>43&#45;&gt;46</title>
<path fill="none" stroke="black" d="M516.52,-1139.27C522.3,-1126.74 530.38,-1109.2 537.04,-1094.76"/>
<polygon fill="black" stroke="black" points="540.37,-1095.9 541.37,-1085.35 534.01,-1092.97 540.37,-1095.9"/>
<text text-anchor="middle" x="550.5" y="-1108" font-family="Times,serif" font-size="14.00">Union</text>
</g>
<!-- 45 -->
<g id="node4" class="node">
<title>45</title>
<ellipse fill="none" stroke="black" cx="465" cy="-979" rx="42.88" ry="18"/>
<text text-anchor="start" x="442.06" y="-974.8" font-family="Times,serif" font-size="14.00">CLASH</text>
</g>
<!-- 44&#45;&gt;45 -->
<g id="edge4" class="edge">
<title>44&#45;&gt;45</title>
<path fill="none" stroke="red" d="M471.42,-1049.65C470.3,-1037.52 468.78,-1021.02 467.5,-1007.12"/>
<polygon fill="red" stroke="red" points="470.98,-1006.75 466.58,-997.11 464.01,-1007.39 470.98,-1006.75"/>
</g>
<!-- 47 -->
<g id="node6" class="node">
<title>47</title>
<ellipse fill="none" stroke="black" cx="553" cy="-979" rx="27" ry="18"/>
<text text-anchor="start" x="546" y="-975.8" font-family="Times,serif" font-size="14.00">x</text>
<text text-anchor="start" x="553" y="-975.8" font-family="Times,serif" baseline-shift="sub" font-size="14.00">1</text>
<g id="a_node6_36"><a xlink:href="C:\Users\checc\Desktop\ProgettoIntelligentWeb\Progetto\graph\lazy\47.txt" xlink:title="Clicca per visualizzare Lx" target="_blank">
<polygon fill="none" stroke="green" points="477,-934 477,-960 525,-960 525,-934 477,-934"/>
<text text-anchor="start" x="481.56" y="-942.4" font-family="Times,serif" font-size="14.00"> Label </text>
</a>
</g>
<polygon fill="none" stroke="green" points="476,-933 476,-961 526,-961 526,-933 476,-933"/>
</g>
<!-- 46&#45;&gt;47 -->
<g id="edge5" class="edge">
<title>46&#45;&gt;47</title>
<path fill="none" stroke="black" d="M549.79,-1049.65C550.35,-1037.52 551.11,-1021.02 551.75,-1007.12"/>
<polygon fill="black" stroke="black" points="555.25,-1007.26 552.21,-997.11 548.25,-1006.94 555.25,-1007.26"/>
<text text-anchor="middle" x="556.67" y="-1019.2" font-family="Times,serif" font-size="14.00">R</text>
</g>
<!-- 48 -->
<g id="node7" class="node">
<title>48</title>
<ellipse fill="none" stroke="black" cx="553" cy="-890.2" rx="27" ry="18"/>
<text text-anchor="start" x="546" y="-887" font-family="Times,serif" font-size="14.00">x</text>
<text text-anchor="start" x="553" y="-887" font-family="Times,serif" baseline-shift="sub" font-size="14.00">1</text>
<g id="a_node7_37"><a xlink:href="C:\Users\checc\Desktop\ProgettoIntelligentWeb\Progetto\graph\lazy\48.txt" xlink:title="Clicca per visualizzare Lx" target="_blank">
<polygon fill="none" stroke="green" points="477,-873.2 477,-899.2 525,-899.2 525,-873.2 477,-873.2"/>
<text text-anchor="start" x="481.56" y="-881.6" font-family="Times,serif" font-size="14.00"> Label </text>
</a>
</g>
<polygon fill="none" stroke="green" points="476,-872.2 476,-900.2 526,-900.2 526,-872.2 476,-872.2"/>
</g>
<!-- 47&#45;&gt;48 -->
<g id="edge6" class="edge">
<title>47&#45;&gt;48</title>
<path fill="none" stroke="black" d="M553,-960.85C553,-948.72 553,-932.22 553,-918.32"/>
<polygon fill="black" stroke="black" points="556.5,-918.31 553,-908.31 549.5,-918.31 556.5,-918.31"/>
<text text-anchor="middle" x="570.5" y="-930.4" font-family="Times,serif" font-size="14.00">Union</text>
</g>
<!-- 49 -->
<g id="node8" class="node">
<title>49</title>
<ellipse fill="none" stroke="black" cx="517" cy="-801.4" rx="27" ry="18"/>
<text text-anchor="start" x="510" y="-798.2" font-family="Times,serif" font-size="14.00">x</text>
<text text-anchor="start" x="517" y="-798.2" font-family="Times,serif" baseline-shift="sub" font-size="14.00">1</text>
<g id="a_node8_38"><a xlink:href="C:\Users\checc\Desktop\ProgettoIntelligentWeb\Progetto\graph\lazy\49.txt" xlink:title="Clicca per visualizzare Lx" target="_blank">
<polygon fill="none" stroke="green" points="441,-820.4 441,-846.4 489,-846.4 489,-820.4 441,-820.4"/>
<text text-anchor="start" x="445.56" y="-828.8" font-family="Times,serif" font-size="14.00"> Label </text>
</a>
</g>
<polygon fill="none" stroke="green" points="440,-819.4 440,-847.4 490,-847.4 490,-819.4 440,-819.4"/>
</g>
<!-- 48&#45;&gt;49 -->
<g id="edge8" class="edge">
<title>48&#45;&gt;49</title>
<path fill="none" stroke="black" d="M540.08,-874.01C535.66,-868.14 531.07,-861.17 528,-854.2 524.65,-846.59 522.3,-837.9 520.65,-829.84"/>
<polygon fill="black" stroke="black" points="524.06,-828.98 518.87,-819.74 517.16,-830.2 524.06,-828.98"/>
<text text-anchor="middle" x="546.5" y="-841.6" font-family="Times,serif" font-size="14.00">Union</text>
</g>
<!-- 73 -->
<g id="node32" class="node">
<title>73</title>
<ellipse fill="none" stroke="black" cx="593" cy="-801.4" rx="27" ry="18"/>
<text text-anchor="start" x="586" y="-798.2" font-family="Times,serif" font-size="14.00">x</text>
<text text-anchor="start" x="593" y="-798.2" font-family="Times,serif" baseline-shift="sub" font-size="14.00">1</text>
<g id="a_node32_39"><a xlink:href="C:\Users\checc\Desktop\ProgettoIntelligentWeb\Progetto\graph\lazy\73.txt" xlink:title="Clicca per visualizzare Lx" target="_blank">
<polygon fill="none" stroke="green" points="621,-820.4 621,-846.4 669,-846.4 669,-820.4 621,-820.4"/>
<text text-anchor="start" x="625.56" y="-828.8" font-family="Times,serif" font-size="14.00"> Label </text>
</a>
</g>
<polygon fill="none" stroke="green" points="620,-819.4 620,-847.4 670,-847.4 670,-819.4 620,-819.4"/>
</g>
<!-- 48&#45;&gt;73 -->
<g id="edge7" class="edge">
<title>48&#45;&gt;73</title>
<path fill="none" stroke="black" d="M560.52,-872.87C566.3,-860.34 574.38,-842.8 581.04,-828.36"/>
<polygon fill="black" stroke="black" points="584.37,-829.5 585.37,-818.95 578.01,-826.57 584.37,-829.5"/>
<text text-anchor="middle" x="594.5" y="-841.6" font-family="Times,serif" font-size="14.00">Union</text>
</g>
<!-- 50 -->
<g id="node9" class="node">
<title>50</title>
<ellipse fill="none" stroke="black" cx="441" cy="-712.6" rx="27" ry="18"/>
<text text-anchor="start" x="434" y="-709.4" font-family="Times,serif" font-size="14.00">x</text>
<text text-anchor="start" x="441" y="-709.4" font-family="Times,serif" baseline-shift="sub" font-size="14.00">1</text>
<g id="a_node9_40"><a xlink:href="C:\Users\checc\Desktop\ProgettoIntelligentWeb\Progetto\graph\lazy\50.txt" xlink:title="Clicca per visualizzare Lx" target="_blank">
<polygon fill="none" stroke="green" points="365,-731.6 365,-757.6 413,-757.6 413,-731.6 365,-731.6"/>
<text text-anchor="start" x="369.56" y="-740" font-family="Times,serif" font-size="14.00"> Label </text>
</a>
</g>
<polygon fill="none" stroke="green" points="364,-730.6 364,-758.6 414,-758.6 414,-730.6 364,-730.6"/>
</g>
<!-- 49&#45;&gt;50 -->
<g id="edge10" class="edge">
<title>49&#45;&gt;50</title>
<path fill="none" stroke="black" d="M500.31,-786.84C493.11,-780.64 484.8,-772.99 478,-765.4 470.49,-757 463.09,-747.07 456.9,-738.16"/>
<polygon fill="black" stroke="black" points="459.67,-736.01 451.16,-729.69 453.87,-739.93 459.67,-736.01"/>
<text text-anchor="middle" x="496.5" y="-752.8" font-family="Times,serif" font-size="14.00">Union</text>
</g>
<!-- 71 -->
<g id="node30" class="node">
<title>71</title>
<ellipse fill="none" stroke="black" cx="517" cy="-712.6" rx="27" ry="18"/>
<text text-anchor="start" x="510" y="-709.4" font-family="Times,serif" font-size="14.00">x</text>
<text text-anchor="start" x="517" y="-709.4" font-family="Times,serif" baseline-shift="sub" font-size="14.00">1</text>
<g id="a_node30_41"><a xlink:href="C:\Users\checc\Desktop\ProgettoIntelligentWeb\Progetto\graph\lazy\71.txt" xlink:title="Clicca per visualizzare Lx" target="_blank">
<polygon fill="none" stroke="green" points="491,-667.6 491,-693.6 539,-693.6 539,-667.6 491,-667.6"/>
<text text-anchor="start" x="495.56" y="-676" font-family="Times,serif" font-size="14.00"> Label </text>
</a>
</g>
<polygon fill="none" stroke="green" points="490,-666.6 490,-694.6 540,-694.6 540,-666.6 490,-666.6"/>
</g>
<!-- 49&#45;&gt;71 -->
<g id="edge9" class="edge">
<title>49&#45;&gt;71</title>
<path fill="none" stroke="black" d="M517,-783.25C517,-771.12 517,-754.62 517,-740.72"/>
<polygon fill="black" stroke="black" points="520.5,-740.71 517,-730.71 513.5,-740.71 520.5,-740.71"/>
<text text-anchor="middle" x="534.5" y="-752.8" font-family="Times,serif" font-size="14.00">Union</text>
</g>
<!-- 51 -->
<g id="node10" class="node">
<title>51</title>
<ellipse fill="none" stroke="black" cx="423" cy="-623.8" rx="27" ry="18"/>
<text text-anchor="start" x="416" y="-620.6" font-family="Times,serif" font-size="14.00">x</text>
<text text-anchor="start" x="423" y="-620.6" font-family="Times,serif" baseline-shift="sub" font-size="14.00">2</text>
<g id="a_node10_42"><a xlink:href="C:\Users\checc\Desktop\ProgettoIntelligentWeb\Progetto\graph\lazy\51.txt" xlink:title="Clicca per visualizzare Lx" target="_blank">
<polygon fill="none" stroke="green" points="347,-642.8 347,-668.8 395,-668.8 395,-642.8 347,-642.8"/>
<text text-anchor="start" x="351.56" y="-651.2" font-family="Times,serif" font-size="14.00"> Label </text>
</a>
</g>
<polygon fill="none" stroke="green" points="346,-641.8 346,-669.8 396,-669.8 396,-641.8 346,-641.8"/>
</g>
<!-- 50&#45;&gt;51 -->
<g id="edge11" class="edge">
<title>50&#45;&gt;51</title>
<path fill="none" stroke="black" d="M437.44,-694.45C434.93,-682.32 431.51,-665.82 428.62,-651.92"/>
<polygon fill="black" stroke="black" points="432.01,-650.99 426.55,-641.91 425.15,-652.42 432.01,-650.99"/>
<text text-anchor="middle" x="438.67" y="-664" font-family="Times,serif" font-size="14.00">R</text>
</g>
<!-- 52 -->
<g id="node11" class="node">
<title>52</title>
<ellipse fill="none" stroke="black" cx="242" cy="-535" rx="27" ry="18"/>
<text text-anchor="start" x="235" y="-531.8" font-family="Times,serif" font-size="14.00">x</text>
<text text-anchor="start" x="242" y="-531.8" font-family="Times,serif" baseline-shift="sub" font-size="14.00">2</text>
<g id="a_node11_43"><a xlink:href="C:\Users\checc\Desktop\ProgettoIntelligentWeb\Progetto\graph\lazy\52.txt" xlink:title="Clicca per visualizzare Lx" target="_blank">
<polygon fill="none" stroke="green" points="166,-554 166,-580 214,-580 214,-554 166,-554"/>
<text text-anchor="start" x="170.56" y="-562.4" font-family="Times,serif" font-size="14.00"> Label </text>
</a>
</g>
<polygon fill="none" stroke="green" points="165,-553 165,-581 215,-581 215,-553 165,-553"/>
</g>
<!-- 51&#45;&gt;52 -->
<g id="edge13" class="edge">
<title>51&#45;&gt;52</title>
<path fill="none" stroke="black" d="M401.53,-612.5C369.55,-597.17 309.26,-568.26 272.66,-550.7"/>
<polygon fill="black" stroke="black" points="273.98,-547.45 263.45,-546.28 270.95,-553.76 273.98,-547.45"/>
<text text-anchor="middle" x="366.5" y="-575.2" font-family="Times,serif" font-size="14.00">Union</text>
</g>
<!-- 60 -->
<g id="node19" class="node">
<title>60</title>
<ellipse fill="none" stroke="black" cx="423" cy="-535" rx="27" ry="18"/>
<text text-anchor="start" x="416" y="-531.8" font-family="Times,serif" font-size="14.00">x</text>
<text text-anchor="start" x="423" y="-531.8" font-family="Times,serif" baseline-shift="sub" font-size="14.00">2</text>
<g id="a_node19_44"><a xlink:href="C:\Users\checc\Desktop\ProgettoIntelligentWeb\Progetto\graph\lazy\60.txt" xlink:title="Clicca per visualizzare Lx" target="_blank">
<polygon fill="none" stroke="green" points="347,-518 347,-544 395,-544 395,-518 347,-518"/>
<text text-anchor="start" x="351.56" y="-526.4" font-family="Times,serif" font-size="14.00"> Label </text>
</a>
</g>
<polygon fill="none" stroke="green" points="346,-517 346,-545 396,-545 396,-517 346,-517"/>
</g>
<!-- 51&#45;&gt;60 -->
<g id="edge12" class="edge">
<title>51&#45;&gt;60</title>
<path fill="none" stroke="black" d="M423,-605.65C423,-593.52 423,-577.02 423,-563.12"/>
<polygon fill="black" stroke="black" points="426.5,-563.11 423,-553.11 419.5,-563.11 426.5,-563.11"/>
<text text-anchor="middle" x="440.5" y="-575.2" font-family="Times,serif" font-size="14.00">Union</text>
</g>
<!-- 53 -->
<g id="node12" class="node">
<title>53</title>
<ellipse fill="none" stroke="black" cx="154" cy="-446.2" rx="27" ry="18"/>
<text text-anchor="start" x="147" y="-443" font-family="Times,serif" font-size="14.00">x</text>
<text text-anchor="start" x="154" y="-443" font-family="Times,serif" baseline-shift="sub" font-size="14.00">2</text>
<g id="a_node12_45"><a xlink:href="C:\Users\checc\Desktop\ProgettoIntelligentWeb\Progetto\graph\lazy\53.txt" xlink:title="Clicca per visualizzare Lx" target="_blank">
<polygon fill="none" stroke="green" points="78,-465.2 78,-491.2 126,-491.2 126,-465.2 78,-465.2"/>
<text text-anchor="start" x="82.56" y="-473.6" font-family="Times,serif" font-size="14.00"> Label </text>
</a>
</g>
<polygon fill="none" stroke="green" points="77,-464.2 77,-492.2 127,-492.2 127,-464.2 77,-464.2"/>
</g>
<!-- 52&#45;&gt;53 -->
<g id="edge15" class="edge">
<title>52&#45;&gt;53</title>
<path fill="none" stroke="black" d="M226.17,-520.32C218.98,-513.97 210.43,-506.24 203,-499 193.3,-489.55 182.95,-478.72 174.27,-469.42"/>
<polygon fill="black" stroke="black" points="176.78,-466.98 167.42,-462.02 171.64,-471.74 176.78,-466.98"/>
<text text-anchor="middle" x="221.5" y="-486.4" font-family="Times,serif" font-size="14.00">Union</text>
</g>
<!-- 58 -->
<g id="node17" class="node">
<title>58</title>
<ellipse fill="none" stroke="black" cx="242" cy="-446.2" rx="27" ry="18"/>
<text text-anchor="start" x="235" y="-443" font-family="Times,serif" font-size="14.00">x</text>
<text text-anchor="start" x="242" y="-443" font-family="Times,serif" baseline-shift="sub" font-size="14.00">2</text>
<g id="a_node17_46"><a xlink:href="C:\Users\checc\Desktop\ProgettoIntelligentWeb\Progetto\graph\lazy\58.txt" xlink:title="Clicca per visualizzare Lx" target="_blank">
<polygon fill="none" stroke="green" points="216,-401.2 216,-427.2 264,-427.2 264,-401.2 216,-401.2"/>
<text text-anchor="start" x="220.56" y="-409.6" font-family="Times,serif" font-size="14.00"> Label </text>
</a>
</g>
<polygon fill="none" stroke="green" points="215,-400.2 215,-428.2 265,-428.2 265,-400.2 215,-400.2"/>
</g>
<!-- 52&#45;&gt;58 -->
<g id="edge14" class="edge">
<title>52&#45;&gt;58</title>
<path fill="none" stroke="black" d="M242,-516.85C242,-504.72 242,-488.22 242,-474.32"/>
<polygon fill="black" stroke="black" points="245.5,-474.31 242,-464.31 238.5,-474.31 245.5,-474.31"/>
<text text-anchor="middle" x="259.5" y="-486.4" font-family="Times,serif" font-size="14.00">Union</text>
</g>
<!-- 54 -->
<g id="node13" class="node">
<title>54</title>
<ellipse fill="none" stroke="black" cx="77" cy="-357.4" rx="27" ry="18"/>
<text text-anchor="start" x="70" y="-354.2" font-family="Times,serif" font-size="14.00">x</text>
<text text-anchor="start" x="77" y="-354.2" font-family="Times,serif" baseline-shift="sub" font-size="14.00">2</text>
<g id="a_node13_47"><a xlink:href="C:\Users\checc\Desktop\ProgettoIntelligentWeb\Progetto\graph\lazy\54.txt" xlink:title="Clicca per visualizzare Lx" target="_blank">
<polygon fill="none" stroke="green" points="1,-376.4 1,-402.4 49,-402.4 49,-376.4 1,-376.4"/>
<text text-anchor="start" x="5.56" y="-384.8" font-family="Times,serif" font-size="14.00"> Label </text>
</a>
</g>
<polygon fill="none" stroke="green" points="0,-375.4 0,-403.4 50,-403.4 50,-375.4 0,-375.4"/>
</g>
<!-- 53&#45;&gt;54 -->
<g id="edge17" class="edge">
<title>53&#45;&gt;54</title>
<path fill="none" stroke="black" d="M137.36,-431.6C130.16,-425.39 121.84,-417.75 115,-410.2 107.36,-401.77 99.78,-391.83 93.42,-382.93"/>
<polygon fill="black" stroke="black" points="96.1,-380.66 87.51,-374.47 90.36,-384.67 96.1,-380.66"/>
<text text-anchor="middle" x="133.5" y="-397.6" font-family="Times,serif" font-size="14.00">Union</text>
</g>
<!-- 56 -->
<g id="node15" class="node">
<title>56</title>
<ellipse fill="none" stroke="black" cx="154" cy="-357.4" rx="27" ry="18"/>
<text text-anchor="start" x="147" y="-354.2" font-family="Times,serif" font-size="14.00">x</text>
<text text-anchor="start" x="154" y="-354.2" font-family="Times,serif" baseline-shift="sub" font-size="14.00">2</text>
<g id="a_node15_48"><a xlink:href="C:\Users\checc\Desktop\ProgettoIntelligentWeb\Progetto\graph\lazy\56.txt" xlink:title="Clicca per visualizzare Lx" target="_blank">
<polygon fill="none" stroke="green" points="78,-312.4 78,-338.4 126,-338.4 126,-312.4 78,-312.4"/>
<text text-anchor="start" x="82.56" y="-320.8" font-family="Times,serif" font-size="14.00"> Label </text>
</a>
</g>
<polygon fill="none" stroke="green" points="77,-311.4 77,-339.4 127,-339.4 127,-311.4 77,-311.4"/>
</g>
<!-- 53&#45;&gt;56 -->
<g id="edge16" class="edge">
<title>53&#45;&gt;56</title>
<path fill="none" stroke="black" d="M154,-428.05C154,-415.92 154,-399.42 154,-385.52"/>
<polygon fill="black" stroke="black" points="157.5,-385.51 154,-375.51 150.5,-385.51 157.5,-385.51"/>
<text text-anchor="middle" x="171.5" y="-397.6" font-family="Times,serif" font-size="14.00">Union</text>
</g>
<!-- 55 -->
<g id="node14" class="node">
<title>55</title>
<ellipse fill="none" stroke="black" cx="62" cy="-268.6" rx="42.88" ry="18"/>
<text text-anchor="start" x="39.06" y="-264.4" font-family="Times,serif" font-size="14.00">CLASH</text>
</g>
<!-- 54&#45;&gt;55 -->
<g id="edge18" class="edge">
<title>54&#45;&gt;55</title>
<path fill="none" stroke="red" d="M74.04,-339.25C71.94,-327.12 69.09,-310.62 66.69,-296.72"/>
<polygon fill="red" stroke="red" points="70.11,-295.97 64.96,-286.71 63.21,-297.16 70.11,-295.97"/>
</g>
<!-- 57 -->
<g id="node16" class="node">
<title>57</title>
<ellipse fill="none" stroke="black" cx="165" cy="-268.6" rx="42.88" ry="18"/>
<text text-anchor="start" x="142.06" y="-264.4" font-family="Times,serif" font-size="14.00">CLASH</text>
</g>
<!-- 56&#45;&gt;57 -->
<g id="edge19" class="edge">
<title>56&#45;&gt;57</title>
<path fill="none" stroke="red" d="M156.17,-339.25C157.71,-327.12 159.8,-310.62 161.56,-296.72"/>
<polygon fill="red" stroke="red" points="165.05,-297.07 162.83,-286.71 158.1,-296.19 165.05,-297.07"/>
</g>
<!-- 59 -->
<g id="node18" class="node">
<title>59</title>
<ellipse fill="none" stroke="black" cx="242" cy="-357.4" rx="42.88" ry="18"/>
<text text-anchor="start" x="219.06" y="-353.2" font-family="Times,serif" font-size="14.00">CLASH</text>
</g>
<!-- 58&#45;&gt;59 -->
<g id="edge20" class="edge">
<title>58&#45;&gt;59</title>
<path fill="none" stroke="red" d="M242,-428.05C242,-415.92 242,-399.42 242,-385.52"/>
<polygon fill="red" stroke="red" points="245.5,-385.51 242,-375.51 238.5,-385.51 245.5,-385.51"/>
</g>
<!-- 61 -->
<g id="node20" class="node">
<title>61</title>
<ellipse fill="none" stroke="black" cx="402" cy="-446.2" rx="27" ry="18"/>
<text text-anchor="start" x="395" y="-443" font-family="Times,serif" font-size="14.00">x</text>
<text text-anchor="start" x="402" y="-443" font-family="Times,serif" baseline-shift="sub" font-size="14.00">2</text>
<g id="a_node20_49"><a xlink:href="C:\Users\checc\Desktop\ProgettoIntelligentWeb\Progetto\graph\lazy\61.txt" xlink:title="Clicca per visualizzare Lx" target="_blank">
<polygon fill="none" stroke="green" points="326,-465.2 326,-491.2 374,-491.2 374,-465.2 326,-465.2"/>
<text text-anchor="start" x="330.56" y="-473.6" font-family="Times,serif" font-size="14.00"> Label </text>
</a>
</g>
<polygon fill="none" stroke="green" points="325,-464.2 325,-492.2 375,-492.2 375,-464.2 325,-464.2"/>
</g>
<!-- 60&#45;&gt;61 -->
<g id="edge22" class="edge">
<title>60&#45;&gt;61</title>
<path fill="none" stroke="black" d="M418.85,-516.85C415.9,-504.65 411.87,-488 408.5,-474.05"/>
<polygon fill="black" stroke="black" points="411.82,-472.91 406.07,-464.02 405.02,-474.56 411.82,-472.91"/>
<text text-anchor="middle" x="432.5" y="-486.4" font-family="Times,serif" font-size="14.00">Union</text>
</g>
<!-- 66 -->
<g id="node25" class="node">
<title>66</title>
<ellipse fill="none" stroke="black" cx="484" cy="-446.2" rx="27" ry="18"/>
<text text-anchor="start" x="477" y="-443" font-family="Times,serif" font-size="14.00">x</text>
<text text-anchor="start" x="484" y="-443" font-family="Times,serif" baseline-shift="sub" font-size="14.00">2</text>
<g id="a_node25_50"><a xlink:href="C:\Users\checc\Desktop\ProgettoIntelligentWeb\Progetto\graph\lazy\66.txt" xlink:title="Clicca per visualizzare Lx" target="_blank">
<polygon fill="none" stroke="green" points="512,-465.2 512,-491.2 560,-491.2 560,-465.2 512,-465.2"/>
<text text-anchor="start" x="516.56" y="-473.6" font-family="Times,serif" font-size="14.00"> Label </text>
</a>
</g>
<polygon fill="none" stroke="green" points="511,-464.2 511,-492.2 561,-492.2 561,-464.2 511,-464.2"/>
</g>
<!-- 60&#45;&gt;66 -->
<g id="edge21" class="edge">
<title>60&#45;&gt;66</title>
<path fill="none" stroke="black" d="M436.96,-519.56C442.55,-513.45 448.87,-506.11 454,-499 459.98,-490.71 465.8,-481.13 470.69,-472.49"/>
<polygon fill="black" stroke="black" points="473.84,-474.03 475.6,-463.59 467.71,-470.65 473.84,-474.03"/>
<text text-anchor="middle" x="482.5" y="-486.4" font-family="Times,serif" font-size="14.00">Union</text>
</g>
<!-- 62 -->
<g id="node21" class="node">
<title>62</title>
<ellipse fill="none" stroke="black" cx="330" cy="-357.4" rx="27" ry="18"/>
<text text-anchor="start" x="323" y="-354.2" font-family="Times,serif" font-size="14.00">x</text>
<text text-anchor="start" x="330" y="-354.2" font-family="Times,serif" baseline-shift="sub" font-size="14.00">2</text>
<g id="a_node21_51"><a xlink:href="C:\Users\checc\Desktop\ProgettoIntelligentWeb\Progetto\graph\lazy\62.txt" xlink:title="Clicca per visualizzare Lx" target="_blank">
<polygon fill="none" stroke="green" points="254,-312.4 254,-338.4 302,-338.4 302,-312.4 254,-312.4"/>
<text text-anchor="start" x="258.56" y="-320.8" font-family="Times,serif" font-size="14.00"> Label </text>
</a>
</g>
<polygon fill="none" stroke="green" points="253,-311.4 253,-339.4 303,-339.4 303,-311.4 253,-311.4"/>
</g>
<!-- 61&#45;&gt;62 -->
<g id="edge24" class="edge">
<title>61&#45;&gt;62</title>
<path fill="none" stroke="black" d="M385.12,-431.81C377.88,-425.64 369.59,-417.97 363,-410.2 356.04,-401.99 349.44,-392.2 343.99,-383.36"/>
<polygon fill="black" stroke="black" points="346.9,-381.39 338.77,-374.58 340.88,-384.97 346.9,-381.39"/>
<text text-anchor="middle" x="381.5" y="-397.6" font-family="Times,serif" font-size="14.00">Union</text>
</g>
<!-- 64 -->
<g id="node23" class="node">
<title>64</title>
<ellipse fill="none" stroke="black" cx="402" cy="-357.4" rx="27" ry="18"/>
<text text-anchor="start" x="395" y="-354.2" font-family="Times,serif" font-size="14.00">x</text>
<text text-anchor="start" x="402" y="-354.2" font-family="Times,serif" baseline-shift="sub" font-size="14.00">2</text>
<g id="a_node23_52"><a xlink:href="C:\Users\checc\Desktop\ProgettoIntelligentWeb\Progetto\graph\lazy\64.txt" xlink:title="Clicca per visualizzare Lx" target="_blank">
<polygon fill="none" stroke="green" points="326,-312.4 326,-338.4 374,-338.4 374,-312.4 326,-312.4"/>
<text text-anchor="start" x="330.56" y="-320.8" font-family="Times,serif" font-size="14.00"> Label </text>
</a>
</g>
<polygon fill="none" stroke="green" points="325,-311.4 325,-339.4 375,-339.4 375,-311.4 325,-311.4"/>
</g>
<!-- 61&#45;&gt;64 -->
<g id="edge23" class="edge">
<title>61&#45;&gt;64</title>
<path fill="none" stroke="black" d="M402,-428.05C402,-415.92 402,-399.42 402,-385.52"/>
<polygon fill="black" stroke="black" points="405.5,-385.51 402,-375.51 398.5,-385.51 405.5,-385.51"/>
<text text-anchor="middle" x="419.5" y="-397.6" font-family="Times,serif" font-size="14.00">Union</text>
</g>
<!-- 63 -->
<g id="node22" class="node">
<title>63</title>
<ellipse fill="none" stroke="black" cx="278" cy="-268.6" rx="42.88" ry="18"/>
<text text-anchor="start" x="255.06" y="-264.4" font-family="Times,serif" font-size="14.00">CLASH</text>
</g>
<!-- 62&#45;&gt;63 -->
<g id="edge25" class="edge">
<title>62&#45;&gt;63</title>
<path fill="none" stroke="red" d="M320.46,-340.48C312.84,-327.75 302.01,-309.67 293.19,-294.96"/>
<polygon fill="red" stroke="red" points="296.15,-293.09 288.01,-286.31 290.15,-296.68 296.15,-293.09"/>
</g>
<!-- 65 -->
<g id="node24" class="node">
<title>65</title>
<ellipse fill="none" stroke="black" cx="381" cy="-268.6" rx="42.88" ry="18"/>
<text text-anchor="start" x="358.06" y="-264.4" font-family="Times,serif" font-size="14.00">CLASH</text>
</g>
<!-- 64&#45;&gt;65 -->
<g id="edge26" class="edge">
<title>64&#45;&gt;65</title>
<path fill="none" stroke="red" d="M397.85,-339.25C394.92,-327.12 390.92,-310.62 387.56,-296.72"/>
<polygon fill="red" stroke="red" points="390.89,-295.61 385.14,-286.71 384.09,-297.26 390.89,-295.61"/>
</g>
<!-- 67 -->
<g id="node26" class="node">
<title>67</title>
<ellipse fill="none" stroke="black" cx="484" cy="-357.4" rx="27" ry="18"/>
<text text-anchor="start" x="477" y="-354.2" font-family="Times,serif" font-size="14.00">x</text>
<text text-anchor="start" x="484" y="-354.2" font-family="Times,serif" baseline-shift="sub" font-size="14.00">2</text>
<g id="a_node26_53"><a xlink:href="C:\Users\checc\Desktop\ProgettoIntelligentWeb\Progetto\graph\lazy\67.txt" xlink:title="Clicca per visualizzare Lx" target="_blank">
<polygon fill="none" stroke="green" points="408,-312.4 408,-338.4 456,-338.4 456,-312.4 408,-312.4"/>
<text text-anchor="start" x="412.56" y="-320.8" font-family="Times,serif" font-size="14.00"> Label </text>
</a>
</g>
<polygon fill="none" stroke="green" points="407,-311.4 407,-339.4 457,-339.4 457,-311.4 407,-311.4"/>
</g>
<!-- 66&#45;&gt;67 -->
<g id="edge28" class="edge">
<title>66&#45;&gt;67</title>
<path fill="none" stroke="black" d="M484,-428.05C484,-415.92 484,-399.42 484,-385.52"/>
<polygon fill="black" stroke="black" points="487.5,-385.51 484,-375.51 480.5,-385.51 487.5,-385.51"/>
<text text-anchor="middle" x="501.5" y="-397.6" font-family="Times,serif" font-size="14.00">Union</text>
</g>
<!-- 69 -->
<g id="node28" class="node">
<title>69</title>
<ellipse fill="none" stroke="black" cx="571" cy="-357.4" rx="27" ry="18"/>
<text text-anchor="start" x="564" y="-354.2" font-family="Times,serif" font-size="14.00">x</text>
<text text-anchor="start" x="571" y="-354.2" font-family="Times,serif" baseline-shift="sub" font-size="14.00">2</text>
<g id="a_node28_54"><a xlink:href="C:\Users\checc\Desktop\ProgettoIntelligentWeb\Progetto\graph\lazy\69.txt" xlink:title="Clicca per visualizzare Lx" target="_blank">
<polygon fill="none" stroke="green" points="495,-312.4 495,-338.4 543,-338.4 543,-312.4 495,-312.4"/>
<text text-anchor="start" x="499.56" y="-320.8" font-family="Times,serif" font-size="14.00"> Label </text>
</a>
</g>
<polygon fill="none" stroke="green" points="494,-311.4 494,-339.4 544,-339.4 544,-311.4 494,-311.4"/>
</g>
<!-- 66&#45;&gt;69 -->
<g id="edge27" class="edge">
<title>66&#45;&gt;69</title>
<path fill="none" stroke="black" d="M499.86,-431.56C507.07,-425.21 515.61,-417.47 523,-410.2 532.46,-400.89 542.51,-390.19 550.95,-380.94"/>
<polygon fill="black" stroke="black" points="553.79,-383.02 557.9,-373.25 548.6,-378.32 553.79,-383.02"/>
<text text-anchor="middle" x="557.5" y="-397.6" font-family="Times,serif" font-size="14.00">Union</text>
</g>
<!-- 68 -->
<g id="node27" class="node">
<title>68</title>
<ellipse fill="none" stroke="black" cx="484" cy="-268.6" rx="42.88" ry="18"/>
<text text-anchor="start" x="461.06" y="-264.4" font-family="Times,serif" font-size="14.00">CLASH</text>
</g>
<!-- 67&#45;&gt;68 -->
<g id="edge29" class="edge">
<title>67&#45;&gt;68</title>
<path fill="none" stroke="red" d="M484,-339.25C484,-327.12 484,-310.62 484,-296.72"/>
<polygon fill="red" stroke="red" points="487.5,-296.71 484,-286.71 480.5,-296.71 487.5,-296.71"/>
</g>
<!-- 70 -->
<g id="node29" class="node">
<title>70</title>
<ellipse fill="none" stroke="black" cx="587" cy="-268.6" rx="42.88" ry="18"/>
<text text-anchor="start" x="564.06" y="-264.4" font-family="Times,serif" font-size="14.00">CLASH</text>
</g>
<!-- 69&#45;&gt;70 -->
<g id="edge30" class="edge">
<title>69&#45;&gt;70</title>
<path fill="none" stroke="red" d="M574.16,-339.25C576.4,-327.12 579.44,-310.62 582,-296.72"/>
<polygon fill="red" stroke="red" points="585.47,-297.18 583.85,-286.71 578.59,-295.91 585.47,-297.18"/>
</g>
<!-- 72 -->
<g id="node31" class="node">
<title>72</title>
<ellipse fill="none" stroke="black" cx="517" cy="-623.8" rx="42.88" ry="18"/>
<text text-anchor="start" x="494.06" y="-619.6" font-family="Times,serif" font-size="14.00">CLASH</text>
</g>
<!-- 71&#45;&gt;72 -->
<g id="edge31" class="edge">
<title>71&#45;&gt;72</title>
<path fill="none" stroke="red" d="M517,-694.45C517,-682.32 517,-665.82 517,-651.92"/>
<polygon fill="red" stroke="red" points="520.5,-651.91 517,-641.91 513.5,-651.91 520.5,-651.91"/>
</g>
<!-- 74 -->
<g id="node33" class="node">
<title>74</title>
<ellipse fill="none" stroke="black" cx="603" cy="-712.6" rx="27" ry="18"/>
<text text-anchor="start" x="596" y="-709.4" font-family="Times,serif" font-size="14.00">x</text>
<text text-anchor="start" x="603" y="-709.4" font-family="Times,serif" baseline-shift="sub" font-size="14.00">1</text>
<g id="a_node33_55"><a xlink:href="C:\Users\checc\Desktop\ProgettoIntelligentWeb\Progetto\graph\lazy\74.txt" xlink:title="Clicca per visualizzare Lx" target="_blank">
<polygon fill="none" stroke="green" points="631,-695.6 631,-721.6 679,-721.6 679,-695.6 631,-695.6"/>
<text text-anchor="start" x="635.56" y="-704" font-family="Times,serif" font-size="14.00"> Label </text>
</a>
</g>
<polygon fill="none" stroke="green" points="630,-694.6 630,-722.6 680,-722.6 680,-694.6 630,-694.6"/>
</g>
<!-- 73&#45;&gt;74 -->
<g id="edge32" class="edge">
<title>73&#45;&gt;74</title>
<path fill="none" stroke="black" d="M594.98,-783.25C596.37,-771.12 598.27,-754.62 599.88,-740.72"/>
<polygon fill="black" stroke="black" points="603.36,-741.05 601.03,-730.71 596.41,-740.25 603.36,-741.05"/>
<text text-anchor="middle" x="616.5" y="-752.8" font-family="Times,serif" font-size="14.00">Union</text>
</g>
<!-- 75 -->
<g id="node34" class="node">
<title>75</title>
<ellipse fill="none" stroke="black" cx="608" cy="-623.8" rx="27" ry="18"/>
<text text-anchor="start" x="601" y="-620.6" font-family="Times,serif" font-size="14.00">x</text>
<text text-anchor="start" x="608" y="-620.6" font-family="Times,serif" baseline-shift="sub" font-size="14.00">3</text>
<g id="a_node34_56"><a xlink:href="C:\Users\checc\Desktop\ProgettoIntelligentWeb\Progetto\graph\lazy\75.txt" xlink:title="Clicca per visualizzare Lx" target="_blank">
<polygon fill="none" stroke="green" points="532,-578.8 532,-604.8 580,-604.8 580,-578.8 532,-578.8"/>
<text text-anchor="start" x="536.56" y="-587.2" font-family="Times,serif" font-size="14.00"> Label </text>
</a>
</g>
<polygon fill="none" stroke="green" points="531,-577.8 531,-605.8 581,-605.8 581,-577.8 531,-577.8"/>
</g>
<!-- 74&#45;&gt;75 -->
<g id="edge33" class="edge">
<title>74&#45;&gt;75</title>
<path fill="none" stroke="black" d="M603.99,-694.45C604.69,-682.32 605.64,-665.82 606.44,-651.92"/>
<polygon fill="black" stroke="black" points="609.93,-652.1 607.01,-641.91 602.94,-651.7 609.93,-652.1"/>
<text text-anchor="middle" x="610.67" y="-664" font-family="Times,serif" font-size="14.00">R</text>
</g>
<!-- 76 -->
<g id="node35" class="node">
<title>76</title>
<ellipse fill="none" stroke="black" cx="612" cy="-535" rx="27" ry="18"/>
<text text-anchor="start" x="605" y="-531.8" font-family="Times,serif" font-size="14.00">x</text>
<text text-anchor="start" x="612" y="-531.8" font-family="Times,serif" baseline-shift="sub" font-size="14.00">3</text>
<g id="a_node35_57"><a xlink:href="C:\Users\checc\Desktop\ProgettoIntelligentWeb\Progetto\graph\lazy\76.txt" xlink:title="Clicca per visualizzare Lx" target="_blank">
<polygon fill="none" stroke="green" points="536,-518 536,-544 584,-544 584,-518 536,-518"/>
<text text-anchor="start" x="540.56" y="-526.4" font-family="Times,serif" font-size="14.00"> Label </text>
</a>
</g>
<polygon fill="none" stroke="green" points="535,-517 535,-545 585,-545 585,-517 535,-517"/>
</g>
<!-- 75&#45;&gt;76 -->
<g id="edge34" class="edge">
<title>75&#45;&gt;76</title>
<path fill="none" stroke="black" d="M608.79,-605.65C609.35,-593.52 610.11,-577.02 610.75,-563.12"/>
<polygon fill="black" stroke="black" points="614.25,-563.26 611.21,-553.11 607.25,-562.94 614.25,-563.26"/>
<text text-anchor="middle" x="628.5" y="-575.2" font-family="Times,serif" font-size="14.00">Union</text>
</g>
<!-- 77 -->
<g id="node36" class="node">
<title>77</title>
<ellipse fill="none" stroke="black" cx="613" cy="-446.2" rx="27" ry="18"/>
<text text-anchor="start" x="606" y="-443" font-family="Times,serif" font-size="14.00">x</text>
<text text-anchor="start" x="613" y="-443" font-family="Times,serif" baseline-shift="sub" font-size="14.00">3</text>
<g id="a_node36_58"><a xlink:href="C:\Users\checc\Desktop\ProgettoIntelligentWeb\Progetto\graph\lazy\77.txt" xlink:title="Clicca per visualizzare Lx" target="_blank">
<polygon fill="none" stroke="green" points="537,-429.2 537,-455.2 585,-455.2 585,-429.2 537,-429.2"/>
<text text-anchor="start" x="541.56" y="-437.6" font-family="Times,serif" font-size="14.00"> Label </text>
</a>
</g>
<polygon fill="none" stroke="green" points="536,-428.2 536,-456.2 586,-456.2 586,-428.2 536,-428.2"/>
</g>
<!-- 76&#45;&gt;77 -->
<g id="edge35" class="edge">
<title>76&#45;&gt;77</title>
<path fill="none" stroke="black" d="M612.2,-516.85C612.34,-504.72 612.53,-488.22 612.69,-474.32"/>
<polygon fill="black" stroke="black" points="616.19,-474.35 612.8,-464.31 609.19,-474.27 616.19,-474.35"/>
<text text-anchor="middle" x="630.5" y="-486.4" font-family="Times,serif" font-size="14.00">Union</text>
</g>
<!-- 78 -->
<g id="node37" class="node">
<title>78</title>
<ellipse fill="none" stroke="black" cx="659" cy="-357.4" rx="27" ry="18"/>
<text text-anchor="start" x="652" y="-354.2" font-family="Times,serif" font-size="14.00">x</text>
<text text-anchor="start" x="659" y="-354.2" font-family="Times,serif" baseline-shift="sub" font-size="14.00">4</text>
<g id="a_node37_59"><a xlink:href="C:\Users\checc\Desktop\ProgettoIntelligentWeb\Progetto\graph\lazy\78.txt" xlink:title="Clicca per visualizzare Lx" target="_blank">
<polygon fill="none" stroke="green" points="583,-376.4 583,-402.4 631,-402.4 631,-376.4 583,-376.4"/>
<text text-anchor="start" x="587.56" y="-384.8" font-family="Times,serif" font-size="14.00"> Label </text>
</a>
</g>
<polygon fill="none" stroke="green" points="582,-375.4 582,-403.4 632,-403.4 632,-375.4 582,-375.4"/>
</g>
<!-- 77&#45;&gt;78 -->
<g id="edge36" class="edge">
<title>77&#45;&gt;78</title>
<path fill="none" stroke="black" d="M621.65,-428.87C628.4,-416.14 637.89,-398.24 645.61,-383.66"/>
<polygon fill="black" stroke="black" points="648.8,-385.13 650.39,-374.65 642.61,-381.85 648.8,-385.13"/>
<text text-anchor="middle" x="645.67" y="-397.6" font-family="Times,serif" font-size="14.00">R</text>
</g>
<!-- 79 -->
<g id="node38" class="node">
<title>79</title>
<ellipse fill="none" stroke="black" cx="675" cy="-268.6" rx="27" ry="18"/>
<text text-anchor="start" x="668" y="-265.4" font-family="Times,serif" font-size="14.00">x</text>
<text text-anchor="start" x="675" y="-265.4" font-family="Times,serif" baseline-shift="sub" font-size="14.00">4</text>
<g id="a_node38_60"><a xlink:href="C:\Users\checc\Desktop\ProgettoIntelligentWeb\Progetto\graph\lazy\79.txt" xlink:title="Clicca per visualizzare Lx" target="_blank">
<polygon fill="none" stroke="green" points="599,-287.6 599,-313.6 647,-313.6 647,-287.6 599,-287.6"/>
<text text-anchor="start" x="603.56" y="-296" font-family="Times,serif" font-size="14.00"> Label </text>
</a>
</g>
<polygon fill="none" stroke="green" points="598,-286.6 598,-314.6 648,-314.6 648,-286.6 598,-286.6"/>
</g>
<!-- 78&#45;&gt;79 -->
<g id="edge37" class="edge">
<title>78&#45;&gt;79</title>
<path fill="none" stroke="black" d="M662.16,-339.25C664.4,-327.12 667.44,-310.62 670,-296.72"/>
<polygon fill="black" stroke="black" points="673.47,-297.18 671.85,-286.71 666.59,-295.91 673.47,-297.18"/>
<text text-anchor="middle" x="685.5" y="-308.8" font-family="Times,serif" font-size="14.00">Union</text>
</g>
<!-- 80 -->
<g id="node39" class="node">
<title>80</title>
<ellipse fill="none" stroke="black" cx="638" cy="-179.8" rx="27" ry="18"/>
<text text-anchor="start" x="631" y="-176.6" font-family="Times,serif" font-size="14.00">x</text>
<text text-anchor="start" x="638" y="-176.6" font-family="Times,serif" baseline-shift="sub" font-size="14.00">4</text>
<g id="a_node39_61"><a xlink:href="C:\Users\checc\Desktop\ProgettoIntelligentWeb\Progetto\graph\lazy\80.txt" xlink:title="Clicca per visualizzare Lx" target="_blank">
<polygon fill="none" stroke="green" points="562,-198.8 562,-224.8 610,-224.8 610,-198.8 562,-198.8"/>
<text text-anchor="start" x="566.56" y="-207.2" font-family="Times,serif" font-size="14.00"> Label </text>
</a>
</g>
<polygon fill="none" stroke="green" points="561,-197.8 561,-225.8 611,-225.8 611,-197.8 561,-197.8"/>
</g>
<!-- 79&#45;&gt;80 -->
<g id="edge39" class="edge">
<title>79&#45;&gt;80</title>
<path fill="none" stroke="black" d="M661.81,-252.82C657.14,-246.9 652.24,-239.77 649,-232.6 645.58,-225.03 643.21,-216.34 641.56,-208.28"/>
<polygon fill="black" stroke="black" points="644.97,-207.42 639.8,-198.18 638.07,-208.63 644.97,-207.42"/>
<text text-anchor="middle" x="667.5" y="-220" font-family="Times,serif" font-size="14.00">Union</text>
</g>
<!-- 82 -->
<g id="node41" class="node">
<title>82</title>
<ellipse fill="none" stroke="black" cx="714" cy="-179.8" rx="27" ry="18"/>
<text text-anchor="start" x="707" y="-176.6" font-family="Times,serif" font-size="14.00">x</text>
<text text-anchor="start" x="714" y="-176.6" font-family="Times,serif" baseline-shift="sub" font-size="14.00">4</text>
<g id="a_node41_62"><a xlink:href="C:\Users\checc\Desktop\ProgettoIntelligentWeb\Progetto\graph\lazy\82.txt" xlink:title="Clicca per visualizzare Lx" target="_blank">
<polygon fill="none" stroke="green" points="638,-134.8 638,-160.8 686,-160.8 686,-134.8 638,-134.8"/>
<text text-anchor="start" x="642.56" y="-143.2" font-family="Times,serif" font-size="14.00"> Label </text>
</a>
</g>
<polygon fill="none" stroke="green" points="637,-133.8 637,-161.8 687,-161.8 687,-133.8 637,-133.8"/>
</g>
<!-- 79&#45;&gt;82 -->
<g id="edge38" class="edge">
<title>79&#45;&gt;82</title>
<path fill="none" stroke="black" d="M682.34,-251.27C687.96,-238.74 695.85,-221.2 702.34,-206.76"/>
<polygon fill="black" stroke="black" points="705.66,-207.9 706.56,-197.35 699.27,-205.04 705.66,-207.9"/>
<text text-anchor="middle" x="714.5" y="-220" font-family="Times,serif" font-size="14.00">Union</text>
</g>
<!-- 81 -->
<g id="node40" class="node">
<title>81</title>
<ellipse fill="none" stroke="black" cx="630" cy="-91" rx="42.88" ry="18"/>
<text text-anchor="start" x="607.06" y="-86.8" font-family="Times,serif" font-size="14.00">CLASH</text>
</g>
<!-- 80&#45;&gt;81 -->
<g id="edge40" class="edge">
<title>80&#45;&gt;81</title>
<path fill="none" stroke="red" d="M636.42,-161.65C635.3,-149.52 633.78,-133.02 632.5,-119.12"/>
<polygon fill="red" stroke="red" points="635.98,-118.75 631.58,-109.11 629.01,-119.39 635.98,-118.75"/>
</g>
<!-- 83 -->
<g id="node42" class="node">
<title>83</title>
<ellipse fill="none" stroke="black" cx="718" cy="-91" rx="27" ry="18"/>
<text text-anchor="start" x="711" y="-87.8" font-family="Times,serif" font-size="14.00">x</text>
<text text-anchor="start" x="718" y="-87.8" font-family="Times,serif" baseline-shift="sub" font-size="14.00">5</text>
<g id="a_node42_63"><a xlink:href="C:\Users\checc\Desktop\ProgettoIntelligentWeb\Progetto\graph\lazy\83.txt" xlink:title="Clicca per visualizzare Lx" target="_blank">
<polygon fill="none" stroke="green" points="642,-46 642,-72 690,-72 690,-46 642,-46"/>
<text text-anchor="start" x="646.56" y="-54.4" font-family="Times,serif" font-size="14.00"> Label </text>
</a>
</g>
<polygon fill="none" stroke="green" points="641,-45 641,-73 691,-73 691,-45 641,-45"/>
</g>
<!-- 82&#45;&gt;83 -->
<g id="edge41" class="edge">
<title>82&#45;&gt;83</title>
<path fill="none" stroke="black" d="M714.79,-161.65C715.35,-149.52 716.11,-133.02 716.75,-119.12"/>
<polygon fill="black" stroke="black" points="720.25,-119.26 717.21,-109.11 713.25,-118.94 720.25,-119.26"/>
<text text-anchor="middle" x="720.67" y="-131.2" font-family="Times,serif" font-size="14.00">R</text>
</g>
<!-- 84 -->
<g id="node43" class="node">
<title>84</title>
<ellipse fill="none" stroke="black" cx="718" cy="-18" rx="27" ry="18"/>
<text text-anchor="start" x="707.5" y="-14.8" font-family="Times,serif" font-size="14.00">x</text>
<text text-anchor="start" x="714.5" y="-14.8" font-family="Times,serif" text-decoration="underline" font-size="14.00">_</text>
<text text-anchor="start" x="721.5" y="-14.8" font-family="Times,serif" font-size="14.00">_</text>
<text text-anchor="start" x="618.69" y="-4.2" font-family="Times,serif" font-size="14.00">BLOCKING</text>
</g>
<!-- 83&#45;&gt;84 -->
<g id="edge42" class="edge">
<title>83&#45;&gt;84</title>
<path fill="none" stroke="yellow" d="M718,-72.81C718,-64.79 718,-55.05 718,-46.07"/>
<polygon fill="yellow" stroke="yellow" points="721.5,-46.03 718,-36.03 714.5,-46.03 721.5,-46.03"/>
</g>
</g>
</svg>
