<svg width="306px" height="678px"
 viewBox="0.00 0.00 305.51 677.80" xmlns="http://www.w3.org/2000/svg" xmlns:xlink="http://www.w3.org/1999/xlink">
<g id="graph0" class="graph" transform="scale(1.0 1.0) rotate(0.0) translate(4.0 673.8)">
<title>tableaux</title>
<polygon fill="white" stroke="transparent" points="-4,4 -4,-673.8 301.51,-673.8 301.51,4 -4,4"/>
<!-- 0 -->
<g id="node1" class="node">
<title>0</title>
<ellipse fill="none" stroke="black" cx="171" cy="-623.8" rx="27" ry="18"/>
<text text-anchor="start" x="164" y="-620.6" font-family="Times,serif" font-size="14.00">x</text>
<text text-anchor="start" x="171" y="-620.6" font-family="Times,serif" baseline-shift="sub" font-size="14.00">0</text>
<g id="a_node1_42"><a xlink:href="C:\Users\turco\OneDrive\Desktop\ProgettoIntelligentWeb\Progetto\graph\lazy\0.txt" xlink:title="((Componente ⊔ ¬Manubrio )⊓ (Veicolo ⊔ ¬Auto )⊓ (¬Auto ⊔ &#160;∀ haComponente.Sterzo )⊓ (¬Bicicletta ⊔ &#160;∀ haComponente.Manubrio )), (Componente ⊔ ¬Manubrio ), (Veicolo ⊔ ¬Auto ), (¬Bicicletta ⊔ &#160;∀ haComponente.Manubrio ), (¬Auto ⊔ &#160;∀ haComponente.Sterzo ), (∃haComponente.Bicicletta ⊔ &#160;∀ haComponente.Auto )" target="_blank">
<polygon fill="none" stroke="green" points="95,-642.8 95,-668.8 143,-668.8 143,-642.8 95,-642.8"/>
<text text-anchor="start" x="99.56" y="-651.2" font-family="Times,serif" font-size="14.00"> Label </text>
</a>
</g>
<polygon fill="none" stroke="green" points="94,-641.8 94,-669.8 144,-669.8 144,-641.8 94,-641.8"/>
</g>
<!-- 1 -->
<g id="node2" class="node">
<title>1</title>
<ellipse fill="none" stroke="black" cx="171" cy="-535" rx="27" ry="18"/>
<text text-anchor="start" x="164" y="-531.8" font-family="Times,serif" font-size="14.00">x</text>
<text text-anchor="start" x="171" y="-531.8" font-family="Times,serif" baseline-shift="sub" font-size="14.00">0</text>
<g id="a_node2_43"><a xlink:href="C:\Users\turco\OneDrive\Desktop\ProgettoIntelligentWeb\Progetto\graph\lazy\1.txt" xlink:title="Componente , ((Componente ⊔ ¬Manubrio )⊓ (Veicolo ⊔ ¬Auto )⊓ (¬Auto ⊔ &#160;∀ haComponente.Sterzo )⊓ (¬Bicicletta ⊔ &#160;∀ haComponente.Manubrio )), (Componente ⊔ ¬Manubrio ), (Veicolo ⊔ ¬Auto ), (¬Bicicletta ⊔ &#160;∀ haComponente.Manubrio ), (¬Auto ⊔ &#160;∀ haComponente.Sterzo ), (∃haComponente.Bicicletta ⊔ &#160;∀ haComponente.Auto )" target="_blank">
<polygon fill="none" stroke="green" points="95,-554 95,-580 143,-580 143,-554 95,-554"/>
<text text-anchor="start" x="99.56" y="-562.4" font-family="Times,serif" font-size="14.00"> Label </text>
</a>
</g>
<polygon fill="none" stroke="green" points="94,-553 94,-581 144,-581 144,-553 94,-553"/>
</g>
<!-- 0&#45;&gt;1 -->
<g id="edge1" class="edge">
<title>0&#45;&gt;1</title>
<path fill="none" stroke="black" d="M171,-605.65C171,-593.52 171,-577.02 171,-563.12"/>
<polygon fill="black" stroke="black" points="174.5,-563.11 171,-553.11 167.5,-563.11 174.5,-563.11"/>
<text text-anchor="middle" x="176.25" y="-575.2" font-family="Times,serif" font-size="14.00">⊔</text>
</g>
<!-- 2 -->
<g id="node3" class="node">
<title>2</title>
<ellipse fill="none" stroke="black" cx="171" cy="-446.2" rx="27" ry="18"/>
<text text-anchor="start" x="164" y="-443" font-family="Times,serif" font-size="14.00">x</text>
<text text-anchor="start" x="171" y="-443" font-family="Times,serif" baseline-shift="sub" font-size="14.00">0</text>
<g id="a_node3_44"><a xlink:href="C:\Users\turco\OneDrive\Desktop\ProgettoIntelligentWeb\Progetto\graph\lazy\2.txt" xlink:title="Componente , ((Componente ⊔ ¬Manubrio )⊓ (Veicolo ⊔ ¬Auto )⊓ (¬Auto ⊔ &#160;∀ haComponente.Sterzo )⊓ (¬Bicicletta ⊔ &#160;∀ haComponente.Manubrio )), (Componente ⊔ ¬Manubrio ), (Veicolo ⊔ ¬Auto ), ¬Auto , (¬Bicicletta ⊔ &#160;∀ haComponente.Manubrio ), ¬Veicolo , (¬Auto ⊔ &#160;∀ haComponente.Sterzo ), (∃haComponente.Bicicletta ⊔ &#160;∀ haComponente.Auto )" target="_blank">
<polygon fill="none" stroke="green" points="95,-465.2 95,-491.2 143,-491.2 143,-465.2 95,-465.2"/>
<text text-anchor="start" x="99.56" y="-473.6" font-family="Times,serif" font-size="14.00"> Label </text>
</a>
</g>
<polygon fill="none" stroke="green" points="94,-464.2 94,-492.2 144,-492.2 144,-464.2 94,-464.2"/>
</g>
<!-- 1&#45;&gt;2 -->
<g id="edge2" class="edge">
<title>1&#45;&gt;2</title>
<path fill="none" stroke="black" d="M171,-516.85C171,-504.72 171,-488.22 171,-474.32"/>
<polygon fill="black" stroke="black" points="174.5,-474.31 171,-464.31 167.5,-474.31 174.5,-474.31"/>
<text text-anchor="middle" x="176.25" y="-486.4" font-family="Times,serif" font-size="14.00">⊔</text>
</g>
<!-- 3 -->
<g id="node4" class="node">
<title>3</title>
<ellipse fill="none" stroke="black" cx="171" cy="-357.4" rx="27" ry="18"/>
<text text-anchor="start" x="164" y="-354.2" font-family="Times,serif" font-size="14.00">x</text>
<text text-anchor="start" x="171" y="-354.2" font-family="Times,serif" baseline-shift="sub" font-size="14.00">0</text>
<g id="a_node4_45"><a xlink:href="C:\Users\turco\OneDrive\Desktop\ProgettoIntelligentWeb\Progetto\graph\lazy\3.txt" xlink:title="Componente , ((Componente ⊔ ¬Manubrio )⊓ (Veicolo ⊔ ¬Auto )⊓ (¬Auto ⊔ &#160;∀ haComponente.Sterzo )⊓ (¬Bicicletta ⊔ &#160;∀ haComponente.Manubrio )), (Componente ⊔ ¬Manubrio ), (Veicolo ⊔ ¬Auto ), ¬Auto , (¬Bicicletta ⊔ &#160;∀ haComponente.Manubrio ), ¬Veicolo , &#160;∀ haComponente.Manubrio , (¬Auto ⊔ &#160;∀ haComponente.Sterzo ), (∃haComponente.Bicicletta ⊔ &#160;∀ haComponente.Auto )" target="_blank">
<polygon fill="none" stroke="green" points="95,-376.4 95,-402.4 143,-402.4 143,-376.4 95,-376.4"/>
<text text-anchor="start" x="99.56" y="-384.8" font-family="Times,serif" font-size="14.00"> Label </text>
</a>
</g>
<polygon fill="none" stroke="green" points="94,-375.4 94,-403.4 144,-403.4 144,-375.4 94,-375.4"/>
</g>
<!-- 2&#45;&gt;3 -->
<g id="edge3" class="edge">
<title>2&#45;&gt;3</title>
<path fill="none" stroke="black" d="M171,-428.05C171,-415.92 171,-399.42 171,-385.52"/>
<polygon fill="black" stroke="black" points="174.5,-385.51 171,-375.51 167.5,-385.51 174.5,-385.51"/>
<text text-anchor="middle" x="176.25" y="-397.6" font-family="Times,serif" font-size="14.00">⊔</text>
</g>
<!-- 4 -->
<g id="node5" class="node">
<title>4</title>
<ellipse fill="none" stroke="black" cx="135" cy="-268.6" rx="27" ry="18"/>
<text text-anchor="start" x="128" y="-265.4" font-family="Times,serif" font-size="14.00">x</text>
<text text-anchor="start" x="135" y="-265.4" font-family="Times,serif" baseline-shift="sub" font-size="14.00">0</text>
<g id="a_node5_46"><a xlink:href="C:\Users\turco\OneDrive\Desktop\ProgettoIntelligentWeb\Progetto\graph\lazy\4.txt" xlink:title="Componente , ((Componente ⊔ ¬Manubrio )⊓ (Veicolo ⊔ ¬Auto )⊓ (¬Auto ⊔ &#160;∀ haComponente.Sterzo )⊓ (¬Bicicletta ⊔ &#160;∀ haComponente.Manubrio )), (Componente ⊔ ¬Manubrio ), (Veicolo ⊔ ¬Auto ), ∃haComponente.Bicicletta , ¬Auto , (¬Bicicletta ⊔ &#160;∀ haComponente.Manubrio ), ¬Veicolo , &#160;∀ haComponente.Manubrio , (¬Auto ⊔ &#160;∀ haComponente.Sterzo ), (∃haComponente.Bicicletta ⊔ &#160;∀ haComponente.Auto )" target="_blank">
<polygon fill="none" stroke="green" points="59,-287.6 59,-313.6 107,-313.6 107,-287.6 59,-287.6"/>
<text text-anchor="start" x="63.56" y="-296" font-family="Times,serif" font-size="14.00"> Label </text>
</a>
</g>
<polygon fill="none" stroke="green" points="58,-286.6 58,-314.6 108,-314.6 108,-286.6 58,-286.6"/>
</g>
<!-- 3&#45;&gt;4 -->
<g id="edge5" class="edge">
<title>3&#45;&gt;4</title>
<path fill="none" stroke="black" d="M164.06,-339.66C158.88,-327.18 151.71,-309.88 145.78,-295.6"/>
<polygon fill="black" stroke="black" points="148.98,-294.18 141.92,-286.28 142.52,-296.86 148.98,-294.18"/>
<text text-anchor="middle" x="162.25" y="-308.8" font-family="Times,serif" font-size="14.00">⊔</text>
</g>
<!-- 10 -->
<g id="node11" class="node">
<title>10</title>
<ellipse fill="none" stroke="black" cx="214" cy="-268.6" rx="27" ry="18"/>
<text text-anchor="start" x="207" y="-265.4" font-family="Times,serif" font-size="14.00">x</text>
<text text-anchor="start" x="214" y="-265.4" font-family="Times,serif" baseline-shift="sub" font-size="14.00">0</text>
<g id="a_node11_47"><a xlink:href="C:\Users\turco\OneDrive\Desktop\ProgettoIntelligentWeb\Progetto\graph\lazy\10.txt" xlink:title="Componente , ((Componente ⊔ ¬Manubrio )⊓ (Veicolo ⊔ ¬Auto )⊓ (¬Auto ⊔ &#160;∀ haComponente.Sterzo )⊓ (¬Bicicletta ⊔ &#160;∀ haComponente.Manubrio )), (Componente ⊔ ¬Manubrio ), &#160;∀ haComponente.Auto , (Veicolo ⊔ ¬Auto ), ¬Auto , (¬Bicicletta ⊔ &#160;∀ haComponente.Manubrio ), ¬Veicolo , &#160;∀ haComponente.Manubrio , (¬Auto ⊔ &#160;∀ haComponente.Sterzo ), (∃haComponente.Bicicletta ⊔ &#160;∀ haComponente.Auto )" target="_blank">
<polygon fill="none" stroke="green" points="242,-287.6 242,-313.6 290,-313.6 290,-287.6 242,-287.6"/>
<text text-anchor="start" x="246.56" y="-296" font-family="Times,serif" font-size="14.00"> Label </text>
</a>
</g>
<polygon fill="none" stroke="green" points="241,-286.6 241,-314.6 291,-314.6 291,-286.6 241,-286.6"/>
</g>
<!-- 3&#45;&gt;10 -->
<g id="edge4" class="edge">
<title>3&#45;&gt;10</title>
<path fill="none" stroke="black" d="M179.09,-340.07C185.39,-327.34 194.26,-309.44 201.48,-294.86"/>
<polygon fill="black" stroke="black" points="204.65,-296.37 205.95,-285.85 198.37,-293.26 204.65,-296.37"/>
<text text-anchor="middle" x="202.25" y="-308.8" font-family="Times,serif" font-size="14.00">⊔</text>
</g>
<!-- 5 -->
<g id="node6" class="node">
<title>5</title>
<ellipse fill="none" stroke="black" cx="113" cy="-179.8" rx="27" ry="18"/>
<text text-anchor="start" x="106" y="-176.6" font-family="Times,serif" font-size="14.00">x</text>
<text text-anchor="start" x="113" y="-176.6" font-family="Times,serif" baseline-shift="sub" font-size="14.00">1</text>
<g id="a_node6_48"><a xlink:href="C:\Users\turco\OneDrive\Desktop\ProgettoIntelligentWeb\Progetto\graph\lazy\5.txt" xlink:title="((Componente ⊔ ¬Manubrio )⊓ (Veicolo ⊔ ¬Auto )⊓ (¬Auto ⊔ &#160;∀ haComponente.Sterzo )⊓ (¬Bicicletta ⊔ &#160;∀ haComponente.Manubrio )), Bicicletta " target="_blank">
<polygon fill="none" stroke="green" points="37,-198.8 37,-224.8 85,-224.8 85,-198.8 37,-198.8"/>
<text text-anchor="start" x="41.56" y="-207.2" font-family="Times,serif" font-size="14.00"> Label </text>
</a>
</g>
<polygon fill="none" stroke="green" points="36,-197.8 36,-225.8 86,-225.8 86,-197.8 36,-197.8"/>
</g>
<!-- 4&#45;&gt;5 -->
<g id="edge6" class="edge">
<title>4&#45;&gt;5</title>
<path fill="none" stroke="black" d="M130.65,-250.45C127.56,-238.25 123.34,-221.6 119.8,-207.65"/>
<polygon fill="black" stroke="black" points="123.11,-206.45 117.26,-197.62 116.33,-208.17 123.11,-206.45"/>
<text text-anchor="middle" x="168.38" y="-220" font-family="Times,serif" font-size="14.00">haComponente</text>
</g>
<!-- 6 -->
<g id="node7" class="node">
<title>6</title>
<ellipse fill="none" stroke="black" cx="77" cy="-91" rx="27" ry="18"/>
<text text-anchor="start" x="70" y="-87.8" font-family="Times,serif" font-size="14.00">x</text>
<text text-anchor="start" x="77" y="-87.8" font-family="Times,serif" baseline-shift="sub" font-size="14.00">1</text>
<g id="a_node7_49"><a xlink:href="C:\Users\turco\OneDrive\Desktop\ProgettoIntelligentWeb\Progetto\graph\lazy\6.txt" xlink:title="Veicolo , ((Componente ⊔ ¬Manubrio )⊓ (Veicolo ⊔ ¬Auto )⊓ (¬Auto ⊔ &#160;∀ haComponente.Sterzo )⊓ (¬Bicicletta ⊔ &#160;∀ haComponente.Manubrio )), (Componente ⊔ ¬Manubrio ), (Veicolo ⊔ ¬Auto ), Bicicletta , ¬Manubrio , (¬Bicicletta ⊔ &#160;∀ haComponente.Manubrio ), (¬Auto ⊔ &#160;∀ haComponente.Sterzo ), Manubrio , ¬Sterzo " target="_blank">
<polygon fill="none" stroke="green" points="1,-110 1,-136 49,-136 49,-110 1,-110"/>
<text text-anchor="start" x="5.56" y="-118.4" font-family="Times,serif" font-size="14.00"> Label </text>
</a>
</g>
<polygon fill="none" stroke="green" points="0,-109 0,-137 50,-137 50,-109 0,-109"/>
</g>
<!-- 5&#45;&gt;6 -->
<g id="edge8" class="edge">
<title>5&#45;&gt;6</title>
<path fill="none" stroke="black" d="M106.06,-162.06C100.88,-149.58 93.71,-132.28 87.78,-118"/>
<polygon fill="black" stroke="black" points="90.98,-116.58 83.92,-108.68 84.52,-119.26 90.98,-116.58"/>
<text text-anchor="middle" x="104.25" y="-131.2" font-family="Times,serif" font-size="14.00">⊔</text>
</g>
<!-- 8 -->
<g id="node9" class="node">
<title>8</title>
<ellipse fill="none" stroke="black" cx="164" cy="-91" rx="27" ry="18"/>
<text text-anchor="start" x="157" y="-87.8" font-family="Times,serif" font-size="14.00">x</text>
<text text-anchor="start" x="164" y="-87.8" font-family="Times,serif" baseline-shift="sub" font-size="14.00">1</text>
<g id="a_node9_50"><a xlink:href="C:\Users\turco\OneDrive\Desktop\ProgettoIntelligentWeb\Progetto\graph\lazy\8.txt" xlink:title="Veicolo , Componente , ((Componente ⊔ ¬Manubrio )⊓ (Veicolo ⊔ ¬Auto )⊓ (¬Auto ⊔ &#160;∀ haComponente.Sterzo )⊓ (¬Bicicletta ⊔ &#160;∀ haComponente.Manubrio )), (Componente ⊔ ¬Manubrio ), (Veicolo ⊔ ¬Auto ), Bicicletta , (¬Bicicletta ⊔ &#160;∀ haComponente.Manubrio ), (¬Auto ⊔ &#160;∀ haComponente.Sterzo ), Manubrio , ¬Sterzo " target="_blank">
<polygon fill="none" stroke="green" points="88,-46 88,-72 136,-72 136,-46 88,-46"/>
<text text-anchor="start" x="92.56" y="-54.4" font-family="Times,serif" font-size="14.00"> Label </text>
</a>
</g>
<polygon fill="none" stroke="green" points="87,-45 87,-73 137,-73 137,-45 87,-45"/>
</g>
<!-- 5&#45;&gt;8 -->
<g id="edge7" class="edge">
<title>5&#45;&gt;8</title>
<path fill="none" stroke="black" d="M122.35,-162.88C129.93,-149.99 140.73,-131.61 149.43,-116.8"/>
<polygon fill="black" stroke="black" points="152.48,-118.51 154.53,-108.11 146.45,-114.96 152.48,-118.51"/>
<text text-anchor="middle" x="149.25" y="-131.2" font-family="Times,serif" font-size="14.00">⊔</text>
</g>
<!-- 7 -->
<g id="node8" class="node">
<title>7</title>
<ellipse fill="none" stroke="black" cx="69" cy="-18" rx="42.88" ry="18"/>
<text text-anchor="start" x="46.06" y="-13.8" font-family="Times,serif" font-size="14.00">CLASH</text>
</g>
<!-- 6&#45;&gt;7 -->
<g id="edge9" class="edge">
<title>6&#45;&gt;7</title>
<path fill="none" stroke="red" d="M75.06,-72.81C74.16,-64.79 73.06,-55.05 72.05,-46.07"/>
<polygon fill="red" stroke="red" points="75.52,-45.57 70.92,-36.03 68.56,-46.36 75.52,-45.57"/>
</g>
<!-- 9 -->
<g id="node10" class="node">
<title>9</title>
<ellipse fill="none" stroke="black" cx="172" cy="-18" rx="42.88" ry="18"/>
<text text-anchor="start" x="149.06" y="-13.8" font-family="Times,serif" font-size="14.00">CLASH</text>
</g>
<!-- 8&#45;&gt;9 -->
<g id="edge10" class="edge">
<title>8&#45;&gt;9</title>
<path fill="none" stroke="red" d="M165.94,-72.81C166.84,-64.79 167.94,-55.05 168.95,-46.07"/>
<polygon fill="red" stroke="red" points="172.44,-46.36 170.08,-36.03 165.48,-45.57 172.44,-46.36"/>
</g>
<!-- 11 -->
<g id="node12" class="node">
<title>11</title>
<ellipse fill="none" stroke="black" cx="228" cy="-179.8" rx="69.52" ry="18"/>
<text text-anchor="start" x="185.62" y="-175.6" font-family="Times,serif" font-size="14.00">CLASH&#45;FREE</text>
</g>
<!-- 10&#45;&gt;11 -->
<g id="edge11" class="edge">
<title>10&#45;&gt;11</title>
<path fill="none" stroke="green" d="M216.77,-250.45C218.72,-238.32 221.38,-221.82 223.63,-207.92"/>
<polygon fill="green" stroke="green" points="227.1,-208.34 225.24,-197.91 220.19,-207.23 227.1,-208.34"/>
</g>
</g>
</svg>
