<svg width="427px" height="492px"
 viewBox="0.00 0.00 427.00 492.00" xmlns="http://www.w3.org/2000/svg" xmlns:xlink="http://www.w3.org/1999/xlink">
<g id="graph0" class="graph" transform="scale(1.0 1.0) rotate(0.0) translate(4.0 488.0)">
<title>tableaux</title>
<polygon fill="white" stroke="transparent" points="-4,4 -4,-488 423,-488 423,4 -4,4"/>
<!-- 0 -->
<g id="node1" class="node">
<title>0</title>
<ellipse fill="none" stroke="black" cx="212" cy="-439" rx="27" ry="18"/>
<text text-anchor="start" x="205" y="-436.3" font-family="Times New Roman,serif" font-size="14.00">x</text>
<text text-anchor="start" x="212" y="-436.3" font-family="Times New Roman,serif" baseline-shift="sub" font-size="14.00">0</text>
<g id="a_node1_0"><a xlink:href="C:\Users\Mario\Desktop\ProgettoIntelligentWeb\Progetto\graph\normal\0.txt" xlink:title="Clicca per visualizzare Lx" target="_blank">
<polygon fill="none" stroke="green" points="135.5,-457.5 135.5,-482.5 184.5,-482.5 184.5,-457.5 135.5,-457.5"/>
<text text-anchor="start" x="140.5" y="-466.3" font-family="Times New Roman,serif" font-size="14.00"> Label </text>
</a>
</g>
<polygon fill="none" stroke="green" points="134,-457 134,-484 185,-484 185,-457 134,-457"/>
</g>
<!-- 1 -->
<g id="node2" class="node">
<title>1</title>
<ellipse fill="none" stroke="black" cx="163" cy="-352" rx="27" ry="18"/>
<text text-anchor="start" x="156" y="-349.3" font-family="Times New Roman,serif" font-size="14.00">x</text>
<text text-anchor="start" x="163" y="-349.3" font-family="Times New Roman,serif" baseline-shift="sub" font-size="14.00">0</text>
<g id="a_node2_1"><a xlink:href="C:\Users\Mario\Desktop\ProgettoIntelligentWeb\Progetto\graph\normal\1.txt" xlink:title="Clicca per visualizzare Lx" target="_blank">
<polygon fill="none" stroke="green" points="86.5,-370.5 86.5,-395.5 135.5,-395.5 135.5,-370.5 86.5,-370.5"/>
<text text-anchor="start" x="91.5" y="-379.3" font-family="Times New Roman,serif" font-size="14.00"> Label </text>
</a>
</g>
<polygon fill="none" stroke="green" points="85,-370 85,-397 136,-397 136,-370 85,-370"/>
</g>
<!-- 0&#45;&gt;1 -->
<g id="edge2" class="edge">
<title>0&#45;&gt;1</title>
<path fill="none" stroke="black" d="M202.78,-422.01C195.64,-409.63 185.62,-392.23 177.42,-378.01"/>
<polygon fill="black" stroke="black" points="180.37,-376.12 172.34,-369.21 174.3,-379.62 180.37,-376.12"/>
<text text-anchor="middle" x="208" y="-391.8" font-family="Times New Roman,serif" font-size="14.00">Union</text>
</g>
<!-- 10 -->
<g id="node11" class="node">
<title>10</title>
<ellipse fill="none" stroke="black" cx="262" cy="-352" rx="27" ry="18"/>
<text text-anchor="start" x="255" y="-349.3" font-family="Times New Roman,serif" font-size="14.00">x</text>
<text text-anchor="start" x="262" y="-349.3" font-family="Times New Roman,serif" baseline-shift="sub" font-size="14.00">0</text>
<g id="a_node11_2"><a xlink:href="C:\Users\Mario\Desktop\ProgettoIntelligentWeb\Progetto\graph\normal\10.txt" xlink:title="Clicca per visualizzare Lx" target="_blank">
<polygon fill="none" stroke="green" points="290.5,-370.5 290.5,-395.5 339.5,-395.5 339.5,-370.5 290.5,-370.5"/>
<text text-anchor="start" x="295.5" y="-379.3" font-family="Times New Roman,serif" font-size="14.00"> Label </text>
</a>
</g>
<polygon fill="none" stroke="green" points="289,-370 289,-397 340,-397 340,-370 289,-370"/>
</g>
<!-- 0&#45;&gt;10 -->
<g id="edge1" class="edge">
<title>0&#45;&gt;10</title>
<path fill="none" stroke="black" d="M221.4,-422.01C228.74,-409.55 239.05,-392.01 247.45,-377.74"/>
<polygon fill="black" stroke="black" points="250.58,-379.31 252.64,-368.92 244.55,-375.76 250.58,-379.31"/>
<text text-anchor="middle" x="257" y="-391.8" font-family="Times New Roman,serif" font-size="14.00">Union</text>
</g>
<!-- 2 -->
<g id="node3" class="node">
<title>2</title>
<ellipse fill="none" stroke="black" cx="85" cy="-265" rx="27" ry="18"/>
<text text-anchor="start" x="78" y="-262.3" font-family="Times New Roman,serif" font-size="14.00">x</text>
<text text-anchor="start" x="85" y="-262.3" font-family="Times New Roman,serif" baseline-shift="sub" font-size="14.00">0</text>
<g id="a_node3_3"><a xlink:href="C:\Users\Mario\Desktop\ProgettoIntelligentWeb\Progetto\graph\normal\2.txt" xlink:title="Clicca per visualizzare Lx" target="_blank">
<polygon fill="none" stroke="green" points="8.5,-283.5 8.5,-308.5 57.5,-308.5 57.5,-283.5 8.5,-283.5"/>
<text text-anchor="start" x="13.5" y="-292.3" font-family="Times New Roman,serif" font-size="14.00"> Label </text>
</a>
</g>
<polygon fill="none" stroke="green" points="7,-283 7,-310 58,-310 58,-283 7,-283"/>
</g>
<!-- 1&#45;&gt;2 -->
<g id="edge4" class="edge">
<title>1&#45;&gt;2</title>
<path fill="none" stroke="black" d="M146.96,-337.21C139.98,-330.96 131.85,-323.35 125,-316 117.27,-307.71 109.34,-298.09 102.61,-289.51"/>
<polygon fill="black" stroke="black" points="105.21,-287.15 96.33,-281.37 99.67,-291.43 105.21,-287.15"/>
<text text-anchor="middle" x="142" y="-304.8" font-family="Times New Roman,serif" font-size="14.00">Union</text>
</g>
<!-- 4 -->
<g id="node5" class="node">
<title>4</title>
<ellipse fill="none" stroke="black" cx="163" cy="-265" rx="27" ry="18"/>
<text text-anchor="start" x="156" y="-262.3" font-family="Times New Roman,serif" font-size="14.00">x</text>
<text text-anchor="start" x="163" y="-262.3" font-family="Times New Roman,serif" baseline-shift="sub" font-size="14.00">0</text>
<g id="a_node5_4"><a xlink:href="C:\Users\Mario\Desktop\ProgettoIntelligentWeb\Progetto\graph\normal\4.txt" xlink:title="Clicca per visualizzare Lx" target="_blank">
<polygon fill="none" stroke="green" points="86.5,-220.5 86.5,-245.5 135.5,-245.5 135.5,-220.5 86.5,-220.5"/>
<text text-anchor="start" x="91.5" y="-229.3" font-family="Times New Roman,serif" font-size="14.00"> Label </text>
</a>
</g>
<polygon fill="none" stroke="green" points="85,-220 85,-247 136,-247 136,-220 85,-220"/>
</g>
<!-- 1&#45;&gt;4 -->
<g id="edge3" class="edge">
<title>1&#45;&gt;4</title>
<path fill="none" stroke="black" d="M163,-333.8C163,-322.16 163,-306.55 163,-293.24"/>
<polygon fill="black" stroke="black" points="166.5,-293.18 163,-283.18 159.5,-293.18 166.5,-293.18"/>
<text text-anchor="middle" x="180" y="-304.8" font-family="Times New Roman,serif" font-size="14.00">Union</text>
</g>
<!-- 3 -->
<g id="node4" class="node">
<title>3</title>
<ellipse fill="none" stroke="black" cx="78" cy="-178" rx="40.09" ry="18"/>
<text text-anchor="start" x="55" y="-174.3" font-family="Times New Roman,serif" font-size="14.00">CLASH</text>
</g>
<!-- 2&#45;&gt;3 -->
<g id="edge5" class="edge">
<title>2&#45;&gt;3</title>
<path fill="none" stroke="red" d="M83.58,-246.8C82.63,-235.16 81.34,-219.55 80.24,-206.24"/>
<polygon fill="red" stroke="red" points="83.72,-205.85 79.41,-196.18 76.75,-206.43 83.72,-205.85"/>
</g>
<!-- 5 -->
<g id="node6" class="node">
<title>5</title>
<ellipse fill="none" stroke="black" cx="163" cy="-178" rx="27" ry="18"/>
<text text-anchor="start" x="153" y="-175.3" font-family="Times New Roman,serif" font-size="14.00">x</text>
<text text-anchor="start" x="160" y="-175.3" font-family="Times New Roman,serif" baseline-shift="sub" font-size="14.00">01</text>
<g id="a_node6_5"><a xlink:href="C:\Users\Mario\Desktop\ProgettoIntelligentWeb\Progetto\graph\normal\5.txt" xlink:title="Clicca per visualizzare Lx" target="_blank">
<polygon fill="none" stroke="green" points="191.5,-196.5 191.5,-221.5 240.5,-221.5 240.5,-196.5 191.5,-196.5"/>
<text text-anchor="start" x="196.5" y="-205.3" font-family="Times New Roman,serif" font-size="14.00"> Label </text>
</a>
</g>
<polygon fill="none" stroke="green" points="190,-196 190,-223 241,-223 241,-196 190,-196"/>
</g>
<!-- 4&#45;&gt;5 -->
<g id="edge6" class="edge">
<title>4&#45;&gt;5</title>
<path fill="none" stroke="black" d="M163,-246.8C163,-235.16 163,-219.55 163,-206.24"/>
<polygon fill="black" stroke="black" points="166.5,-206.18 163,-196.18 159.5,-206.18 166.5,-206.18"/>
<text text-anchor="middle" x="168" y="-217.8" font-family="Times New Roman,serif" font-size="14.00">R</text>
</g>
<!-- 6 -->
<g id="node7" class="node">
<title>6</title>
<ellipse fill="none" stroke="black" cx="78" cy="-91" rx="27" ry="18"/>
<text text-anchor="start" x="68" y="-88.3" font-family="Times New Roman,serif" font-size="14.00">x</text>
<text text-anchor="start" x="75" y="-88.3" font-family="Times New Roman,serif" baseline-shift="sub" font-size="14.00">01</text>
<g id="a_node7_6"><a xlink:href="C:\Users\Mario\Desktop\ProgettoIntelligentWeb\Progetto\graph\normal\6.txt" xlink:title="Clicca per visualizzare Lx" target="_blank">
<polygon fill="none" stroke="green" points="1.5,-109.5 1.5,-134.5 50.5,-134.5 50.5,-109.5 1.5,-109.5"/>
<text text-anchor="start" x="6.5" y="-118.3" font-family="Times New Roman,serif" font-size="14.00"> Label </text>
</a>
</g>
<polygon fill="none" stroke="green" points="0,-109 0,-136 51,-136 51,-109 0,-109"/>
</g>
<!-- 5&#45;&gt;6 -->
<g id="edge8" class="edge">
<title>5&#45;&gt;6</title>
<path fill="none" stroke="black" d="M147.23,-162.94C140.31,-156.65 132.14,-149.07 125,-142 116.05,-133.14 106.49,-123.08 98.33,-114.32"/>
<polygon fill="black" stroke="black" points="100.66,-111.68 91.3,-106.7 95.52,-116.43 100.66,-111.68"/>
<text text-anchor="middle" x="142" y="-130.8" font-family="Times New Roman,serif" font-size="14.00">Union</text>
</g>
<!-- 8 -->
<g id="node9" class="node">
<title>8</title>
<ellipse fill="none" stroke="black" cx="163" cy="-91" rx="27" ry="18"/>
<text text-anchor="start" x="153" y="-88.3" font-family="Times New Roman,serif" font-size="14.00">x</text>
<text text-anchor="start" x="160" y="-88.3" font-family="Times New Roman,serif" baseline-shift="sub" font-size="14.00">01</text>
<g id="a_node9_7"><a xlink:href="C:\Users\Mario\Desktop\ProgettoIntelligentWeb\Progetto\graph\normal\8.txt" xlink:title="Clicca per visualizzare Lx" target="_blank">
<polygon fill="none" stroke="green" points="86.5,-46.5 86.5,-71.5 135.5,-71.5 135.5,-46.5 86.5,-46.5"/>
<text text-anchor="start" x="91.5" y="-55.3" font-family="Times New Roman,serif" font-size="14.00"> Label </text>
</a>
</g>
<polygon fill="none" stroke="green" points="85,-46 85,-73 136,-73 136,-46 85,-46"/>
</g>
<!-- 5&#45;&gt;8 -->
<g id="edge7" class="edge">
<title>5&#45;&gt;8</title>
<path fill="none" stroke="black" d="M163,-159.8C163,-148.16 163,-132.55 163,-119.24"/>
<polygon fill="black" stroke="black" points="166.5,-119.18 163,-109.18 159.5,-119.18 166.5,-119.18"/>
<text text-anchor="middle" x="180" y="-130.8" font-family="Times New Roman,serif" font-size="14.00">Union</text>
</g>
<!-- 7 -->
<g id="node8" class="node">
<title>7</title>
<ellipse fill="none" stroke="black" cx="64" cy="-18" rx="40.09" ry="18"/>
<text text-anchor="start" x="41" y="-14.3" font-family="Times New Roman,serif" font-size="14.00">CLASH</text>
</g>
<!-- 6&#45;&gt;7 -->
<g id="edge9" class="edge">
<title>6&#45;&gt;7</title>
<path fill="none" stroke="red" d="M74.61,-72.81C73.03,-64.79 71.11,-55.05 69.34,-46.07"/>
<polygon fill="red" stroke="red" points="72.73,-45.16 67.36,-36.03 65.86,-46.52 72.73,-45.16"/>
</g>
<!-- 9 -->
<g id="node10" class="node">
<title>9</title>
<ellipse fill="none" stroke="black" cx="163" cy="-18" rx="40.09" ry="18"/>
<text text-anchor="start" x="140" y="-14.3" font-family="Times New Roman,serif" font-size="14.00">CLASH</text>
</g>
<!-- 8&#45;&gt;9 -->
<g id="edge10" class="edge">
<title>8&#45;&gt;9</title>
<path fill="none" stroke="red" d="M163,-72.81C163,-64.79 163,-55.05 163,-46.07"/>
<polygon fill="red" stroke="red" points="166.5,-46.03 163,-36.03 159.5,-46.03 166.5,-46.03"/>
</g>
<!-- 11 -->
<g id="node12" class="node">
<title>11</title>
<ellipse fill="none" stroke="black" cx="262" cy="-265" rx="27" ry="18"/>
<text text-anchor="start" x="255" y="-262.3" font-family="Times New Roman,serif" font-size="14.00">x</text>
<text text-anchor="start" x="262" y="-262.3" font-family="Times New Roman,serif" baseline-shift="sub" font-size="14.00">0</text>
<g id="a_node12_8"><a xlink:href="C:\Users\Mario\Desktop\ProgettoIntelligentWeb\Progetto\graph\normal\11.txt" xlink:title="Clicca per visualizzare Lx" target="_blank">
<polygon fill="none" stroke="green" points="290.5,-220.5 290.5,-245.5 339.5,-245.5 339.5,-220.5 290.5,-220.5"/>
<text text-anchor="start" x="295.5" y="-229.3" font-family="Times New Roman,serif" font-size="14.00"> Label </text>
</a>
</g>
<polygon fill="none" stroke="green" points="289,-220 289,-247 340,-247 340,-220 289,-220"/>
</g>
<!-- 10&#45;&gt;11 -->
<g id="edge12" class="edge">
<title>10&#45;&gt;11</title>
<path fill="none" stroke="black" d="M262,-333.8C262,-322.16 262,-306.55 262,-293.24"/>
<polygon fill="black" stroke="black" points="265.5,-293.18 262,-283.18 258.5,-293.18 265.5,-293.18"/>
<text text-anchor="middle" x="279" y="-304.8" font-family="Times New Roman,serif" font-size="14.00">Union</text>
</g>
<!-- 17 -->
<g id="node18" class="node">
<title>17</title>
<ellipse fill="none" stroke="black" cx="341" cy="-265" rx="27" ry="18"/>
<text text-anchor="start" x="334" y="-262.3" font-family="Times New Roman,serif" font-size="14.00">x</text>
<text text-anchor="start" x="341" y="-262.3" font-family="Times New Roman,serif" baseline-shift="sub" font-size="14.00">0</text>
<g id="a_node18_9"><a xlink:href="C:\Users\Mario\Desktop\ProgettoIntelligentWeb\Progetto\graph\normal\17.txt" xlink:title="Clicca per visualizzare Lx" target="_blank">
<polygon fill="none" stroke="green" points="369.5,-283.5 369.5,-308.5 418.5,-308.5 418.5,-283.5 369.5,-283.5"/>
<text text-anchor="start" x="374.5" y="-292.3" font-family="Times New Roman,serif" font-size="14.00"> Label </text>
</a>
</g>
<polygon fill="none" stroke="green" points="368,-283 368,-310 419,-310 419,-283 368,-283"/>
</g>
<!-- 10&#45;&gt;17 -->
<g id="edge11" class="edge">
<title>10&#45;&gt;17</title>
<path fill="none" stroke="black" d="M278,-337.17C284.97,-330.92 293.1,-323.3 300,-316 307.94,-307.59 316.13,-297.84 323.09,-289.21"/>
<polygon fill="black" stroke="black" points="325.85,-291.35 329.33,-281.34 320.37,-287 325.85,-291.35"/>
<text text-anchor="middle" x="331" y="-304.8" font-family="Times New Roman,serif" font-size="14.00">Union</text>
</g>
<!-- 12 -->
<g id="node13" class="node">
<title>12</title>
<ellipse fill="none" stroke="black" cx="262" cy="-178" rx="27" ry="18"/>
<text text-anchor="start" x="252" y="-175.3" font-family="Times New Roman,serif" font-size="14.00">x</text>
<text text-anchor="start" x="259" y="-175.3" font-family="Times New Roman,serif" baseline-shift="sub" font-size="14.00">01</text>
<g id="a_node13_10"><a xlink:href="C:\Users\Mario\Desktop\ProgettoIntelligentWeb\Progetto\graph\normal\12.txt" xlink:title="Clicca per visualizzare Lx" target="_blank">
<polygon fill="none" stroke="green" points="212.5,-133.5 212.5,-158.5 261.5,-158.5 261.5,-133.5 212.5,-133.5"/>
<text text-anchor="start" x="217.5" y="-142.3" font-family="Times New Roman,serif" font-size="14.00"> Label </text>
</a>
</g>
<polygon fill="none" stroke="green" points="211,-133 211,-160 262,-160 262,-133 211,-133"/>
</g>
<!-- 11&#45;&gt;12 -->
<g id="edge13" class="edge">
<title>11&#45;&gt;12</title>
<path fill="none" stroke="black" d="M262,-246.8C262,-235.16 262,-219.55 262,-206.24"/>
<polygon fill="black" stroke="black" points="265.5,-206.18 262,-196.18 258.5,-206.18 265.5,-206.18"/>
<text text-anchor="middle" x="267" y="-217.8" font-family="Times New Roman,serif" font-size="14.00">R</text>
</g>
<!-- 13 -->
<g id="node14" class="node">
<title>13</title>
<ellipse fill="none" stroke="black" cx="262" cy="-91" rx="27" ry="18"/>
<text text-anchor="start" x="252" y="-88.3" font-family="Times New Roman,serif" font-size="14.00">x</text>
<text text-anchor="start" x="259" y="-88.3" font-family="Times New Roman,serif" baseline-shift="sub" font-size="14.00">01</text>
<g id="a_node14_11"><a xlink:href="C:\Users\Mario\Desktop\ProgettoIntelligentWeb\Progetto\graph\normal\13.txt" xlink:title="Clicca per visualizzare Lx" target="_blank">
<polygon fill="none" stroke="green" points="185.5,-46.5 185.5,-71.5 234.5,-71.5 234.5,-46.5 185.5,-46.5"/>
<text text-anchor="start" x="190.5" y="-55.3" font-family="Times New Roman,serif" font-size="14.00"> Label </text>
</a>
</g>
<polygon fill="none" stroke="green" points="184,-46 184,-73 235,-73 235,-46 184,-46"/>
</g>
<!-- 12&#45;&gt;13 -->
<g id="edge15" class="edge">
<title>12&#45;&gt;13</title>
<path fill="none" stroke="black" d="M262,-159.8C262,-148.16 262,-132.55 262,-119.24"/>
<polygon fill="black" stroke="black" points="265.5,-119.18 262,-109.18 258.5,-119.18 265.5,-119.18"/>
<text text-anchor="middle" x="279" y="-130.8" font-family="Times New Roman,serif" font-size="14.00">Union</text>
</g>
<!-- 15 -->
<g id="node16" class="node">
<title>15</title>
<ellipse fill="none" stroke="black" cx="351" cy="-91" rx="27" ry="18"/>
<text text-anchor="start" x="341" y="-88.3" font-family="Times New Roman,serif" font-size="14.00">x</text>
<text text-anchor="start" x="348" y="-88.3" font-family="Times New Roman,serif" baseline-shift="sub" font-size="14.00">01</text>
<g id="a_node16_12"><a xlink:href="C:\Users\Mario\Desktop\ProgettoIntelligentWeb\Progetto\graph\normal\15.txt" xlink:title="Clicca per visualizzare Lx" target="_blank">
<polygon fill="none" stroke="green" points="274.5,-46.5 274.5,-71.5 323.5,-71.5 323.5,-46.5 274.5,-46.5"/>
<text text-anchor="start" x="279.5" y="-55.3" font-family="Times New Roman,serif" font-size="14.00"> Label </text>
</a>
</g>
<polygon fill="none" stroke="green" points="273,-46 273,-73 324,-73 324,-46 273,-46"/>
</g>
<!-- 12&#45;&gt;15 -->
<g id="edge14" class="edge">
<title>12&#45;&gt;15</title>
<path fill="none" stroke="black" d="M277.26,-163.14C284.24,-156.75 292.59,-149.04 300,-142 309.69,-132.79 320.26,-122.47 329.26,-113.61"/>
<polygon fill="black" stroke="black" points="331.74,-116.08 336.39,-106.56 326.82,-111.1 331.74,-116.08"/>
<text text-anchor="middle" x="333" y="-130.8" font-family="Times New Roman,serif" font-size="14.00">Union</text>
</g>
<!-- 14 -->
<g id="node15" class="node">
<title>14</title>
<ellipse fill="none" stroke="black" cx="262" cy="-18" rx="40.09" ry="18"/>
<text text-anchor="start" x="239" y="-14.3" font-family="Times New Roman,serif" font-size="14.00">CLASH</text>
</g>
<!-- 13&#45;&gt;14 -->
<g id="edge16" class="edge">
<title>13&#45;&gt;14</title>
<path fill="none" stroke="red" d="M262,-72.81C262,-64.79 262,-55.05 262,-46.07"/>
<polygon fill="red" stroke="red" points="265.5,-46.03 262,-36.03 258.5,-46.03 265.5,-46.03"/>
</g>
<!-- 16 -->
<g id="node17" class="node">
<title>16</title>
<ellipse fill="none" stroke="black" cx="361" cy="-18" rx="40.09" ry="18"/>
<text text-anchor="start" x="338" y="-14.3" font-family="Times New Roman,serif" font-size="14.00">CLASH</text>
</g>
<!-- 15&#45;&gt;16 -->
<g id="edge17" class="edge">
<title>15&#45;&gt;16</title>
<path fill="none" stroke="red" d="M353.42,-72.81C354.55,-64.79 355.92,-55.05 357.19,-46.07"/>
<polygon fill="red" stroke="red" points="360.67,-46.42 358.6,-36.03 353.74,-45.44 360.67,-46.42"/>
</g>
<!-- 18 -->
<g id="node19" class="node">
<title>18</title>
<ellipse fill="none" stroke="black" cx="347" cy="-178" rx="40.09" ry="18"/>
<text text-anchor="start" x="324" y="-174.3" font-family="Times New Roman,serif" font-size="14.00">CLASH</text>
</g>
<!-- 17&#45;&gt;18 -->
<g id="edge18" class="edge">
<title>17&#45;&gt;18</title>
<path fill="none" stroke="red" d="M342.21,-246.8C343.04,-235.16 344.14,-219.55 345.08,-206.24"/>
<polygon fill="red" stroke="red" points="348.57,-206.4 345.79,-196.18 341.59,-205.9 348.57,-206.4"/>
</g>
</g>
</svg>
