<svg width="360px" height="855px"
 viewBox="0.00 0.00 359.51 855.40" xmlns="http://www.w3.org/2000/svg" xmlns:xlink="http://www.w3.org/1999/xlink">
<g id="graph0" class="graph" transform="scale(1.0 1.0) rotate(0.0) translate(4.0 851.4)">
<title>tableaux</title>
<polygon fill="white" stroke="transparent" points="-4,4 -4,-851.4 355.51,-851.4 355.51,4 -4,4"/>
<!-- 0 -->
<g id="node1" class="node">
<title>0</title>
<ellipse fill="none" stroke="black" cx="113" cy="-801.4" rx="27" ry="18"/>
<text text-anchor="start" x="106" y="-798.2" font-family="Times,serif" font-size="14.00">x</text>
<text text-anchor="start" x="113" y="-798.2" font-family="Times,serif" baseline-shift="sub" font-size="14.00">0</text>
<g id="a_node1_0"><a xlink:href="C:\Users\checc\Desktop\ProgettoIntelligentWeb\Progetto\graph\normal\0.txt" xlink:title="Nodo 0: (¬Human ⊔ ¬Orc ), (Creature ⊔ &#160;∀ useInCombat.owl:Nothing ), (owl:Nothing ⊔ &#160;∀ useInCombat.Weapon ), ((Creature ⊔ ¬Elf )⊓ (Creature ⊔ ¬Human )⊓ (Creature ⊔ ¬Orc )⊓ (Creature ⊔ &#160;∀ useInCombat.owl:Nothing )⊓ (Weapon ⊔ ¬Magic )⊓ (Weapon ⊔ ¬Sword )⊓ (owl:Nothing ⊔ &#160;∀ useInCombat.Weapon )⊓ (¬Creature ⊔ ¬Weapon )⊓ (¬Elf ⊔ ¬Orc )⊓ (¬Human ⊔ ¬Orc )⊓ (¬Human ⊔ &#160;∀ useInCombat.Sword )⊓ (¬Magic ⊔ ¬Sword )⊓ (¬Orc ⊔ &#160;∀ useInCombat.Sword )), (Creature ⊔ ¬Elf ), (Creature ⊔ ¬Human ), (¬Human ⊔ &#160;∀ useInCombat.Sword ), (¬Creature ⊔ ¬Weapon ), Orc , (Weapon ⊔ ¬Magic ), (¬Orc ⊔ &#160;∀ useInCombat.Sword ), (Creature ⊔ ¬Orc ), (¬Magic ⊔ ¬Sword ), (Weapon ⊔ ¬Sword ), (¬Elf ⊔ ¬Orc )" target="_blank">
<polygon fill="none" stroke="green" points="37,-820.4 37,-846.4 85,-846.4 85,-820.4 37,-820.4"/>
<text text-anchor="start" x="41.56" y="-828.8" font-family="Times,serif" font-size="14.00"> Label </text>
</a>
</g>
<polygon fill="none" stroke="green" points="36,-819.4 36,-847.4 86,-847.4 86,-819.4 36,-819.4"/>
</g>
<!-- 1 -->
<g id="node2" class="node">
<title>1</title>
<ellipse fill="none" stroke="black" cx="113" cy="-712.6" rx="27" ry="18"/>
<text text-anchor="start" x="106" y="-709.4" font-family="Times,serif" font-size="14.00">x</text>
<text text-anchor="start" x="113" y="-709.4" font-family="Times,serif" baseline-shift="sub" font-size="14.00">0</text>
<g id="a_node2_1"><a xlink:href="C:\Users\checc\Desktop\ProgettoIntelligentWeb\Progetto\graph\normal\1.txt" xlink:title="Nodo 1: (¬Human ⊔ ¬Orc ), (Creature ⊔ &#160;∀ useInCombat.owl:Nothing ), (owl:Nothing ⊔ &#160;∀ useInCombat.Weapon ), ((Creature ⊔ ¬Elf )⊓ (Creature ⊔ ¬Human )⊓ (Creature ⊔ ¬Orc )⊓ (Creature ⊔ &#160;∀ useInCombat.owl:Nothing )⊓ (Weapon ⊔ ¬Magic )⊓ (Weapon ⊔ ¬Sword )⊓ (owl:Nothing ⊔ &#160;∀ useInCombat.Weapon )⊓ (¬Creature ⊔ ¬Weapon )⊓ (¬Elf ⊔ ¬Orc )⊓ (¬Human ⊔ ¬Orc )⊓ (¬Human ⊔ &#160;∀ useInCombat.Sword )⊓ (¬Magic ⊔ ¬Sword )⊓ (¬Orc ⊔ &#160;∀ useInCombat.Sword )), (Creature ⊔ ¬Elf ), (Creature ⊔ ¬Human ), (¬Human ⊔ &#160;∀ useInCombat.Sword ), (¬Creature ⊔ ¬Weapon ), Orc , (Weapon ⊔ ¬Magic ), (¬Orc ⊔ &#160;∀ useInCombat.Sword ), (Creature ⊔ ¬Orc ), (¬Magic ⊔ ¬Sword ), ¬Human , (Weapon ⊔ ¬Sword ), (¬Elf ⊔ ¬Orc )" target="_blank">
<polygon fill="none" stroke="green" points="37,-731.6 37,-757.6 85,-757.6 85,-731.6 37,-731.6"/>
<text text-anchor="start" x="41.56" y="-740" font-family="Times,serif" font-size="14.00"> Label </text>
</a>
</g>
<polygon fill="none" stroke="green" points="36,-730.6 36,-758.6 86,-758.6 86,-730.6 36,-730.6"/>
</g>
<!-- 0&#45;&gt;1 -->
<g id="edge1" class="edge">
<title>0&#45;&gt;1</title>
<path fill="none" stroke="black" d="M113,-783.25C113,-771.12 113,-754.62 113,-740.72"/>
<polygon fill="black" stroke="black" points="116.5,-740.71 113,-730.71 109.5,-740.71 116.5,-740.71"/>
<text text-anchor="middle" x="118.25" y="-752.8" font-family="Times,serif" font-size="14.00">⊔</text>
</g>
<!-- 2 -->
<g id="node3" class="node">
<title>2</title>
<ellipse fill="none" stroke="black" cx="113" cy="-623.8" rx="27" ry="18"/>
<text text-anchor="start" x="106" y="-620.6" font-family="Times,serif" font-size="14.00">x</text>
<text text-anchor="start" x="113" y="-620.6" font-family="Times,serif" baseline-shift="sub" font-size="14.00">0</text>
<g id="a_node3_2"><a xlink:href="C:\Users\checc\Desktop\ProgettoIntelligentWeb\Progetto\graph\normal\2.txt" xlink:title="Nodo 2: (¬Human ⊔ ¬Orc ), (Creature ⊔ &#160;∀ useInCombat.owl:Nothing ), (owl:Nothing ⊔ &#160;∀ useInCombat.Weapon ), ((Creature ⊔ ¬Elf )⊓ (Creature ⊔ ¬Human )⊓ (Creature ⊔ ¬Orc )⊓ (Creature ⊔ &#160;∀ useInCombat.owl:Nothing )⊓ (Weapon ⊔ ¬Magic )⊓ (Weapon ⊔ ¬Sword )⊓ (owl:Nothing ⊔ &#160;∀ useInCombat.Weapon )⊓ (¬Creature ⊔ ¬Weapon )⊓ (¬Elf ⊔ ¬Orc )⊓ (¬Human ⊔ ¬Orc )⊓ (¬Human ⊔ &#160;∀ useInCombat.Sword )⊓ (¬Magic ⊔ ¬Sword )⊓ (¬Orc ⊔ &#160;∀ useInCombat.Sword )), (Creature ⊔ ¬Elf ), (Creature ⊔ ¬Human ), Creature , (¬Human ⊔ &#160;∀ useInCombat.Sword ), (¬Creature ⊔ ¬Weapon ), Orc , (Weapon ⊔ ¬Magic ), (¬Orc ⊔ &#160;∀ useInCombat.Sword ), (Creature ⊔ ¬Orc ), (¬Magic ⊔ ¬Sword ), ¬Human , (Weapon ⊔ ¬Sword ), (¬Elf ⊔ ¬Orc )" target="_blank">
<polygon fill="none" stroke="green" points="37,-642.8 37,-668.8 85,-668.8 85,-642.8 37,-642.8"/>
<text text-anchor="start" x="41.56" y="-651.2" font-family="Times,serif" font-size="14.00"> Label </text>
</a>
</g>
<polygon fill="none" stroke="green" points="36,-641.8 36,-669.8 86,-669.8 86,-641.8 36,-641.8"/>
</g>
<!-- 1&#45;&gt;2 -->
<g id="edge2" class="edge">
<title>1&#45;&gt;2</title>
<path fill="none" stroke="black" d="M113,-694.45C113,-682.32 113,-665.82 113,-651.92"/>
<polygon fill="black" stroke="black" points="116.5,-651.91 113,-641.91 109.5,-651.91 116.5,-651.91"/>
<text text-anchor="middle" x="118.25" y="-664" font-family="Times,serif" font-size="14.00">⊔</text>
</g>
<!-- 3 -->
<g id="node4" class="node">
<title>3</title>
<ellipse fill="none" stroke="black" cx="113" cy="-535" rx="27" ry="18"/>
<text text-anchor="start" x="106" y="-531.8" font-family="Times,serif" font-size="14.00">x</text>
<text text-anchor="start" x="113" y="-531.8" font-family="Times,serif" baseline-shift="sub" font-size="14.00">0</text>
<g id="a_node4_3"><a xlink:href="C:\Users\checc\Desktop\ProgettoIntelligentWeb\Progetto\graph\normal\3.txt" xlink:title="Nodo 3: (¬Human ⊔ ¬Orc ), (Creature ⊔ &#160;∀ useInCombat.owl:Nothing ), (owl:Nothing ⊔ &#160;∀ useInCombat.Weapon ), ((Creature ⊔ ¬Elf )⊓ (Creature ⊔ ¬Human )⊓ (Creature ⊔ ¬Orc )⊓ (Creature ⊔ &#160;∀ useInCombat.owl:Nothing )⊓ (Weapon ⊔ ¬Magic )⊓ (Weapon ⊔ ¬Sword )⊓ (owl:Nothing ⊔ &#160;∀ useInCombat.Weapon )⊓ (¬Creature ⊔ ¬Weapon )⊓ (¬Elf ⊔ ¬Orc )⊓ (¬Human ⊔ ¬Orc )⊓ (¬Human ⊔ &#160;∀ useInCombat.Sword )⊓ (¬Magic ⊔ ¬Sword )⊓ (¬Orc ⊔ &#160;∀ useInCombat.Sword )), (Creature ⊔ ¬Elf ), (Creature ⊔ ¬Human ), Creature , (¬Human ⊔ &#160;∀ useInCombat.Sword ), &#160;∀ useInCombat.Weapon , (¬Creature ⊔ ¬Weapon ), Orc , (Weapon ⊔ ¬Magic ), (¬Orc ⊔ &#160;∀ useInCombat.Sword ), (Creature ⊔ ¬Orc ), (¬Magic ⊔ ¬Sword ), ¬Human , (Weapon ⊔ ¬Sword ), (¬Elf ⊔ ¬Orc )" target="_blank">
<polygon fill="none" stroke="green" points="37,-554 37,-580 85,-580 85,-554 37,-554"/>
<text text-anchor="start" x="41.56" y="-562.4" font-family="Times,serif" font-size="14.00"> Label </text>
</a>
</g>
<polygon fill="none" stroke="green" points="36,-553 36,-581 86,-581 86,-553 36,-553"/>
</g>
<!-- 2&#45;&gt;3 -->
<g id="edge3" class="edge">
<title>2&#45;&gt;3</title>
<path fill="none" stroke="black" d="M113,-605.65C113,-593.52 113,-577.02 113,-563.12"/>
<polygon fill="black" stroke="black" points="116.5,-563.11 113,-553.11 109.5,-563.11 116.5,-563.11"/>
<text text-anchor="middle" x="118.25" y="-575.2" font-family="Times,serif" font-size="14.00">⊔</text>
</g>
<!-- 4 -->
<g id="node5" class="node">
<title>4</title>
<ellipse fill="none" stroke="black" cx="77" cy="-446.2" rx="27" ry="18"/>
<text text-anchor="start" x="70" y="-443" font-family="Times,serif" font-size="14.00">x</text>
<text text-anchor="start" x="77" y="-443" font-family="Times,serif" baseline-shift="sub" font-size="14.00">0</text>
<g id="a_node5_4"><a xlink:href="C:\Users\checc\Desktop\ProgettoIntelligentWeb\Progetto\graph\normal\4.txt" xlink:title="Nodo 4: ¬Creature , (¬Human ⊔ ¬Orc ), (Creature ⊔ &#160;∀ useInCombat.owl:Nothing ), (owl:Nothing ⊔ &#160;∀ useInCombat.Weapon ), ((Creature ⊔ ¬Elf )⊓ (Creature ⊔ ¬Human )⊓ (Creature ⊔ ¬Orc )⊓ (Creature ⊔ &#160;∀ useInCombat.owl:Nothing )⊓ (Weapon ⊔ ¬Magic )⊓ (Weapon ⊔ ¬Sword )⊓ (owl:Nothing ⊔ &#160;∀ useInCombat.Weapon )⊓ (¬Creature ⊔ ¬Weapon )⊓ (¬Elf ⊔ ¬Orc )⊓ (¬Human ⊔ ¬Orc )⊓ (¬Human ⊔ &#160;∀ useInCombat.Sword )⊓ (¬Magic ⊔ ¬Sword )⊓ (¬Orc ⊔ &#160;∀ useInCombat.Sword )), (Creature ⊔ ¬Elf ), (Creature ⊔ ¬Human ), Creature , (¬Human ⊔ &#160;∀ useInCombat.Sword ), &#160;∀ useInCombat.Weapon , (¬Creature ⊔ ¬Weapon ), Orc , (Weapon ⊔ ¬Magic ), (¬Orc ⊔ &#160;∀ useInCombat.Sword ), (Creature ⊔ ¬Orc ), (¬Magic ⊔ ¬Sword ), ¬Human , (Weapon ⊔ ¬Sword ), (¬Elf ⊔ ¬Orc )" target="_blank">
<polygon fill="none" stroke="green" points="1,-465.2 1,-491.2 49,-491.2 49,-465.2 1,-465.2"/>
<text text-anchor="start" x="5.56" y="-473.6" font-family="Times,serif" font-size="14.00"> Label </text>
</a>
</g>
<polygon fill="none" stroke="green" points="0,-464.2 0,-492.2 50,-492.2 50,-464.2 0,-464.2"/>
</g>
<!-- 3&#45;&gt;4 -->
<g id="edge5" class="edge">
<title>3&#45;&gt;4</title>
<path fill="none" stroke="black" d="M106.06,-517.26C100.88,-504.78 93.71,-487.48 87.78,-473.2"/>
<polygon fill="black" stroke="black" points="90.98,-471.78 83.92,-463.88 84.52,-474.46 90.98,-471.78"/>
<text text-anchor="middle" x="104.25" y="-486.4" font-family="Times,serif" font-size="14.00">⊔</text>
</g>
<!-- 6 -->
<g id="node7" class="node">
<title>6</title>
<ellipse fill="none" stroke="black" cx="157" cy="-446.2" rx="27" ry="18"/>
<text text-anchor="start" x="150" y="-443" font-family="Times,serif" font-size="14.00">x</text>
<text text-anchor="start" x="157" y="-443" font-family="Times,serif" baseline-shift="sub" font-size="14.00">0</text>
<g id="a_node7_5"><a xlink:href="C:\Users\checc\Desktop\ProgettoIntelligentWeb\Progetto\graph\normal\6.txt" xlink:title="Nodo 6: (¬Human ⊔ ¬Orc ), (Creature ⊔ &#160;∀ useInCombat.owl:Nothing ), (owl:Nothing ⊔ &#160;∀ useInCombat.Weapon ), ((Creature ⊔ ¬Elf )⊓ (Creature ⊔ ¬Human )⊓ (Creature ⊔ ¬Orc )⊓ (Creature ⊔ &#160;∀ useInCombat.owl:Nothing )⊓ (Weapon ⊔ ¬Magic )⊓ (Weapon ⊔ ¬Sword )⊓ (owl:Nothing ⊔ &#160;∀ useInCombat.Weapon )⊓ (¬Creature ⊔ ¬Weapon )⊓ (¬Elf ⊔ ¬Orc )⊓ (¬Human ⊔ ¬Orc )⊓ (¬Human ⊔ &#160;∀ useInCombat.Sword )⊓ (¬Magic ⊔ ¬Sword )⊓ (¬Orc ⊔ &#160;∀ useInCombat.Sword )), (Creature ⊔ ¬Elf ), (Creature ⊔ ¬Human ), Creature , ¬Weapon , (¬Human ⊔ &#160;∀ useInCombat.Sword ), &#160;∀ useInCombat.Weapon , (¬Creature ⊔ ¬Weapon ), Orc , (Weapon ⊔ ¬Magic ), (¬Orc ⊔ &#160;∀ useInCombat.Sword ), (Creature ⊔ ¬Orc ), (¬Magic ⊔ ¬Sword ), ¬Human , (Weapon ⊔ ¬Sword ), (¬Elf ⊔ ¬Orc )" target="_blank">
<polygon fill="none" stroke="green" points="81,-401.2 81,-427.2 129,-427.2 129,-401.2 81,-401.2"/>
<text text-anchor="start" x="85.56" y="-409.6" font-family="Times,serif" font-size="14.00"> Label </text>
</a>
</g>
<polygon fill="none" stroke="green" points="80,-400.2 80,-428.2 130,-428.2 130,-400.2 80,-400.2"/>
</g>
<!-- 3&#45;&gt;6 -->
<g id="edge4" class="edge">
<title>3&#45;&gt;6</title>
<path fill="none" stroke="black" d="M121.28,-517.67C127.73,-504.94 136.8,-487.04 144.19,-472.46"/>
<polygon fill="black" stroke="black" points="147.36,-473.96 148.76,-463.45 141.12,-470.79 147.36,-473.96"/>
<text text-anchor="middle" x="144.25" y="-486.4" font-family="Times,serif" font-size="14.00">⊔</text>
</g>
<!-- 5 -->
<g id="node6" class="node">
<title>5</title>
<ellipse fill="none" stroke="black" cx="69" cy="-357.4" rx="42.88" ry="18"/>
<text text-anchor="start" x="46.06" y="-353.2" font-family="Times,serif" font-size="14.00">CLASH</text>
</g>
<!-- 4&#45;&gt;5 -->
<g id="edge6" class="edge">
<title>4&#45;&gt;5</title>
<path fill="none" stroke="red" d="M75.42,-428.05C74.3,-415.92 72.78,-399.42 71.5,-385.52"/>
<polygon fill="red" stroke="red" points="74.98,-385.15 70.58,-375.51 68.01,-385.79 74.98,-385.15"/>
</g>
<!-- 7 -->
<g id="node8" class="node">
<title>7</title>
<ellipse fill="none" stroke="black" cx="157" cy="-357.4" rx="27" ry="18"/>
<text text-anchor="start" x="150" y="-354.2" font-family="Times,serif" font-size="14.00">x</text>
<text text-anchor="start" x="157" y="-354.2" font-family="Times,serif" baseline-shift="sub" font-size="14.00">0</text>
<g id="a_node8_6"><a xlink:href="C:\Users\checc\Desktop\ProgettoIntelligentWeb\Progetto\graph\normal\7.txt" xlink:title="Nodo 7: (¬Human ⊔ ¬Orc ), (Creature ⊔ &#160;∀ useInCombat.owl:Nothing ), (owl:Nothing ⊔ &#160;∀ useInCombat.Weapon ), ((Creature ⊔ ¬Elf )⊓ (Creature ⊔ ¬Human )⊓ (Creature ⊔ ¬Orc )⊓ (Creature ⊔ &#160;∀ useInCombat.owl:Nothing )⊓ (Weapon ⊔ ¬Magic )⊓ (Weapon ⊔ ¬Sword )⊓ (owl:Nothing ⊔ &#160;∀ useInCombat.Weapon )⊓ (¬Creature ⊔ ¬Weapon )⊓ (¬Elf ⊔ ¬Orc )⊓ (¬Human ⊔ ¬Orc )⊓ (¬Human ⊔ &#160;∀ useInCombat.Sword )⊓ (¬Magic ⊔ ¬Sword )⊓ (¬Orc ⊔ &#160;∀ useInCombat.Sword )), (Creature ⊔ ¬Elf ), (Creature ⊔ ¬Human ), Creature , ¬Weapon , (¬Human ⊔ &#160;∀ useInCombat.Sword ), &#160;∀ useInCombat.Weapon , (¬Creature ⊔ ¬Weapon ), Orc , (Weapon ⊔ ¬Magic ), Weapon , (¬Orc ⊔ &#160;∀ useInCombat.Sword ), (Creature ⊔ ¬Orc ), (¬Magic ⊔ ¬Sword ), ¬Human , (Weapon ⊔ ¬Sword ), (¬Elf ⊔ ¬Orc )" target="_blank">
<polygon fill="none" stroke="green" points="81,-312.4 81,-338.4 129,-338.4 129,-312.4 81,-312.4"/>
<text text-anchor="start" x="85.56" y="-320.8" font-family="Times,serif" font-size="14.00"> Label </text>
</a>
</g>
<polygon fill="none" stroke="green" points="80,-311.4 80,-339.4 130,-339.4 130,-311.4 80,-311.4"/>
</g>
<!-- 6&#45;&gt;7 -->
<g id="edge8" class="edge">
<title>6&#45;&gt;7</title>
<path fill="none" stroke="black" d="M157,-428.05C157,-415.92 157,-399.42 157,-385.52"/>
<polygon fill="black" stroke="black" points="160.5,-385.51 157,-375.51 153.5,-385.51 160.5,-385.51"/>
<text text-anchor="middle" x="162.25" y="-397.6" font-family="Times,serif" font-size="14.00">⊔</text>
</g>
<!-- 9 -->
<g id="node10" class="node">
<title>9</title>
<ellipse fill="none" stroke="black" cx="237" cy="-357.4" rx="27" ry="18"/>
<text text-anchor="start" x="230" y="-354.2" font-family="Times,serif" font-size="14.00">x</text>
<text text-anchor="start" x="237" y="-354.2" font-family="Times,serif" baseline-shift="sub" font-size="14.00">0</text>
<g id="a_node10_7"><a xlink:href="C:\Users\checc\Desktop\ProgettoIntelligentWeb\Progetto\graph\normal\9.txt" xlink:title="Nodo 9: ¬Magic , (¬Human ⊔ ¬Orc ), (Creature ⊔ &#160;∀ useInCombat.owl:Nothing ), (owl:Nothing ⊔ &#160;∀ useInCombat.Weapon ), ((Creature ⊔ ¬Elf )⊓ (Creature ⊔ ¬Human )⊓ (Creature ⊔ ¬Orc )⊓ (Creature ⊔ &#160;∀ useInCombat.owl:Nothing )⊓ (Weapon ⊔ ¬Magic )⊓ (Weapon ⊔ ¬Sword )⊓ (owl:Nothing ⊔ &#160;∀ useInCombat.Weapon )⊓ (¬Creature ⊔ ¬Weapon )⊓ (¬Elf ⊔ ¬Orc )⊓ (¬Human ⊔ ¬Orc )⊓ (¬Human ⊔ &#160;∀ useInCombat.Sword )⊓ (¬Magic ⊔ ¬Sword )⊓ (¬Orc ⊔ &#160;∀ useInCombat.Sword )), (Creature ⊔ ¬Elf ), (Creature ⊔ ¬Human ), Creature , ¬Weapon , (¬Human ⊔ &#160;∀ useInCombat.Sword ), &#160;∀ useInCombat.Weapon , (¬Creature ⊔ ¬Weapon ), Orc , (Weapon ⊔ ¬Magic ), (¬Orc ⊔ &#160;∀ useInCombat.Sword ), (Creature ⊔ ¬Orc ), (¬Magic ⊔ ¬Sword ), ¬Human , (Weapon ⊔ ¬Sword ), (¬Elf ⊔ ¬Orc )" target="_blank">
<polygon fill="none" stroke="green" points="161,-312.4 161,-338.4 209,-338.4 209,-312.4 161,-312.4"/>
<text text-anchor="start" x="165.56" y="-320.8" font-family="Times,serif" font-size="14.00"> Label </text>
</a>
</g>
<polygon fill="none" stroke="green" points="160,-311.4 160,-339.4 210,-339.4 210,-311.4 160,-311.4"/>
</g>
<!-- 6&#45;&gt;9 -->
<g id="edge7" class="edge">
<title>6&#45;&gt;9</title>
<path fill="none" stroke="black" d="M170.57,-430.48C183.1,-416.88 201.89,-396.5 216.29,-380.87"/>
<polygon fill="black" stroke="black" points="219.16,-382.92 223.36,-373.2 214.01,-378.18 219.16,-382.92"/>
<text text-anchor="middle" x="210.25" y="-397.6" font-family="Times,serif" font-size="14.00">⊔</text>
</g>
<!-- 8 -->
<g id="node9" class="node">
<title>8</title>
<ellipse fill="none" stroke="black" cx="155" cy="-268.6" rx="42.88" ry="18"/>
<text text-anchor="start" x="132.06" y="-264.4" font-family="Times,serif" font-size="14.00">CLASH</text>
</g>
<!-- 7&#45;&gt;8 -->
<g id="edge9" class="edge">
<title>7&#45;&gt;8</title>
<path fill="none" stroke="red" d="M156.6,-339.25C156.33,-327.12 155.95,-310.62 155.62,-296.72"/>
<polygon fill="red" stroke="red" points="159.12,-296.63 155.39,-286.71 152.13,-296.79 159.12,-296.63"/>
</g>
<!-- 10 -->
<g id="node11" class="node">
<title>10</title>
<ellipse fill="none" stroke="black" cx="243" cy="-268.6" rx="27" ry="18"/>
<text text-anchor="start" x="236" y="-265.4" font-family="Times,serif" font-size="14.00">x</text>
<text text-anchor="start" x="243" y="-265.4" font-family="Times,serif" baseline-shift="sub" font-size="14.00">0</text>
<g id="a_node11_8"><a xlink:href="C:\Users\checc\Desktop\ProgettoIntelligentWeb\Progetto\graph\normal\10.txt" xlink:title="Nodo 10: ¬Magic , (¬Human ⊔ ¬Orc ), &#160;∀ useInCombat.Sword , (Creature ⊔ &#160;∀ useInCombat.owl:Nothing ), (owl:Nothing ⊔ &#160;∀ useInCombat.Weapon ), ((Creature ⊔ ¬Elf )⊓ (Creature ⊔ ¬Human )⊓ (Creature ⊔ ¬Orc )⊓ (Creature ⊔ &#160;∀ useInCombat.owl:Nothing )⊓ (Weapon ⊔ ¬Magic )⊓ (Weapon ⊔ ¬Sword )⊓ (owl:Nothing ⊔ &#160;∀ useInCombat.Weapon )⊓ (¬Creature ⊔ ¬Weapon )⊓ (¬Elf ⊔ ¬Orc )⊓ (¬Human ⊔ ¬Orc )⊓ (¬Human ⊔ &#160;∀ useInCombat.Sword )⊓ (¬Magic ⊔ ¬Sword )⊓ (¬Orc ⊔ &#160;∀ useInCombat.Sword )), (Creature ⊔ ¬Elf ), (Creature ⊔ ¬Human ), Creature , ¬Weapon , (¬Human ⊔ &#160;∀ useInCombat.Sword ), &#160;∀ useInCombat.Weapon , (¬Creature ⊔ ¬Weapon ), Orc , (Weapon ⊔ ¬Magic ), (¬Orc ⊔ &#160;∀ useInCombat.Sword ), (Creature ⊔ ¬Orc ), (¬Magic ⊔ ¬Sword ), ¬Human , (Weapon ⊔ ¬Sword ), (¬Elf ⊔ ¬Orc )" target="_blank">
<polygon fill="none" stroke="green" points="167,-223.6 167,-249.6 215,-249.6 215,-223.6 167,-223.6"/>
<text text-anchor="start" x="171.56" y="-232" font-family="Times,serif" font-size="14.00"> Label </text>
</a>
</g>
<polygon fill="none" stroke="green" points="166,-222.6 166,-250.6 216,-250.6 216,-222.6 166,-222.6"/>
</g>
<!-- 9&#45;&gt;10 -->
<g id="edge10" class="edge">
<title>9&#45;&gt;10</title>
<path fill="none" stroke="black" d="M238.19,-339.25C239.02,-327.12 240.16,-310.62 241.13,-296.72"/>
<polygon fill="black" stroke="black" points="244.62,-296.93 241.82,-286.71 237.64,-296.45 244.62,-296.93"/>
<text text-anchor="middle" x="245.25" y="-308.8" font-family="Times,serif" font-size="14.00">⊔</text>
</g>
<!-- 11 -->
<g id="node12" class="node">
<title>11</title>
<ellipse fill="none" stroke="black" cx="202" cy="-179.8" rx="27" ry="18"/>
<text text-anchor="start" x="195" y="-176.6" font-family="Times,serif" font-size="14.00">x</text>
<text text-anchor="start" x="202" y="-176.6" font-family="Times,serif" baseline-shift="sub" font-size="14.00">0</text>
<g id="a_node12_9"><a xlink:href="C:\Users\checc\Desktop\ProgettoIntelligentWeb\Progetto\graph\normal\11.txt" xlink:title="Nodo 11: ¬Magic , (¬Human ⊔ ¬Orc ), &#160;∀ useInCombat.Sword , (Creature ⊔ &#160;∀ useInCombat.owl:Nothing ), (owl:Nothing ⊔ &#160;∀ useInCombat.Weapon ), ((Creature ⊔ ¬Elf )⊓ (Creature ⊔ ¬Human )⊓ (Creature ⊔ ¬Orc )⊓ (Creature ⊔ &#160;∀ useInCombat.owl:Nothing )⊓ (Weapon ⊔ ¬Magic )⊓ (Weapon ⊔ ¬Sword )⊓ (owl:Nothing ⊔ &#160;∀ useInCombat.Weapon )⊓ (¬Creature ⊔ ¬Weapon )⊓ (¬Elf ⊔ ¬Orc )⊓ (¬Human ⊔ ¬Orc )⊓ (¬Human ⊔ &#160;∀ useInCombat.Sword )⊓ (¬Magic ⊔ ¬Sword )⊓ (¬Orc ⊔ &#160;∀ useInCombat.Sword )), (Creature ⊔ ¬Elf ), (Creature ⊔ ¬Human ), Creature , ¬Weapon , (¬Human ⊔ &#160;∀ useInCombat.Sword ), &#160;∀ useInCombat.Weapon , (¬Creature ⊔ ¬Weapon ), Orc , (Weapon ⊔ ¬Magic ), Weapon , (¬Orc ⊔ &#160;∀ useInCombat.Sword ), (Creature ⊔ ¬Orc ), (¬Magic ⊔ ¬Sword ), ¬Human , (Weapon ⊔ ¬Sword ), (¬Elf ⊔ ¬Orc )" target="_blank">
<polygon fill="none" stroke="green" points="126,-162.8 126,-188.8 174,-188.8 174,-162.8 126,-162.8"/>
<text text-anchor="start" x="130.56" y="-171.2" font-family="Times,serif" font-size="14.00"> Label </text>
</a>
</g>
<polygon fill="none" stroke="green" points="125,-161.8 125,-189.8 175,-189.8 175,-161.8 125,-161.8"/>
</g>
<!-- 10&#45;&gt;11 -->
<g id="edge12" class="edge">
<title>10&#45;&gt;11</title>
<path fill="none" stroke="black" d="M235.29,-251.27C229.37,-238.74 221.08,-221.2 214.26,-206.76"/>
<polygon fill="black" stroke="black" points="217.25,-204.9 209.82,-197.35 210.92,-207.89 217.25,-204.9"/>
<text text-anchor="middle" x="231.25" y="-220" font-family="Times,serif" font-size="14.00">⊔</text>
</g>
<!-- 13 -->
<g id="node14" class="node">
<title>13</title>
<ellipse fill="none" stroke="black" cx="278" cy="-179.8" rx="27" ry="18"/>
<text text-anchor="start" x="271" y="-176.6" font-family="Times,serif" font-size="14.00">x</text>
<text text-anchor="start" x="278" y="-176.6" font-family="Times,serif" baseline-shift="sub" font-size="14.00">0</text>
<g id="a_node14_10"><a xlink:href="C:\Users\checc\Desktop\ProgettoIntelligentWeb\Progetto\graph\normal\13.txt" xlink:title="Nodo 13: ¬Magic , (¬Human ⊔ ¬Orc ), &#160;∀ useInCombat.Sword , (Creature ⊔ &#160;∀ useInCombat.owl:Nothing ), (owl:Nothing ⊔ &#160;∀ useInCombat.Weapon ), ((Creature ⊔ ¬Elf )⊓ (Creature ⊔ ¬Human )⊓ (Creature ⊔ ¬Orc )⊓ (Creature ⊔ &#160;∀ useInCombat.owl:Nothing )⊓ (Weapon ⊔ ¬Magic )⊓ (Weapon ⊔ ¬Sword )⊓ (owl:Nothing ⊔ &#160;∀ useInCombat.Weapon )⊓ (¬Creature ⊔ ¬Weapon )⊓ (¬Elf ⊔ ¬Orc )⊓ (¬Human ⊔ ¬Orc )⊓ (¬Human ⊔ &#160;∀ useInCombat.Sword )⊓ (¬Magic ⊔ ¬Sword )⊓ (¬Orc ⊔ &#160;∀ useInCombat.Sword )), (Creature ⊔ ¬Elf ), (Creature ⊔ ¬Human ), Creature , ¬Weapon , (¬Human ⊔ &#160;∀ useInCombat.Sword ), &#160;∀ useInCombat.Weapon , (¬Creature ⊔ ¬Weapon ), Orc , (Weapon ⊔ ¬Magic ), ¬Sword , (¬Orc ⊔ &#160;∀ useInCombat.Sword ), (Creature ⊔ ¬Orc ), (¬Magic ⊔ ¬Sword ), ¬Human , (Weapon ⊔ ¬Sword ), (¬Elf ⊔ ¬Orc )" target="_blank">
<polygon fill="none" stroke="green" points="202,-134.8 202,-160.8 250,-160.8 250,-134.8 202,-134.8"/>
<text text-anchor="start" x="206.56" y="-143.2" font-family="Times,serif" font-size="14.00"> Label </text>
</a>
</g>
<polygon fill="none" stroke="green" points="201,-133.8 201,-161.8 251,-161.8 251,-133.8 201,-133.8"/>
</g>
<!-- 10&#45;&gt;13 -->
<g id="edge11" class="edge">
<title>10&#45;&gt;13</title>
<path fill="none" stroke="black" d="M249.75,-250.86C254.78,-238.38 261.76,-221.08 267.52,-206.8"/>
<polygon fill="black" stroke="black" points="270.78,-208.07 271.27,-197.48 264.29,-205.45 270.78,-208.07"/>
<text text-anchor="middle" x="268.25" y="-220" font-family="Times,serif" font-size="14.00">⊔</text>
</g>
<!-- 12 -->
<g id="node13" class="node">
<title>12</title>
<ellipse fill="none" stroke="black" cx="194" cy="-91" rx="42.88" ry="18"/>
<text text-anchor="start" x="171.06" y="-86.8" font-family="Times,serif" font-size="14.00">CLASH</text>
</g>
<!-- 11&#45;&gt;12 -->
<g id="edge13" class="edge">
<title>11&#45;&gt;12</title>
<path fill="none" stroke="red" d="M200.42,-161.65C199.3,-149.52 197.78,-133.02 196.5,-119.12"/>
<polygon fill="red" stroke="red" points="199.98,-118.75 195.58,-109.11 193.01,-119.39 199.98,-118.75"/>
</g>
<!-- 14 -->
<g id="node15" class="node">
<title>14</title>
<ellipse fill="none" stroke="black" cx="282" cy="-91" rx="27" ry="18"/>
<text text-anchor="start" x="275" y="-87.8" font-family="Times,serif" font-size="14.00">x</text>
<text text-anchor="start" x="282" y="-87.8" font-family="Times,serif" baseline-shift="sub" font-size="14.00">0</text>
<g id="a_node15_11"><a xlink:href="C:\Users\checc\Desktop\ProgettoIntelligentWeb\Progetto\graph\normal\14.txt" xlink:title="Nodo 14: ¬Magic , (¬Human ⊔ ¬Orc ), &#160;∀ useInCombat.Sword , (Creature ⊔ &#160;∀ useInCombat.owl:Nothing ), (owl:Nothing ⊔ &#160;∀ useInCombat.Weapon ), ((Creature ⊔ ¬Elf )⊓ (Creature ⊔ ¬Human )⊓ (Creature ⊔ ¬Orc )⊓ (Creature ⊔ &#160;∀ useInCombat.owl:Nothing )⊓ (Weapon ⊔ ¬Magic )⊓ (Weapon ⊔ ¬Sword )⊓ (owl:Nothing ⊔ &#160;∀ useInCombat.Weapon )⊓ (¬Creature ⊔ ¬Weapon )⊓ (¬Elf ⊔ ¬Orc )⊓ (¬Human ⊔ ¬Orc )⊓ (¬Human ⊔ &#160;∀ useInCombat.Sword )⊓ (¬Magic ⊔ ¬Sword )⊓ (¬Orc ⊔ &#160;∀ useInCombat.Sword )), (Creature ⊔ ¬Elf ), ¬Elf , (Creature ⊔ ¬Human ), Creature , ¬Weapon , (¬Human ⊔ &#160;∀ useInCombat.Sword ), &#160;∀ useInCombat.Weapon , (¬Creature ⊔ ¬Weapon ), Orc , (Weapon ⊔ ¬Magic ), ¬Sword , (¬Orc ⊔ &#160;∀ useInCombat.Sword ), (Creature ⊔ ¬Orc ), (¬Magic ⊔ ¬Sword ), ¬Human , (Weapon ⊔ ¬Sword ), (¬Elf ⊔ ¬Orc )" target="_blank">
<polygon fill="none" stroke="green" points="206,-46 206,-72 254,-72 254,-46 206,-46"/>
<text text-anchor="start" x="210.56" y="-54.4" font-family="Times,serif" font-size="14.00"> Label </text>
</a>
</g>
<polygon fill="none" stroke="green" points="205,-45 205,-73 255,-73 255,-45 205,-45"/>
</g>
<!-- 13&#45;&gt;14 -->
<g id="edge14" class="edge">
<title>13&#45;&gt;14</title>
<path fill="none" stroke="black" d="M278.79,-161.65C279.35,-149.52 280.11,-133.02 280.75,-119.12"/>
<polygon fill="black" stroke="black" points="284.25,-119.26 281.21,-109.11 277.25,-118.94 284.25,-119.26"/>
<text text-anchor="middle" x="285.25" y="-131.2" font-family="Times,serif" font-size="14.00">⊔</text>
</g>
<!-- 15 -->
<g id="node16" class="node">
<title>15</title>
<ellipse fill="none" stroke="black" cx="282" cy="-18" rx="69.52" ry="18"/>
<text text-anchor="start" x="239.62" y="-13.8" font-family="Times,serif" font-size="14.00">CLASH&#45;FREE</text>
</g>
<!-- 14&#45;&gt;15 -->
<g id="edge15" class="edge">
<title>14&#45;&gt;15</title>
<path fill="none" stroke="green" d="M282,-72.81C282,-64.79 282,-55.05 282,-46.07"/>
<polygon fill="green" stroke="green" points="285.5,-46.03 282,-36.03 278.5,-46.03 285.5,-46.03"/>
</g>
</g>
</svg>
