<svg width="1224px" height="1122px"
 viewBox="0.00 0.00 1223.73 1121.80" xmlns="http://www.w3.org/2000/svg" xmlns:xlink="http://www.w3.org/1999/xlink">
<g id="graph0" class="graph" transform="scale(1.0 1.0) rotate(0.0) translate(4.0 1117.8)">
<title>tableaux</title>
<polygon fill="white" stroke="transparent" points="-4,4 -4,-1117.8 1219.73,-1117.8 1219.73,4 -4,4"/>
<!-- 0 -->
<g id="node1" class="node">
<title>0</title>
<ellipse fill="none" stroke="black" cx="738" cy="-1067.8" rx="27" ry="18"/>
<text text-anchor="start" x="731" y="-1064.6" font-family="Times,serif" font-size="14.00">x</text>
<text text-anchor="start" x="738" y="-1064.6" font-family="Times,serif" baseline-shift="sub" font-size="14.00">0</text>
<g id="a_node1_0"><a xlink:href="C:\Users\checc\Desktop\ProgettoIntelligentWeb\Progetto\graph\normal\0.txt" xlink:title="Clicca per visualizzare Lx" target="_blank">
<polygon fill="none" stroke="green" points="662,-1086.8 662,-1112.8 710,-1112.8 710,-1086.8 662,-1086.8"/>
<text text-anchor="start" x="666.56" y="-1095.2" font-family="Times,serif" font-size="14.00"> Label </text>
</a>
</g>
<polygon fill="none" stroke="green" points="661,-1085.8 661,-1113.8 711,-1113.8 711,-1085.8 661,-1085.8"/>
</g>
<!-- 1 -->
<g id="node2" class="node">
<title>1</title>
<ellipse fill="none" stroke="black" cx="738" cy="-979" rx="27" ry="18"/>
<text text-anchor="start" x="731" y="-975.8" font-family="Times,serif" font-size="14.00">x</text>
<text text-anchor="start" x="738" y="-975.8" font-family="Times,serif" baseline-shift="sub" font-size="14.00">0</text>
<g id="a_node2_1"><a xlink:href="C:\Users\checc\Desktop\ProgettoIntelligentWeb\Progetto\graph\normal\1.txt" xlink:title="Clicca per visualizzare Lx" target="_blank">
<polygon fill="none" stroke="green" points="662,-998 662,-1024 710,-1024 710,-998 662,-998"/>
<text text-anchor="start" x="666.56" y="-1006.4" font-family="Times,serif" font-size="14.00"> Label </text>
</a>
</g>
<polygon fill="none" stroke="green" points="661,-997 661,-1025 711,-1025 711,-997 661,-997"/>
</g>
<!-- 0&#45;&gt;1 -->
<g id="edge1" class="edge">
<title>0&#45;&gt;1</title>
<path fill="none" stroke="black" d="M738,-1049.65C738,-1037.52 738,-1021.02 738,-1007.12"/>
<polygon fill="black" stroke="black" points="741.5,-1007.11 738,-997.11 734.5,-1007.11 741.5,-1007.11"/>
<text text-anchor="middle" x="755.5" y="-1019.2" font-family="Times,serif" font-size="14.00">Union</text>
</g>
<!-- 2 -->
<g id="node3" class="node">
<title>2</title>
<ellipse fill="none" stroke="black" cx="702" cy="-890.2" rx="27" ry="18"/>
<text text-anchor="start" x="695" y="-887" font-family="Times,serif" font-size="14.00">x</text>
<text text-anchor="start" x="702" y="-887" font-family="Times,serif" baseline-shift="sub" font-size="14.00">0</text>
<g id="a_node3_2"><a xlink:href="C:\Users\checc\Desktop\ProgettoIntelligentWeb\Progetto\graph\normal\2.txt" xlink:title="Clicca per visualizzare Lx" target="_blank">
<polygon fill="none" stroke="green" points="626,-909.2 626,-935.2 674,-935.2 674,-909.2 626,-909.2"/>
<text text-anchor="start" x="630.56" y="-917.6" font-family="Times,serif" font-size="14.00"> Label </text>
</a>
</g>
<polygon fill="none" stroke="green" points="625,-908.2 625,-936.2 675,-936.2 675,-908.2 625,-908.2"/>
</g>
<!-- 1&#45;&gt;2 -->
<g id="edge3" class="edge">
<title>1&#45;&gt;2</title>
<path fill="none" stroke="black" d="M725.08,-962.81C720.66,-956.94 716.07,-949.97 713,-943 709.65,-935.39 707.3,-926.7 705.65,-918.64"/>
<polygon fill="black" stroke="black" points="709.06,-917.78 703.87,-908.54 702.16,-919 709.06,-917.78"/>
<text text-anchor="middle" x="731.5" y="-930.4" font-family="Times,serif" font-size="14.00">Union</text>
</g>
<!-- 4 -->
<g id="node5" class="node">
<title>4</title>
<ellipse fill="none" stroke="black" cx="778" cy="-890.2" rx="27" ry="18"/>
<text text-anchor="start" x="771" y="-887" font-family="Times,serif" font-size="14.00">x</text>
<text text-anchor="start" x="778" y="-887" font-family="Times,serif" baseline-shift="sub" font-size="14.00">0</text>
<g id="a_node5_3"><a xlink:href="C:\Users\checc\Desktop\ProgettoIntelligentWeb\Progetto\graph\normal\4.txt" xlink:title="Clicca per visualizzare Lx" target="_blank">
<polygon fill="none" stroke="green" points="702,-845.2 702,-871.2 750,-871.2 750,-845.2 702,-845.2"/>
<text text-anchor="start" x="706.56" y="-853.6" font-family="Times,serif" font-size="14.00"> Label </text>
</a>
</g>
<polygon fill="none" stroke="green" points="701,-844.2 701,-872.2 751,-872.2 751,-844.2 701,-844.2"/>
</g>
<!-- 1&#45;&gt;4 -->
<g id="edge2" class="edge">
<title>1&#45;&gt;4</title>
<path fill="none" stroke="black" d="M745.52,-961.67C751.3,-949.14 759.38,-931.6 766.04,-917.16"/>
<polygon fill="black" stroke="black" points="769.37,-918.3 770.37,-907.75 763.01,-915.37 769.37,-918.3"/>
<text text-anchor="middle" x="779.5" y="-930.4" font-family="Times,serif" font-size="14.00">Union</text>
</g>
<!-- 3 -->
<g id="node4" class="node">
<title>3</title>
<ellipse fill="none" stroke="black" cx="694" cy="-801.4" rx="42.88" ry="18"/>
<text text-anchor="start" x="671.06" y="-797.2" font-family="Times,serif" font-size="14.00">CLASH</text>
</g>
<!-- 2&#45;&gt;3 -->
<g id="edge4" class="edge">
<title>2&#45;&gt;3</title>
<path fill="none" stroke="red" d="M700.42,-872.05C699.3,-859.92 697.78,-843.42 696.5,-829.52"/>
<polygon fill="red" stroke="red" points="699.98,-829.15 695.58,-819.51 693.01,-829.79 699.98,-829.15"/>
</g>
<!-- 5 -->
<g id="node6" class="node">
<title>5</title>
<ellipse fill="none" stroke="black" cx="782" cy="-801.4" rx="27" ry="18"/>
<text text-anchor="start" x="775" y="-798.2" font-family="Times,serif" font-size="14.00">x</text>
<text text-anchor="start" x="782" y="-798.2" font-family="Times,serif" baseline-shift="sub" font-size="14.00">1</text>
<g id="a_node6_4"><a xlink:href="C:\Users\checc\Desktop\ProgettoIntelligentWeb\Progetto\graph\normal\5.txt" xlink:title="Clicca per visualizzare Lx" target="_blank">
<polygon fill="none" stroke="green" points="706,-756.4 706,-782.4 754,-782.4 754,-756.4 706,-756.4"/>
<text text-anchor="start" x="710.56" y="-764.8" font-family="Times,serif" font-size="14.00"> Label </text>
</a>
</g>
<polygon fill="none" stroke="green" points="705,-755.4 705,-783.4 755,-783.4 755,-755.4 705,-755.4"/>
</g>
<!-- 4&#45;&gt;5 -->
<g id="edge5" class="edge">
<title>4&#45;&gt;5</title>
<path fill="none" stroke="black" d="M778.79,-872.05C779.35,-859.92 780.11,-843.42 780.75,-829.52"/>
<polygon fill="black" stroke="black" points="784.25,-829.66 781.21,-819.51 777.25,-829.34 784.25,-829.66"/>
<text text-anchor="middle" x="998.36" y="-841.6" font-family="Times,serif" font-size="14.00">http://www.semanticweb.org/gpepp/ontologies/2022/3/untitled&#45;ontology&#45;16R</text>
</g>
<!-- 6 -->
<g id="node7" class="node">
<title>6</title>
<ellipse fill="none" stroke="black" cx="782" cy="-712.6" rx="27" ry="18"/>
<text text-anchor="start" x="775" y="-709.4" font-family="Times,serif" font-size="14.00">x</text>
<text text-anchor="start" x="782" y="-709.4" font-family="Times,serif" baseline-shift="sub" font-size="14.00">1</text>
<g id="a_node7_5"><a xlink:href="C:\Users\checc\Desktop\ProgettoIntelligentWeb\Progetto\graph\normal\6.txt" xlink:title="Clicca per visualizzare Lx" target="_blank">
<polygon fill="none" stroke="green" points="706,-695.6 706,-721.6 754,-721.6 754,-695.6 706,-695.6"/>
<text text-anchor="start" x="710.56" y="-704" font-family="Times,serif" font-size="14.00"> Label </text>
</a>
</g>
<polygon fill="none" stroke="green" points="705,-694.6 705,-722.6 755,-722.6 755,-694.6 705,-694.6"/>
</g>
<!-- 5&#45;&gt;6 -->
<g id="edge6" class="edge">
<title>5&#45;&gt;6</title>
<path fill="none" stroke="black" d="M782,-783.25C782,-771.12 782,-754.62 782,-740.72"/>
<polygon fill="black" stroke="black" points="785.5,-740.71 782,-730.71 778.5,-740.71 785.5,-740.71"/>
<text text-anchor="middle" x="799.5" y="-752.8" font-family="Times,serif" font-size="14.00">Union</text>
</g>
<!-- 7 -->
<g id="node8" class="node">
<title>7</title>
<ellipse fill="none" stroke="black" cx="782" cy="-623.8" rx="27" ry="18"/>
<text text-anchor="start" x="775" y="-620.6" font-family="Times,serif" font-size="14.00">x</text>
<text text-anchor="start" x="782" y="-620.6" font-family="Times,serif" baseline-shift="sub" font-size="14.00">1</text>
<g id="a_node8_6"><a xlink:href="C:\Users\checc\Desktop\ProgettoIntelligentWeb\Progetto\graph\normal\7.txt" xlink:title="Clicca per visualizzare Lx" target="_blank">
<polygon fill="none" stroke="green" points="706,-642.8 706,-668.8 754,-668.8 754,-642.8 706,-642.8"/>
<text text-anchor="start" x="710.56" y="-651.2" font-family="Times,serif" font-size="14.00"> Label </text>
</a>
</g>
<polygon fill="none" stroke="green" points="705,-641.8 705,-669.8 755,-669.8 755,-641.8 705,-641.8"/>
</g>
<!-- 6&#45;&gt;7 -->
<g id="edge7" class="edge">
<title>6&#45;&gt;7</title>
<path fill="none" stroke="black" d="M782,-694.45C782,-682.32 782,-665.82 782,-651.92"/>
<polygon fill="black" stroke="black" points="785.5,-651.91 782,-641.91 778.5,-651.91 785.5,-651.91"/>
<text text-anchor="middle" x="799.5" y="-664" font-family="Times,serif" font-size="14.00">Union</text>
</g>
<!-- 8 -->
<g id="node9" class="node">
<title>8</title>
<ellipse fill="none" stroke="black" cx="746" cy="-535" rx="27" ry="18"/>
<text text-anchor="start" x="739" y="-531.8" font-family="Times,serif" font-size="14.00">x</text>
<text text-anchor="start" x="746" y="-531.8" font-family="Times,serif" baseline-shift="sub" font-size="14.00">1</text>
<g id="a_node9_7"><a xlink:href="C:\Users\checc\Desktop\ProgettoIntelligentWeb\Progetto\graph\normal\8.txt" xlink:title="Clicca per visualizzare Lx" target="_blank">
<polygon fill="none" stroke="green" points="670,-554 670,-580 718,-580 718,-554 670,-554"/>
<text text-anchor="start" x="674.56" y="-562.4" font-family="Times,serif" font-size="14.00"> Label </text>
</a>
</g>
<polygon fill="none" stroke="green" points="669,-553 669,-581 719,-581 719,-553 669,-553"/>
</g>
<!-- 7&#45;&gt;8 -->
<g id="edge9" class="edge">
<title>7&#45;&gt;8</title>
<path fill="none" stroke="black" d="M769.08,-607.61C764.66,-601.74 760.07,-594.77 757,-587.8 753.65,-580.19 751.3,-571.5 749.65,-563.44"/>
<polygon fill="black" stroke="black" points="753.06,-562.58 747.87,-553.34 746.16,-563.8 753.06,-562.58"/>
<text text-anchor="middle" x="775.5" y="-575.2" font-family="Times,serif" font-size="14.00">Union</text>
</g>
<!-- 32 -->
<g id="node33" class="node">
<title>32</title>
<ellipse fill="none" stroke="black" cx="832" cy="-535" rx="27" ry="18"/>
<text text-anchor="start" x="825" y="-531.8" font-family="Times,serif" font-size="14.00">x</text>
<text text-anchor="start" x="832" y="-531.8" font-family="Times,serif" baseline-shift="sub" font-size="14.00">1</text>
<g id="a_node33_8"><a xlink:href="C:\Users\checc\Desktop\ProgettoIntelligentWeb\Progetto\graph\normal\32.txt" xlink:title="Clicca per visualizzare Lx" target="_blank">
<polygon fill="none" stroke="green" points="860,-554 860,-580 908,-580 908,-554 860,-554"/>
<text text-anchor="start" x="864.56" y="-562.4" font-family="Times,serif" font-size="14.00"> Label </text>
</a>
</g>
<polygon fill="none" stroke="green" points="859,-553 859,-581 909,-581 909,-553 859,-553"/>
</g>
<!-- 7&#45;&gt;32 -->
<g id="edge8" class="edge">
<title>7&#45;&gt;32</title>
<path fill="none" stroke="black" d="M791.4,-606.47C798.78,-593.66 809.18,-575.61 817.61,-560.99"/>
<polygon fill="black" stroke="black" points="820.85,-562.37 822.81,-551.96 814.78,-558.88 820.85,-562.37"/>
<text text-anchor="middle" x="828.5" y="-575.2" font-family="Times,serif" font-size="14.00">Union</text>
</g>
<!-- 9 -->
<g id="node10" class="node">
<title>9</title>
<ellipse fill="none" stroke="black" cx="485" cy="-446.2" rx="27" ry="18"/>
<text text-anchor="start" x="478" y="-443" font-family="Times,serif" font-size="14.00">x</text>
<text text-anchor="start" x="485" y="-443" font-family="Times,serif" baseline-shift="sub" font-size="14.00">1</text>
<g id="a_node10_9"><a xlink:href="C:\Users\checc\Desktop\ProgettoIntelligentWeb\Progetto\graph\normal\9.txt" xlink:title="Clicca per visualizzare Lx" target="_blank">
<polygon fill="none" stroke="green" points="409,-465.2 409,-491.2 457,-491.2 457,-465.2 409,-465.2"/>
<text text-anchor="start" x="413.56" y="-473.6" font-family="Times,serif" font-size="14.00"> Label </text>
</a>
</g>
<polygon fill="none" stroke="green" points="408,-464.2 408,-492.2 458,-492.2 458,-464.2 408,-464.2"/>
</g>
<!-- 8&#45;&gt;9 -->
<g id="edge11" class="edge">
<title>8&#45;&gt;9</title>
<path fill="none" stroke="black" d="M722.38,-526.14C675.81,-510.66 572.05,-476.15 518.46,-458.33"/>
<polygon fill="black" stroke="black" points="519.35,-454.94 508.76,-455.1 517.14,-461.58 519.35,-454.94"/>
<text text-anchor="middle" x="656.5" y="-486.4" font-family="Times,serif" font-size="14.00">Union</text>
</g>
<!-- 30 -->
<g id="node31" class="node">
<title>30</title>
<ellipse fill="none" stroke="black" cx="746" cy="-446.2" rx="27" ry="18"/>
<text text-anchor="start" x="739" y="-443" font-family="Times,serif" font-size="14.00">x</text>
<text text-anchor="start" x="746" y="-443" font-family="Times,serif" baseline-shift="sub" font-size="14.00">1</text>
<g id="a_node31_10"><a xlink:href="C:\Users\checc\Desktop\ProgettoIntelligentWeb\Progetto\graph\normal\30.txt" xlink:title="Clicca per visualizzare Lx" target="_blank">
<polygon fill="none" stroke="green" points="670,-429.2 670,-455.2 718,-455.2 718,-429.2 670,-429.2"/>
<text text-anchor="start" x="674.56" y="-437.6" font-family="Times,serif" font-size="14.00"> Label </text>
</a>
</g>
<polygon fill="none" stroke="green" points="669,-428.2 669,-456.2 719,-456.2 719,-428.2 669,-428.2"/>
</g>
<!-- 8&#45;&gt;30 -->
<g id="edge10" class="edge">
<title>8&#45;&gt;30</title>
<path fill="none" stroke="black" d="M746,-516.85C746,-504.72 746,-488.22 746,-474.32"/>
<polygon fill="black" stroke="black" points="749.5,-474.31 746,-464.31 742.5,-474.31 749.5,-474.31"/>
<text text-anchor="middle" x="763.5" y="-486.4" font-family="Times,serif" font-size="14.00">Union</text>
</g>
<!-- 10 -->
<g id="node11" class="node">
<title>10</title>
<ellipse fill="none" stroke="black" cx="296" cy="-357.4" rx="27" ry="18"/>
<text text-anchor="start" x="289" y="-354.2" font-family="Times,serif" font-size="14.00">x</text>
<text text-anchor="start" x="296" y="-354.2" font-family="Times,serif" baseline-shift="sub" font-size="14.00">2</text>
<g id="a_node11_11"><a xlink:href="C:\Users\checc\Desktop\ProgettoIntelligentWeb\Progetto\graph\normal\10.txt" xlink:title="Clicca per visualizzare Lx" target="_blank">
<polygon fill="none" stroke="green" points="220,-376.4 220,-402.4 268,-402.4 268,-376.4 220,-376.4"/>
<text text-anchor="start" x="224.56" y="-384.8" font-family="Times,serif" font-size="14.00"> Label </text>
</a>
</g>
<polygon fill="none" stroke="green" points="219,-375.4 219,-403.4 269,-403.4 269,-375.4 219,-375.4"/>
</g>
<!-- 9&#45;&gt;10 -->
<g id="edge12" class="edge">
<title>9&#45;&gt;10</title>
<path fill="none" stroke="black" d="M458.16,-443.46C413.88,-440.02 328.32,-430.84 307.27,-410.2 300.75,-403.81 297.59,-394.59 296.17,-385.7"/>
<polygon fill="black" stroke="black" points="299.64,-385.22 295.2,-375.6 292.67,-385.89 299.64,-385.22"/>
<text text-anchor="middle" x="525.36" y="-397.6" font-family="Times,serif" font-size="14.00">http://www.semanticweb.org/gpepp/ontologies/2022/3/untitled&#45;ontology&#45;16R</text>
</g>
<!-- 11 -->
<g id="node12" class="node">
<title>11</title>
<ellipse fill="none" stroke="black" cx="252" cy="-268.6" rx="27" ry="18"/>
<text text-anchor="start" x="245" y="-265.4" font-family="Times,serif" font-size="14.00">x</text>
<text text-anchor="start" x="252" y="-265.4" font-family="Times,serif" baseline-shift="sub" font-size="14.00">2</text>
<g id="a_node12_12"><a xlink:href="C:\Users\checc\Desktop\ProgettoIntelligentWeb\Progetto\graph\normal\11.txt" xlink:title="Clicca per visualizzare Lx" target="_blank">
<polygon fill="none" stroke="green" points="176,-287.6 176,-313.6 224,-313.6 224,-287.6 176,-287.6"/>
<text text-anchor="start" x="180.56" y="-296" font-family="Times,serif" font-size="14.00"> Label </text>
</a>
</g>
<polygon fill="none" stroke="green" points="175,-286.6 175,-314.6 225,-314.6 225,-286.6 175,-286.6"/>
</g>
<!-- 10&#45;&gt;11 -->
<g id="edge14" class="edge">
<title>10&#45;&gt;11</title>
<path fill="none" stroke="black" d="M285.96,-340.6C282.35,-334.67 278.33,-327.81 275,-321.4 270.7,-313.12 266.43,-303.86 262.75,-295.48"/>
<polygon fill="black" stroke="black" points="265.91,-293.98 258.75,-286.17 259.48,-296.74 265.91,-293.98"/>
<text text-anchor="middle" x="293.5" y="-308.8" font-family="Times,serif" font-size="14.00">Union</text>
</g>
<!-- 19 -->
<g id="node20" class="node">
<title>19</title>
<ellipse fill="none" stroke="black" cx="372" cy="-268.6" rx="27" ry="18"/>
<text text-anchor="start" x="365" y="-265.4" font-family="Times,serif" font-size="14.00">x</text>
<text text-anchor="start" x="372" y="-265.4" font-family="Times,serif" baseline-shift="sub" font-size="14.00">2</text>
<g id="a_node20_13"><a xlink:href="C:\Users\checc\Desktop\ProgettoIntelligentWeb\Progetto\graph\normal\19.txt" xlink:title="Clicca per visualizzare Lx" target="_blank">
<polygon fill="none" stroke="green" points="296,-251.6 296,-277.6 344,-277.6 344,-251.6 296,-251.6"/>
<text text-anchor="start" x="300.56" y="-260" font-family="Times,serif" font-size="14.00"> Label </text>
</a>
</g>
<polygon fill="none" stroke="green" points="295,-250.6 295,-278.6 345,-278.6 345,-250.6 295,-250.6"/>
</g>
<!-- 10&#45;&gt;19 -->
<g id="edge13" class="edge">
<title>10&#45;&gt;19</title>
<path fill="none" stroke="black" d="M309.24,-341.28C321.12,-327.71 338.71,-307.62 352.25,-292.15"/>
<polygon fill="black" stroke="black" points="354.96,-294.38 358.91,-284.55 349.69,-289.76 354.96,-294.38"/>
<text text-anchor="middle" x="358.5" y="-308.8" font-family="Times,serif" font-size="14.00">Union</text>
</g>
<!-- 12 -->
<g id="node13" class="node">
<title>12</title>
<ellipse fill="none" stroke="black" cx="164" cy="-179.8" rx="27" ry="18"/>
<text text-anchor="start" x="157" y="-176.6" font-family="Times,serif" font-size="14.00">x</text>
<text text-anchor="start" x="164" y="-176.6" font-family="Times,serif" baseline-shift="sub" font-size="14.00">2</text>
<g id="a_node13_14"><a xlink:href="C:\Users\checc\Desktop\ProgettoIntelligentWeb\Progetto\graph\normal\12.txt" xlink:title="Clicca per visualizzare Lx" target="_blank">
<polygon fill="none" stroke="green" points="88,-198.8 88,-224.8 136,-224.8 136,-198.8 88,-198.8"/>
<text text-anchor="start" x="92.56" y="-207.2" font-family="Times,serif" font-size="14.00"> Label </text>
</a>
</g>
<polygon fill="none" stroke="green" points="87,-197.8 87,-225.8 137,-225.8 137,-197.8 87,-197.8"/>
</g>
<!-- 11&#45;&gt;12 -->
<g id="edge16" class="edge">
<title>11&#45;&gt;12</title>
<path fill="none" stroke="black" d="M236.17,-253.92C228.98,-247.57 220.43,-239.84 213,-232.6 203.3,-223.15 192.95,-212.32 184.27,-203.02"/>
<polygon fill="black" stroke="black" points="186.78,-200.58 177.42,-195.62 181.64,-205.34 186.78,-200.58"/>
<text text-anchor="middle" x="231.5" y="-220" font-family="Times,serif" font-size="14.00">Union</text>
</g>
<!-- 17 -->
<g id="node18" class="node">
<title>17</title>
<ellipse fill="none" stroke="black" cx="252" cy="-179.8" rx="27" ry="18"/>
<text text-anchor="start" x="245" y="-176.6" font-family="Times,serif" font-size="14.00">x</text>
<text text-anchor="start" x="252" y="-176.6" font-family="Times,serif" baseline-shift="sub" font-size="14.00">2</text>
<g id="a_node18_15"><a xlink:href="C:\Users\checc\Desktop\ProgettoIntelligentWeb\Progetto\graph\normal\17.txt" xlink:title="Clicca per visualizzare Lx" target="_blank">
<polygon fill="none" stroke="green" points="226,-134.8 226,-160.8 274,-160.8 274,-134.8 226,-134.8"/>
<text text-anchor="start" x="230.56" y="-143.2" font-family="Times,serif" font-size="14.00"> Label </text>
</a>
</g>
<polygon fill="none" stroke="green" points="225,-133.8 225,-161.8 275,-161.8 275,-133.8 225,-133.8"/>
</g>
<!-- 11&#45;&gt;17 -->
<g id="edge15" class="edge">
<title>11&#45;&gt;17</title>
<path fill="none" stroke="black" d="M252,-250.45C252,-238.32 252,-221.82 252,-207.92"/>
<polygon fill="black" stroke="black" points="255.5,-207.91 252,-197.91 248.5,-207.91 255.5,-207.91"/>
<text text-anchor="middle" x="269.5" y="-220" font-family="Times,serif" font-size="14.00">Union</text>
</g>
<!-- 13 -->
<g id="node14" class="node">
<title>13</title>
<ellipse fill="none" stroke="black" cx="77" cy="-91" rx="27" ry="18"/>
<text text-anchor="start" x="70" y="-87.8" font-family="Times,serif" font-size="14.00">x</text>
<text text-anchor="start" x="77" y="-87.8" font-family="Times,serif" baseline-shift="sub" font-size="14.00">2</text>
<g id="a_node14_16"><a xlink:href="C:\Users\checc\Desktop\ProgettoIntelligentWeb\Progetto\graph\normal\13.txt" xlink:title="Clicca per visualizzare Lx" target="_blank">
<polygon fill="none" stroke="green" points="1,-110 1,-136 49,-136 49,-110 1,-110"/>
<text text-anchor="start" x="5.56" y="-118.4" font-family="Times,serif" font-size="14.00"> Label </text>
</a>
</g>
<polygon fill="none" stroke="green" points="0,-109 0,-137 50,-137 50,-109 0,-109"/>
</g>
<!-- 12&#45;&gt;13 -->
<g id="edge18" class="edge">
<title>12&#45;&gt;13</title>
<path fill="none" stroke="black" d="M148.14,-165.16C140.94,-158.81 132.39,-151.07 125,-143.8 115.54,-134.49 105.49,-123.79 97.05,-114.54"/>
<polygon fill="black" stroke="black" points="99.4,-111.92 90.1,-106.85 94.21,-116.62 99.4,-111.92"/>
<text text-anchor="middle" x="143.5" y="-131.2" font-family="Times,serif" font-size="14.00">Union</text>
</g>
<!-- 15 -->
<g id="node16" class="node">
<title>15</title>
<ellipse fill="none" stroke="black" cx="164" cy="-91" rx="27" ry="18"/>
<text text-anchor="start" x="157" y="-87.8" font-family="Times,serif" font-size="14.00">x</text>
<text text-anchor="start" x="164" y="-87.8" font-family="Times,serif" baseline-shift="sub" font-size="14.00">2</text>
<g id="a_node16_17"><a xlink:href="C:\Users\checc\Desktop\ProgettoIntelligentWeb\Progetto\graph\normal\15.txt" xlink:title="Clicca per visualizzare Lx" target="_blank">
<polygon fill="none" stroke="green" points="88,-46 88,-72 136,-72 136,-46 88,-46"/>
<text text-anchor="start" x="92.56" y="-54.4" font-family="Times,serif" font-size="14.00"> Label </text>
</a>
</g>
<polygon fill="none" stroke="green" points="87,-45 87,-73 137,-73 137,-45 87,-45"/>
</g>
<!-- 12&#45;&gt;15 -->
<g id="edge17" class="edge">
<title>12&#45;&gt;15</title>
<path fill="none" stroke="black" d="M164,-161.65C164,-149.52 164,-133.02 164,-119.12"/>
<polygon fill="black" stroke="black" points="167.5,-119.11 164,-109.11 160.5,-119.11 167.5,-119.11"/>
<text text-anchor="middle" x="181.5" y="-131.2" font-family="Times,serif" font-size="14.00">Union</text>
</g>
<!-- 14 -->
<g id="node15" class="node">
<title>14</title>
<ellipse fill="none" stroke="black" cx="69" cy="-18" rx="42.88" ry="18"/>
<text text-anchor="start" x="46.06" y="-13.8" font-family="Times,serif" font-size="14.00">CLASH</text>
</g>
<!-- 13&#45;&gt;14 -->
<g id="edge19" class="edge">
<title>13&#45;&gt;14</title>
<path fill="none" stroke="red" d="M75.06,-72.81C74.16,-64.79 73.06,-55.05 72.05,-46.07"/>
<polygon fill="red" stroke="red" points="75.52,-45.57 70.92,-36.03 68.56,-46.36 75.52,-45.57"/>
</g>
<!-- 16 -->
<g id="node17" class="node">
<title>16</title>
<ellipse fill="none" stroke="black" cx="172" cy="-18" rx="42.88" ry="18"/>
<text text-anchor="start" x="149.06" y="-13.8" font-family="Times,serif" font-size="14.00">CLASH</text>
</g>
<!-- 15&#45;&gt;16 -->
<g id="edge20" class="edge">
<title>15&#45;&gt;16</title>
<path fill="none" stroke="red" d="M165.94,-72.81C166.84,-64.79 167.94,-55.05 168.95,-46.07"/>
<polygon fill="red" stroke="red" points="172.44,-46.36 170.08,-36.03 165.48,-45.57 172.44,-46.36"/>
</g>
<!-- 18 -->
<g id="node19" class="node">
<title>18</title>
<ellipse fill="none" stroke="black" cx="252" cy="-91" rx="42.88" ry="18"/>
<text text-anchor="start" x="229.06" y="-86.8" font-family="Times,serif" font-size="14.00">CLASH</text>
</g>
<!-- 17&#45;&gt;18 -->
<g id="edge21" class="edge">
<title>17&#45;&gt;18</title>
<path fill="none" stroke="red" d="M252,-161.65C252,-149.52 252,-133.02 252,-119.12"/>
<polygon fill="red" stroke="red" points="255.5,-119.11 252,-109.11 248.5,-119.11 255.5,-119.11"/>
</g>
<!-- 20 -->
<g id="node21" class="node">
<title>20</title>
<ellipse fill="none" stroke="black" cx="372" cy="-179.8" rx="27" ry="18"/>
<text text-anchor="start" x="365" y="-176.6" font-family="Times,serif" font-size="14.00">x</text>
<text text-anchor="start" x="372" y="-176.6" font-family="Times,serif" baseline-shift="sub" font-size="14.00">2</text>
<g id="a_node21_18"><a xlink:href="C:\Users\checc\Desktop\ProgettoIntelligentWeb\Progetto\graph\normal\20.txt" xlink:title="Clicca per visualizzare Lx" target="_blank">
<polygon fill="none" stroke="green" points="296,-198.8 296,-224.8 344,-224.8 344,-198.8 296,-198.8"/>
<text text-anchor="start" x="300.56" y="-207.2" font-family="Times,serif" font-size="14.00"> Label </text>
</a>
</g>
<polygon fill="none" stroke="green" points="295,-197.8 295,-225.8 345,-225.8 345,-197.8 295,-197.8"/>
</g>
<!-- 19&#45;&gt;20 -->
<g id="edge23" class="edge">
<title>19&#45;&gt;20</title>
<path fill="none" stroke="black" d="M372,-250.45C372,-238.32 372,-221.82 372,-207.92"/>
<polygon fill="black" stroke="black" points="375.5,-207.91 372,-197.91 368.5,-207.91 375.5,-207.91"/>
<text text-anchor="middle" x="389.5" y="-220" font-family="Times,serif" font-size="14.00">Union</text>
</g>
<!-- 25 -->
<g id="node26" class="node">
<title>25</title>
<ellipse fill="none" stroke="black" cx="515" cy="-179.8" rx="27" ry="18"/>
<text text-anchor="start" x="508" y="-176.6" font-family="Times,serif" font-size="14.00">x</text>
<text text-anchor="start" x="515" y="-176.6" font-family="Times,serif" baseline-shift="sub" font-size="14.00">2</text>
<g id="a_node26_19"><a xlink:href="C:\Users\checc\Desktop\ProgettoIntelligentWeb\Progetto\graph\normal\25.txt" xlink:title="Clicca per visualizzare Lx" target="_blank">
<polygon fill="none" stroke="green" points="439,-162.8 439,-188.8 487,-188.8 487,-162.8 439,-162.8"/>
<text text-anchor="start" x="443.56" y="-171.2" font-family="Times,serif" font-size="14.00"> Label </text>
</a>
</g>
<polygon fill="none" stroke="green" points="438,-161.8 438,-189.8 488,-189.8 488,-161.8 438,-161.8"/>
</g>
<!-- 19&#45;&gt;25 -->
<g id="edge22" class="edge">
<title>19&#45;&gt;25</title>
<path fill="none" stroke="black" d="M391.29,-255.89C415.91,-240.95 458.71,-214.97 486.95,-197.83"/>
<polygon fill="black" stroke="black" points="488.83,-200.78 495.56,-192.6 485.2,-194.79 488.83,-200.78"/>
<text text-anchor="middle" x="474.5" y="-220" font-family="Times,serif" font-size="14.00">Union</text>
</g>
<!-- 21 -->
<g id="node22" class="node">
<title>21</title>
<ellipse fill="none" stroke="black" cx="340" cy="-91" rx="27" ry="18"/>
<text text-anchor="start" x="333" y="-87.8" font-family="Times,serif" font-size="14.00">x</text>
<text text-anchor="start" x="340" y="-87.8" font-family="Times,serif" baseline-shift="sub" font-size="14.00">2</text>
<g id="a_node22_20"><a xlink:href="C:\Users\checc\Desktop\ProgettoIntelligentWeb\Progetto\graph\normal\21.txt" xlink:title="Clicca per visualizzare Lx" target="_blank">
<polygon fill="none" stroke="green" points="264,-46 264,-72 312,-72 312,-46 264,-46"/>
<text text-anchor="start" x="268.56" y="-54.4" font-family="Times,serif" font-size="14.00"> Label </text>
</a>
</g>
<polygon fill="none" stroke="green" points="263,-45 263,-73 313,-73 313,-45 263,-45"/>
</g>
<!-- 20&#45;&gt;21 -->
<g id="edge25" class="edge">
<title>20&#45;&gt;21</title>
<path fill="none" stroke="black" d="M359.4,-163.63C355.14,-157.76 350.77,-150.79 348,-143.8 344.97,-136.15 343.09,-127.45 341.91,-119.39"/>
<polygon fill="black" stroke="black" points="345.37,-118.83 340.74,-109.3 338.42,-119.64 345.37,-118.83"/>
<text text-anchor="middle" x="366.5" y="-131.2" font-family="Times,serif" font-size="14.00">Union</text>
</g>
<!-- 23 -->
<g id="node24" class="node">
<title>23</title>
<ellipse fill="none" stroke="black" cx="412" cy="-91" rx="27" ry="18"/>
<text text-anchor="start" x="405" y="-87.8" font-family="Times,serif" font-size="14.00">x</text>
<text text-anchor="start" x="412" y="-87.8" font-family="Times,serif" baseline-shift="sub" font-size="14.00">2</text>
<g id="a_node24_21"><a xlink:href="C:\Users\checc\Desktop\ProgettoIntelligentWeb\Progetto\graph\normal\23.txt" xlink:title="Clicca per visualizzare Lx" target="_blank">
<polygon fill="none" stroke="green" points="336,-46 336,-72 384,-72 384,-46 336,-46"/>
<text text-anchor="start" x="340.56" y="-54.4" font-family="Times,serif" font-size="14.00"> Label </text>
</a>
</g>
<polygon fill="none" stroke="green" points="335,-45 335,-73 385,-73 385,-45 335,-45"/>
</g>
<!-- 20&#45;&gt;23 -->
<g id="edge24" class="edge">
<title>20&#45;&gt;23</title>
<path fill="none" stroke="black" d="M379.52,-162.47C385.3,-149.94 393.38,-132.4 400.04,-117.96"/>
<polygon fill="black" stroke="black" points="403.37,-119.1 404.37,-108.55 397.01,-116.17 403.37,-119.1"/>
<text text-anchor="middle" x="413.5" y="-131.2" font-family="Times,serif" font-size="14.00">Union</text>
</g>
<!-- 22 -->
<g id="node23" class="node">
<title>22</title>
<ellipse fill="none" stroke="black" cx="309" cy="-18" rx="42.88" ry="18"/>
<text text-anchor="start" x="286.06" y="-13.8" font-family="Times,serif" font-size="14.00">CLASH</text>
</g>
<!-- 21&#45;&gt;22 -->
<g id="edge26" class="edge">
<title>21&#45;&gt;22</title>
<path fill="none" stroke="red" d="M332.81,-73.53C329.15,-65.14 324.6,-54.74 320.47,-45.27"/>
<polygon fill="red" stroke="red" points="323.58,-43.64 316.37,-35.87 317.16,-46.44 323.58,-43.64"/>
</g>
<!-- 24 -->
<g id="node25" class="node">
<title>24</title>
<ellipse fill="none" stroke="black" cx="412" cy="-18" rx="42.88" ry="18"/>
<text text-anchor="start" x="389.06" y="-13.8" font-family="Times,serif" font-size="14.00">CLASH</text>
</g>
<!-- 23&#45;&gt;24 -->
<g id="edge27" class="edge">
<title>23&#45;&gt;24</title>
<path fill="none" stroke="red" d="M412,-72.81C412,-64.79 412,-55.05 412,-46.07"/>
<polygon fill="red" stroke="red" points="415.5,-46.03 412,-36.03 408.5,-46.03 415.5,-46.03"/>
</g>
<!-- 26 -->
<g id="node27" class="node">
<title>26</title>
<ellipse fill="none" stroke="black" cx="515" cy="-91" rx="27" ry="18"/>
<text text-anchor="start" x="508" y="-87.8" font-family="Times,serif" font-size="14.00">x</text>
<text text-anchor="start" x="515" y="-87.8" font-family="Times,serif" baseline-shift="sub" font-size="14.00">2</text>
<g id="a_node27_22"><a xlink:href="C:\Users\checc\Desktop\ProgettoIntelligentWeb\Progetto\graph\normal\26.txt" xlink:title="Clicca per visualizzare Lx" target="_blank">
<polygon fill="none" stroke="green" points="439,-110 439,-136 487,-136 487,-110 439,-110"/>
<text text-anchor="start" x="443.56" y="-118.4" font-family="Times,serif" font-size="14.00"> Label </text>
</a>
</g>
<polygon fill="none" stroke="green" points="438,-109 438,-137 488,-137 488,-109 438,-109"/>
</g>
<!-- 25&#45;&gt;26 -->
<g id="edge29" class="edge">
<title>25&#45;&gt;26</title>
<path fill="none" stroke="black" d="M515,-161.65C515,-149.52 515,-133.02 515,-119.12"/>
<polygon fill="black" stroke="black" points="518.5,-119.11 515,-109.11 511.5,-119.11 518.5,-119.11"/>
<text text-anchor="middle" x="532.5" y="-131.2" font-family="Times,serif" font-size="14.00">Union</text>
</g>
<!-- 28 -->
<g id="node29" class="node">
<title>28</title>
<ellipse fill="none" stroke="black" cx="607" cy="-91" rx="27" ry="18"/>
<text text-anchor="start" x="600" y="-87.8" font-family="Times,serif" font-size="14.00">x</text>
<text text-anchor="start" x="607" y="-87.8" font-family="Times,serif" baseline-shift="sub" font-size="14.00">2</text>
<g id="a_node29_23"><a xlink:href="C:\Users\checc\Desktop\ProgettoIntelligentWeb\Progetto\graph\normal\28.txt" xlink:title="Clicca per visualizzare Lx" target="_blank">
<polygon fill="none" stroke="green" points="531,-46 531,-72 579,-72 579,-46 531,-46"/>
<text text-anchor="start" x="535.56" y="-54.4" font-family="Times,serif" font-size="14.00"> Label </text>
</a>
</g>
<polygon fill="none" stroke="green" points="530,-45 530,-73 580,-73 580,-45 530,-45"/>
</g>
<!-- 25&#45;&gt;28 -->
<g id="edge28" class="edge">
<title>25&#45;&gt;28</title>
<path fill="none" stroke="black" d="M530.7,-164.98C537.87,-158.61 546.43,-150.89 554,-143.8 564.37,-134.08 575.66,-123.11 585.15,-113.77"/>
<polygon fill="black" stroke="black" points="587.66,-116.2 592.31,-106.68 582.74,-111.22 587.66,-116.2"/>
<text text-anchor="middle" x="588.5" y="-131.2" font-family="Times,serif" font-size="14.00">Union</text>
</g>
<!-- 27 -->
<g id="node28" class="node">
<title>27</title>
<ellipse fill="none" stroke="black" cx="515" cy="-18" rx="42.88" ry="18"/>
<text text-anchor="start" x="492.06" y="-13.8" font-family="Times,serif" font-size="14.00">CLASH</text>
</g>
<!-- 26&#45;&gt;27 -->
<g id="edge30" class="edge">
<title>26&#45;&gt;27</title>
<path fill="none" stroke="red" d="M515,-72.81C515,-64.79 515,-55.05 515,-46.07"/>
<polygon fill="red" stroke="red" points="518.5,-46.03 515,-36.03 511.5,-46.03 518.5,-46.03"/>
</g>
<!-- 29 -->
<g id="node30" class="node">
<title>29</title>
<ellipse fill="none" stroke="black" cx="618" cy="-18" rx="42.88" ry="18"/>
<text text-anchor="start" x="595.06" y="-13.8" font-family="Times,serif" font-size="14.00">CLASH</text>
</g>
<!-- 28&#45;&gt;29 -->
<g id="edge31" class="edge">
<title>28&#45;&gt;29</title>
<path fill="none" stroke="red" d="M609.66,-72.81C610.91,-64.79 612.42,-55.05 613.81,-46.07"/>
<polygon fill="red" stroke="red" points="617.29,-46.45 615.36,-36.03 610.37,-45.38 617.29,-46.45"/>
</g>
<!-- 31 -->
<g id="node32" class="node">
<title>31</title>
<ellipse fill="none" stroke="black" cx="746" cy="-357.4" rx="42.88" ry="18"/>
<text text-anchor="start" x="723.06" y="-353.2" font-family="Times,serif" font-size="14.00">CLASH</text>
</g>
<!-- 30&#45;&gt;31 -->
<g id="edge32" class="edge">
<title>30&#45;&gt;31</title>
<path fill="none" stroke="red" d="M746,-428.05C746,-415.92 746,-399.42 746,-385.52"/>
<polygon fill="red" stroke="red" points="749.5,-385.51 746,-375.51 742.5,-385.51 749.5,-385.51"/>
</g>
<!-- 33 -->
<g id="node34" class="node">
<title>33</title>
<ellipse fill="none" stroke="black" cx="868" cy="-446.2" rx="27" ry="18"/>
<text text-anchor="start" x="861" y="-443" font-family="Times,serif" font-size="14.00">x</text>
<text text-anchor="start" x="868" y="-443" font-family="Times,serif" baseline-shift="sub" font-size="14.00">1</text>
<g id="a_node34_24"><a xlink:href="C:\Users\checc\Desktop\ProgettoIntelligentWeb\Progetto\graph\normal\33.txt" xlink:title="Clicca per visualizzare Lx" target="_blank">
<polygon fill="none" stroke="green" points="792,-465.2 792,-491.2 840,-491.2 840,-465.2 792,-465.2"/>
<text text-anchor="start" x="796.56" y="-473.6" font-family="Times,serif" font-size="14.00"> Label </text>
</a>
</g>
<polygon fill="none" stroke="green" points="791,-464.2 791,-492.2 841,-492.2 841,-464.2 791,-464.2"/>
</g>
<!-- 32&#45;&gt;33 -->
<g id="edge33" class="edge">
<title>32&#45;&gt;33</title>
<path fill="none" stroke="black" d="M838.94,-517.26C844.12,-504.78 851.29,-487.48 857.22,-473.2"/>
<polygon fill="black" stroke="black" points="860.48,-474.46 861.08,-463.88 854.02,-471.78 860.48,-474.46"/>
<text text-anchor="middle" x="870.5" y="-486.4" font-family="Times,serif" font-size="14.00">Union</text>
</g>
<!-- 34 -->
<g id="node35" class="node">
<title>34</title>
<ellipse fill="none" stroke="black" cx="876" cy="-357.4" rx="69.52" ry="18"/>
<text text-anchor="start" x="833.62" y="-353.2" font-family="Times,serif" font-size="14.00">CLASH&#45;FREE</text>
</g>
<!-- 33&#45;&gt;34 -->
<g id="edge34" class="edge">
<title>33&#45;&gt;34</title>
<path fill="none" stroke="green" d="M869.58,-428.05C870.7,-415.92 872.22,-399.42 873.5,-385.52"/>
<polygon fill="green" stroke="green" points="876.99,-385.79 874.42,-375.51 870.02,-385.15 876.99,-385.79"/>
</g>
</g>
</svg>
