<svg width="729px" height="383px"
 viewBox="0.00 0.00 728.51 383.20" xmlns="http://www.w3.org/2000/svg" xmlns:xlink="http://www.w3.org/1999/xlink">
<g id="graph0" class="graph" transform="scale(1.0 1.0) rotate(0.0) translate(4.0 379.2)">
<title>tableaux</title>
<polygon fill="white" stroke="transparent" points="-4,4 -4,-379.2 724.51,-379.2 724.51,4 -4,4"/>
<!-- 0 -->
<g id="node1" class="node">
<title>0</title>
<ellipse fill="none" stroke="black" cx="492" cy="-308.4" rx="27" ry="18"/>
<text text-anchor="middle" x="492" y="-304.2" font-family="Times,serif" font-size="14.00">x0</text>
<text text-anchor="middle" x="279.18" y="-330.6" font-family="Times,serif" font-size="14.00">(B ⊔ ¬A ); ((A ⊔ ¬B )⊓ (B ⊔ ¬A )); ∃R.(A ⊓ ¬B ); (A ⊔ ¬B ); </text>
</g>
<!-- 1 -->
<g id="node2" class="node">
<title>1</title>
<ellipse fill="none" stroke="black" cx="492" cy="-219.6" rx="27" ry="18"/>
<text text-anchor="middle" x="492" y="-215.4" font-family="Times,serif" font-size="14.00">x0</text>
<text text-anchor="start" x="70.06" y="-245" font-family="Times,serif" font-size="14.00">(B ⊔ ¬A ); ((A ⊔ ¬B )⊓ (B ⊔ ¬A )); B ; ∃R.(A ⊓ ¬B ); (A ⊔ ¬B ); </text>
</g>
<!-- 0&#45;&gt;1 -->
<g id="edge1" class="edge">
<title>0&#45;&gt;1</title>
<path fill="none" stroke="black" d="M492,-290.25C492,-278.12 492,-261.62 492,-247.72"/>
<polygon fill="black" stroke="black" points="495.5,-247.71 492,-237.71 488.5,-247.71 495.5,-247.71"/>
<text text-anchor="middle" x="509.5" y="-259.8" font-family="Times,serif" font-size="14.00">Union</text>
</g>
<!-- 2 -->
<g id="node3" class="node">
<title>2</title>
<ellipse fill="none" stroke="black" cx="456" cy="-130.8" rx="27" ry="18"/>
<text text-anchor="middle" x="456" y="-126.6" font-family="Times,serif" font-size="14.00">x0</text>
<text text-anchor="start" x="4.29" y="-156.2" font-family="Times,serif" font-size="14.00">(B ⊔ ¬A ); ((A ⊔ ¬B )⊓ (B ⊔ ¬A )); B ; ∃R.(A ⊓ ¬B ); ¬B ; (A ⊔ ¬B ); </text>
</g>
<!-- 1&#45;&gt;2 -->
<g id="edge3" class="edge">
<title>1&#45;&gt;2</title>
<path fill="none" stroke="black" d="M479.08,-203.41C474.66,-197.54 470.07,-190.57 467,-183.6 463.65,-175.99 461.3,-167.3 459.65,-159.24"/>
<polygon fill="black" stroke="black" points="463.06,-158.38 457.87,-149.14 456.16,-159.6 463.06,-158.38"/>
<text text-anchor="middle" x="485.5" y="-171" font-family="Times,serif" font-size="14.00">Union</text>
</g>
<!-- 4 -->
<g id="node5" class="node">
<title>4</title>
<ellipse fill="none" stroke="black" cx="536" cy="-130.8" rx="27" ry="18"/>
<text text-anchor="middle" x="536" y="-126.6" font-family="Times,serif" font-size="14.00">x0</text>
<text text-anchor="start" x="92.56" y="-96.2" font-family="Times,serif" font-size="14.00">(B ⊔ ¬A ); ((A ⊔ ¬B )⊓ (B ⊔ ¬A )); A ; B ; ∃R.(A ⊓ ¬B ); (A ⊔ ¬B ); </text>
</g>
<!-- 1&#45;&gt;4 -->
<g id="edge2" class="edge">
<title>1&#45;&gt;4</title>
<path fill="none" stroke="black" d="M500.28,-202.27C506.73,-189.54 515.8,-171.64 523.19,-157.06"/>
<polygon fill="black" stroke="black" points="526.36,-158.56 527.76,-148.05 520.12,-155.39 526.36,-158.56"/>
<text text-anchor="middle" x="535.5" y="-171" font-family="Times,serif" font-size="14.00">Union</text>
</g>
<!-- 3 -->
<g id="node4" class="node">
<title>3</title>
<ellipse fill="none" stroke="black" cx="448" cy="-42" rx="42.88" ry="18"/>
<text text-anchor="start" x="425.06" y="-37.8" font-family="Times,serif" font-size="14.00">CLASH</text>
</g>
<!-- 2&#45;&gt;3 -->
<g id="edge4" class="edge">
<title>2&#45;&gt;3</title>
<path fill="none" stroke="black" d="M454.42,-112.65C453.3,-100.52 451.78,-84.02 450.5,-70.12"/>
<polygon fill="black" stroke="black" points="453.98,-69.75 449.58,-60.11 447.01,-70.39 453.98,-69.75"/>
</g>
<!-- 5 -->
<g id="node6" class="node">
<title>5</title>
<ellipse fill="none" stroke="black" cx="536" cy="-42" rx="27" ry="18"/>
<text text-anchor="start" x="525.5" y="-37.8" font-family="Times,serif" font-size="14.00">x01</text>
<text text-anchor="start" x="18.63" y="-7.4" font-family="Times,serif" font-size="14.00">(B ⊔ ¬A ); ((A ⊔ ¬B )⊓ (B ⊔ ¬A )); A ; B ; ∃R.(A ⊓ ¬B ); (A ⊓ ¬B ); ; (A ⊔ ¬B ); </text>
</g>
<!-- 4&#45;&gt;5 -->
<g id="edge6" class="edge">
<title>4&#45;&gt;5</title>
<path fill="none" stroke="black" d="M536,-112.65C536,-100.52 536,-84.02 536,-70.12"/>
<polygon fill="black" stroke="black" points="539.5,-70.11 536,-60.11 532.5,-70.11 539.5,-70.11"/>
<text text-anchor="middle" x="540.67" y="-82.2" font-family="Times,serif" font-size="14.00">R</text>
</g>
<!-- 6 -->
<g id="node7" class="node">
<title>6</title>
<ellipse fill="none" stroke="black" cx="651" cy="-42" rx="69.52" ry="18"/>
<text text-anchor="start" x="608.62" y="-37.8" font-family="Times,serif" font-size="14.00">CLASH&#45;FREE</text>
</g>
<!-- 4&#45;&gt;6 -->
<g id="edge5" class="edge">
<title>4&#45;&gt;6</title>
<path fill="none" stroke="black" d="M553.47,-116.62C571.44,-103.05 599.77,-81.67 621.28,-65.43"/>
<polygon fill="black" stroke="black" points="623.57,-68.09 629.44,-59.27 619.35,-62.5 623.57,-68.09"/>
</g>
</g>
</svg>
