<svg width="270px" height="323px"
 viewBox="0.00 0.00 269.51 322.60" xmlns="http://www.w3.org/2000/svg" xmlns:xlink="http://www.w3.org/1999/xlink">
<g id="graph0" class="graph" transform="scale(1.0 1.0) rotate(0.0) translate(4.0 318.6)">
<title>tableaux</title>
<polygon fill="white" stroke="transparent" points="-4,4 -4,-318.6 265.51,-318.6 265.51,4 -4,4"/>
<!-- 0 -->
<g id="node1" class="node">
<title>0</title>
<ellipse fill="none" stroke="black" cx="140" cy="-268.6" rx="27" ry="18"/>
<text text-anchor="start" x="133" y="-265.4" font-family="Times,serif" font-size="14.00">x</text>
<text text-anchor="start" x="140" y="-265.4" font-family="Times,serif" baseline-shift="sub" font-size="14.00">0</text>
<g id="a_node1_0"><a xlink:href="C:\Users\turco\OneDrive\Desktop\ProgettoIntelligentWeb\Progetto\graph\normal\0.txt" xlink:title="Clicca per visualizzare Lx" target="_blank">
<polygon fill="none" stroke="green" points="64,-287.6 64,-313.6 112,-313.6 112,-287.6 64,-287.6"/>
<text text-anchor="start" x="68.56" y="-296" font-family="Times,serif" font-size="14.00"> Label </text>
</a>
</g>
<polygon fill="none" stroke="green" points="63,-286.6 63,-314.6 113,-314.6 113,-286.6 63,-286.6"/>
</g>
<!-- 1 -->
<g id="node2" class="node">
<title>1</title>
<ellipse fill="none" stroke="black" cx="104" cy="-179.8" rx="27" ry="18"/>
<text text-anchor="start" x="97" y="-176.6" font-family="Times,serif" font-size="14.00">x</text>
<text text-anchor="start" x="104" y="-176.6" font-family="Times,serif" baseline-shift="sub" font-size="14.00">1</text>
<g id="a_node2_1"><a xlink:href="C:\Users\turco\OneDrive\Desktop\ProgettoIntelligentWeb\Progetto\graph\normal\1.txt" xlink:title="Clicca per visualizzare Lx" target="_blank">
<polygon fill="none" stroke="green" points="28,-198.8 28,-224.8 76,-224.8 76,-198.8 28,-198.8"/>
<text text-anchor="start" x="32.56" y="-207.2" font-family="Times,serif" font-size="14.00"> Label </text>
</a>
</g>
<polygon fill="none" stroke="green" points="27,-197.8 27,-225.8 77,-225.8 77,-197.8 27,-197.8"/>
</g>
<!-- 0&#45;&gt;1 -->
<g id="edge2" class="edge">
<title>0&#45;&gt;1</title>
<path fill="none" stroke="black" d="M133.06,-250.86C127.88,-238.38 120.71,-221.08 114.78,-206.8"/>
<polygon fill="black" stroke="black" points="117.98,-205.38 110.92,-197.48 111.52,-208.06 117.98,-205.38"/>
<text text-anchor="middle" x="130.67" y="-220" font-family="Times,serif" font-size="14.00">R</text>
</g>
<!-- 4 -->
<g id="node5" class="node">
<title>4</title>
<ellipse fill="none" stroke="black" cx="187" cy="-179.8" rx="27" ry="18"/>
<text text-anchor="start" x="180" y="-176.6" font-family="Times,serif" font-size="14.00">x</text>
<text text-anchor="start" x="187" y="-176.6" font-family="Times,serif" baseline-shift="sub" font-size="14.00">3</text>
<g id="a_node5_2"><a xlink:href="C:\Users\turco\OneDrive\Desktop\ProgettoIntelligentWeb\Progetto\graph\normal\4.txt" xlink:title="Clicca per visualizzare Lx" target="_blank">
<polygon fill="none" stroke="green" points="111,-134.8 111,-160.8 159,-160.8 159,-134.8 111,-134.8"/>
<text text-anchor="start" x="115.56" y="-143.2" font-family="Times,serif" font-size="14.00"> Label </text>
</a>
</g>
<polygon fill="none" stroke="green" points="110,-133.8 110,-161.8 160,-161.8 160,-133.8 110,-133.8"/>
</g>
<!-- 0&#45;&gt;4 -->
<g id="edge1" class="edge">
<title>0&#45;&gt;4</title>
<path fill="none" stroke="black" d="M148.84,-251.27C155.73,-238.54 165.43,-220.64 173.32,-206.06"/>
<polygon fill="black" stroke="black" points="176.52,-207.51 178.2,-197.05 170.36,-204.18 176.52,-207.51"/>
<text text-anchor="middle" x="171.89" y="-220" font-family="Times,serif" font-size="14.00">S</text>
</g>
<!-- 2 -->
<g id="node3" class="node">
<title>2</title>
<ellipse fill="none" stroke="black" cx="77" cy="-91" rx="27" ry="18"/>
<text text-anchor="start" x="70" y="-87.8" font-family="Times,serif" font-size="14.00">x</text>
<text text-anchor="start" x="77" y="-87.8" font-family="Times,serif" baseline-shift="sub" font-size="14.00">2</text>
<g id="a_node3_3"><a xlink:href="C:\Users\turco\OneDrive\Desktop\ProgettoIntelligentWeb\Progetto\graph\normal\2.txt" xlink:title="Clicca per visualizzare Lx" target="_blank">
<polygon fill="none" stroke="green" points="1,-110 1,-136 49,-136 49,-110 1,-110"/>
<text text-anchor="start" x="5.56" y="-118.4" font-family="Times,serif" font-size="14.00"> Label </text>
</a>
</g>
<polygon fill="none" stroke="green" points="0,-109 0,-137 50,-137 50,-109 0,-109"/>
</g>
<!-- 1&#45;&gt;2 -->
<g id="edge3" class="edge">
<title>1&#45;&gt;2</title>
<path fill="none" stroke="black" d="M98.79,-162.06C94.95,-149.7 89.63,-132.61 85.21,-118.41"/>
<polygon fill="black" stroke="black" points="88.5,-117.19 82.19,-108.68 81.82,-119.27 88.5,-117.19"/>
<text text-anchor="middle" x="96.89" y="-131.2" font-family="Times,serif" font-size="14.00">S</text>
</g>
<!-- 3 -->
<g id="node4" class="node">
<title>3</title>
<ellipse fill="none" stroke="black" cx="77" cy="-18" rx="69.52" ry="18"/>
<text text-anchor="start" x="34.62" y="-13.8" font-family="Times,serif" font-size="14.00">CLASH&#45;FREE</text>
</g>
<!-- 2&#45;&gt;3 -->
<g id="edge4" class="edge">
<title>2&#45;&gt;3</title>
<path fill="none" stroke="green" d="M77,-72.81C77,-64.79 77,-55.05 77,-46.07"/>
<polygon fill="green" stroke="green" points="80.5,-46.03 77,-36.03 73.5,-46.03 80.5,-46.03"/>
</g>
<!-- 5 -->
<g id="node6" class="node">
<title>5</title>
<ellipse fill="none" stroke="black" cx="192" cy="-91" rx="69.52" ry="18"/>
<text text-anchor="start" x="149.62" y="-86.8" font-family="Times,serif" font-size="14.00">CLASH&#45;FREE</text>
</g>
<!-- 4&#45;&gt;5 -->
<g id="edge5" class="edge">
<title>4&#45;&gt;5</title>
<path fill="none" stroke="green" d="M187.99,-161.65C188.69,-149.52 189.64,-133.02 190.44,-119.12"/>
<polygon fill="green" stroke="green" points="193.93,-119.3 191.01,-109.11 186.94,-118.9 193.93,-119.3"/>
</g>
</g>
</svg>
