<svg width="433px" height="500px"
 viewBox="0.00 0.00 433.00 500.20" xmlns="http://www.w3.org/2000/svg" xmlns:xlink="http://www.w3.org/1999/xlink">
<g id="graph0" class="graph" transform="scale(1.0 1.0) rotate(0.0) translate(4.0 496.2)">
<title>tableaux</title>
<polygon fill="white" stroke="transparent" points="-4,4 -4,-496.2 429,-496.2 429,4 -4,4"/>
<!-- 0 -->
<g id="node1" class="node">
<title>0</title>
<ellipse fill="none" stroke="black" cx="215" cy="-446.2" rx="27" ry="18"/>
<text text-anchor="start" x="208" y="-443" font-family="Times,serif" font-size="14.00">x</text>
<text text-anchor="start" x="215" y="-443" font-family="Times,serif" baseline-shift="sub" font-size="14.00">0</text>
<g id="a_node1_0"><a xlink:href="C:\Users\turco\OneDrive\Desktop\ProgettoIntelligentWeb\Progetto\graph\normal\0.txt" xlink:title="Clicca per visualizzare Lx" target="_blank">
<polygon fill="none" stroke="green" points="139,-465.2 139,-491.2 187,-491.2 187,-465.2 139,-465.2"/>
<text text-anchor="start" x="143.56" y="-473.6" font-family="Times,serif" font-size="14.00"> Label </text>
</a>
</g>
<polygon fill="none" stroke="green" points="138,-464.2 138,-492.2 188,-492.2 188,-464.2 138,-464.2"/>
</g>
<!-- 1 -->
<g id="node2" class="node">
<title>1</title>
<ellipse fill="none" stroke="black" cx="164" cy="-357.4" rx="27" ry="18"/>
<text text-anchor="start" x="157" y="-354.2" font-family="Times,serif" font-size="14.00">x</text>
<text text-anchor="start" x="164" y="-354.2" font-family="Times,serif" baseline-shift="sub" font-size="14.00">0</text>
<g id="a_node2_1"><a xlink:href="C:\Users\turco\OneDrive\Desktop\ProgettoIntelligentWeb\Progetto\graph\normal\1.txt" xlink:title="Clicca per visualizzare Lx" target="_blank">
<polygon fill="none" stroke="green" points="88,-376.4 88,-402.4 136,-402.4 136,-376.4 88,-376.4"/>
<text text-anchor="start" x="92.56" y="-384.8" font-family="Times,serif" font-size="14.00"> Label </text>
</a>
</g>
<polygon fill="none" stroke="green" points="87,-375.4 87,-403.4 137,-403.4 137,-375.4 87,-375.4"/>
</g>
<!-- 0&#45;&gt;1 -->
<g id="edge2" class="edge">
<title>0&#45;&gt;1</title>
<path fill="none" stroke="black" d="M205.65,-429.28C198.07,-416.39 187.27,-398.01 178.57,-383.2"/>
<polygon fill="black" stroke="black" points="181.55,-381.36 173.47,-374.51 175.52,-384.91 181.55,-381.36"/>
<text text-anchor="middle" x="212.5" y="-397.6" font-family="Times,serif" font-size="14.00">Union</text>
</g>
<!-- 10 -->
<g id="node11" class="node">
<title>10</title>
<ellipse fill="none" stroke="black" cx="267" cy="-357.4" rx="27" ry="18"/>
<text text-anchor="start" x="260" y="-354.2" font-family="Times,serif" font-size="14.00">x</text>
<text text-anchor="start" x="267" y="-354.2" font-family="Times,serif" baseline-shift="sub" font-size="14.00">0</text>
<g id="a_node11_2"><a xlink:href="C:\Users\turco\OneDrive\Desktop\ProgettoIntelligentWeb\Progetto\graph\normal\10.txt" xlink:title="Clicca per visualizzare Lx" target="_blank">
<polygon fill="none" stroke="green" points="295,-376.4 295,-402.4 343,-402.4 343,-376.4 295,-376.4"/>
<text text-anchor="start" x="299.56" y="-384.8" font-family="Times,serif" font-size="14.00"> Label </text>
</a>
</g>
<polygon fill="none" stroke="green" points="294,-375.4 294,-403.4 344,-403.4 344,-375.4 294,-375.4"/>
</g>
<!-- 0&#45;&gt;10 -->
<g id="edge1" class="edge">
<title>0&#45;&gt;10</title>
<path fill="none" stroke="black" d="M224.54,-429.28C232.26,-416.39 243.27,-398.01 252.15,-383.2"/>
<polygon fill="black" stroke="black" points="255.21,-384.89 257.35,-374.51 249.21,-381.29 255.21,-384.89"/>
<text text-anchor="middle" x="263.5" y="-397.6" font-family="Times,serif" font-size="14.00">Union</text>
</g>
<!-- 2 -->
<g id="node3" class="node">
<title>2</title>
<ellipse fill="none" stroke="black" cx="84" cy="-268.6" rx="27" ry="18"/>
<text text-anchor="start" x="77" y="-265.4" font-family="Times,serif" font-size="14.00">x</text>
<text text-anchor="start" x="84" y="-265.4" font-family="Times,serif" baseline-shift="sub" font-size="14.00">0</text>
<g id="a_node3_3"><a xlink:href="C:\Users\turco\OneDrive\Desktop\ProgettoIntelligentWeb\Progetto\graph\normal\2.txt" xlink:title="Clicca per visualizzare Lx" target="_blank">
<polygon fill="none" stroke="green" points="8,-287.6 8,-313.6 56,-313.6 56,-287.6 8,-287.6"/>
<text text-anchor="start" x="12.56" y="-296" font-family="Times,serif" font-size="14.00"> Label </text>
</a>
</g>
<polygon fill="none" stroke="green" points="7,-286.6 7,-314.6 57,-314.6 57,-286.6 7,-286.6"/>
</g>
<!-- 1&#45;&gt;2 -->
<g id="edge4" class="edge">
<title>1&#45;&gt;2</title>
<path fill="none" stroke="black" d="M147.49,-342.68C140.32,-336.45 131.98,-328.82 125,-321.4 116.79,-312.66 108.44,-302.42 101.44,-293.36"/>
<polygon fill="black" stroke="black" points="104.03,-290.97 95.19,-285.12 98.45,-295.2 104.03,-290.97"/>
<text text-anchor="middle" x="143.5" y="-308.8" font-family="Times,serif" font-size="14.00">Union</text>
</g>
<!-- 4 -->
<g id="node5" class="node">
<title>4</title>
<ellipse fill="none" stroke="black" cx="164" cy="-268.6" rx="27" ry="18"/>
<text text-anchor="start" x="157" y="-265.4" font-family="Times,serif" font-size="14.00">x</text>
<text text-anchor="start" x="164" y="-265.4" font-family="Times,serif" baseline-shift="sub" font-size="14.00">0</text>
<g id="a_node5_4"><a xlink:href="C:\Users\turco\OneDrive\Desktop\ProgettoIntelligentWeb\Progetto\graph\normal\4.txt" xlink:title="Clicca per visualizzare Lx" target="_blank">
<polygon fill="none" stroke="green" points="88,-223.6 88,-249.6 136,-249.6 136,-223.6 88,-223.6"/>
<text text-anchor="start" x="92.56" y="-232" font-family="Times,serif" font-size="14.00"> Label </text>
</a>
</g>
<polygon fill="none" stroke="green" points="87,-222.6 87,-250.6 137,-250.6 137,-222.6 87,-222.6"/>
</g>
<!-- 1&#45;&gt;4 -->
<g id="edge3" class="edge">
<title>1&#45;&gt;4</title>
<path fill="none" stroke="black" d="M164,-339.25C164,-327.12 164,-310.62 164,-296.72"/>
<polygon fill="black" stroke="black" points="167.5,-296.71 164,-286.71 160.5,-296.71 167.5,-296.71"/>
<text text-anchor="middle" x="181.5" y="-308.8" font-family="Times,serif" font-size="14.00">Union</text>
</g>
<!-- 3 -->
<g id="node4" class="node">
<title>3</title>
<ellipse fill="none" stroke="black" cx="76" cy="-179.8" rx="42.88" ry="18"/>
<text text-anchor="start" x="53.06" y="-175.6" font-family="Times,serif" font-size="14.00">CLASH</text>
</g>
<!-- 2&#45;&gt;3 -->
<g id="edge5" class="edge">
<title>2&#45;&gt;3</title>
<path fill="none" stroke="red" d="M82.42,-250.45C81.3,-238.32 79.78,-221.82 78.5,-207.92"/>
<polygon fill="red" stroke="red" points="81.98,-207.55 77.58,-197.91 75.01,-208.19 81.98,-207.55"/>
</g>
<!-- 5 -->
<g id="node6" class="node">
<title>5</title>
<ellipse fill="none" stroke="black" cx="164" cy="-179.8" rx="27" ry="18"/>
<text text-anchor="start" x="153.5" y="-176.6" font-family="Times,serif" font-size="14.00">x</text>
<text text-anchor="start" x="160.5" y="-176.6" font-family="Times,serif" baseline-shift="sub" font-size="14.00">01</text>
<g id="a_node6_5"><a xlink:href="C:\Users\turco\OneDrive\Desktop\ProgettoIntelligentWeb\Progetto\graph\normal\5.txt" xlink:title="Clicca per visualizzare Lx" target="_blank">
<polygon fill="none" stroke="green" points="192,-198.8 192,-224.8 240,-224.8 240,-198.8 192,-198.8"/>
<text text-anchor="start" x="196.56" y="-207.2" font-family="Times,serif" font-size="14.00"> Label </text>
</a>
</g>
<polygon fill="none" stroke="green" points="191,-197.8 191,-225.8 241,-225.8 241,-197.8 191,-197.8"/>
</g>
<!-- 4&#45;&gt;5 -->
<g id="edge6" class="edge">
<title>4&#45;&gt;5</title>
<path fill="none" stroke="black" d="M164,-250.45C164,-238.32 164,-221.82 164,-207.92"/>
<polygon fill="black" stroke="black" points="167.5,-207.91 164,-197.91 160.5,-207.91 167.5,-207.91"/>
<text text-anchor="middle" x="168.67" y="-220" font-family="Times,serif" font-size="14.00">R</text>
</g>
<!-- 6 -->
<g id="node7" class="node">
<title>6</title>
<ellipse fill="none" stroke="black" cx="77" cy="-91" rx="27" ry="18"/>
<text text-anchor="start" x="66.5" y="-87.8" font-family="Times,serif" font-size="14.00">x</text>
<text text-anchor="start" x="73.5" y="-87.8" font-family="Times,serif" baseline-shift="sub" font-size="14.00">01</text>
<g id="a_node7_6"><a xlink:href="C:\Users\turco\OneDrive\Desktop\ProgettoIntelligentWeb\Progetto\graph\normal\6.txt" xlink:title="Clicca per visualizzare Lx" target="_blank">
<polygon fill="none" stroke="green" points="1,-110 1,-136 49,-136 49,-110 1,-110"/>
<text text-anchor="start" x="5.56" y="-118.4" font-family="Times,serif" font-size="14.00"> Label </text>
</a>
</g>
<polygon fill="none" stroke="green" points="0,-109 0,-137 50,-137 50,-109 0,-109"/>
</g>
<!-- 5&#45;&gt;6 -->
<g id="edge8" class="edge">
<title>5&#45;&gt;6</title>
<path fill="none" stroke="black" d="M148.14,-165.16C140.94,-158.81 132.39,-151.07 125,-143.8 115.54,-134.49 105.49,-123.79 97.05,-114.54"/>
<polygon fill="black" stroke="black" points="99.4,-111.92 90.1,-106.85 94.21,-116.62 99.4,-111.92"/>
<text text-anchor="middle" x="143.5" y="-131.2" font-family="Times,serif" font-size="14.00">Union</text>
</g>
<!-- 8 -->
<g id="node9" class="node">
<title>8</title>
<ellipse fill="none" stroke="black" cx="164" cy="-91" rx="27" ry="18"/>
<text text-anchor="start" x="153.5" y="-87.8" font-family="Times,serif" font-size="14.00">x</text>
<text text-anchor="start" x="160.5" y="-87.8" font-family="Times,serif" baseline-shift="sub" font-size="14.00">01</text>
<g id="a_node9_7"><a xlink:href="C:\Users\turco\OneDrive\Desktop\ProgettoIntelligentWeb\Progetto\graph\normal\8.txt" xlink:title="Clicca per visualizzare Lx" target="_blank">
<polygon fill="none" stroke="green" points="88,-46 88,-72 136,-72 136,-46 88,-46"/>
<text text-anchor="start" x="92.56" y="-54.4" font-family="Times,serif" font-size="14.00"> Label </text>
</a>
</g>
<polygon fill="none" stroke="green" points="87,-45 87,-73 137,-73 137,-45 87,-45"/>
</g>
<!-- 5&#45;&gt;8 -->
<g id="edge7" class="edge">
<title>5&#45;&gt;8</title>
<path fill="none" stroke="black" d="M164,-161.65C164,-149.52 164,-133.02 164,-119.12"/>
<polygon fill="black" stroke="black" points="167.5,-119.11 164,-109.11 160.5,-119.11 167.5,-119.11"/>
<text text-anchor="middle" x="181.5" y="-131.2" font-family="Times,serif" font-size="14.00">Union</text>
</g>
<!-- 7 -->
<g id="node8" class="node">
<title>7</title>
<ellipse fill="none" stroke="black" cx="61" cy="-18" rx="42.88" ry="18"/>
<text text-anchor="start" x="38.06" y="-13.8" font-family="Times,serif" font-size="14.00">CLASH</text>
</g>
<!-- 6&#45;&gt;7 -->
<g id="edge9" class="edge">
<title>6&#45;&gt;7</title>
<path fill="none" stroke="red" d="M73.21,-73.17C71.38,-65.07 69.15,-55.15 67.09,-46.03"/>
<polygon fill="red" stroke="red" points="70.49,-45.18 64.88,-36.2 63.66,-46.72 70.49,-45.18"/>
</g>
<!-- 9 -->
<g id="node10" class="node">
<title>9</title>
<ellipse fill="none" stroke="black" cx="164" cy="-18" rx="42.88" ry="18"/>
<text text-anchor="start" x="141.06" y="-13.8" font-family="Times,serif" font-size="14.00">CLASH</text>
</g>
<!-- 8&#45;&gt;9 -->
<g id="edge10" class="edge">
<title>8&#45;&gt;9</title>
<path fill="none" stroke="red" d="M164,-72.81C164,-64.79 164,-55.05 164,-46.07"/>
<polygon fill="red" stroke="red" points="167.5,-46.03 164,-36.03 160.5,-46.03 167.5,-46.03"/>
</g>
<!-- 11 -->
<g id="node12" class="node">
<title>11</title>
<ellipse fill="none" stroke="black" cx="267" cy="-268.6" rx="27" ry="18"/>
<text text-anchor="start" x="260" y="-265.4" font-family="Times,serif" font-size="14.00">x</text>
<text text-anchor="start" x="267" y="-265.4" font-family="Times,serif" baseline-shift="sub" font-size="14.00">0</text>
<g id="a_node12_8"><a xlink:href="C:\Users\turco\OneDrive\Desktop\ProgettoIntelligentWeb\Progetto\graph\normal\11.txt" xlink:title="Clicca per visualizzare Lx" target="_blank">
<polygon fill="none" stroke="green" points="295,-223.6 295,-249.6 343,-249.6 343,-223.6 295,-223.6"/>
<text text-anchor="start" x="299.56" y="-232" font-family="Times,serif" font-size="14.00"> Label </text>
</a>
</g>
<polygon fill="none" stroke="green" points="294,-222.6 294,-250.6 344,-250.6 344,-222.6 294,-222.6"/>
</g>
<!-- 10&#45;&gt;11 -->
<g id="edge12" class="edge">
<title>10&#45;&gt;11</title>
<path fill="none" stroke="black" d="M267,-339.25C267,-327.12 267,-310.62 267,-296.72"/>
<polygon fill="black" stroke="black" points="270.5,-296.71 267,-286.71 263.5,-296.71 270.5,-296.71"/>
<text text-anchor="middle" x="284.5" y="-308.8" font-family="Times,serif" font-size="14.00">Union</text>
</g>
<!-- 17 -->
<g id="node18" class="node">
<title>17</title>
<ellipse fill="none" stroke="black" cx="348" cy="-268.6" rx="27" ry="18"/>
<text text-anchor="start" x="341" y="-265.4" font-family="Times,serif" font-size="14.00">x</text>
<text text-anchor="start" x="348" y="-265.4" font-family="Times,serif" baseline-shift="sub" font-size="14.00">0</text>
<g id="a_node18_9"><a xlink:href="C:\Users\turco\OneDrive\Desktop\ProgettoIntelligentWeb\Progetto\graph\normal\17.txt" xlink:title="Clicca per visualizzare Lx" target="_blank">
<polygon fill="none" stroke="green" points="376,-287.6 376,-313.6 424,-313.6 424,-287.6 376,-287.6"/>
<text text-anchor="start" x="380.56" y="-296" font-family="Times,serif" font-size="14.00"> Label </text>
</a>
</g>
<polygon fill="none" stroke="green" points="375,-286.6 375,-314.6 425,-314.6 425,-286.6 375,-286.6"/>
</g>
<!-- 10&#45;&gt;17 -->
<g id="edge11" class="edge">
<title>10&#45;&gt;17</title>
<path fill="none" stroke="black" d="M283.47,-342.64C290.64,-336.41 298.98,-328.78 306,-321.4 314.43,-312.54 323.06,-302.17 330.28,-293.04"/>
<polygon fill="black" stroke="black" points="333.09,-295.13 336.47,-285.09 327.57,-290.83 333.09,-295.13"/>
<text text-anchor="middle" x="338.5" y="-308.8" font-family="Times,serif" font-size="14.00">Union</text>
</g>
<!-- 12 -->
<g id="node13" class="node">
<title>12</title>
<ellipse fill="none" stroke="black" cx="267" cy="-179.8" rx="27" ry="18"/>
<text text-anchor="start" x="256.5" y="-176.6" font-family="Times,serif" font-size="14.00">x</text>
<text text-anchor="start" x="263.5" y="-176.6" font-family="Times,serif" baseline-shift="sub" font-size="14.00">01</text>
<g id="a_node13_10"><a xlink:href="C:\Users\turco\OneDrive\Desktop\ProgettoIntelligentWeb\Progetto\graph\normal\12.txt" xlink:title="Clicca per visualizzare Lx" target="_blank">
<polygon fill="none" stroke="green" points="218,-134.8 218,-160.8 266,-160.8 266,-134.8 218,-134.8"/>
<text text-anchor="start" x="222.56" y="-143.2" font-family="Times,serif" font-size="14.00"> Label </text>
</a>
</g>
<polygon fill="none" stroke="green" points="217,-133.8 217,-161.8 267,-161.8 267,-133.8 217,-133.8"/>
</g>
<!-- 11&#45;&gt;12 -->
<g id="edge13" class="edge">
<title>11&#45;&gt;12</title>
<path fill="none" stroke="black" d="M267,-250.45C267,-238.32 267,-221.82 267,-207.92"/>
<polygon fill="black" stroke="black" points="270.5,-207.91 267,-197.91 263.5,-207.91 270.5,-207.91"/>
<text text-anchor="middle" x="271.67" y="-220" font-family="Times,serif" font-size="14.00">R</text>
</g>
<!-- 13 -->
<g id="node14" class="node">
<title>13</title>
<ellipse fill="none" stroke="black" cx="267" cy="-91" rx="27" ry="18"/>
<text text-anchor="start" x="256.5" y="-87.8" font-family="Times,serif" font-size="14.00">x</text>
<text text-anchor="start" x="263.5" y="-87.8" font-family="Times,serif" baseline-shift="sub" font-size="14.00">01</text>
<g id="a_node14_11"><a xlink:href="C:\Users\turco\OneDrive\Desktop\ProgettoIntelligentWeb\Progetto\graph\normal\13.txt" xlink:title="Clicca per visualizzare Lx" target="_blank">
<polygon fill="none" stroke="green" points="191,-46 191,-72 239,-72 239,-46 191,-46"/>
<text text-anchor="start" x="195.56" y="-54.4" font-family="Times,serif" font-size="14.00"> Label </text>
</a>
</g>
<polygon fill="none" stroke="green" points="190,-45 190,-73 240,-73 240,-45 190,-45"/>
</g>
<!-- 12&#45;&gt;13 -->
<g id="edge15" class="edge">
<title>12&#45;&gt;13</title>
<path fill="none" stroke="black" d="M267,-161.65C267,-149.52 267,-133.02 267,-119.12"/>
<polygon fill="black" stroke="black" points="270.5,-119.11 267,-109.11 263.5,-119.11 270.5,-119.11"/>
<text text-anchor="middle" x="284.5" y="-131.2" font-family="Times,serif" font-size="14.00">Union</text>
</g>
<!-- 15 -->
<g id="node16" class="node">
<title>15</title>
<ellipse fill="none" stroke="black" cx="359" cy="-91" rx="27" ry="18"/>
<text text-anchor="start" x="348.5" y="-87.8" font-family="Times,serif" font-size="14.00">x</text>
<text text-anchor="start" x="355.5" y="-87.8" font-family="Times,serif" baseline-shift="sub" font-size="14.00">01</text>
<g id="a_node16_12"><a xlink:href="C:\Users\turco\OneDrive\Desktop\ProgettoIntelligentWeb\Progetto\graph\normal\15.txt" xlink:title="Clicca per visualizzare Lx" target="_blank">
<polygon fill="none" stroke="green" points="283,-46 283,-72 331,-72 331,-46 283,-46"/>
<text text-anchor="start" x="287.56" y="-54.4" font-family="Times,serif" font-size="14.00"> Label </text>
</a>
</g>
<polygon fill="none" stroke="green" points="282,-45 282,-73 332,-73 332,-45 282,-45"/>
</g>
<!-- 12&#45;&gt;15 -->
<g id="edge14" class="edge">
<title>12&#45;&gt;15</title>
<path fill="none" stroke="black" d="M282.7,-164.98C289.87,-158.61 298.43,-150.89 306,-143.8 316.37,-134.08 327.66,-123.11 337.15,-113.77"/>
<polygon fill="black" stroke="black" points="339.66,-116.2 344.31,-106.68 334.74,-111.22 339.66,-116.2"/>
<text text-anchor="middle" x="340.5" y="-131.2" font-family="Times,serif" font-size="14.00">Union</text>
</g>
<!-- 14 -->
<g id="node15" class="node">
<title>14</title>
<ellipse fill="none" stroke="black" cx="267" cy="-18" rx="42.88" ry="18"/>
<text text-anchor="start" x="244.06" y="-13.8" font-family="Times,serif" font-size="14.00">CLASH</text>
</g>
<!-- 13&#45;&gt;14 -->
<g id="edge16" class="edge">
<title>13&#45;&gt;14</title>
<path fill="none" stroke="red" d="M267,-72.81C267,-64.79 267,-55.05 267,-46.07"/>
<polygon fill="red" stroke="red" points="270.5,-46.03 267,-36.03 263.5,-46.03 270.5,-46.03"/>
</g>
<!-- 16 -->
<g id="node17" class="node">
<title>16</title>
<ellipse fill="none" stroke="black" cx="370" cy="-18" rx="42.88" ry="18"/>
<text text-anchor="start" x="347.06" y="-13.8" font-family="Times,serif" font-size="14.00">CLASH</text>
</g>
<!-- 15&#45;&gt;16 -->
<g id="edge17" class="edge">
<title>15&#45;&gt;16</title>
<path fill="none" stroke="red" d="M361.66,-72.81C362.91,-64.79 364.42,-55.05 365.81,-46.07"/>
<polygon fill="red" stroke="red" points="369.29,-46.45 367.36,-36.03 362.37,-45.38 369.29,-46.45"/>
</g>
<!-- 18 -->
<g id="node19" class="node">
<title>18</title>
<ellipse fill="none" stroke="black" cx="355" cy="-179.8" rx="42.88" ry="18"/>
<text text-anchor="start" x="332.06" y="-175.6" font-family="Times,serif" font-size="14.00">CLASH</text>
</g>
<!-- 17&#45;&gt;18 -->
<g id="edge18" class="edge">
<title>17&#45;&gt;18</title>
<path fill="none" stroke="red" d="M349.38,-250.45C350.36,-238.32 351.69,-221.82 352.81,-207.92"/>
<polygon fill="red" stroke="red" points="356.3,-208.16 353.62,-197.91 349.33,-207.6 356.3,-208.16"/>
</g>
</g>
</svg>
