<svg width="1192px" height="521px"
 viewBox="0.00 0.00 1192.26 521.00" xmlns="http://www.w3.org/2000/svg" xmlns:xlink="http://www.w3.org/1999/xlink">
<g id="graph0" class="graph" transform="scale(1.0 1.0) rotate(0.0) translate(4.0 517.0)">
<title>tableaux</title>
<polygon fill="white" stroke="transparent" points="-4,4 -4,-517 1188.26,-517 1188.26,4 -4,4"/>
<!-- 0 -->
<g id="node1" class="node">
<title>0</title>
<ellipse fill="none" stroke="black" cx="584.08" cy="-446.2" rx="27" ry="18"/>
<text text-anchor="middle" x="584.08" y="-442" font-family="Times,serif" font-size="14.00">x0</text>
<text text-anchor="middle" x="371.26" y="-468.4" font-family="Times,serif" font-size="14.00">(B ⊔ ¬A ); ((A ⊔ ¬B )⊓ (B ⊔ ¬A )); ∃R.(A ⊓ ¬B ); (A ⊔ ¬B ); </text>
</g>
<!-- 1 -->
<g id="node2" class="node">
<title>1</title>
<ellipse fill="none" stroke="black" cx="533.08" cy="-357.4" rx="27" ry="18"/>
<text text-anchor="middle" x="533.08" y="-353.2" font-family="Times,serif" font-size="14.00">x0</text>
<text text-anchor="middle" x="310.15" y="-379.6" font-family="Times,serif" font-size="14.00">(B ⊔ ¬A ); ((A ⊔ ¬B )⊓ (B ⊔ ¬A )); B ; ∃R.(A ⊓ ¬B ); (A ⊔ ¬B ); </text>
</g>
<!-- 0&#45;&gt;1 -->
<g id="edge2" class="edge">
<title>0&#45;&gt;1</title>
<path fill="none" stroke="black" d="M574.73,-429.28C567.16,-416.39 556.36,-398.01 547.65,-383.2"/>
<polygon fill="black" stroke="black" points="550.64,-381.36 542.55,-374.51 544.6,-384.91 550.64,-381.36"/>
<text text-anchor="middle" x="581.58" y="-397.6" font-family="Times,serif" font-size="14.00">Union</text>
</g>
<!-- 10 -->
<g id="node11" class="node">
<title>10</title>
<ellipse fill="none" stroke="black" cx="636.08" cy="-357.4" rx="27" ry="18"/>
<text text-anchor="middle" x="636.08" y="-353.2" font-family="Times,serif" font-size="14.00">x0</text>
<text text-anchor="middle" x="864.07" y="-379.6" font-family="Times,serif" font-size="14.00">(B ⊔ ¬A ); ((A ⊔ ¬B )⊓ (B ⊔ ¬A )); ∃R.(A ⊓ ¬B ); ¬A ; (A ⊔ ¬B ); </text>
</g>
<!-- 0&#45;&gt;10 -->
<g id="edge1" class="edge">
<title>0&#45;&gt;10</title>
<path fill="none" stroke="black" d="M593.62,-429.28C601.34,-416.39 612.36,-398.01 621.23,-383.2"/>
<polygon fill="black" stroke="black" points="624.29,-384.89 626.43,-374.51 618.29,-381.29 624.29,-384.89"/>
<text text-anchor="middle" x="632.58" y="-397.6" font-family="Times,serif" font-size="14.00">Union</text>
</g>
<!-- 2 -->
<g id="node3" class="node">
<title>2</title>
<ellipse fill="none" stroke="black" cx="453.08" cy="-268.6" rx="27" ry="18"/>
<text text-anchor="middle" x="453.08" y="-264.4" font-family="Times,serif" font-size="14.00">x0</text>
<text text-anchor="middle" x="215.37" y="-290.8" font-family="Times,serif" font-size="14.00">(B ⊔ ¬A ); ((A ⊔ ¬B )⊓ (B ⊔ ¬A )); B ; ∃R.(A ⊓ ¬B ); ¬B ; (A ⊔ ¬B ); </text>
</g>
<!-- 1&#45;&gt;2 -->
<g id="edge4" class="edge">
<title>1&#45;&gt;2</title>
<path fill="none" stroke="black" d="M516.57,-342.68C509.4,-336.45 501.07,-328.82 494.09,-321.4 485.87,-312.66 477.53,-302.42 470.53,-293.36"/>
<polygon fill="black" stroke="black" points="473.11,-290.97 464.28,-285.12 467.53,-295.2 473.11,-290.97"/>
<text text-anchor="middle" x="512.58" y="-308.8" font-family="Times,serif" font-size="14.00">Union</text>
</g>
<!-- 4 -->
<g id="node5" class="node">
<title>4</title>
<ellipse fill="none" stroke="black" cx="533.08" cy="-268.6" rx="27" ry="18"/>
<text text-anchor="middle" x="533.08" y="-264.4" font-family="Times,serif" font-size="14.00">x0</text>
<text text-anchor="middle" x="299.65" y="-206" font-family="Times,serif" font-size="14.00">(B ⊔ ¬A ); ((A ⊔ ¬B )⊓ (B ⊔ ¬A )); A ; B ; ∃R.(A ⊓ ¬B ); (A ⊔ ¬B ); </text>
</g>
<!-- 1&#45;&gt;4 -->
<g id="edge3" class="edge">
<title>1&#45;&gt;4</title>
<path fill="none" stroke="black" d="M533.08,-339.25C533.08,-327.12 533.08,-310.62 533.08,-296.72"/>
<polygon fill="black" stroke="black" points="536.58,-296.71 533.08,-286.71 529.58,-296.71 536.58,-296.71"/>
<text text-anchor="middle" x="550.58" y="-308.8" font-family="Times,serif" font-size="14.00">Union</text>
</g>
<!-- 3 -->
<g id="node4" class="node">
<title>3</title>
<ellipse fill="none" stroke="black" cx="445.08" cy="-179.8" rx="42.88" ry="18"/>
<text text-anchor="middle" x="445.08" y="-175.6" font-family="Times,serif" font-size="14.00">CLASH</text>
</g>
<!-- 2&#45;&gt;3 -->
<g id="edge5" class="edge">
<title>2&#45;&gt;3</title>
<path fill="none" stroke="black" d="M451.5,-250.45C450.39,-238.32 448.86,-221.82 447.58,-207.92"/>
<polygon fill="black" stroke="black" points="451.06,-207.55 446.66,-197.91 444.09,-208.19 451.06,-207.55"/>
</g>
<!-- 5 -->
<g id="node6" class="node">
<title>5</title>
<ellipse fill="none" stroke="black" cx="533.08" cy="-179.8" rx="27" ry="18"/>
<text text-anchor="middle" x="533.08" y="-175.6" font-family="Times,serif" font-size="14.00">x01</text>
<text text-anchor="middle" x="667.76" y="-202" font-family="Times,serif" font-size="14.00">((A ⊔ ¬B )⊓ (B ⊔ ¬A )); (A ⊓ ¬B ); </text>
</g>
<!-- 4&#45;&gt;5 -->
<g id="edge6" class="edge">
<title>4&#45;&gt;5</title>
<path fill="none" stroke="black" d="M533.08,-250.45C533.08,-238.32 533.08,-221.82 533.08,-207.92"/>
<polygon fill="black" stroke="black" points="536.58,-207.91 533.08,-197.91 529.58,-207.91 536.58,-207.91"/>
<text text-anchor="middle" x="537.75" y="-220" font-family="Times,serif" font-size="14.00">R</text>
</g>
<!-- 6 -->
<g id="node7" class="node">
<title>6</title>
<ellipse fill="none" stroke="black" cx="446.08" cy="-91" rx="27" ry="18"/>
<text text-anchor="middle" x="446.08" y="-86.8" font-family="Times,serif" font-size="14.00">x01</text>
<text text-anchor="middle" x="209.54" y="-113.2" font-family="Times,serif" font-size="14.00">(B ⊔ ¬A ); ((A ⊔ ¬B )⊓ (B ⊔ ¬A )); A ; B ; (A ⊓ ¬B ); ¬B ; (A ⊔ ¬B ); </text>
</g>
<!-- 5&#45;&gt;6 -->
<g id="edge8" class="edge">
<title>5&#45;&gt;6</title>
<path fill="none" stroke="black" d="M517.22,-165.16C510.02,-158.81 501.48,-151.07 494.09,-143.8 484.63,-134.49 474.58,-123.79 466.14,-114.54"/>
<polygon fill="black" stroke="black" points="468.49,-111.92 459.18,-106.85 463.3,-116.62 468.49,-111.92"/>
<text text-anchor="middle" x="512.58" y="-131.2" font-family="Times,serif" font-size="14.00">Union</text>
</g>
<!-- 8 -->
<g id="node9" class="node">
<title>8</title>
<ellipse fill="none" stroke="black" cx="533.08" cy="-91" rx="27" ry="18"/>
<text text-anchor="middle" x="533.08" y="-86.8" font-family="Times,serif" font-size="14.00">x01</text>
<text text-anchor="middle" x="291.5" y="-28.4" font-family="Times,serif" font-size="14.00">(B ⊔ ¬A ); ((A ⊔ ¬B )⊓ (B ⊔ ¬A )); A ; (A ⊓ ¬B ); ¬A ; ¬B ; (A ⊔ ¬B ); </text>
</g>
<!-- 5&#45;&gt;8 -->
<g id="edge7" class="edge">
<title>5&#45;&gt;8</title>
<path fill="none" stroke="black" d="M533.08,-161.65C533.08,-149.52 533.08,-133.02 533.08,-119.12"/>
<polygon fill="black" stroke="black" points="536.58,-119.11 533.08,-109.11 529.58,-119.11 536.58,-119.11"/>
<text text-anchor="middle" x="550.58" y="-131.2" font-family="Times,serif" font-size="14.00">Union</text>
</g>
<!-- 7 -->
<g id="node8" class="node">
<title>7</title>
<ellipse fill="none" stroke="black" cx="430.08" cy="-18" rx="42.88" ry="18"/>
<text text-anchor="middle" x="430.08" y="-13.8" font-family="Times,serif" font-size="14.00">CLASH</text>
</g>
<!-- 6&#45;&gt;7 -->
<g id="edge9" class="edge">
<title>6&#45;&gt;7</title>
<path fill="none" stroke="black" d="M442.29,-73.17C440.47,-65.07 438.23,-55.15 436.17,-46.03"/>
<polygon fill="black" stroke="black" points="439.57,-45.18 433.96,-36.2 432.74,-46.72 439.57,-45.18"/>
</g>
<!-- 9 -->
<g id="node10" class="node">
<title>9</title>
<ellipse fill="none" stroke="black" cx="533.08" cy="-18" rx="42.88" ry="18"/>
<text text-anchor="middle" x="533.08" y="-13.8" font-family="Times,serif" font-size="14.00">CLASH</text>
</g>
<!-- 8&#45;&gt;9 -->
<g id="edge10" class="edge">
<title>8&#45;&gt;9</title>
<path fill="none" stroke="black" d="M533.08,-72.81C533.08,-64.79 533.08,-55.05 533.08,-46.07"/>
<polygon fill="black" stroke="black" points="536.58,-46.03 533.08,-36.03 529.58,-46.03 536.58,-46.03"/>
</g>
<!-- 11 -->
<g id="node12" class="node">
<title>11</title>
<ellipse fill="none" stroke="black" cx="636.08" cy="-268.6" rx="27" ry="18"/>
<text text-anchor="middle" x="636.08" y="-264.4" font-family="Times,serif" font-size="14.00">x0</text>
<text text-anchor="middle" x="878.84" y="-290.8" font-family="Times,serif" font-size="14.00">(B ⊔ ¬A ); ((A ⊔ ¬B )⊓ (B ⊔ ¬A )); ∃R.(A ⊓ ¬B ); ¬A ; ¬B ; (A ⊔ ¬B ); </text>
</g>
<!-- 10&#45;&gt;11 -->
<g id="edge12" class="edge">
<title>10&#45;&gt;11</title>
<path fill="none" stroke="black" d="M636.08,-339.25C636.08,-327.12 636.08,-310.62 636.08,-296.72"/>
<polygon fill="black" stroke="black" points="639.58,-296.71 636.08,-286.71 632.58,-296.71 639.58,-296.71"/>
<text text-anchor="middle" x="653.58" y="-308.8" font-family="Times,serif" font-size="14.00">Union</text>
</g>
<!-- 17 -->
<g id="node18" class="node">
<title>17</title>
<ellipse fill="none" stroke="black" cx="717.08" cy="-268.6" rx="27" ry="18"/>
<text text-anchor="middle" x="717.08" y="-264.4" font-family="Times,serif" font-size="14.00">x0</text>
<text text-anchor="middle" x="955.57" y="-206" font-family="Times,serif" font-size="14.00">(B ⊔ ¬A ); ((A ⊔ ¬B )⊓ (B ⊔ ¬A )); A ; ∃R.(A ⊓ ¬B ); ¬A ; (A ⊔ ¬B ); </text>
</g>
<!-- 10&#45;&gt;17 -->
<g id="edge11" class="edge">
<title>10&#45;&gt;17</title>
<path fill="none" stroke="black" d="M652.56,-342.64C659.72,-336.41 668.06,-328.78 675.08,-321.4 683.51,-312.54 692.14,-302.17 699.36,-293.04"/>
<polygon fill="black" stroke="black" points="702.17,-295.13 705.56,-285.09 696.65,-290.83 702.17,-295.13"/>
<text text-anchor="middle" x="707.58" y="-308.8" font-family="Times,serif" font-size="14.00">Union</text>
</g>
<!-- 12 -->
<g id="node13" class="node">
<title>12</title>
<ellipse fill="none" stroke="black" cx="636.08" cy="-179.8" rx="27" ry="18"/>
<text text-anchor="middle" x="636.08" y="-175.6" font-family="Times,serif" font-size="14.00">x01</text>
<text text-anchor="middle" x="770.76" y="-117.2" font-family="Times,serif" font-size="14.00">((A ⊔ ¬B )⊓ (B ⊔ ¬A )); (A ⊓ ¬B ); </text>
</g>
<!-- 11&#45;&gt;12 -->
<g id="edge13" class="edge">
<title>11&#45;&gt;12</title>
<path fill="none" stroke="black" d="M636.08,-250.45C636.08,-238.32 636.08,-221.82 636.08,-207.92"/>
<polygon fill="black" stroke="black" points="639.58,-207.91 636.08,-197.91 632.58,-207.91 639.58,-207.91"/>
<text text-anchor="middle" x="640.75" y="-220" font-family="Times,serif" font-size="14.00">R</text>
</g>
<!-- 13 -->
<g id="node14" class="node">
<title>13</title>
<ellipse fill="none" stroke="black" cx="636.08" cy="-91" rx="27" ry="18"/>
<text text-anchor="middle" x="636.08" y="-86.8" font-family="Times,serif" font-size="14.00">x01</text>
<text text-anchor="middle" x="818.63" y="-28.4" font-family="Times,serif" font-size="14.00">(B ⊔ ¬A ); ((A ⊔ ¬B )⊓ (B ⊔ ¬A )); A ; B ; (A ⊓ ¬B ); ¬B ; (A ⊔ ¬B ); </text>
</g>
<!-- 12&#45;&gt;13 -->
<g id="edge15" class="edge">
<title>12&#45;&gt;13</title>
<path fill="none" stroke="black" d="M636.08,-161.65C636.08,-149.52 636.08,-133.02 636.08,-119.12"/>
<polygon fill="black" stroke="black" points="639.58,-119.11 636.08,-109.11 632.58,-119.11 639.58,-119.11"/>
<text text-anchor="middle" x="653.58" y="-131.2" font-family="Times,serif" font-size="14.00">Union</text>
</g>
<!-- 15 -->
<g id="node16" class="node">
<title>15</title>
<ellipse fill="none" stroke="black" cx="728.08" cy="-91" rx="27" ry="18"/>
<text text-anchor="middle" x="728.08" y="-86.8" font-family="Times,serif" font-size="14.00">x01</text>
<text text-anchor="middle" x="969.67" y="-77.2" font-family="Times,serif" font-size="14.00">(B ⊔ ¬A ); ((A ⊔ ¬B )⊓ (B ⊔ ¬A )); A ; (A ⊓ ¬B ); ¬A ; ¬B ; (A ⊔ ¬B ); </text>
</g>
<!-- 12&#45;&gt;15 -->
<g id="edge14" class="edge">
<title>12&#45;&gt;15</title>
<path fill="none" stroke="black" d="M651.78,-164.98C658.95,-158.61 667.51,-150.89 675.08,-143.8 685.46,-134.08 696.75,-123.11 706.23,-113.77"/>
<polygon fill="black" stroke="black" points="708.75,-116.2 713.4,-106.68 703.83,-111.22 708.75,-116.2"/>
<text text-anchor="middle" x="709.58" y="-131.2" font-family="Times,serif" font-size="14.00">Union</text>
</g>
<!-- 14 -->
<g id="node15" class="node">
<title>14</title>
<ellipse fill="none" stroke="black" cx="636.08" cy="-18" rx="42.88" ry="18"/>
<text text-anchor="middle" x="636.08" y="-13.8" font-family="Times,serif" font-size="14.00">CLASH</text>
</g>
<!-- 13&#45;&gt;14 -->
<g id="edge16" class="edge">
<title>13&#45;&gt;14</title>
<path fill="none" stroke="black" d="M636.08,-72.81C636.08,-64.79 636.08,-55.05 636.08,-46.07"/>
<polygon fill="black" stroke="black" points="639.58,-46.03 636.08,-36.03 632.58,-46.03 639.58,-46.03"/>
</g>
<!-- 16 -->
<g id="node17" class="node">
<title>16</title>
<ellipse fill="none" stroke="black" cx="739.08" cy="-18" rx="42.88" ry="18"/>
<text text-anchor="middle" x="739.08" y="-13.8" font-family="Times,serif" font-size="14.00">CLASH</text>
</g>
<!-- 15&#45;&gt;16 -->
<g id="edge17" class="edge">
<title>15&#45;&gt;16</title>
<path fill="none" stroke="black" d="M730.75,-72.81C731.99,-64.79 733.5,-55.05 734.89,-46.07"/>
<polygon fill="black" stroke="black" points="738.37,-46.45 736.45,-36.03 731.46,-45.38 738.37,-46.45"/>
</g>
<!-- 18 -->
<g id="node19" class="node">
<title>18</title>
<ellipse fill="none" stroke="black" cx="724.08" cy="-179.8" rx="42.88" ry="18"/>
<text text-anchor="middle" x="724.08" y="-175.6" font-family="Times,serif" font-size="14.00">CLASH</text>
</g>
<!-- 17&#45;&gt;18 -->
<g id="edge18" class="edge">
<title>17&#45;&gt;18</title>
<path fill="none" stroke="black" d="M718.47,-250.45C719.45,-238.32 720.78,-221.82 721.9,-207.92"/>
<polygon fill="black" stroke="black" points="725.39,-208.16 722.7,-197.91 718.41,-207.6 725.39,-208.16"/>
</g>
</g>
</svg>
