<svg width="721px" height="408px"
 viewBox="0.00 0.00 720.93 408.00" xmlns="http://www.w3.org/2000/svg" xmlns:xlink="http://www.w3.org/1999/xlink">
<g id="graph0" class="graph" transform="scale(1.0 1.0) rotate(0.0) translate(4.0 404.0)">
<title>tableaux</title>
<polygon fill="white" stroke="transparent" points="-4,4 -4,-404 716.93,-404 716.93,4 -4,4"/>
<!-- 0 -->
<g id="node1" class="node">
<title>0</title>
<ellipse fill="none" stroke="black" cx="484.42" cy="-333.2" rx="27" ry="18"/>
<text text-anchor="middle" x="484.42" y="-329" font-family="Times,serif" font-size="14.00">x0</text>
<text text-anchor="middle" x="271.6" y="-355.4" font-family="Times,serif" font-size="14.00">(B ⊔ ¬A ); ((A ⊔ ¬B )⊓ (B ⊔ ¬A )); ∃R.(A ⊓ ¬B ); (A ⊔ ¬B ); </text>
</g>
<!-- 1 -->
<g id="node2" class="node">
<title>1</title>
<ellipse fill="none" stroke="black" cx="484.42" cy="-244.4" rx="27" ry="18"/>
<text text-anchor="middle" x="484.42" y="-240.2" font-family="Times,serif" font-size="14.00">x0</text>
<text text-anchor="middle" x="261.49" y="-266.6" font-family="Times,serif" font-size="14.00">(B ⊔ ¬A ); ((A ⊔ ¬B )⊓ (B ⊔ ¬A )); B ; ∃R.(A ⊓ ¬B ); (A ⊔ ¬B ); </text>
</g>
<!-- 0&#45;&gt;1 -->
<g id="edge1" class="edge">
<title>0&#45;&gt;1</title>
<path fill="none" stroke="black" d="M484.42,-315.05C484.42,-302.92 484.42,-286.42 484.42,-272.52"/>
<polygon fill="black" stroke="black" points="487.92,-272.51 484.42,-262.51 480.92,-272.51 487.92,-272.51"/>
<text text-anchor="middle" x="501.92" y="-284.6" font-family="Times,serif" font-size="14.00">Union</text>
</g>
<!-- 2 -->
<g id="node3" class="node">
<title>2</title>
<ellipse fill="none" stroke="black" cx="448.42" cy="-155.6" rx="27" ry="18"/>
<text text-anchor="middle" x="448.42" y="-151.4" font-family="Times,serif" font-size="14.00">x0</text>
<text text-anchor="middle" x="210.71" y="-177.8" font-family="Times,serif" font-size="14.00">(B ⊔ ¬A ); ((A ⊔ ¬B )⊓ (B ⊔ ¬A )); B ; ∃R.(A ⊓ ¬B ); ¬B ; (A ⊔ ¬B ); </text>
</g>
<!-- 1&#45;&gt;2 -->
<g id="edge3" class="edge">
<title>1&#45;&gt;2</title>
<path fill="none" stroke="black" d="M471.5,-228.21C467.09,-222.34 462.5,-215.37 459.43,-208.4 456.08,-200.79 453.72,-192.1 452.08,-184.04"/>
<polygon fill="black" stroke="black" points="455.48,-183.18 450.3,-173.94 448.59,-184.4 455.48,-183.18"/>
<text text-anchor="middle" x="477.92" y="-195.8" font-family="Times,serif" font-size="14.00">Union</text>
</g>
<!-- 4 -->
<g id="node5" class="node">
<title>4</title>
<ellipse fill="none" stroke="black" cx="528.42" cy="-155.6" rx="27" ry="18"/>
<text text-anchor="middle" x="528.42" y="-151.4" font-family="Times,serif" font-size="14.00">x0</text>
<text text-anchor="middle" x="294.99" y="-93" font-family="Times,serif" font-size="14.00">(B ⊔ ¬A ); ((A ⊔ ¬B )⊓ (B ⊔ ¬A )); A ; B ; ∃R.(A ⊓ ¬B ); (A ⊔ ¬B ); </text>
</g>
<!-- 1&#45;&gt;4 -->
<g id="edge2" class="edge">
<title>1&#45;&gt;4</title>
<path fill="none" stroke="black" d="M492.7,-227.07C499.15,-214.34 508.23,-196.44 515.62,-181.86"/>
<polygon fill="black" stroke="black" points="518.79,-183.36 520.18,-172.85 512.54,-180.19 518.79,-183.36"/>
<text text-anchor="middle" x="527.92" y="-195.8" font-family="Times,serif" font-size="14.00">Union</text>
</g>
<!-- 3 -->
<g id="node4" class="node">
<title>3</title>
<ellipse fill="none" stroke="black" cx="440.42" cy="-66.8" rx="42.88" ry="18"/>
<text text-anchor="middle" x="440.42" y="-62.6" font-family="Times,serif" font-size="14.00">CLASH</text>
</g>
<!-- 2&#45;&gt;3 -->
<g id="edge4" class="edge">
<title>2&#45;&gt;3</title>
<path fill="none" stroke="black" d="M446.84,-137.45C445.73,-125.32 444.2,-108.82 442.92,-94.92"/>
<polygon fill="black" stroke="black" points="446.4,-94.55 442,-84.91 439.43,-95.19 446.4,-94.55"/>
</g>
<!-- 5 -->
<g id="node6" class="node">
<title>5</title>
<ellipse fill="none" stroke="black" cx="528.42" cy="-66.8" rx="27" ry="18"/>
<text text-anchor="middle" x="528.42" y="-62.6" font-family="Times,serif" font-size="14.00">x01</text>
<text text-anchor="middle" x="258.05" y="-4.2" font-family="Times,serif" font-size="14.00">(B ⊔ ¬A ); ((A ⊔ ¬B )⊓ (B ⊔ ¬A )); A ; B ; ∃R.(A ⊓ ¬B ); (A ⊓ ¬B ); ; (A ⊔ ¬B ); </text>
</g>
<!-- 4&#45;&gt;5 -->
<g id="edge6" class="edge">
<title>4&#45;&gt;5</title>
<path fill="none" stroke="black" d="M528.42,-137.45C528.42,-125.32 528.42,-108.82 528.42,-94.92"/>
<polygon fill="black" stroke="black" points="531.92,-94.91 528.42,-84.91 524.92,-94.91 531.92,-94.91"/>
<text text-anchor="middle" x="544.49" y="-107" font-family="Times,serif" font-size="14.00">&lt;#R&gt;</text>
</g>
<!-- 6 -->
<g id="node7" class="node">
<title>6</title>
<ellipse fill="none" stroke="black" cx="643.42" cy="-66.8" rx="69.52" ry="18"/>
<text text-anchor="middle" x="643.42" y="-62.6" font-family="Times,serif" font-size="14.00">CLASH&#45;FREE</text>
</g>
<!-- 4&#45;&gt;6 -->
<g id="edge5" class="edge">
<title>4&#45;&gt;6</title>
<path fill="none" stroke="black" d="M545.89,-141.42C563.86,-127.85 592.19,-106.47 613.7,-90.23"/>
<polygon fill="black" stroke="black" points="615.99,-92.89 621.86,-84.07 611.77,-87.3 615.99,-92.89"/>
</g>
</g>
</svg>
