<svg width="270px" height="411px"
 viewBox="0.00 0.00 269.51 411.40" xmlns="http://www.w3.org/2000/svg" xmlns:xlink="http://www.w3.org/1999/xlink">
<g id="graph0" class="graph" transform="scale(1.0 1.0) rotate(0.0) translate(4.0 407.4)">
<title>tableaux</title>
<polygon fill="white" stroke="transparent" points="-4,4 -4,-407.4 265.51,-407.4 265.51,4 -4,4"/>
<!-- 0 -->
<g id="node1" class="node">
<title>0</title>
<ellipse fill="none" stroke="black" cx="113" cy="-357.4" rx="27" ry="18"/>
<text text-anchor="start" x="106" y="-354.2" font-family="Times,serif" font-size="14.00">x</text>
<text text-anchor="start" x="113" y="-354.2" font-family="Times,serif" baseline-shift="sub" font-size="14.00">0</text>
<g id="a_node1_0"><a xlink:href="C:\Users\checc\Desktop\ProgettoIntelligentWeb\Progetto\graph\normal\0.txt" xlink:title="Clicca per visualizzare Lx" target="_blank">
<polygon fill="none" stroke="green" points="37,-376.4 37,-402.4 85,-402.4 85,-376.4 37,-376.4"/>
<text text-anchor="start" x="41.56" y="-384.8" font-family="Times,serif" font-size="14.00"> Label </text>
</a>
</g>
<polygon fill="none" stroke="green" points="36,-375.4 36,-403.4 86,-403.4 86,-375.4 36,-375.4"/>
</g>
<!-- 1 -->
<g id="node2" class="node">
<title>1</title>
<ellipse fill="none" stroke="black" cx="113" cy="-268.6" rx="27" ry="18"/>
<text text-anchor="start" x="106" y="-265.4" font-family="Times,serif" font-size="14.00">x</text>
<text text-anchor="start" x="113" y="-265.4" font-family="Times,serif" baseline-shift="sub" font-size="14.00">0</text>
<g id="a_node2_1"><a xlink:href="C:\Users\checc\Desktop\ProgettoIntelligentWeb\Progetto\graph\normal\1.txt" xlink:title="Clicca per visualizzare Lx" target="_blank">
<polygon fill="none" stroke="green" points="37,-287.6 37,-313.6 85,-313.6 85,-287.6 37,-287.6"/>
<text text-anchor="start" x="41.56" y="-296" font-family="Times,serif" font-size="14.00"> Label </text>
</a>
</g>
<polygon fill="none" stroke="green" points="36,-286.6 36,-314.6 86,-314.6 86,-286.6 36,-286.6"/>
</g>
<!-- 0&#45;&gt;1 -->
<g id="edge1" class="edge">
<title>0&#45;&gt;1</title>
<path fill="none" stroke="black" d="M113,-339.25C113,-327.12 113,-310.62 113,-296.72"/>
<polygon fill="black" stroke="black" points="116.5,-296.71 113,-286.71 109.5,-296.71 116.5,-296.71"/>
<text text-anchor="middle" x="130.5" y="-308.8" font-family="Times,serif" font-size="14.00">Union</text>
</g>
<!-- 2 -->
<g id="node3" class="node">
<title>2</title>
<ellipse fill="none" stroke="black" cx="113" cy="-179.8" rx="27" ry="18"/>
<text text-anchor="start" x="106" y="-176.6" font-family="Times,serif" font-size="14.00">x</text>
<text text-anchor="start" x="113" y="-176.6" font-family="Times,serif" baseline-shift="sub" font-size="14.00">0</text>
<g id="a_node3_2"><a xlink:href="C:\Users\checc\Desktop\ProgettoIntelligentWeb\Progetto\graph\normal\2.txt" xlink:title="Clicca per visualizzare Lx" target="_blank">
<polygon fill="none" stroke="green" points="37,-198.8 37,-224.8 85,-224.8 85,-198.8 37,-198.8"/>
<text text-anchor="start" x="41.56" y="-207.2" font-family="Times,serif" font-size="14.00"> Label </text>
</a>
</g>
<polygon fill="none" stroke="green" points="36,-197.8 36,-225.8 86,-225.8 86,-197.8 36,-197.8"/>
</g>
<!-- 1&#45;&gt;2 -->
<g id="edge2" class="edge">
<title>1&#45;&gt;2</title>
<path fill="none" stroke="black" d="M113,-250.45C113,-238.32 113,-221.82 113,-207.92"/>
<polygon fill="black" stroke="black" points="116.5,-207.91 113,-197.91 109.5,-207.91 116.5,-207.91"/>
<text text-anchor="middle" x="130.5" y="-220" font-family="Times,serif" font-size="14.00">Union</text>
</g>
<!-- 3 -->
<g id="node4" class="node">
<title>3</title>
<ellipse fill="none" stroke="black" cx="77" cy="-91" rx="27" ry="18"/>
<text text-anchor="start" x="70" y="-87.8" font-family="Times,serif" font-size="14.00">x</text>
<text text-anchor="start" x="77" y="-87.8" font-family="Times,serif" baseline-shift="sub" font-size="14.00">0</text>
<g id="a_node4_3"><a xlink:href="C:\Users\checc\Desktop\ProgettoIntelligentWeb\Progetto\graph\normal\3.txt" xlink:title="Clicca per visualizzare Lx" target="_blank">
<polygon fill="none" stroke="green" points="1,-110 1,-136 49,-136 49,-110 1,-110"/>
<text text-anchor="start" x="5.56" y="-118.4" font-family="Times,serif" font-size="14.00"> Label </text>
</a>
</g>
<polygon fill="none" stroke="green" points="0,-109 0,-137 50,-137 50,-109 0,-109"/>
</g>
<!-- 2&#45;&gt;3 -->
<g id="edge4" class="edge">
<title>2&#45;&gt;3</title>
<path fill="none" stroke="black" d="M100.08,-163.61C95.66,-157.74 91.07,-150.77 88,-143.8 84.65,-136.19 82.3,-127.5 80.65,-119.44"/>
<polygon fill="black" stroke="black" points="84.06,-118.58 78.87,-109.34 77.16,-119.8 84.06,-118.58"/>
<text text-anchor="middle" x="106.5" y="-131.2" font-family="Times,serif" font-size="14.00">Union</text>
</g>
<!-- 5 -->
<g id="node6" class="node">
<title>5</title>
<ellipse fill="none" stroke="black" cx="178" cy="-91" rx="27" ry="18"/>
<text text-anchor="start" x="171" y="-87.8" font-family="Times,serif" font-size="14.00">x</text>
<text text-anchor="start" x="178" y="-87.8" font-family="Times,serif" baseline-shift="sub" font-size="14.00">0</text>
<g id="a_node6_4"><a xlink:href="C:\Users\checc\Desktop\ProgettoIntelligentWeb\Progetto\graph\normal\5.txt" xlink:title="Clicca per visualizzare Lx" target="_blank">
<polygon fill="none" stroke="green" points="102,-46 102,-72 150,-72 150,-46 102,-46"/>
<text text-anchor="start" x="106.56" y="-54.4" font-family="Times,serif" font-size="14.00"> Label </text>
</a>
</g>
<polygon fill="none" stroke="green" points="101,-45 101,-73 151,-73 151,-45 101,-45"/>
</g>
<!-- 2&#45;&gt;5 -->
<g id="edge3" class="edge">
<title>2&#45;&gt;5</title>
<path fill="none" stroke="black" d="M124.62,-163.28C134.51,-150.07 148.87,-130.89 160.21,-115.75"/>
<polygon fill="black" stroke="black" points="163.29,-117.49 166.48,-107.38 157.68,-113.29 163.29,-117.49"/>
<text text-anchor="middle" x="169.5" y="-131.2" font-family="Times,serif" font-size="14.00">Union</text>
</g>
<!-- 4 -->
<g id="node5" class="node">
<title>4</title>
<ellipse fill="none" stroke="black" cx="62" cy="-18" rx="42.88" ry="18"/>
<text text-anchor="start" x="39.06" y="-13.8" font-family="Times,serif" font-size="14.00">CLASH</text>
</g>
<!-- 3&#45;&gt;4 -->
<g id="edge5" class="edge">
<title>3&#45;&gt;4</title>
<path fill="none" stroke="red" d="M73.37,-72.81C71.67,-64.79 69.62,-55.05 67.72,-46.07"/>
<polygon fill="red" stroke="red" points="71.09,-45.09 65.6,-36.03 64.24,-46.54 71.09,-45.09"/>
</g>
<!-- 6 -->
<g id="node7" class="node">
<title>6</title>
<ellipse fill="none" stroke="black" cx="192" cy="-18" rx="69.52" ry="18"/>
<text text-anchor="start" x="149.62" y="-13.8" font-family="Times,serif" font-size="14.00">CLASH&#45;FREE</text>
</g>
<!-- 5&#45;&gt;6 -->
<g id="edge6" class="edge">
<title>5&#45;&gt;6</title>
<path fill="none" stroke="green" d="M181.39,-72.81C182.97,-64.79 184.89,-55.05 186.66,-46.07"/>
<polygon fill="green" stroke="green" points="190.14,-46.52 188.64,-36.03 183.27,-45.16 190.14,-46.52"/>
</g>
</g>
</svg>
