<svg width="984px" height="589px"
 viewBox="0.00 0.00 984.23 589.00" xmlns="http://www.w3.org/2000/svg" xmlns:xlink="http://www.w3.org/1999/xlink">
<g id="graph0" class="graph" transform="scale(1.0 1.0) rotate(0.0) translate(4.0 585.0)">
<title>tableaux</title>
<polygon fill="white" stroke="transparent" points="-4,4 -4,-585 980.23,-585 980.23,4 -4,4"/>
<!-- 0 -->
<g id="node1" class="node">
<title>0</title>
<ellipse fill="none" stroke="black" cx="625" cy="-535" rx="27" ry="18"/>
<text text-anchor="start" x="618" y="-531.8" font-family="Times,serif" font-size="14.00">x</text>
<text text-anchor="start" x="625" y="-531.8" font-family="Times,serif" baseline-shift="sub" font-size="14.00">0</text>
<g id="a_node1_0"><a xlink:href="C:\Users\checc\Desktop\ProgettoIntelligentWeb\Progetto\graph\normal\0.txt" xlink:title="Clicca per visualizzare Lx" target="_blank">
<polygon fill="none" stroke="green" points="549,-554 549,-580 597,-580 597,-554 549,-554"/>
<text text-anchor="start" x="553.56" y="-562.4" font-family="Times,serif" font-size="14.00"> Label </text>
</a>
</g>
<polygon fill="none" stroke="green" points="548,-553 548,-581 598,-581 598,-553 548,-553"/>
</g>
<!-- 1 -->
<g id="node2" class="node">
<title>1</title>
<ellipse fill="none" stroke="black" cx="589" cy="-446.2" rx="27" ry="18"/>
<text text-anchor="start" x="582" y="-443" font-family="Times,serif" font-size="14.00">x</text>
<text text-anchor="start" x="589" y="-443" font-family="Times,serif" baseline-shift="sub" font-size="14.00">0</text>
<g id="a_node2_1"><a xlink:href="C:\Users\checc\Desktop\ProgettoIntelligentWeb\Progetto\graph\normal\1.txt" xlink:title="Clicca per visualizzare Lx" target="_blank">
<polygon fill="none" stroke="green" points="513,-465.2 513,-491.2 561,-491.2 561,-465.2 513,-465.2"/>
<text text-anchor="start" x="517.56" y="-473.6" font-family="Times,serif" font-size="14.00"> Label </text>
</a>
</g>
<polygon fill="none" stroke="green" points="512,-464.2 512,-492.2 562,-492.2 562,-464.2 512,-464.2"/>
</g>
<!-- 0&#45;&gt;1 -->
<g id="edge2" class="edge">
<title>0&#45;&gt;1</title>
<path fill="none" stroke="black" d="M612.08,-518.81C607.66,-512.94 603.07,-505.97 600,-499 596.65,-491.39 594.3,-482.7 592.65,-474.64"/>
<polygon fill="black" stroke="black" points="596.06,-473.78 590.87,-464.54 589.16,-475 596.06,-473.78"/>
<text text-anchor="middle" x="618.5" y="-486.4" font-family="Times,serif" font-size="14.00">Union</text>
</g>
<!-- 28 -->
<g id="node29" class="node">
<title>28</title>
<ellipse fill="none" stroke="black" cx="672" cy="-446.2" rx="27" ry="18"/>
<text text-anchor="start" x="665" y="-443" font-family="Times,serif" font-size="14.00">x</text>
<text text-anchor="start" x="672" y="-443" font-family="Times,serif" baseline-shift="sub" font-size="14.00">0</text>
<g id="a_node29_2"><a xlink:href="C:\Users\checc\Desktop\ProgettoIntelligentWeb\Progetto\graph\normal\28.txt" xlink:title="Clicca per visualizzare Lx" target="_blank">
<polygon fill="none" stroke="green" points="700,-465.2 700,-491.2 748,-491.2 748,-465.2 700,-465.2"/>
<text text-anchor="start" x="704.56" y="-473.6" font-family="Times,serif" font-size="14.00"> Label </text>
</a>
</g>
<polygon fill="none" stroke="green" points="699,-464.2 699,-492.2 749,-492.2 749,-464.2 699,-464.2"/>
</g>
<!-- 0&#45;&gt;28 -->
<g id="edge1" class="edge">
<title>0&#45;&gt;28</title>
<path fill="none" stroke="black" d="M633.84,-517.67C640.73,-504.94 650.43,-487.04 658.32,-472.46"/>
<polygon fill="black" stroke="black" points="661.52,-473.91 663.2,-463.45 655.36,-470.58 661.52,-473.91"/>
<text text-anchor="middle" x="670.5" y="-486.4" font-family="Times,serif" font-size="14.00">Union</text>
</g>
<!-- 2 -->
<g id="node3" class="node">
<title>2</title>
<ellipse fill="none" stroke="black" cx="314" cy="-357.4" rx="27" ry="18"/>
<text text-anchor="start" x="307" y="-354.2" font-family="Times,serif" font-size="14.00">x</text>
<text text-anchor="start" x="314" y="-354.2" font-family="Times,serif" baseline-shift="sub" font-size="14.00">0</text>
<g id="a_node3_3"><a xlink:href="C:\Users\checc\Desktop\ProgettoIntelligentWeb\Progetto\graph\normal\2.txt" xlink:title="Clicca per visualizzare Lx" target="_blank">
<polygon fill="none" stroke="green" points="238,-376.4 238,-402.4 286,-402.4 286,-376.4 238,-376.4"/>
<text text-anchor="start" x="242.56" y="-384.8" font-family="Times,serif" font-size="14.00"> Label </text>
</a>
</g>
<polygon fill="none" stroke="green" points="237,-375.4 237,-403.4 287,-403.4 287,-375.4 237,-375.4"/>
</g>
<!-- 1&#45;&gt;2 -->
<g id="edge4" class="edge">
<title>1&#45;&gt;2</title>
<path fill="none" stroke="black" d="M565.08,-437.65C516.12,-422.19 404.36,-386.92 347.93,-369.11"/>
<polygon fill="black" stroke="black" points="348.65,-365.67 338.06,-366 346.55,-372.34 348.65,-365.67"/>
<text text-anchor="middle" x="494.5" y="-397.6" font-family="Times,serif" font-size="14.00">Union</text>
</g>
<!-- 15 -->
<g id="node16" class="node">
<title>15</title>
<ellipse fill="none" stroke="black" cx="589" cy="-357.4" rx="27" ry="18"/>
<text text-anchor="start" x="582" y="-354.2" font-family="Times,serif" font-size="14.00">x</text>
<text text-anchor="start" x="589" y="-354.2" font-family="Times,serif" baseline-shift="sub" font-size="14.00">0</text>
<g id="a_node16_4"><a xlink:href="C:\Users\checc\Desktop\ProgettoIntelligentWeb\Progetto\graph\normal\15.txt" xlink:title="Clicca per visualizzare Lx" target="_blank">
<polygon fill="none" stroke="green" points="513,-376.4 513,-402.4 561,-402.4 561,-376.4 513,-376.4"/>
<text text-anchor="start" x="517.56" y="-384.8" font-family="Times,serif" font-size="14.00"> Label </text>
</a>
</g>
<polygon fill="none" stroke="green" points="512,-375.4 512,-403.4 562,-403.4 562,-375.4 512,-375.4"/>
</g>
<!-- 1&#45;&gt;15 -->
<g id="edge3" class="edge">
<title>1&#45;&gt;15</title>
<path fill="none" stroke="black" d="M589,-428.05C589,-415.92 589,-399.42 589,-385.52"/>
<polygon fill="black" stroke="black" points="592.5,-385.51 589,-375.51 585.5,-385.51 592.5,-385.51"/>
<text text-anchor="middle" x="606.5" y="-397.6" font-family="Times,serif" font-size="14.00">Union</text>
</g>
<!-- 3 -->
<g id="node4" class="node">
<title>3</title>
<ellipse fill="none" stroke="black" cx="153" cy="-268.6" rx="27" ry="18"/>
<text text-anchor="start" x="146" y="-265.4" font-family="Times,serif" font-size="14.00">x</text>
<text text-anchor="start" x="153" y="-265.4" font-family="Times,serif" baseline-shift="sub" font-size="14.00">0</text>
<g id="a_node4_5"><a xlink:href="C:\Users\checc\Desktop\ProgettoIntelligentWeb\Progetto\graph\normal\3.txt" xlink:title="Clicca per visualizzare Lx" target="_blank">
<polygon fill="none" stroke="green" points="77,-287.6 77,-313.6 125,-313.6 125,-287.6 77,-287.6"/>
<text text-anchor="start" x="81.56" y="-296" font-family="Times,serif" font-size="14.00"> Label </text>
</a>
</g>
<polygon fill="none" stroke="green" points="76,-286.6 76,-314.6 126,-314.6 126,-286.6 76,-286.6"/>
</g>
<!-- 2&#45;&gt;3 -->
<g id="edge6" class="edge">
<title>2&#45;&gt;3</title>
<path fill="none" stroke="black" d="M293.61,-345.41C265.5,-330.25 214.67,-302.85 182.44,-285.47"/>
<polygon fill="black" stroke="black" points="183.94,-282.31 173.48,-280.64 180.62,-288.47 183.94,-282.31"/>
<text text-anchor="middle" x="265.5" y="-308.8" font-family="Times,serif" font-size="14.00">Union</text>
</g>
<!-- 9 -->
<g id="node10" class="node">
<title>9</title>
<ellipse fill="none" stroke="black" cx="314" cy="-268.6" rx="27" ry="18"/>
<text text-anchor="start" x="307" y="-265.4" font-family="Times,serif" font-size="14.00">x</text>
<text text-anchor="start" x="314" y="-265.4" font-family="Times,serif" baseline-shift="sub" font-size="14.00">0</text>
<g id="a_node10_6"><a xlink:href="C:\Users\checc\Desktop\ProgettoIntelligentWeb\Progetto\graph\normal\9.txt" xlink:title="Clicca per visualizzare Lx" target="_blank">
<polygon fill="none" stroke="green" points="238,-251.6 238,-277.6 286,-277.6 286,-251.6 238,-251.6"/>
<text text-anchor="start" x="242.56" y="-260" font-family="Times,serif" font-size="14.00"> Label </text>
</a>
</g>
<polygon fill="none" stroke="green" points="237,-250.6 237,-278.6 287,-278.6 287,-250.6 237,-250.6"/>
</g>
<!-- 2&#45;&gt;9 -->
<g id="edge5" class="edge">
<title>2&#45;&gt;9</title>
<path fill="none" stroke="black" d="M314,-339.25C314,-327.12 314,-310.62 314,-296.72"/>
<polygon fill="black" stroke="black" points="317.5,-296.71 314,-286.71 310.5,-296.71 317.5,-296.71"/>
<text text-anchor="middle" x="331.5" y="-308.8" font-family="Times,serif" font-size="14.00">Union</text>
</g>
<!-- 4 -->
<g id="node5" class="node">
<title>4</title>
<ellipse fill="none" stroke="black" cx="77" cy="-179.8" rx="27" ry="18"/>
<text text-anchor="start" x="70" y="-176.6" font-family="Times,serif" font-size="14.00">x</text>
<text text-anchor="start" x="77" y="-176.6" font-family="Times,serif" baseline-shift="sub" font-size="14.00">0</text>
<g id="a_node5_7"><a xlink:href="C:\Users\checc\Desktop\ProgettoIntelligentWeb\Progetto\graph\normal\4.txt" xlink:title="Clicca per visualizzare Lx" target="_blank">
<polygon fill="none" stroke="green" points="1,-198.8 1,-224.8 49,-224.8 49,-198.8 1,-198.8"/>
<text text-anchor="start" x="5.56" y="-207.2" font-family="Times,serif" font-size="14.00"> Label </text>
</a>
</g>
<polygon fill="none" stroke="green" points="0,-197.8 0,-225.8 50,-225.8 50,-197.8 0,-197.8"/>
</g>
<!-- 3&#45;&gt;4 -->
<g id="edge8" class="edge">
<title>3&#45;&gt;4</title>
<path fill="none" stroke="black" d="M136.31,-254.04C129.11,-247.84 120.8,-240.19 114,-232.6 106.49,-224.2 99.09,-214.27 92.9,-205.36"/>
<polygon fill="black" stroke="black" points="95.67,-203.21 87.16,-196.89 89.87,-207.13 95.67,-203.21"/>
<text text-anchor="middle" x="132.5" y="-220" font-family="Times,serif" font-size="14.00">Union</text>
</g>
<!-- 6 -->
<g id="node7" class="node">
<title>6</title>
<ellipse fill="none" stroke="black" cx="153" cy="-179.8" rx="27" ry="18"/>
<text text-anchor="start" x="146" y="-176.6" font-family="Times,serif" font-size="14.00">x</text>
<text text-anchor="start" x="153" y="-176.6" font-family="Times,serif" baseline-shift="sub" font-size="14.00">0</text>
<g id="a_node7_8"><a xlink:href="C:\Users\checc\Desktop\ProgettoIntelligentWeb\Progetto\graph\normal\6.txt" xlink:title="Clicca per visualizzare Lx" target="_blank">
<polygon fill="none" stroke="green" points="77,-134.8 77,-160.8 125,-160.8 125,-134.8 77,-134.8"/>
<text text-anchor="start" x="81.56" y="-143.2" font-family="Times,serif" font-size="14.00"> Label </text>
</a>
</g>
<polygon fill="none" stroke="green" points="76,-133.8 76,-161.8 126,-161.8 126,-133.8 76,-133.8"/>
</g>
<!-- 3&#45;&gt;6 -->
<g id="edge7" class="edge">
<title>3&#45;&gt;6</title>
<path fill="none" stroke="black" d="M153,-250.45C153,-238.32 153,-221.82 153,-207.92"/>
<polygon fill="black" stroke="black" points="156.5,-207.91 153,-197.91 149.5,-207.91 156.5,-207.91"/>
<text text-anchor="middle" x="170.5" y="-220" font-family="Times,serif" font-size="14.00">Union</text>
</g>
<!-- 5 -->
<g id="node6" class="node">
<title>5</title>
<ellipse fill="none" stroke="black" cx="69" cy="-91" rx="42.88" ry="18"/>
<text text-anchor="start" x="46.06" y="-86.8" font-family="Times,serif" font-size="14.00">CLASH</text>
</g>
<!-- 4&#45;&gt;5 -->
<g id="edge9" class="edge">
<title>4&#45;&gt;5</title>
<path fill="none" stroke="red" d="M75.42,-161.65C74.3,-149.52 72.78,-133.02 71.5,-119.12"/>
<polygon fill="red" stroke="red" points="74.98,-118.75 70.58,-109.11 68.01,-119.39 74.98,-118.75"/>
</g>
<!-- 7 -->
<g id="node8" class="node">
<title>7</title>
<ellipse fill="none" stroke="black" cx="157" cy="-91" rx="27" ry="18"/>
<text text-anchor="start" x="150" y="-87.8" font-family="Times,serif" font-size="14.00">x</text>
<text text-anchor="start" x="157" y="-87.8" font-family="Times,serif" baseline-shift="sub" font-size="14.00">1</text>
<g id="a_node8_9"><a xlink:href="C:\Users\checc\Desktop\ProgettoIntelligentWeb\Progetto\graph\normal\7.txt" xlink:title="Clicca per visualizzare Lx" target="_blank">
<polygon fill="none" stroke="green" points="81,-46 81,-72 129,-72 129,-46 81,-46"/>
<text text-anchor="start" x="85.56" y="-54.4" font-family="Times,serif" font-size="14.00"> Label </text>
</a>
</g>
<polygon fill="none" stroke="green" points="80,-45 80,-73 130,-73 130,-45 80,-45"/>
</g>
<!-- 6&#45;&gt;7 -->
<g id="edge10" class="edge">
<title>6&#45;&gt;7</title>
<path fill="none" stroke="black" d="M153.79,-161.65C154.35,-149.52 155.11,-133.02 155.75,-119.12"/>
<polygon fill="black" stroke="black" points="159.25,-119.26 156.21,-109.11 152.25,-118.94 159.25,-119.26"/>
<text text-anchor="middle" x="211.62" y="-131.2" font-family="Times,serif" font-size="14.00">http://ontology&#45;28R</text>
</g>
<!-- 8 -->
<g id="node9" class="node">
<title>8</title>
<ellipse fill="none" stroke="black" cx="157" cy="-18" rx="42.88" ry="18"/>
<text text-anchor="start" x="134.06" y="-13.8" font-family="Times,serif" font-size="14.00">CLASH</text>
</g>
<!-- 7&#45;&gt;8 -->
<g id="edge11" class="edge">
<title>7&#45;&gt;8</title>
<path fill="none" stroke="red" d="M157,-72.81C157,-64.79 157,-55.05 157,-46.07"/>
<polygon fill="red" stroke="red" points="160.5,-46.03 157,-36.03 153.5,-46.03 160.5,-46.03"/>
</g>
<!-- 10 -->
<g id="node11" class="node">
<title>10</title>
<ellipse fill="none" stroke="black" cx="279" cy="-179.8" rx="27" ry="18"/>
<text text-anchor="start" x="272" y="-176.6" font-family="Times,serif" font-size="14.00">x</text>
<text text-anchor="start" x="279" y="-176.6" font-family="Times,serif" baseline-shift="sub" font-size="14.00">0</text>
<g id="a_node11_10"><a xlink:href="C:\Users\checc\Desktop\ProgettoIntelligentWeb\Progetto\graph\normal\10.txt" xlink:title="Clicca per visualizzare Lx" target="_blank">
<polygon fill="none" stroke="green" points="203,-198.8 203,-224.8 251,-224.8 251,-198.8 203,-198.8"/>
<text text-anchor="start" x="207.56" y="-207.2" font-family="Times,serif" font-size="14.00"> Label </text>
</a>
</g>
<polygon fill="none" stroke="green" points="202,-197.8 202,-225.8 252,-225.8 252,-197.8 202,-197.8"/>
</g>
<!-- 9&#45;&gt;10 -->
<g id="edge13" class="edge">
<title>9&#45;&gt;10</title>
<path fill="none" stroke="black" d="M300.08,-252.99C295.19,-247.09 290.15,-239.93 287,-232.6 283.76,-225.04 281.81,-216.36 280.64,-208.3"/>
<polygon fill="black" stroke="black" points="284.1,-207.74 279.52,-198.19 277.15,-208.52 284.1,-207.74"/>
<text text-anchor="middle" x="305.5" y="-220" font-family="Times,serif" font-size="14.00">Union</text>
</g>
<!-- 12 -->
<g id="node13" class="node">
<title>12</title>
<ellipse fill="none" stroke="black" cx="351" cy="-179.8" rx="27" ry="18"/>
<text text-anchor="start" x="344" y="-176.6" font-family="Times,serif" font-size="14.00">x</text>
<text text-anchor="start" x="351" y="-176.6" font-family="Times,serif" baseline-shift="sub" font-size="14.00">0</text>
<g id="a_node13_11"><a xlink:href="C:\Users\checc\Desktop\ProgettoIntelligentWeb\Progetto\graph\normal\12.txt" xlink:title="Clicca per visualizzare Lx" target="_blank">
<polygon fill="none" stroke="green" points="275,-134.8 275,-160.8 323,-160.8 323,-134.8 275,-134.8"/>
<text text-anchor="start" x="279.56" y="-143.2" font-family="Times,serif" font-size="14.00"> Label </text>
</a>
</g>
<polygon fill="none" stroke="green" points="274,-133.8 274,-161.8 324,-161.8 324,-133.8 274,-133.8"/>
</g>
<!-- 9&#45;&gt;12 -->
<g id="edge12" class="edge">
<title>9&#45;&gt;12</title>
<path fill="none" stroke="black" d="M321.13,-250.86C326.49,-238.3 333.93,-220.86 340.04,-206.52"/>
<polygon fill="black" stroke="black" points="343.31,-207.76 344.01,-197.19 336.87,-205.02 343.31,-207.76"/>
<text text-anchor="middle" x="353.5" y="-220" font-family="Times,serif" font-size="14.00">Union</text>
</g>
<!-- 11 -->
<g id="node12" class="node">
<title>11</title>
<ellipse fill="none" stroke="black" cx="279" cy="-91" rx="42.88" ry="18"/>
<text text-anchor="start" x="256.06" y="-86.8" font-family="Times,serif" font-size="14.00">CLASH</text>
</g>
<!-- 10&#45;&gt;11 -->
<g id="edge14" class="edge">
<title>10&#45;&gt;11</title>
<path fill="none" stroke="red" d="M279,-161.65C279,-149.52 279,-133.02 279,-119.12"/>
<polygon fill="red" stroke="red" points="282.5,-119.11 279,-109.11 275.5,-119.11 282.5,-119.11"/>
</g>
<!-- 13 -->
<g id="node14" class="node">
<title>13</title>
<ellipse fill="none" stroke="black" cx="367" cy="-91" rx="27" ry="18"/>
<text text-anchor="start" x="360" y="-87.8" font-family="Times,serif" font-size="14.00">x</text>
<text text-anchor="start" x="367" y="-87.8" font-family="Times,serif" baseline-shift="sub" font-size="14.00">2</text>
<g id="a_node14_12"><a xlink:href="C:\Users\checc\Desktop\ProgettoIntelligentWeb\Progetto\graph\normal\13.txt" xlink:title="Clicca per visualizzare Lx" target="_blank">
<polygon fill="none" stroke="green" points="291,-46 291,-72 339,-72 339,-46 291,-46"/>
<text text-anchor="start" x="295.56" y="-54.4" font-family="Times,serif" font-size="14.00"> Label </text>
</a>
</g>
<polygon fill="none" stroke="green" points="290,-45 290,-73 340,-73 340,-45 290,-45"/>
</g>
<!-- 12&#45;&gt;13 -->
<g id="edge15" class="edge">
<title>12&#45;&gt;13</title>
<path fill="none" stroke="black" d="M354.16,-161.65C356.4,-149.52 359.44,-133.02 362,-119.12"/>
<polygon fill="black" stroke="black" points="365.47,-119.58 363.85,-109.11 358.59,-118.31 365.47,-119.58"/>
<text text-anchor="middle" x="416.62" y="-131.2" font-family="Times,serif" font-size="14.00">http://ontology&#45;28R</text>
</g>
<!-- 14 -->
<g id="node15" class="node">
<title>14</title>
<ellipse fill="none" stroke="black" cx="367" cy="-18" rx="42.88" ry="18"/>
<text text-anchor="start" x="344.06" y="-13.8" font-family="Times,serif" font-size="14.00">CLASH</text>
</g>
<!-- 13&#45;&gt;14 -->
<g id="edge16" class="edge">
<title>13&#45;&gt;14</title>
<path fill="none" stroke="red" d="M367,-72.81C367,-64.79 367,-55.05 367,-46.07"/>
<polygon fill="red" stroke="red" points="370.5,-46.03 367,-36.03 363.5,-46.03 370.5,-46.03"/>
</g>
<!-- 16 -->
<g id="node17" class="node">
<title>16</title>
<ellipse fill="none" stroke="black" cx="549" cy="-268.6" rx="27" ry="18"/>
<text text-anchor="start" x="542" y="-265.4" font-family="Times,serif" font-size="14.00">x</text>
<text text-anchor="start" x="549" y="-265.4" font-family="Times,serif" baseline-shift="sub" font-size="14.00">0</text>
<g id="a_node17_13"><a xlink:href="C:\Users\checc\Desktop\ProgettoIntelligentWeb\Progetto\graph\normal\16.txt" xlink:title="Clicca per visualizzare Lx" target="_blank">
<polygon fill="none" stroke="green" points="473,-287.6 473,-313.6 521,-313.6 521,-287.6 473,-287.6"/>
<text text-anchor="start" x="477.56" y="-296" font-family="Times,serif" font-size="14.00"> Label </text>
</a>
</g>
<polygon fill="none" stroke="green" points="472,-286.6 472,-314.6 522,-314.6 522,-286.6 472,-286.6"/>
</g>
<!-- 15&#45;&gt;16 -->
<g id="edge18" class="edge">
<title>15&#45;&gt;16</title>
<path fill="none" stroke="black" d="M581.48,-340.07C575.7,-327.54 567.62,-310 560.96,-295.56"/>
<polygon fill="black" stroke="black" points="563.99,-293.77 556.63,-286.15 557.63,-296.7 563.99,-293.77"/>
<text text-anchor="middle" x="590.5" y="-308.8" font-family="Times,serif" font-size="14.00">Union</text>
</g>
<!-- 22 -->
<g id="node23" class="node">
<title>22</title>
<ellipse fill="none" stroke="black" cx="664" cy="-268.6" rx="27" ry="18"/>
<text text-anchor="start" x="657" y="-265.4" font-family="Times,serif" font-size="14.00">x</text>
<text text-anchor="start" x="664" y="-265.4" font-family="Times,serif" baseline-shift="sub" font-size="14.00">0</text>
<g id="a_node23_14"><a xlink:href="C:\Users\checc\Desktop\ProgettoIntelligentWeb\Progetto\graph\normal\22.txt" xlink:title="Clicca per visualizzare Lx" target="_blank">
<polygon fill="none" stroke="green" points="588,-251.6 588,-277.6 636,-277.6 636,-251.6 588,-251.6"/>
<text text-anchor="start" x="592.56" y="-260" font-family="Times,serif" font-size="14.00"> Label </text>
</a>
</g>
<polygon fill="none" stroke="green" points="587,-250.6 587,-278.6 637,-278.6 637,-250.6 587,-250.6"/>
</g>
<!-- 15&#45;&gt;22 -->
<g id="edge17" class="edge">
<title>15&#45;&gt;22</title>
<path fill="none" stroke="black" d="M602.06,-341.28C613.79,-327.71 631.15,-307.62 644.51,-292.15"/>
<polygon fill="black" stroke="black" points="647.2,-294.4 651.09,-284.55 641.9,-289.82 647.2,-294.4"/>
<text text-anchor="middle" x="651.5" y="-308.8" font-family="Times,serif" font-size="14.00">Union</text>
</g>
<!-- 17 -->
<g id="node18" class="node">
<title>17</title>
<ellipse fill="none" stroke="black" cx="477" cy="-179.8" rx="27" ry="18"/>
<text text-anchor="start" x="470" y="-176.6" font-family="Times,serif" font-size="14.00">x</text>
<text text-anchor="start" x="477" y="-176.6" font-family="Times,serif" baseline-shift="sub" font-size="14.00">0</text>
<g id="a_node18_15"><a xlink:href="C:\Users\checc\Desktop\ProgettoIntelligentWeb\Progetto\graph\normal\17.txt" xlink:title="Clicca per visualizzare Lx" target="_blank">
<polygon fill="none" stroke="green" points="401,-198.8 401,-224.8 449,-224.8 449,-198.8 401,-198.8"/>
<text text-anchor="start" x="405.56" y="-207.2" font-family="Times,serif" font-size="14.00"> Label </text>
</a>
</g>
<polygon fill="none" stroke="green" points="400,-197.8 400,-225.8 450,-225.8 450,-197.8 400,-197.8"/>
</g>
<!-- 16&#45;&gt;17 -->
<g id="edge20" class="edge">
<title>16&#45;&gt;17</title>
<path fill="none" stroke="black" d="M532.12,-254.21C524.88,-248.04 516.59,-240.37 510,-232.6 503.04,-224.39 496.44,-214.6 490.99,-205.76"/>
<polygon fill="black" stroke="black" points="493.9,-203.79 485.77,-196.98 487.88,-207.37 493.9,-203.79"/>
<text text-anchor="middle" x="528.5" y="-220" font-family="Times,serif" font-size="14.00">Union</text>
</g>
<!-- 19 -->
<g id="node20" class="node">
<title>19</title>
<ellipse fill="none" stroke="black" cx="549" cy="-179.8" rx="27" ry="18"/>
<text text-anchor="start" x="542" y="-176.6" font-family="Times,serif" font-size="14.00">x</text>
<text text-anchor="start" x="549" y="-176.6" font-family="Times,serif" baseline-shift="sub" font-size="14.00">0</text>
<g id="a_node20_16"><a xlink:href="C:\Users\checc\Desktop\ProgettoIntelligentWeb\Progetto\graph\normal\19.txt" xlink:title="Clicca per visualizzare Lx" target="_blank">
<polygon fill="none" stroke="green" points="577,-162.8 577,-188.8 625,-188.8 625,-162.8 577,-162.8"/>
<text text-anchor="start" x="581.56" y="-171.2" font-family="Times,serif" font-size="14.00"> Label </text>
</a>
</g>
<polygon fill="none" stroke="green" points="576,-161.8 576,-189.8 626,-189.8 626,-161.8 576,-161.8"/>
</g>
<!-- 16&#45;&gt;19 -->
<g id="edge19" class="edge">
<title>16&#45;&gt;19</title>
<path fill="none" stroke="black" d="M549,-250.45C549,-238.32 549,-221.82 549,-207.92"/>
<polygon fill="black" stroke="black" points="552.5,-207.91 549,-197.91 545.5,-207.91 552.5,-207.91"/>
<text text-anchor="middle" x="566.5" y="-220" font-family="Times,serif" font-size="14.00">Union</text>
</g>
<!-- 18 -->
<g id="node19" class="node">
<title>18</title>
<ellipse fill="none" stroke="black" cx="477" cy="-91" rx="42.88" ry="18"/>
<text text-anchor="start" x="454.06" y="-86.8" font-family="Times,serif" font-size="14.00">CLASH</text>
</g>
<!-- 17&#45;&gt;18 -->
<g id="edge21" class="edge">
<title>17&#45;&gt;18</title>
<path fill="none" stroke="red" d="M477,-161.65C477,-149.52 477,-133.02 477,-119.12"/>
<polygon fill="red" stroke="red" points="480.5,-119.11 477,-109.11 473.5,-119.11 480.5,-119.11"/>
</g>
<!-- 20 -->
<g id="node21" class="node">
<title>20</title>
<ellipse fill="none" stroke="black" cx="565" cy="-91" rx="27" ry="18"/>
<text text-anchor="start" x="558" y="-87.8" font-family="Times,serif" font-size="14.00">x</text>
<text text-anchor="start" x="565" y="-87.8" font-family="Times,serif" baseline-shift="sub" font-size="14.00">3</text>
<g id="a_node21_17"><a xlink:href="C:\Users\checc\Desktop\ProgettoIntelligentWeb\Progetto\graph\normal\20.txt" xlink:title="Clicca per visualizzare Lx" target="_blank">
<polygon fill="none" stroke="green" points="489,-110 489,-136 537,-136 537,-110 489,-110"/>
<text text-anchor="start" x="493.56" y="-118.4" font-family="Times,serif" font-size="14.00"> Label </text>
</a>
</g>
<polygon fill="none" stroke="green" points="488,-109 488,-137 538,-137 538,-109 488,-109"/>
</g>
<!-- 19&#45;&gt;20 -->
<g id="edge22" class="edge">
<title>19&#45;&gt;20</title>
<path fill="none" stroke="black" d="M547.06,-161.8C546.35,-151.6 546.25,-138.42 548.77,-127 549.45,-123.9 550.44,-120.74 551.6,-117.66"/>
<polygon fill="black" stroke="black" points="554.93,-118.78 555.7,-108.21 548.51,-115.99 554.93,-118.78"/>
<text text-anchor="middle" x="604.62" y="-131.2" font-family="Times,serif" font-size="14.00">http://ontology&#45;28R</text>
</g>
<!-- 21 -->
<g id="node22" class="node">
<title>21</title>
<ellipse fill="none" stroke="black" cx="565" cy="-18" rx="42.88" ry="18"/>
<text text-anchor="start" x="542.06" y="-13.8" font-family="Times,serif" font-size="14.00">CLASH</text>
</g>
<!-- 20&#45;&gt;21 -->
<g id="edge23" class="edge">
<title>20&#45;&gt;21</title>
<path fill="none" stroke="red" d="M565,-72.81C565,-64.79 565,-55.05 565,-46.07"/>
<polygon fill="red" stroke="red" points="568.5,-46.03 565,-36.03 561.5,-46.03 568.5,-46.03"/>
</g>
<!-- 23 -->
<g id="node24" class="node">
<title>23</title>
<ellipse fill="none" stroke="black" cx="664" cy="-179.8" rx="27" ry="18"/>
<text text-anchor="start" x="657" y="-176.6" font-family="Times,serif" font-size="14.00">x</text>
<text text-anchor="start" x="664" y="-176.6" font-family="Times,serif" baseline-shift="sub" font-size="14.00">0</text>
<g id="a_node24_18"><a xlink:href="C:\Users\checc\Desktop\ProgettoIntelligentWeb\Progetto\graph\normal\23.txt" xlink:title="Clicca per visualizzare Lx" target="_blank">
<polygon fill="none" stroke="green" points="588,-198.8 588,-224.8 636,-224.8 636,-198.8 588,-198.8"/>
<text text-anchor="start" x="592.56" y="-207.2" font-family="Times,serif" font-size="14.00"> Label </text>
</a>
</g>
<polygon fill="none" stroke="green" points="587,-197.8 587,-225.8 637,-225.8 637,-197.8 587,-197.8"/>
</g>
<!-- 22&#45;&gt;23 -->
<g id="edge25" class="edge">
<title>22&#45;&gt;23</title>
<path fill="none" stroke="black" d="M664,-250.45C664,-238.32 664,-221.82 664,-207.92"/>
<polygon fill="black" stroke="black" points="667.5,-207.91 664,-197.91 660.5,-207.91 667.5,-207.91"/>
<text text-anchor="middle" x="681.5" y="-220" font-family="Times,serif" font-size="14.00">Union</text>
</g>
<!-- 25 -->
<g id="node26" class="node">
<title>25</title>
<ellipse fill="none" stroke="black" cx="739" cy="-179.8" rx="27" ry="18"/>
<text text-anchor="start" x="732" y="-176.6" font-family="Times,serif" font-size="14.00">x</text>
<text text-anchor="start" x="739" y="-176.6" font-family="Times,serif" baseline-shift="sub" font-size="14.00">0</text>
<g id="a_node26_19"><a xlink:href="C:\Users\checc\Desktop\ProgettoIntelligentWeb\Progetto\graph\normal\25.txt" xlink:title="Clicca per visualizzare Lx" target="_blank">
<polygon fill="none" stroke="green" points="663,-134.8 663,-160.8 711,-160.8 711,-134.8 663,-134.8"/>
<text text-anchor="start" x="667.56" y="-143.2" font-family="Times,serif" font-size="14.00"> Label </text>
</a>
</g>
<polygon fill="none" stroke="green" points="662,-133.8 662,-161.8 712,-161.8 712,-133.8 662,-133.8"/>
</g>
<!-- 22&#45;&gt;25 -->
<g id="edge24" class="edge">
<title>22&#45;&gt;25</title>
<path fill="none" stroke="black" d="M680.74,-254.09C687.95,-247.89 696.26,-240.24 703,-232.6 710.39,-224.23 717.61,-214.3 723.62,-205.39"/>
<polygon fill="black" stroke="black" points="726.62,-207.2 729.18,-196.92 720.77,-203.35 726.62,-207.2"/>
<text text-anchor="middle" x="733.5" y="-220" font-family="Times,serif" font-size="14.00">Union</text>
</g>
<!-- 24 -->
<g id="node25" class="node">
<title>24</title>
<ellipse fill="none" stroke="black" cx="664" cy="-91" rx="42.88" ry="18"/>
<text text-anchor="start" x="641.06" y="-86.8" font-family="Times,serif" font-size="14.00">CLASH</text>
</g>
<!-- 23&#45;&gt;24 -->
<g id="edge26" class="edge">
<title>23&#45;&gt;24</title>
<path fill="none" stroke="red" d="M664,-161.65C664,-149.52 664,-133.02 664,-119.12"/>
<polygon fill="red" stroke="red" points="667.5,-119.11 664,-109.11 660.5,-119.11 667.5,-119.11"/>
</g>
<!-- 26 -->
<g id="node27" class="node">
<title>26</title>
<ellipse fill="none" stroke="black" cx="752" cy="-91" rx="27" ry="18"/>
<text text-anchor="start" x="745" y="-87.8" font-family="Times,serif" font-size="14.00">x</text>
<text text-anchor="start" x="752" y="-87.8" font-family="Times,serif" baseline-shift="sub" font-size="14.00">4</text>
<g id="a_node27_20"><a xlink:href="C:\Users\checc\Desktop\ProgettoIntelligentWeb\Progetto\graph\normal\26.txt" xlink:title="Clicca per visualizzare Lx" target="_blank">
<polygon fill="none" stroke="green" points="676,-46 676,-72 724,-72 724,-46 676,-46"/>
<text text-anchor="start" x="680.56" y="-54.4" font-family="Times,serif" font-size="14.00"> Label </text>
</a>
</g>
<polygon fill="none" stroke="green" points="675,-45 675,-73 725,-73 725,-45 675,-45"/>
</g>
<!-- 25&#45;&gt;26 -->
<g id="edge27" class="edge">
<title>25&#45;&gt;26</title>
<path fill="none" stroke="black" d="M738.93,-161.42C739.14,-151.31 739.83,-138.36 741.77,-127 742.23,-124.29 742.83,-121.48 743.51,-118.7"/>
<polygon fill="black" stroke="black" points="746.93,-119.48 746.2,-108.91 740.18,-117.62 746.93,-119.48"/>
<text text-anchor="middle" x="797.62" y="-131.2" font-family="Times,serif" font-size="14.00">http://ontology&#45;28R</text>
</g>
<!-- 27 -->
<g id="node28" class="node">
<title>27</title>
<ellipse fill="none" stroke="black" cx="751" cy="-18" rx="42.88" ry="18"/>
<text text-anchor="start" x="728.06" y="-13.8" font-family="Times,serif" font-size="14.00">CLASH</text>
</g>
<!-- 26&#45;&gt;27 -->
<g id="edge28" class="edge">
<title>26&#45;&gt;27</title>
<path fill="none" stroke="red" d="M751.76,-72.81C751.64,-64.79 751.51,-55.05 751.38,-46.07"/>
<polygon fill="red" stroke="red" points="754.88,-45.98 751.24,-36.03 747.88,-46.08 754.88,-45.98"/>
</g>
<!-- 29 -->
<g id="node30" class="node">
<title>29</title>
<ellipse fill="none" stroke="black" cx="699" cy="-357.4" rx="27" ry="18"/>
<text text-anchor="start" x="692" y="-354.2" font-family="Times,serif" font-size="14.00">x</text>
<text text-anchor="start" x="699" y="-354.2" font-family="Times,serif" baseline-shift="sub" font-size="14.00">0</text>
<g id="a_node30_21"><a xlink:href="C:\Users\checc\Desktop\ProgettoIntelligentWeb\Progetto\graph\normal\29.txt" xlink:title="Clicca per visualizzare Lx" target="_blank">
<polygon fill="none" stroke="green" points="623,-340.4 623,-366.4 671,-366.4 671,-340.4 623,-340.4"/>
<text text-anchor="start" x="627.56" y="-348.8" font-family="Times,serif" font-size="14.00"> Label </text>
</a>
</g>
<polygon fill="none" stroke="green" points="622,-339.4 622,-367.4 672,-367.4 672,-339.4 622,-339.4"/>
</g>
<!-- 28&#45;&gt;29 -->
<g id="edge29" class="edge">
<title>28&#45;&gt;29</title>
<path fill="none" stroke="black" d="M677.21,-428.46C681.05,-416.1 686.37,-399.01 690.79,-384.81"/>
<polygon fill="black" stroke="black" points="694.18,-385.67 693.81,-375.08 687.5,-383.59 694.18,-385.67"/>
<text text-anchor="middle" x="705.5" y="-397.6" font-family="Times,serif" font-size="14.00">Union</text>
</g>
<!-- 30 -->
<g id="node31" class="node">
<title>30</title>
<ellipse fill="none" stroke="black" cx="758" cy="-268.6" rx="27" ry="18"/>
<text text-anchor="start" x="751" y="-265.4" font-family="Times,serif" font-size="14.00">x</text>
<text text-anchor="start" x="758" y="-265.4" font-family="Times,serif" baseline-shift="sub" font-size="14.00">0</text>
<g id="a_node31_22"><a xlink:href="C:\Users\checc\Desktop\ProgettoIntelligentWeb\Progetto\graph\normal\30.txt" xlink:title="Clicca per visualizzare Lx" target="_blank">
<polygon fill="none" stroke="green" points="682,-287.6 682,-313.6 730,-313.6 730,-287.6 682,-287.6"/>
<text text-anchor="start" x="686.56" y="-296" font-family="Times,serif" font-size="14.00"> Label </text>
</a>
</g>
<polygon fill="none" stroke="green" points="681,-286.6 681,-314.6 731,-314.6 731,-286.6 681,-286.6"/>
</g>
<!-- 29&#45;&gt;30 -->
<g id="edge30" class="edge">
<title>29&#45;&gt;30</title>
<path fill="none" stroke="black" d="M709.82,-340.48C718.72,-327.39 731.47,-308.63 741.62,-293.7"/>
<polygon fill="black" stroke="black" points="744.52,-295.66 747.25,-285.42 738.73,-291.72 744.52,-295.66"/>
<text text-anchor="middle" x="751.5" y="-308.8" font-family="Times,serif" font-size="14.00">Union</text>
</g>
<!-- 31 -->
<g id="node32" class="node">
<title>31</title>
<ellipse fill="none" stroke="black" cx="842" cy="-179.8" rx="27" ry="18"/>
<text text-anchor="start" x="835" y="-176.6" font-family="Times,serif" font-size="14.00">x</text>
<text text-anchor="start" x="842" y="-176.6" font-family="Times,serif" baseline-shift="sub" font-size="14.00">0</text>
<g id="a_node32_23"><a xlink:href="C:\Users\checc\Desktop\ProgettoIntelligentWeb\Progetto\graph\normal\31.txt" xlink:title="Clicca per visualizzare Lx" target="_blank">
<polygon fill="none" stroke="green" points="870,-198.8 870,-224.8 918,-224.8 918,-198.8 870,-198.8"/>
<text text-anchor="start" x="874.56" y="-207.2" font-family="Times,serif" font-size="14.00"> Label </text>
</a>
</g>
<polygon fill="none" stroke="green" points="869,-197.8 869,-225.8 919,-225.8 919,-197.8 869,-197.8"/>
</g>
<!-- 30&#45;&gt;31 -->
<g id="edge31" class="edge">
<title>30&#45;&gt;31</title>
<path fill="none" stroke="black" d="M772.25,-252.88C785.6,-239.08 805.73,-218.27 820.94,-202.56"/>
<polygon fill="black" stroke="black" points="823.52,-204.93 827.96,-195.31 818.49,-200.06 823.52,-204.93"/>
<text text-anchor="middle" x="825.5" y="-220" font-family="Times,serif" font-size="14.00">Union</text>
</g>
<!-- 32 -->
<g id="node33" class="node">
<title>32</title>
<ellipse fill="none" stroke="black" cx="881" cy="-91" rx="27" ry="18"/>
<text text-anchor="start" x="874" y="-87.8" font-family="Times,serif" font-size="14.00">x</text>
<text text-anchor="start" x="881" y="-87.8" font-family="Times,serif" baseline-shift="sub" font-size="14.00">5</text>
<g id="a_node33_24"><a xlink:href="C:\Users\checc\Desktop\ProgettoIntelligentWeb\Progetto\graph\normal\32.txt" xlink:title="Clicca per visualizzare Lx" target="_blank">
<polygon fill="none" stroke="green" points="805,-74 805,-100 853,-100 853,-74 805,-74"/>
<text text-anchor="start" x="809.56" y="-82.4" font-family="Times,serif" font-size="14.00"> Label </text>
</a>
</g>
<polygon fill="none" stroke="green" points="804,-73 804,-101 854,-101 854,-73 804,-73"/>
</g>
<!-- 31&#45;&gt;32 -->
<g id="edge32" class="edge">
<title>31&#45;&gt;32</title>
<path fill="none" stroke="black" d="M849.34,-162.47C854.96,-149.94 862.85,-132.4 869.34,-117.96"/>
<polygon fill="black" stroke="black" points="872.66,-119.1 873.56,-108.55 866.27,-116.24 872.66,-119.1"/>
<text text-anchor="middle" x="920.62" y="-131.2" font-family="Times,serif" font-size="14.00">http://ontology&#45;28R</text>
</g>
<!-- 33 -->
<g id="node34" class="node">
<title>33</title>
<ellipse fill="none" stroke="black" cx="881" cy="-18" rx="69.52" ry="18"/>
<text text-anchor="start" x="838.62" y="-13.8" font-family="Times,serif" font-size="14.00">CLASH&#45;FREE</text>
</g>
<!-- 32&#45;&gt;33 -->
<g id="edge33" class="edge">
<title>32&#45;&gt;33</title>
<path fill="none" stroke="green" d="M881,-72.81C881,-64.79 881,-55.05 881,-46.07"/>
<polygon fill="green" stroke="green" points="884.5,-46.03 881,-36.03 877.5,-46.03 884.5,-46.03"/>
</g>
</g>
</svg>
