<svg width="783px" height="678px"
 viewBox="0.00 0.00 783.00 677.80" xmlns="http://www.w3.org/2000/svg" xmlns:xlink="http://www.w3.org/1999/xlink">
<g id="graph0" class="graph" transform="scale(1.0 1.0) rotate(0.0) translate(4.0 673.8)">
<title>tableaux</title>
<polygon fill="white" stroke="transparent" points="-4,4 -4,-673.8 779,-673.8 779,4 -4,4"/>
<!-- 0 -->
<g id="node1" class="node">
<title>0</title>
<ellipse fill="none" stroke="black" cx="237" cy="-623.8" rx="27" ry="18"/>
<text text-anchor="start" x="230" y="-620.6" font-family="Times,serif" font-size="14.00">x</text>
<text text-anchor="start" x="237" y="-620.6" font-family="Times,serif" baseline-shift="sub" font-size="14.00">0</text>
<g id="a_node1_0"><a xlink:href="C:\Users\checc\Desktop\ProgettoIntelligentWeb\Progetto\graph\normal\0.txt" xlink:title="Clicca per visualizzare Lx" target="_blank">
<polygon fill="none" stroke="green" points="161,-642.8 161,-668.8 209,-668.8 209,-642.8 161,-642.8"/>
<text text-anchor="start" x="165.56" y="-651.2" font-family="Times,serif" font-size="14.00"> Label </text>
</a>
</g>
<polygon fill="none" stroke="green" points="160,-641.8 160,-669.8 210,-669.8 210,-641.8 160,-641.8"/>
</g>
<!-- 1 -->
<g id="node2" class="node">
<title>1</title>
<ellipse fill="none" stroke="black" cx="193" cy="-535" rx="27" ry="18"/>
<text text-anchor="start" x="186" y="-531.8" font-family="Times,serif" font-size="14.00">x</text>
<text text-anchor="start" x="193" y="-531.8" font-family="Times,serif" baseline-shift="sub" font-size="14.00">0</text>
<g id="a_node2_1"><a xlink:href="C:\Users\checc\Desktop\ProgettoIntelligentWeb\Progetto\graph\normal\1.txt" xlink:title="Clicca per visualizzare Lx" target="_blank">
<polygon fill="none" stroke="green" points="117,-554 117,-580 165,-580 165,-554 117,-554"/>
<text text-anchor="start" x="121.56" y="-562.4" font-family="Times,serif" font-size="14.00"> Label </text>
</a>
</g>
<polygon fill="none" stroke="green" points="116,-553 116,-581 166,-581 166,-553 116,-553"/>
</g>
<!-- 0&#45;&gt;1 -->
<g id="edge2" class="edge">
<title>0&#45;&gt;1</title>
<path fill="none" stroke="black" d="M228.72,-606.47C222.27,-593.74 213.2,-575.84 205.81,-561.26"/>
<polygon fill="black" stroke="black" points="208.88,-559.59 201.24,-552.25 202.64,-562.76 208.88,-559.59"/>
<text text-anchor="middle" x="224.25" y="-575.2" font-family="Times,serif" font-size="14.00">⊔</text>
</g>
<!-- 12 -->
<g id="node13" class="node">
<title>12</title>
<ellipse fill="none" stroke="black" cx="314" cy="-535" rx="27" ry="18"/>
<text text-anchor="start" x="307" y="-531.8" font-family="Times,serif" font-size="14.00">x</text>
<text text-anchor="start" x="314" y="-531.8" font-family="Times,serif" baseline-shift="sub" font-size="14.00">0</text>
<g id="a_node13_2"><a xlink:href="C:\Users\checc\Desktop\ProgettoIntelligentWeb\Progetto\graph\normal\12.txt" xlink:title="Clicca per visualizzare Lx" target="_blank">
<polygon fill="none" stroke="green" points="238,-518 238,-544 286,-544 286,-518 238,-518"/>
<text text-anchor="start" x="242.56" y="-526.4" font-family="Times,serif" font-size="14.00"> Label </text>
</a>
</g>
<polygon fill="none" stroke="green" points="237,-517 237,-545 287,-545 287,-517 237,-517"/>
</g>
<!-- 0&#45;&gt;12 -->
<g id="edge1" class="edge">
<title>0&#45;&gt;12</title>
<path fill="none" stroke="black" d="M250.41,-607.68C262.45,-594.11 280.28,-574.02 293.99,-558.55"/>
<polygon fill="black" stroke="black" points="296.72,-560.75 300.74,-550.95 291.49,-556.1 296.72,-560.75"/>
<text text-anchor="middle" x="288.25" y="-575.2" font-family="Times,serif" font-size="14.00">⊔</text>
</g>
<!-- 2 -->
<g id="node3" class="node">
<title>2</title>
<ellipse fill="none" stroke="black" cx="77" cy="-446.2" rx="27" ry="18"/>
<text text-anchor="start" x="70" y="-443" font-family="Times,serif" font-size="14.00">x</text>
<text text-anchor="start" x="77" y="-443" font-family="Times,serif" baseline-shift="sub" font-size="14.00">0</text>
<g id="a_node3_3"><a xlink:href="C:\Users\checc\Desktop\ProgettoIntelligentWeb\Progetto\graph\normal\2.txt" xlink:title="Clicca per visualizzare Lx" target="_blank">
<polygon fill="none" stroke="green" points="1,-465.2 1,-491.2 49,-491.2 49,-465.2 1,-465.2"/>
<text text-anchor="start" x="5.56" y="-473.6" font-family="Times,serif" font-size="14.00"> Label </text>
</a>
</g>
<polygon fill="none" stroke="green" points="0,-464.2 0,-492.2 50,-492.2 50,-464.2 0,-464.2"/>
</g>
<!-- 1&#45;&gt;2 -->
<g id="edge4" class="edge">
<title>1&#45;&gt;2</title>
<path fill="none" stroke="black" d="M175.63,-521.01C156.33,-506.56 124.95,-483.08 102.78,-466.49"/>
<polygon fill="black" stroke="black" points="104.59,-463.47 94.49,-460.28 100.39,-469.08 104.59,-463.47"/>
<text text-anchor="middle" x="151.25" y="-486.4" font-family="Times,serif" font-size="14.00">⊔</text>
</g>
<!-- 4 -->
<g id="node5" class="node">
<title>4</title>
<ellipse fill="none" stroke="black" cx="193" cy="-446.2" rx="27" ry="18"/>
<text text-anchor="start" x="186" y="-443" font-family="Times,serif" font-size="14.00">x</text>
<text text-anchor="start" x="193" y="-443" font-family="Times,serif" baseline-shift="sub" font-size="14.00">0</text>
<g id="a_node5_4"><a xlink:href="C:\Users\checc\Desktop\ProgettoIntelligentWeb\Progetto\graph\normal\4.txt" xlink:title="Clicca per visualizzare Lx" target="_blank">
<polygon fill="none" stroke="green" points="117,-429.2 117,-455.2 165,-455.2 165,-429.2 117,-429.2"/>
<text text-anchor="start" x="121.56" y="-437.6" font-family="Times,serif" font-size="14.00"> Label </text>
</a>
</g>
<polygon fill="none" stroke="green" points="116,-428.2 116,-456.2 166,-456.2 166,-428.2 116,-428.2"/>
</g>
<!-- 1&#45;&gt;4 -->
<g id="edge3" class="edge">
<title>1&#45;&gt;4</title>
<path fill="none" stroke="black" d="M193,-516.85C193,-504.72 193,-488.22 193,-474.32"/>
<polygon fill="black" stroke="black" points="196.5,-474.31 193,-464.31 189.5,-474.31 196.5,-474.31"/>
<text text-anchor="middle" x="198.25" y="-486.4" font-family="Times,serif" font-size="14.00">⊔</text>
</g>
<!-- 3 -->
<g id="node4" class="node">
<title>3</title>
<ellipse fill="none" stroke="black" cx="66" cy="-357.4" rx="42.88" ry="18"/>
<text text-anchor="start" x="43.06" y="-353.2" font-family="Times,serif" font-size="14.00">CLASH</text>
</g>
<!-- 2&#45;&gt;3 -->
<g id="edge5" class="edge">
<title>2&#45;&gt;3</title>
<path fill="none" stroke="red" d="M74.83,-428.05C73.29,-415.92 71.2,-399.42 69.44,-385.52"/>
<polygon fill="red" stroke="red" points="72.9,-384.99 68.17,-375.51 65.95,-385.87 72.9,-384.99"/>
</g>
<!-- 5 -->
<g id="node6" class="node">
<title>5</title>
<ellipse fill="none" stroke="black" cx="154" cy="-357.4" rx="27" ry="18"/>
<text text-anchor="start" x="147" y="-354.2" font-family="Times,serif" font-size="14.00">x</text>
<text text-anchor="start" x="154" y="-354.2" font-family="Times,serif" baseline-shift="sub" font-size="14.00">0</text>
<g id="a_node6_5"><a xlink:href="C:\Users\checc\Desktop\ProgettoIntelligentWeb\Progetto\graph\normal\5.txt" xlink:title="Clicca per visualizzare Lx" target="_blank">
<polygon fill="none" stroke="green" points="78,-376.4 78,-402.4 126,-402.4 126,-376.4 78,-376.4"/>
<text text-anchor="start" x="82.56" y="-384.8" font-family="Times,serif" font-size="14.00"> Label </text>
</a>
</g>
<polygon fill="none" stroke="green" points="77,-375.4 77,-403.4 127,-403.4 127,-375.4 77,-375.4"/>
</g>
<!-- 4&#45;&gt;5 -->
<g id="edge7" class="edge">
<title>4&#45;&gt;5</title>
<path fill="none" stroke="black" d="M185.66,-428.87C180.04,-416.34 172.15,-398.8 165.66,-384.36"/>
<polygon fill="black" stroke="black" points="168.73,-382.64 161.44,-374.95 162.34,-385.5 168.73,-382.64"/>
<text text-anchor="middle" x="182.25" y="-397.6" font-family="Times,serif" font-size="14.00">⊔</text>
</g>
<!-- 7 -->
<g id="node8" class="node">
<title>7</title>
<ellipse fill="none" stroke="black" cx="226" cy="-357.4" rx="27" ry="18"/>
<text text-anchor="start" x="219" y="-354.2" font-family="Times,serif" font-size="14.00">x</text>
<text text-anchor="start" x="226" y="-354.2" font-family="Times,serif" baseline-shift="sub" font-size="14.00">0</text>
<g id="a_node8_6"><a xlink:href="C:\Users\checc\Desktop\ProgettoIntelligentWeb\Progetto\graph\normal\7.txt" xlink:title="Clicca per visualizzare Lx" target="_blank">
<polygon fill="none" stroke="green" points="150,-312.4 150,-338.4 198,-338.4 198,-312.4 150,-312.4"/>
<text text-anchor="start" x="154.56" y="-320.8" font-family="Times,serif" font-size="14.00"> Label </text>
</a>
</g>
<polygon fill="none" stroke="green" points="149,-311.4 149,-339.4 199,-339.4 199,-311.4 149,-311.4"/>
</g>
<!-- 4&#45;&gt;7 -->
<g id="edge6" class="edge">
<title>4&#45;&gt;7</title>
<path fill="none" stroke="black" d="M199.36,-428.46C204.06,-416.1 210.56,-399.01 215.96,-384.81"/>
<polygon fill="black" stroke="black" points="219.37,-385.68 219.66,-375.08 212.83,-383.19 219.37,-385.68"/>
<text text-anchor="middle" x="218.25" y="-397.6" font-family="Times,serif" font-size="14.00">⊔</text>
</g>
<!-- 6 -->
<g id="node7" class="node">
<title>6</title>
<ellipse fill="none" stroke="black" cx="138" cy="-268.6" rx="42.88" ry="18"/>
<text text-anchor="start" x="115.06" y="-264.4" font-family="Times,serif" font-size="14.00">CLASH</text>
</g>
<!-- 5&#45;&gt;6 -->
<g id="edge8" class="edge">
<title>5&#45;&gt;6</title>
<path fill="none" stroke="red" d="M150.84,-339.25C148.6,-327.12 145.56,-310.62 143,-296.72"/>
<polygon fill="red" stroke="red" points="146.41,-295.91 141.15,-286.71 139.53,-297.18 146.41,-295.91"/>
</g>
<!-- 8 -->
<g id="node9" class="node">
<title>8</title>
<ellipse fill="none" stroke="black" cx="226" cy="-268.6" rx="27" ry="18"/>
<text text-anchor="start" x="219" y="-265.4" font-family="Times,serif" font-size="14.00">x</text>
<text text-anchor="start" x="226" y="-265.4" font-family="Times,serif" baseline-shift="sub" font-size="14.00">0</text>
<g id="a_node9_7"><a xlink:href="C:\Users\checc\Desktop\ProgettoIntelligentWeb\Progetto\graph\normal\8.txt" xlink:title="Clicca per visualizzare Lx" target="_blank">
<polygon fill="none" stroke="green" points="150,-223.6 150,-249.6 198,-249.6 198,-223.6 150,-223.6"/>
<text text-anchor="start" x="154.56" y="-232" font-family="Times,serif" font-size="14.00"> Label </text>
</a>
</g>
<polygon fill="none" stroke="green" points="149,-222.6 149,-250.6 199,-250.6 199,-222.6 149,-222.6"/>
</g>
<!-- 7&#45;&gt;8 -->
<g id="edge10" class="edge">
<title>7&#45;&gt;8</title>
<path fill="none" stroke="black" d="M226,-339.25C226,-327.12 226,-310.62 226,-296.72"/>
<polygon fill="black" stroke="black" points="229.5,-296.71 226,-286.71 222.5,-296.71 229.5,-296.71"/>
<text text-anchor="middle" x="231.25" y="-308.8" font-family="Times,serif" font-size="14.00">⊔</text>
</g>
<!-- 10 -->
<g id="node11" class="node">
<title>10</title>
<ellipse fill="none" stroke="black" cx="302" cy="-268.6" rx="27" ry="18"/>
<text text-anchor="start" x="295" y="-265.4" font-family="Times,serif" font-size="14.00">x</text>
<text text-anchor="start" x="302" y="-265.4" font-family="Times,serif" baseline-shift="sub" font-size="14.00">0</text>
<g id="a_node11_8"><a xlink:href="C:\Users\checc\Desktop\ProgettoIntelligentWeb\Progetto\graph\normal\10.txt" xlink:title="Clicca per visualizzare Lx" target="_blank">
<polygon fill="none" stroke="green" points="226,-223.6 226,-249.6 274,-249.6 274,-223.6 226,-223.6"/>
<text text-anchor="start" x="230.56" y="-232" font-family="Times,serif" font-size="14.00"> Label </text>
</a>
</g>
<polygon fill="none" stroke="green" points="225,-222.6 225,-250.6 275,-250.6 275,-222.6 225,-222.6"/>
</g>
<!-- 7&#45;&gt;10 -->
<g id="edge9" class="edge">
<title>7&#45;&gt;10</title>
<path fill="none" stroke="black" d="M239.24,-341.28C251.12,-327.71 268.71,-307.62 282.25,-292.15"/>
<polygon fill="black" stroke="black" points="284.96,-294.38 288.91,-284.55 279.69,-289.76 284.96,-294.38"/>
<text text-anchor="middle" x="276.25" y="-308.8" font-family="Times,serif" font-size="14.00">⊔</text>
</g>
<!-- 9 -->
<g id="node10" class="node">
<title>9</title>
<ellipse fill="none" stroke="black" cx="222" cy="-179.8" rx="42.88" ry="18"/>
<text text-anchor="start" x="199.06" y="-175.6" font-family="Times,serif" font-size="14.00">CLASH</text>
</g>
<!-- 8&#45;&gt;9 -->
<g id="edge11" class="edge">
<title>8&#45;&gt;9</title>
<path fill="none" stroke="red" d="M225.21,-250.45C224.65,-238.32 223.89,-221.82 223.25,-207.92"/>
<polygon fill="red" stroke="red" points="226.75,-207.74 222.79,-197.91 219.75,-208.06 226.75,-207.74"/>
</g>
<!-- 11 -->
<g id="node12" class="node">
<title>11</title>
<ellipse fill="none" stroke="black" cx="325" cy="-179.8" rx="42.88" ry="18"/>
<text text-anchor="start" x="302.06" y="-175.6" font-family="Times,serif" font-size="14.00">CLASH</text>
</g>
<!-- 10&#45;&gt;11 -->
<g id="edge12" class="edge">
<title>10&#45;&gt;11</title>
<path fill="none" stroke="red" d="M306.54,-250.45C309.76,-238.32 314.13,-221.82 317.81,-207.92"/>
<polygon fill="red" stroke="red" points="321.29,-208.48 320.47,-197.91 314.52,-206.68 321.29,-208.48"/>
</g>
<!-- 13 -->
<g id="node14" class="node">
<title>13</title>
<ellipse fill="none" stroke="black" cx="314" cy="-446.2" rx="27" ry="18"/>
<text text-anchor="start" x="307" y="-443" font-family="Times,serif" font-size="14.00">x</text>
<text text-anchor="start" x="314" y="-443" font-family="Times,serif" baseline-shift="sub" font-size="14.00">0</text>
<g id="a_node14_9"><a xlink:href="C:\Users\checc\Desktop\ProgettoIntelligentWeb\Progetto\graph\normal\13.txt" xlink:title="Clicca per visualizzare Lx" target="_blank">
<polygon fill="none" stroke="green" points="238,-465.2 238,-491.2 286,-491.2 286,-465.2 238,-465.2"/>
<text text-anchor="start" x="242.56" y="-473.6" font-family="Times,serif" font-size="14.00"> Label </text>
</a>
</g>
<polygon fill="none" stroke="green" points="237,-464.2 237,-492.2 287,-492.2 287,-464.2 237,-464.2"/>
</g>
<!-- 12&#45;&gt;13 -->
<g id="edge14" class="edge">
<title>12&#45;&gt;13</title>
<path fill="none" stroke="black" d="M314,-516.85C314,-504.72 314,-488.22 314,-474.32"/>
<polygon fill="black" stroke="black" points="317.5,-474.31 314,-464.31 310.5,-474.31 317.5,-474.31"/>
<text text-anchor="middle" x="319.25" y="-486.4" font-family="Times,serif" font-size="14.00">⊔</text>
</g>
<!-- 15 -->
<g id="node16" class="node">
<title>15</title>
<ellipse fill="none" stroke="black" cx="402" cy="-446.2" rx="27" ry="18"/>
<text text-anchor="start" x="395" y="-443" font-family="Times,serif" font-size="14.00">x</text>
<text text-anchor="start" x="402" y="-443" font-family="Times,serif" baseline-shift="sub" font-size="14.00">0</text>
<g id="a_node16_10"><a xlink:href="C:\Users\checc\Desktop\ProgettoIntelligentWeb\Progetto\graph\normal\15.txt" xlink:title="Clicca per visualizzare Lx" target="_blank">
<polygon fill="none" stroke="green" points="326,-401.2 326,-427.2 374,-427.2 374,-401.2 326,-401.2"/>
<text text-anchor="start" x="330.56" y="-409.6" font-family="Times,serif" font-size="14.00"> Label </text>
</a>
</g>
<polygon fill="none" stroke="green" points="325,-400.2 325,-428.2 375,-428.2 375,-400.2 325,-400.2"/>
</g>
<!-- 12&#45;&gt;15 -->
<g id="edge13" class="edge">
<title>12&#45;&gt;15</title>
<path fill="none" stroke="black" d="M328.53,-519.67C342.54,-505.85 363.93,-484.75 380.03,-468.87"/>
<polygon fill="black" stroke="black" points="382.79,-471.07 387.45,-461.55 377.87,-466.09 382.79,-471.07"/>
<text text-anchor="middle" x="371.25" y="-486.4" font-family="Times,serif" font-size="14.00">⊔</text>
</g>
<!-- 14 -->
<g id="node15" class="node">
<title>14</title>
<ellipse fill="none" stroke="black" cx="314" cy="-357.4" rx="42.88" ry="18"/>
<text text-anchor="start" x="291.06" y="-353.2" font-family="Times,serif" font-size="14.00">CLASH</text>
</g>
<!-- 13&#45;&gt;14 -->
<g id="edge15" class="edge">
<title>13&#45;&gt;14</title>
<path fill="none" stroke="red" d="M314,-428.05C314,-415.92 314,-399.42 314,-385.52"/>
<polygon fill="red" stroke="red" points="317.5,-385.51 314,-375.51 310.5,-385.51 317.5,-385.51"/>
</g>
<!-- 16 -->
<g id="node17" class="node">
<title>16</title>
<ellipse fill="none" stroke="black" cx="402" cy="-357.4" rx="27" ry="18"/>
<text text-anchor="start" x="395" y="-354.2" font-family="Times,serif" font-size="14.00">x</text>
<text text-anchor="start" x="402" y="-354.2" font-family="Times,serif" baseline-shift="sub" font-size="14.00">0</text>
<g id="a_node17_11"><a xlink:href="C:\Users\checc\Desktop\ProgettoIntelligentWeb\Progetto\graph\normal\16.txt" xlink:title="Clicca per visualizzare Lx" target="_blank">
<polygon fill="none" stroke="green" points="326,-312.4 326,-338.4 374,-338.4 374,-312.4 326,-312.4"/>
<text text-anchor="start" x="330.56" y="-320.8" font-family="Times,serif" font-size="14.00"> Label </text>
</a>
</g>
<polygon fill="none" stroke="green" points="325,-311.4 325,-339.4 375,-339.4 375,-311.4 325,-311.4"/>
</g>
<!-- 15&#45;&gt;16 -->
<g id="edge17" class="edge">
<title>15&#45;&gt;16</title>
<path fill="none" stroke="black" d="M402,-428.05C402,-415.92 402,-399.42 402,-385.52"/>
<polygon fill="black" stroke="black" points="405.5,-385.51 402,-375.51 398.5,-385.51 405.5,-385.51"/>
<text text-anchor="middle" x="407.25" y="-397.6" font-family="Times,serif" font-size="14.00">⊔</text>
</g>
<!-- 18 -->
<g id="node19" class="node">
<title>18</title>
<ellipse fill="none" stroke="black" cx="485" cy="-357.4" rx="27" ry="18"/>
<text text-anchor="start" x="478" y="-354.2" font-family="Times,serif" font-size="14.00">x</text>
<text text-anchor="start" x="485" y="-354.2" font-family="Times,serif" baseline-shift="sub" font-size="14.00">0</text>
<g id="a_node19_12"><a xlink:href="C:\Users\checc\Desktop\ProgettoIntelligentWeb\Progetto\graph\normal\18.txt" xlink:title="Clicca per visualizzare Lx" target="_blank">
<polygon fill="none" stroke="green" points="409,-312.4 409,-338.4 457,-338.4 457,-312.4 409,-312.4"/>
<text text-anchor="start" x="413.56" y="-320.8" font-family="Times,serif" font-size="14.00"> Label </text>
</a>
</g>
<polygon fill="none" stroke="green" points="408,-311.4 408,-339.4 458,-339.4 458,-311.4 408,-311.4"/>
</g>
<!-- 15&#45;&gt;18 -->
<g id="edge16" class="edge">
<title>15&#45;&gt;18</title>
<path fill="none" stroke="black" d="M416.08,-430.48C429.28,-416.68 449.17,-395.87 464.19,-380.16"/>
<polygon fill="black" stroke="black" points="466.75,-382.55 471.13,-372.91 461.69,-377.72 466.75,-382.55"/>
<text text-anchor="middle" x="456.25" y="-397.6" font-family="Times,serif" font-size="14.00">⊔</text>
</g>
<!-- 17 -->
<g id="node18" class="node">
<title>17</title>
<ellipse fill="none" stroke="black" cx="397" cy="-268.6" rx="42.88" ry="18"/>
<text text-anchor="start" x="374.06" y="-264.4" font-family="Times,serif" font-size="14.00">CLASH</text>
</g>
<!-- 16&#45;&gt;17 -->
<g id="edge18" class="edge">
<title>16&#45;&gt;17</title>
<path fill="none" stroke="red" d="M401.01,-339.25C400.31,-327.12 399.36,-310.62 398.56,-296.72"/>
<polygon fill="red" stroke="red" points="402.06,-296.5 397.99,-286.71 395.07,-296.9 402.06,-296.5"/>
</g>
<!-- 19 -->
<g id="node20" class="node">
<title>19</title>
<ellipse fill="none" stroke="black" cx="485" cy="-268.6" rx="27" ry="18"/>
<text text-anchor="start" x="478" y="-265.4" font-family="Times,serif" font-size="14.00">x</text>
<text text-anchor="start" x="485" y="-265.4" font-family="Times,serif" baseline-shift="sub" font-size="14.00">0</text>
<g id="a_node20_13"><a xlink:href="C:\Users\checc\Desktop\ProgettoIntelligentWeb\Progetto\graph\normal\19.txt" xlink:title="Clicca per visualizzare Lx" target="_blank">
<polygon fill="none" stroke="green" points="513,-223.6 513,-249.6 561,-249.6 561,-223.6 513,-223.6"/>
<text text-anchor="start" x="517.56" y="-232" font-family="Times,serif" font-size="14.00"> Label </text>
</a>
</g>
<polygon fill="none" stroke="green" points="512,-222.6 512,-250.6 562,-250.6 562,-222.6 512,-222.6"/>
</g>
<!-- 18&#45;&gt;19 -->
<g id="edge20" class="edge">
<title>18&#45;&gt;19</title>
<path fill="none" stroke="black" d="M485,-339.25C485,-327.12 485,-310.62 485,-296.72"/>
<polygon fill="black" stroke="black" points="488.5,-296.71 485,-286.71 481.5,-296.71 488.5,-296.71"/>
<text text-anchor="middle" x="490.25" y="-308.8" font-family="Times,serif" font-size="14.00">⊔</text>
</g>
<!-- 24 -->
<g id="node25" class="node">
<title>24</title>
<ellipse fill="none" stroke="black" cx="588" cy="-268.6" rx="27" ry="18"/>
<text text-anchor="start" x="581" y="-265.4" font-family="Times,serif" font-size="14.00">x</text>
<text text-anchor="start" x="588" y="-265.4" font-family="Times,serif" baseline-shift="sub" font-size="14.00">0</text>
<g id="a_node25_14"><a xlink:href="C:\Users\checc\Desktop\ProgettoIntelligentWeb\Progetto\graph\normal\24.txt" xlink:title="Clicca per visualizzare Lx" target="_blank">
<polygon fill="none" stroke="green" points="562,-287.6 562,-313.6 610,-313.6 610,-287.6 562,-287.6"/>
<text text-anchor="start" x="566.56" y="-296" font-family="Times,serif" font-size="14.00"> Label </text>
</a>
</g>
<polygon fill="none" stroke="green" points="561,-286.6 561,-314.6 611,-314.6 611,-286.6 561,-286.6"/>
</g>
<!-- 18&#45;&gt;24 -->
<g id="edge19" class="edge">
<title>18&#45;&gt;24</title>
<path fill="none" stroke="black" d="M501.09,-342.84C517.93,-328.65 544.54,-306.23 563.88,-289.92"/>
<polygon fill="black" stroke="black" points="566.29,-292.47 571.68,-283.35 561.78,-287.12 566.29,-292.47"/>
<text text-anchor="middle" x="551.25" y="-308.8" font-family="Times,serif" font-size="14.00">⊔</text>
</g>
<!-- 20 -->
<g id="node21" class="node">
<title>20</title>
<ellipse fill="none" stroke="black" cx="413" cy="-179.8" rx="27" ry="18"/>
<text text-anchor="start" x="406" y="-176.6" font-family="Times,serif" font-size="14.00">x</text>
<text text-anchor="start" x="413" y="-176.6" font-family="Times,serif" baseline-shift="sub" font-size="14.00">0</text>
<g id="a_node21_15"><a xlink:href="C:\Users\checc\Desktop\ProgettoIntelligentWeb\Progetto\graph\normal\20.txt" xlink:title="Clicca per visualizzare Lx" target="_blank">
<polygon fill="none" stroke="green" points="337,-198.8 337,-224.8 385,-224.8 385,-198.8 337,-198.8"/>
<text text-anchor="start" x="341.56" y="-207.2" font-family="Times,serif" font-size="14.00"> Label </text>
</a>
</g>
<polygon fill="none" stroke="green" points="336,-197.8 336,-225.8 386,-225.8 386,-197.8 336,-197.8"/>
</g>
<!-- 19&#45;&gt;20 -->
<g id="edge22" class="edge">
<title>19&#45;&gt;20</title>
<path fill="none" stroke="black" d="M472.46,-252.48C461.38,-239.12 445.04,-219.43 432.29,-204.06"/>
<polygon fill="black" stroke="black" points="434.72,-201.5 425.64,-196.04 429.33,-205.97 434.72,-201.5"/>
<text text-anchor="middle" x="461.25" y="-220" font-family="Times,serif" font-size="14.00">⊔</text>
</g>
<!-- 22 -->
<g id="node23" class="node">
<title>22</title>
<ellipse fill="none" stroke="black" cx="485" cy="-179.8" rx="27" ry="18"/>
<text text-anchor="start" x="478" y="-176.6" font-family="Times,serif" font-size="14.00">x</text>
<text text-anchor="start" x="485" y="-176.6" font-family="Times,serif" baseline-shift="sub" font-size="14.00">0</text>
<g id="a_node23_16"><a xlink:href="C:\Users\checc\Desktop\ProgettoIntelligentWeb\Progetto\graph\normal\22.txt" xlink:title="Clicca per visualizzare Lx" target="_blank">
<polygon fill="none" stroke="green" points="409,-134.8 409,-160.8 457,-160.8 457,-134.8 409,-134.8"/>
<text text-anchor="start" x="413.56" y="-143.2" font-family="Times,serif" font-size="14.00"> Label </text>
</a>
</g>
<polygon fill="none" stroke="green" points="408,-133.8 408,-161.8 458,-161.8 458,-133.8 408,-133.8"/>
</g>
<!-- 19&#45;&gt;22 -->
<g id="edge21" class="edge">
<title>19&#45;&gt;22</title>
<path fill="none" stroke="black" d="M485,-250.45C485,-238.32 485,-221.82 485,-207.92"/>
<polygon fill="black" stroke="black" points="488.5,-207.91 485,-197.91 481.5,-207.91 488.5,-207.91"/>
<text text-anchor="middle" x="490.25" y="-220" font-family="Times,serif" font-size="14.00">⊔</text>
</g>
<!-- 21 -->
<g id="node22" class="node">
<title>21</title>
<ellipse fill="none" stroke="black" cx="382" cy="-91" rx="42.88" ry="18"/>
<text text-anchor="start" x="359.06" y="-86.8" font-family="Times,serif" font-size="14.00">CLASH</text>
</g>
<!-- 20&#45;&gt;21 -->
<g id="edge23" class="edge">
<title>20&#45;&gt;21</title>
<path fill="none" stroke="red" d="M407.02,-162.06C402.63,-149.78 396.58,-132.83 391.53,-118.68"/>
<polygon fill="red" stroke="red" points="394.72,-117.22 388.06,-108.98 388.13,-119.58 394.72,-117.22"/>
</g>
<!-- 23 -->
<g id="node24" class="node">
<title>23</title>
<ellipse fill="none" stroke="black" cx="485" cy="-91" rx="42.88" ry="18"/>
<text text-anchor="start" x="462.06" y="-86.8" font-family="Times,serif" font-size="14.00">CLASH</text>
</g>
<!-- 22&#45;&gt;23 -->
<g id="edge24" class="edge">
<title>22&#45;&gt;23</title>
<path fill="none" stroke="red" d="M485,-161.65C485,-149.52 485,-133.02 485,-119.12"/>
<polygon fill="red" stroke="red" points="488.5,-119.11 485,-109.11 481.5,-119.11 488.5,-119.11"/>
</g>
<!-- 25 -->
<g id="node26" class="node">
<title>25</title>
<ellipse fill="none" stroke="black" cx="588" cy="-179.8" rx="27" ry="18"/>
<text text-anchor="start" x="581" y="-176.6" font-family="Times,serif" font-size="14.00">x</text>
<text text-anchor="start" x="588" y="-176.6" font-family="Times,serif" baseline-shift="sub" font-size="14.00">0</text>
<g id="a_node26_17"><a xlink:href="C:\Users\checc\Desktop\ProgettoIntelligentWeb\Progetto\graph\normal\25.txt" xlink:title="Clicca per visualizzare Lx" target="_blank">
<polygon fill="none" stroke="green" points="512,-134.8 512,-160.8 560,-160.8 560,-134.8 512,-134.8"/>
<text text-anchor="start" x="516.56" y="-143.2" font-family="Times,serif" font-size="14.00"> Label </text>
</a>
</g>
<polygon fill="none" stroke="green" points="511,-133.8 511,-161.8 561,-161.8 561,-133.8 511,-133.8"/>
</g>
<!-- 24&#45;&gt;25 -->
<g id="edge26" class="edge">
<title>24&#45;&gt;25</title>
<path fill="none" stroke="black" d="M588,-250.45C588,-238.32 588,-221.82 588,-207.92"/>
<polygon fill="black" stroke="black" points="591.5,-207.91 588,-197.91 584.5,-207.91 591.5,-207.91"/>
<text text-anchor="middle" x="593.25" y="-220" font-family="Times,serif" font-size="14.00">⊔</text>
</g>
<!-- 27 -->
<g id="node28" class="node">
<title>27</title>
<ellipse fill="none" stroke="black" cx="676" cy="-179.8" rx="27" ry="18"/>
<text text-anchor="start" x="669" y="-176.6" font-family="Times,serif" font-size="14.00">x</text>
<text text-anchor="start" x="676" y="-176.6" font-family="Times,serif" baseline-shift="sub" font-size="14.00">0</text>
<g id="a_node28_18"><a xlink:href="C:\Users\checc\Desktop\ProgettoIntelligentWeb\Progetto\graph\normal\27.txt" xlink:title="Clicca per visualizzare Lx" target="_blank">
<polygon fill="none" stroke="green" points="600,-134.8 600,-160.8 648,-160.8 648,-134.8 600,-134.8"/>
<text text-anchor="start" x="604.56" y="-143.2" font-family="Times,serif" font-size="14.00"> Label </text>
</a>
</g>
<polygon fill="none" stroke="green" points="599,-133.8 599,-161.8 649,-161.8 649,-133.8 599,-133.8"/>
</g>
<!-- 24&#45;&gt;27 -->
<g id="edge25" class="edge">
<title>24&#45;&gt;27</title>
<path fill="none" stroke="black" d="M602.53,-253.27C616.54,-239.45 637.93,-218.35 654.03,-202.47"/>
<polygon fill="black" stroke="black" points="656.79,-204.67 661.45,-195.15 651.87,-199.69 656.79,-204.67"/>
<text text-anchor="middle" x="645.25" y="-220" font-family="Times,serif" font-size="14.00">⊔</text>
</g>
<!-- 26 -->
<g id="node27" class="node">
<title>26</title>
<ellipse fill="none" stroke="black" cx="588" cy="-91" rx="42.88" ry="18"/>
<text text-anchor="start" x="565.06" y="-86.8" font-family="Times,serif" font-size="14.00">CLASH</text>
</g>
<!-- 25&#45;&gt;26 -->
<g id="edge27" class="edge">
<title>25&#45;&gt;26</title>
<path fill="none" stroke="red" d="M588,-161.65C588,-149.52 588,-133.02 588,-119.12"/>
<polygon fill="red" stroke="red" points="591.5,-119.11 588,-109.11 584.5,-119.11 591.5,-119.11"/>
</g>
<!-- 28 -->
<g id="node29" class="node">
<title>28</title>
<ellipse fill="none" stroke="black" cx="676" cy="-91" rx="27" ry="18"/>
<text text-anchor="start" x="669" y="-87.8" font-family="Times,serif" font-size="14.00">x</text>
<text text-anchor="start" x="676" y="-87.8" font-family="Times,serif" baseline-shift="sub" font-size="14.00">0</text>
<g id="a_node29_19"><a xlink:href="C:\Users\checc\Desktop\ProgettoIntelligentWeb\Progetto\graph\normal\28.txt" xlink:title="Clicca per visualizzare Lx" target="_blank">
<polygon fill="none" stroke="green" points="600,-46 600,-72 648,-72 648,-46 600,-46"/>
<text text-anchor="start" x="604.56" y="-54.4" font-family="Times,serif" font-size="14.00"> Label </text>
</a>
</g>
<polygon fill="none" stroke="green" points="599,-45 599,-73 649,-73 649,-45 599,-45"/>
</g>
<!-- 27&#45;&gt;28 -->
<g id="edge29" class="edge">
<title>27&#45;&gt;28</title>
<path fill="none" stroke="black" d="M676,-161.65C676,-149.52 676,-133.02 676,-119.12"/>
<polygon fill="black" stroke="black" points="679.5,-119.11 676,-109.11 672.5,-119.11 679.5,-119.11"/>
<text text-anchor="middle" x="681.25" y="-131.2" font-family="Times,serif" font-size="14.00">⊔</text>
</g>
<!-- 30 -->
<g id="node31" class="node">
<title>30</title>
<ellipse fill="none" stroke="black" cx="748" cy="-91" rx="27" ry="18"/>
<text text-anchor="start" x="741" y="-87.8" font-family="Times,serif" font-size="14.00">x</text>
<text text-anchor="start" x="748" y="-87.8" font-family="Times,serif" baseline-shift="sub" font-size="14.00">0</text>
<g id="a_node31_20"><a xlink:href="C:\Users\checc\Desktop\ProgettoIntelligentWeb\Progetto\graph\normal\30.txt" xlink:title="Clicca per visualizzare Lx" target="_blank">
<polygon fill="none" stroke="green" points="672,-46 672,-72 720,-72 720,-46 672,-46"/>
<text text-anchor="start" x="676.56" y="-54.4" font-family="Times,serif" font-size="14.00"> Label </text>
</a>
</g>
<polygon fill="none" stroke="green" points="671,-45 671,-73 721,-73 721,-45 671,-45"/>
</g>
<!-- 27&#45;&gt;30 -->
<g id="edge28" class="edge">
<title>27&#45;&gt;30</title>
<path fill="none" stroke="black" d="M688.54,-163.68C699.62,-150.32 715.96,-130.63 728.71,-115.26"/>
<polygon fill="black" stroke="black" points="731.67,-117.17 735.36,-107.24 726.28,-112.7 731.67,-117.17"/>
<text text-anchor="middle" x="724.25" y="-131.2" font-family="Times,serif" font-size="14.00">⊔</text>
</g>
<!-- 29 -->
<g id="node30" class="node">
<title>29</title>
<ellipse fill="none" stroke="black" cx="676" cy="-18" rx="42.88" ry="18"/>
<text text-anchor="start" x="653.06" y="-13.8" font-family="Times,serif" font-size="14.00">CLASH</text>
</g>
<!-- 28&#45;&gt;29 -->
<g id="edge30" class="edge">
<title>28&#45;&gt;29</title>
<path fill="none" stroke="red" d="M676,-72.81C676,-64.79 676,-55.05 676,-46.07"/>
<polygon fill="red" stroke="red" points="679.5,-46.03 676,-36.03 672.5,-46.03 679.5,-46.03"/>
</g>
</g>
</svg>
