<svg width="1210px" height="521px"
 viewBox="0.00 0.00 1210.00 521.00" xmlns="http://www.w3.org/2000/svg" xmlns:xlink="http://www.w3.org/1999/xlink">
<g id="graph0" class="graph" transform="scale(1.0 1.0) rotate(0.0) translate(4.0 517.0)">
<title>tableaux</title>
<polygon fill="white" stroke="transparent" points="-4,4 -4,-517 1206,-517 1206,4 -4,4"/>
<!-- 0 -->
<g id="node1" class="node">
<title>0</title>
<ellipse fill="none" stroke="black" cx="593" cy="-446.2" rx="27" ry="18"/>
<text text-anchor="middle" x="593" y="-442" font-family="Times,serif" font-size="14.00">x0</text>
<text text-anchor="middle" x="380.96" y="-468.4" font-family="Times,serif" font-size="14.00">(B ⊔ ¬A ), ((A ⊔ ¬B )⊓ (B ⊔ ¬A )), ∃R.(A ⊓ ¬B ), (A ⊔ ¬B ), </text>
</g>
<!-- 1 -->
<g id="node2" class="node">
<title>1</title>
<ellipse fill="none" stroke="black" cx="542" cy="-357.4" rx="27" ry="18"/>
<text text-anchor="middle" x="542" y="-353.2" font-family="Times,serif" font-size="14.00">x0</text>
<polygon fill="none" stroke="black" points="117.5,-378.4 117.5,-400.4 512.5,-400.4 512.5,-378.4 117.5,-378.4"/>
<text text-anchor="start" x="120.04" y="-384.8" font-family="Times,serif" font-size="14.00">(B ⊔ ¬A ), ((A ⊔ ¬B )⊓ (B ⊔ ¬A )), B , ∃R.(A ⊓ ¬B ), (A ⊔ ¬B ), </text>
<polygon fill="none" stroke="black" points="114,-375.4 114,-403.4 515,-403.4 515,-375.4 114,-375.4"/>
</g>
<!-- 0&#45;&gt;1 -->
<g id="edge2" class="edge">
<title>0&#45;&gt;1</title>
<path fill="none" stroke="black" d="M583.65,-429.28C576.07,-416.39 565.27,-398.01 556.57,-383.2"/>
<polygon fill="black" stroke="black" points="559.55,-381.36 551.47,-374.51 553.52,-384.91 559.55,-381.36"/>
<text text-anchor="middle" x="590.5" y="-397.6" font-family="Times,serif" font-size="14.00">Union</text>
</g>
<!-- 10 -->
<g id="node11" class="node">
<title>10</title>
<ellipse fill="none" stroke="black" cx="645" cy="-357.4" rx="27" ry="18"/>
<text text-anchor="middle" x="645" y="-353.2" font-family="Times,serif" font-size="14.00">x0</text>
<polygon fill="none" stroke="black" points="675,-378.4 675,-400.4 1081,-400.4 1081,-378.4 675,-378.4"/>
<text text-anchor="start" x="677.99" y="-384.8" font-family="Times,serif" font-size="14.00">(B ⊔ ¬A ), ((A ⊔ ¬B )⊓ (B ⊔ ¬A )), ∃R.(A ⊓ ¬B ), ¬A , (A ⊔ ¬B ), </text>
<polygon fill="none" stroke="black" points="672,-375.4 672,-403.4 1084,-403.4 1084,-375.4 672,-375.4"/>
</g>
<!-- 0&#45;&gt;10 -->
<g id="edge1" class="edge">
<title>0&#45;&gt;10</title>
<path fill="none" stroke="black" d="M602.54,-429.28C610.26,-416.39 621.27,-398.01 630.15,-383.2"/>
<polygon fill="black" stroke="black" points="633.21,-384.89 635.35,-374.51 627.21,-381.29 633.21,-384.89"/>
<text text-anchor="middle" x="641.5" y="-397.6" font-family="Times,serif" font-size="14.00">Union</text>
</g>
<!-- 2 -->
<g id="node3" class="node">
<title>2</title>
<ellipse fill="none" stroke="black" cx="462" cy="-268.6" rx="27" ry="18"/>
<text text-anchor="middle" x="462" y="-264.4" font-family="Times,serif" font-size="14.00">x0</text>
<polygon fill="none" stroke="black" points="7.5,-289.6 7.5,-311.6 432.5,-311.6 432.5,-289.6 7.5,-289.6"/>
<text text-anchor="start" x="10.46" y="-296" font-family="Times,serif" font-size="14.00">(B ⊔ ¬A ), ((A ⊔ ¬B )⊓ (B ⊔ ¬A )), B , ∃R.(A ⊓ ¬B ), ¬B , (A ⊔ ¬B ), </text>
<polygon fill="none" stroke="black" points="4,-286.6 4,-314.6 435,-314.6 435,-286.6 4,-286.6"/>
</g>
<!-- 1&#45;&gt;2 -->
<g id="edge4" class="edge">
<title>1&#45;&gt;2</title>
<path fill="none" stroke="black" d="M525.49,-342.68C518.32,-336.45 509.98,-328.82 503,-321.4 494.79,-312.66 486.44,-302.42 479.44,-293.36"/>
<polygon fill="black" stroke="black" points="482.03,-290.97 473.19,-285.12 476.45,-295.2 482.03,-290.97"/>
<text text-anchor="middle" x="521.5" y="-308.8" font-family="Times,serif" font-size="14.00">Union</text>
</g>
<!-- 4 -->
<g id="node5" class="node">
<title>4</title>
<ellipse fill="none" stroke="black" cx="542" cy="-268.6" rx="27" ry="18"/>
<text text-anchor="middle" x="542" y="-264.4" font-family="Times,serif" font-size="14.00">x0</text>
<polygon fill="none" stroke="black" points="96,-225.6 96,-247.6 512,-247.6 512,-225.6 96,-225.6"/>
<text text-anchor="start" x="98.74" y="-232" font-family="Times,serif" font-size="14.00">(B ⊔ ¬A ), ((A ⊔ ¬B )⊓ (B ⊔ ¬A )), A , B , ∃R.(A ⊓ ¬B ), (A ⊔ ¬B ), </text>
<polygon fill="none" stroke="black" points="93,-222.6 93,-250.6 515,-250.6 515,-222.6 93,-222.6"/>
</g>
<!-- 1&#45;&gt;4 -->
<g id="edge3" class="edge">
<title>1&#45;&gt;4</title>
<path fill="none" stroke="black" d="M542,-339.25C542,-327.12 542,-310.62 542,-296.72"/>
<polygon fill="black" stroke="black" points="545.5,-296.71 542,-286.71 538.5,-296.71 545.5,-296.71"/>
<text text-anchor="middle" x="559.5" y="-308.8" font-family="Times,serif" font-size="14.00">Union</text>
</g>
<!-- 3 -->
<g id="node4" class="node">
<title>3</title>
<ellipse fill="none" stroke="black" cx="454" cy="-179.8" rx="42.88" ry="18"/>
<text text-anchor="start" x="431.06" y="-175.6" font-family="Times,serif" font-size="14.00">CLASH</text>
<polygon fill="none" stroke="black" points="402.31,-200.8 402.31,-206.8 408.31,-206.8 408.31,-200.8 402.31,-200.8"/>
<polygon fill="none" stroke="black" points="399.31,-197.8 399.31,-209.8 411.31,-209.8 411.31,-197.8 399.31,-197.8"/>
</g>
<!-- 2&#45;&gt;3 -->
<g id="edge5" class="edge">
<title>2&#45;&gt;3</title>
<path fill="none" stroke="black" d="M460.42,-250.45C459.3,-238.32 457.78,-221.82 456.5,-207.92"/>
<polygon fill="black" stroke="black" points="459.98,-207.55 455.58,-197.91 453.01,-208.19 459.98,-207.55"/>
</g>
<!-- 5 -->
<g id="node6" class="node">
<title>5</title>
<ellipse fill="none" stroke="black" cx="542" cy="-179.8" rx="27" ry="18"/>
<text text-anchor="start" x="531.5" y="-175.6" font-family="Times,serif" font-size="14.00">x01</text>
<polygon fill="none" stroke="black" points="572,-200.8 572,-222.8 792,-222.8 792,-200.8 572,-200.8"/>
<text text-anchor="start" x="574.71" y="-207.2" font-family="Times,serif" font-size="14.00">((A ⊔ ¬B )⊓ (B ⊔ ¬A )), (A ⊓ ¬B ), </text>
<polygon fill="none" stroke="black" points="569,-197.8 569,-225.8 795,-225.8 795,-197.8 569,-197.8"/>
</g>
<!-- 4&#45;&gt;5 -->
<g id="edge6" class="edge">
<title>4&#45;&gt;5</title>
<path fill="none" stroke="black" d="M542,-250.45C542,-238.32 542,-221.82 542,-207.92"/>
<polygon fill="black" stroke="black" points="545.5,-207.91 542,-197.91 538.5,-207.91 545.5,-207.91"/>
<text text-anchor="middle" x="546.67" y="-220" font-family="Times,serif" font-size="14.00">R</text>
</g>
<!-- 6 -->
<g id="node7" class="node">
<title>6</title>
<ellipse fill="none" stroke="black" cx="455" cy="-91" rx="27" ry="18"/>
<text text-anchor="start" x="444.5" y="-86.8" font-family="Times,serif" font-size="14.00">x01</text>
<polygon fill="none" stroke="black" points="3,-112 3,-134 425,-134 425,-112 3,-112"/>
<text text-anchor="start" x="5.82" y="-118.4" font-family="Times,serif" font-size="14.00">(B ⊔ ¬A ), ((A ⊔ ¬B )⊓ (B ⊔ ¬A )), A , B , (A ⊓ ¬B ), ¬B , (A ⊔ ¬B ), </text>
<polygon fill="none" stroke="black" points="0,-109 0,-137 428,-137 428,-109 0,-109"/>
</g>
<!-- 5&#45;&gt;6 -->
<g id="edge8" class="edge">
<title>5&#45;&gt;6</title>
<path fill="none" stroke="black" d="M526.14,-165.16C518.94,-158.81 510.39,-151.07 503,-143.8 493.54,-134.49 483.49,-123.79 475.05,-114.54"/>
<polygon fill="black" stroke="black" points="477.4,-111.92 468.1,-106.85 472.21,-116.62 477.4,-111.92"/>
<text text-anchor="middle" x="521.5" y="-131.2" font-family="Times,serif" font-size="14.00">Union</text>
</g>
<!-- 8 -->
<g id="node9" class="node">
<title>8</title>
<ellipse fill="none" stroke="black" cx="542" cy="-91" rx="27" ry="18"/>
<text text-anchor="start" x="531.5" y="-86.8" font-family="Times,serif" font-size="14.00">x01</text>
<polygon fill="none" stroke="black" points="518,-48 518,-70 950,-70 950,-48 518,-48"/>
<text text-anchor="start" x="520.78" y="-54.4" font-family="Times,serif" font-size="14.00">(B ⊔ ¬A ), ((A ⊔ ¬B )⊓ (B ⊔ ¬A )), A , (A ⊓ ¬B ), ¬A , ¬B , (A ⊔ ¬B ), </text>
<polygon fill="none" stroke="black" points="515,-45 515,-73 953,-73 953,-45 515,-45"/>
</g>
<!-- 5&#45;&gt;8 -->
<g id="edge7" class="edge">
<title>5&#45;&gt;8</title>
<path fill="none" stroke="black" d="M542,-161.65C542,-149.52 542,-133.02 542,-119.12"/>
<polygon fill="black" stroke="black" points="545.5,-119.11 542,-109.11 538.5,-119.11 545.5,-119.11"/>
<text text-anchor="middle" x="559.5" y="-131.2" font-family="Times,serif" font-size="14.00">Union</text>
</g>
<!-- 7 -->
<g id="node8" class="node">
<title>7</title>
<ellipse fill="none" stroke="black" cx="439" cy="-18" rx="42.88" ry="18"/>
<text text-anchor="start" x="416.06" y="-13.8" font-family="Times,serif" font-size="14.00">CLASH</text>
<polygon fill="none" stroke="black" points="387.31,-39 387.31,-45 393.31,-45 393.31,-39 387.31,-39"/>
<polygon fill="none" stroke="black" points="384.31,-36 384.31,-48 396.31,-48 396.31,-36 384.31,-36"/>
</g>
<!-- 6&#45;&gt;7 -->
<g id="edge9" class="edge">
<title>6&#45;&gt;7</title>
<path fill="none" stroke="black" d="M451.21,-73.17C449.38,-65.07 447.15,-55.15 445.09,-46.03"/>
<polygon fill="black" stroke="black" points="448.49,-45.18 442.88,-36.2 441.66,-46.72 448.49,-45.18"/>
</g>
<!-- 9 -->
<g id="node10" class="node">
<title>9</title>
<ellipse fill="none" stroke="black" cx="542" cy="-18" rx="42.88" ry="18"/>
<text text-anchor="start" x="519.06" y="-13.8" font-family="Times,serif" font-size="14.00">CLASH</text>
<polygon fill="none" stroke="black" points="490.31,-39 490.31,-45 496.31,-45 496.31,-39 490.31,-39"/>
<polygon fill="none" stroke="black" points="487.31,-36 487.31,-48 499.31,-48 499.31,-36 487.31,-36"/>
</g>
<!-- 8&#45;&gt;9 -->
<g id="edge10" class="edge">
<title>8&#45;&gt;9</title>
<path fill="none" stroke="black" d="M542,-72.81C542,-64.79 542,-55.05 542,-46.07"/>
<polygon fill="black" stroke="black" points="545.5,-46.03 542,-36.03 538.5,-46.03 545.5,-46.03"/>
</g>
<!-- 11 -->
<g id="node12" class="node">
<title>11</title>
<ellipse fill="none" stroke="black" cx="645" cy="-268.6" rx="27" ry="18"/>
<text text-anchor="middle" x="645" y="-264.4" font-family="Times,serif" font-size="14.00">x0</text>
<polygon fill="none" stroke="black" points="675.5,-225.6 675.5,-247.6 1110.5,-247.6 1110.5,-225.6 675.5,-225.6"/>
<text text-anchor="start" x="678.41" y="-232" font-family="Times,serif" font-size="14.00">(B ⊔ ¬A ), ((A ⊔ ¬B )⊓ (B ⊔ ¬A )), ∃R.(A ⊓ ¬B ), ¬A , ¬B , (A ⊔ ¬B ), </text>
<polygon fill="none" stroke="black" points="672,-222.6 672,-250.6 1113,-250.6 1113,-222.6 672,-222.6"/>
</g>
<!-- 10&#45;&gt;11 -->
<g id="edge12" class="edge">
<title>10&#45;&gt;11</title>
<path fill="none" stroke="black" d="M645,-339.25C645,-327.12 645,-310.62 645,-296.72"/>
<polygon fill="black" stroke="black" points="648.5,-296.71 645,-286.71 641.5,-296.71 648.5,-296.71"/>
<text text-anchor="middle" x="662.5" y="-308.8" font-family="Times,serif" font-size="14.00">Union</text>
</g>
<!-- 17 -->
<g id="node18" class="node">
<title>17</title>
<ellipse fill="none" stroke="black" cx="726" cy="-268.6" rx="27" ry="18"/>
<text text-anchor="middle" x="726" y="-264.4" font-family="Times,serif" font-size="14.00">x0</text>
<polygon fill="none" stroke="black" points="756,-289.6 756,-311.6 1182,-311.6 1182,-289.6 756,-289.6"/>
<text text-anchor="start" x="758.69" y="-296" font-family="Times,serif" font-size="14.00">(B ⊔ ¬A ), ((A ⊔ ¬B )⊓ (B ⊔ ¬A )), A , ∃R.(A ⊓ ¬B ), ¬A , (A ⊔ ¬B ), </text>
<polygon fill="none" stroke="black" points="753,-286.6 753,-314.6 1185,-314.6 1185,-286.6 753,-286.6"/>
</g>
<!-- 10&#45;&gt;17 -->
<g id="edge11" class="edge">
<title>10&#45;&gt;17</title>
<path fill="none" stroke="black" d="M661.47,-342.64C668.64,-336.41 676.98,-328.78 684,-321.4 692.43,-312.54 701.06,-302.17 708.28,-293.04"/>
<polygon fill="black" stroke="black" points="711.09,-295.13 714.47,-285.09 705.57,-290.83 711.09,-295.13"/>
<text text-anchor="middle" x="716.5" y="-308.8" font-family="Times,serif" font-size="14.00">Union</text>
</g>
<!-- 12 -->
<g id="node13" class="node">
<title>12</title>
<ellipse fill="none" stroke="black" cx="645" cy="-179.8" rx="27" ry="18"/>
<text text-anchor="start" x="634.5" y="-175.6" font-family="Times,serif" font-size="14.00">x01</text>
<polygon fill="none" stroke="black" points="675,-136.8 675,-158.8 895,-158.8 895,-136.8 675,-136.8"/>
<text text-anchor="start" x="677.71" y="-143.2" font-family="Times,serif" font-size="14.00">((A ⊔ ¬B )⊓ (B ⊔ ¬A )), (A ⊓ ¬B ), </text>
<polygon fill="none" stroke="black" points="672,-133.8 672,-161.8 898,-161.8 898,-133.8 672,-133.8"/>
</g>
<!-- 11&#45;&gt;12 -->
<g id="edge13" class="edge">
<title>11&#45;&gt;12</title>
<path fill="none" stroke="black" d="M645,-250.45C645,-238.32 645,-221.82 645,-207.92"/>
<polygon fill="black" stroke="black" points="648.5,-207.91 645,-197.91 641.5,-207.91 648.5,-207.91"/>
<text text-anchor="middle" x="649.67" y="-220" font-family="Times,serif" font-size="14.00">R</text>
</g>
<!-- 13 -->
<g id="node14" class="node">
<title>13</title>
<ellipse fill="none" stroke="black" cx="645" cy="-91" rx="27" ry="18"/>
<text text-anchor="start" x="634.5" y="-86.8" font-family="Times,serif" font-size="14.00">x01</text>
<polygon fill="none" stroke="black" points="675,-76 675,-98 1097,-98 1097,-76 675,-76"/>
<text text-anchor="start" x="677.82" y="-82.4" font-family="Times,serif" font-size="14.00">(B ⊔ ¬A ), ((A ⊔ ¬B )⊓ (B ⊔ ¬A )), A , B , (A ⊓ ¬B ), ¬B , (A ⊔ ¬B ), </text>
<polygon fill="none" stroke="black" points="672,-73 672,-101 1100,-101 1100,-73 672,-73"/>
</g>
<!-- 12&#45;&gt;13 -->
<g id="edge15" class="edge">
<title>12&#45;&gt;13</title>
<path fill="none" stroke="black" d="M645,-161.65C645,-149.52 645,-133.02 645,-119.12"/>
<polygon fill="black" stroke="black" points="648.5,-119.11 645,-109.11 641.5,-119.11 648.5,-119.11"/>
<text text-anchor="middle" x="662.5" y="-131.2" font-family="Times,serif" font-size="14.00">Union</text>
</g>
<!-- 15 -->
<g id="node16" class="node">
<title>15</title>
<ellipse fill="none" stroke="black" cx="737" cy="-91" rx="27" ry="18"/>
<text text-anchor="start" x="726.5" y="-86.8" font-family="Times,serif" font-size="14.00">x01</text>
<polygon fill="none" stroke="black" points="767,-112 767,-134 1199,-134 1199,-112 767,-112"/>
<text text-anchor="start" x="769.78" y="-118.4" font-family="Times,serif" font-size="14.00">(B ⊔ ¬A ), ((A ⊔ ¬B )⊓ (B ⊔ ¬A )), A , (A ⊓ ¬B ), ¬A , ¬B , (A ⊔ ¬B ), </text>
<polygon fill="none" stroke="black" points="764,-109 764,-137 1202,-137 1202,-109 764,-109"/>
</g>
<!-- 12&#45;&gt;15 -->
<g id="edge14" class="edge">
<title>12&#45;&gt;15</title>
<path fill="none" stroke="black" d="M660.7,-164.98C667.87,-158.61 676.43,-150.89 684,-143.8 694.37,-134.08 705.66,-123.11 715.15,-113.77"/>
<polygon fill="black" stroke="black" points="717.66,-116.2 722.31,-106.68 712.74,-111.22 717.66,-116.2"/>
<text text-anchor="middle" x="718.5" y="-131.2" font-family="Times,serif" font-size="14.00">Union</text>
</g>
<!-- 14 -->
<g id="node15" class="node">
<title>14</title>
<ellipse fill="none" stroke="black" cx="645" cy="-18" rx="42.88" ry="18"/>
<text text-anchor="start" x="622.06" y="-13.8" font-family="Times,serif" font-size="14.00">CLASH</text>
<polygon fill="none" stroke="black" points="593.31,-3 593.31,-9 599.31,-9 599.31,-3 593.31,-3"/>
<polygon fill="none" stroke="black" points="590.31,0 590.31,-12 602.31,-12 602.31,0 590.31,0"/>
</g>
<!-- 13&#45;&gt;14 -->
<g id="edge16" class="edge">
<title>13&#45;&gt;14</title>
<path fill="none" stroke="black" d="M645,-72.81C645,-64.79 645,-55.05 645,-46.07"/>
<polygon fill="black" stroke="black" points="648.5,-46.03 645,-36.03 641.5,-46.03 648.5,-46.03"/>
</g>
<!-- 16 -->
<g id="node17" class="node">
<title>16</title>
<ellipse fill="none" stroke="black" cx="748" cy="-18" rx="42.88" ry="18"/>
<text text-anchor="start" x="725.06" y="-13.8" font-family="Times,serif" font-size="14.00">CLASH</text>
<polygon fill="none" stroke="black" points="696.31,-3 696.31,-9 702.31,-9 702.31,-3 696.31,-3"/>
<polygon fill="none" stroke="black" points="693.31,0 693.31,-12 705.31,-12 705.31,0 693.31,0"/>
</g>
<!-- 15&#45;&gt;16 -->
<g id="edge17" class="edge">
<title>15&#45;&gt;16</title>
<path fill="none" stroke="black" d="M739.66,-72.81C740.91,-64.79 742.42,-55.05 743.81,-46.07"/>
<polygon fill="black" stroke="black" points="747.29,-46.45 745.36,-36.03 740.37,-45.38 747.29,-46.45"/>
</g>
<!-- 18 -->
<g id="node19" class="node">
<title>18</title>
<ellipse fill="none" stroke="black" cx="733" cy="-179.8" rx="42.88" ry="18"/>
<text text-anchor="start" x="710.06" y="-175.6" font-family="Times,serif" font-size="14.00">CLASH</text>
<polygon fill="none" stroke="black" points="681.31,-164.8 681.31,-170.8 687.31,-170.8 687.31,-164.8 681.31,-164.8"/>
<polygon fill="none" stroke="black" points="678.31,-161.8 678.31,-173.8 690.31,-173.8 690.31,-161.8 678.31,-161.8"/>
</g>
<!-- 17&#45;&gt;18 -->
<g id="edge18" class="edge">
<title>17&#45;&gt;18</title>
<path fill="none" stroke="black" d="M727.38,-250.45C728.36,-238.32 729.69,-221.82 730.81,-207.92"/>
<polygon fill="black" stroke="black" points="734.3,-208.16 731.62,-197.91 727.33,-207.6 734.3,-208.16"/>
</g>
</g>
</svg>
