<svg width="557px" height="855px"
 viewBox="0.00 0.00 556.92 855.40" xmlns="http://www.w3.org/2000/svg" xmlns:xlink="http://www.w3.org/1999/xlink">
<g id="graph0" class="graph" transform="scale(1.0 1.0) rotate(0.0) translate(4.0 851.4)">
<title>tableaux</title>
<polygon fill="white" stroke="transparent" points="-4,4 -4,-851.4 552.92,-851.4 552.92,4 -4,4"/>
<!-- 0 -->
<g id="node1" class="node">
<title>0</title>
<ellipse fill="none" stroke="black" cx="201" cy="-801.4" rx="27" ry="18"/>
<text text-anchor="start" x="194" y="-798.2" font-family="Times,serif" font-size="14.00">x</text>
<text text-anchor="start" x="201" y="-798.2" font-family="Times,serif" baseline-shift="sub" font-size="14.00">0</text>
<g id="a_node1_0"><a xlink:href="C:\Users\turco\OneDrive\Desktop\ProgettoIntelligentWeb\Progetto\graph\normal\0.txt" xlink:title="Nodo 0: (¬B ⊔ ∃R.A ), (B ⊔ ¬C ), C , ((B ⊔ ¬C )⊓ (¬A ⊔ ∃S.A )⊓ (¬B ⊔ ∃R.A )), (¬A ⊔ ∃S.A )" target="_blank">
<polygon fill="none" stroke="green" points="125,-820.4 125,-846.4 173,-846.4 173,-820.4 125,-820.4"/>
<text text-anchor="start" x="129.56" y="-828.8" font-family="Times,serif" font-size="14.00"> Label </text>
</a>
</g>
<polygon fill="none" stroke="green" points="124,-819.4 124,-847.4 174,-847.4 174,-819.4 124,-819.4"/>
</g>
<!-- 1 -->
<g id="node2" class="node">
<title>1</title>
<ellipse fill="none" stroke="black" cx="201" cy="-712.6" rx="27" ry="18"/>
<text text-anchor="start" x="194" y="-709.4" font-family="Times,serif" font-size="14.00">x</text>
<text text-anchor="start" x="201" y="-709.4" font-family="Times,serif" baseline-shift="sub" font-size="14.00">0</text>
<g id="a_node2_1"><a xlink:href="C:\Users\turco\OneDrive\Desktop\ProgettoIntelligentWeb\Progetto\graph\normal\1.txt" xlink:title="Nodo 1: (¬B ⊔ ∃R.A ), (B ⊔ ¬C ), C , ((B ⊔ ¬C )⊓ (¬A ⊔ ∃S.A )⊓ (¬B ⊔ ∃R.A )), (¬A ⊔ ∃S.A ), ∃R.A " target="_blank">
<polygon fill="none" stroke="green" points="125,-731.6 125,-757.6 173,-757.6 173,-731.6 125,-731.6"/>
<text text-anchor="start" x="129.56" y="-740" font-family="Times,serif" font-size="14.00"> Label </text>
</a>
</g>
<polygon fill="none" stroke="green" points="124,-730.6 124,-758.6 174,-758.6 174,-730.6 124,-730.6"/>
</g>
<!-- 0&#45;&gt;1 -->
<g id="edge1" class="edge">
<title>0&#45;&gt;1</title>
<path fill="none" stroke="black" d="M201,-783.25C201,-771.12 201,-754.62 201,-740.72"/>
<polygon fill="black" stroke="black" points="204.5,-740.71 201,-730.71 197.5,-740.71 204.5,-740.71"/>
<text text-anchor="middle" x="206.25" y="-752.8" font-family="Times,serif" font-size="14.00">⊔</text>
</g>
<!-- 2 -->
<g id="node3" class="node">
<title>2</title>
<ellipse fill="none" stroke="black" cx="165" cy="-623.8" rx="27" ry="18"/>
<text text-anchor="start" x="158" y="-620.6" font-family="Times,serif" font-size="14.00">x</text>
<text text-anchor="start" x="165" y="-620.6" font-family="Times,serif" baseline-shift="sub" font-size="14.00">0</text>
<g id="a_node3_2"><a xlink:href="C:\Users\turco\OneDrive\Desktop\ProgettoIntelligentWeb\Progetto\graph\normal\2.txt" xlink:title="Nodo 2: (¬B ⊔ ∃R.A ), (B ⊔ ¬C ), C , ((B ⊔ ¬C )⊓ (¬A ⊔ ∃S.A )⊓ (¬B ⊔ ∃R.A )), (¬A ⊔ ∃S.A ), ∃R.A , ¬C " target="_blank">
<polygon fill="none" stroke="green" points="89,-642.8 89,-668.8 137,-668.8 137,-642.8 89,-642.8"/>
<text text-anchor="start" x="93.56" y="-651.2" font-family="Times,serif" font-size="14.00"> Label </text>
</a>
</g>
<polygon fill="none" stroke="green" points="88,-641.8 88,-669.8 138,-669.8 138,-641.8 88,-641.8"/>
</g>
<!-- 1&#45;&gt;2 -->
<g id="edge3" class="edge">
<title>1&#45;&gt;2</title>
<path fill="none" stroke="black" d="M194.06,-694.86C188.88,-682.38 181.71,-665.08 175.78,-650.8"/>
<polygon fill="black" stroke="black" points="178.98,-649.38 171.92,-641.48 172.52,-652.06 178.98,-649.38"/>
<text text-anchor="middle" x="192.25" y="-664" font-family="Times,serif" font-size="14.00">⊔</text>
</g>
<!-- 4 -->
<g id="node5" class="node">
<title>4</title>
<ellipse fill="none" stroke="black" cx="241" cy="-623.8" rx="27" ry="18"/>
<text text-anchor="start" x="234" y="-620.6" font-family="Times,serif" font-size="14.00">x</text>
<text text-anchor="start" x="241" y="-620.6" font-family="Times,serif" baseline-shift="sub" font-size="14.00">0</text>
<g id="a_node5_3"><a xlink:href="C:\Users\turco\OneDrive\Desktop\ProgettoIntelligentWeb\Progetto\graph\normal\4.txt" xlink:title="Nodo 4: (¬B ⊔ ∃R.A ), (B ⊔ ¬C ), B , C , ((B ⊔ ¬C )⊓ (¬A ⊔ ∃S.A )⊓ (¬B ⊔ ∃R.A )), (¬A ⊔ ∃S.A ), ∃R.A " target="_blank">
<polygon fill="none" stroke="green" points="165,-578.8 165,-604.8 213,-604.8 213,-578.8 165,-578.8"/>
<text text-anchor="start" x="169.56" y="-587.2" font-family="Times,serif" font-size="14.00"> Label </text>
</a>
</g>
<polygon fill="none" stroke="green" points="164,-577.8 164,-605.8 214,-605.8 214,-577.8 164,-577.8"/>
</g>
<!-- 1&#45;&gt;4 -->
<g id="edge2" class="edge">
<title>1&#45;&gt;4</title>
<path fill="none" stroke="black" d="M208.52,-695.27C214.3,-682.74 222.38,-665.2 229.04,-650.76"/>
<polygon fill="black" stroke="black" points="232.37,-651.9 233.37,-641.35 226.01,-648.97 232.37,-651.9"/>
<text text-anchor="middle" x="230.25" y="-664" font-family="Times,serif" font-size="14.00">⊔</text>
</g>
<!-- 3 -->
<g id="node4" class="node">
<title>3</title>
<ellipse fill="none" stroke="black" cx="157" cy="-535" rx="42.88" ry="18"/>
<text text-anchor="start" x="134.06" y="-530.8" font-family="Times,serif" font-size="14.00">CLASH</text>
</g>
<!-- 2&#45;&gt;3 -->
<g id="edge4" class="edge">
<title>2&#45;&gt;3</title>
<path fill="none" stroke="red" d="M163.42,-605.65C162.3,-593.52 160.78,-577.02 159.5,-563.12"/>
<polygon fill="red" stroke="red" points="162.98,-562.75 158.58,-553.11 156.01,-563.39 162.98,-562.75"/>
</g>
<!-- 5 -->
<g id="node6" class="node">
<title>5</title>
<ellipse fill="none" stroke="black" cx="245" cy="-535" rx="27" ry="18"/>
<text text-anchor="start" x="238" y="-531.8" font-family="Times,serif" font-size="14.00">x</text>
<text text-anchor="start" x="245" y="-531.8" font-family="Times,serif" baseline-shift="sub" font-size="14.00">0</text>
<g id="a_node6_4"><a xlink:href="C:\Users\turco\OneDrive\Desktop\ProgettoIntelligentWeb\Progetto\graph\normal\5.txt" xlink:title="Nodo 5: (¬B ⊔ ∃R.A ), (B ⊔ ¬C ), B , C , ∃S.A , ((B ⊔ ¬C )⊓ (¬A ⊔ ∃S.A )⊓ (¬B ⊔ ∃R.A )), (¬A ⊔ ∃S.A ), ∃R.A " target="_blank">
<polygon fill="none" stroke="green" points="169,-490 169,-516 217,-516 217,-490 169,-490"/>
<text text-anchor="start" x="173.56" y="-498.4" font-family="Times,serif" font-size="14.00"> Label </text>
</a>
</g>
<polygon fill="none" stroke="green" points="168,-489 168,-517 218,-517 218,-489 168,-489"/>
</g>
<!-- 4&#45;&gt;5 -->
<g id="edge5" class="edge">
<title>4&#45;&gt;5</title>
<path fill="none" stroke="black" d="M241.79,-605.65C242.35,-593.52 243.11,-577.02 243.75,-563.12"/>
<polygon fill="black" stroke="black" points="247.25,-563.26 244.21,-553.11 240.25,-562.94 247.25,-563.26"/>
<text text-anchor="middle" x="249.25" y="-575.2" font-family="Times,serif" font-size="14.00">⊔</text>
</g>
<!-- 6 -->
<g id="node7" class="node">
<title>6</title>
<ellipse fill="none" stroke="black" cx="205" cy="-446.2" rx="27" ry="18"/>
<text text-anchor="start" x="198" y="-443" font-family="Times,serif" font-size="14.00">x</text>
<text text-anchor="start" x="205" y="-443" font-family="Times,serif" baseline-shift="sub" font-size="14.00">1</text>
<g id="a_node7_5"><a xlink:href="C:\Users\turco\OneDrive\Desktop\ProgettoIntelligentWeb\Progetto\graph\normal\6.txt" xlink:title="Nodo 6: A , ((B ⊔ ¬C )⊓ (¬A ⊔ ∃S.A )⊓ (¬B ⊔ ∃R.A ))" target="_blank">
<polygon fill="none" stroke="green" points="129,-429.2 129,-455.2 177,-455.2 177,-429.2 129,-429.2"/>
<text text-anchor="start" x="133.56" y="-437.6" font-family="Times,serif" font-size="14.00"> Label </text>
</a>
</g>
<polygon fill="none" stroke="green" points="128,-428.2 128,-456.2 178,-456.2 178,-428.2 128,-428.2"/>
</g>
<!-- 5&#45;&gt;6 -->
<g id="edge7" class="edge">
<title>5&#45;&gt;6</title>
<path fill="none" stroke="black" d="M237.48,-517.67C231.7,-505.14 223.62,-487.6 216.96,-473.16"/>
<polygon fill="black" stroke="black" points="219.99,-471.37 212.63,-463.75 213.63,-474.3 219.99,-471.37"/>
<text text-anchor="middle" x="232.89" y="-486.4" font-family="Times,serif" font-size="14.00">S</text>
</g>
<!-- 16 -->
<g id="node17" class="node">
<title>16</title>
<ellipse fill="none" stroke="black" cx="279" cy="-446.2" rx="27" ry="18"/>
<text text-anchor="start" x="272" y="-443" font-family="Times,serif" font-size="14.00">x</text>
<text text-anchor="start" x="279" y="-443" font-family="Times,serif" baseline-shift="sub" font-size="14.00">3</text>
<g id="a_node17_6"><a xlink:href="C:\Users\turco\OneDrive\Desktop\ProgettoIntelligentWeb\Progetto\graph\normal\16.txt" xlink:title="Nodo 16: A , ((B ⊔ ¬C )⊓ (¬A ⊔ ∃S.A )⊓ (¬B ⊔ ∃R.A ))" target="_blank">
<polygon fill="none" stroke="green" points="307,-465.2 307,-491.2 355,-491.2 355,-465.2 307,-465.2"/>
<text text-anchor="start" x="311.56" y="-473.6" font-family="Times,serif" font-size="14.00"> Label </text>
</a>
</g>
<polygon fill="none" stroke="green" points="306,-464.2 306,-492.2 356,-492.2 356,-464.2 306,-464.2"/>
</g>
<!-- 5&#45;&gt;16 -->
<g id="edge6" class="edge">
<title>5&#45;&gt;16</title>
<path fill="none" stroke="black" d="M251.56,-517.26C256.4,-504.9 263.09,-487.81 268.66,-473.61"/>
<polygon fill="black" stroke="black" points="272.08,-474.47 272.46,-463.88 265.56,-471.92 272.08,-474.47"/>
<text text-anchor="middle" x="270.67" y="-486.4" font-family="Times,serif" font-size="14.00">R</text>
</g>
<!-- 7 -->
<g id="node8" class="node">
<title>7</title>
<ellipse fill="none" stroke="black" cx="193" cy="-357.4" rx="27" ry="18"/>
<text text-anchor="start" x="186" y="-354.2" font-family="Times,serif" font-size="14.00">x</text>
<text text-anchor="start" x="193" y="-354.2" font-family="Times,serif" baseline-shift="sub" font-size="14.00">1</text>
<g id="a_node8_7"><a xlink:href="C:\Users\turco\OneDrive\Desktop\ProgettoIntelligentWeb\Progetto\graph\normal\7.txt" xlink:title="Nodo 7: (¬B ⊔ ∃R.A ), (B ⊔ ¬C ), A , ¬B , ((B ⊔ ¬C )⊓ (¬A ⊔ ∃S.A )⊓ (¬B ⊔ ∃R.A )), (¬A ⊔ ∃S.A )" target="_blank">
<polygon fill="none" stroke="green" points="117,-376.4 117,-402.4 165,-402.4 165,-376.4 117,-376.4"/>
<text text-anchor="start" x="121.56" y="-384.8" font-family="Times,serif" font-size="14.00"> Label </text>
</a>
</g>
<polygon fill="none" stroke="green" points="116,-375.4 116,-403.4 166,-403.4 166,-375.4 116,-375.4"/>
</g>
<!-- 6&#45;&gt;7 -->
<g id="edge8" class="edge">
<title>6&#45;&gt;7</title>
<path fill="none" stroke="black" d="M202.63,-428.05C200.95,-415.92 198.67,-399.42 196.75,-385.52"/>
<polygon fill="black" stroke="black" points="200.2,-384.94 195.37,-375.51 193.27,-385.9 200.2,-384.94"/>
<text text-anchor="middle" x="206.25" y="-397.6" font-family="Times,serif" font-size="14.00">⊔</text>
</g>
<!-- 8 -->
<g id="node9" class="node">
<title>8</title>
<ellipse fill="none" stroke="black" cx="77" cy="-268.6" rx="27" ry="18"/>
<text text-anchor="start" x="70" y="-265.4" font-family="Times,serif" font-size="14.00">x</text>
<text text-anchor="start" x="77" y="-265.4" font-family="Times,serif" baseline-shift="sub" font-size="14.00">1</text>
<g id="a_node9_8"><a xlink:href="C:\Users\turco\OneDrive\Desktop\ProgettoIntelligentWeb\Progetto\graph\normal\8.txt" xlink:title="Nodo 8: (¬B ⊔ ∃R.A ), (B ⊔ ¬C ), B , A , ¬B , ((B ⊔ ¬C )⊓ (¬A ⊔ ∃S.A )⊓ (¬B ⊔ ∃R.A )), (¬A ⊔ ∃S.A )" target="_blank">
<polygon fill="none" stroke="green" points="1,-287.6 1,-313.6 49,-313.6 49,-287.6 1,-287.6"/>
<text text-anchor="start" x="5.56" y="-296" font-family="Times,serif" font-size="14.00"> Label </text>
</a>
</g>
<polygon fill="none" stroke="green" points="0,-286.6 0,-314.6 50,-314.6 50,-286.6 0,-286.6"/>
</g>
<!-- 7&#45;&gt;8 -->
<g id="edge10" class="edge">
<title>7&#45;&gt;8</title>
<path fill="none" stroke="black" d="M175.63,-343.41C156.33,-328.96 124.95,-305.48 102.78,-288.89"/>
<polygon fill="black" stroke="black" points="104.59,-285.87 94.49,-282.68 100.39,-291.48 104.59,-285.87"/>
<text text-anchor="middle" x="151.25" y="-308.8" font-family="Times,serif" font-size="14.00">⊔</text>
</g>
<!-- 10 -->
<g id="node11" class="node">
<title>10</title>
<ellipse fill="none" stroke="black" cx="193" cy="-268.6" rx="27" ry="18"/>
<text text-anchor="start" x="186" y="-265.4" font-family="Times,serif" font-size="14.00">x</text>
<text text-anchor="start" x="193" y="-265.4" font-family="Times,serif" baseline-shift="sub" font-size="14.00">1</text>
<g id="a_node11_9"><a xlink:href="C:\Users\turco\OneDrive\Desktop\ProgettoIntelligentWeb\Progetto\graph\normal\10.txt" xlink:title="Nodo 10: (¬B ⊔ ∃R.A ), (B ⊔ ¬C ), A , ¬B , ((B ⊔ ¬C )⊓ (¬A ⊔ ∃S.A )⊓ (¬B ⊔ ∃R.A )), (¬A ⊔ ∃S.A ), ¬C " target="_blank">
<polygon fill="none" stroke="green" points="117,-251.6 117,-277.6 165,-277.6 165,-251.6 117,-251.6"/>
<text text-anchor="start" x="121.56" y="-260" font-family="Times,serif" font-size="14.00"> Label </text>
</a>
</g>
<polygon fill="none" stroke="green" points="116,-250.6 116,-278.6 166,-278.6 166,-250.6 116,-250.6"/>
</g>
<!-- 7&#45;&gt;10 -->
<g id="edge9" class="edge">
<title>7&#45;&gt;10</title>
<path fill="none" stroke="black" d="M193,-339.25C193,-327.12 193,-310.62 193,-296.72"/>
<polygon fill="black" stroke="black" points="196.5,-296.71 193,-286.71 189.5,-296.71 196.5,-296.71"/>
<text text-anchor="middle" x="198.25" y="-308.8" font-family="Times,serif" font-size="14.00">⊔</text>
</g>
<!-- 9 -->
<g id="node10" class="node">
<title>9</title>
<ellipse fill="none" stroke="black" cx="66" cy="-179.8" rx="42.88" ry="18"/>
<text text-anchor="start" x="43.06" y="-175.6" font-family="Times,serif" font-size="14.00">CLASH</text>
</g>
<!-- 8&#45;&gt;9 -->
<g id="edge11" class="edge">
<title>8&#45;&gt;9</title>
<path fill="none" stroke="red" d="M74.83,-250.45C73.29,-238.32 71.2,-221.82 69.44,-207.92"/>
<polygon fill="red" stroke="red" points="72.9,-207.39 68.17,-197.91 65.95,-208.27 72.9,-207.39"/>
</g>
<!-- 11 -->
<g id="node12" class="node">
<title>11</title>
<ellipse fill="none" stroke="black" cx="154" cy="-179.8" rx="27" ry="18"/>
<text text-anchor="start" x="147" y="-176.6" font-family="Times,serif" font-size="14.00">x</text>
<text text-anchor="start" x="154" y="-176.6" font-family="Times,serif" baseline-shift="sub" font-size="14.00">1</text>
<g id="a_node12_10"><a xlink:href="C:\Users\turco\OneDrive\Desktop\ProgettoIntelligentWeb\Progetto\graph\normal\11.txt" xlink:title="Nodo 11: (¬B ⊔ ∃R.A ), (B ⊔ ¬C ), A , ¬A , ¬B , ((B ⊔ ¬C )⊓ (¬A ⊔ ∃S.A )⊓ (¬B ⊔ ∃R.A )), (¬A ⊔ ∃S.A ), ¬C " target="_blank">
<polygon fill="none" stroke="green" points="78,-198.8 78,-224.8 126,-224.8 126,-198.8 78,-198.8"/>
<text text-anchor="start" x="82.56" y="-207.2" font-family="Times,serif" font-size="14.00"> Label </text>
</a>
</g>
<polygon fill="none" stroke="green" points="77,-197.8 77,-225.8 127,-225.8 127,-197.8 77,-197.8"/>
</g>
<!-- 10&#45;&gt;11 -->
<g id="edge13" class="edge">
<title>10&#45;&gt;11</title>
<path fill="none" stroke="black" d="M185.66,-251.27C180.04,-238.74 172.15,-221.2 165.66,-206.76"/>
<polygon fill="black" stroke="black" points="168.73,-205.04 161.44,-197.35 162.34,-207.9 168.73,-205.04"/>
<text text-anchor="middle" x="182.25" y="-220" font-family="Times,serif" font-size="14.00">⊔</text>
</g>
<!-- 13 -->
<g id="node14" class="node">
<title>13</title>
<ellipse fill="none" stroke="black" cx="226" cy="-179.8" rx="27" ry="18"/>
<text text-anchor="start" x="219" y="-176.6" font-family="Times,serif" font-size="14.00">x</text>
<text text-anchor="start" x="226" y="-176.6" font-family="Times,serif" baseline-shift="sub" font-size="14.00">1</text>
<g id="a_node14_11"><a xlink:href="C:\Users\turco\OneDrive\Desktop\ProgettoIntelligentWeb\Progetto\graph\normal\13.txt" xlink:title="Nodo 13: (¬B ⊔ ∃R.A ), (B ⊔ ¬C ), A , ¬B , ∃S.A , ((B ⊔ ¬C )⊓ (¬A ⊔ ∃S.A )⊓ (¬B ⊔ ∃R.A )), (¬A ⊔ ∃S.A ), ¬C " target="_blank">
<polygon fill="none" stroke="green" points="150,-134.8 150,-160.8 198,-160.8 198,-134.8 150,-134.8"/>
<text text-anchor="start" x="154.56" y="-143.2" font-family="Times,serif" font-size="14.00"> Label </text>
</a>
</g>
<polygon fill="none" stroke="green" points="149,-133.8 149,-161.8 199,-161.8 199,-133.8 149,-133.8"/>
</g>
<!-- 10&#45;&gt;13 -->
<g id="edge12" class="edge">
<title>10&#45;&gt;13</title>
<path fill="none" stroke="black" d="M199.36,-250.86C204.06,-238.5 210.56,-221.41 215.96,-207.21"/>
<polygon fill="black" stroke="black" points="219.37,-208.08 219.66,-197.48 212.83,-205.59 219.37,-208.08"/>
<text text-anchor="middle" x="218.25" y="-220" font-family="Times,serif" font-size="14.00">⊔</text>
</g>
<!-- 12 -->
<g id="node13" class="node">
<title>12</title>
<ellipse fill="none" stroke="black" cx="150" cy="-91" rx="42.88" ry="18"/>
<text text-anchor="start" x="127.06" y="-86.8" font-family="Times,serif" font-size="14.00">CLASH</text>
</g>
<!-- 11&#45;&gt;12 -->
<g id="edge14" class="edge">
<title>11&#45;&gt;12</title>
<path fill="none" stroke="red" d="M153.21,-161.65C152.65,-149.52 151.89,-133.02 151.25,-119.12"/>
<polygon fill="red" stroke="red" points="154.75,-118.94 150.79,-109.11 147.75,-119.26 154.75,-118.94"/>
</g>
<!-- 14 -->
<g id="node15" class="node">
<title>14</title>
<ellipse fill="none" stroke="black" cx="238" cy="-91" rx="27" ry="18"/>
<text text-anchor="start" x="231" y="-87.8" font-family="Times,serif" font-size="14.00">x</text>
<text text-anchor="start" x="238" y="-87.8" font-family="Times,serif" baseline-shift="sub" font-size="14.00">2</text>
<g id="a_node15_12"><a xlink:href="C:\Users\turco\OneDrive\Desktop\ProgettoIntelligentWeb\Progetto\graph\normal\14.txt" xlink:title="Nodo 14: A , ((B ⊔ ¬C )⊓ (¬A ⊔ ∃S.A )⊓ (¬B ⊔ ∃R.A ))" target="_blank">
<polygon fill="none" stroke="green" points="162,-46 162,-72 210,-72 210,-46 162,-46"/>
<text text-anchor="start" x="166.56" y="-54.4" font-family="Times,serif" font-size="14.00"> Label </text>
</a>
</g>
<polygon fill="none" stroke="green" points="161,-45 161,-73 211,-73 211,-45 161,-45"/>
</g>
<!-- 13&#45;&gt;14 -->
<g id="edge15" class="edge">
<title>13&#45;&gt;14</title>
<path fill="none" stroke="black" d="M228.37,-161.65C230.05,-149.52 232.33,-133.02 234.25,-119.12"/>
<polygon fill="black" stroke="black" points="237.73,-119.5 235.63,-109.11 230.8,-118.54 237.73,-119.5"/>
<text text-anchor="middle" x="237.89" y="-131.2" font-family="Times,serif" font-size="14.00">S</text>
</g>
<!-- 15 -->
<g id="node16" class="node">
<title>15</title>
<ellipse fill="none" stroke="black" cx="238" cy="-18" rx="60.83" ry="18"/>
<text text-anchor="start" x="201.84" y="-13.8" font-family="Times,serif" font-size="14.00">BLOCKING</text>
</g>
<!-- 14&#45;&gt;15 -->
<g id="edge16" class="edge">
<title>14&#45;&gt;15</title>
<path fill="none" stroke="orange" d="M238,-72.81C238,-64.79 238,-55.05 238,-46.07"/>
<polygon fill="orange" stroke="orange" points="241.5,-46.03 238,-36.03 234.5,-46.03 241.5,-46.03"/>
</g>
<!-- 17 -->
<g id="node18" class="node">
<title>17</title>
<ellipse fill="none" stroke="black" cx="314" cy="-357.4" rx="27" ry="18"/>
<text text-anchor="start" x="307" y="-354.2" font-family="Times,serif" font-size="14.00">x</text>
<text text-anchor="start" x="314" y="-354.2" font-family="Times,serif" baseline-shift="sub" font-size="14.00">3</text>
<g id="a_node18_13"><a xlink:href="C:\Users\turco\OneDrive\Desktop\ProgettoIntelligentWeb\Progetto\graph\normal\17.txt" xlink:title="Nodo 17: (¬B ⊔ ∃R.A ), (B ⊔ ¬C ), A , ¬B , ((B ⊔ ¬C )⊓ (¬A ⊔ ∃S.A )⊓ (¬B ⊔ ∃R.A )), (¬A ⊔ ∃S.A )" target="_blank">
<polygon fill="none" stroke="green" points="238,-376.4 238,-402.4 286,-402.4 286,-376.4 238,-376.4"/>
<text text-anchor="start" x="242.56" y="-384.8" font-family="Times,serif" font-size="14.00"> Label </text>
</a>
</g>
<polygon fill="none" stroke="green" points="237,-375.4 237,-403.4 287,-403.4 287,-375.4 237,-375.4"/>
</g>
<!-- 16&#45;&gt;17 -->
<g id="edge17" class="edge">
<title>16&#45;&gt;17</title>
<path fill="none" stroke="black" d="M285.75,-428.46C290.78,-415.98 297.76,-398.68 303.52,-384.4"/>
<polygon fill="black" stroke="black" points="306.78,-385.67 307.27,-375.08 300.29,-383.05 306.78,-385.67"/>
<text text-anchor="middle" x="305.25" y="-397.6" font-family="Times,serif" font-size="14.00">⊔</text>
</g>
<!-- 18 -->
<g id="node19" class="node">
<title>18</title>
<ellipse fill="none" stroke="black" cx="314" cy="-268.6" rx="27" ry="18"/>
<text text-anchor="start" x="307" y="-265.4" font-family="Times,serif" font-size="14.00">x</text>
<text text-anchor="start" x="314" y="-265.4" font-family="Times,serif" baseline-shift="sub" font-size="14.00">3</text>
<g id="a_node19_14"><a xlink:href="C:\Users\turco\OneDrive\Desktop\ProgettoIntelligentWeb\Progetto\graph\normal\18.txt" xlink:title="Nodo 18: (¬B ⊔ ∃R.A ), (B ⊔ ¬C ), B , A , ¬B , ((B ⊔ ¬C )⊓ (¬A ⊔ ∃S.A )⊓ (¬B ⊔ ∃R.A )), (¬A ⊔ ∃S.A )" target="_blank">
<polygon fill="none" stroke="green" points="238,-287.6 238,-313.6 286,-313.6 286,-287.6 238,-287.6"/>
<text text-anchor="start" x="242.56" y="-296" font-family="Times,serif" font-size="14.00"> Label </text>
</a>
</g>
<polygon fill="none" stroke="green" points="237,-286.6 237,-314.6 287,-314.6 287,-286.6 237,-286.6"/>
</g>
<!-- 17&#45;&gt;18 -->
<g id="edge19" class="edge">
<title>17&#45;&gt;18</title>
<path fill="none" stroke="black" d="M314,-339.25C314,-327.12 314,-310.62 314,-296.72"/>
<polygon fill="black" stroke="black" points="317.5,-296.71 314,-286.71 310.5,-296.71 317.5,-296.71"/>
<text text-anchor="middle" x="319.25" y="-308.8" font-family="Times,serif" font-size="14.00">⊔</text>
</g>
<!-- 20 -->
<g id="node21" class="node">
<title>20</title>
<ellipse fill="none" stroke="black" cx="402" cy="-268.6" rx="27" ry="18"/>
<text text-anchor="start" x="395" y="-265.4" font-family="Times,serif" font-size="14.00">x</text>
<text text-anchor="start" x="402" y="-265.4" font-family="Times,serif" baseline-shift="sub" font-size="14.00">3</text>
<g id="a_node21_15"><a xlink:href="C:\Users\turco\OneDrive\Desktop\ProgettoIntelligentWeb\Progetto\graph\normal\20.txt" xlink:title="Nodo 20: (¬B ⊔ ∃R.A ), (B ⊔ ¬C ), A , ¬B , ((B ⊔ ¬C )⊓ (¬A ⊔ ∃S.A )⊓ (¬B ⊔ ∃R.A )), (¬A ⊔ ∃S.A ), ¬C " target="_blank">
<polygon fill="none" stroke="green" points="326,-223.6 326,-249.6 374,-249.6 374,-223.6 326,-223.6"/>
<text text-anchor="start" x="330.56" y="-232" font-family="Times,serif" font-size="14.00"> Label </text>
</a>
</g>
<polygon fill="none" stroke="green" points="325,-222.6 325,-250.6 375,-250.6 375,-222.6 325,-222.6"/>
</g>
<!-- 17&#45;&gt;20 -->
<g id="edge18" class="edge">
<title>17&#45;&gt;20</title>
<path fill="none" stroke="black" d="M328.53,-342.07C342.54,-328.25 363.93,-307.15 380.03,-291.27"/>
<polygon fill="black" stroke="black" points="382.79,-293.47 387.45,-283.95 377.87,-288.49 382.79,-293.47"/>
<text text-anchor="middle" x="371.25" y="-308.8" font-family="Times,serif" font-size="14.00">⊔</text>
</g>
<!-- 19 -->
<g id="node20" class="node">
<title>19</title>
<ellipse fill="none" stroke="black" cx="314" cy="-179.8" rx="42.88" ry="18"/>
<text text-anchor="start" x="291.06" y="-175.6" font-family="Times,serif" font-size="14.00">CLASH</text>
</g>
<!-- 18&#45;&gt;19 -->
<g id="edge20" class="edge">
<title>18&#45;&gt;19</title>
<path fill="none" stroke="red" d="M314,-250.45C314,-238.32 314,-221.82 314,-207.92"/>
<polygon fill="red" stroke="red" points="317.5,-207.91 314,-197.91 310.5,-207.91 317.5,-207.91"/>
</g>
<!-- 21 -->
<g id="node22" class="node">
<title>21</title>
<ellipse fill="none" stroke="black" cx="402" cy="-179.8" rx="27" ry="18"/>
<text text-anchor="start" x="395" y="-176.6" font-family="Times,serif" font-size="14.00">x</text>
<text text-anchor="start" x="402" y="-176.6" font-family="Times,serif" baseline-shift="sub" font-size="14.00">3</text>
<g id="a_node22_16"><a xlink:href="C:\Users\turco\OneDrive\Desktop\ProgettoIntelligentWeb\Progetto\graph\normal\21.txt" xlink:title="Nodo 21: (¬B ⊔ ∃R.A ), (B ⊔ ¬C ), A , ¬A , ¬B , ((B ⊔ ¬C )⊓ (¬A ⊔ ∃S.A )⊓ (¬B ⊔ ∃R.A )), (¬A ⊔ ∃S.A ), ¬C " target="_blank">
<polygon fill="none" stroke="green" points="326,-134.8 326,-160.8 374,-160.8 374,-134.8 326,-134.8"/>
<text text-anchor="start" x="330.56" y="-143.2" font-family="Times,serif" font-size="14.00"> Label </text>
</a>
</g>
<polygon fill="none" stroke="green" points="325,-133.8 325,-161.8 375,-161.8 375,-133.8 325,-133.8"/>
</g>
<!-- 20&#45;&gt;21 -->
<g id="edge22" class="edge">
<title>20&#45;&gt;21</title>
<path fill="none" stroke="black" d="M402,-250.45C402,-238.32 402,-221.82 402,-207.92"/>
<polygon fill="black" stroke="black" points="405.5,-207.91 402,-197.91 398.5,-207.91 405.5,-207.91"/>
<text text-anchor="middle" x="407.25" y="-220" font-family="Times,serif" font-size="14.00">⊔</text>
</g>
<!-- 23 -->
<g id="node24" class="node">
<title>23</title>
<ellipse fill="none" stroke="black" cx="478" cy="-179.8" rx="27" ry="18"/>
<text text-anchor="start" x="471" y="-176.6" font-family="Times,serif" font-size="14.00">x</text>
<text text-anchor="start" x="478" y="-176.6" font-family="Times,serif" baseline-shift="sub" font-size="14.00">3</text>
<g id="a_node24_17"><a xlink:href="C:\Users\turco\OneDrive\Desktop\ProgettoIntelligentWeb\Progetto\graph\normal\23.txt" xlink:title="Nodo 23: (¬B ⊔ ∃R.A ), (B ⊔ ¬C ), A , ¬B , ∃S.A , ((B ⊔ ¬C )⊓ (¬A ⊔ ∃S.A )⊓ (¬B ⊔ ∃R.A )), (¬A ⊔ ∃S.A ), ¬C " target="_blank">
<polygon fill="none" stroke="green" points="402,-134.8 402,-160.8 450,-160.8 450,-134.8 402,-134.8"/>
<text text-anchor="start" x="406.56" y="-143.2" font-family="Times,serif" font-size="14.00"> Label </text>
</a>
</g>
<polygon fill="none" stroke="green" points="401,-133.8 401,-161.8 451,-161.8 451,-133.8 401,-133.8"/>
</g>
<!-- 20&#45;&gt;23 -->
<g id="edge21" class="edge">
<title>20&#45;&gt;23</title>
<path fill="none" stroke="black" d="M415.24,-252.48C427.12,-238.91 444.71,-218.82 458.25,-203.35"/>
<polygon fill="black" stroke="black" points="460.96,-205.58 464.91,-195.75 455.69,-200.96 460.96,-205.58"/>
<text text-anchor="middle" x="452.25" y="-220" font-family="Times,serif" font-size="14.00">⊔</text>
</g>
<!-- 22 -->
<g id="node23" class="node">
<title>22</title>
<ellipse fill="none" stroke="black" cx="400" cy="-91" rx="42.88" ry="18"/>
<text text-anchor="start" x="377.06" y="-86.8" font-family="Times,serif" font-size="14.00">CLASH</text>
</g>
<!-- 21&#45;&gt;22 -->
<g id="edge23" class="edge">
<title>21&#45;&gt;22</title>
<path fill="none" stroke="red" d="M401.6,-161.65C401.33,-149.52 400.95,-133.02 400.62,-119.12"/>
<polygon fill="red" stroke="red" points="404.12,-119.03 400.39,-109.11 397.13,-119.19 404.12,-119.03"/>
</g>
<!-- 24 -->
<g id="node25" class="node">
<title>24</title>
<ellipse fill="none" stroke="black" cx="488" cy="-91" rx="27" ry="18"/>
<text text-anchor="start" x="481" y="-87.8" font-family="Times,serif" font-size="14.00">x</text>
<text text-anchor="start" x="488" y="-87.8" font-family="Times,serif" baseline-shift="sub" font-size="14.00">4</text>
<g id="a_node25_18"><a xlink:href="C:\Users\turco\OneDrive\Desktop\ProgettoIntelligentWeb\Progetto\graph\normal\24.txt" xlink:title="Nodo 24: A , ((B ⊔ ¬C )⊓ (¬A ⊔ ∃S.A )⊓ (¬B ⊔ ∃R.A ))" target="_blank">
<polygon fill="none" stroke="green" points="412,-46 412,-72 460,-72 460,-46 412,-46"/>
<text text-anchor="start" x="416.56" y="-54.4" font-family="Times,serif" font-size="14.00"> Label </text>
</a>
</g>
<polygon fill="none" stroke="green" points="411,-45 411,-73 461,-73 461,-45 411,-45"/>
</g>
<!-- 23&#45;&gt;24 -->
<g id="edge24" class="edge">
<title>23&#45;&gt;24</title>
<path fill="none" stroke="black" d="M479.98,-161.65C481.37,-149.52 483.27,-133.02 484.88,-119.12"/>
<polygon fill="black" stroke="black" points="488.36,-119.45 486.03,-109.11 481.41,-118.65 488.36,-119.45"/>
<text text-anchor="middle" x="487.89" y="-131.2" font-family="Times,serif" font-size="14.00">S</text>
</g>
<!-- 25 -->
<g id="node26" class="node">
<title>25</title>
<ellipse fill="none" stroke="black" cx="488" cy="-18" rx="60.83" ry="18"/>
<text text-anchor="start" x="451.84" y="-13.8" font-family="Times,serif" font-size="14.00">BLOCKING</text>
</g>
<!-- 24&#45;&gt;25 -->
<g id="edge25" class="edge">
<title>24&#45;&gt;25</title>
<path fill="none" stroke="orange" d="M488,-72.81C488,-64.79 488,-55.05 488,-46.07"/>
<polygon fill="orange" stroke="orange" points="491.5,-46.03 488,-36.03 484.5,-46.03 491.5,-46.03"/>
</g>
</g>
</svg>
