<svg width="511px" height="323px"
 viewBox="0.00 0.00 510.51 322.60" xmlns="http://www.w3.org/2000/svg" xmlns:xlink="http://www.w3.org/1999/xlink">
<g id="graph0" class="graph" transform="scale(1.0 1.0) rotate(0.0) translate(4.0 318.6)">
<title>tableaux</title>
<polygon fill="white" stroke="transparent" points="-4,4 -4,-318.6 506.51,-318.6 506.51,4 -4,4"/>
<!-- 0 -->
<g id="node1" class="node">
<title>0</title>
<ellipse fill="none" stroke="black" cx="318" cy="-268.6" rx="27" ry="18"/>
<text text-anchor="start" x="311" y="-265.4" font-family="Times,serif" font-size="14.00">x</text>
<text text-anchor="start" x="318" y="-265.4" font-family="Times,serif" baseline-shift="sub" font-size="14.00">0</text>
<g id="a_node1_0"><a xlink:href="C:\Users\turco\OneDrive\Desktop\ProgettoIntelligentWeb\Progetto\graph\normal\0.txt" xlink:title="Clicca per visualizzare Lx" target="_blank">
<polygon fill="none" stroke="green" points="242,-287.6 242,-313.6 290,-313.6 290,-287.6 242,-287.6"/>
<text text-anchor="start" x="246.56" y="-296" font-family="Times,serif" font-size="14.00"> Label </text>
</a>
</g>
<polygon fill="none" stroke="green" points="241,-286.6 241,-314.6 291,-314.6 291,-286.6 241,-286.6"/>
</g>
<!-- 1 -->
<g id="node2" class="node">
<title>1</title>
<ellipse fill="none" stroke="black" cx="192" cy="-179.8" rx="27" ry="18"/>
<text text-anchor="start" x="185" y="-176.6" font-family="Times,serif" font-size="14.00">x</text>
<text text-anchor="start" x="192" y="-176.6" font-family="Times,serif" baseline-shift="sub" font-size="14.00">1</text>
<g id="a_node2_1"><a xlink:href="C:\Users\turco\OneDrive\Desktop\ProgettoIntelligentWeb\Progetto\graph\normal\1.txt" xlink:title="Clicca per visualizzare Lx" target="_blank">
<polygon fill="none" stroke="green" points="116,-198.8 116,-224.8 164,-224.8 164,-198.8 116,-198.8"/>
<text text-anchor="start" x="120.56" y="-207.2" font-family="Times,serif" font-size="14.00"> Label </text>
</a>
</g>
<polygon fill="none" stroke="green" points="115,-197.8 115,-225.8 165,-225.8 165,-197.8 115,-197.8"/>
</g>
<!-- 0&#45;&gt;1 -->
<g id="edge3" class="edge">
<title>0&#45;&gt;1</title>
<path fill="none" stroke="black" d="M299.95,-255.16C278.61,-240.47 242.93,-215.89 218.48,-199.04"/>
<polygon fill="black" stroke="black" points="220.24,-196 210.02,-193.21 216.27,-201.77 220.24,-196"/>
<text text-anchor="middle" x="271.67" y="-220" font-family="Times,serif" font-size="14.00">R</text>
</g>
<!-- 5 -->
<g id="node6" class="node">
<title>5</title>
<ellipse fill="none" stroke="black" cx="318" cy="-179.8" rx="27" ry="18"/>
<text text-anchor="start" x="311" y="-176.6" font-family="Times,serif" font-size="14.00">x</text>
<text text-anchor="start" x="318" y="-176.6" font-family="Times,serif" baseline-shift="sub" font-size="14.00">3</text>
<g id="a_node6_2"><a xlink:href="C:\Users\turco\OneDrive\Desktop\ProgettoIntelligentWeb\Progetto\graph\normal\5.txt" xlink:title="Clicca per visualizzare Lx" target="_blank">
<polygon fill="none" stroke="green" points="242,-162.8 242,-188.8 290,-188.8 290,-162.8 242,-162.8"/>
<text text-anchor="start" x="246.56" y="-171.2" font-family="Times,serif" font-size="14.00"> Label </text>
</a>
</g>
<polygon fill="none" stroke="green" points="241,-161.8 241,-189.8 291,-189.8 291,-161.8 241,-161.8"/>
</g>
<!-- 0&#45;&gt;5 -->
<g id="edge2" class="edge">
<title>0&#45;&gt;5</title>
<path fill="none" stroke="black" d="M318,-250.45C318,-238.32 318,-221.82 318,-207.92"/>
<polygon fill="black" stroke="black" points="321.5,-207.91 318,-197.91 314.5,-207.91 321.5,-207.91"/>
<text text-anchor="middle" x="321.89" y="-220" font-family="Times,serif" font-size="14.00">S</text>
</g>
<!-- 7 -->
<g id="node8" class="node">
<title>7</title>
<ellipse fill="none" stroke="black" cx="433" cy="-179.8" rx="69.52" ry="18"/>
<text text-anchor="start" x="390.62" y="-175.6" font-family="Times,serif" font-size="14.00">CLASH&#45;FREE</text>
</g>
<!-- 0&#45;&gt;7 -->
<g id="edge1" class="edge">
<title>0&#45;&gt;7</title>
<path fill="none" stroke="green" d="M335.47,-254.42C353.44,-240.85 381.77,-219.47 403.28,-203.23"/>
<polygon fill="green" stroke="green" points="405.57,-205.89 411.44,-197.07 401.35,-200.3 405.57,-205.89"/>
</g>
<!-- 2 -->
<g id="node3" class="node">
<title>2</title>
<ellipse fill="none" stroke="black" cx="77" cy="-91" rx="27" ry="18"/>
<text text-anchor="start" x="70" y="-87.8" font-family="Times,serif" font-size="14.00">x</text>
<text text-anchor="start" x="77" y="-87.8" font-family="Times,serif" baseline-shift="sub" font-size="14.00">2</text>
<g id="a_node3_3"><a xlink:href="C:\Users\turco\OneDrive\Desktop\ProgettoIntelligentWeb\Progetto\graph\normal\2.txt" xlink:title="Clicca per visualizzare Lx" target="_blank">
<polygon fill="none" stroke="green" points="1,-110 1,-136 49,-136 49,-110 1,-110"/>
<text text-anchor="start" x="5.56" y="-118.4" font-family="Times,serif" font-size="14.00"> Label </text>
</a>
</g>
<polygon fill="none" stroke="green" points="0,-109 0,-137 50,-137 50,-109 0,-109"/>
</g>
<!-- 1&#45;&gt;2 -->
<g id="edge5" class="edge">
<title>1&#45;&gt;2</title>
<path fill="none" stroke="black" d="M174.53,-165.62C155.34,-151.13 124.33,-127.73 102.44,-111.2"/>
<polygon fill="black" stroke="black" points="104.34,-108.25 94.25,-105.02 100.13,-113.84 104.34,-108.25"/>
<text text-anchor="middle" x="148.89" y="-131.2" font-family="Times,serif" font-size="14.00">S</text>
</g>
<!-- 4 -->
<g id="node5" class="node">
<title>4</title>
<ellipse fill="none" stroke="black" cx="192" cy="-91" rx="69.52" ry="18"/>
<text text-anchor="start" x="149.62" y="-86.8" font-family="Times,serif" font-size="14.00">CLASH&#45;FREE</text>
</g>
<!-- 1&#45;&gt;4 -->
<g id="edge4" class="edge">
<title>1&#45;&gt;4</title>
<path fill="none" stroke="green" d="M192,-161.65C192,-149.52 192,-133.02 192,-119.12"/>
<polygon fill="green" stroke="green" points="195.5,-119.11 192,-109.11 188.5,-119.11 195.5,-119.11"/>
</g>
<!-- 3 -->
<g id="node4" class="node">
<title>3</title>
<ellipse fill="none" stroke="black" cx="77" cy="-18" rx="69.52" ry="18"/>
<text text-anchor="start" x="34.62" y="-13.8" font-family="Times,serif" font-size="14.00">CLASH&#45;FREE</text>
</g>
<!-- 2&#45;&gt;3 -->
<g id="edge6" class="edge">
<title>2&#45;&gt;3</title>
<path fill="none" stroke="green" d="M77,-72.81C77,-64.79 77,-55.05 77,-46.07"/>
<polygon fill="green" stroke="green" points="80.5,-46.03 77,-36.03 73.5,-46.03 80.5,-46.03"/>
</g>
<!-- 6 -->
<g id="node7" class="node">
<title>6</title>
<ellipse fill="none" stroke="black" cx="349" cy="-91" rx="69.52" ry="18"/>
<text text-anchor="start" x="306.62" y="-86.8" font-family="Times,serif" font-size="14.00">CLASH&#45;FREE</text>
</g>
<!-- 5&#45;&gt;6 -->
<g id="edge7" class="edge">
<title>5&#45;&gt;6</title>
<path fill="none" stroke="green" d="M323.98,-162.06C328.37,-149.78 334.42,-132.83 339.47,-118.68"/>
<polygon fill="green" stroke="green" points="342.87,-119.58 342.94,-108.98 336.28,-117.22 342.87,-119.58"/>
</g>
</g>
</svg>
