<svg width="865px" height="678px"
 viewBox="0.00 0.00 864.51 677.80" xmlns="http://www.w3.org/2000/svg" xmlns:xlink="http://www.w3.org/1999/xlink">
<g id="graph0" class="graph" transform="scale(1.0 1.0) rotate(0.0) translate(4.0 673.8)">
<title>tableaux</title>
<polygon fill="white" stroke="transparent" points="-4,4 -4,-673.8 860.51,-673.8 860.51,4 -4,4"/>
<!-- 0 -->
<g id="node1" class="node">
<title>0</title>
<ellipse fill="none" stroke="black" cx="237" cy="-623.8" rx="27" ry="18"/>
<text text-anchor="start" x="230" y="-620.6" font-family="Times,serif" font-size="14.00">x</text>
<text text-anchor="start" x="237" y="-620.6" font-family="Times,serif" baseline-shift="sub" font-size="14.00">0</text>
<g id="a_node1_0"><a xlink:href="C:\Users\turco\OneDrive\Desktop\ProgettoIntelligentWeb\Progetto\graph\normal\0.txt" xlink:title="Clicca per visualizzare Lx" target="_blank">
<polygon fill="none" stroke="green" points="161,-642.8 161,-668.8 209,-668.8 209,-642.8 161,-642.8"/>
<text text-anchor="start" x="165.56" y="-651.2" font-family="Times,serif" font-size="14.00"> Label </text>
</a>
</g>
<polygon fill="none" stroke="green" points="160,-641.8 160,-669.8 210,-669.8 210,-641.8 160,-641.8"/>
</g>
<!-- 1 -->
<g id="node2" class="node">
<title>1</title>
<ellipse fill="none" stroke="black" cx="193" cy="-535" rx="27" ry="18"/>
<text text-anchor="start" x="186" y="-531.8" font-family="Times,serif" font-size="14.00">x</text>
<text text-anchor="start" x="193" y="-531.8" font-family="Times,serif" baseline-shift="sub" font-size="14.00">0</text>
<g id="a_node2_1"><a xlink:href="C:\Users\turco\OneDrive\Desktop\ProgettoIntelligentWeb\Progetto\graph\normal\1.txt" xlink:title="Clicca per visualizzare Lx" target="_blank">
<polygon fill="none" stroke="green" points="117,-554 117,-580 165,-580 165,-554 117,-554"/>
<text text-anchor="start" x="121.56" y="-562.4" font-family="Times,serif" font-size="14.00"> Label </text>
</a>
</g>
<polygon fill="none" stroke="green" points="116,-553 116,-581 166,-581 166,-553 116,-553"/>
</g>
<!-- 0&#45;&gt;1 -->
<g id="edge2" class="edge">
<title>0&#45;&gt;1</title>
<path fill="none" stroke="black" d="M228.72,-606.47C222.27,-593.74 213.2,-575.84 205.81,-561.26"/>
<polygon fill="black" stroke="black" points="208.88,-559.59 201.24,-552.25 202.64,-562.76 208.88,-559.59"/>
<text text-anchor="middle" x="224.25" y="-575.2" font-family="Times,serif" font-size="14.00">⊔</text>
</g>
<!-- 12 -->
<g id="node13" class="node">
<title>12</title>
<ellipse fill="none" stroke="black" cx="307" cy="-535" rx="27" ry="18"/>
<text text-anchor="start" x="300" y="-531.8" font-family="Times,serif" font-size="14.00">x</text>
<text text-anchor="start" x="307" y="-531.8" font-family="Times,serif" baseline-shift="sub" font-size="14.00">0</text>
<g id="a_node13_2"><a xlink:href="C:\Users\turco\OneDrive\Desktop\ProgettoIntelligentWeb\Progetto\graph\normal\12.txt" xlink:title="Clicca per visualizzare Lx" target="_blank">
<polygon fill="none" stroke="green" points="231,-518 231,-544 279,-544 279,-518 231,-518"/>
<text text-anchor="start" x="235.56" y="-526.4" font-family="Times,serif" font-size="14.00"> Label </text>
</a>
</g>
<polygon fill="none" stroke="green" points="230,-517 230,-545 280,-545 280,-517 230,-517"/>
</g>
<!-- 0&#45;&gt;12 -->
<g id="edge1" class="edge">
<title>0&#45;&gt;12</title>
<path fill="none" stroke="black" d="M249.19,-607.68C259.97,-594.32 275.85,-574.63 288.24,-559.26"/>
<polygon fill="black" stroke="black" points="291.16,-561.22 294.71,-551.24 285.71,-556.82 291.16,-561.22"/>
<text text-anchor="middle" x="284.25" y="-575.2" font-family="Times,serif" font-size="14.00">⊔</text>
</g>
<!-- 2 -->
<g id="node3" class="node">
<title>2</title>
<ellipse fill="none" stroke="black" cx="77" cy="-446.2" rx="27" ry="18"/>
<text text-anchor="start" x="70" y="-443" font-family="Times,serif" font-size="14.00">x</text>
<text text-anchor="start" x="77" y="-443" font-family="Times,serif" baseline-shift="sub" font-size="14.00">0</text>
<g id="a_node3_3"><a xlink:href="C:\Users\turco\OneDrive\Desktop\ProgettoIntelligentWeb\Progetto\graph\normal\2.txt" xlink:title="Clicca per visualizzare Lx" target="_blank">
<polygon fill="none" stroke="green" points="1,-465.2 1,-491.2 49,-491.2 49,-465.2 1,-465.2"/>
<text text-anchor="start" x="5.56" y="-473.6" font-family="Times,serif" font-size="14.00"> Label </text>
</a>
</g>
<polygon fill="none" stroke="green" points="0,-464.2 0,-492.2 50,-492.2 50,-464.2 0,-464.2"/>
</g>
<!-- 1&#45;&gt;2 -->
<g id="edge4" class="edge">
<title>1&#45;&gt;2</title>
<path fill="none" stroke="black" d="M175.63,-521.01C156.33,-506.56 124.95,-483.08 102.78,-466.49"/>
<polygon fill="black" stroke="black" points="104.59,-463.47 94.49,-460.28 100.39,-469.08 104.59,-463.47"/>
<text text-anchor="middle" x="151.25" y="-486.4" font-family="Times,serif" font-size="14.00">⊔</text>
</g>
<!-- 4 -->
<g id="node5" class="node">
<title>4</title>
<ellipse fill="none" stroke="black" cx="193" cy="-446.2" rx="27" ry="18"/>
<text text-anchor="start" x="186" y="-443" font-family="Times,serif" font-size="14.00">x</text>
<text text-anchor="start" x="193" y="-443" font-family="Times,serif" baseline-shift="sub" font-size="14.00">0</text>
<g id="a_node5_4"><a xlink:href="C:\Users\turco\OneDrive\Desktop\ProgettoIntelligentWeb\Progetto\graph\normal\4.txt" xlink:title="Clicca per visualizzare Lx" target="_blank">
<polygon fill="none" stroke="green" points="117,-429.2 117,-455.2 165,-455.2 165,-429.2 117,-429.2"/>
<text text-anchor="start" x="121.56" y="-437.6" font-family="Times,serif" font-size="14.00"> Label </text>
</a>
</g>
<polygon fill="none" stroke="green" points="116,-428.2 116,-456.2 166,-456.2 166,-428.2 116,-428.2"/>
</g>
<!-- 1&#45;&gt;4 -->
<g id="edge3" class="edge">
<title>1&#45;&gt;4</title>
<path fill="none" stroke="black" d="M193,-516.85C193,-504.72 193,-488.22 193,-474.32"/>
<polygon fill="black" stroke="black" points="196.5,-474.31 193,-464.31 189.5,-474.31 196.5,-474.31"/>
<text text-anchor="middle" x="198.25" y="-486.4" font-family="Times,serif" font-size="14.00">⊔</text>
</g>
<!-- 3 -->
<g id="node4" class="node">
<title>3</title>
<ellipse fill="none" stroke="black" cx="59" cy="-357.4" rx="42.88" ry="18"/>
<text text-anchor="start" x="36.06" y="-353.2" font-family="Times,serif" font-size="14.00">CLASH</text>
</g>
<!-- 2&#45;&gt;3 -->
<g id="edge5" class="edge">
<title>2&#45;&gt;3</title>
<path fill="none" stroke="red" d="M73.44,-428.05C70.93,-415.92 67.51,-399.42 64.62,-385.52"/>
<polygon fill="red" stroke="red" points="68.01,-384.59 62.55,-375.51 61.15,-386.02 68.01,-384.59"/>
</g>
<!-- 5 -->
<g id="node6" class="node">
<title>5</title>
<ellipse fill="none" stroke="black" cx="147" cy="-357.4" rx="27" ry="18"/>
<text text-anchor="start" x="140" y="-354.2" font-family="Times,serif" font-size="14.00">x</text>
<text text-anchor="start" x="147" y="-354.2" font-family="Times,serif" baseline-shift="sub" font-size="14.00">0</text>
<g id="a_node6_5"><a xlink:href="C:\Users\turco\OneDrive\Desktop\ProgettoIntelligentWeb\Progetto\graph\normal\5.txt" xlink:title="Clicca per visualizzare Lx" target="_blank">
<polygon fill="none" stroke="green" points="71,-376.4 71,-402.4 119,-402.4 119,-376.4 71,-376.4"/>
<text text-anchor="start" x="75.56" y="-384.8" font-family="Times,serif" font-size="14.00"> Label </text>
</a>
</g>
<polygon fill="none" stroke="green" points="70,-375.4 70,-403.4 120,-403.4 120,-375.4 70,-375.4"/>
</g>
<!-- 4&#45;&gt;5 -->
<g id="edge7" class="edge">
<title>4&#45;&gt;5</title>
<path fill="none" stroke="black" d="M184.35,-428.87C177.6,-416.14 168.11,-398.24 160.39,-383.66"/>
<polygon fill="black" stroke="black" points="163.39,-381.85 155.61,-374.65 157.2,-385.13 163.39,-381.85"/>
<text text-anchor="middle" x="180.25" y="-397.6" font-family="Times,serif" font-size="14.00">⊔</text>
</g>
<!-- 7 -->
<g id="node8" class="node">
<title>7</title>
<ellipse fill="none" stroke="black" cx="219" cy="-357.4" rx="27" ry="18"/>
<text text-anchor="start" x="212" y="-354.2" font-family="Times,serif" font-size="14.00">x</text>
<text text-anchor="start" x="219" y="-354.2" font-family="Times,serif" baseline-shift="sub" font-size="14.00">0</text>
<g id="a_node8_6"><a xlink:href="C:\Users\turco\OneDrive\Desktop\ProgettoIntelligentWeb\Progetto\graph\normal\7.txt" xlink:title="Clicca per visualizzare Lx" target="_blank">
<polygon fill="none" stroke="green" points="143,-312.4 143,-338.4 191,-338.4 191,-312.4 143,-312.4"/>
<text text-anchor="start" x="147.56" y="-320.8" font-family="Times,serif" font-size="14.00"> Label </text>
</a>
</g>
<polygon fill="none" stroke="green" points="142,-311.4 142,-339.4 192,-339.4 192,-311.4 142,-311.4"/>
</g>
<!-- 4&#45;&gt;7 -->
<g id="edge6" class="edge">
<title>4&#45;&gt;7</title>
<path fill="none" stroke="black" d="M198.01,-428.46C201.69,-416.18 206.77,-399.23 211.01,-385.08"/>
<polygon fill="black" stroke="black" points="214.4,-385.96 213.91,-375.38 207.69,-383.96 214.4,-385.96"/>
<text text-anchor="middle" x="214.25" y="-397.6" font-family="Times,serif" font-size="14.00">⊔</text>
</g>
<!-- 6 -->
<g id="node7" class="node">
<title>6</title>
<ellipse fill="none" stroke="black" cx="131" cy="-268.6" rx="42.88" ry="18"/>
<text text-anchor="start" x="108.06" y="-264.4" font-family="Times,serif" font-size="14.00">CLASH</text>
</g>
<!-- 5&#45;&gt;6 -->
<g id="edge8" class="edge">
<title>5&#45;&gt;6</title>
<path fill="none" stroke="red" d="M143.84,-339.25C141.6,-327.12 138.56,-310.62 136,-296.72"/>
<polygon fill="red" stroke="red" points="139.41,-295.91 134.15,-286.71 132.53,-297.18 139.41,-295.91"/>
</g>
<!-- 8 -->
<g id="node9" class="node">
<title>8</title>
<ellipse fill="none" stroke="black" cx="219" cy="-268.6" rx="27" ry="18"/>
<text text-anchor="start" x="212" y="-265.4" font-family="Times,serif" font-size="14.00">x</text>
<text text-anchor="start" x="219" y="-265.4" font-family="Times,serif" baseline-shift="sub" font-size="14.00">0</text>
<g id="a_node9_7"><a xlink:href="C:\Users\turco\OneDrive\Desktop\ProgettoIntelligentWeb\Progetto\graph\normal\8.txt" xlink:title="Clicca per visualizzare Lx" target="_blank">
<polygon fill="none" stroke="green" points="143,-223.6 143,-249.6 191,-249.6 191,-223.6 143,-223.6"/>
<text text-anchor="start" x="147.56" y="-232" font-family="Times,serif" font-size="14.00"> Label </text>
</a>
</g>
<polygon fill="none" stroke="green" points="142,-222.6 142,-250.6 192,-250.6 192,-222.6 142,-222.6"/>
</g>
<!-- 7&#45;&gt;8 -->
<g id="edge10" class="edge">
<title>7&#45;&gt;8</title>
<path fill="none" stroke="black" d="M219,-339.25C219,-327.12 219,-310.62 219,-296.72"/>
<polygon fill="black" stroke="black" points="222.5,-296.71 219,-286.71 215.5,-296.71 222.5,-296.71"/>
<text text-anchor="middle" x="224.25" y="-308.8" font-family="Times,serif" font-size="14.00">⊔</text>
</g>
<!-- 10 -->
<g id="node11" class="node">
<title>10</title>
<ellipse fill="none" stroke="black" cx="295" cy="-268.6" rx="27" ry="18"/>
<text text-anchor="start" x="288" y="-265.4" font-family="Times,serif" font-size="14.00">x</text>
<text text-anchor="start" x="295" y="-265.4" font-family="Times,serif" baseline-shift="sub" font-size="14.00">0</text>
<g id="a_node11_8"><a xlink:href="C:\Users\turco\OneDrive\Desktop\ProgettoIntelligentWeb\Progetto\graph\normal\10.txt" xlink:title="Clicca per visualizzare Lx" target="_blank">
<polygon fill="none" stroke="green" points="219,-223.6 219,-249.6 267,-249.6 267,-223.6 219,-223.6"/>
<text text-anchor="start" x="223.56" y="-232" font-family="Times,serif" font-size="14.00"> Label </text>
</a>
</g>
<polygon fill="none" stroke="green" points="218,-222.6 218,-250.6 268,-250.6 268,-222.6 218,-222.6"/>
</g>
<!-- 7&#45;&gt;10 -->
<g id="edge9" class="edge">
<title>7&#45;&gt;10</title>
<path fill="none" stroke="black" d="M232.24,-341.28C244.12,-327.71 261.71,-307.62 275.25,-292.15"/>
<polygon fill="black" stroke="black" points="277.96,-294.38 281.91,-284.55 272.69,-289.76 277.96,-294.38"/>
<text text-anchor="middle" x="269.25" y="-308.8" font-family="Times,serif" font-size="14.00">⊔</text>
</g>
<!-- 9 -->
<g id="node10" class="node">
<title>9</title>
<ellipse fill="none" stroke="black" cx="215" cy="-179.8" rx="42.88" ry="18"/>
<text text-anchor="start" x="192.06" y="-175.6" font-family="Times,serif" font-size="14.00">CLASH</text>
</g>
<!-- 8&#45;&gt;9 -->
<g id="edge11" class="edge">
<title>8&#45;&gt;9</title>
<path fill="none" stroke="red" d="M218.21,-250.45C217.65,-238.32 216.89,-221.82 216.25,-207.92"/>
<polygon fill="red" stroke="red" points="219.75,-207.74 215.79,-197.91 212.75,-208.06 219.75,-207.74"/>
</g>
<!-- 11 -->
<g id="node12" class="node">
<title>11</title>
<ellipse fill="none" stroke="black" cx="318" cy="-179.8" rx="42.88" ry="18"/>
<text text-anchor="start" x="295.06" y="-175.6" font-family="Times,serif" font-size="14.00">CLASH</text>
</g>
<!-- 10&#45;&gt;11 -->
<g id="edge12" class="edge">
<title>10&#45;&gt;11</title>
<path fill="none" stroke="red" d="M299.54,-250.45C302.76,-238.32 307.13,-221.82 310.81,-207.92"/>
<polygon fill="red" stroke="red" points="314.29,-208.48 313.47,-197.91 307.52,-206.68 314.29,-208.48"/>
</g>
<!-- 13 -->
<g id="node14" class="node">
<title>13</title>
<ellipse fill="none" stroke="black" cx="307" cy="-446.2" rx="27" ry="18"/>
<text text-anchor="start" x="300" y="-443" font-family="Times,serif" font-size="14.00">x</text>
<text text-anchor="start" x="307" y="-443" font-family="Times,serif" baseline-shift="sub" font-size="14.00">0</text>
<g id="a_node14_9"><a xlink:href="C:\Users\turco\OneDrive\Desktop\ProgettoIntelligentWeb\Progetto\graph\normal\13.txt" xlink:title="Clicca per visualizzare Lx" target="_blank">
<polygon fill="none" stroke="green" points="231,-465.2 231,-491.2 279,-491.2 279,-465.2 231,-465.2"/>
<text text-anchor="start" x="235.56" y="-473.6" font-family="Times,serif" font-size="14.00"> Label </text>
</a>
</g>
<polygon fill="none" stroke="green" points="230,-464.2 230,-492.2 280,-492.2 280,-464.2 230,-464.2"/>
</g>
<!-- 12&#45;&gt;13 -->
<g id="edge14" class="edge">
<title>12&#45;&gt;13</title>
<path fill="none" stroke="black" d="M307,-516.85C307,-504.72 307,-488.22 307,-474.32"/>
<polygon fill="black" stroke="black" points="310.5,-474.31 307,-464.31 303.5,-474.31 310.5,-474.31"/>
<text text-anchor="middle" x="312.25" y="-486.4" font-family="Times,serif" font-size="14.00">⊔</text>
</g>
<!-- 15 -->
<g id="node16" class="node">
<title>15</title>
<ellipse fill="none" stroke="black" cx="395" cy="-446.2" rx="27" ry="18"/>
<text text-anchor="start" x="388" y="-443" font-family="Times,serif" font-size="14.00">x</text>
<text text-anchor="start" x="395" y="-443" font-family="Times,serif" baseline-shift="sub" font-size="14.00">0</text>
<g id="a_node16_10"><a xlink:href="C:\Users\turco\OneDrive\Desktop\ProgettoIntelligentWeb\Progetto\graph\normal\15.txt" xlink:title="Clicca per visualizzare Lx" target="_blank">
<polygon fill="none" stroke="green" points="319,-401.2 319,-427.2 367,-427.2 367,-401.2 319,-401.2"/>
<text text-anchor="start" x="323.56" y="-409.6" font-family="Times,serif" font-size="14.00"> Label </text>
</a>
</g>
<polygon fill="none" stroke="green" points="318,-400.2 318,-428.2 368,-428.2 368,-400.2 318,-400.2"/>
</g>
<!-- 12&#45;&gt;15 -->
<g id="edge13" class="edge">
<title>12&#45;&gt;15</title>
<path fill="none" stroke="black" d="M321.53,-519.67C335.54,-505.85 356.93,-484.75 373.03,-468.87"/>
<polygon fill="black" stroke="black" points="375.79,-471.07 380.45,-461.55 370.87,-466.09 375.79,-471.07"/>
<text text-anchor="middle" x="364.25" y="-486.4" font-family="Times,serif" font-size="14.00">⊔</text>
</g>
<!-- 14 -->
<g id="node15" class="node">
<title>14</title>
<ellipse fill="none" stroke="black" cx="307" cy="-357.4" rx="42.88" ry="18"/>
<text text-anchor="start" x="284.06" y="-353.2" font-family="Times,serif" font-size="14.00">CLASH</text>
</g>
<!-- 13&#45;&gt;14 -->
<g id="edge15" class="edge">
<title>13&#45;&gt;14</title>
<path fill="none" stroke="red" d="M307,-428.05C307,-415.92 307,-399.42 307,-385.52"/>
<polygon fill="red" stroke="red" points="310.5,-385.51 307,-375.51 303.5,-385.51 310.5,-385.51"/>
</g>
<!-- 16 -->
<g id="node17" class="node">
<title>16</title>
<ellipse fill="none" stroke="black" cx="395" cy="-357.4" rx="27" ry="18"/>
<text text-anchor="start" x="388" y="-354.2" font-family="Times,serif" font-size="14.00">x</text>
<text text-anchor="start" x="395" y="-354.2" font-family="Times,serif" baseline-shift="sub" font-size="14.00">0</text>
<g id="a_node17_11"><a xlink:href="C:\Users\turco\OneDrive\Desktop\ProgettoIntelligentWeb\Progetto\graph\normal\16.txt" xlink:title="Clicca per visualizzare Lx" target="_blank">
<polygon fill="none" stroke="green" points="319,-312.4 319,-338.4 367,-338.4 367,-312.4 319,-312.4"/>
<text text-anchor="start" x="323.56" y="-320.8" font-family="Times,serif" font-size="14.00"> Label </text>
</a>
</g>
<polygon fill="none" stroke="green" points="318,-311.4 318,-339.4 368,-339.4 368,-311.4 318,-311.4"/>
</g>
<!-- 15&#45;&gt;16 -->
<g id="edge17" class="edge">
<title>15&#45;&gt;16</title>
<path fill="none" stroke="black" d="M395,-428.05C395,-415.92 395,-399.42 395,-385.52"/>
<polygon fill="black" stroke="black" points="398.5,-385.51 395,-375.51 391.5,-385.51 398.5,-385.51"/>
<text text-anchor="middle" x="400.25" y="-397.6" font-family="Times,serif" font-size="14.00">⊔</text>
</g>
<!-- 18 -->
<g id="node19" class="node">
<title>18</title>
<ellipse fill="none" stroke="black" cx="478" cy="-357.4" rx="27" ry="18"/>
<text text-anchor="start" x="471" y="-354.2" font-family="Times,serif" font-size="14.00">x</text>
<text text-anchor="start" x="478" y="-354.2" font-family="Times,serif" baseline-shift="sub" font-size="14.00">0</text>
<g id="a_node19_12"><a xlink:href="C:\Users\turco\OneDrive\Desktop\ProgettoIntelligentWeb\Progetto\graph\normal\18.txt" xlink:title="Clicca per visualizzare Lx" target="_blank">
<polygon fill="none" stroke="green" points="402,-312.4 402,-338.4 450,-338.4 450,-312.4 402,-312.4"/>
<text text-anchor="start" x="406.56" y="-320.8" font-family="Times,serif" font-size="14.00"> Label </text>
</a>
</g>
<polygon fill="none" stroke="green" points="401,-311.4 401,-339.4 451,-339.4 451,-311.4 401,-311.4"/>
</g>
<!-- 15&#45;&gt;18 -->
<g id="edge16" class="edge">
<title>15&#45;&gt;18</title>
<path fill="none" stroke="black" d="M409.08,-430.48C422.28,-416.68 442.17,-395.87 457.19,-380.16"/>
<polygon fill="black" stroke="black" points="459.75,-382.55 464.13,-372.91 454.69,-377.72 459.75,-382.55"/>
<text text-anchor="middle" x="449.25" y="-397.6" font-family="Times,serif" font-size="14.00">⊔</text>
</g>
<!-- 17 -->
<g id="node18" class="node">
<title>17</title>
<ellipse fill="none" stroke="black" cx="390" cy="-268.6" rx="42.88" ry="18"/>
<text text-anchor="start" x="367.06" y="-264.4" font-family="Times,serif" font-size="14.00">CLASH</text>
</g>
<!-- 16&#45;&gt;17 -->
<g id="edge18" class="edge">
<title>16&#45;&gt;17</title>
<path fill="none" stroke="red" d="M394.01,-339.25C393.31,-327.12 392.36,-310.62 391.56,-296.72"/>
<polygon fill="red" stroke="red" points="395.06,-296.5 390.99,-286.71 388.07,-296.9 395.06,-296.5"/>
</g>
<!-- 19 -->
<g id="node20" class="node">
<title>19</title>
<ellipse fill="none" stroke="black" cx="478" cy="-268.6" rx="27" ry="18"/>
<text text-anchor="start" x="471" y="-265.4" font-family="Times,serif" font-size="14.00">x</text>
<text text-anchor="start" x="478" y="-265.4" font-family="Times,serif" baseline-shift="sub" font-size="14.00">0</text>
<g id="a_node20_13"><a xlink:href="C:\Users\turco\OneDrive\Desktop\ProgettoIntelligentWeb\Progetto\graph\normal\19.txt" xlink:title="Clicca per visualizzare Lx" target="_blank">
<polygon fill="none" stroke="green" points="506,-223.6 506,-249.6 554,-249.6 554,-223.6 506,-223.6"/>
<text text-anchor="start" x="510.56" y="-232" font-family="Times,serif" font-size="14.00"> Label </text>
</a>
</g>
<polygon fill="none" stroke="green" points="505,-222.6 505,-250.6 555,-250.6 555,-222.6 505,-222.6"/>
</g>
<!-- 18&#45;&gt;19 -->
<g id="edge20" class="edge">
<title>18&#45;&gt;19</title>
<path fill="none" stroke="black" d="M478,-339.25C478,-327.12 478,-310.62 478,-296.72"/>
<polygon fill="black" stroke="black" points="481.5,-296.71 478,-286.71 474.5,-296.71 481.5,-296.71"/>
<text text-anchor="middle" x="483.25" y="-308.8" font-family="Times,serif" font-size="14.00">⊔</text>
</g>
<!-- 24 -->
<g id="node25" class="node">
<title>24</title>
<ellipse fill="none" stroke="black" cx="581" cy="-268.6" rx="27" ry="18"/>
<text text-anchor="start" x="574" y="-265.4" font-family="Times,serif" font-size="14.00">x</text>
<text text-anchor="start" x="581" y="-265.4" font-family="Times,serif" baseline-shift="sub" font-size="14.00">0</text>
<g id="a_node25_14"><a xlink:href="C:\Users\turco\OneDrive\Desktop\ProgettoIntelligentWeb\Progetto\graph\normal\24.txt" xlink:title="Clicca per visualizzare Lx" target="_blank">
<polygon fill="none" stroke="green" points="555,-287.6 555,-313.6 603,-313.6 603,-287.6 555,-287.6"/>
<text text-anchor="start" x="559.56" y="-296" font-family="Times,serif" font-size="14.00"> Label </text>
</a>
</g>
<polygon fill="none" stroke="green" points="554,-286.6 554,-314.6 604,-314.6 604,-286.6 554,-286.6"/>
</g>
<!-- 18&#45;&gt;24 -->
<g id="edge19" class="edge">
<title>18&#45;&gt;24</title>
<path fill="none" stroke="black" d="M494.09,-342.84C510.93,-328.65 537.54,-306.23 556.88,-289.92"/>
<polygon fill="black" stroke="black" points="559.29,-292.47 564.68,-283.35 554.78,-287.12 559.29,-292.47"/>
<text text-anchor="middle" x="544.25" y="-308.8" font-family="Times,serif" font-size="14.00">⊔</text>
</g>
<!-- 20 -->
<g id="node21" class="node">
<title>20</title>
<ellipse fill="none" stroke="black" cx="406" cy="-179.8" rx="27" ry="18"/>
<text text-anchor="start" x="399" y="-176.6" font-family="Times,serif" font-size="14.00">x</text>
<text text-anchor="start" x="406" y="-176.6" font-family="Times,serif" baseline-shift="sub" font-size="14.00">0</text>
<g id="a_node21_15"><a xlink:href="C:\Users\turco\OneDrive\Desktop\ProgettoIntelligentWeb\Progetto\graph\normal\20.txt" xlink:title="Clicca per visualizzare Lx" target="_blank">
<polygon fill="none" stroke="green" points="330,-198.8 330,-224.8 378,-224.8 378,-198.8 330,-198.8"/>
<text text-anchor="start" x="334.56" y="-207.2" font-family="Times,serif" font-size="14.00"> Label </text>
</a>
</g>
<polygon fill="none" stroke="green" points="329,-197.8 329,-225.8 379,-225.8 379,-197.8 329,-197.8"/>
</g>
<!-- 19&#45;&gt;20 -->
<g id="edge22" class="edge">
<title>19&#45;&gt;20</title>
<path fill="none" stroke="black" d="M465.46,-252.48C454.38,-239.12 438.04,-219.43 425.29,-204.06"/>
<polygon fill="black" stroke="black" points="427.72,-201.5 418.64,-196.04 422.33,-205.97 427.72,-201.5"/>
<text text-anchor="middle" x="454.25" y="-220" font-family="Times,serif" font-size="14.00">⊔</text>
</g>
<!-- 22 -->
<g id="node23" class="node">
<title>22</title>
<ellipse fill="none" stroke="black" cx="478" cy="-179.8" rx="27" ry="18"/>
<text text-anchor="start" x="471" y="-176.6" font-family="Times,serif" font-size="14.00">x</text>
<text text-anchor="start" x="478" y="-176.6" font-family="Times,serif" baseline-shift="sub" font-size="14.00">0</text>
<g id="a_node23_16"><a xlink:href="C:\Users\turco\OneDrive\Desktop\ProgettoIntelligentWeb\Progetto\graph\normal\22.txt" xlink:title="Clicca per visualizzare Lx" target="_blank">
<polygon fill="none" stroke="green" points="402,-134.8 402,-160.8 450,-160.8 450,-134.8 402,-134.8"/>
<text text-anchor="start" x="406.56" y="-143.2" font-family="Times,serif" font-size="14.00"> Label </text>
</a>
</g>
<polygon fill="none" stroke="green" points="401,-133.8 401,-161.8 451,-161.8 451,-133.8 401,-133.8"/>
</g>
<!-- 19&#45;&gt;22 -->
<g id="edge21" class="edge">
<title>19&#45;&gt;22</title>
<path fill="none" stroke="black" d="M478,-250.45C478,-238.32 478,-221.82 478,-207.92"/>
<polygon fill="black" stroke="black" points="481.5,-207.91 478,-197.91 474.5,-207.91 481.5,-207.91"/>
<text text-anchor="middle" x="483.25" y="-220" font-family="Times,serif" font-size="14.00">⊔</text>
</g>
<!-- 21 -->
<g id="node22" class="node">
<title>21</title>
<ellipse fill="none" stroke="black" cx="375" cy="-91" rx="42.88" ry="18"/>
<text text-anchor="start" x="352.06" y="-86.8" font-family="Times,serif" font-size="14.00">CLASH</text>
</g>
<!-- 20&#45;&gt;21 -->
<g id="edge23" class="edge">
<title>20&#45;&gt;21</title>
<path fill="none" stroke="red" d="M400.02,-162.06C395.63,-149.78 389.58,-132.83 384.53,-118.68"/>
<polygon fill="red" stroke="red" points="387.72,-117.22 381.06,-108.98 381.13,-119.58 387.72,-117.22"/>
</g>
<!-- 23 -->
<g id="node24" class="node">
<title>23</title>
<ellipse fill="none" stroke="black" cx="478" cy="-91" rx="42.88" ry="18"/>
<text text-anchor="start" x="455.06" y="-86.8" font-family="Times,serif" font-size="14.00">CLASH</text>
</g>
<!-- 22&#45;&gt;23 -->
<g id="edge24" class="edge">
<title>22&#45;&gt;23</title>
<path fill="none" stroke="red" d="M478,-161.65C478,-149.52 478,-133.02 478,-119.12"/>
<polygon fill="red" stroke="red" points="481.5,-119.11 478,-109.11 474.5,-119.11 481.5,-119.11"/>
</g>
<!-- 25 -->
<g id="node26" class="node">
<title>25</title>
<ellipse fill="none" stroke="black" cx="581" cy="-179.8" rx="27" ry="18"/>
<text text-anchor="start" x="574" y="-176.6" font-family="Times,serif" font-size="14.00">x</text>
<text text-anchor="start" x="581" y="-176.6" font-family="Times,serif" baseline-shift="sub" font-size="14.00">0</text>
<g id="a_node26_17"><a xlink:href="C:\Users\turco\OneDrive\Desktop\ProgettoIntelligentWeb\Progetto\graph\normal\25.txt" xlink:title="Clicca per visualizzare Lx" target="_blank">
<polygon fill="none" stroke="green" points="505,-134.8 505,-160.8 553,-160.8 553,-134.8 505,-134.8"/>
<text text-anchor="start" x="509.56" y="-143.2" font-family="Times,serif" font-size="14.00"> Label </text>
</a>
</g>
<polygon fill="none" stroke="green" points="504,-133.8 504,-161.8 554,-161.8 554,-133.8 504,-133.8"/>
</g>
<!-- 24&#45;&gt;25 -->
<g id="edge26" class="edge">
<title>24&#45;&gt;25</title>
<path fill="none" stroke="black" d="M581,-250.45C581,-238.32 581,-221.82 581,-207.92"/>
<polygon fill="black" stroke="black" points="584.5,-207.91 581,-197.91 577.5,-207.91 584.5,-207.91"/>
<text text-anchor="middle" x="586.25" y="-220" font-family="Times,serif" font-size="14.00">⊔</text>
</g>
<!-- 27 -->
<g id="node28" class="node">
<title>27</title>
<ellipse fill="none" stroke="black" cx="669" cy="-179.8" rx="27" ry="18"/>
<text text-anchor="start" x="662" y="-176.6" font-family="Times,serif" font-size="14.00">x</text>
<text text-anchor="start" x="669" y="-176.6" font-family="Times,serif" baseline-shift="sub" font-size="14.00">0</text>
<g id="a_node28_18"><a xlink:href="C:\Users\turco\OneDrive\Desktop\ProgettoIntelligentWeb\Progetto\graph\normal\27.txt" xlink:title="Clicca per visualizzare Lx" target="_blank">
<polygon fill="none" stroke="green" points="593,-134.8 593,-160.8 641,-160.8 641,-134.8 593,-134.8"/>
<text text-anchor="start" x="597.56" y="-143.2" font-family="Times,serif" font-size="14.00"> Label </text>
</a>
</g>
<polygon fill="none" stroke="green" points="592,-133.8 592,-161.8 642,-161.8 642,-133.8 592,-133.8"/>
</g>
<!-- 24&#45;&gt;27 -->
<g id="edge25" class="edge">
<title>24&#45;&gt;27</title>
<path fill="none" stroke="black" d="M595.53,-253.27C609.54,-239.45 630.93,-218.35 647.03,-202.47"/>
<polygon fill="black" stroke="black" points="649.79,-204.67 654.45,-195.15 644.87,-199.69 649.79,-204.67"/>
<text text-anchor="middle" x="638.25" y="-220" font-family="Times,serif" font-size="14.00">⊔</text>
</g>
<!-- 26 -->
<g id="node27" class="node">
<title>26</title>
<ellipse fill="none" stroke="black" cx="581" cy="-91" rx="42.88" ry="18"/>
<text text-anchor="start" x="558.06" y="-86.8" font-family="Times,serif" font-size="14.00">CLASH</text>
</g>
<!-- 25&#45;&gt;26 -->
<g id="edge27" class="edge">
<title>25&#45;&gt;26</title>
<path fill="none" stroke="red" d="M581,-161.65C581,-149.52 581,-133.02 581,-119.12"/>
<polygon fill="red" stroke="red" points="584.5,-119.11 581,-109.11 577.5,-119.11 584.5,-119.11"/>
</g>
<!-- 28 -->
<g id="node29" class="node">
<title>28</title>
<ellipse fill="none" stroke="black" cx="669" cy="-91" rx="27" ry="18"/>
<text text-anchor="start" x="662" y="-87.8" font-family="Times,serif" font-size="14.00">x</text>
<text text-anchor="start" x="669" y="-87.8" font-family="Times,serif" baseline-shift="sub" font-size="14.00">0</text>
<g id="a_node29_19"><a xlink:href="C:\Users\turco\OneDrive\Desktop\ProgettoIntelligentWeb\Progetto\graph\normal\28.txt" xlink:title="Clicca per visualizzare Lx" target="_blank">
<polygon fill="none" stroke="green" points="593,-46 593,-72 641,-72 641,-46 593,-46"/>
<text text-anchor="start" x="597.56" y="-54.4" font-family="Times,serif" font-size="14.00"> Label </text>
</a>
</g>
<polygon fill="none" stroke="green" points="592,-45 592,-73 642,-73 642,-45 592,-45"/>
</g>
<!-- 27&#45;&gt;28 -->
<g id="edge29" class="edge">
<title>27&#45;&gt;28</title>
<path fill="none" stroke="black" d="M669,-161.65C669,-149.52 669,-133.02 669,-119.12"/>
<polygon fill="black" stroke="black" points="672.5,-119.11 669,-109.11 665.5,-119.11 672.5,-119.11"/>
<text text-anchor="middle" x="674.25" y="-131.2" font-family="Times,serif" font-size="14.00">⊔</text>
</g>
<!-- 30 -->
<g id="node31" class="node">
<title>30</title>
<ellipse fill="none" stroke="black" cx="763" cy="-91" rx="27" ry="18"/>
<text text-anchor="start" x="756" y="-87.8" font-family="Times,serif" font-size="14.00">x</text>
<text text-anchor="start" x="763" y="-87.8" font-family="Times,serif" baseline-shift="sub" font-size="14.00">0</text>
<g id="a_node31_20"><a xlink:href="C:\Users\turco\OneDrive\Desktop\ProgettoIntelligentWeb\Progetto\graph\normal\30.txt" xlink:title="Clicca per visualizzare Lx" target="_blank">
<polygon fill="none" stroke="green" points="687,-46 687,-72 735,-72 735,-46 687,-46"/>
<text text-anchor="start" x="691.56" y="-54.4" font-family="Times,serif" font-size="14.00"> Label </text>
</a>
</g>
<polygon fill="none" stroke="green" points="686,-45 686,-73 736,-73 736,-45 686,-45"/>
</g>
<!-- 27&#45;&gt;30 -->
<g id="edge28" class="edge">
<title>27&#45;&gt;30</title>
<path fill="none" stroke="black" d="M684.1,-164.85C699.22,-150.89 722.69,-129.23 740.1,-113.15"/>
<polygon fill="black" stroke="black" points="742.65,-115.56 747.62,-106.2 737.9,-110.41 742.65,-115.56"/>
<text text-anchor="middle" x="730.25" y="-131.2" font-family="Times,serif" font-size="14.00">⊔</text>
</g>
<!-- 29 -->
<g id="node30" class="node">
<title>29</title>
<ellipse fill="none" stroke="black" cx="657" cy="-18" rx="42.88" ry="18"/>
<text text-anchor="start" x="634.06" y="-13.8" font-family="Times,serif" font-size="14.00">CLASH</text>
</g>
<!-- 28&#45;&gt;29 -->
<g id="edge30" class="edge">
<title>28&#45;&gt;29</title>
<path fill="none" stroke="red" d="M666.1,-72.81C664.74,-64.79 663.09,-55.05 661.58,-46.07"/>
<polygon fill="red" stroke="red" points="665,-45.31 659.88,-36.03 658.09,-46.47 665,-45.31"/>
</g>
<!-- 31 -->
<g id="node32" class="node">
<title>31</title>
<ellipse fill="none" stroke="black" cx="787" cy="-18" rx="69.52" ry="18"/>
<text text-anchor="start" x="744.62" y="-13.8" font-family="Times,serif" font-size="14.00">CLASH&#45;FREE</text>
</g>
<!-- 30&#45;&gt;31 -->
<g id="edge31" class="edge">
<title>30&#45;&gt;31</title>
<path fill="none" stroke="green" d="M768.69,-73.17C771.46,-64.98 774.85,-54.94 777.96,-45.73"/>
<polygon fill="green" stroke="green" points="781.3,-46.79 781.19,-36.2 774.67,-44.55 781.3,-46.79"/>
</g>
</g>
</svg>
