<svg width="317px" height="968px"
 viewBox="0.00 0.00 317.00 968.00" xmlns="http://www.w3.org/2000/svg" xmlns:xlink="http://www.w3.org/1999/xlink">
<g id="graph0" class="graph" transform="scale(1.0 1.0) rotate(0.0) translate(4.0 964.0)">
<title>tableaux</title>
<polygon fill="white" stroke="transparent" points="-4,4 -4,-964 313,-964 313,4 -4,4"/>
<!-- 0 -->
<g id="node1" class="node">
<title>0</title>
<ellipse fill="none" stroke="black" cx="113" cy="-915" rx="27" ry="18"/>
<text text-anchor="start" x="106" y="-912.3" font-family="Times New Roman,serif" font-size="14.00">x</text>
<text text-anchor="start" x="113" y="-912.3" font-family="Times New Roman,serif" baseline-shift="sub" font-size="14.00">0</text>
<g id="a_node1_0"><a xlink:href="C:\Users\Mario\Desktop\ProgettoIntelligentWeb\Progetto\graph\normal\0.txt" xlink:title="Clicca per visualizzare Lx" target="_blank">
<polygon fill="none" stroke="green" points="36.5,-933.5 36.5,-958.5 85.5,-958.5 85.5,-933.5 36.5,-933.5"/>
<text text-anchor="start" x="41.5" y="-942.3" font-family="Times New Roman,serif" font-size="14.00"> Label </text>
</a>
</g>
<polygon fill="none" stroke="green" points="35,-933 35,-960 86,-960 86,-933 35,-933"/>
</g>
<!-- 1 -->
<g id="node2" class="node">
<title>1</title>
<ellipse fill="none" stroke="black" cx="113" cy="-828" rx="27" ry="18"/>
<text text-anchor="start" x="106" y="-825.3" font-family="Times New Roman,serif" font-size="14.00">x</text>
<text text-anchor="start" x="113" y="-825.3" font-family="Times New Roman,serif" baseline-shift="sub" font-size="14.00">0</text>
<g id="a_node2_1"><a xlink:href="C:\Users\Mario\Desktop\ProgettoIntelligentWeb\Progetto\graph\normal\1.txt" xlink:title="Clicca per visualizzare Lx" target="_blank">
<polygon fill="none" stroke="green" points="36.5,-846.5 36.5,-871.5 85.5,-871.5 85.5,-846.5 36.5,-846.5"/>
<text text-anchor="start" x="41.5" y="-855.3" font-family="Times New Roman,serif" font-size="14.00"> Label </text>
</a>
</g>
<polygon fill="none" stroke="green" points="35,-846 35,-873 86,-873 86,-846 35,-846"/>
</g>
<!-- 0&#45;&gt;1 -->
<g id="edge1" class="edge">
<title>0&#45;&gt;1</title>
<path fill="none" stroke="black" d="M113,-896.8C113,-885.16 113,-869.55 113,-856.24"/>
<polygon fill="black" stroke="black" points="116.5,-856.18 113,-846.18 109.5,-856.18 116.5,-856.18"/>
<text text-anchor="middle" x="130" y="-867.8" font-family="Times New Roman,serif" font-size="14.00">Union</text>
</g>
<!-- 2 -->
<g id="node3" class="node">
<title>2</title>
<ellipse fill="none" stroke="black" cx="113" cy="-741" rx="27" ry="18"/>
<text text-anchor="start" x="106" y="-738.3" font-family="Times New Roman,serif" font-size="14.00">x</text>
<text text-anchor="start" x="113" y="-738.3" font-family="Times New Roman,serif" baseline-shift="sub" font-size="14.00">0</text>
<g id="a_node3_2"><a xlink:href="C:\Users\Mario\Desktop\ProgettoIntelligentWeb\Progetto\graph\normal\2.txt" xlink:title="Clicca per visualizzare Lx" target="_blank">
<polygon fill="none" stroke="green" points="36.5,-759.5 36.5,-784.5 85.5,-784.5 85.5,-759.5 36.5,-759.5"/>
<text text-anchor="start" x="41.5" y="-768.3" font-family="Times New Roman,serif" font-size="14.00"> Label </text>
</a>
</g>
<polygon fill="none" stroke="green" points="35,-759 35,-786 86,-786 86,-759 35,-759"/>
</g>
<!-- 1&#45;&gt;2 -->
<g id="edge2" class="edge">
<title>1&#45;&gt;2</title>
<path fill="none" stroke="black" d="M113,-809.8C113,-798.16 113,-782.55 113,-769.24"/>
<polygon fill="black" stroke="black" points="116.5,-769.18 113,-759.18 109.5,-769.18 116.5,-769.18"/>
<text text-anchor="middle" x="130" y="-780.8" font-family="Times New Roman,serif" font-size="14.00">Union</text>
</g>
<!-- 3 -->
<g id="node4" class="node">
<title>3</title>
<ellipse fill="none" stroke="black" cx="78" cy="-654" rx="27" ry="18"/>
<text text-anchor="start" x="71" y="-651.3" font-family="Times New Roman,serif" font-size="14.00">x</text>
<text text-anchor="start" x="78" y="-651.3" font-family="Times New Roman,serif" baseline-shift="sub" font-size="14.00">0</text>
<g id="a_node4_3"><a xlink:href="C:\Users\Mario\Desktop\ProgettoIntelligentWeb\Progetto\graph\normal\3.txt" xlink:title="Clicca per visualizzare Lx" target="_blank">
<polygon fill="none" stroke="green" points="1.5,-672.5 1.5,-697.5 50.5,-697.5 50.5,-672.5 1.5,-672.5"/>
<text text-anchor="start" x="6.5" y="-681.3" font-family="Times New Roman,serif" font-size="14.00"> Label </text>
</a>
</g>
<polygon fill="none" stroke="green" points="0,-672 0,-699 51,-699 51,-672 0,-672"/>
</g>
<!-- 2&#45;&gt;3 -->
<g id="edge4" class="edge">
<title>2&#45;&gt;3</title>
<path fill="none" stroke="black" d="M101.24,-724.63C97.2,-718.75 92.95,-711.81 90,-705 86.88,-697.79 84.49,-689.63 82.69,-682.02"/>
<polygon fill="black" stroke="black" points="86.09,-681.19 80.6,-672.14 79.24,-682.64 86.09,-681.19"/>
<text text-anchor="middle" x="107" y="-693.8" font-family="Times New Roman,serif" font-size="14.00">Union</text>
</g>
<!-- 5 -->
<g id="node6" class="node">
<title>5</title>
<ellipse fill="none" stroke="black" cx="153" cy="-654" rx="27" ry="18"/>
<text text-anchor="start" x="146" y="-651.3" font-family="Times New Roman,serif" font-size="14.00">x</text>
<text text-anchor="start" x="153" y="-651.3" font-family="Times New Roman,serif" baseline-shift="sub" font-size="14.00">0</text>
<g id="a_node6_4"><a xlink:href="C:\Users\Mario\Desktop\ProgettoIntelligentWeb\Progetto\graph\normal\5.txt" xlink:title="Clicca per visualizzare Lx" target="_blank">
<polygon fill="none" stroke="green" points="76.5,-609.5 76.5,-634.5 125.5,-634.5 125.5,-609.5 76.5,-609.5"/>
<text text-anchor="start" x="81.5" y="-618.3" font-family="Times New Roman,serif" font-size="14.00"> Label </text>
</a>
</g>
<polygon fill="none" stroke="green" points="75,-609 75,-636 126,-636 126,-609 75,-609"/>
</g>
<!-- 2&#45;&gt;5 -->
<g id="edge3" class="edge">
<title>2&#45;&gt;5</title>
<path fill="none" stroke="black" d="M120.71,-723.61C126.47,-711.38 134.44,-694.44 141.02,-680.46"/>
<polygon fill="black" stroke="black" points="144.22,-681.88 145.31,-671.34 137.89,-678.9 144.22,-681.88"/>
<text text-anchor="middle" x="153" y="-693.8" font-family="Times New Roman,serif" font-size="14.00">Union</text>
</g>
<!-- 4 -->
<g id="node5" class="node">
<title>4</title>
<ellipse fill="none" stroke="black" cx="72" cy="-567" rx="40.09" ry="18"/>
<text text-anchor="start" x="49" y="-563.3" font-family="Times New Roman,serif" font-size="14.00">CLASH</text>
</g>
<!-- 3&#45;&gt;4 -->
<g id="edge5" class="edge">
<title>3&#45;&gt;4</title>
<path fill="none" stroke="red" d="M76.79,-635.8C75.96,-624.16 74.86,-608.55 73.92,-595.24"/>
<polygon fill="red" stroke="red" points="77.41,-594.9 73.21,-585.18 70.43,-595.4 77.41,-594.9"/>
</g>
<!-- 6 -->
<g id="node7" class="node">
<title>6</title>
<ellipse fill="none" stroke="black" cx="157" cy="-567" rx="27" ry="18"/>
<text text-anchor="start" x="150" y="-564.3" font-family="Times New Roman,serif" font-size="14.00">x</text>
<text text-anchor="start" x="157" y="-564.3" font-family="Times New Roman,serif" baseline-shift="sub" font-size="14.00">0</text>
<g id="a_node7_5"><a xlink:href="C:\Users\Mario\Desktop\ProgettoIntelligentWeb\Progetto\graph\normal\6.txt" xlink:title="Clicca per visualizzare Lx" target="_blank">
<polygon fill="none" stroke="green" points="80.5,-522.5 80.5,-547.5 129.5,-547.5 129.5,-522.5 80.5,-522.5"/>
<text text-anchor="start" x="85.5" y="-531.3" font-family="Times New Roman,serif" font-size="14.00"> Label </text>
</a>
</g>
<polygon fill="none" stroke="green" points="79,-522 79,-549 130,-549 130,-522 79,-522"/>
</g>
<!-- 5&#45;&gt;6 -->
<g id="edge6" class="edge">
<title>5&#45;&gt;6</title>
<path fill="none" stroke="black" d="M153.81,-635.8C154.36,-624.16 155.09,-608.55 155.72,-595.24"/>
<polygon fill="black" stroke="black" points="159.22,-595.33 156.19,-585.18 152.23,-595 159.22,-595.33"/>
<text text-anchor="middle" x="173" y="-606.8" font-family="Times New Roman,serif" font-size="14.00">Union</text>
</g>
<!-- 7 -->
<g id="node8" class="node">
<title>7</title>
<ellipse fill="none" stroke="black" cx="157" cy="-480" rx="27" ry="18"/>
<text text-anchor="start" x="147" y="-477.3" font-family="Times New Roman,serif" font-size="14.00">x</text>
<text text-anchor="start" x="154" y="-477.3" font-family="Times New Roman,serif" baseline-shift="sub" font-size="14.00">01</text>
<g id="a_node8_6"><a xlink:href="C:\Users\Mario\Desktop\ProgettoIntelligentWeb\Progetto\graph\normal\7.txt" xlink:title="Clicca per visualizzare Lx" target="_blank">
<polygon fill="none" stroke="green" points="80.5,-462.5 80.5,-487.5 129.5,-487.5 129.5,-462.5 80.5,-462.5"/>
<text text-anchor="start" x="85.5" y="-471.3" font-family="Times New Roman,serif" font-size="14.00"> Label </text>
</a>
</g>
<polygon fill="none" stroke="green" points="79,-462 79,-489 130,-489 130,-462 79,-462"/>
</g>
<!-- 6&#45;&gt;7 -->
<g id="edge7" class="edge">
<title>6&#45;&gt;7</title>
<path fill="none" stroke="black" d="M157,-548.8C157,-537.16 157,-521.55 157,-508.24"/>
<polygon fill="black" stroke="black" points="160.5,-508.18 157,-498.18 153.5,-508.18 160.5,-508.18"/>
<text text-anchor="middle" x="162" y="-519.8" font-family="Times New Roman,serif" font-size="14.00">R</text>
</g>
<!-- 8 -->
<g id="node9" class="node">
<title>8</title>
<ellipse fill="none" stroke="black" cx="157" cy="-393" rx="27" ry="18"/>
<text text-anchor="start" x="147" y="-390.3" font-family="Times New Roman,serif" font-size="14.00">x</text>
<text text-anchor="start" x="154" y="-390.3" font-family="Times New Roman,serif" baseline-shift="sub" font-size="14.00">01</text>
<g id="a_node9_7"><a xlink:href="C:\Users\Mario\Desktop\ProgettoIntelligentWeb\Progetto\graph\normal\8.txt" xlink:title="Clicca per visualizzare Lx" target="_blank">
<polygon fill="none" stroke="green" points="80.5,-411.5 80.5,-436.5 129.5,-436.5 129.5,-411.5 80.5,-411.5"/>
<text text-anchor="start" x="85.5" y="-420.3" font-family="Times New Roman,serif" font-size="14.00"> Label </text>
</a>
</g>
<polygon fill="none" stroke="green" points="79,-411 79,-438 130,-438 130,-411 79,-411"/>
</g>
<!-- 7&#45;&gt;8 -->
<g id="edge8" class="edge">
<title>7&#45;&gt;8</title>
<path fill="none" stroke="black" d="M157,-461.8C157,-450.16 157,-434.55 157,-421.24"/>
<polygon fill="black" stroke="black" points="160.5,-421.18 157,-411.18 153.5,-421.18 160.5,-421.18"/>
<text text-anchor="middle" x="174" y="-432.8" font-family="Times New Roman,serif" font-size="14.00">Union</text>
</g>
<!-- 9 -->
<g id="node10" class="node">
<title>9</title>
<ellipse fill="none" stroke="black" cx="157" cy="-306" rx="27" ry="18"/>
<text text-anchor="start" x="147" y="-303.3" font-family="Times New Roman,serif" font-size="14.00">x</text>
<text text-anchor="start" x="154" y="-303.3" font-family="Times New Roman,serif" baseline-shift="sub" font-size="14.00">01</text>
<g id="a_node10_8"><a xlink:href="C:\Users\Mario\Desktop\ProgettoIntelligentWeb\Progetto\graph\normal\9.txt" xlink:title="Clicca per visualizzare Lx" target="_blank">
<polygon fill="none" stroke="green" points="80.5,-324.5 80.5,-349.5 129.5,-349.5 129.5,-324.5 80.5,-324.5"/>
<text text-anchor="start" x="85.5" y="-333.3" font-family="Times New Roman,serif" font-size="14.00"> Label </text>
</a>
</g>
<polygon fill="none" stroke="green" points="79,-324 79,-351 130,-351 130,-324 79,-324"/>
</g>
<!-- 8&#45;&gt;9 -->
<g id="edge9" class="edge">
<title>8&#45;&gt;9</title>
<path fill="none" stroke="black" d="M157,-374.8C157,-363.16 157,-347.55 157,-334.24"/>
<polygon fill="black" stroke="black" points="160.5,-334.18 157,-324.18 153.5,-334.18 160.5,-334.18"/>
<text text-anchor="middle" x="174" y="-345.8" font-family="Times New Roman,serif" font-size="14.00">Union</text>
</g>
<!-- 10 -->
<g id="node11" class="node">
<title>10</title>
<ellipse fill="none" stroke="black" cx="122" cy="-219" rx="27" ry="18"/>
<text text-anchor="start" x="112" y="-216.3" font-family="Times New Roman,serif" font-size="14.00">x</text>
<text text-anchor="start" x="119" y="-216.3" font-family="Times New Roman,serif" baseline-shift="sub" font-size="14.00">01</text>
<g id="a_node11_9"><a xlink:href="C:\Users\Mario\Desktop\ProgettoIntelligentWeb\Progetto\graph\normal\10.txt" xlink:title="Clicca per visualizzare Lx" target="_blank">
<polygon fill="none" stroke="green" points="45.5,-237.5 45.5,-262.5 94.5,-262.5 94.5,-237.5 45.5,-237.5"/>
<text text-anchor="start" x="50.5" y="-246.3" font-family="Times New Roman,serif" font-size="14.00"> Label </text>
</a>
</g>
<polygon fill="none" stroke="green" points="44,-237 44,-264 95,-264 95,-237 44,-237"/>
</g>
<!-- 9&#45;&gt;10 -->
<g id="edge11" class="edge">
<title>9&#45;&gt;10</title>
<path fill="none" stroke="black" d="M145.24,-289.63C141.2,-283.75 136.95,-276.81 134,-270 130.88,-262.79 128.49,-254.63 126.69,-247.02"/>
<polygon fill="black" stroke="black" points="130.09,-246.19 124.6,-237.14 123.24,-247.64 130.09,-246.19"/>
<text text-anchor="middle" x="151" y="-258.8" font-family="Times New Roman,serif" font-size="14.00">Union</text>
</g>
<!-- 12 -->
<g id="node13" class="node">
<title>12</title>
<ellipse fill="none" stroke="black" cx="200" cy="-219" rx="27" ry="18"/>
<text text-anchor="start" x="190" y="-216.3" font-family="Times New Roman,serif" font-size="14.00">x</text>
<text text-anchor="start" x="197" y="-216.3" font-family="Times New Roman,serif" baseline-shift="sub" font-size="14.00">01</text>
<g id="a_node13_10"><a xlink:href="C:\Users\Mario\Desktop\ProgettoIntelligentWeb\Progetto\graph\normal\12.txt" xlink:title="Clicca per visualizzare Lx" target="_blank">
<polygon fill="none" stroke="green" points="123.5,-174.5 123.5,-199.5 172.5,-199.5 172.5,-174.5 123.5,-174.5"/>
<text text-anchor="start" x="128.5" y="-183.3" font-family="Times New Roman,serif" font-size="14.00"> Label </text>
</a>
</g>
<polygon fill="none" stroke="green" points="122,-174 122,-201 173,-201 173,-174 122,-174"/>
</g>
<!-- 9&#45;&gt;12 -->
<g id="edge10" class="edge">
<title>9&#45;&gt;12</title>
<path fill="none" stroke="black" d="M165.29,-288.61C171.48,-276.38 180.05,-259.44 187.12,-245.46"/>
<polygon fill="black" stroke="black" points="190.34,-246.84 191.73,-236.34 184.1,-243.68 190.34,-246.84"/>
<text text-anchor="middle" x="198" y="-258.8" font-family="Times New Roman,serif" font-size="14.00">Union</text>
</g>
<!-- 11 -->
<g id="node12" class="node">
<title>11</title>
<ellipse fill="none" stroke="black" cx="115" cy="-132" rx="40.09" ry="18"/>
<text text-anchor="start" x="92" y="-128.3" font-family="Times New Roman,serif" font-size="14.00">CLASH</text>
</g>
<!-- 10&#45;&gt;11 -->
<g id="edge12" class="edge">
<title>10&#45;&gt;11</title>
<path fill="none" stroke="red" d="M120.58,-200.8C119.63,-189.16 118.34,-173.55 117.24,-160.24"/>
<polygon fill="red" stroke="red" points="120.72,-159.85 116.41,-150.18 113.75,-160.43 120.72,-159.85"/>
</g>
<!-- 13 -->
<g id="node14" class="node">
<title>13</title>
<ellipse fill="none" stroke="black" cx="200" cy="-132" rx="27" ry="18"/>
<text text-anchor="start" x="190" y="-129.3" font-family="Times New Roman,serif" font-size="14.00">x</text>
<text text-anchor="start" x="197" y="-129.3" font-family="Times New Roman,serif" baseline-shift="sub" font-size="14.00">01</text>
<g id="a_node14_11"><a xlink:href="C:\Users\Mario\Desktop\ProgettoIntelligentWeb\Progetto\graph\normal\13.txt" xlink:title="Clicca per visualizzare Lx" target="_blank">
<polygon fill="none" stroke="green" points="123.5,-87.5 123.5,-112.5 172.5,-112.5 172.5,-87.5 123.5,-87.5"/>
<text text-anchor="start" x="128.5" y="-96.3" font-family="Times New Roman,serif" font-size="14.00"> Label </text>
</a>
</g>
<polygon fill="none" stroke="green" points="122,-87 122,-114 173,-114 173,-87 122,-87"/>
</g>
<!-- 12&#45;&gt;13 -->
<g id="edge14" class="edge">
<title>12&#45;&gt;13</title>
<path fill="none" stroke="black" d="M200,-200.8C200,-189.16 200,-173.55 200,-160.24"/>
<polygon fill="black" stroke="black" points="203.5,-160.18 200,-150.18 196.5,-160.18 203.5,-160.18"/>
<text text-anchor="middle" x="217" y="-171.8" font-family="Times New Roman,serif" font-size="14.00">Union</text>
</g>
<!-- 15 -->
<g id="node16" class="node">
<title>15</title>
<ellipse fill="none" stroke="black" cx="278" cy="-132" rx="27" ry="18"/>
<text text-anchor="start" x="268" y="-129.3" font-family="Times New Roman,serif" font-size="14.00">x</text>
<text text-anchor="start" x="275" y="-129.3" font-family="Times New Roman,serif" baseline-shift="sub" font-size="14.00">01</text>
<g id="a_node16_12"><a xlink:href="C:\Users\Mario\Desktop\ProgettoIntelligentWeb\Progetto\graph\normal\15.txt" xlink:title="Clicca per visualizzare Lx" target="_blank">
<polygon fill="none" stroke="green" points="201.5,-87.5 201.5,-112.5 250.5,-112.5 250.5,-87.5 201.5,-87.5"/>
<text text-anchor="start" x="206.5" y="-96.3" font-family="Times New Roman,serif" font-size="14.00"> Label </text>
</a>
</g>
<polygon fill="none" stroke="green" points="200,-87 200,-114 251,-114 251,-87 200,-87"/>
</g>
<!-- 12&#45;&gt;15 -->
<g id="edge13" class="edge">
<title>12&#45;&gt;15</title>
<path fill="none" stroke="black" d="M216.04,-204.21C223.02,-197.96 231.15,-190.35 238,-183 245.73,-174.71 253.66,-165.09 260.39,-156.51"/>
<polygon fill="black" stroke="black" points="263.33,-158.43 266.67,-148.37 257.79,-154.15 263.33,-158.43"/>
<text text-anchor="middle" x="267" y="-171.8" font-family="Times New Roman,serif" font-size="14.00">Union</text>
</g>
<!-- 14 -->
<g id="node15" class="node">
<title>14</title>
<ellipse fill="none" stroke="black" cx="197" cy="-45" rx="40.09" ry="18"/>
<text text-anchor="start" x="174" y="-41.3" font-family="Times New Roman,serif" font-size="14.00">CLASH</text>
</g>
<!-- 13&#45;&gt;14 -->
<g id="edge15" class="edge">
<title>13&#45;&gt;14</title>
<path fill="none" stroke="red" d="M199.39,-113.8C198.98,-102.16 198.43,-86.55 197.96,-73.24"/>
<polygon fill="red" stroke="red" points="201.46,-73.05 197.61,-63.18 194.46,-73.29 201.46,-73.05"/>
</g>
<!-- 16 -->
<g id="node17" class="node">
<title>16</title>
<ellipse fill="none" stroke="black" cx="282" cy="-45" rx="27" ry="18"/>
<text text-anchor="start" x="272" y="-42.3" font-family="Times New Roman,serif" font-size="14.00">x</text>
<text text-anchor="start" x="279" y="-42.3" font-family="Times New Roman,serif" baseline-shift="sub" font-size="14.00">01</text>
<g id="a_node17_13"><a xlink:href="C:\Users\Mario\Desktop\ProgettoIntelligentWeb\Progetto\graph\normal\16.txt" xlink:title="Clicca per visualizzare Lx" target="_blank">
<polygon fill="none" stroke="green" points="205.5,-0.5 205.5,-25.5 254.5,-25.5 254.5,-0.5 205.5,-0.5"/>
<text text-anchor="start" x="210.5" y="-9.3" font-family="Times New Roman,serif" font-size="14.00"> Label </text>
</a>
</g>
<polygon fill="none" stroke="green" points="204,0 204,-27 255,-27 255,0 204,0"/>
</g>
<!-- 15&#45;&gt;16 -->
<g id="edge16" class="edge">
<title>15&#45;&gt;16</title>
<path fill="none" stroke="black" d="M278.81,-113.8C279.36,-102.16 280.09,-86.55 280.72,-73.24"/>
<polygon fill="black" stroke="black" points="284.22,-73.33 281.19,-63.18 277.23,-73 284.22,-73.33"/>
<text text-anchor="middle" x="285" y="-84.8" font-family="Times New Roman,serif" font-size="14.00">R</text>
</g>
</g>
</svg>
