<svg width="1216px" height="521px"
 viewBox="0.00 0.00 1216.00 521.00" xmlns="http://www.w3.org/2000/svg" xmlns:xlink="http://www.w3.org/1999/xlink">
<g id="graph0" class="graph" transform="scale(1.0 1.0) rotate(0.0) translate(4.0 517.0)">
<title>tableaux</title>
<polygon fill="white" stroke="transparent" points="-4,4 -4,-517 1212,-517 1212,4 -4,4"/>
<!-- 0 -->
<g id="node1" class="node">
<title>0</title>
<ellipse fill="none" stroke="black" cx="596" cy="-446.2" rx="27" ry="18"/>
<text text-anchor="middle" x="596" y="-442" font-family="Times,serif" font-size="14.00">x0</text>
<text text-anchor="middle" x="383.18" y="-468.4" font-family="Times,serif" font-size="14.00">(B ⊔ ¬A ); ((A ⊔ ¬B )⊓ (B ⊔ ¬A )); ∃R.(A ⊓ ¬B ); (A ⊔ ¬B ); </text>
</g>
<!-- 1 -->
<g id="node2" class="node">
<title>1</title>
<ellipse fill="none" stroke="black" cx="545" cy="-357.4" rx="27" ry="18"/>
<text text-anchor="middle" x="545" y="-353.2" font-family="Times,serif" font-size="14.00">x0</text>
<polygon fill="none" stroke="black" points="118.5,-378.4 118.5,-400.4 515.5,-400.4 515.5,-378.4 118.5,-378.4"/>
<text text-anchor="start" x="121.06" y="-384.8" font-family="Times,serif" font-size="14.00">(B ⊔ ¬A ); ((A ⊔ ¬B )⊓ (B ⊔ ¬A )); B ; ∃R.(A ⊓ ¬B ); (A ⊔ ¬B ); </text>
<polygon fill="none" stroke="black" points="115,-375.4 115,-403.4 518,-403.4 518,-375.4 115,-375.4"/>
</g>
<!-- 0&#45;&gt;1 -->
<g id="edge2" class="edge">
<title>0&#45;&gt;1</title>
<path fill="none" stroke="black" d="M586.65,-429.28C579.07,-416.39 568.27,-398.01 559.57,-383.2"/>
<polygon fill="black" stroke="black" points="562.55,-381.36 554.47,-374.51 556.52,-384.91 562.55,-381.36"/>
<text text-anchor="middle" x="593.5" y="-397.6" font-family="Times,serif" font-size="14.00">Union</text>
</g>
<!-- 10 -->
<g id="node11" class="node">
<title>10</title>
<ellipse fill="none" stroke="black" cx="648" cy="-357.4" rx="27" ry="18"/>
<text text-anchor="middle" x="648" y="-353.2" font-family="Times,serif" font-size="14.00">x0</text>
<polygon fill="none" stroke="black" points="678.5,-378.4 678.5,-400.4 1085.5,-400.4 1085.5,-378.4 678.5,-378.4"/>
<text text-anchor="start" x="681.02" y="-384.8" font-family="Times,serif" font-size="14.00">(B ⊔ ¬A ); ((A ⊔ ¬B )⊓ (B ⊔ ¬A )); ∃R.(A ⊓ ¬B ); ¬A ; (A ⊔ ¬B ); </text>
<polygon fill="none" stroke="black" points="675,-375.4 675,-403.4 1088,-403.4 1088,-375.4 675,-375.4"/>
</g>
<!-- 0&#45;&gt;10 -->
<g id="edge1" class="edge">
<title>0&#45;&gt;10</title>
<path fill="none" stroke="black" d="M605.54,-429.28C613.26,-416.39 624.27,-398.01 633.15,-383.2"/>
<polygon fill="black" stroke="black" points="636.21,-384.89 638.35,-374.51 630.21,-381.29 636.21,-384.89"/>
<text text-anchor="middle" x="644.5" y="-397.6" font-family="Times,serif" font-size="14.00">Union</text>
</g>
<!-- 2 -->
<g id="node3" class="node">
<title>2</title>
<ellipse fill="none" stroke="black" cx="465" cy="-268.6" rx="27" ry="18"/>
<text text-anchor="middle" x="465" y="-264.4" font-family="Times,serif" font-size="14.00">x0</text>
<polygon fill="none" stroke="black" points="8.5,-289.6 8.5,-311.6 435.5,-311.6 435.5,-289.6 8.5,-289.6"/>
<text text-anchor="start" x="11.29" y="-296" font-family="Times,serif" font-size="14.00">(B ⊔ ¬A ); ((A ⊔ ¬B )⊓ (B ⊔ ¬A )); B ; ∃R.(A ⊓ ¬B ); ¬B ; (A ⊔ ¬B ); </text>
<polygon fill="none" stroke="black" points="5,-286.6 5,-314.6 438,-314.6 438,-286.6 5,-286.6"/>
</g>
<!-- 1&#45;&gt;2 -->
<g id="edge4" class="edge">
<title>1&#45;&gt;2</title>
<path fill="none" stroke="black" d="M528.49,-342.68C521.32,-336.45 512.98,-328.82 506,-321.4 497.79,-312.66 489.44,-302.42 482.44,-293.36"/>
<polygon fill="black" stroke="black" points="485.03,-290.97 476.19,-285.12 479.45,-295.2 485.03,-290.97"/>
<text text-anchor="middle" x="524.5" y="-308.8" font-family="Times,serif" font-size="14.00">Union</text>
</g>
<!-- 4 -->
<g id="node5" class="node">
<title>4</title>
<ellipse fill="none" stroke="black" cx="545" cy="-268.6" rx="27" ry="18"/>
<text text-anchor="middle" x="545" y="-264.4" font-family="Times,serif" font-size="14.00">x0</text>
<polygon fill="none" stroke="black" points="97,-225.6 97,-247.6 515,-247.6 515,-225.6 97,-225.6"/>
<text text-anchor="start" x="99.56" y="-232" font-family="Times,serif" font-size="14.00">(B ⊔ ¬A ); ((A ⊔ ¬B )⊓ (B ⊔ ¬A )); A ; B ; ∃R.(A ⊓ ¬B ); (A ⊔ ¬B ); </text>
<polygon fill="none" stroke="black" points="94,-222.6 94,-250.6 518,-250.6 518,-222.6 94,-222.6"/>
</g>
<!-- 1&#45;&gt;4 -->
<g id="edge3" class="edge">
<title>1&#45;&gt;4</title>
<path fill="none" stroke="black" d="M545,-339.25C545,-327.12 545,-310.62 545,-296.72"/>
<polygon fill="black" stroke="black" points="548.5,-296.71 545,-286.71 541.5,-296.71 548.5,-296.71"/>
<text text-anchor="middle" x="562.5" y="-308.8" font-family="Times,serif" font-size="14.00">Union</text>
</g>
<!-- 3 -->
<g id="node4" class="node">
<title>3</title>
<ellipse fill="none" stroke="black" cx="457" cy="-179.8" rx="42.88" ry="18"/>
<text text-anchor="start" x="434.06" y="-175.6" font-family="Times,serif" font-size="14.00">CLASH</text>
<polygon fill="none" stroke="black" points="405.31,-200.8 405.31,-206.8 411.31,-206.8 411.31,-200.8 405.31,-200.8"/>
<polygon fill="none" stroke="black" points="402.31,-197.8 402.31,-209.8 414.31,-209.8 414.31,-197.8 402.31,-197.8"/>
</g>
<!-- 2&#45;&gt;3 -->
<g id="edge5" class="edge">
<title>2&#45;&gt;3</title>
<path fill="none" stroke="black" d="M463.42,-250.45C462.3,-238.32 460.78,-221.82 459.5,-207.92"/>
<polygon fill="black" stroke="black" points="462.98,-207.55 458.58,-197.91 456.01,-208.19 462.98,-207.55"/>
</g>
<!-- 5 -->
<g id="node6" class="node">
<title>5</title>
<ellipse fill="none" stroke="black" cx="545" cy="-179.8" rx="27" ry="18"/>
<text text-anchor="start" x="534.5" y="-175.6" font-family="Times,serif" font-size="14.00">x01</text>
<polygon fill="none" stroke="black" points="575.5,-200.8 575.5,-222.8 796.5,-222.8 796.5,-200.8 575.5,-200.8"/>
<text text-anchor="start" x="578.32" y="-207.2" font-family="Times,serif" font-size="14.00">((A ⊔ ¬B )⊓ (B ⊔ ¬A )); (A ⊓ ¬B ); </text>
<polygon fill="none" stroke="black" points="572,-197.8 572,-225.8 799,-225.8 799,-197.8 572,-197.8"/>
</g>
<!-- 4&#45;&gt;5 -->
<g id="edge6" class="edge">
<title>4&#45;&gt;5</title>
<path fill="none" stroke="black" d="M545,-250.45C545,-238.32 545,-221.82 545,-207.92"/>
<polygon fill="black" stroke="black" points="548.5,-207.91 545,-197.91 541.5,-207.91 548.5,-207.91"/>
<text text-anchor="middle" x="549.67" y="-220" font-family="Times,serif" font-size="14.00">R</text>
</g>
<!-- 6 -->
<g id="node7" class="node">
<title>6</title>
<ellipse fill="none" stroke="black" cx="458" cy="-91" rx="27" ry="18"/>
<text text-anchor="start" x="447.5" y="-86.8" font-family="Times,serif" font-size="14.00">x01</text>
<polygon fill="none" stroke="black" points="3.5,-112 3.5,-134 428.5,-134 428.5,-112 3.5,-112"/>
<text text-anchor="start" x="6.46" y="-118.4" font-family="Times,serif" font-size="14.00">(B ⊔ ¬A ); ((A ⊔ ¬B )⊓ (B ⊔ ¬A )); A ; B ; (A ⊓ ¬B ); ¬B ; (A ⊔ ¬B ); </text>
<polygon fill="none" stroke="black" points="0,-109 0,-137 431,-137 431,-109 0,-109"/>
</g>
<!-- 5&#45;&gt;6 -->
<g id="edge8" class="edge">
<title>5&#45;&gt;6</title>
<path fill="none" stroke="black" d="M529.14,-165.16C521.94,-158.81 513.39,-151.07 506,-143.8 496.54,-134.49 486.49,-123.79 478.05,-114.54"/>
<polygon fill="black" stroke="black" points="480.4,-111.92 471.1,-106.85 475.21,-116.62 480.4,-111.92"/>
<text text-anchor="middle" x="524.5" y="-131.2" font-family="Times,serif" font-size="14.00">Union</text>
</g>
<!-- 8 -->
<g id="node9" class="node">
<title>8</title>
<ellipse fill="none" stroke="black" cx="545" cy="-91" rx="27" ry="18"/>
<text text-anchor="start" x="534.5" y="-86.8" font-family="Times,serif" font-size="14.00">x01</text>
<polygon fill="none" stroke="black" points="521.5,-48 521.5,-70 956.5,-70 956.5,-48 521.5,-48"/>
<text text-anchor="start" x="524.41" y="-54.4" font-family="Times,serif" font-size="14.00">(B ⊔ ¬A ); ((A ⊔ ¬B )⊓ (B ⊔ ¬A )); A ; (A ⊓ ¬B ); ¬A ; ¬B ; (A ⊔ ¬B ); </text>
<polygon fill="none" stroke="black" points="518,-45 518,-73 959,-73 959,-45 518,-45"/>
</g>
<!-- 5&#45;&gt;8 -->
<g id="edge7" class="edge">
<title>5&#45;&gt;8</title>
<path fill="none" stroke="black" d="M545,-161.65C545,-149.52 545,-133.02 545,-119.12"/>
<polygon fill="black" stroke="black" points="548.5,-119.11 545,-109.11 541.5,-119.11 548.5,-119.11"/>
<text text-anchor="middle" x="562.5" y="-131.2" font-family="Times,serif" font-size="14.00">Union</text>
</g>
<!-- 7 -->
<g id="node8" class="node">
<title>7</title>
<ellipse fill="none" stroke="black" cx="442" cy="-18" rx="42.88" ry="18"/>
<text text-anchor="start" x="419.06" y="-13.8" font-family="Times,serif" font-size="14.00">CLASH</text>
<polygon fill="none" stroke="black" points="390.31,-39 390.31,-45 396.31,-45 396.31,-39 390.31,-39"/>
<polygon fill="none" stroke="black" points="387.31,-36 387.31,-48 399.31,-48 399.31,-36 387.31,-36"/>
</g>
<!-- 6&#45;&gt;7 -->
<g id="edge9" class="edge">
<title>6&#45;&gt;7</title>
<path fill="none" stroke="black" d="M454.21,-73.17C452.38,-65.07 450.15,-55.15 448.09,-46.03"/>
<polygon fill="black" stroke="black" points="451.49,-45.18 445.88,-36.2 444.66,-46.72 451.49,-45.18"/>
</g>
<!-- 9 -->
<g id="node10" class="node">
<title>9</title>
<ellipse fill="none" stroke="black" cx="545" cy="-18" rx="42.88" ry="18"/>
<text text-anchor="start" x="522.06" y="-13.8" font-family="Times,serif" font-size="14.00">CLASH</text>
<polygon fill="none" stroke="black" points="493.31,-39 493.31,-45 499.31,-45 499.31,-39 493.31,-39"/>
<polygon fill="none" stroke="black" points="490.31,-36 490.31,-48 502.31,-48 502.31,-36 490.31,-36"/>
</g>
<!-- 8&#45;&gt;9 -->
<g id="edge10" class="edge">
<title>8&#45;&gt;9</title>
<path fill="none" stroke="black" d="M545,-72.81C545,-64.79 545,-55.05 545,-46.07"/>
<polygon fill="black" stroke="black" points="548.5,-46.03 545,-36.03 541.5,-46.03 548.5,-46.03"/>
</g>
<!-- 11 -->
<g id="node12" class="node">
<title>11</title>
<ellipse fill="none" stroke="black" cx="648" cy="-268.6" rx="27" ry="18"/>
<text text-anchor="middle" x="648" y="-264.4" font-family="Times,serif" font-size="14.00">x0</text>
<polygon fill="none" stroke="black" points="678.5,-225.6 678.5,-247.6 1115.5,-247.6 1115.5,-225.6 678.5,-225.6"/>
<text text-anchor="start" x="681.24" y="-232" font-family="Times,serif" font-size="14.00">(B ⊔ ¬A ); ((A ⊔ ¬B )⊓ (B ⊔ ¬A )); ∃R.(A ⊓ ¬B ); ¬A ; ¬B ; (A ⊔ ¬B ); </text>
<polygon fill="none" stroke="black" points="675,-222.6 675,-250.6 1118,-250.6 1118,-222.6 675,-222.6"/>
</g>
<!-- 10&#45;&gt;11 -->
<g id="edge12" class="edge">
<title>10&#45;&gt;11</title>
<path fill="none" stroke="black" d="M648,-339.25C648,-327.12 648,-310.62 648,-296.72"/>
<polygon fill="black" stroke="black" points="651.5,-296.71 648,-286.71 644.5,-296.71 651.5,-296.71"/>
<text text-anchor="middle" x="665.5" y="-308.8" font-family="Times,serif" font-size="14.00">Union</text>
</g>
<!-- 17 -->
<g id="node18" class="node">
<title>17</title>
<ellipse fill="none" stroke="black" cx="729" cy="-268.6" rx="27" ry="18"/>
<text text-anchor="middle" x="729" y="-264.4" font-family="Times,serif" font-size="14.00">x0</text>
<polygon fill="none" stroke="black" points="759,-289.6 759,-311.6 1187,-311.6 1187,-289.6 759,-289.6"/>
<text text-anchor="start" x="761.52" y="-296" font-family="Times,serif" font-size="14.00">(B ⊔ ¬A ); ((A ⊔ ¬B )⊓ (B ⊔ ¬A )); A ; ∃R.(A ⊓ ¬B ); ¬A ; (A ⊔ ¬B ); </text>
<polygon fill="none" stroke="black" points="756,-286.6 756,-314.6 1190,-314.6 1190,-286.6 756,-286.6"/>
</g>
<!-- 10&#45;&gt;17 -->
<g id="edge11" class="edge">
<title>10&#45;&gt;17</title>
<path fill="none" stroke="black" d="M664.47,-342.64C671.64,-336.41 679.98,-328.78 687,-321.4 695.43,-312.54 704.06,-302.17 711.28,-293.04"/>
<polygon fill="black" stroke="black" points="714.09,-295.13 717.47,-285.09 708.57,-290.83 714.09,-295.13"/>
<text text-anchor="middle" x="719.5" y="-308.8" font-family="Times,serif" font-size="14.00">Union</text>
</g>
<!-- 12 -->
<g id="node13" class="node">
<title>12</title>
<ellipse fill="none" stroke="black" cx="648" cy="-179.8" rx="27" ry="18"/>
<text text-anchor="start" x="637.5" y="-175.6" font-family="Times,serif" font-size="14.00">x01</text>
<polygon fill="none" stroke="black" points="678.5,-136.8 678.5,-158.8 899.5,-158.8 899.5,-136.8 678.5,-136.8"/>
<text text-anchor="start" x="681.32" y="-143.2" font-family="Times,serif" font-size="14.00">((A ⊔ ¬B )⊓ (B ⊔ ¬A )); (A ⊓ ¬B ); </text>
<polygon fill="none" stroke="black" points="675,-133.8 675,-161.8 902,-161.8 902,-133.8 675,-133.8"/>
</g>
<!-- 11&#45;&gt;12 -->
<g id="edge13" class="edge">
<title>11&#45;&gt;12</title>
<path fill="none" stroke="black" d="M648,-250.45C648,-238.32 648,-221.82 648,-207.92"/>
<polygon fill="black" stroke="black" points="651.5,-207.91 648,-197.91 644.5,-207.91 651.5,-207.91"/>
<text text-anchor="middle" x="652.67" y="-220" font-family="Times,serif" font-size="14.00">R</text>
</g>
<!-- 13 -->
<g id="node14" class="node">
<title>13</title>
<ellipse fill="none" stroke="black" cx="648" cy="-91" rx="27" ry="18"/>
<text text-anchor="start" x="637.5" y="-86.8" font-family="Times,serif" font-size="14.00">x01</text>
<polygon fill="none" stroke="black" points="678.5,-76 678.5,-98 1103.5,-98 1103.5,-76 678.5,-76"/>
<text text-anchor="start" x="681.46" y="-82.4" font-family="Times,serif" font-size="14.00">(B ⊔ ¬A ); ((A ⊔ ¬B )⊓ (B ⊔ ¬A )); A ; B ; (A ⊓ ¬B ); ¬B ; (A ⊔ ¬B ); </text>
<polygon fill="none" stroke="black" points="675,-73 675,-101 1106,-101 1106,-73 675,-73"/>
</g>
<!-- 12&#45;&gt;13 -->
<g id="edge15" class="edge">
<title>12&#45;&gt;13</title>
<path fill="none" stroke="black" d="M648,-161.65C648,-149.52 648,-133.02 648,-119.12"/>
<polygon fill="black" stroke="black" points="651.5,-119.11 648,-109.11 644.5,-119.11 651.5,-119.11"/>
<text text-anchor="middle" x="665.5" y="-131.2" font-family="Times,serif" font-size="14.00">Union</text>
</g>
<!-- 15 -->
<g id="node16" class="node">
<title>15</title>
<ellipse fill="none" stroke="black" cx="740" cy="-91" rx="27" ry="18"/>
<text text-anchor="start" x="729.5" y="-86.8" font-family="Times,serif" font-size="14.00">x01</text>
<polygon fill="none" stroke="black" points="770.5,-112 770.5,-134 1205.5,-134 1205.5,-112 770.5,-112"/>
<text text-anchor="start" x="773.41" y="-118.4" font-family="Times,serif" font-size="14.00">(B ⊔ ¬A ); ((A ⊔ ¬B )⊓ (B ⊔ ¬A )); A ; (A ⊓ ¬B ); ¬A ; ¬B ; (A ⊔ ¬B ); </text>
<polygon fill="none" stroke="black" points="767,-109 767,-137 1208,-137 1208,-109 767,-109"/>
</g>
<!-- 12&#45;&gt;15 -->
<g id="edge14" class="edge">
<title>12&#45;&gt;15</title>
<path fill="none" stroke="black" d="M663.7,-164.98C670.87,-158.61 679.43,-150.89 687,-143.8 697.37,-134.08 708.66,-123.11 718.15,-113.77"/>
<polygon fill="black" stroke="black" points="720.66,-116.2 725.31,-106.68 715.74,-111.22 720.66,-116.2"/>
<text text-anchor="middle" x="721.5" y="-131.2" font-family="Times,serif" font-size="14.00">Union</text>
</g>
<!-- 14 -->
<g id="node15" class="node">
<title>14</title>
<ellipse fill="none" stroke="black" cx="648" cy="-18" rx="42.88" ry="18"/>
<text text-anchor="start" x="625.06" y="-13.8" font-family="Times,serif" font-size="14.00">CLASH</text>
<polygon fill="none" stroke="black" points="596.31,-3 596.31,-9 602.31,-9 602.31,-3 596.31,-3"/>
<polygon fill="none" stroke="black" points="593.31,0 593.31,-12 605.31,-12 605.31,0 593.31,0"/>
</g>
<!-- 13&#45;&gt;14 -->
<g id="edge16" class="edge">
<title>13&#45;&gt;14</title>
<path fill="none" stroke="black" d="M648,-72.81C648,-64.79 648,-55.05 648,-46.07"/>
<polygon fill="black" stroke="black" points="651.5,-46.03 648,-36.03 644.5,-46.03 651.5,-46.03"/>
</g>
<!-- 16 -->
<g id="node17" class="node">
<title>16</title>
<ellipse fill="none" stroke="black" cx="751" cy="-18" rx="42.88" ry="18"/>
<text text-anchor="start" x="728.06" y="-13.8" font-family="Times,serif" font-size="14.00">CLASH</text>
<polygon fill="none" stroke="black" points="699.31,-3 699.31,-9 705.31,-9 705.31,-3 699.31,-3"/>
<polygon fill="none" stroke="black" points="696.31,0 696.31,-12 708.31,-12 708.31,0 696.31,0"/>
</g>
<!-- 15&#45;&gt;16 -->
<g id="edge17" class="edge">
<title>15&#45;&gt;16</title>
<path fill="none" stroke="black" d="M742.66,-72.81C743.91,-64.79 745.42,-55.05 746.81,-46.07"/>
<polygon fill="black" stroke="black" points="750.29,-46.45 748.36,-36.03 743.37,-45.38 750.29,-46.45"/>
</g>
<!-- 18 -->
<g id="node19" class="node">
<title>18</title>
<ellipse fill="none" stroke="black" cx="736" cy="-179.8" rx="42.88" ry="18"/>
<text text-anchor="start" x="713.06" y="-175.6" font-family="Times,serif" font-size="14.00">CLASH</text>
<polygon fill="none" stroke="black" points="684.31,-164.8 684.31,-170.8 690.31,-170.8 690.31,-164.8 684.31,-164.8"/>
<polygon fill="none" stroke="black" points="681.31,-161.8 681.31,-173.8 693.31,-173.8 693.31,-161.8 681.31,-161.8"/>
</g>
<!-- 17&#45;&gt;18 -->
<g id="edge18" class="edge">
<title>17&#45;&gt;18</title>
<path fill="none" stroke="black" d="M730.38,-250.45C731.36,-238.32 732.69,-221.82 733.81,-207.92"/>
<polygon fill="black" stroke="black" points="737.3,-208.16 734.62,-197.91 730.33,-207.6 737.3,-208.16"/>
</g>
</g>
</svg>
