<svg width="1187px" height="521px"
 viewBox="0.00 0.00 1186.79 521.00" xmlns="http://www.w3.org/2000/svg" xmlns:xlink="http://www.w3.org/1999/xlink">
<g id="graph0" class="graph" transform="scale(1.0 1.0) rotate(0.0) translate(4.0 517.0)">
<title>tableaux</title>
<polygon fill="white" stroke="transparent" points="-4,4 -4,-517 1182.79,-517 1182.79,4 -4,4"/>
<!-- 0 -->
<g id="node1" class="node">
<title>0</title>
<ellipse fill="none" stroke="black" cx="581.35" cy="-446.2" rx="27" ry="18"/>
<text text-anchor="middle" x="581.35" y="-442" font-family="Times,serif" font-size="14.00">x0</text>
<text text-anchor="middle" x="369.31" y="-468.4" font-family="Times,serif" font-size="14.00">(B ⊔ ¬A ), ((A ⊔ ¬B )⊓ (B ⊔ ¬A )), ∃R.(A ⊓ ¬B ), (A ⊔ ¬B ), </text>
</g>
<!-- 1 -->
<g id="node2" class="node">
<title>1</title>
<ellipse fill="none" stroke="black" cx="530.35" cy="-357.4" rx="27" ry="18"/>
<text text-anchor="middle" x="530.35" y="-353.2" font-family="Times,serif" font-size="14.00">x0</text>
<text text-anchor="middle" x="308.39" y="-379.6" font-family="Times,serif" font-size="14.00">(B ⊔ ¬A ), ((A ⊔ ¬B )⊓ (B ⊔ ¬A )), B , ∃R.(A ⊓ ¬B ), (A ⊔ ¬B ), </text>
</g>
<!-- 0&#45;&gt;1 -->
<g id="edge2" class="edge">
<title>0&#45;&gt;1</title>
<path fill="none" stroke="black" d="M572,-429.28C564.42,-416.39 553.62,-398.01 544.92,-383.2"/>
<polygon fill="black" stroke="black" points="547.9,-381.36 539.82,-374.51 541.87,-384.91 547.9,-381.36"/>
<text text-anchor="middle" x="578.85" y="-397.6" font-family="Times,serif" font-size="14.00">Union</text>
</g>
<!-- 10 -->
<g id="node11" class="node">
<title>10</title>
<ellipse fill="none" stroke="black" cx="633.35" cy="-357.4" rx="27" ry="18"/>
<text text-anchor="middle" x="633.35" y="-353.2" font-family="Times,serif" font-size="14.00">x0</text>
<text text-anchor="middle" x="860.36" y="-379.6" font-family="Times,serif" font-size="14.00">(B ⊔ ¬A ), ((A ⊔ ¬B )⊓ (B ⊔ ¬A )), ∃R.(A ⊓ ¬B ), ¬A , (A ⊔ ¬B ), </text>
</g>
<!-- 0&#45;&gt;10 -->
<g id="edge1" class="edge">
<title>0&#45;&gt;10</title>
<path fill="none" stroke="black" d="M590.89,-429.28C598.61,-416.39 609.62,-398.01 618.5,-383.2"/>
<polygon fill="black" stroke="black" points="621.56,-384.89 623.7,-374.51 615.56,-381.29 621.56,-384.89"/>
<text text-anchor="middle" x="629.85" y="-397.6" font-family="Times,serif" font-size="14.00">Union</text>
</g>
<!-- 2 -->
<g id="node3" class="node">
<title>2</title>
<ellipse fill="none" stroke="black" cx="450.35" cy="-268.6" rx="27" ry="18"/>
<text text-anchor="middle" x="450.35" y="-264.4" font-family="Times,serif" font-size="14.00">x0</text>
<text text-anchor="middle" x="213.81" y="-290.8" font-family="Times,serif" font-size="14.00">(B ⊔ ¬A ), ((A ⊔ ¬B )⊓ (B ⊔ ¬A )), B , ∃R.(A ⊓ ¬B ), ¬B , (A ⊔ ¬B ), </text>
</g>
<!-- 1&#45;&gt;2 -->
<g id="edge4" class="edge">
<title>1&#45;&gt;2</title>
<path fill="none" stroke="black" d="M513.84,-342.68C506.67,-336.45 498.33,-328.82 491.35,-321.4 483.14,-312.66 474.79,-302.42 467.79,-293.36"/>
<polygon fill="black" stroke="black" points="470.38,-290.97 461.54,-285.12 464.8,-295.2 470.38,-290.97"/>
<text text-anchor="middle" x="509.85" y="-308.8" font-family="Times,serif" font-size="14.00">Union</text>
</g>
<!-- 4 -->
<g id="node5" class="node">
<title>4</title>
<ellipse fill="none" stroke="black" cx="530.35" cy="-268.6" rx="27" ry="18"/>
<text text-anchor="middle" x="530.35" y="-264.4" font-family="Times,serif" font-size="14.00">x0</text>
<text text-anchor="middle" x="298.09" y="-206" font-family="Times,serif" font-size="14.00">(B ⊔ ¬A ), ((A ⊔ ¬B )⊓ (B ⊔ ¬A )), A , B , ∃R.(A ⊓ ¬B ), (A ⊔ ¬B ), </text>
</g>
<!-- 1&#45;&gt;4 -->
<g id="edge3" class="edge">
<title>1&#45;&gt;4</title>
<path fill="none" stroke="black" d="M530.35,-339.25C530.35,-327.12 530.35,-310.62 530.35,-296.72"/>
<polygon fill="black" stroke="black" points="533.85,-296.71 530.35,-286.71 526.85,-296.71 533.85,-296.71"/>
<text text-anchor="middle" x="547.85" y="-308.8" font-family="Times,serif" font-size="14.00">Union</text>
</g>
<!-- 3 -->
<g id="node4" class="node">
<title>3</title>
<ellipse fill="none" stroke="black" cx="442.35" cy="-179.8" rx="42.88" ry="18"/>
<text text-anchor="middle" x="442.35" y="-175.6" font-family="Times,serif" font-size="14.00">CLASH</text>
</g>
<!-- 2&#45;&gt;3 -->
<g id="edge5" class="edge">
<title>2&#45;&gt;3</title>
<path fill="none" stroke="black" d="M448.77,-250.45C447.65,-238.32 446.13,-221.82 444.85,-207.92"/>
<polygon fill="black" stroke="black" points="448.33,-207.55 443.93,-197.91 441.36,-208.19 448.33,-207.55"/>
</g>
<!-- 5 -->
<g id="node6" class="node">
<title>5</title>
<ellipse fill="none" stroke="black" cx="530.35" cy="-179.8" rx="27" ry="18"/>
<text text-anchor="middle" x="530.35" y="-175.6" font-family="Times,serif" font-size="14.00">x01</text>
<text text-anchor="middle" x="664.64" y="-202" font-family="Times,serif" font-size="14.00">((A ⊔ ¬B )⊓ (B ⊔ ¬A )), (A ⊓ ¬B ), </text>
</g>
<!-- 4&#45;&gt;5 -->
<g id="edge6" class="edge">
<title>4&#45;&gt;5</title>
<path fill="none" stroke="black" d="M530.35,-250.45C530.35,-238.32 530.35,-221.82 530.35,-207.92"/>
<polygon fill="black" stroke="black" points="533.85,-207.91 530.35,-197.91 526.85,-207.91 533.85,-207.91"/>
<text text-anchor="middle" x="535.02" y="-220" font-family="Times,serif" font-size="14.00">R</text>
</g>
<!-- 6 -->
<g id="node7" class="node">
<title>6</title>
<ellipse fill="none" stroke="black" cx="443.35" cy="-91" rx="27" ry="18"/>
<text text-anchor="middle" x="443.35" y="-86.8" font-family="Times,serif" font-size="14.00">x01</text>
<text text-anchor="middle" x="208.18" y="-113.2" font-family="Times,serif" font-size="14.00">(B ⊔ ¬A ), ((A ⊔ ¬B )⊓ (B ⊔ ¬A )), A , B , (A ⊓ ¬B ), ¬B , (A ⊔ ¬B ), </text>
</g>
<!-- 5&#45;&gt;6 -->
<g id="edge8" class="edge">
<title>5&#45;&gt;6</title>
<path fill="none" stroke="black" d="M514.49,-165.16C507.29,-158.81 498.74,-151.07 491.35,-143.8 481.89,-134.49 471.85,-123.79 463.4,-114.54"/>
<polygon fill="black" stroke="black" points="465.76,-111.92 456.45,-106.85 460.56,-116.62 465.76,-111.92"/>
<text text-anchor="middle" x="509.85" y="-131.2" font-family="Times,serif" font-size="14.00">Union</text>
</g>
<!-- 8 -->
<g id="node9" class="node">
<title>8</title>
<ellipse fill="none" stroke="black" cx="530.35" cy="-91" rx="27" ry="18"/>
<text text-anchor="middle" x="530.35" y="-86.8" font-family="Times,serif" font-size="14.00">x01</text>
<text text-anchor="middle" x="290.13" y="-28.4" font-family="Times,serif" font-size="14.00">(B ⊔ ¬A ), ((A ⊔ ¬B )⊓ (B ⊔ ¬A )), A , (A ⊓ ¬B ), ¬A , ¬B , (A ⊔ ¬B ), </text>
</g>
<!-- 5&#45;&gt;8 -->
<g id="edge7" class="edge">
<title>5&#45;&gt;8</title>
<path fill="none" stroke="black" d="M530.35,-161.65C530.35,-149.52 530.35,-133.02 530.35,-119.12"/>
<polygon fill="black" stroke="black" points="533.85,-119.11 530.35,-109.11 526.85,-119.11 533.85,-119.11"/>
<text text-anchor="middle" x="547.85" y="-131.2" font-family="Times,serif" font-size="14.00">Union</text>
</g>
<!-- 7 -->
<g id="node8" class="node">
<title>7</title>
<ellipse fill="none" stroke="black" cx="427.35" cy="-18" rx="42.88" ry="18"/>
<text text-anchor="middle" x="427.35" y="-13.8" font-family="Times,serif" font-size="14.00">CLASH</text>
</g>
<!-- 6&#45;&gt;7 -->
<g id="edge9" class="edge">
<title>6&#45;&gt;7</title>
<path fill="none" stroke="black" d="M439.56,-73.17C437.73,-65.07 435.5,-55.15 433.44,-46.03"/>
<polygon fill="black" stroke="black" points="436.84,-45.18 431.23,-36.2 430.01,-46.72 436.84,-45.18"/>
</g>
<!-- 9 -->
<g id="node10" class="node">
<title>9</title>
<ellipse fill="none" stroke="black" cx="530.35" cy="-18" rx="42.88" ry="18"/>
<text text-anchor="middle" x="530.35" y="-13.8" font-family="Times,serif" font-size="14.00">CLASH</text>
</g>
<!-- 8&#45;&gt;9 -->
<g id="edge10" class="edge">
<title>8&#45;&gt;9</title>
<path fill="none" stroke="black" d="M530.35,-72.81C530.35,-64.79 530.35,-55.05 530.35,-46.07"/>
<polygon fill="black" stroke="black" points="533.85,-46.03 530.35,-36.03 526.85,-46.03 533.85,-46.03"/>
</g>
<!-- 11 -->
<g id="node12" class="node">
<title>11</title>
<ellipse fill="none" stroke="black" cx="633.35" cy="-268.6" rx="27" ry="18"/>
<text text-anchor="middle" x="633.35" y="-264.4" font-family="Times,serif" font-size="14.00">x0</text>
<text text-anchor="middle" x="874.94" y="-290.8" font-family="Times,serif" font-size="14.00">(B ⊔ ¬A ), ((A ⊔ ¬B )⊓ (B ⊔ ¬A )), ∃R.(A ⊓ ¬B ), ¬A , ¬B , (A ⊔ ¬B ), </text>
</g>
<!-- 10&#45;&gt;11 -->
<g id="edge12" class="edge">
<title>10&#45;&gt;11</title>
<path fill="none" stroke="black" d="M633.35,-339.25C633.35,-327.12 633.35,-310.62 633.35,-296.72"/>
<polygon fill="black" stroke="black" points="636.85,-296.71 633.35,-286.71 629.85,-296.71 636.85,-296.71"/>
<text text-anchor="middle" x="650.85" y="-308.8" font-family="Times,serif" font-size="14.00">Union</text>
</g>
<!-- 17 -->
<g id="node18" class="node">
<title>17</title>
<ellipse fill="none" stroke="black" cx="714.35" cy="-268.6" rx="27" ry="18"/>
<text text-anchor="middle" x="714.35" y="-264.4" font-family="Times,serif" font-size="14.00">x0</text>
<text text-anchor="middle" x="951.66" y="-206" font-family="Times,serif" font-size="14.00">(B ⊔ ¬A ), ((A ⊔ ¬B )⊓ (B ⊔ ¬A )), A , ∃R.(A ⊓ ¬B ), ¬A , (A ⊔ ¬B ), </text>
</g>
<!-- 10&#45;&gt;17 -->
<g id="edge11" class="edge">
<title>10&#45;&gt;17</title>
<path fill="none" stroke="black" d="M649.82,-342.64C656.99,-336.41 665.33,-328.78 672.35,-321.4 680.78,-312.54 689.41,-302.17 696.63,-293.04"/>
<polygon fill="black" stroke="black" points="699.44,-295.13 702.82,-285.09 693.92,-290.83 699.44,-295.13"/>
<text text-anchor="middle" x="704.85" y="-308.8" font-family="Times,serif" font-size="14.00">Union</text>
</g>
<!-- 12 -->
<g id="node13" class="node">
<title>12</title>
<ellipse fill="none" stroke="black" cx="633.35" cy="-179.8" rx="27" ry="18"/>
<text text-anchor="middle" x="633.35" y="-175.6" font-family="Times,serif" font-size="14.00">x01</text>
<text text-anchor="middle" x="767.64" y="-117.2" font-family="Times,serif" font-size="14.00">((A ⊔ ¬B )⊓ (B ⊔ ¬A )), (A ⊓ ¬B ), </text>
</g>
<!-- 11&#45;&gt;12 -->
<g id="edge13" class="edge">
<title>11&#45;&gt;12</title>
<path fill="none" stroke="black" d="M633.35,-250.45C633.35,-238.32 633.35,-221.82 633.35,-207.92"/>
<polygon fill="black" stroke="black" points="636.85,-207.91 633.35,-197.91 629.85,-207.91 636.85,-207.91"/>
<text text-anchor="middle" x="638.02" y="-220" font-family="Times,serif" font-size="14.00">R</text>
</g>
<!-- 13 -->
<g id="node14" class="node">
<title>13</title>
<ellipse fill="none" stroke="black" cx="633.35" cy="-91" rx="27" ry="18"/>
<text text-anchor="middle" x="633.35" y="-86.8" font-family="Times,serif" font-size="14.00">x01</text>
<text text-anchor="middle" x="814.53" y="-28.4" font-family="Times,serif" font-size="14.00">(B ⊔ ¬A ), ((A ⊔ ¬B )⊓ (B ⊔ ¬A )), A , B , (A ⊓ ¬B ), ¬B , (A ⊔ ¬B ), </text>
</g>
<!-- 12&#45;&gt;13 -->
<g id="edge15" class="edge">
<title>12&#45;&gt;13</title>
<path fill="none" stroke="black" d="M633.35,-161.65C633.35,-149.52 633.35,-133.02 633.35,-119.12"/>
<polygon fill="black" stroke="black" points="636.85,-119.11 633.35,-109.11 629.85,-119.11 636.85,-119.11"/>
<text text-anchor="middle" x="650.85" y="-131.2" font-family="Times,serif" font-size="14.00">Union</text>
</g>
<!-- 15 -->
<g id="node16" class="node">
<title>15</title>
<ellipse fill="none" stroke="black" cx="725.35" cy="-91" rx="27" ry="18"/>
<text text-anchor="middle" x="725.35" y="-86.8" font-family="Times,serif" font-size="14.00">x01</text>
<text text-anchor="middle" x="965.57" y="-77.2" font-family="Times,serif" font-size="14.00">(B ⊔ ¬A ), ((A ⊔ ¬B )⊓ (B ⊔ ¬A )), A , (A ⊓ ¬B ), ¬A , ¬B , (A ⊔ ¬B ), </text>
</g>
<!-- 12&#45;&gt;15 -->
<g id="edge14" class="edge">
<title>12&#45;&gt;15</title>
<path fill="none" stroke="black" d="M649.05,-164.98C656.22,-158.61 664.78,-150.89 672.35,-143.8 682.72,-134.08 694.01,-123.11 703.5,-113.77"/>
<polygon fill="black" stroke="black" points="706.01,-116.2 710.66,-106.68 701.09,-111.22 706.01,-116.2"/>
<text text-anchor="middle" x="706.85" y="-131.2" font-family="Times,serif" font-size="14.00">Union</text>
</g>
<!-- 14 -->
<g id="node15" class="node">
<title>14</title>
<ellipse fill="none" stroke="black" cx="633.35" cy="-18" rx="42.88" ry="18"/>
<text text-anchor="middle" x="633.35" y="-13.8" font-family="Times,serif" font-size="14.00">CLASH</text>
</g>
<!-- 13&#45;&gt;14 -->
<g id="edge16" class="edge">
<title>13&#45;&gt;14</title>
<path fill="none" stroke="black" d="M633.35,-72.81C633.35,-64.79 633.35,-55.05 633.35,-46.07"/>
<polygon fill="black" stroke="black" points="636.85,-46.03 633.35,-36.03 629.85,-46.03 636.85,-46.03"/>
</g>
<!-- 16 -->
<g id="node17" class="node">
<title>16</title>
<ellipse fill="none" stroke="black" cx="736.35" cy="-18" rx="42.88" ry="18"/>
<text text-anchor="middle" x="736.35" y="-13.8" font-family="Times,serif" font-size="14.00">CLASH</text>
</g>
<!-- 15&#45;&gt;16 -->
<g id="edge17" class="edge">
<title>15&#45;&gt;16</title>
<path fill="none" stroke="black" d="M728.01,-72.81C729.26,-64.79 730.77,-55.05 732.16,-46.07"/>
<polygon fill="black" stroke="black" points="735.64,-46.45 733.71,-36.03 728.72,-45.38 735.64,-46.45"/>
</g>
<!-- 18 -->
<g id="node19" class="node">
<title>18</title>
<ellipse fill="none" stroke="black" cx="721.35" cy="-179.8" rx="42.88" ry="18"/>
<text text-anchor="middle" x="721.35" y="-175.6" font-family="Times,serif" font-size="14.00">CLASH</text>
</g>
<!-- 17&#45;&gt;18 -->
<g id="edge18" class="edge">
<title>17&#45;&gt;18</title>
<path fill="none" stroke="black" d="M715.73,-250.45C716.71,-238.32 718.04,-221.82 719.16,-207.92"/>
<polygon fill="black" stroke="black" points="722.65,-208.16 719.97,-197.91 715.68,-207.6 722.65,-208.16"/>
</g>
</g>
</svg>
