<svg width="1199px" height="480px"
 viewBox="0.00 0.00 1199.00 480.00" xmlns="http://www.w3.org/2000/svg" xmlns:xlink="http://www.w3.org/1999/xlink">
<g id="graph0" class="graph" transform="scale(1.0 1.0) rotate(0.0) translate(4.0 476.0)">
<title>tableaux</title>
<polygon fill="white" stroke="transparent" points="-4,4 -4,-476 1195,-476 1195,4 -4,4"/>
<!-- 0 -->
<g id="node1" class="node">
<title>0</title>
<ellipse fill="none" stroke="black" cx="617" cy="-439" rx="27" ry="18"/>
<text text-anchor="start" x="607.5" y="-436.3" font-family="Times New Roman,serif" font-size="14.00">x</text>
<text text-anchor="start" x="614.5" y="-436.3" font-family="Times New Roman,serif" baseline-shift="sub" font-size="14.00">x0</text>
<text text-anchor="start" x="176" y="-460.8" font-family="Times New Roman,serif" font-size="14.00">(B ⊔ ¬A ), ((A ⊔ ¬B )⊓ (B ⊔ ¬A )), ∃R.(A ⊓ ¬B ), (A ⊔ ¬B ), </text>
</g>
<!-- 1 -->
<g id="node2" class="node">
<title>1</title>
<ellipse fill="none" stroke="black" cx="568" cy="-352" rx="27" ry="18"/>
<text text-anchor="start" x="558.5" y="-349.3" font-family="Times New Roman,serif" font-size="14.00">x</text>
<text text-anchor="start" x="565.5" y="-349.3" font-family="Times New Roman,serif" baseline-shift="sub" font-size="14.00">x0</text>
<text text-anchor="start" x="107" y="-373.8" font-family="Times New Roman,serif" font-size="14.00">(B ⊔ ¬A ), ((A ⊔ ¬B )⊓ (B ⊔ ¬A )), B , ∃R.(A ⊓ ¬B ), (A ⊔ ¬B ), </text>
</g>
<!-- 0&#45;&gt;1 -->
<g id="edge2" class="edge">
<title>0&#45;&gt;1</title>
<path fill="none" stroke="black" d="M607.78,-422.01C600.64,-409.63 590.62,-392.23 582.42,-378.01"/>
<polygon fill="black" stroke="black" points="585.37,-376.12 577.34,-369.21 579.3,-379.62 585.37,-376.12"/>
<text text-anchor="middle" x="613" y="-391.8" font-family="Times New Roman,serif" font-size="14.00">Union</text>
</g>
<!-- 10 -->
<g id="node11" class="node">
<title>10</title>
<ellipse fill="none" stroke="black" cx="667" cy="-352" rx="27" ry="18"/>
<text text-anchor="start" x="657.5" y="-349.3" font-family="Times New Roman,serif" font-size="14.00">x</text>
<text text-anchor="start" x="664.5" y="-349.3" font-family="Times New Roman,serif" baseline-shift="sub" font-size="14.00">x0</text>
<text text-anchor="start" x="197" y="-322.8" font-family="Times New Roman,serif" font-size="14.00">(B ⊔ ¬A ), ((A ⊔ ¬B )⊓ (B ⊔ ¬A )), ∃R.(A ⊓ ¬B ), ¬A , (A ⊔ ¬B ), </text>
</g>
<!-- 0&#45;&gt;10 -->
<g id="edge1" class="edge">
<title>0&#45;&gt;10</title>
<path fill="none" stroke="black" d="M626.4,-422.01C633.74,-409.55 644.05,-392.01 652.45,-377.74"/>
<polygon fill="black" stroke="black" points="655.58,-379.31 657.64,-368.92 649.55,-375.76 655.58,-379.31"/>
<text text-anchor="middle" x="662" y="-391.8" font-family="Times New Roman,serif" font-size="14.00">Union</text>
</g>
<!-- 2 -->
<g id="node3" class="node">
<title>2</title>
<ellipse fill="none" stroke="black" cx="490" cy="-265" rx="27" ry="18"/>
<text text-anchor="start" x="480.5" y="-262.3" font-family="Times New Roman,serif" font-size="14.00">x</text>
<text text-anchor="start" x="487.5" y="-262.3" font-family="Times New Roman,serif" baseline-shift="sub" font-size="14.00">x0</text>
<text text-anchor="start" x="0" y="-286.8" font-family="Times New Roman,serif" font-size="14.00">(B ⊔ ¬A ), ((A ⊔ ¬B )⊓ (B ⊔ ¬A )), B , ∃R.(A ⊓ ¬B ), ¬B , (A ⊔ ¬B ), </text>
</g>
<!-- 1&#45;&gt;2 -->
<g id="edge4" class="edge">
<title>1&#45;&gt;2</title>
<path fill="none" stroke="black" d="M551.96,-337.21C544.98,-330.96 536.85,-323.35 530,-316 522.27,-307.71 514.34,-298.09 507.61,-289.51"/>
<polygon fill="black" stroke="black" points="510.21,-287.15 501.33,-281.37 504.67,-291.43 510.21,-287.15"/>
<text text-anchor="middle" x="547" y="-304.8" font-family="Times New Roman,serif" font-size="14.00">Union</text>
</g>
<!-- 4 -->
<g id="node5" class="node">
<title>4</title>
<ellipse fill="none" stroke="black" cx="568" cy="-265" rx="27" ry="18"/>
<text text-anchor="start" x="558.5" y="-262.3" font-family="Times New Roman,serif" font-size="14.00">x</text>
<text text-anchor="start" x="565.5" y="-262.3" font-family="Times New Roman,serif" baseline-shift="sub" font-size="14.00">x0</text>
<text text-anchor="start" x="86" y="-235.8" font-family="Times New Roman,serif" font-size="14.00">(B ⊔ ¬A ), ((A ⊔ ¬B )⊓ (B ⊔ ¬A )), A , B , ∃R.(A ⊓ ¬B ), (A ⊔ ¬B ), </text>
</g>
<!-- 1&#45;&gt;4 -->
<g id="edge3" class="edge">
<title>1&#45;&gt;4</title>
<path fill="none" stroke="black" d="M568,-333.8C568,-322.16 568,-306.55 568,-293.24"/>
<polygon fill="black" stroke="black" points="571.5,-293.18 568,-283.18 564.5,-293.18 571.5,-293.18"/>
<text text-anchor="middle" x="585" y="-304.8" font-family="Times New Roman,serif" font-size="14.00">Union</text>
</g>
<!-- 3 -->
<g id="node4" class="node">
<title>3</title>
<ellipse fill="none" stroke="black" cx="483" cy="-178" rx="40.09" ry="18"/>
<text text-anchor="start" x="460" y="-175.3" font-family="Times New Roman,serif" font-size="14.00">x</text>
<text text-anchor="start" x="467" y="-175.3" font-family="Times New Roman,serif" baseline-shift="sub" font-size="14.00">CLASH</text>
</g>
<!-- 2&#45;&gt;3 -->
<g id="edge5" class="edge">
<title>2&#45;&gt;3</title>
<path fill="none" stroke="black" d="M488.58,-246.8C487.63,-235.16 486.34,-219.55 485.24,-206.24"/>
<polygon fill="black" stroke="black" points="488.72,-205.85 484.41,-196.18 481.75,-206.43 488.72,-205.85"/>
</g>
<!-- 5 -->
<g id="node6" class="node">
<title>5</title>
<ellipse fill="none" stroke="black" cx="568" cy="-178" rx="27" ry="18"/>
<text text-anchor="start" x="555.5" y="-175.3" font-family="Times New Roman,serif" font-size="14.00">x</text>
<text text-anchor="start" x="562.5" y="-175.3" font-family="Times New Roman,serif" baseline-shift="sub" font-size="14.00">x01</text>
<text text-anchor="start" x="302" y="-199.8" font-family="Times New Roman,serif" font-size="14.00">((A ⊔ ¬B )⊓ (B ⊔ ¬A )), (A ⊓ ¬B ), </text>
</g>
<!-- 4&#45;&gt;5 -->
<g id="edge6" class="edge">
<title>4&#45;&gt;5</title>
<path fill="none" stroke="black" d="M568,-246.8C568,-235.16 568,-219.55 568,-206.24"/>
<polygon fill="black" stroke="black" points="571.5,-206.18 568,-196.18 564.5,-206.18 571.5,-206.18"/>
<text text-anchor="middle" x="573" y="-217.8" font-family="Times New Roman,serif" font-size="14.00">R</text>
</g>
<!-- 6 -->
<g id="node7" class="node">
<title>6</title>
<ellipse fill="none" stroke="black" cx="483" cy="-91" rx="27" ry="18"/>
<text text-anchor="start" x="470.5" y="-88.3" font-family="Times New Roman,serif" font-size="14.00">x</text>
<text text-anchor="start" x="477.5" y="-88.3" font-family="Times New Roman,serif" baseline-shift="sub" font-size="14.00">x01</text>
<text text-anchor="start" x="3" y="-112.8" font-family="Times New Roman,serif" font-size="14.00">(B ⊔ ¬A ), ((A ⊔ ¬B )⊓ (B ⊔ ¬A )), A , B , (A ⊓ ¬B ), ¬B , (A ⊔ ¬B ), </text>
</g>
<!-- 5&#45;&gt;6 -->
<g id="edge8" class="edge">
<title>5&#45;&gt;6</title>
<path fill="none" stroke="black" d="M552.23,-162.94C545.31,-156.65 537.14,-149.07 530,-142 521.05,-133.14 511.49,-123.08 503.33,-114.32"/>
<polygon fill="black" stroke="black" points="505.66,-111.68 496.3,-106.7 500.52,-116.43 505.66,-111.68"/>
<text text-anchor="middle" x="547" y="-130.8" font-family="Times New Roman,serif" font-size="14.00">Union</text>
</g>
<!-- 8 -->
<g id="node9" class="node">
<title>8</title>
<ellipse fill="none" stroke="black" cx="568" cy="-91" rx="27" ry="18"/>
<text text-anchor="start" x="555.5" y="-88.3" font-family="Times New Roman,serif" font-size="14.00">x</text>
<text text-anchor="start" x="562.5" y="-88.3" font-family="Times New Roman,serif" baseline-shift="sub" font-size="14.00">x01</text>
<text text-anchor="start" x="79" y="-61.8" font-family="Times New Roman,serif" font-size="14.00">(B ⊔ ¬A ), ((A ⊔ ¬B )⊓ (B ⊔ ¬A )), A , (A ⊓ ¬B ), ¬A , ¬B , (A ⊔ ¬B ), </text>
</g>
<!-- 5&#45;&gt;8 -->
<g id="edge7" class="edge">
<title>5&#45;&gt;8</title>
<path fill="none" stroke="black" d="M568,-159.8C568,-148.16 568,-132.55 568,-119.24"/>
<polygon fill="black" stroke="black" points="571.5,-119.18 568,-109.18 564.5,-119.18 571.5,-119.18"/>
<text text-anchor="middle" x="585" y="-130.8" font-family="Times New Roman,serif" font-size="14.00">Union</text>
</g>
<!-- 7 -->
<g id="node8" class="node">
<title>7</title>
<ellipse fill="none" stroke="black" cx="469" cy="-18" rx="40.09" ry="18"/>
<text text-anchor="start" x="446" y="-15.3" font-family="Times New Roman,serif" font-size="14.00">x</text>
<text text-anchor="start" x="453" y="-15.3" font-family="Times New Roman,serif" baseline-shift="sub" font-size="14.00">CLASH</text>
</g>
<!-- 6&#45;&gt;7 -->
<g id="edge9" class="edge">
<title>6&#45;&gt;7</title>
<path fill="none" stroke="black" d="M479.61,-72.81C478.03,-64.79 476.11,-55.05 474.34,-46.07"/>
<polygon fill="black" stroke="black" points="477.73,-45.16 472.36,-36.03 470.86,-46.52 477.73,-45.16"/>
</g>
<!-- 9 -->
<g id="node10" class="node">
<title>9</title>
<ellipse fill="none" stroke="black" cx="568" cy="-18" rx="40.09" ry="18"/>
<text text-anchor="start" x="545" y="-15.3" font-family="Times New Roman,serif" font-size="14.00">x</text>
<text text-anchor="start" x="552" y="-15.3" font-family="Times New Roman,serif" baseline-shift="sub" font-size="14.00">CLASH</text>
</g>
<!-- 8&#45;&gt;9 -->
<g id="edge10" class="edge">
<title>8&#45;&gt;9</title>
<path fill="none" stroke="black" d="M568,-72.81C568,-64.79 568,-55.05 568,-46.07"/>
<polygon fill="black" stroke="black" points="571.5,-46.03 568,-36.03 564.5,-46.03 571.5,-46.03"/>
</g>
<!-- 11 -->
<g id="node12" class="node">
<title>11</title>
<ellipse fill="none" stroke="black" cx="667" cy="-265" rx="27" ry="18"/>
<text text-anchor="start" x="657.5" y="-262.3" font-family="Times New Roman,serif" font-size="14.00">x</text>
<text text-anchor="start" x="664.5" y="-262.3" font-family="Times New Roman,serif" baseline-shift="sub" font-size="14.00">x0</text>
<text text-anchor="start" x="640" y="-286.8" font-family="Times New Roman,serif" font-size="14.00">(B ⊔ ¬A ), ((A ⊔ ¬B )⊓ (B ⊔ ¬A )), ∃R.(A ⊓ ¬B ), ¬A , ¬B , (A ⊔ ¬B ), </text>
</g>
<!-- 10&#45;&gt;11 -->
<g id="edge12" class="edge">
<title>10&#45;&gt;11</title>
<path fill="none" stroke="black" d="M667,-333.8C667,-322.16 667,-306.55 667,-293.24"/>
<polygon fill="black" stroke="black" points="670.5,-293.18 667,-283.18 663.5,-293.18 670.5,-293.18"/>
<text text-anchor="middle" x="684" y="-304.8" font-family="Times New Roman,serif" font-size="14.00">Union</text>
</g>
<!-- 17 -->
<g id="node18" class="node">
<title>17</title>
<ellipse fill="none" stroke="black" cx="746" cy="-265" rx="27" ry="18"/>
<text text-anchor="start" x="736.5" y="-262.3" font-family="Times New Roman,serif" font-size="14.00">x</text>
<text text-anchor="start" x="743.5" y="-262.3" font-family="Times New Roman,serif" baseline-shift="sub" font-size="14.00">x0</text>
<text text-anchor="start" x="719" y="-235.8" font-family="Times New Roman,serif" font-size="14.00">(B ⊔ ¬A ), ((A ⊔ ¬B )⊓ (B ⊔ ¬A )), A , ∃R.(A ⊓ ¬B ), ¬A , (A ⊔ ¬B ), </text>
</g>
<!-- 10&#45;&gt;17 -->
<g id="edge11" class="edge">
<title>10&#45;&gt;17</title>
<path fill="none" stroke="black" d="M683,-337.17C689.97,-330.92 698.1,-323.3 705,-316 712.94,-307.59 721.13,-297.84 728.09,-289.21"/>
<polygon fill="black" stroke="black" points="730.85,-291.35 734.33,-281.34 725.37,-287 730.85,-291.35"/>
<text text-anchor="middle" x="736" y="-304.8" font-family="Times New Roman,serif" font-size="14.00">Union</text>
</g>
<!-- 12 -->
<g id="node13" class="node">
<title>12</title>
<ellipse fill="none" stroke="black" cx="667" cy="-178" rx="27" ry="18"/>
<text text-anchor="start" x="654.5" y="-175.3" font-family="Times New Roman,serif" font-size="14.00">x</text>
<text text-anchor="start" x="661.5" y="-175.3" font-family="Times New Roman,serif" baseline-shift="sub" font-size="14.00">x01</text>
<text text-anchor="start" x="401" y="-148.8" font-family="Times New Roman,serif" font-size="14.00">((A ⊔ ¬B )⊓ (B ⊔ ¬A )), (A ⊓ ¬B ), </text>
</g>
<!-- 11&#45;&gt;12 -->
<g id="edge13" class="edge">
<title>11&#45;&gt;12</title>
<path fill="none" stroke="black" d="M667,-246.8C667,-235.16 667,-219.55 667,-206.24"/>
<polygon fill="black" stroke="black" points="670.5,-206.18 667,-196.18 663.5,-206.18 670.5,-206.18"/>
<text text-anchor="middle" x="672" y="-217.8" font-family="Times New Roman,serif" font-size="14.00">R</text>
</g>
<!-- 13 -->
<g id="node14" class="node">
<title>13</title>
<ellipse fill="none" stroke="black" cx="667" cy="-91" rx="27" ry="18"/>
<text text-anchor="start" x="654.5" y="-88.3" font-family="Times New Roman,serif" font-size="14.00">x</text>
<text text-anchor="start" x="661.5" y="-88.3" font-family="Times New Roman,serif" baseline-shift="sub" font-size="14.00">x01</text>
<text text-anchor="start" x="640" y="-112.8" font-family="Times New Roman,serif" font-size="14.00">(B ⊔ ¬A ), ((A ⊔ ¬B )⊓ (B ⊔ ¬A )), A , B , (A ⊓ ¬B ), ¬B , (A ⊔ ¬B ), </text>
</g>
<!-- 12&#45;&gt;13 -->
<g id="edge15" class="edge">
<title>12&#45;&gt;13</title>
<path fill="none" stroke="black" d="M667,-159.8C667,-148.16 667,-132.55 667,-119.24"/>
<polygon fill="black" stroke="black" points="670.5,-119.18 667,-109.18 663.5,-119.18 670.5,-119.18"/>
<text text-anchor="middle" x="684" y="-130.8" font-family="Times New Roman,serif" font-size="14.00">Union</text>
</g>
<!-- 15 -->
<g id="node16" class="node">
<title>15</title>
<ellipse fill="none" stroke="black" cx="756" cy="-91" rx="27" ry="18"/>
<text text-anchor="start" x="743.5" y="-88.3" font-family="Times New Roman,serif" font-size="14.00">x</text>
<text text-anchor="start" x="750.5" y="-88.3" font-family="Times New Roman,serif" baseline-shift="sub" font-size="14.00">x01</text>
<text text-anchor="start" x="729" y="-61.8" font-family="Times New Roman,serif" font-size="14.00">(B ⊔ ¬A ), ((A ⊔ ¬B )⊓ (B ⊔ ¬A )), A , (A ⊓ ¬B ), ¬A , ¬B , (A ⊔ ¬B ), </text>
</g>
<!-- 12&#45;&gt;15 -->
<g id="edge14" class="edge">
<title>12&#45;&gt;15</title>
<path fill="none" stroke="black" d="M682.26,-163.14C689.24,-156.75 697.59,-149.04 705,-142 714.69,-132.79 725.26,-122.47 734.26,-113.61"/>
<polygon fill="black" stroke="black" points="736.74,-116.08 741.39,-106.56 731.82,-111.1 736.74,-116.08"/>
<text text-anchor="middle" x="738" y="-130.8" font-family="Times New Roman,serif" font-size="14.00">Union</text>
</g>
<!-- 14 -->
<g id="node15" class="node">
<title>14</title>
<ellipse fill="none" stroke="black" cx="667" cy="-18" rx="40.09" ry="18"/>
<text text-anchor="start" x="644" y="-15.3" font-family="Times New Roman,serif" font-size="14.00">x</text>
<text text-anchor="start" x="651" y="-15.3" font-family="Times New Roman,serif" baseline-shift="sub" font-size="14.00">CLASH</text>
</g>
<!-- 13&#45;&gt;14 -->
<g id="edge16" class="edge">
<title>13&#45;&gt;14</title>
<path fill="none" stroke="black" d="M667,-72.81C667,-64.79 667,-55.05 667,-46.07"/>
<polygon fill="black" stroke="black" points="670.5,-46.03 667,-36.03 663.5,-46.03 670.5,-46.03"/>
</g>
<!-- 16 -->
<g id="node17" class="node">
<title>16</title>
<ellipse fill="none" stroke="black" cx="766" cy="-18" rx="40.09" ry="18"/>
<text text-anchor="start" x="743" y="-15.3" font-family="Times New Roman,serif" font-size="14.00">x</text>
<text text-anchor="start" x="750" y="-15.3" font-family="Times New Roman,serif" baseline-shift="sub" font-size="14.00">CLASH</text>
</g>
<!-- 15&#45;&gt;16 -->
<g id="edge17" class="edge">
<title>15&#45;&gt;16</title>
<path fill="none" stroke="black" d="M758.42,-72.81C759.55,-64.79 760.92,-55.05 762.19,-46.07"/>
<polygon fill="black" stroke="black" points="765.67,-46.42 763.6,-36.03 758.74,-45.44 765.67,-46.42"/>
</g>
<!-- 18 -->
<g id="node19" class="node">
<title>18</title>
<ellipse fill="none" stroke="black" cx="752" cy="-178" rx="40.09" ry="18"/>
<text text-anchor="start" x="729" y="-175.3" font-family="Times New Roman,serif" font-size="14.00">x</text>
<text text-anchor="start" x="736" y="-175.3" font-family="Times New Roman,serif" baseline-shift="sub" font-size="14.00">CLASH</text>
</g>
<!-- 17&#45;&gt;18 -->
<g id="edge18" class="edge">
<title>17&#45;&gt;18</title>
<path fill="none" stroke="black" d="M747.21,-246.8C748.04,-235.16 749.14,-219.55 750.08,-206.24"/>
<polygon fill="black" stroke="black" points="753.57,-206.4 750.79,-196.18 746.59,-205.9 753.57,-206.4"/>
</g>
</g>
</svg>
