<svg width="514" height="535" xmlns="http://www.w3.org/2000/svg" xmlns:xlink="http://www.w3.org/1999/xlink" xml:space="preserve" overflow="hidden"><defs><clipPath id="clip0"><rect x="140" y="126" width="514" height="535"/></clipPath><clipPath id="clip1"><path d="M258.658 317.798 248.529 316.189 250.139 306.066 260.268 307.676Z" fill-rule="evenodd" clip-rule="evenodd"/></clipPath><clipPath id="clip2"><path d="M252.265 286.785 245.802 294.743 237.839 288.284 244.302 280.326Z" fill-rule="evenodd" clip-rule="evenodd"/></clipPath><clipPath id="clip3"><path d="M465.714 514.451 455.811 511.787 458.476 501.89 468.38 504.554Z" fill-rule="evenodd" clip-rule="evenodd"/></clipPath><clipPath id="clip4"><path d="M407.998 514.518 416.519 508.813 422.228 517.328 413.707 523.033Z" fill-rule="evenodd" clip-rule="evenodd"/></clipPath><clipPath id="clip5"><path d="M402.172 305.676 406.063 315.159 396.574 319.048 392.683 309.564Z" fill-rule="evenodd" clip-rule="evenodd"/></clipPath><clipPath id="clip6"><path d="M423.934 472.062 430.117 480.24 421.935 486.419 415.751 478.242Z" fill-rule="evenodd" clip-rule="evenodd"/></clipPath><clipPath id="clip7"><path d="M449.866 472.93 446.449 482.594 436.779 479.18 440.196 469.515Z" fill-rule="evenodd" clip-rule="evenodd"/></clipPath><clipPath id="clip8"><path d="M438.988 325.452 430.088 330.547 424.99 321.653 433.89 316.559Z" fill-rule="evenodd" clip-rule="evenodd"/></clipPath></defs><g clip-path="url(#clip0)" transform="translate(-140 -126)"><path d="M365.79 184.734C331.392 179.265 309.894 175.847 301.295 174.479 292.696 173.112 271.198 169.694 236.801 164.226" stroke="#000000" stroke-width="1.02498" fill="none" transform="matrix(1.00062 0 0 1 17.4517 147.707)"/><g clip-path="url(#clip1)"><path d="M0 0-4.39284 2.92856-4.39284-2.92856 0 0" stroke="#000000" stroke-width="0.732141" stroke-dasharray="36.607 36.607" transform="matrix(-0.988189 -0.157016 0.157113 -0.987581 254.398 311.932)"/></g><path d="M306.688 42.2197C285.561 68.2484 272.356 84.5164 267.074 91.024 261.793 97.5311 248.588 113.799 227.46 139.828" stroke="#6699CC" stroke-width="1.02498" fill="none" transform="matrix(1.00062 0 0 1 17.4517 147.707)"/><g clip-path="url(#clip2)"><path d="M0 0-4.39385 2.92923-4.39385-2.92923 0 0" stroke="#6699CC" stroke-width="0.732309" stroke-dasharray="36.6154 36.6154" fill="#6699CC" transform="matrix(-0.630448 0.776231 -0.776709 -0.63006 245.052 287.535)"/></g><path d="M563.12 392.43C531.453 383.906 511.66 378.578 503.744 376.447 495.828 374.316 476.036 368.988 444.37 360.464" stroke="#000000" stroke-width="1.02498" stroke-dasharray="1.53747 1.53747" fill="none" transform="matrix(1.00062 0 0 1 17.4517 147.707)"/><g clip-path="url(#clip3)"><path d="M0 0-4.39296 2.92864-4.39296-2.92864 0 0" stroke="#000000" stroke-width="0.73216" stroke-dasharray="36.608 36.608" fill="#FFFFFF" transform="matrix(-0.96618 -0.259926 0.260086 -0.965585 462.095 508.171)"/></g><path d="M294.567 437.115C321.993 418.742 339.135 407.259 345.992 402.666 352.848 398.073 369.99 386.59 397.417 368.216" stroke="#000000" stroke-width="1.02498" stroke-dasharray="1.53747 1.53747" fill="none" transform="matrix(1.00062 0 0 1 17.4517 147.707)"/><g clip-path="url(#clip4)"><path d="M0 0-4.39361 2.92908-4.39361-2.92908 0 0" stroke="#000000" stroke-width="0.732269" stroke-dasharray="36.6135 36.6135" fill="#FFFFFF" transform="matrix(0.831157 -0.556459 0.556802 0.830645 415.113 515.923)"/></g><path d="M333.076 46.1093C346.039 77.7213 354.141 97.4788 357.381 105.382 360.622 113.285 368.724 133.043 381.686 164.655" stroke="#000000" stroke-width="1.02498" stroke-dasharray="1.53747 1.53747" fill="none" transform="matrix(1.00062 0 0 1 17.4517 147.707)"/><g clip-path="url(#clip5)"><path d="M0 0-4.39317 2.92878-4.39317-2.92878 0 0" stroke="#000000" stroke-width="0.732194" stroke-dasharray="36.6097 36.6097" fill="#FFFFFF" transform="matrix(0.379586 0.925156 -0.925726 0.379353 399.373 312.362)"/></g><path d="M385.766 214.315C374.82 248.611 369.996 269.667 371.294 277.481 372.592 285.296 383.905 303.314 405.233 331.534" stroke="#6699CC" stroke-width="1.02498" fill="none" transform="matrix(1.00062 0 0 1 17.4517 147.707)"/><g clip-path="url(#clip6)"><path d="M0 0-4.39376 2.92917-4.39376-2.92917 0 0" stroke="#6699CC" stroke-width="0.732293" stroke-dasharray="36.6147 36.6147" fill="#6699CC" transform="matrix(0.603174 0.79761 -0.798101 0.602803 422.934 479.241)"/></g><path d="M405.893 210.722C428.436 239.416 440.364 257.683 441.678 265.525 442.993 273.367 437.636 294.308 425.609 328.348" stroke="#000000" stroke-width="1.02498" fill="none" transform="matrix(1.00062 0 0 1 17.4517 147.707)"/><g clip-path="url(#clip7)"><path d="M0 0-4.39308 2.92872-4.39308-2.92872 0 0" stroke="#000000" stroke-width="0.73218" stroke-dasharray="36.609 36.609" transform="matrix(-0.333334 0.942809 -0.943389 -0.333129 443.322 476.055)"/></g><path d="M524.847 112.51C495.364 129.4 476.936 139.956 469.565 144.178 462.194 148.401 443.766 158.957 414.282 175.846" stroke="#000000" stroke-width="1.02498" stroke-dasharray="1.53747 1.53747" fill="none" transform="matrix(1.00062 0 0 1 17.4517 147.707)"/><g clip-path="url(#clip8)"><path d="M0 0-4.39345 2.92896-4.39345-2.92896 0 0" stroke="#000000" stroke-width="0.732241" stroke-dasharray="36.612 36.612" fill="#FFFFFF" transform="matrix(-0.868118 0.496986 -0.497292 -0.867584 431.989 323.553)"/></g><path d="M-1.42955-2.07453 1.3571-2.07453 1.3571 0.0643019-1.09536 0.0745856 1.3571 0.0643019 1.3571 2.2237-1.43983 2.2237" stroke="#000000" stroke-width="0.512491" fill="none" transform="matrix(1.00062 0 0 1 247.467 277.001)"/><path d="M-1.42955-2.07453 1.3571-2.07453 1.3571 0.0643019-1.09536 0.0745856 1.3571 0.0643019 1.3571 2.2237-1.43983 2.2237" stroke="#000000" stroke-width="0.512491" fill="none" transform="matrix(1.00062 0 0 1 413.667 473.976)"/><path d="M-21.0121-7.17487 21.0121-7.17487 21.0121 7.17487-21.0121 7.17487Z" fill="#FFFFFF" transform="matrix(1.00062 0 0 1 375.053 253.089)"/><text font-family="Arial,Arial_MSFontService,sans-serif" font-weight="400" font-size="12" transform="matrix(0.512806 0 0 0.512491 358.387 256)">Subclass of</text><path d="M-21.0121-7.17487 21.0121-7.17487 21.0121 7.17487-21.0121 7.17487Z" fill="#FFFFFF" transform="matrix(1.00062 0 0 1 363.656 550.373)"/><text font-family="Arial,Arial_MSFontService,sans-serif" font-weight="400" font-size="12" transform="matrix(0.512806 0 0 0.512491 346.99 553)">Subclass of</text><path d="M-21.0121-7.17487 21.0121-7.17487 21.0121 7.17487-21.0121 7.17487Z" fill="#FFFFFF" transform="matrix(1.00062 0 0 1 521.506 524.154)"/><text font-family="Arial,Arial_MSFontService,sans-serif" font-weight="400" font-size="12" transform="matrix(0.512806 0 0 0.512491 504.84 527)">Subclass of</text><path d="M-21.2684-7.17487 21.2684-7.17487 21.2684 7.17487-21.2684 7.17487Z" fill="#AACCFF" transform="matrix(1.00062 0 0 1 318.933 322.186)"/><text font-family="Arial,Arial_MSFontService,sans-serif" font-weight="400" font-size="12" transform="matrix(0.512806 0 0 0.512491 302.266 325)">haSpecchio</text><path d="M-21.2684-7.17487 21.2684-7.17487 21.2684 7.17487-21.2684 7.17487Z" fill="#AACCFF" transform="matrix(1.00062 0 0 1 284.69 238.731)"/><text font-family="Arial,Arial_MSFontService,sans-serif" font-weight="400" font-size="12" transform="matrix(0.512806 0 0 0.512491 268.024 242)">haSpecchio</text><path d="M-19.9871-7.17487 19.9871-7.17487 19.9871 7.17487-19.9871 7.17487Z" fill="#AACCFF" transform="matrix(1.00062 0 0 1 388.975 425.188)"/><text font-family="Arial,Arial_MSFontService,sans-serif" font-weight="400" font-size="12" transform="matrix(0.512806 0 0 0.512491 373.334 428)">haSensore</text><path d="M-19.9871-7.17487 19.9871-7.17487 19.9871 7.17487-19.9871 7.17487Z" fill="#AACCFF" transform="matrix(1.00062 0 0 1 459.402 413.232)"/><text font-family="Arial,Arial_MSFontService,sans-serif" font-weight="400" font-size="12" transform="matrix(0.512806 0 0 0.512491 443.761 416)">haSensore</text><path d="M-21.0121-7.17487 21.0121-7.17487 21.0121 7.17487-21.0121 7.17487Z" fill="#FFFFFF" transform="matrix(1.00062 0 0 1 487.306 291.885)"/><text font-family="Arial,Arial_MSFontService,sans-serif" font-weight="400" font-size="12" transform="matrix(0.512806 0 0 0.512491 470.64 295)">Subclass of</text><path d="M25.6245 0C25.6245 14.152 14.152 25.6245-3.64146e-15 25.6245-14.152 25.6245-25.6245 14.152-25.6245 3.64146e-15-25.6245-14.152-14.152-25.6245-5.4622e-15-25.6245 14.152-25.6245 25.6245-14.152 25.6245 0Z" stroke="#000000" stroke-width="1.02498" fill="#AACCFF" transform="matrix(1.00062 0 0 1 340.811 169.633)"/><text font-family="Arial,Arial_MSFontService,sans-serif" font-weight="400" font-size="12" transform="matrix(0.512806 0 0 0.512491 332.093 173)">Reflex</text><path d="M25.6245 0C25.6245 14.152 14.152 25.6245-3.64146e-15 25.6245-14.152 25.6245-25.6245 14.152-25.6245 3.64146e-15-25.6245-14.152-14.152-25.6245-5.4622e-15-25.6245 14.152-25.6245 25.6245-14.152 25.6245 0Z" stroke="#000000" stroke-width="1.02498" fill="#AACCFF" transform="matrix(1.00062 0 0 1 606.169 546.931)"/><text font-family="Arial,Arial_MSFontService,sans-serif" font-weight="400" font-size="12" transform="matrix(0.512806 0 0 0.512491 591.81 550)">FullFrame</text><path d="M25.6245 0C25.6245 14.152 14.152 25.6245-3.64146e-15 25.6245-14.152 25.6245-25.6245 14.152-25.6245 3.64146e-15-25.6245-14.152-14.152-25.6245-5.4622e-15-25.6245 14.152-25.6245 25.6245-14.152 25.6245 0Z" stroke="#000000" stroke-width="1.02498" fill="#AACCFF" transform="matrix(1.00062 0 0 1 290.472 599.368)"/><text font-family="Arial,Arial_MSFontService,sans-serif" font-weight="400" font-size="12" transform="matrix(0.512806 0 0 0.512491 282.267 602)">APSC</text><path d="M25.6245 0C25.6245 14.152 14.152 25.6245-3.64146e-15 25.6245-14.152 25.6245-25.6245 14.152-25.6245 3.64146e-15-25.6245-14.152-14.152-25.6245-5.4622e-15-25.6245 14.152-25.6245 25.6245-14.152 25.6245 0Z" stroke="#000000" stroke-width="1.02498" fill="#AACCFF" transform="matrix(1.00062 0 0 1 228.57 307.828)"/><text font-family="Arial,Arial_MSFontService,sans-serif" font-weight="400" font-size="12" transform="matrix(0.512806 0 0 0.512491 215.493 311)">Specchio</text><path d="M25.6245 0C25.6245 14.152 14.152 25.6245-3.64146e-15 25.6245-14.152 25.6245-25.6245 14.152-25.6245 3.64146e-15-25.6245-14.152-14.152-25.6245-5.4622e-15-25.6245 14.152-25.6245 25.6245-14.152 25.6245 0Z" stroke="#000000" stroke-width="1.02498" fill="#AACCFF" transform="matrix(1.00062 0 0 1 409.295 336.545)"/><text font-family="Arial,Arial_MSFontService,sans-serif" font-weight="400" font-size="12" transform="matrix(0.512806 0 0 0.512491 385.706 340)">MacchinaFotog...</text><path d="M25.6245 0C25.6245 14.152 14.152 25.6245-3.64146e-15 25.6245-14.152 25.6245-25.6245 14.152-25.6245 3.64146e-15-25.6245-14.152-14.152-25.6245-5.4622e-15-25.6245 14.152-25.6245 25.6245-14.152 25.6245 0Z" stroke="#000000" stroke-width="1.02498" fill="#AACCFF" transform="matrix(1.00062 0 0 1 565.319 247.226)"/><text font-family="Arial,Arial_MSFontService,sans-serif" font-weight="400" font-size="12" transform="matrix(0.512806 0 0 0.512491 551.216 250)">Mirrorless</text><path d="M25.6245 0C25.6245 14.152 14.152 25.6245-3.64146e-15 25.6245-14.152 25.6245-25.6245 14.152-25.6245 3.64146e-15-25.6245-14.152-14.152-25.6245-5.4622e-15-25.6245 14.152-25.6245 25.6245-14.152 25.6245 0Z" stroke="#000000" stroke-width="1.02498" fill="#AACCFF" transform="matrix(1.00062 0 0 1 436.842 501.376)"/><text font-family="Arial,Arial_MSFontService,sans-serif" font-weight="400" font-size="12" transform="matrix(0.512806 0 0 0.512491 424.791 504)">Sensore</text></g></svg>